<svg width="500" height="400" viewBox="0 0 635 457" fill="none" xmlns="http://www.w3.org/2000/svg">
<g filter="url(#filter0_d)">
<path d="M80.4171 0C87.6759 0 93.5695 6.59688 93.5695 14.7219C93.5695 22.8469 87.6759 29.4438 80.4171 29.4438C73.1582 29.4438 67.2646 22.8469 67.2646 14.7219C67.2646 6.59688 73.1582 0 80.4171 0Z" fill="#6B9EFC"/>
<path d="M74.1788 27.4237L54.8665 49.9724L74.1788 27.4237Z" stroke="#6B9EFC" stroke-width="3.77549" stroke-miterlimit="10" stroke-linecap="square"/>
<path d="M85.5 25.7467L104.146 54.2587L85.5 25.7467Z" stroke="#6B9EFC" stroke-width="3.77549" stroke-miterlimit="10" stroke-linecap="square"/>
<path d="M103.725 40.9974C110.984 40.9974 116.878 47.5943 116.878 55.7193C116.878 63.8443 110.984 70.4412 103.725 70.4412C96.4663 70.4412 90.5728 63.8443 90.5728 55.7193C90.5728 47.5943 96.4663 40.9974 103.725 40.9974Z" fill="#6B9EFC"/>
<path d="M53.0349 63.5762L71.8478 91.9018L53.0349 63.5762Z" stroke="#6B9EFC" stroke-width="3.77549" stroke-miterlimit="10" stroke-linecap="square"/>
<path d="M47.1199 40.9974C54.3787 40.9974 60.2723 47.5943 60.2723 55.7193C60.2723 63.8443 54.3787 70.4412 47.1199 70.4412C39.8611 70.4412 33.9675 63.8443 33.9675 55.7193C33.9675 47.5943 39.8611 40.9974 47.1199 40.9974Z" fill="#6B9EFC"/>
<path d="M75.4224 83.8588C82.6812 83.8588 88.5748 90.4556 88.5748 98.5807C88.5748 106.706 82.6812 113.303 75.4224 113.303C68.1636 113.303 62.27 106.706 62.27 98.5807C62.27 90.4556 68.1636 83.8588 75.4224 83.8588Z" fill="#6B9EFC"/>
<path d="M43.3788 63.2032L24.0664 85.7519L43.3788 63.2032Z" stroke="#6B9EFC" stroke-width="3.77549" stroke-miterlimit="10" stroke-linecap="square"/>
<path d="M17.1524 76.4047C24.4112 76.4047 30.3048 83.0015 30.3048 91.1265C30.3048 99.2515 24.4112 105.848 17.1524 105.848C9.8936 105.848 4 99.2515 4 91.1265C4 83.0015 9.8936 76.4047 17.1524 76.4047Z" fill="#6B9EFC"/>
<path d="M420.214 359.255L235.415 239.43C230.254 236.075 230.087 227.689 235.082 224.149L367.105 130.04C369.602 128.363 372.599 128.177 375.096 129.668L571.716 247.256C577.211 250.611 577.377 259.183 572.049 262.724L428.206 359.068C425.708 360.932 422.711 360.932 420.214 359.255Z" fill="#CCCCCC"/>
<path d="M369.55 319.877L369.434 323.221C369.274 327.855 366.948 332.086 363.256 334.459L237.899 415.025C233.65 417.756 228.37 417.817 224.067 415.183L27.3599 294.75C23.6944 292.506 21.4292 288.307 21.4292 283.757V277.405L369.55 319.877Z" fill="#2596A8"/>
<path d="M369.55 319.877L369.434 323.221C369.274 327.855 366.948 332.086 363.256 334.459L237.899 415.025C233.65 417.756 228.37 417.817 224.067 415.183L27.3599 294.75C23.6944 292.506 21.4292 288.307 21.4292 283.757V277.405L369.55 319.877Z" stroke="black" stroke-miterlimit="10" stroke-linecap="square"/>
<path d="M226.63 410.123L24.7979 284.386C19.2659 280.94 19.2231 272.334 24.7206 268.823L154.395 186.011C156.969 184.366 160.162 184.336 162.762 185.93L365.324 310.064C370.882 313.469 370.978 322.083 365.497 325.63L235.092 410.047C232.493 411.729 229.254 411.758 226.63 410.123Z" fill="#7696CD"/>
<path d="M226.63 410.123L24.7979 284.386C19.2659 280.94 19.2231 272.334 24.7206 268.823L154.395 186.011C156.969 184.366 160.162 184.336 162.762 185.93L365.324 310.064C370.882 313.469 370.978 322.083 365.497 325.63L235.092 410.047C232.493 411.729 229.254 411.758 226.63 410.123Z" stroke="black" stroke-miterlimit="10" stroke-linecap="square"/>
<path d="M155.515 356.574L103.94 323.996C101.128 322.219 101.085 317.845 103.862 316.005L137.788 293.516C139.93 292.097 142.612 292.025 144.815 293.332L198.184 324.942C201.354 326.819 201.471 331.692 198.396 333.744L164.376 356.458C161.671 358.265 158.262 358.309 155.515 356.574Z" fill="#FFC54B"/>
<path d="M155.515 356.574L103.94 323.996C101.128 322.219 101.085 317.845 103.862 316.005L137.788 293.516C139.93 292.097 142.612 292.025 144.815 293.332L198.184 324.942C201.354 326.819 201.471 331.692 198.396 333.744L164.376 356.458C161.671 358.265 158.262 358.309 155.515 356.574Z" stroke="black" stroke-miterlimit="10" stroke-linecap="square"/>
<path d="M277.971 367.185L92.449 251.63C89.6306 249.875 89.6279 245.484 92.4435 243.724L161.434 200.599C162.729 199.79 164.324 199.78 165.628 200.572L351.641 313.729C354.458 315.443 354.524 319.799 351.759 321.611L282.278 367.134C280.958 367.998 279.308 368.018 277.971 367.185Z" fill="#D781B5"/>
<path d="M277.971 367.185L92.449 251.63C89.6306 249.875 89.6279 245.484 92.4435 243.724L161.434 200.599C162.729 199.79 164.324 199.78 165.628 200.572L351.641 313.728C354.458 315.443 354.524 319.799 351.759 321.611L282.278 367.134C280.958 367.998 279.308 368.018 277.971 367.185Z" stroke="black" stroke-miterlimit="10" stroke-linecap="square"/>
<path d="M368.704 312.416L376.278 313.766C381.472 311.5 382.344 302.505 382.344 296.455V136.642C382.344 131.988 380.051 127.686 376.326 125.347L179.162 3.43279C173.905 0.131617 171.546 0.655993 166.142 3.66817L160.365 6.89039L368.704 312.416Z" fill="#2596A8"/>
<path d="M368.704 312.416L376.278 313.766C381.472 311.5 382.344 302.505 382.344 296.455V136.642C382.344 131.988 380.051 127.686 376.326 125.347L179.162 3.43279C173.905 0.131617 171.546 0.655993 166.142 3.66817L160.365 6.89039L368.704 312.416Z" stroke="black" stroke-miterlimit="10" stroke-linecap="square"/>
<path d="M368.704 312.416L160.821 183.392C159.253 182.418 158.286 180.613 158.286 178.659V11.2956C158.286 7.11993 162.451 4.49061 165.821 6.53895L373.704 132.928C375.294 133.895 376.279 135.714 376.279 137.685V307.682C376.278 311.88 372.073 314.508 368.704 312.416Z" fill="#8BCDAB"/>
<path d="M368.704 312.416L160.821 183.392C159.253 182.418 158.286 180.614 158.286 178.659V11.2956C158.286 7.11993 162.451 4.49061 165.821 6.53895L373.704 132.928C375.294 133.895 376.279 135.714 376.279 137.685V307.682C376.278 311.88 372.073 314.508 368.704 312.416Z" stroke="black" stroke-miterlimit="10" stroke-linecap="square"/>
<path d="M356.273 295.535L173.869 182.324C172.492 181.469 171.644 179.885 171.644 178.171V31.3218C171.644 27.6571 175.298 25.351 178.256 27.1476L360.66 138.047C362.056 138.896 362.919 140.492 362.919 142.221V291.383C362.919 295.066 359.231 297.37 356.273 295.535Z" fill="#9FDCF8"/>
<path d="M356.273 295.535L173.869 182.324C172.492 181.469 171.644 179.885 171.644 178.171V31.3218C171.644 27.6571 175.298 25.351 178.256 27.1476L360.66 138.047C362.056 138.896 362.919 140.492 362.919 142.221V291.383C362.919 295.066 359.231 297.37 356.273 295.535Z" stroke="black" stroke-miterlimit="10" stroke-linecap="square"/>
<g opacity="0.01">
<path d="M521.263 154.706L506.446 145.202C503.782 143.524 501.618 144.829 501.618 148.37V167.378C501.618 170.732 503.782 175.018 506.446 176.695L521.263 186.199C523.927 187.876 526.091 186.572 526.091 183.031V164.023C526.091 160.482 523.927 156.383 521.263 154.706Z" fill="#7DE7B5"/>
<path d="M389.573 70.4741L375.422 61.3428C372.592 59.4793 370.261 60.9701 370.261 64.6972V82.9597C370.261 86.6868 372.592 90.9729 375.422 92.8364L389.573 101.968C392.403 103.831 394.734 102.34 394.734 98.6134V80.3508C394.568 76.8101 392.403 72.3376 389.573 70.4741Z" fill="#7DE7B5"/>
<path d="M477.145 125.635L461.994 115.758C459.497 114.081 457.333 115.385 457.333 118.74V138.307C457.333 141.661 459.331 145.574 461.994 147.252L477.145 157.128C479.642 158.806 481.806 157.501 481.806 154.147V134.58C481.806 131.412 479.808 127.312 477.145 125.635Z" fill="#7DE7B5"/>
<path d="M433.025 97.4952L417.709 87.6185C415.211 85.9413 413.047 87.2458 413.047 90.6001V110.167C413.047 113.522 415.045 117.435 417.542 119.112L432.859 128.989C435.356 130.666 437.521 129.362 437.521 126.007V106.44C437.521 103.272 435.523 99.1724 433.025 97.4952Z" fill="#7DE7B5"/>
<path d="M393.402 90.7867L405.722 98.7999L393.402 90.7867Z" stroke="#7DE7B5" stroke-width="2.517" stroke-miterlimit="10" stroke-linecap="square"/>
<path d="M397.231 100.477L404.89 98.2406L402.892 89.6683L407.054 92.2773L409.052 100.85L401.394 103.272L397.231 100.477Z" fill="#7DE7B5"/>
<path d="M436.189 116.503L448.509 124.517L436.189 116.503Z" stroke="#7DE7B5" stroke-width="2.517" stroke-miterlimit="10" stroke-linecap="square"/>
<path d="M440.018 126.194L447.677 123.957L445.679 115.385L449.841 117.994L451.839 126.566L444.18 128.989L440.018 126.194Z" fill="#7DE7B5"/>
<path d="M480.974 145.574L493.294 153.588L480.974 145.574Z" stroke="#7DE7B5" stroke-width="2.517" stroke-linecap="round" stroke-linejoin="round"/>
<path d="M484.803 155.451L492.462 153.029L490.464 144.456L494.626 147.252L496.624 155.824L488.965 158.06L484.803 155.451Z" fill="#7DE7B5"/>
</g>
<path d="M189.329 111.584L178.542 100.858L179.534 97.4683L193.889 95.983L192.723 99.9747L182.854 100.515L190.487 107.621L189.329 111.584Z" fill="#2796A8"/>
<path d="M189.707 114.698L200.457 95.1274L203.097 96.0965L192.299 115.647L189.707 114.698Z" fill="#2796A8"/>
<path d="M198.833 115.082L199.992 111.119L209.906 110.47L202.241 103.428L203.39 99.4939L214.197 110.196L213.214 113.558L198.833 115.082Z" fill="#2796A8"/>
<path d="M260.733 27.5953L270.498 18.7528L266.537 6.19824L272.739 8.19222L274.622 15.1935L279.719 10.4359L285.685 12.3535L276.565 20.4393L280.765 34.0375L274.527 32.0305L272.332 24.1179L266.68 29.5091L260.733 27.5953Z" fill="#6B9EFC"/>
<g opacity="0.864783">
<path d="M262.935 115.47V111.371C263.675 111.326 264.236 111.199 264.613 110.994C264.991 110.789 265.315 110.444 265.59 109.96C265.865 109.475 266.053 108.87 266.154 108.139C266.236 107.593 266.278 106.641 266.278 105.286C266.278 103.076 266.369 101.537 266.552 100.667C266.734 99.7944 267.067 99.0937 267.545 98.5645C268.022 98.0352 268.72 97.6159 269.636 97.3085C270.257 97.1053 271.232 97.001 272.566 97.001H273.375V101.084C272.244 101.084 271.52 101.155 271.199 101.296C270.879 101.44 270.643 101.654 270.49 101.947C270.337 102.239 270.26 102.737 270.26 103.443C270.26 104.161 270.215 105.521 270.122 107.524C270.072 108.652 269.94 109.567 269.726 110.267C269.512 110.968 269.239 111.548 268.91 112.002C268.58 112.457 268.072 112.93 267.391 113.421C267.991 113.808 268.482 114.261 268.865 114.779C269.246 115.295 269.537 115.925 269.742 116.667C269.945 117.407 270.077 118.398 270.138 119.641C270.208 121.532 270.243 122.738 270.243 123.262C270.243 124.013 270.327 124.538 270.488 124.835C270.651 125.129 270.898 125.355 271.227 125.507C271.557 125.662 272.273 125.738 273.372 125.738V129.838H272.562C271.191 129.838 270.137 129.717 269.404 129.471C268.673 129.227 268.052 128.819 267.55 128.25C267.047 127.68 266.709 126.978 266.536 126.141C266.363 125.304 266.278 123.985 266.278 122.185C266.278 120.09 266.194 118.73 266.033 118.104C265.81 117.192 265.47 116.54 265.019 116.147C264.563 115.754 263.869 115.526 262.935 115.47Z" fill="#D882B7"/>
<path d="M286.967 115.471C286.225 115.515 285.665 115.642 285.287 115.845C284.909 116.05 284.588 116.395 284.318 116.879C284.049 117.364 283.859 117.971 283.746 118.7C283.664 119.248 283.624 120.193 283.624 121.536C283.624 123.746 283.534 125.289 283.356 126.165C283.18 127.043 282.85 127.746 282.372 128.275C281.894 128.804 281.192 129.223 280.264 129.531C279.643 129.736 278.668 129.838 277.334 129.838H276.525V125.739C277.614 125.739 278.326 125.662 278.663 125.507C278.997 125.355 279.245 125.133 279.402 124.842C279.56 124.553 279.642 124.059 279.645 123.364C279.648 122.669 279.693 121.342 279.775 119.384C279.825 118.199 279.963 117.25 280.186 116.54C280.411 115.828 280.707 115.225 281.08 114.727C281.451 114.231 281.928 113.797 282.505 113.421C281.753 112.875 281.203 112.34 280.857 111.816C280.379 111.065 280.055 110.107 279.881 108.946C279.77 108.149 279.688 106.395 279.637 103.684C279.627 102.83 279.558 102.26 279.432 101.975C279.304 101.692 279.076 101.47 278.744 101.317C278.415 101.162 277.672 101.086 276.523 101.086V97.0029H277.333C278.706 97.0029 279.76 97.1222 280.491 97.3607C281.223 97.6011 281.839 98.0092 282.337 98.5832C282.835 99.1572 283.175 99.8653 283.351 100.702C283.529 101.539 283.619 102.856 283.619 104.656C283.619 106.74 283.696 108.102 283.849 108.739C284.072 109.651 284.413 110.303 284.871 110.696C285.327 111.089 286.025 111.313 286.962 111.371V115.471H286.967Z" fill="#D882B7"/>
</g>
</g>
<defs>
<filter id="filter0_d" x="0" y="0" width="579.943" height="425.617" filterUnits="userSpaceOnUse" color-interpolation-filters="sRGB">
<feFlood flood-opacity="0" result="BackgroundImageFix"/>
<feColorMatrix in="SourceAlpha" type="matrix" values="0 0 0 0 0 0 0 0 0 0 0 0 0 0 0 0 0 0 127 0"/>
<feOffset dy="4"/>
<feGaussianBlur stdDeviation="2"/>
<feColorMatrix type="matrix" values="0 0 0 0 0 0 0 0 0 0 0 0 0 0 0 0 0 0 0.25 0"/>
<feBlend mode="normal" in2="BackgroundImageFix" result="effect1_dropShadow"/>
<feBlend mode="normal" in="SourceGraphic" in2="effect1_dropShadow" result="shape"/>
</filter>
</defs>
</svg>
