<svg width="1203" height="854"  id="btsxxvpse" xmlns="http://www.w3.org/2000/svg" xmlns:xlink="http://www.w3.org/1999/xlink" viewBox="0 0 1247 913" shape-rendering="geometricPrecision" text-rendering="geometricPrecision"><style><![CDATA[#btsxxvpse-ellipse1 {animation: btsxxvpse-ellipse1_f_p 4000ms linear infinite normal forwards}@keyframes btsxxvpse-ellipse1_f_p { 0% {fill: rgb(68,59,59)} 45% {fill: rgb(68,59,59)} 50% {fill: rgb(32,140,1)} 100% {fill: rgb(32,140,1)} }#btsxxvpse-ellipse2 {animation: btsxxvpse-ellipse2_f_p 4000ms linear infinite normal forwards}@keyframes btsxxvpse-ellipse2_f_p { 0% {fill: rgb(68,59,59)} 70% {fill: rgb(68,59,59)} 75% {fill: rgb(32,140,1)} 100% {fill: rgb(32,140,1)} }#btsxxvpse-ellipse3 {animation: btsxxvpse-ellipse3_f_p 4000ms linear infinite normal forwards}@keyframes btsxxvpse-ellipse3_f_p { 0% {fill: rgb(68,59,59)} 35% {fill: rgb(68,59,59)} 40% {fill: rgb(32,140,1)} 100% {fill: rgb(32,140,1)} }#btsxxvpse-ellipse4 {animation: btsxxvpse-ellipse4_f_p 4000ms linear infinite normal forwards}@keyframes btsxxvpse-ellipse4_f_p { 0% {fill: rgb(68,59,59)} 55% {fill: rgb(68,59,59)} 60% {fill: rgb(32,140,1)} 100% {fill: rgb(32,140,1)} }#btsxxvpse-ellipse5 {animation: btsxxvpse-ellipse5_f_p 4000ms linear infinite normal forwards}@keyframes btsxxvpse-ellipse5_f_p { 0% {fill: rgb(68,59,59)} 20% {fill: rgb(68,59,59)} 25% {fill: rgb(32,140,1)} 100% {fill: rgb(32,140,1)} }#btsxxvpse-ellipse6 {animation: btsxxvpse-ellipse6_f_p 4000ms linear infinite normal forwards}@keyframes btsxxvpse-ellipse6_f_p { 0% {fill: rgb(68,59,59)} 10% {fill: rgb(68,59,59)} 15% {fill: rgb(32,140,1)} 100% {fill: rgb(32,140,1)} }#btsxxvpse-path3 {animation: btsxxvpse-path3_f_p 4000ms linear infinite normal forwards}@keyframes btsxxvpse-path3_f_p { 0% {fill: rgb(0,0,0)} 15% {fill: rgb(0,0,0)} 20% {fill: rgb(32,140,1)} 100% {fill: rgb(32,140,1)} }#btsxxvpse-path4 {animation: btsxxvpse-path4_f_p 4000ms linear infinite normal forwards}@keyframes btsxxvpse-path4_f_p { 0% {fill: rgb(0,0,0)} 60% {fill: rgb(0,0,0)} 65% {fill: rgb(32,140,1)} 100% {fill: rgb(32,140,1)} }#btsxxvpse-path5 {animation: btsxxvpse-path5_f_p 4000ms linear infinite normal forwards}@keyframes btsxxvpse-path5_f_p { 0% {fill: rgb(0,0,0)} 40% {fill: rgb(0,0,0)} 45% {fill: rgb(32,140,1)} 100% {fill: rgb(32,140,1)} }#btsxxvpse-path7 {animation: btsxxvpse-path7_f_p 4000ms linear infinite normal forwards}@keyframes btsxxvpse-path7_f_p { 0% {fill: rgb(0,0,0)} 30% {fill: rgb(0,0,0)} 35% {fill: rgb(32,140,1)} 100% {fill: rgb(32,140,1)} }#btsxxvpse-path9 {animation: btsxxvpse-path9_f_p 4000ms linear infinite normal forwards}@keyframes btsxxvpse-path9_f_p { 0% {fill: rgb(0,0,0)} 5% {fill: rgb(0,0,0)} 10% {fill: rgb(32,140,1)} 100% {fill: rgb(32,140,1)} }#btsxxvpse-path10 {animation: btsxxvpse-path10_f_p 4000ms linear infinite normal forwards}@keyframes btsxxvpse-path10_f_p { 0% {fill: rgb(0,0,0)} 75% {fill: rgb(0,0,0)} 80% {fill: rgb(32,140,1)} 100% {fill: rgb(32,140,1)} }#btsxxvpse-path11 {animation: btsxxvpse-path11_f_p 4000ms linear infinite normal forwards}@keyframes btsxxvpse-path11_f_p { 0% {fill: rgb(0,0,0)} 65% {fill: rgb(0,0,0)} 70% {fill: rgb(32,140,1)} 100% {fill: rgb(32,140,1)} }#btsxxvpse-path12 {animation: btsxxvpse-path12_f_p 4000ms linear infinite normal forwards}@keyframes btsxxvpse-path12_f_p { 0% {fill: rgb(0,0,0)} 50% {fill: rgb(0,0,0)} 55% {fill: rgb(32,140,1)} 100% {fill: rgb(32,140,1)} }#btsxxvpse-path13 {animation: btsxxvpse-path13_f_p 4000ms linear infinite normal forwards}@keyframes btsxxvpse-path13_f_p { 0% {fill: none} 25% {fill: none} 30% {fill: url(#btsxxvpse-path13-fill-g1)} 100% {fill: url(#btsxxvpse-path13-fill-g1)} }#btsxxvpse-ellipse7 {animation: btsxxvpse-ellipse7_f_p 4000ms linear infinite normal forwards}@keyframes btsxxvpse-ellipse7_f_p { 0% {fill: rgb(68,59,59)} 5% {fill: rgb(32,140,1)} 100% {fill: rgb(32,140,1)} }#btsxxvpse-ellipse8_ts {animation: btsxxvpse-ellipse8_ts__ts 4000ms linear infinite normal forwards}@keyframes btsxxvpse-ellipse8_ts__ts { 0% {transform: translate(1021.270000px,436px) scale(-1,1)} 85% {transform: translate(1021.270000px,436px) scale(-1,1)} 90% {transform: translate(1021.270000px,436px) scale(-1.500000,1.500000)} 95% {transform: translate(1021.270000px,436px) scale(-1,1)} 100% {transform: translate(1021.270000px,436px) scale(-1,1)} }#btsxxvpse-ellipse8 {animation: btsxxvpse-ellipse8_f_p 4000ms linear infinite normal forwards}@keyframes btsxxvpse-ellipse8_f_p { 0% {fill: rgb(68,59,59)} 80% {fill: rgb(68,59,59)} 85% {fill: rgb(32,140,1)} 100% {fill: rgb(32,140,1)} }#btsxxvpse-path15 {animation: btsxxvpse-path15_f_p 4000ms linear infinite normal forwards}@keyframes btsxxvpse-path15_f_p { 0% {fill: rgb(0,0,0)} 75% {fill: rgb(0,0,0)} 80% {fill: rgb(32,140,1)} 100% {fill: rgb(32,140,1)} }#btsxxvpse-path16 {animation: btsxxvpse-path16_f_p 4000ms linear infinite normal forwards}@keyframes btsxxvpse-path16_f_p { 0% {fill: rgb(0,0,0)} 50% {fill: rgb(0,0,0)} 55% {fill: rgb(32,140,1)} 100% {fill: rgb(32,140,1)} }#btsxxvpse-path19 {animation: btsxxvpse-path19_f_p 4000ms linear infinite normal forwards}@keyframes btsxxvpse-path19_f_p { 0% {fill: rgb(0,0,0)} 60% {fill: rgb(0,0,0)} 65% {fill: rgb(32,140,1)} 100% {fill: rgb(32,140,1)} }#btsxxvpse-path20 {animation: btsxxvpse-path20_f_p 4000ms linear infinite normal forwards}@keyframes btsxxvpse-path20_f_p { 0% {fill: rgb(0,0,0)} 40% {fill: rgb(0,0,0)} 45% {fill: rgb(32,140,1)} 100% {fill: rgb(32,140,1)} }#btsxxvpse-path21 {animation: btsxxvpse-path21_f_p 4000ms linear infinite normal forwards}@keyframes btsxxvpse-path21_f_p { 0% {fill: rgb(0,0,0)} 20% {fill: rgb(0,0,0)} 25% {fill: rgb(32,140,1)} 100% {fill: rgb(32,140,1)} }#btsxxvpse-path22 {animation: btsxxvpse-path22_f_p 4000ms linear infinite normal forwards}@keyframes btsxxvpse-path22_f_p { 0% {fill: rgb(0,0,0)} 65% {fill: rgb(0,0,0)} 70% {fill: rgb(32,140,1)} 100% {fill: rgb(32,140,1)} }#btsxxvpse-path23 {animation: btsxxvpse-path23_f_p 4000ms linear infinite normal forwards}@keyframes btsxxvpse-path23_f_p { 0% {fill: rgb(0,0,0)} 15% {fill: rgb(0,0,0)} 20% {fill: rgb(32,140,1)} 100% {fill: rgb(32,140,1)} }#btsxxvpse-path24 {animation: btsxxvpse-path24_f_p 4000ms linear infinite normal forwards}@keyframes btsxxvpse-path24_f_p { 0% {fill: rgb(0,0,0)} 30% {fill: rgb(0,0,0)} 35% {fill: rgb(32,140,1)} 100% {fill: rgb(32,140,1)} }#btsxxvpse-path25 {animation: btsxxvpse-path25_f_p 4000ms linear infinite normal forwards}@keyframes btsxxvpse-path25_f_p { 0% {fill: rgb(0,0,0)} 10% {fill: rgb(0,0,0)} 15% {fill: rgb(32,140,1)} 100% {fill: rgb(32,140,1)} }#btsxxvpse-path38 {animation: btsxxvpse-path38_f_p 4000ms linear infinite normal forwards}@keyframes btsxxvpse-path38_f_p { 0% {fill: rgb(0,0,0)} 65% {fill: rgb(0,0,0)} 70% {fill: rgb(32,140,1)} 100% {fill: rgb(32,140,1)} }#btsxxvpse-path39 {animation: btsxxvpse-path39_f_p 4000ms linear infinite normal forwards}@keyframes btsxxvpse-path39_f_p { 0% {fill: rgb(0,0,0)} 75% {fill: rgb(0,0,0)} 80% {fill: rgb(32,140,1)} 100% {fill: rgb(32,140,1)} }#btsxxvpse-path41 {animation: btsxxvpse-path41_f_p 4000ms linear infinite normal forwards}@keyframes btsxxvpse-path41_f_p { 0% {fill: rgb(68,59,59)} 60% {fill: rgb(68,59,59)} 65% {fill: rgb(32,140,1)} 100% {fill: rgb(32,140,1)} }#btsxxvpse-path42 {animation: btsxxvpse-path42_f_p 4000ms linear infinite normal forwards}@keyframes btsxxvpse-path42_f_p { 0% {fill: rgb(0,0,0)} 40% {fill: rgb(0,0,0)} 45% {fill: rgb(32,140,1)} 100% {fill: rgb(32,140,1)} }#btsxxvpse-path43 {animation: btsxxvpse-path43_f_p 4000ms linear infinite normal forwards}@keyframes btsxxvpse-path43_f_p { 0% {fill: rgb(0,0,0)} 50% {fill: rgb(0,0,0)} 55% {fill: rgb(32,140,1)} 100% {fill: rgb(32,140,1)} }#btsxxvpse-path45 {animation: btsxxvpse-path45_f_p 4000ms linear infinite normal forwards}@keyframes btsxxvpse-path45_f_p { 0% {fill: rgb(0,0,0)} 30% {fill: rgb(0,0,0)} 35% {fill: rgb(32,140,1)} 100% {fill: rgb(32,140,1)} }#btsxxvpse-path46 {animation: btsxxvpse-path46_f_p 4000ms linear infinite normal forwards}@keyframes btsxxvpse-path46_f_p { 0% {fill: rgb(0,0,0)} 25% {fill: rgb(0,0,0)} 30% {fill: rgb(32,140,1)} 100% {fill: rgb(32,140,1)} }#btsxxvpse-path48 {animation: btsxxvpse-path48_f_p 4000ms linear infinite normal forwards}@keyframes btsxxvpse-path48_f_p { 0% {fill: rgb(0,0,0)} 15% {fill: rgb(0,0,0)} 20% {fill: rgb(32,140,1)} 100% {fill: rgb(32,140,1)} }#btsxxvpse-path49 {animation: btsxxvpse-path49_f_p 4000ms linear infinite normal forwards}@keyframes btsxxvpse-path49_f_p { 0% {fill: rgb(0,0,0)} 10% {fill: rgb(0,0,0)} 15% {fill: rgb(32,140,1)} 100% {fill: rgb(32,140,1)} }]]></style><defs><linearGradient id="btsxxvpse-path13-fill-g1" x1="0" y1="0.500000" x2="1.275290" y2="0.434292" spreadMethod="pad" gradientUnits="objectBoundingBox"><stop id="btsxxvpse-path13-fill-g1-0" offset="0%" stop-color="rgba(32,140,1,0.57)"/><stop id="btsxxvpse-path13-fill-g1-1" offset="100%" stop-color="rgb(32,144,0)"/></linearGradient></defs><g id="btsxxvpse-g1" transform="matrix(1 0 0 1 -15.25199986000007 -131.30326757500018)"><path id="btsxxvpse-path1" d="M4,157.120620C4,119.498879,32.653800,89,68,89L1179,89C1214.350000,89,1243,119.498879,1243,157.120620L1243,812.781583C1243,850.403324,1214.350000,880.902203,1179,880.902203L68,880.902203C32.653800,880.902203,4,850.403324,4,812.781583L4,157.120620Z" transform="matrix(1 0 0 1 11.25200000000007 126.80326757999990)" fill="rgb(253,252,252)" stroke="none" stroke-width="1"/></g><g id="btsxxvpse-g2"><ellipse id="btsxxvpse-ellipse1" rx="44.791700" ry="45" transform="matrix(-1 0 0 1 384.66329999999999 603)" fill="rgb(68,59,59)" stroke="none" stroke-width="1"/></g><g id="btsxxvpse-g3"><ellipse id="btsxxvpse-ellipse2" rx="44.791700" ry="45" transform="matrix(-1 0 0 1 835.13400000000001 433)" fill="rgb(68,59,59)" stroke="none" stroke-width="1"/></g><g id="btsxxvpse-g4"><ellipse id="btsxxvpse-ellipse3" rx="44.791700" ry="45" transform="matrix(-1 0 0 1 641.03700000000003 258)" fill="rgb(68,59,59)" stroke="none" stroke-width="1"/></g><g id="btsxxvpse-g5"><ellipse id="btsxxvpse-ellipse4" rx="44.791700" ry="45" transform="matrix(-1 0 0 1 641.03700000000003 603)" fill="rgb(68,59,59)" stroke="none" stroke-width="1"/></g><g id="btsxxvpse-g6"><ellipse id="btsxxvpse-ellipse5" rx="44.791700" ry="45" transform="matrix(-1 0 0 1 387.21800000000002 258)" fill="rgb(68,59,59)" stroke="none" stroke-width="1"/></g><g id="btsxxvpse-g7"><ellipse id="btsxxvpse-ellipse6" rx="44.791700" ry="45" transform="matrix(-1 0 0 1 178.19000000000000 429.34800000000001)" fill="rgb(68,59,59)" stroke="none" stroke-width="1"/></g><g id="btsxxvpse-g8"><path id="btsxxvpse-path2" d="M357.356000,636.472000C370.813000,774.848000,539.762000,665.125000,427.627000,619" fill="none" stroke="rgb(0,0,0)" stroke-width="4"/></g><g id="btsxxvpse-g9"><path id="btsxxvpse-path3" d="M346.593000,276.004000C347.691000,276.106000,348.497000,277.083000,348.394000,278.185000L346.722000,296.148000C346.619000,297.251000,345.646000,298.061000,344.549000,297.959000C343.452000,297.857000,342.645000,296.881000,342.748000,295.778000L344.235000,279.811000L328.340000,278.331000C327.243000,278.229000,326.436000,277.252000,326.539000,276.150000C326.642000,275.048000,327.614000,274.237000,328.712000,274.339000L346.593000,276.004000ZM203.208000,394.751000L345.134000,276.458000L347.681000,279.542000L205.755000,397.836000L203.208000,394.751000Z" fill="rgb(0,0,0)" stroke="none" stroke-width="1"/></g><g id="btsxxvpse-g10"><g id="btsxxvpse-g11"><path id="btsxxvpse-path4" d="M639.293000,303.389000C640.070000,302.604000,641.337000,302.598000,642.122000,303.375000L654.913000,316.039000C655.698000,316.816000,655.704000,318.082000,654.927000,318.867000C654.150000,319.652000,652.883000,319.659000,652.098000,318.882000L640.728000,307.625000L629.471000,318.995000C628.694000,319.780000,627.428000,319.787000,626.643000,319.009000C625.858000,318.232000,625.852000,316.966000,626.629000,316.181000L639.293000,303.389000ZM639.982000,559.311000L638.714000,304.806000L642.714000,304.786000L643.982000,559.291000L639.982000,559.311000Z" fill="rgb(0,0,0)" stroke="none" stroke-width="1"/></g><path id="btsxxvpse-path5" d="M396.399000,562.378000C395.300000,562.466000,394.338000,561.644000,394.249000,560.540000L392.801000,542.557000C392.712000,541.454000,393.530000,540.487000,394.629000,540.399000C395.727000,540.310000,396.690000,541.133000,396.779000,542.237000L398.066000,558.222000L413.978000,556.940000C415.076000,556.852000,416.039000,557.675000,416.128000,558.778000C416.216000,559.882000,415.398000,560.848000,414.300000,560.937000L396.399000,562.378000ZM621.406000,297.638000L397.758000,561.680000L394.718000,559.080000L618.366000,295.039000L621.406000,297.638000Z" fill="rgb(0,0,0)" stroke="none" stroke-width="1"/></g><g id="btsxxvpse-g12"><path id="btsxxvpse-path6" d="M345.517000,589.983000C345.582000,591.088000,344.743000,592.036000,343.643000,592.101000L325.715000,593.154000C324.615000,593.219000,323.670000,592.375000,323.606000,591.270000C323.541000,590.165000,324.380000,589.216000,325.480000,589.152000L341.416000,588.216000L340.475000,572.207000C340.410000,571.101000,341.250000,570.153000,342.350000,570.088000C343.450000,570.024000,344.394000,570.867000,344.459000,571.973000L345.517000,589.983000ZM206.750000,465.255000L344.850000,588.602000L342.200000,591.598000L204.100000,468.250000L206.750000,465.255000Z" fill="rgb(0,0,0)" stroke="none" stroke-width="1"/></g><g id="btsxxvpse-g13"><path id="btsxxvpse-path7" d="M596.208000,254.904000C596.991000,254.125000,596.995000,252.859000,596.216000,252.076000L583.528000,239.308000C582.749000,238.524000,581.483000,238.520000,580.700000,239.299000C579.916000,240.078000,579.912000,241.344000,580.691000,242.127000L591.969000,253.477000L580.621000,264.755000C579.837000,265.533000,579.833000,266.800000,580.612000,267.583000C581.390000,268.367000,582.657000,268.371000,583.440000,267.592000L596.208000,254.904000ZM430.651000,254.971000L594.792000,255.485000L594.804000,251.485000L430.664000,250.971000L430.651000,254.971000Z" fill="rgb(0,0,0)" stroke="none" stroke-width="1"/></g><g id="btsxxvpse-g14"><path id="btsxxvpse-path8" d="M822.477000,477.573000C822.579000,476.470000,821.773000,475.494000,820.676000,475.392000L802.794000,473.727000C801.697000,473.625000,800.724000,474.435000,800.621000,475.538000C800.519000,476.640000,801.325000,477.616000,802.422000,477.719000L818.317000,479.199000L816.830000,495.166000C816.728000,496.268000,817.534000,497.245000,818.631000,497.347000C819.729000,497.449000,820.701000,496.638000,820.804000,495.536000L822.477000,477.573000ZM683.799000,593.922000L821.763000,478.930000L819.216000,475.846000L681.252000,590.837000L683.799000,593.922000Z" fill="rgb(0,0,0)" stroke="none" stroke-width="1"/></g><g id="btsxxvpse-g15"><path id="btsxxvpse-path9" d="M135.960000,434.772000C136.744000,433.993000,136.748000,432.727000,135.969000,431.943000L123.281000,419.176000C122.502000,418.392000,121.236000,418.388000,120.452000,419.167000C119.669000,419.945000,119.665000,421.212000,120.443000,421.995000L131.722000,433.344000L120.373000,444.622000C119.590000,445.401000,119.586000,446.667000,120.364000,447.451000C121.143000,448.234000,122.409000,448.238000,123.193000,447.460000L135.960000,434.772000ZM21.925200,435L134.544000,435.353000L134.557000,431.353000L21.937700,431L21.925200,435Z" fill="rgb(0,0,0)" stroke="none" stroke-width="1"/></g><g id="btsxxvpse-g16"><path id="btsxxvpse-path10" d="M992.633000,437.746000C993.416000,436.967000,993.420000,435.701000,992.642000,434.917000L979.953000,422.150000C979.175000,421.366000,977.908000,421.362000,977.125000,422.141000C976.341000,422.919000,976.337000,424.186000,977.116000,424.969000L988.395000,436.318000L977.046000,447.596000C976.262000,448.375000,976.258000,449.641000,977.037000,450.425000C977.816000,451.208000,979.082000,451.212000,979.865000,450.434000L992.633000,437.746000ZM878.257000,437.973000L991.217000,438.327000L991.229000,434.327000L878.270000,433.973000L878.257000,437.973000Z" fill="rgb(0,0,0)" stroke="none" stroke-width="1"/></g><g id="btsxxvpse-g17"><path id="btsxxvpse-path11" d="M806.983000,398.531000C808.084000,398.580000,809.016000,397.722000,809.065000,396.616000L809.860000,378.592000C809.909000,377.486000,809.056000,376.550000,807.955000,376.502000C806.854000,376.453000,805.922000,377.310000,805.873000,378.416000L805.167000,394.438000L789.219000,393.734000C788.118000,393.686000,787.186000,394.543000,787.137000,395.649000C787.089000,396.755000,787.941000,397.691000,789.042000,397.740000L806.983000,398.531000ZM683.575000,263.977000L805.600000,397.882000L808.544000,395.174000L686.519000,261.269000L683.575000,263.977000Z" fill="rgb(0,0,0)" stroke="none" stroke-width="1"/></g><g id="btsxxvpse-g18"><path id="btsxxvpse-path12" d="M598.506000,614.911000C599.290000,614.133000,599.293000,612.866000,598.515000,612.083000L585.827000,599.315000C585.048000,598.532000,583.782000,598.528000,582.998000,599.306000C582.215000,600.085000,582.211000,601.351000,582.989000,602.135000L594.268000,613.484000L582.919000,624.762000C582.136000,625.541000,582.132000,626.807000,582.910000,627.590000C583.689000,628.374000,584.955000,628.378000,585.739000,627.599000L598.506000,614.911000ZM429.455000,614.967000L597.090000,615.493000L597.102000,611.493000L429.468000,610.967000L429.455000,614.967000Z" fill="rgb(0,0,0)" stroke="none" stroke-width="1"/></g><g id="btsxxvpse-g19"><path id="btsxxvpse-path13" d="M357.356000,226.761000C370.813000,98.152800,539.762000,200.131000,427.627000,243" fill="none" stroke="rgb(0,0,0)" stroke-width="4"/></g><g id="btsxxvpse-g20"><ellipse id="btsxxvpse-ellipse7" rx="29.861100" ry="28" transform="matrix(-1 0 0 1 43.81480000000000 432)" fill="rgb(68,59,59)" stroke="none" stroke-width="1"/></g><g id="btsxxvpse-g21"><g id="btsxxvpse-ellipse8_ts" transform="translate(1021.270000,436) scale(-1,1)"><ellipse id="btsxxvpse-ellipse8" rx="29.861100" ry="28" transform="translate(0,0)" fill="rgb(68,59,59)" stroke="none" stroke-width="1"/></g></g><path id="btsxxvpse-path14" d="M774.657000,546.120000L764.137000,574L759.937000,574L749.417000,546.120000L753.297000,546.120000L762.057000,570.160000L770.817000,546.120000L774.657000,546.120000Z" fill="rgb(0,0,0)" stroke="none" stroke-width="1"/><path id="btsxxvpse-path15" d="M931.438000,401.080000L931.438000,410.400000L941.598000,410.400000L941.598000,413.400000L931.438000,413.400000L931.438000,423L942.798000,423L942.798000,426L927.798000,426L927.798000,398.080000L942.798000,398.080000L942.798000,401.080000L931.438000,401.080000Z" fill="rgb(0,0,0)" stroke="none" stroke-width="1"/><path id="btsxxvpse-path16" d="M520.838000,627.120000L510.318000,655L506.118000,655L495.598000,627.120000L499.478000,627.120000L508.238000,651.160000L516.998000,627.120000L520.838000,627.120000Z" fill="rgb(0,0,0)" stroke="none" stroke-width="1"/><path id="btsxxvpse-path17" d="M344.749000,637.120000L344.749000,640.080000L337.149000,640.080000L337.149000,665L333.509000,665L333.509000,640.080000L325.869000,640.080000L325.869000,637.120000L344.749000,637.120000Z" fill="rgb(0,0,0)" stroke="none" stroke-width="1"/><g id="btsxxvpse-g22"><path id="btsxxvpse-path18" d="M277.549000,554.280000C277.549000,556.600000,276.749000,558.533000,275.149000,560.080000C273.575000,561.600000,271.162000,562.360000,267.909000,562.360000L262.549000,562.360000L262.549000,574L258.909000,574L258.909000,546.120000L267.909000,546.120000C271.055000,546.120000,273.442000,546.880000,275.069000,548.400000C276.722000,549.920000,277.549000,551.880000,277.549000,554.280000ZM267.909000,559.360000C269.935000,559.360000,271.429000,558.920000,272.389000,558.040000C273.349000,557.160000,273.829000,555.907000,273.829000,554.280000C273.829000,550.840000,271.855000,549.120000,267.909000,549.120000L262.549000,549.120000L262.549000,559.360000L267.909000,559.360000Z" fill="rgb(0,0,0)" stroke="none" stroke-width="1"/></g><g id="btsxxvpse-g23"><path id="btsxxvpse-path19" d="M675.697000,405.280000C675.697000,407.600000,674.897000,409.533000,673.297000,411.080000C671.723000,412.600000,669.310000,413.360000,666.057000,413.360000L660.697000,413.360000L660.697000,425L657.057000,425L657.057000,397.120000L666.057000,397.120000C669.203000,397.120000,671.590000,397.880000,673.217000,399.400000C674.870000,400.920000,675.697000,402.880000,675.697000,405.280000ZM666.057000,410.360000C668.083000,410.360000,669.577000,409.920000,670.537000,409.040000C671.497000,408.160000,671.977000,406.907000,671.977000,405.280000C671.977000,401.840000,670.003000,400.120000,666.057000,400.120000L660.697000,400.120000L660.697000,410.360000L666.057000,410.360000Z" fill="rgb(0,0,0)" stroke="none" stroke-width="1"/></g><path id="btsxxvpse-path20" d="M484.313000,413.080000L492.873000,427L488.753000,427L482.073000,416.120000L475.713000,427L471.673000,427L480.193000,413.080000L471.633000,399.120000L475.713000,399.120000L482.433000,410.040000L488.833000,399.120000L492.913000,399.120000L484.313000,413.080000Z" fill="rgb(0,0,0)" stroke="none" stroke-width="1"/><path id="btsxxvpse-path21" d="M335.434000,213.280000C333.594000,213.280000,331.941000,212.960000,330.474000,212.320000C329.034000,211.653000,327.901000,210.747000,327.074000,209.600000C326.247000,208.427000,325.821000,207.080000,325.794000,205.560000L329.674000,205.560000C329.807000,206.867000,330.341000,207.973000,331.274000,208.880000C332.234000,209.760000,333.621000,210.200000,335.434000,210.200000C337.167000,210.200000,338.527000,209.773000,339.514000,208.920000C340.527000,208.040000,341.034000,206.920000,341.034000,205.560000C341.034000,204.493000,340.741000,203.627000,340.154000,202.960000C339.567000,202.293000,338.834000,201.787000,337.954000,201.440000C337.074000,201.093000,335.887000,200.720000,334.394000,200.320000C332.554000,199.840000,331.074000,199.360000,329.954000,198.880000C328.861000,198.400000,327.914000,197.653000,327.114000,196.640000C326.341000,195.600000,325.954000,194.213000,325.954000,192.480000C325.954000,190.960000,326.341000,189.613000,327.114000,188.440000C327.887000,187.267000,328.967000,186.360000,330.354000,185.720000C331.767000,185.080000,333.381000,184.760000,335.194000,184.760000C337.807000,184.760000,339.941000,185.413000,341.594000,186.720000C343.274000,188.027000,344.221000,189.760000,344.434000,191.920000L340.434000,191.920000C340.301000,190.853000,339.741000,189.920000,338.754000,189.120000C337.767000,188.293000,336.461000,187.880000,334.834000,187.880000C333.314000,187.880000,332.074000,188.280000,331.114000,189.080000C330.154000,189.853000,329.674000,190.947000,329.674000,192.360000C329.674000,193.373000,329.954000,194.200000,330.514000,194.840000C331.101000,195.480000,331.807000,195.973000,332.634000,196.320000C333.487000,196.640000,334.674000,197.013000,336.194000,197.440000C338.034000,197.947000,339.514000,198.453000,340.634000,198.960000C341.754000,199.440000,342.714000,200.200000,343.514000,201.240000C344.314000,202.253000,344.714000,203.640000,344.714000,205.400000C344.714000,206.760000,344.354000,208.040000,343.634000,209.240000C342.914000,210.440000,341.847000,211.413000,340.434000,212.160000C339.021000,212.907000,337.354000,213.280000,335.434000,213.280000Z" fill="rgb(0,0,0)" stroke="none" stroke-width="1"/><path id="btsxxvpse-path22" d="M766.429000,332.280000C764.589000,332.280000,762.936000,331.960000,761.469000,331.320000C760.029000,330.653000,758.896000,329.747000,758.069000,328.600000C757.243000,327.427000,756.816000,326.080000,756.789000,324.560000L760.669000,324.560000C760.803000,325.867000,761.336000,326.973000,762.269000,327.880000C763.229000,328.760000,764.616000,329.200000,766.429000,329.200000C768.163000,329.200000,769.523000,328.773000,770.509000,327.920000C771.523000,327.040000,772.029000,325.920000,772.029000,324.560000C772.029000,323.493000,771.736000,322.627000,771.149000,321.960000C770.563000,321.293000,769.829000,320.787000,768.949000,320.440000C768.069000,320.093000,766.883000,319.720000,765.389000,319.320000C763.549000,318.840000,762.069000,318.360000,760.949000,317.880000C759.856000,317.400000,758.909000,316.653000,758.109000,315.640000C757.336000,314.600000,756.949000,313.213000,756.949000,311.480000C756.949000,309.960000,757.336000,308.613000,758.109000,307.440000C758.883000,306.267000,759.963000,305.360000,761.349000,304.720000C762.763000,304.080000,764.376000,303.760000,766.189000,303.760000C768.803000,303.760000,770.936000,304.413000,772.589000,305.720000C774.269000,307.027000,775.216000,308.760000,775.429000,310.920000L771.429000,310.920000C771.296000,309.853000,770.736000,308.920000,769.749000,308.120000C768.763000,307.293000,767.456000,306.880000,765.829000,306.880000C764.309000,306.880000,763.069000,307.280000,762.109000,308.080000C761.149000,308.853000,760.669000,309.947000,760.669000,311.360000C760.669000,312.373000,760.949000,313.200000,761.509000,313.840000C762.096000,314.480000,762.803000,314.973000,763.629000,315.320000C764.483000,315.640000,765.669000,316.013000,767.189000,316.440000C769.029000,316.947000,770.509000,317.453000,771.629000,317.960000C772.749000,318.440000,773.709000,319.200000,774.509000,320.240000C775.309000,321.253000,775.709000,322.640000,775.709000,324.400000C775.709000,325.760000,775.349000,327.040000,774.629000,328.240000C773.909000,329.440000,772.843000,330.413000,771.429000,331.160000C770.016000,331.907000,768.349000,332.280000,766.429000,332.280000Z" fill="rgb(0,0,0)" stroke="none" stroke-width="1"/><path id="btsxxvpse-path23" d="M266.115000,304.120000L266.115000,307.080000L258.515000,307.080000L258.515000,332L254.875000,332L254.875000,307.080000L247.235000,307.080000L247.235000,304.120000L266.115000,304.120000Z" fill="rgb(0,0,0)" stroke="none" stroke-width="1"/><path id="btsxxvpse-path24" d="M516.165000,227.080000L524.725000,241L520.605000,241L513.925000,230.120000L507.565000,241L503.525000,241L512.045000,227.080000L503.485000,213.120000L507.565000,213.120000L514.285000,224.040000L520.685000,213.120000L524.765000,213.120000L516.165000,227.080000Z" fill="rgb(0,0,0)" stroke="none" stroke-width="1"/><path id="btsxxvpse-path25" d="M107.637000,402.640000C108.651000,402.800000,109.571000,403.213000,110.397000,403.880000C111.251000,404.547000,111.917000,405.373000,112.397000,406.360000C112.904000,407.347000,113.157000,408.400000,113.157000,409.520000C113.157000,410.933000,112.797000,412.213000,112.077000,413.360000C111.357000,414.480000,110.304000,415.373000,108.917000,416.040000C107.557000,416.680000,105.944000,417,104.077000,417L93.677200,417L93.677200,389.120000L103.677000,389.120000C105.571000,389.120000,107.184000,389.440000,108.517000,390.080000C109.851000,390.693000,110.851000,391.533000,111.517000,392.600000C112.184000,393.667000,112.517000,394.867000,112.517000,396.200000C112.517000,397.853000,112.064000,399.227000,111.157000,400.320000C110.277000,401.387000,109.104000,402.160000,107.637000,402.640000ZM97.317200,401.160000L103.437000,401.160000C105.144000,401.160000,106.464000,400.760000,107.397000,399.960000C108.331000,399.160000,108.797000,398.053000,108.797000,396.640000C108.797000,395.227000,108.331000,394.120000,107.397000,393.320000C106.464000,392.520000,105.117000,392.120000,103.357000,392.120000L97.317200,392.120000L97.317200,401.160000ZM103.757000,414C105.571000,414,106.984000,413.573000,107.997000,412.720000C109.011000,411.867000,109.517000,410.680000,109.517000,409.160000C109.517000,407.613000,108.984000,406.400000,107.917000,405.520000C106.851000,404.613000,105.424000,404.160000,103.637000,404.160000L97.317200,404.160000L97.317200,414L103.757000,414Z" fill="rgb(0,0,0)" stroke="none" stroke-width="1"/><path id="btsxxvpse-path26" d="M839.168000,422.352000L832.496000,438L830.288000,438L837.056000,422.568000L827.792000,422.568000L827.792000,420.696000L839.168000,420.696000L839.168000,422.352000Z" fill="rgb(243,234,234)" stroke="none" stroke-width="1"/><path id="btsxxvpse-path27" d="M645.552000,594.544000L637.128000,594.544000L637.128000,600.016000C637.496000,599.504000,638.040000,599.088000,638.760000,598.768000C639.480000,598.432000,640.256000,598.264000,641.088000,598.264000C642.416000,598.264000,643.496000,598.544000,644.328000,599.104000C645.160000,599.648000,645.752000,600.360000,646.104000,601.240000C646.472000,602.104000,646.656000,603.024000,646.656000,604C646.656000,605.152000,646.440000,606.184000,646.008000,607.096000C645.576000,608.008000,644.912000,608.728000,644.016000,609.256000C643.136000,609.784000,642.040000,610.048000,640.728000,610.048000C639.048000,610.048000,637.688000,609.616000,636.648000,608.752000C635.608000,607.888000,634.976000,606.736000,634.752000,605.296000L636.888000,605.296000C637.096000,606.208000,637.536000,606.920000,638.208000,607.432000C638.880000,607.944000,639.728000,608.200000,640.752000,608.200000C642.016000,608.200000,642.968000,607.824000,643.608000,607.072000C644.248000,606.304000,644.568000,605.296000,644.568000,604.048000C644.568000,602.800000,644.248000,601.840000,643.608000,601.168000C642.968000,600.480000,642.024000,600.136000,640.776000,600.136000C639.928000,600.136000,639.184000,600.344000,638.544000,600.760000C637.920000,601.160000,637.464000,601.712000,637.176000,602.416000L635.112000,602.416000L635.112000,592.624000L645.552000,592.624000L645.552000,594.544000Z" fill="rgb(243,234,234)" stroke="none" stroke-width="1"/><path id="btsxxvpse-path28" d="M644.160000,248.776000C643.808000,247,642.712000,246.112000,640.872000,246.112000C639.448000,246.112000,638.384000,246.664000,637.680000,247.768000C636.976000,248.856000,636.632000,250.656000,636.648000,253.168000C637.016000,252.336000,637.624000,251.688000,638.472000,251.224000C639.336000,250.744000,640.296000,250.504000,641.352000,250.504000C643,250.504000,644.312000,251.016000,645.288000,252.040000C646.280000,253.064000,646.776000,254.480000,646.776000,256.288000C646.776000,257.376000,646.560000,258.352000,646.128000,259.216000C645.712000,260.080000,645.072000,260.768000,644.208000,261.280000C643.360000,261.792000,642.328000,262.048000,641.112000,262.048000C639.464000,262.048000,638.176000,261.680000,637.248000,260.944000C636.320000,260.208000,635.672000,259.192000,635.304000,257.896000C634.936000,256.600000,634.752000,255,634.752000,253.096000C634.752000,247.224000,636.800000,244.288000,640.896000,244.288000C642.464000,244.288000,643.696000,244.712000,644.592000,245.560000C645.488000,246.408000,646.016000,247.480000,646.176000,248.776000L644.160000,248.776000ZM640.896000,252.352000C640.208000,252.352000,639.560000,252.496000,638.952000,252.784000C638.344000,253.056000,637.848000,253.480000,637.464000,254.056000C637.096000,254.616000,636.912000,255.304000,636.912000,256.120000C636.912000,257.336000,637.264000,258.328000,637.968000,259.096000C638.672000,259.848000,639.680000,260.224000,640.992000,260.224000C642.112000,260.224000,643,259.880000,643.656000,259.192000C644.328000,258.488000,644.664000,257.544000,644.664000,256.360000C644.664000,255.112000,644.344000,254.136000,643.704000,253.432000C643.064000,252.712000,642.128000,252.352000,640.896000,252.352000Z" fill="rgb(243,234,234)" stroke="none" stroke-width="1"/><path id="btsxxvpse-path29" d="M377.960000,607.136000L377.960000,605.480000L386.384000,593.816000L389,593.816000L389,605.240000L391.400000,605.240000L391.400000,607.136000L389,607.136000L389,611L386.840000,611L386.840000,607.136000L377.960000,607.136000ZM386.936000,596.096000L380.480000,605.240000L386.936000,605.240000L386.936000,596.096000Z" fill="rgb(243,234,234)" stroke="none" stroke-width="1"/><path id="btsxxvpse-path30" d="M382.440000,251.016000C382.552000,249.544000,383.120000,248.392000,384.144000,247.560000C385.168000,246.728000,386.496000,246.312000,388.128000,246.312000C389.216000,246.312000,390.152000,246.512000,390.936000,246.912000C391.736000,247.296000,392.336000,247.824000,392.736000,248.496000C393.152000,249.168000,393.360000,249.928000,393.360000,250.776000C393.360000,251.768000,393.072000,252.624000,392.496000,253.344000C391.936000,254.064000,391.200000,254.528000,390.288000,254.736000L390.288000,254.856000C391.328000,255.112000,392.152000,255.616000,392.760000,256.368000C393.368000,257.120000,393.672000,258.104000,393.672000,259.320000C393.672000,260.232000,393.464000,261.056000,393.048000,261.792000C392.632000,262.512000,392.008000,263.080000,391.176000,263.496000C390.344000,263.912000,389.344000,264.120000,388.176000,264.120000C386.480000,264.120000,385.088000,263.680000,384,262.800000C382.912000,261.904000,382.304000,260.640000,382.176000,259.008000L384.288000,259.008000C384.400000,259.968000,384.792000,260.752000,385.464000,261.360000C386.136000,261.968000,387.032000,262.272000,388.152000,262.272000C389.272000,262.272000,390.120000,261.984000,390.696000,261.408000C391.288000,260.816000,391.584000,260.056000,391.584000,259.128000C391.584000,257.928000,391.184000,257.064000,390.384000,256.536000C389.584000,256.008000,388.376000,255.744000,386.760000,255.744000L386.208000,255.744000L386.208000,253.920000L386.784000,253.920000C388.256000,253.904000,389.368000,253.664000,390.120000,253.200000C390.872000,252.720000,391.248000,251.984000,391.248000,250.992000C391.248000,250.144000,390.968000,249.464000,390.408000,248.952000C389.864000,248.440000,389.080000,248.184000,388.056000,248.184000C387.064000,248.184000,386.264000,248.440000,385.656000,248.952000C385.048000,249.464000,384.688000,250.152000,384.576000,251.016000L382.440000,251.016000Z" fill="rgb(243,234,234)" stroke="none" stroke-width="1"/><path id="btsxxvpse-path31" d="M1018.660000,433.976000C1017.760000,433.624000,1017.070000,433.112000,1016.590000,432.440000C1016.110000,431.768000,1015.870000,430.952000,1015.870000,429.992000C1015.870000,429.128000,1016.090000,428.352000,1016.520000,427.664000C1016.950000,426.960000,1017.590000,426.408000,1018.440000,426.008000C1019.300000,425.592000,1020.340000,425.384000,1021.560000,425.384000C1022.780000,425.384000,1023.810000,425.592000,1024.660000,426.008000C1025.520000,426.408000,1026.170000,426.960000,1026.600000,427.664000C1027.050000,428.352000,1027.270000,429.128000,1027.270000,429.992000C1027.270000,430.920000,1027.020000,431.736000,1026.530000,432.440000C1026.030000,433.128000,1025.350000,433.640000,1024.490000,433.976000C1025.480000,434.280000,1026.260000,434.816000,1026.840000,435.584000C1027.430000,436.336000,1027.730000,437.248000,1027.730000,438.320000C1027.730000,439.360000,1027.470000,440.272000,1026.960000,441.056000C1026.450000,441.824000,1025.720000,442.424000,1024.780000,442.856000C1023.850000,443.272000,1022.780000,443.480000,1021.560000,443.480000C1020.340000,443.480000,1019.270000,443.272000,1018.340000,442.856000C1017.430000,442.424000,1016.720000,441.824000,1016.210000,441.056000C1015.700000,440.272000,1015.440000,439.360000,1015.440000,438.320000C1015.440000,437.248000,1015.730000,436.328000,1016.300000,435.560000C1016.880000,434.792000,1017.660000,434.264000,1018.660000,433.976000ZM1025.160000,430.256000C1025.160000,429.280000,1024.840000,428.528000,1024.200000,428C1023.560000,427.472000,1022.680000,427.208000,1021.560000,427.208000C1020.460000,427.208000,1019.580000,427.472000,1018.940000,428C1018.300000,428.528000,1017.980000,429.288000,1017.980000,430.280000C1017.980000,431.176000,1018.310000,431.896000,1018.970000,432.440000C1019.640000,432.984000,1020.500000,433.256000,1021.560000,433.256000C1022.630000,433.256000,1023.500000,432.984000,1024.150000,432.440000C1024.820000,431.880000,1025.160000,431.152000,1025.160000,430.256000ZM1021.560000,434.936000C1020.380000,434.936000,1019.410000,435.216000,1018.660000,435.776000C1017.900000,436.320000,1017.530000,437.144000,1017.530000,438.248000C1017.530000,439.272000,1017.890000,440.096000,1018.610000,440.720000C1019.340000,441.344000,1020.330000,441.656000,1021.560000,441.656000C1022.790000,441.656000,1023.770000,441.344000,1024.490000,440.720000C1025.210000,440.096000,1025.570000,439.272000,1025.570000,438.248000C1025.570000,437.176000,1025.200000,436.360000,1024.460000,435.800000C1023.730000,435.224000,1022.760000,434.936000,1021.560000,434.936000Z" fill="rgb(243,234,234)" stroke="none" stroke-width="1"/><path id="btsxxvpse-path32" d="M39.912000,424.640000L39.912000,422.648000L44.424000,422.648000L44.424000,440L42.216000,440L42.216000,424.640000L39.912000,424.640000Z" fill="rgb(243,234,234)" stroke="none" stroke-width="1"/><path id="btsxxvpse-path33" d="M172.224000,436.248000C174.256000,434.616000,175.848000,433.280000,177,432.240000C178.152000,431.184000,179.120000,430.088000,179.904000,428.952000C180.704000,427.800000,181.104000,426.672000,181.104000,425.568000C181.104000,424.528000,180.848000,423.712000,180.336000,423.120000C179.840000,422.512000,179.032000,422.208000,177.912000,422.208000C176.824000,422.208000,175.976000,422.552000,175.368000,423.240000C174.776000,423.912000,174.456000,424.816000,174.408000,425.952000L172.296000,425.952000C172.360000,424.160000,172.904000,422.776000,173.928000,421.800000C174.952000,420.824000,176.272000,420.336000,177.888000,420.336000C179.536000,420.336000,180.840000,420.792000,181.800000,421.704000C182.776000,422.616000,183.264000,423.872000,183.264000,425.472000C183.264000,426.800000,182.864000,428.096000,182.064000,429.360000C181.280000,430.608000,180.384000,431.712000,179.376000,432.672000C178.368000,433.616000,177.080000,434.720000,175.512000,435.984000L183.768000,435.984000L183.768000,437.808000L172.224000,437.808000L172.224000,436.248000Z" fill="rgb(243,234,234)" stroke="none" stroke-width="1"/><g id="btsxxvpse-g24"><rect id="btsxxvpse-rect1" width="347.743000" height="323" rx="39" ry="39" transform="matrix(1 0 0 1 878.25699999999995 493)" fill="rgb(196,196,196)" stroke="rgb(68,59,59)" stroke-width="4"/><line id="btsxxvpse-line1" x1="1103.290000" y1="497.093000" x2="1103.290000" y2="818" fill="none" stroke="rgb(68,59,59)" stroke-width="1"/><path id="btsxxvpse-path34" d="M887,793.500000L1220,793.500000" fill="none" stroke="rgb(0,0,0)" stroke-width="1"/><line id="btsxxvpse-line2" x1="881" y1="746.187000" x2="1226" y2="746.187000" fill="none" stroke="rgb(68,59,59)" stroke-width="1"/><line id="btsxxvpse-line3" x1="881" y1="769.958000" x2="1226" y2="769.958000" fill="none" stroke="rgb(68,59,59)" stroke-width="1"/><line id="btsxxvpse-line4" x1="881" y1="722.416000" x2="1226" y2="722.417000" fill="none" stroke="rgb(68,59,59)" stroke-width="1"/><line id="btsxxvpse-line5" x1="881" y1="700.230000" x2="1226" y2="700.230000" fill="none" stroke="rgb(68,59,59)" stroke-width="1"/><line id="btsxxvpse-line6" x1="881" y1="674.875000" x2="1226" y2="674.875000" fill="none" stroke="rgb(68,59,59)" stroke-width="1"/><line id="btsxxvpse-line7" x1="881" y1="651.104000" x2="1226" y2="651.104000" fill="none" stroke="rgb(68,59,59)" stroke-width="1"/><line id="btsxxvpse-line8" x1="881" y1="603.562000" x2="1226" y2="603.562000" fill="none" stroke="rgb(68,59,59)" stroke-width="1"/><line id="btsxxvpse-line9" x1="881" y1="579.791000" x2="1226" y2="579.791000" fill="none" stroke="rgb(68,59,59)" stroke-width="1"/><line id="btsxxvpse-line10" x1="881" y1="627.333000" x2="1226" y2="627.333000" fill="none" stroke="rgb(68,59,59)" stroke-width="1"/><line id="btsxxvpse-line11" x1="881" y1="532.249000" x2="1226" y2="532.249000" fill="none" stroke="rgb(68,59,59)" stroke-width="1"/><line id="btsxxvpse-line12" x1="881" y1="556.020000" x2="1226" y2="556.020000" fill="none" stroke="rgb(68,59,59)" stroke-width="1"/><path id="btsxxvpse-path35" d="M921.957000,545.342000C922.348000,544.952000,922.348000,544.318000,921.957000,543.928000L915.593000,537.564000C915.203000,537.173000,914.569000,537.173000,914.179000,537.564000C913.788000,537.954000,913.788000,538.588000,914.179000,538.978000L919.836000,544.635000L914.179000,550.292000C913.788000,550.682000,913.788000,551.315000,914.179000,551.706000C914.569000,552.097000,915.203000,552.097000,915.593000,551.706000L921.957000,545.342000ZM896.607000,545.635000L921.250000,545.635000L921.250000,543.635000L896.607000,543.635000L896.607000,545.635000Z" fill="rgb(68,59,59)" stroke="none" stroke-width="1"/><path id="btsxxvpse-path36" d="M1051.870000,505.340000L1042.510000,505.340000L1050.490000,513.410000L1050.490000,515.540000L1042.480000,523.760000L1051.870000,523.760000L1051.870000,525.890000L1040.200000,525.890000L1040.200000,522.710000L1048,514.550000L1040.200000,506.360000L1040.200000,503.210000L1051.870000,503.210000L1051.870000,505.340000Z" fill="rgb(0,0,0)" stroke="none" stroke-width="1"/><path id="btsxxvpse-path37" d="M1051.870000,505.340000L1051.870000,506.340000L1052.870000,506.340000L1052.870000,505.340000L1051.870000,505.340000ZM1042.510000,505.340000L1042.510000,504.340000L1040.110000,504.340000L1041.800000,506.043000L1042.510000,505.340000ZM1050.490000,513.410000L1051.490000,513.410000L1051.490000,512.999000L1051.200000,512.707000L1050.490000,513.410000ZM1050.490000,515.540000L1051.200000,516.238000L1051.490000,515.947000L1051.490000,515.540000L1050.490000,515.540000ZM1042.480000,523.760000L1041.760000,523.062000L1040.110000,524.760000L1042.480000,524.760000L1042.480000,523.760000ZM1051.870000,523.760000L1052.870000,523.760000L1052.870000,522.760000L1051.870000,522.760000L1051.870000,523.760000ZM1051.870000,525.890000L1051.870000,526.890000L1052.870000,526.890000L1052.870000,525.890000L1051.870000,525.890000ZM1040.200000,525.890000L1039.200000,525.890000L1039.200000,526.890000L1040.200000,526.890000L1040.200000,525.890000ZM1040.200000,522.710000L1039.480000,522.019000L1039.200000,522.309000L1039.200000,522.710000L1040.200000,522.710000ZM1048,514.550000L1048.720000,515.241000L1049.380000,514.551000L1048.720000,513.860000L1048,514.550000ZM1040.200000,506.360000L1039.200000,506.360000L1039.200000,506.760000L1039.470000,507.050000L1040.200000,506.360000ZM1040.200000,503.210000L1040.200000,502.210000L1039.200000,502.210000L1039.200000,503.210000L1040.200000,503.210000ZM1051.870000,503.210000L1052.870000,503.210000L1052.870000,502.210000L1051.870000,502.210000L1051.870000,503.210000ZM1051.870000,504.340000L1042.510000,504.340000L1042.510000,506.340000L1051.870000,506.340000L1051.870000,504.340000ZM1041.800000,506.043000L1049.780000,514.113000L1051.200000,512.707000L1043.220000,504.637000L1041.800000,506.043000ZM1049.490000,513.410000L1049.490000,515.540000L1051.490000,515.540000L1051.490000,513.410000L1049.490000,513.410000ZM1049.770000,514.842000L1041.760000,523.062000L1043.190000,524.458000L1051.200000,516.238000L1049.770000,514.842000ZM1042.480000,524.760000L1051.870000,524.760000L1051.870000,522.760000L1042.480000,522.760000L1042.480000,524.760000ZM1050.870000,523.760000L1050.870000,525.890000L1052.870000,525.890000L1052.870000,523.760000L1050.870000,523.760000ZM1051.870000,524.890000L1040.200000,524.890000L1040.200000,526.890000L1051.870000,526.890000L1051.870000,524.890000ZM1041.200000,525.890000L1041.200000,522.710000L1039.200000,522.710000L1039.200000,525.890000L1041.200000,525.890000ZM1040.920000,523.401000L1048.720000,515.241000L1047.280000,513.859000L1039.480000,522.019000L1040.920000,523.401000ZM1048.720000,513.860000L1040.920000,505.670000L1039.470000,507.050000L1047.270000,515.240000L1048.720000,513.860000ZM1041.200000,506.360000L1041.200000,503.210000L1039.200000,503.210000L1039.200000,506.360000L1041.200000,506.360000ZM1040.200000,504.210000L1051.870000,504.210000L1051.870000,502.210000L1040.200000,502.210000L1040.200000,504.210000ZM1050.870000,503.210000L1050.870000,505.340000L1052.870000,505.340000L1052.870000,503.210000L1050.870000,503.210000Z" fill="rgb(0,0,0)" stroke="none" stroke-width="1"/><path id="btsxxvpse-path38" d="M956.025000,780.303000C955.717000,778.749000,954.758000,777.972000,953.148000,777.972000C951.902000,777.972000,950.971000,778.455000,950.355000,779.421000C949.739000,780.373000,949.438000,781.948000,949.452000,784.146000C949.774000,783.418000,950.306000,782.851000,951.048000,782.445000C951.804000,782.025000,952.644000,781.815000,953.568000,781.815000C955.010000,781.815000,956.158000,782.263000,957.012000,783.159000C957.880000,784.055000,958.314000,785.294000,958.314000,786.876000C958.314000,787.828000,958.125000,788.682000,957.747000,789.438000C957.383000,790.194000,956.823000,790.796000,956.067000,791.244000C955.325000,791.692000,954.422000,791.916000,953.358000,791.916000C951.916000,791.916000,950.789000,791.594000,949.977000,790.950000C949.165000,790.306000,948.598000,789.417000,948.276000,788.283000C947.954000,787.149000,947.793000,785.749000,947.793000,784.083000C947.793000,778.945000,949.585000,776.376000,953.169000,776.376000C954.541000,776.376000,955.619000,776.747000,956.403000,777.489000C957.187000,778.231000,957.649000,779.169000,957.789000,780.303000L956.025000,780.303000ZM953.169000,783.432000C952.567000,783.432000,952,783.558000,951.468000,783.810000C950.936000,784.048000,950.502000,784.419000,950.166000,784.923000C949.844000,785.413000,949.683000,786.015000,949.683000,786.729000C949.683000,787.793000,949.991000,788.661000,950.607000,789.333000C951.223000,789.991000,952.105000,790.320000,953.253000,790.320000C954.233000,790.320000,955.010000,790.019000,955.584000,789.417000C956.172000,788.801000,956.466000,787.975000,956.466000,786.939000C956.466000,785.847000,956.186000,784.993000,955.626000,784.377000C955.066000,783.747000,954.247000,783.432000,953.169000,783.432000ZM1049.830000,792.021000C1048.860000,792.021000,1047.990000,791.853000,1047.220000,791.517000C1046.470000,791.167000,1045.870000,790.691000,1045.440000,790.089000C1045,789.473000,1044.780000,788.766000,1044.770000,787.968000L1046.800000,787.968000C1046.870000,788.654000,1047.150000,789.235000,1047.640000,789.711000C1048.150000,790.173000,1048.880000,790.404000,1049.830000,790.404000C1050.740000,790.404000,1051.450000,790.180000,1051.970000,789.732000C1052.500000,789.270000,1052.770000,788.682000,1052.770000,787.968000C1052.770000,787.408000,1052.610000,786.953000,1052.310000,786.603000C1052,786.253000,1051.610000,785.987000,1051.150000,785.805000C1050.690000,785.623000,1050.070000,785.427000,1049.280000,785.217000C1048.320000,784.965000,1047.540000,784.713000,1046.950000,784.461000C1046.380000,784.209000,1045.880000,783.817000,1045.460000,783.285000C1045.050000,782.739000,1044.850000,782.011000,1044.850000,781.101000C1044.850000,780.303000,1045.050000,779.596000,1045.460000,778.980000C1045.870000,778.364000,1046.430000,777.888000,1047.160000,777.552000C1047.900000,777.216000,1048.750000,777.048000,1049.700000,777.048000C1051.070000,777.048000,1052.190000,777.391000,1053.060000,778.077000C1053.940000,778.763000,1054.440000,779.673000,1054.550000,780.807000L1052.450000,780.807000C1052.380000,780.247000,1052.090000,779.757000,1051.570000,779.337000C1051.050000,778.903000,1050.370000,778.686000,1049.510000,778.686000C1048.710000,778.686000,1048.060000,778.896000,1047.560000,779.316000C1047.060000,779.722000,1046.800000,780.296000,1046.800000,781.038000C1046.800000,781.570000,1046.950000,782.004000,1047.240000,782.340000C1047.550000,782.676000,1047.920000,782.935000,1048.360000,783.117000C1048.810000,783.285000,1049.430000,783.481000,1050.230000,783.705000C1051.190000,783.971000,1051.970000,784.237000,1052.560000,784.503000C1053.150000,784.755000,1053.650000,785.154000,1054.070000,785.700000C1054.490000,786.232000,1054.700000,786.960000,1054.700000,787.884000C1054.700000,788.598000,1054.510000,789.270000,1054.130000,789.900000C1053.750000,790.530000,1053.190000,791.041000,1052.450000,791.433000C1051.710000,791.825000,1050.840000,792.021000,1049.830000,792.021000ZM1167.320000,778.182000L1161.480000,791.874000L1159.550000,791.874000L1165.470000,778.371000L1157.360000,778.371000L1157.360000,776.733000L1167.320000,776.733000L1167.320000,778.182000Z" fill="rgb(0,0,0)" stroke="none" stroke-width="1"/><path id="btsxxvpse-path39" d="M956.907000,800.368000L951.069000,814.060000L949.137000,814.060000L955.059000,800.557000L946.953000,800.557000L946.953000,798.919000L956.907000,798.919000L956.907000,800.368000ZM1045.230000,800.977000L1045.230000,805.870000L1050.570000,805.870000L1050.570000,807.445000L1045.230000,807.445000L1045.230000,812.485000L1051.200000,812.485000L1051.200000,814.060000L1043.320000,814.060000L1043.320000,799.402000L1051.200000,799.402000L1051.200000,800.977000L1045.230000,800.977000ZM1157.320000,806.164000C1156.540000,805.856000,1155.930000,805.408000,1155.510000,804.820000C1155.090000,804.232000,1154.880000,803.518000,1154.880000,802.678000C1154.880000,801.922000,1155.070000,801.243000,1155.450000,800.641000C1155.830000,800.025000,1156.390000,799.542000,1157.130000,799.192000C1157.890000,798.828000,1158.800000,798.646000,1159.860000,798.646000C1160.920000,798.646000,1161.830000,798.828000,1162.570000,799.192000C1163.330000,799.542000,1163.890000,800.025000,1164.270000,800.641000C1164.660000,801.243000,1164.860000,801.922000,1164.860000,802.678000C1164.860000,803.490000,1164.640000,804.204000,1164.210000,804.820000C1163.770000,805.422000,1163.180000,805.870000,1162.420000,806.164000C1163.290000,806.430000,1163.980000,806.899000,1164.480000,807.571000C1165,808.229000,1165.260000,809.027000,1165.260000,809.965000C1165.260000,810.875000,1165.030000,811.673000,1164.590000,812.359000C1164.140000,813.031000,1163.500000,813.556000,1162.670000,813.934000C1161.860000,814.298000,1160.920000,814.480000,1159.860000,814.480000C1158.800000,814.480000,1157.860000,814.298000,1157.050000,813.934000C1156.250000,813.556000,1155.630000,813.031000,1155.180000,812.359000C1154.730000,811.673000,1154.510000,810.875000,1154.510000,809.965000C1154.510000,809.027000,1154.760000,808.222000,1155.260000,807.550000C1155.770000,806.878000,1156.450000,806.416000,1157.320000,806.164000ZM1163.010000,802.909000C1163.010000,802.055000,1162.730000,801.397000,1162.170000,800.935000C1161.610000,800.473000,1160.840000,800.242000,1159.860000,800.242000C1158.890000,800.242000,1158.130000,800.473000,1157.570000,800.935000C1157.010000,801.397000,1156.730000,802.062000,1156.730000,802.930000C1156.730000,803.714000,1157.020000,804.344000,1157.590000,804.820000C1158.180000,805.296000,1158.940000,805.534000,1159.860000,805.534000C1160.800000,805.534000,1161.550000,805.296000,1162.130000,804.820000C1162.720000,804.330000,1163.010000,803.693000,1163.010000,802.909000ZM1159.860000,807.004000C1158.820000,807.004000,1157.980000,807.249000,1157.320000,807.739000C1156.660000,808.215000,1156.330000,808.936000,1156.330000,809.902000C1156.330000,810.798000,1156.650000,811.519000,1157.280000,812.065000C1157.920000,812.611000,1158.780000,812.884000,1159.860000,812.884000C1160.940000,812.884000,1161.790000,812.611000,1162.420000,812.065000C1163.050000,811.519000,1163.370000,810.798000,1163.370000,809.902000C1163.370000,808.964000,1163.050000,808.250000,1162.400000,807.760000C1161.760000,807.256000,1160.910000,807.004000,1159.860000,807.004000ZM1174.620000,799.990000L1175.380000,801.355000L1172.460000,802.573000L1175.400000,803.770000L1174.600000,805.177000L1172.060000,803.329000L1172.390000,806.500000L1170.820000,806.500000L1171.130000,803.329000L1168.590000,805.198000L1167.770000,803.770000L1170.690000,802.552000L1167.770000,801.376000L1168.550000,799.969000L1171.160000,801.838000L1170.820000,798.646000L1172.420000,798.646000L1172.060000,801.838000L1174.620000,799.990000Z" fill="rgb(0,0,0)" stroke="none" stroke-width="1"/><path id="btsxxvpse-path40" d="M957.243000,732.392000L949.872000,732.392000L949.872000,737.180000C950.194000,736.732000,950.670000,736.368000,951.300000,736.088000C951.930000,735.794000,952.609000,735.647000,953.337000,735.647000C954.499000,735.647000,955.444000,735.892000,956.172000,736.382000C956.900000,736.858000,957.418000,737.481000,957.726000,738.251000C958.048000,739.007000,958.209000,739.812000,958.209000,740.666000C958.209000,741.674000,958.020000,742.577000,957.642000,743.375000C957.264000,744.173000,956.683000,744.803000,955.899000,745.265000C955.129000,745.727000,954.170000,745.958000,953.022000,745.958000C951.552000,745.958000,950.362000,745.580000,949.452000,744.824000C948.542000,744.068000,947.989000,743.060000,947.793000,741.800000L949.662000,741.800000C949.844000,742.598000,950.229000,743.221000,950.817000,743.669000C951.405000,744.117000,952.147000,744.341000,953.043000,744.341000C954.149000,744.341000,954.982000,744.012000,955.542000,743.354000C956.102000,742.682000,956.382000,741.800000,956.382000,740.708000C956.382000,739.616000,956.102000,738.776000,955.542000,738.188000C954.982000,737.586000,954.156000,737.285000,953.064000,737.285000C952.322000,737.285000,951.671000,737.467000,951.111000,737.831000C950.565000,738.181000,950.166000,738.664000,949.914000,739.280000L948.108000,739.280000L948.108000,730.712000L957.243000,730.712000L957.243000,732.392000ZM1057.140000,731.279000L1051.620000,745.916000L1049.410000,745.916000L1043.890000,731.279000L1045.930000,731.279000L1050.520000,743.900000L1055.120000,731.279000L1057.140000,731.279000ZM1169.040000,732.224000L1163.200000,745.916000L1161.270000,745.916000L1167.190000,732.413000L1159.090000,732.413000L1159.090000,730.775000L1169.040000,730.775000L1169.040000,732.224000Z" fill="rgb(0,0,0)" stroke="none" stroke-width="1"/><path id="btsxxvpse-path41" d="M957.243000,707.037000L949.872000,707.037000L949.872000,711.825000C950.194000,711.377000,950.670000,711.013000,951.300000,710.733000C951.930000,710.439000,952.609000,710.292000,953.337000,710.292000C954.499000,710.292000,955.444000,710.537000,956.172000,711.027000C956.900000,711.503000,957.418000,712.126000,957.726000,712.896000C958.048000,713.652000,958.209000,714.457000,958.209000,715.311000C958.209000,716.319000,958.020000,717.222000,957.642000,718.020000C957.264000,718.818000,956.683000,719.448000,955.899000,719.910000C955.129000,720.372000,954.170000,720.603000,953.022000,720.603000C951.552000,720.603000,950.362000,720.225000,949.452000,719.469000C948.542000,718.713000,947.989000,717.705000,947.793000,716.445000L949.662000,716.445000C949.844000,717.243000,950.229000,717.866000,950.817000,718.314000C951.405000,718.762000,952.147000,718.986000,953.043000,718.986000C954.149000,718.986000,954.982000,718.657000,955.542000,717.999000C956.102000,717.327000,956.382000,716.445000,956.382000,715.353000C956.382000,714.261000,956.102000,713.421000,955.542000,712.833000C954.982000,712.231000,954.156000,711.930000,953.064000,711.930000C952.322000,711.930000,951.671000,712.112000,951.111000,712.476000C950.565000,712.826000,950.166000,713.309000,949.914000,713.925000L948.108000,713.925000L948.108000,705.357000L957.243000,705.357000L957.243000,707.037000ZM1054.830000,710.208000C1054.830000,711.426000,1054.410000,712.441000,1053.570000,713.253000C1052.740000,714.051000,1051.480000,714.450000,1049.770000,714.450000L1046.950000,714.450000L1046.950000,720.561000L1045.040000,720.561000L1045.040000,705.924000L1049.770000,705.924000C1051.420000,705.924000,1052.670000,706.323000,1053.530000,707.121000C1054.400000,707.919000,1054.830000,708.948000,1054.830000,710.208000ZM1049.770000,712.875000C1050.830000,712.875000,1051.620000,712.644000,1052.120000,712.182000C1052.620000,711.720000,1052.880000,711.062000,1052.880000,710.208000C1052.880000,708.402000,1051.840000,707.499000,1049.770000,707.499000L1046.950000,707.499000L1046.950000,712.875000L1049.770000,712.875000ZM1166.130000,708.990000C1165.820000,707.436000,1164.860000,706.659000,1163.250000,706.659000C1162,706.659000,1161.070000,707.142000,1160.460000,708.108000C1159.840000,709.060000,1159.540000,710.635000,1159.550000,712.833000C1159.880000,712.105000,1160.410000,711.538000,1161.150000,711.132000C1161.910000,710.712000,1162.750000,710.502000,1163.670000,710.502000C1165.110000,710.502000,1166.260000,710.950000,1167.110000,711.846000C1167.980000,712.742000,1168.420000,713.981000,1168.420000,715.563000C1168.420000,716.515000,1168.230000,717.369000,1167.850000,718.125000C1167.490000,718.881000,1166.930000,719.483000,1166.170000,719.931000C1165.430000,720.379000,1164.520000,720.603000,1163.460000,720.603000C1162.020000,720.603000,1160.890000,720.281000,1160.080000,719.637000C1159.270000,718.993000,1158.700000,718.104000,1158.380000,716.970000C1158.060000,715.836000,1157.900000,714.436000,1157.900000,712.770000C1157.900000,707.632000,1159.690000,705.063000,1163.270000,705.063000C1164.640000,705.063000,1165.720000,705.434000,1166.510000,706.176000C1167.290000,706.918000,1167.750000,707.856000,1167.890000,708.990000L1166.130000,708.990000ZM1163.270000,712.119000C1162.670000,712.119000,1162.100000,712.245000,1161.570000,712.497000C1161.040000,712.735000,1160.600000,713.106000,1160.270000,713.610000C1159.950000,714.100000,1159.790000,714.702000,1159.790000,715.416000C1159.790000,716.480000,1160.090000,717.348000,1160.710000,718.020000C1161.330000,718.678000,1162.210000,719.007000,1163.360000,719.007000C1164.340000,719.007000,1165.110000,718.706000,1165.690000,718.104000C1166.270000,717.488000,1166.570000,716.662000,1166.570000,715.626000C1166.570000,714.534000,1166.290000,713.680000,1165.730000,713.064000C1165.170000,712.434000,1164.350000,712.119000,1163.270000,712.119000Z" fill="rgb(68,59,59)" stroke="none" stroke-width="1"/><path id="btsxxvpse-path42" d="M956.025000,756.532000C955.717000,754.978000,954.758000,754.201000,953.148000,754.201000C951.902000,754.201000,950.971000,754.684000,950.355000,755.650000C949.739000,756.602000,949.438000,758.177000,949.452000,760.375000C949.774000,759.647000,950.306000,759.080000,951.048000,758.674000C951.804000,758.254000,952.644000,758.044000,953.568000,758.044000C955.010000,758.044000,956.158000,758.492000,957.012000,759.388000C957.880000,760.284000,958.314000,761.523000,958.314000,763.105000C958.314000,764.057000,958.125000,764.911000,957.747000,765.667000C957.383000,766.423000,956.823000,767.025000,956.067000,767.473000C955.325000,767.921000,954.422000,768.145000,953.358000,768.145000C951.916000,768.145000,950.789000,767.823000,949.977000,767.179000C949.165000,766.535000,948.598000,765.646000,948.276000,764.512000C947.954000,763.378000,947.793000,761.978000,947.793000,760.312000C947.793000,755.174000,949.585000,752.605000,953.169000,752.605000C954.541000,752.605000,955.619000,752.976000,956.403000,753.718000C957.187000,754.460000,957.649000,755.398000,957.789000,756.532000L956.025000,756.532000ZM953.169000,759.661000C952.567000,759.661000,952,759.787000,951.468000,760.039000C950.936000,760.277000,950.502000,760.648000,950.166000,761.152000C949.844000,761.642000,949.683000,762.244000,949.683000,762.958000C949.683000,764.022000,949.991000,764.890000,950.607000,765.562000C951.223000,766.220000,952.105000,766.549000,953.253000,766.549000C954.233000,766.549000,955.010000,766.248000,955.584000,765.646000C956.172000,765.030000,956.466000,764.204000,956.466000,763.168000C956.466000,762.076000,956.186000,761.222000,955.626000,760.606000C955.066000,759.976000,954.247000,759.661000,953.169000,759.661000ZM1051.170000,760.795000L1055.670000,768.103000L1053.500000,768.103000L1050,762.391000L1046.660000,768.103000L1044.540000,768.103000L1049.010000,760.795000L1044.510000,753.466000L1046.660000,753.466000L1050.180000,759.199000L1053.540000,753.466000L1055.690000,753.466000L1051.170000,760.795000ZM1158.230000,764.722000L1158.230000,763.273000L1165.600000,753.067000L1167.890000,753.067000L1167.890000,763.063000L1169.990000,763.063000L1169.990000,764.722000L1167.890000,764.722000L1167.890000,768.103000L1166,768.103000L1166,764.722000L1158.230000,764.722000ZM1166.080000,755.062000L1160.430000,763.063000L1166.080000,763.063000L1166.080000,755.062000Z" fill="rgb(0,0,0)" stroke="none" stroke-width="1"/><path id="btsxxvpse-path43" d="M947.100000,693.409000L947.100000,691.960000L954.471000,681.754000L956.760000,681.754000L956.760000,691.750000L958.860000,691.750000L958.860000,693.409000L956.760000,693.409000L956.760000,696.790000L954.870000,696.790000L954.870000,693.409000L947.100000,693.409000ZM954.954000,683.749000L949.305000,691.750000L954.954000,691.750000L954.954000,683.749000ZM1057.160000,682.153000L1051.640000,696.790000L1049.430000,696.790000L1043.910000,682.153000L1045.950000,682.153000L1050.540000,694.774000L1055.140000,682.153000L1057.160000,682.153000ZM1169.400000,683.266000L1162.030000,683.266000L1162.030000,688.054000C1162.350000,687.606000,1162.820000,687.242000,1163.450000,686.962000C1164.080000,686.668000,1164.760000,686.521000,1165.490000,686.521000C1166.650000,686.521000,1167.600000,686.766000,1168.330000,687.256000C1169.050000,687.732000,1169.570000,688.355000,1169.880000,689.125000C1170.200000,689.881000,1170.360000,690.686000,1170.360000,691.540000C1170.360000,692.548000,1170.170000,693.451000,1169.800000,694.249000C1169.420000,695.047000,1168.840000,695.677000,1168.050000,696.139000C1167.280000,696.601000,1166.320000,696.832000,1165.180000,696.832000C1163.710000,696.832000,1162.520000,696.454000,1161.610000,695.698000C1160.700000,694.942000,1160.140000,693.934000,1159.950000,692.674000L1161.820000,692.674000C1162,693.472000,1162.380000,694.095000,1162.970000,694.543000C1163.560000,694.991000,1164.300000,695.215000,1165.200000,695.215000C1166.300000,695.215000,1167.140000,694.886000,1167.700000,694.228000C1168.260000,693.556000,1168.540000,692.674000,1168.540000,691.582000C1168.540000,690.490000,1168.260000,689.650000,1167.700000,689.062000C1167.140000,688.460000,1166.310000,688.159000,1165.220000,688.159000C1164.480000,688.159000,1163.820000,688.341000,1163.260000,688.705000C1162.720000,689.055000,1162.320000,689.538000,1162.070000,690.154000L1160.260000,690.154000L1160.260000,681.586000L1169.400000,681.586000L1169.400000,683.266000Z" fill="rgb(0,0,0)" stroke="none" stroke-width="1"/><path id="btsxxvpse-path44" d="M947.100000,669.638000L947.100000,668.189000L954.471000,657.983000L956.760000,657.983000L956.760000,667.979000L958.860000,667.979000L958.860000,669.638000L956.760000,669.638000L956.760000,673.019000L954.870000,673.019000L954.870000,669.638000L947.100000,669.638000ZM954.954000,659.978000L949.305000,667.979000L954.954000,667.979000L954.954000,659.978000ZM1054.070000,658.382000L1054.070000,659.936000L1050.080000,659.936000L1050.080000,673.019000L1048.170000,673.019000L1048.170000,659.936000L1044.160000,659.936000L1044.160000,658.382000L1054.070000,658.382000ZM1156.420000,669.638000L1156.420000,668.189000L1163.790000,657.983000L1166.080000,657.983000L1166.080000,667.979000L1168.180000,667.979000L1168.180000,669.638000L1166.080000,669.638000L1166.080000,673.019000L1164.190000,673.019000L1164.190000,669.638000L1156.420000,669.638000ZM1164.280000,659.978000L1158.630000,667.979000L1164.280000,667.979000L1164.280000,659.978000Z" fill="rgb(0,0,0)" stroke="none" stroke-width="1"/><path id="btsxxvpse-path45" d="M947.520000,637.887000C947.618000,636.599000,948.115000,635.591000,949.011000,634.863000C949.907000,634.135000,951.069000,633.771000,952.497000,633.771000C953.449000,633.771000,954.268000,633.946000,954.954000,634.296000C955.654000,634.632000,956.179000,635.094000,956.529000,635.682000C956.893000,636.270000,957.075000,636.935000,957.075000,637.677000C957.075000,638.545000,956.823000,639.294000,956.319000,639.924000C955.829000,640.554000,955.185000,640.960000,954.387000,641.142000L954.387000,641.247000C955.297000,641.471000,956.018000,641.912000,956.550000,642.570000C957.082000,643.228000,957.348000,644.089000,957.348000,645.153000C957.348000,645.951000,957.166000,646.672000,956.802000,647.316000C956.438000,647.946000,955.892000,648.443000,955.164000,648.807000C954.436000,649.171000,953.561000,649.353000,952.539000,649.353000C951.055000,649.353000,949.837000,648.968000,948.885000,648.198000C947.933000,647.414000,947.401000,646.308000,947.289000,644.880000L949.137000,644.880000C949.235000,645.720000,949.578000,646.406000,950.166000,646.938000C950.754000,647.470000,951.538000,647.736000,952.518000,647.736000C953.498000,647.736000,954.240000,647.484000,954.744000,646.980000C955.262000,646.462000,955.521000,645.797000,955.521000,644.985000C955.521000,643.935000,955.171000,643.179000,954.471000,642.717000C953.771000,642.255000,952.714000,642.024000,951.300000,642.024000L950.817000,642.024000L950.817000,640.428000L951.321000,640.428000C952.609000,640.414000,953.582000,640.204000,954.240000,639.798000C954.898000,639.378000,955.227000,638.734000,955.227000,637.866000C955.227000,637.124000,954.982000,636.529000,954.492000,636.081000C954.016000,635.633000,953.330000,635.409000,952.434000,635.409000C951.566000,635.409000,950.866000,635.633000,950.334000,636.081000C949.802000,636.529000,949.487000,637.131000,949.389000,637.887000L947.520000,637.887000ZM1050.210000,641.940000L1054.700000,649.248000L1052.540000,649.248000L1049.030000,643.536000L1045.690000,649.248000L1043.570000,649.248000L1048.040000,641.940000L1043.550000,634.611000L1045.690000,634.611000L1049.220000,640.344000L1052.580000,634.611000L1054.720000,634.611000L1050.210000,641.940000ZM1166.190000,637.677000C1165.880000,636.123000,1164.920000,635.346000,1163.310000,635.346000C1162.070000,635.346000,1161.140000,635.829000,1160.520000,636.795000C1159.900000,637.747000,1159.600000,639.322000,1159.620000,641.520000C1159.940000,640.792000,1160.470000,640.225000,1161.210000,639.819000C1161.970000,639.399000,1162.810000,639.189000,1163.730000,639.189000C1165.170000,639.189000,1166.320000,639.637000,1167.180000,640.533000C1168.040000,641.429000,1168.480000,642.668000,1168.480000,644.250000C1168.480000,645.202000,1168.290000,646.056000,1167.910000,646.812000C1167.550000,647.568000,1166.990000,648.170000,1166.230000,648.618000C1165.490000,649.066000,1164.590000,649.290000,1163.520000,649.290000C1162.080000,649.290000,1160.950000,648.968000,1160.140000,648.324000C1159.330000,647.680000,1158.760000,646.791000,1158.440000,645.657000C1158.120000,644.523000,1157.960000,643.123000,1157.960000,641.457000C1157.960000,636.319000,1159.750000,633.750000,1163.330000,633.750000C1164.710000,633.750000,1165.780000,634.121000,1166.570000,634.863000C1167.350000,635.605000,1167.810000,636.543000,1167.950000,637.677000L1166.190000,637.677000ZM1163.330000,640.806000C1162.730000,640.806000,1162.160000,640.932000,1161.630000,641.184000C1161.100000,641.422000,1160.670000,641.793000,1160.330000,642.297000C1160.010000,642.787000,1159.850000,643.389000,1159.850000,644.103000C1159.850000,645.167000,1160.160000,646.035000,1160.770000,646.707000C1161.390000,647.365000,1162.270000,647.694000,1163.420000,647.694000C1164.400000,647.694000,1165.170000,647.393000,1165.750000,646.791000C1166.340000,646.175000,1166.630000,645.349000,1166.630000,644.313000C1166.630000,643.221000,1166.350000,642.367000,1165.790000,641.751000C1165.230000,641.121000,1164.410000,640.806000,1163.330000,640.806000Z" fill="rgb(0,0,0)" stroke="none" stroke-width="1"/><path id="btsxxvpse-path46" d="M947.520000,614.116000C947.618000,612.828000,948.115000,611.820000,949.011000,611.092000C949.907000,610.364000,951.069000,610,952.497000,610C953.449000,610,954.268000,610.175000,954.954000,610.525000C955.654000,610.861000,956.179000,611.323000,956.529000,611.911000C956.893000,612.499000,957.075000,613.164000,957.075000,613.906000C957.075000,614.774000,956.823000,615.523000,956.319000,616.153000C955.829000,616.783000,955.185000,617.189000,954.387000,617.371000L954.387000,617.476000C955.297000,617.700000,956.018000,618.141000,956.550000,618.799000C957.082000,619.457000,957.348000,620.318000,957.348000,621.382000C957.348000,622.180000,957.166000,622.901000,956.802000,623.545000C956.438000,624.175000,955.892000,624.672000,955.164000,625.036000C954.436000,625.400000,953.561000,625.582000,952.539000,625.582000C951.055000,625.582000,949.837000,625.197000,948.885000,624.427000C947.933000,623.643000,947.401000,622.537000,947.289000,621.109000L949.137000,621.109000C949.235000,621.949000,949.578000,622.635000,950.166000,623.167000C950.754000,623.699000,951.538000,623.965000,952.518000,623.965000C953.498000,623.965000,954.240000,623.713000,954.744000,623.209000C955.262000,622.691000,955.521000,622.026000,955.521000,621.214000C955.521000,620.164000,955.171000,619.408000,954.471000,618.946000C953.771000,618.484000,952.714000,618.253000,951.300000,618.253000L950.817000,618.253000L950.817000,616.657000L951.321000,616.657000C952.609000,616.643000,953.582000,616.433000,954.240000,616.027000C954.898000,615.607000,955.227000,614.963000,955.227000,614.095000C955.227000,613.353000,954.982000,612.758000,954.492000,612.310000C954.016000,611.862000,953.330000,611.638000,952.434000,611.638000C951.566000,611.638000,950.866000,611.862000,950.334000,612.310000C949.802000,612.758000,949.487000,613.360000,949.389000,614.116000L947.520000,614.116000ZM1048.860000,625.624000C1047.900000,625.624000,1047.030000,625.456000,1046.260000,625.120000C1045.500000,624.770000,1044.910000,624.294000,1044.470000,623.692000C1044.040000,623.076000,1043.820000,622.369000,1043.800000,621.571000L1045.840000,621.571000C1045.910000,622.257000,1046.190000,622.838000,1046.680000,623.314000C1047.180000,623.776000,1047.910000,624.007000,1048.860000,624.007000C1049.770000,624.007000,1050.490000,623.783000,1051.010000,623.335000C1051.540000,622.873000,1051.800000,622.285000,1051.800000,621.571000C1051.800000,621.011000,1051.650000,620.556000,1051.340000,620.206000C1051.030000,619.856000,1050.650000,619.590000,1050.190000,619.408000C1049.720000,619.226000,1049.100000,619.030000,1048.320000,618.820000C1047.350000,618.568000,1046.570000,618.316000,1045.990000,618.064000C1045.410000,617.812000,1044.920000,617.420000,1044.500000,616.888000C1044.090000,616.342000,1043.890000,615.614000,1043.890000,614.704000C1043.890000,613.906000,1044.090000,613.199000,1044.500000,612.583000C1044.900000,611.967000,1045.470000,611.491000,1046.200000,611.155000C1046.940000,610.819000,1047.790000,610.651000,1048.740000,610.651000C1050.110000,610.651000,1051.230000,610.994000,1052.100000,611.680000C1052.980000,612.366000,1053.480000,613.276000,1053.590000,614.410000L1051.490000,614.410000C1051.420000,613.850000,1051.120000,613.360000,1050.610000,612.940000C1050.090000,612.506000,1049.400000,612.289000,1048.550000,612.289000C1047.750000,612.289000,1047.100000,612.499000,1046.600000,612.919000C1046.090000,613.325000,1045.840000,613.899000,1045.840000,614.641000C1045.840000,615.173000,1045.990000,615.607000,1046.280000,615.943000C1046.590000,616.279000,1046.960000,616.538000,1047.390000,616.720000C1047.840000,616.888000,1048.460000,617.084000,1049.260000,617.308000C1050.230000,617.574000,1051.010000,617.840000,1051.590000,618.106000C1052.180000,618.358000,1052.690000,618.757000,1053.110000,619.303000C1053.530000,619.835000,1053.740000,620.563000,1053.740000,621.487000C1053.740000,622.201000,1053.550000,622.873000,1053.170000,623.503000C1052.790000,624.133000,1052.230000,624.644000,1051.490000,625.036000C1050.750000,625.428000,1049.870000,625.624000,1048.860000,625.624000ZM1156.970000,614.116000C1157.060000,612.828000,1157.560000,611.820000,1158.460000,611.092000C1159.350000,610.364000,1160.520000,610,1161.940000,610C1162.900000,610,1163.710000,610.175000,1164.400000,610.525000C1165.100000,610.861000,1165.630000,611.323000,1165.980000,611.911000C1166.340000,612.499000,1166.520000,613.164000,1166.520000,613.906000C1166.520000,614.774000,1166.270000,615.523000,1165.770000,616.153000C1165.280000,616.783000,1164.630000,617.189000,1163.830000,617.371000L1163.830000,617.476000C1164.740000,617.700000,1165.460000,618.141000,1166,618.799000C1166.530000,619.457000,1166.790000,620.318000,1166.790000,621.382000C1166.790000,622.180000,1166.610000,622.901000,1166.250000,623.545000C1165.880000,624.175000,1165.340000,624.672000,1164.610000,625.036000C1163.880000,625.400000,1163.010000,625.582000,1161.990000,625.582000C1160.500000,625.582000,1159.280000,625.197000,1158.330000,624.427000C1157.380000,623.643000,1156.850000,622.537000,1156.740000,621.109000L1158.580000,621.109000C1158.680000,621.949000,1159.020000,622.635000,1159.610000,623.167000C1160.200000,623.699000,1160.980000,623.965000,1161.960000,623.965000C1162.940000,623.965000,1163.690000,623.713000,1164.190000,623.209000C1164.710000,622.691000,1164.970000,622.026000,1164.970000,621.214000C1164.970000,620.164000,1164.620000,619.408000,1163.920000,618.946000C1163.220000,618.484000,1162.160000,618.253000,1160.750000,618.253000L1160.260000,618.253000L1160.260000,616.657000L1160.770000,616.657000C1162.060000,616.643000,1163.030000,616.433000,1163.690000,616.027000C1164.340000,615.607000,1164.670000,614.963000,1164.670000,614.095000C1164.670000,613.353000,1164.430000,612.758000,1163.940000,612.310000C1163.460000,611.862000,1162.780000,611.638000,1161.880000,611.638000C1161.010000,611.638000,1160.310000,611.862000,1159.780000,612.310000C1159.250000,612.758000,1158.930000,613.360000,1158.840000,614.116000L1156.970000,614.116000Z" fill="rgb(0,0,0)" stroke="none" stroke-width="1"/><path id="btsxxvpse-path47" d="M947.331000,601.758000C949.109000,600.330000,950.502000,599.161000,951.510000,598.251000C952.518000,597.327000,953.365000,596.368000,954.051000,595.374000C954.751000,594.366000,955.101000,593.379000,955.101000,592.413000C955.101000,591.503000,954.877000,590.789000,954.429000,590.271000C953.995000,589.739000,953.288000,589.473000,952.308000,589.473000C951.356000,589.473000,950.614000,589.774000,950.082000,590.376000C949.564000,590.964000,949.284000,591.755000,949.242000,592.749000L947.394000,592.749000C947.450000,591.181000,947.926000,589.970000,948.822000,589.116000C949.718000,588.262000,950.873000,587.835000,952.287000,587.835000C953.729000,587.835000,954.870000,588.234000,955.710000,589.032000C956.564000,589.830000,956.991000,590.929000,956.991000,592.329000C956.991000,593.491000,956.641000,594.625000,955.941000,595.731000C955.255000,596.823000,954.471000,597.789000,953.589000,598.629000C952.707000,599.455000,951.580000,600.421000,950.208000,601.527000L957.432000,601.527000L957.432000,603.123000L947.331000,603.123000L947.331000,601.758000ZM1053.720000,592.938000C1053.720000,594.156000,1053.300000,595.171000,1052.460000,595.983000C1051.640000,596.781000,1050.370000,597.180000,1048.660000,597.180000L1045.850000,597.180000L1045.850000,603.291000L1043.940000,603.291000L1043.940000,588.654000L1048.660000,588.654000C1050.310000,588.654000,1051.570000,589.053000,1052.420000,589.851000C1053.290000,590.649000,1053.720000,591.678000,1053.720000,592.938000ZM1048.660000,595.605000C1049.720000,595.605000,1050.510000,595.374000,1051.010000,594.912000C1051.520000,594.450000,1051.770000,593.792000,1051.770000,592.938000C1051.770000,591.132000,1050.730000,590.229000,1048.660000,590.229000L1045.850000,590.229000L1045.850000,595.605000L1048.660000,595.605000ZM1156.100000,599.910000L1156.100000,598.461000L1163.470000,588.255000L1165.760000,588.255000L1165.760000,598.251000L1167.860000,598.251000L1167.860000,599.910000L1165.760000,599.910000L1165.760000,603.291000L1163.870000,603.291000L1163.870000,599.910000L1156.100000,599.910000ZM1163.950000,590.250000L1158.300000,598.251000L1163.950000,598.251000L1163.950000,590.250000Z" fill="rgb(0,0,0)" stroke="none" stroke-width="1"/><path id="btsxxvpse-path48" d="M947.331000,576.403000C949.109000,574.975000,950.502000,573.806000,951.510000,572.896000C952.518000,571.972000,953.365000,571.013000,954.051000,570.019000C954.751000,569.011000,955.101000,568.024000,955.101000,567.058000C955.101000,566.148000,954.877000,565.434000,954.429000,564.916000C953.995000,564.384000,953.288000,564.118000,952.308000,564.118000C951.356000,564.118000,950.614000,564.419000,950.082000,565.021000C949.564000,565.609000,949.284000,566.400000,949.242000,567.394000L947.394000,567.394000C947.450000,565.826000,947.926000,564.615000,948.822000,563.761000C949.718000,562.907000,950.873000,562.480000,952.287000,562.480000C953.729000,562.480000,954.870000,562.879000,955.710000,563.677000C956.564000,564.475000,956.991000,565.574000,956.991000,566.974000C956.991000,568.136000,956.641000,569.270000,955.941000,570.376000C955.255000,571.468000,954.471000,572.434000,953.589000,573.274000C952.707000,574.100000,951.580000,575.066000,950.208000,576.172000L957.432000,576.172000L957.432000,577.768000L947.331000,577.768000L947.331000,576.403000ZM1052.940000,563.299000L1052.940000,564.853000L1048.950000,564.853000L1048.950000,577.936000L1047.040000,577.936000L1047.040000,564.853000L1043.030000,564.853000L1043.030000,563.299000L1052.940000,563.299000ZM1155.720000,566.575000C1155.810000,565.287000,1156.310000,564.279000,1157.210000,563.551000C1158.100000,562.823000,1159.260000,562.459000,1160.690000,562.459000C1161.640000,562.459000,1162.460000,562.634000,1163.150000,562.984000C1163.850000,563.320000,1164.370000,563.782000,1164.720000,564.370000C1165.090000,564.958000,1165.270000,565.623000,1165.270000,566.365000C1165.270000,567.233000,1165.020000,567.982000,1164.510000,568.612000C1164.020000,569.242000,1163.380000,569.648000,1162.580000,569.830000L1162.580000,569.935000C1163.490000,570.159000,1164.210000,570.600000,1164.750000,571.258000C1165.280000,571.916000,1165.540000,572.777000,1165.540000,573.841000C1165.540000,574.639000,1165.360000,575.360000,1165,576.004000C1164.630000,576.634000,1164.090000,577.131000,1163.360000,577.495000C1162.630000,577.859000,1161.760000,578.041000,1160.730000,578.041000C1159.250000,578.041000,1158.030000,577.656000,1157.080000,576.886000C1156.130000,576.102000,1155.600000,574.996000,1155.480000,573.568000L1157.330000,573.568000C1157.430000,574.408000,1157.770000,575.094000,1158.360000,575.626000C1158.950000,576.158000,1159.730000,576.424000,1160.710000,576.424000C1161.690000,576.424000,1162.440000,576.172000,1162.940000,575.668000C1163.460000,575.150000,1163.720000,574.485000,1163.720000,573.673000C1163.720000,572.623000,1163.370000,571.867000,1162.670000,571.405000C1161.970000,570.943000,1160.910000,570.712000,1159.500000,570.712000L1159.010000,570.712000L1159.010000,569.116000L1159.520000,569.116000C1160.800000,569.102000,1161.780000,568.892000,1162.440000,568.486000C1163.090000,568.066000,1163.420000,567.422000,1163.420000,566.554000C1163.420000,565.812000,1163.180000,565.217000,1162.690000,564.769000C1162.210000,564.321000,1161.530000,564.097000,1160.630000,564.097000C1159.760000,564.097000,1159.060000,564.321000,1158.530000,564.769000C1158,565.217000,1157.680000,565.819000,1157.580000,566.575000L1155.720000,566.575000Z" fill="rgb(0,0,0)" stroke="none" stroke-width="1"/><path id="btsxxvpse-path49" d="M947.058000,540.725000L947.058000,538.982000L951.006000,538.982000L951.006000,554.165000L949.074000,554.165000L949.074000,540.725000L947.058000,540.725000ZM1051.510000,546.626000C1052.040000,546.710000,1052.530000,546.927000,1052.960000,547.277000C1053.410000,547.627000,1053.760000,548.061000,1054.010000,548.579000C1054.280000,549.097000,1054.410000,549.650000,1054.410000,550.238000C1054.410000,550.980000,1054.220000,551.652000,1053.840000,552.254000C1053.460000,552.842000,1052.910000,553.311000,1052.180000,553.661000C1051.470000,553.997000,1050.620000,554.165000,1049.640000,554.165000L1044.180000,554.165000L1044.180000,539.528000L1049.430000,539.528000C1050.430000,539.528000,1051.270000,539.696000,1051.970000,540.032000C1052.670000,540.354000,1053.200000,540.795000,1053.550000,541.355000C1053.900000,541.915000,1054.070000,542.545000,1054.070000,543.245000C1054.070000,544.113000,1053.830000,544.834000,1053.360000,545.408000C1052.900000,545.968000,1052.280000,546.374000,1051.510000,546.626000ZM1046.090000,545.849000L1049.310000,545.849000C1050.200000,545.849000,1050.890000,545.639000,1051.380000,545.219000C1051.870000,544.799000,1052.120000,544.218000,1052.120000,543.476000C1052.120000,542.734000,1051.870000,542.153000,1051.380000,541.733000C1050.890000,541.313000,1050.190000,541.103000,1049.260000,541.103000L1046.090000,541.103000L1046.090000,545.849000ZM1049.470000,552.590000C1050.430000,552.590000,1051.170000,552.366000,1051.700000,551.918000C1052.230000,551.470000,1052.500000,550.847000,1052.500000,550.049000C1052.500000,549.237000,1052.220000,548.600000,1051.660000,548.138000C1051.100000,547.662000,1050.350000,547.424000,1049.410000,547.424000L1046.090000,547.424000L1046.090000,552.590000L1049.470000,552.590000ZM1157.290000,552.632000C1159.070000,551.204000,1160.460000,550.035000,1161.470000,549.125000C1162.480000,548.201000,1163.320000,547.242000,1164.010000,546.248000C1164.710000,545.240000,1165.060000,544.253000,1165.060000,543.287000C1165.060000,542.377000,1164.840000,541.663000,1164.390000,541.145000C1163.950000,540.613000,1163.250000,540.347000,1162.270000,540.347000C1161.320000,540.347000,1160.570000,540.648000,1160.040000,541.250000C1159.520000,541.838000,1159.240000,542.629000,1159.200000,543.623000L1157.350000,543.623000C1157.410000,542.055000,1157.890000,540.844000,1158.780000,539.990000C1159.680000,539.136000,1160.830000,538.709000,1162.250000,538.709000C1163.690000,538.709000,1164.830000,539.108000,1165.670000,539.906000C1166.520000,540.704000,1166.950000,541.803000,1166.950000,543.203000C1166.950000,544.365000,1166.600000,545.499000,1165.900000,546.605000C1165.210000,547.697000,1164.430000,548.663000,1163.550000,549.503000C1162.670000,550.329000,1161.540000,551.295000,1160.170000,552.401000L1167.390000,552.401000L1167.390000,553.997000L1157.290000,553.997000L1157.290000,552.632000Z" fill="rgb(0,0,0)" stroke="none" stroke-width="1"/><path id="btsxxvpse-path50" d="M959.810000,527.960000L955.640000,523.790000C954.620000,524.070000,953.580000,524.210000,952.520000,524.210000C950.580000,524.210000,948.810000,523.760000,947.210000,522.860000C945.610000,521.940000,944.340000,520.670000,943.400000,519.050000C942.480000,517.410000,942.020000,515.570000,942.020000,513.530000C942.020000,511.490000,942.480000,509.660000,943.400000,508.040000C944.340000,506.400000,945.610000,505.130000,947.210000,504.230000C948.810000,503.310000,950.580000,502.850000,952.520000,502.850000C954.480000,502.850000,956.260000,503.310000,957.860000,504.230000C959.460000,505.130000,960.720000,506.390000,961.640000,508.010000C962.560000,509.630000,963.020000,511.470000,963.020000,513.530000C963.020000,515.530000,962.580000,517.330000,961.700000,518.930000C960.820000,520.530000,959.610000,521.790000,958.070000,522.710000L963.350000,527.960000L959.810000,527.960000ZM944.810000,513.530000C944.810000,515.190000,945.140000,516.650000,945.800000,517.910000C946.480000,519.170000,947.400000,520.140000,948.560000,520.820000C949.740000,521.500000,951.060000,521.840000,952.520000,521.840000C953.980000,521.840000,955.290000,521.500000,956.450000,520.820000C957.630000,520.140000,958.550000,519.170000,959.210000,517.910000C959.890000,516.650000,960.230000,515.190000,960.230000,513.530000C960.230000,511.850000,959.890000,510.390000,959.210000,509.150000C958.550000,507.890000,957.640000,506.920000,956.480000,506.240000C955.320000,505.560000,954,505.220000,952.520000,505.220000C951.040000,505.220000,949.720000,505.560000,948.560000,506.240000C947.400000,506.920000,946.480000,507.890000,945.800000,509.150000C945.140000,510.390000,944.810000,511.850000,944.810000,513.530000Z" fill="rgb(0,0,0)" stroke="none" stroke-width="1"/><path id="btsxxvpse-path51" d="M959.810000,527.960000L959.103000,528.667000L959.396000,528.960000L959.810000,528.960000L959.810000,527.960000ZM955.640000,523.790000L956.348000,523.083000L955.936000,522.672000L955.376000,522.826000L955.640000,523.790000ZM947.210000,522.860000L946.712000,523.727000L946.720000,523.732000L947.210000,522.860000ZM943.400000,519.050000L942.528000,519.539000L942.532000,519.546000L942.536000,519.552000L943.400000,519.050000ZM943.400000,508.040000L942.533000,507.543000L942.531000,507.546000L943.400000,508.040000ZM947.210000,504.230000L947.701000,505.102000L947.709000,505.097000L947.210000,504.230000ZM957.860000,504.230000L957.362000,505.097000L957.370000,505.102000L957.860000,504.230000ZM961.640000,508.010000L962.510000,507.516000L962.510000,507.516000L961.640000,508.010000ZM961.700000,518.930000L962.577000,519.412000L962.577000,519.412000L961.700000,518.930000ZM958.070000,522.710000L957.558000,521.852000L956.453000,522.512000L957.365000,523.419000L958.070000,522.710000ZM963.350000,527.960000L963.350000,528.960000L965.774000,528.960000L964.056000,527.251000L963.350000,527.960000ZM945.800000,517.910000L944.915000,518.374000L944.920000,518.385000L945.800000,517.910000ZM948.560000,520.820000L948.055000,521.683000L948.061000,521.686000L948.560000,520.820000ZM956.450000,520.820000L955.951000,519.954000L955.945000,519.957000L956.450000,520.820000ZM959.210000,517.910000L958.330000,517.435000L958.325000,517.446000L959.210000,517.910000ZM959.210000,509.150000L958.325000,509.614000L958.329000,509.622000L958.334000,509.631000L959.210000,509.150000ZM956.480000,506.240000L955.975000,507.103000L955.975000,507.103000L956.480000,506.240000ZM948.560000,506.240000L949.066000,507.103000L949.066000,507.103000L948.560000,506.240000ZM945.800000,509.150000L944.920000,508.675000L944.918000,508.680000L945.800000,509.150000ZM960.518000,527.253000L956.348000,523.083000L954.933000,524.497000L959.103000,528.667000L960.518000,527.253000ZM955.376000,522.826000C954.442000,523.082000,953.491000,523.210000,952.520000,523.210000L952.520000,525.210000C953.670000,525.210000,954.799000,525.058000,955.905000,524.754000L955.376000,522.826000ZM952.520000,523.210000C950.742000,523.210000,949.142000,522.799000,947.701000,521.988000L946.720000,523.732000C948.478000,524.721000,950.419000,525.210000,952.520000,525.210000L952.520000,523.210000ZM947.709000,521.993000C946.263000,521.162000,945.119000,520.019000,944.265000,518.548000L942.536000,519.552000C943.562000,521.321000,944.958000,522.718000,946.712000,523.727000L947.709000,521.993000ZM944.273000,518.561000C943.443000,517.083000,943.020000,515.414000,943.020000,513.530000L941.020000,513.530000C941.020000,515.726000,941.517000,517.737000,942.528000,519.539000L944.273000,518.561000ZM943.020000,513.530000C943.020000,511.646000,943.443000,509.989000,944.270000,508.534000L942.531000,507.546000C941.517000,509.331000,941.020000,511.334000,941.020000,513.530000L943.020000,513.530000ZM944.268000,508.537000C945.121000,507.049000,946.263000,505.910000,947.701000,505.102000L946.720000,503.358000C944.958000,504.350000,943.560000,505.751000,942.533000,507.543000L944.268000,508.537000ZM947.709000,505.097000C949.149000,504.269000,950.746000,503.850000,952.520000,503.850000L952.520000,501.850000C950.415000,501.850000,948.472000,502.351000,946.712000,503.363000L947.709000,505.097000ZM952.520000,503.850000C954.317000,503.850000,955.923000,504.270000,957.362000,505.097000L958.359000,503.363000C956.598000,502.350000,954.644000,501.850000,952.520000,501.850000L952.520000,503.850000ZM957.370000,505.102000C958.809000,505.911000,959.939000,507.039000,960.771000,508.504000L962.510000,507.516000C961.502000,505.741000,960.112000,504.349000,958.351000,503.358000L957.370000,505.102000ZM960.771000,508.504000C961.597000,509.958000,962.020000,511.624000,962.020000,513.530000L964.020000,513.530000C964.020000,511.316000,963.524000,509.302000,962.510000,507.516000L960.771000,508.504000ZM962.020000,513.530000C962.020000,515.378000,961.615000,517.009000,960.824000,518.448000L962.577000,519.412000C963.545000,517.651000,964.020000,515.682000,964.020000,513.530000L962.020000,513.530000ZM960.824000,518.448000C960.028000,519.895000,958.942000,521.024000,957.558000,521.852000L958.583000,523.568000C960.279000,522.556000,961.613000,521.165000,962.577000,519.412000L960.824000,518.448000ZM957.365000,523.419000L962.645000,528.669000L964.056000,527.251000L958.776000,522.001000L957.365000,523.419000ZM963.350000,526.960000L959.810000,526.960000L959.810000,528.960000L963.350000,528.960000L963.350000,526.960000ZM943.810000,513.530000C943.810000,515.325000,944.168000,516.949000,944.915000,518.374000L946.686000,517.446000C946.113000,516.351000,945.810000,515.055000,945.810000,513.530000L943.810000,513.530000ZM944.920000,518.385000C945.682000,519.795000,946.727000,520.904000,948.055000,521.683000L949.066000,519.957000C948.074000,519.376000,947.279000,518.545000,946.680000,517.435000L944.920000,518.385000ZM948.061000,521.686000C949.404000,522.460000,950.898000,522.840000,952.520000,522.840000L952.520000,520.840000C951.223000,520.840000,950.077000,520.540000,949.060000,519.954000L948.061000,521.686000ZM952.520000,522.840000C954.143000,522.840000,955.630000,522.460000,956.956000,521.683000L955.945000,519.957000C954.951000,520.540000,953.818000,520.840000,952.520000,520.840000L952.520000,522.840000ZM956.950000,521.686000C958.302000,520.907000,959.352000,519.794000,960.096000,518.374000L958.325000,517.446000C957.749000,518.546000,956.959000,519.373000,955.951000,519.954000L956.950000,521.686000ZM960.090000,518.385000C960.861000,516.957000,961.230000,515.329000,961.230000,513.530000L959.230000,513.530000C959.230000,515.051000,958.920000,516.343000,958.330000,517.435000L960.090000,518.385000ZM961.230000,513.530000C961.230000,511.713000,960.862000,510.082000,960.087000,508.669000L958.334000,509.631000C958.919000,510.698000,959.230000,511.986000,959.230000,513.530000L961.230000,513.530000ZM960.096000,508.686000C959.355000,507.270000,958.317000,506.158000,956.986000,505.377000L955.975000,507.103000C956.964000,507.682000,957.746000,508.510000,958.325000,509.614000L960.096000,508.686000ZM956.986000,505.377000C955.658000,504.599000,954.160000,504.220000,952.520000,504.220000L952.520000,506.220000C953.841000,506.220000,954.983000,506.521000,955.975000,507.103000L956.986000,505.377000ZM952.520000,504.220000C950.881000,504.220000,949.383000,504.599000,948.055000,505.377000L949.066000,507.103000C950.058000,506.521000,951.200000,506.220000,952.520000,506.220000L952.520000,504.220000ZM948.055000,505.377000C946.727000,506.156000,945.682000,507.265000,944.920000,508.675000L946.680000,509.625000C947.279000,508.515000,948.074000,507.684000,949.066000,507.103000L948.055000,505.377000ZM944.918000,508.680000C944.167000,510.091000,943.810000,511.718000,943.810000,513.530000L945.810000,513.530000C945.810000,511.982000,946.114000,510.689000,946.683000,509.620000L944.918000,508.680000Z" fill="rgb(0,0,0)" stroke="none" stroke-width="1"/><path id="btsxxvpse-path52" d="M1169.680000,527.960000L1165.510000,523.790000C1164.490000,524.070000,1163.450000,524.210000,1162.390000,524.210000C1160.450000,524.210000,1158.680000,523.760000,1157.080000,522.860000C1155.480000,521.940000,1154.210000,520.670000,1153.270000,519.050000C1152.350000,517.410000,1151.890000,515.570000,1151.890000,513.530000C1151.890000,511.490000,1152.350000,509.660000,1153.270000,508.040000C1154.210000,506.400000,1155.480000,505.130000,1157.080000,504.230000C1158.680000,503.310000,1160.450000,502.850000,1162.390000,502.850000C1164.350000,502.850000,1166.130000,503.310000,1167.730000,504.230000C1169.330000,505.130000,1170.590000,506.390000,1171.510000,508.010000C1172.430000,509.630000,1172.890000,511.470000,1172.890000,513.530000C1172.890000,515.530000,1172.450000,517.330000,1171.570000,518.930000C1170.690000,520.530000,1169.480000,521.790000,1167.940000,522.710000L1173.220000,527.960000L1169.680000,527.960000ZM1154.680000,513.530000C1154.680000,515.190000,1155.010000,516.650000,1155.670000,517.910000C1156.350000,519.170000,1157.270000,520.140000,1158.430000,520.820000C1159.610000,521.500000,1160.930000,521.840000,1162.390000,521.840000C1163.850000,521.840000,1165.160000,521.500000,1166.320000,520.820000C1167.500000,520.140000,1168.420000,519.170000,1169.080000,517.910000C1169.760000,516.650000,1170.100000,515.190000,1170.100000,513.530000C1170.100000,511.850000,1169.760000,510.390000,1169.080000,509.150000C1168.420000,507.890000,1167.510000,506.920000,1166.350000,506.240000C1165.190000,505.560000,1163.870000,505.220000,1162.390000,505.220000C1160.910000,505.220000,1159.590000,505.560000,1158.430000,506.240000C1157.270000,506.920000,1156.350000,507.890000,1155.670000,509.150000C1155.010000,510.390000,1154.680000,511.850000,1154.680000,513.530000Z" fill="rgb(0,0,0)" stroke="none" stroke-width="1"/><path id="btsxxvpse-path53" d="M1169.680000,527.960000L1168.970000,528.667000L1169.260000,528.960000L1169.680000,528.960000L1169.680000,527.960000ZM1165.510000,523.790000L1166.210000,523.083000L1165.800000,522.672000L1165.240000,522.826000L1165.510000,523.790000ZM1157.080000,522.860000L1156.580000,523.727000L1156.590000,523.732000L1157.080000,522.860000ZM1153.270000,519.050000L1152.390000,519.539000L1152.400000,519.546000L1152.400000,519.552000L1153.270000,519.050000ZM1153.270000,508.040000L1152.400000,507.543000L1152.400000,507.546000L1153.270000,508.040000ZM1157.080000,504.230000L1157.570000,505.102000L1157.570000,505.097000L1157.080000,504.230000ZM1167.730000,504.230000L1167.230000,505.097000L1167.240000,505.102000L1167.730000,504.230000ZM1171.510000,508.010000L1172.380000,507.516000L1172.380000,507.516000L1171.510000,508.010000ZM1171.570000,518.930000L1172.440000,519.412000L1172.440000,519.412000L1171.570000,518.930000ZM1167.940000,522.710000L1167.420000,521.852000L1166.320000,522.512000L1167.230000,523.419000L1167.940000,522.710000ZM1173.220000,527.960000L1173.220000,528.960000L1175.640000,528.960000L1173.920000,527.251000L1173.220000,527.960000ZM1155.670000,517.910000L1154.780000,518.374000L1154.790000,518.385000L1155.670000,517.910000ZM1158.430000,520.820000L1157.920000,521.683000L1157.930000,521.686000L1158.430000,520.820000ZM1166.320000,520.820000L1165.820000,519.954000L1165.810000,519.957000L1166.320000,520.820000ZM1169.080000,517.910000L1168.200000,517.435000L1168.190000,517.446000L1169.080000,517.910000ZM1169.080000,509.150000L1168.190000,509.614000L1168.190000,509.622000L1168.200000,509.631000L1169.080000,509.150000ZM1166.350000,506.240000L1165.840000,507.103000L1165.840000,507.103000L1166.350000,506.240000ZM1158.430000,506.240000L1158.930000,507.103000L1158.930000,507.103000L1158.430000,506.240000ZM1155.670000,509.150000L1154.790000,508.675000L1154.780000,508.680000L1155.670000,509.150000ZM1170.380000,527.253000L1166.210000,523.083000L1164.800000,524.497000L1168.970000,528.667000L1170.380000,527.253000ZM1165.240000,522.826000C1164.310000,523.082000,1163.360000,523.210000,1162.390000,523.210000L1162.390000,525.210000C1163.530000,525.210000,1164.660000,525.058000,1165.770000,524.754000L1165.240000,522.826000ZM1162.390000,523.210000C1160.610000,523.210000,1159.010000,522.799000,1157.570000,521.988000L1156.590000,523.732000C1158.340000,524.721000,1160.280000,525.210000,1162.390000,525.210000L1162.390000,523.210000ZM1157.570000,521.993000C1156.130000,521.162000,1154.980000,520.019000,1154.130000,518.548000L1152.400000,519.552000C1153.430000,521.321000,1154.820000,522.718000,1156.580000,523.727000L1157.570000,521.993000ZM1154.140000,518.561000C1153.310000,517.083000,1152.890000,515.414000,1152.890000,513.530000L1150.890000,513.530000C1150.890000,515.726000,1151.380000,517.737000,1152.390000,519.539000L1154.140000,518.561000ZM1152.890000,513.530000C1152.890000,511.646000,1153.310000,509.989000,1154.140000,508.534000L1152.400000,507.546000C1151.380000,509.331000,1150.890000,511.334000,1150.890000,513.530000L1152.890000,513.530000ZM1154.130000,508.537000C1154.990000,507.049000,1156.130000,505.910000,1157.570000,505.102000L1156.590000,503.358000C1154.820000,504.350000,1153.430000,505.751000,1152.400000,507.543000L1154.130000,508.537000ZM1157.570000,505.097000C1159.010000,504.269000,1160.610000,503.850000,1162.390000,503.850000L1162.390000,501.850000C1160.280000,501.850000,1158.340000,502.351000,1156.580000,503.363000L1157.570000,505.097000ZM1162.390000,503.850000C1164.180000,503.850000,1165.790000,504.270000,1167.230000,505.097000L1168.220000,503.363000C1166.460000,502.350000,1164.510000,501.850000,1162.390000,501.850000L1162.390000,503.850000ZM1167.240000,505.102000C1168.670000,505.911000,1169.800000,507.039000,1170.640000,508.504000L1172.380000,507.516000C1171.370000,505.741000,1169.980000,504.349000,1168.220000,503.358000L1167.240000,505.102000ZM1170.640000,508.504000C1171.460000,509.958000,1171.890000,511.624000,1171.890000,513.530000L1173.890000,513.530000C1173.890000,511.316000,1173.390000,509.302000,1172.380000,507.516000L1170.640000,508.504000ZM1171.890000,513.530000C1171.890000,515.378000,1171.480000,517.009000,1170.690000,518.448000L1172.440000,519.412000C1173.410000,517.651000,1173.890000,515.682000,1173.890000,513.530000L1171.890000,513.530000ZM1170.690000,518.448000C1169.890000,519.895000,1168.810000,521.024000,1167.420000,521.852000L1168.450000,523.568000C1170.140000,522.556000,1171.480000,521.165000,1172.440000,519.412000L1170.690000,518.448000ZM1167.230000,523.419000L1172.510000,528.669000L1173.920000,527.251000L1168.640000,522.001000L1167.230000,523.419000ZM1173.220000,526.960000L1169.680000,526.960000L1169.680000,528.960000L1173.220000,528.960000L1173.220000,526.960000ZM1153.680000,513.530000C1153.680000,515.325000,1154.030000,516.949000,1154.780000,518.374000L1156.550000,517.446000C1155.980000,516.351000,1155.680000,515.055000,1155.680000,513.530000L1153.680000,513.530000ZM1154.790000,518.385000C1155.550000,519.795000,1156.590000,520.904000,1157.920000,521.683000L1158.930000,519.957000C1157.940000,519.376000,1157.140000,518.545000,1156.550000,517.435000L1154.790000,518.385000ZM1157.930000,521.686000C1159.270000,522.460000,1160.760000,522.840000,1162.390000,522.840000L1162.390000,520.840000C1161.090000,520.840000,1159.940000,520.540000,1158.930000,519.954000L1157.930000,521.686000ZM1162.390000,522.840000C1164.010000,522.840000,1165.500000,522.460000,1166.820000,521.683000L1165.810000,519.957000C1164.820000,520.540000,1163.680000,520.840000,1162.390000,520.840000L1162.390000,522.840000ZM1166.820000,521.686000C1168.170000,520.907000,1169.220000,519.794000,1169.960000,518.374000L1168.190000,517.446000C1167.610000,518.546000,1166.820000,519.373000,1165.820000,519.954000L1166.820000,521.686000ZM1169.960000,518.385000C1170.730000,516.957000,1171.100000,515.329000,1171.100000,513.530000L1169.100000,513.530000C1169.100000,515.051000,1168.790000,516.343000,1168.200000,517.435000L1169.960000,518.385000ZM1171.100000,513.530000C1171.100000,511.713000,1170.730000,510.082000,1169.950000,508.669000L1168.200000,509.631000C1168.780000,510.698000,1169.100000,511.986000,1169.100000,513.530000L1171.100000,513.530000ZM1169.960000,508.686000C1169.220000,507.270000,1168.180000,506.158000,1166.850000,505.377000L1165.840000,507.103000C1166.830000,507.682000,1167.610000,508.510000,1168.190000,509.614000L1169.960000,508.686000ZM1166.850000,505.377000C1165.520000,504.599000,1164.030000,504.220000,1162.390000,504.220000L1162.390000,506.220000C1163.710000,506.220000,1164.850000,506.521000,1165.840000,507.103000L1166.850000,505.377000ZM1162.390000,504.220000C1160.750000,504.220000,1159.250000,504.599000,1157.920000,505.377000L1158.930000,507.103000C1159.920000,506.521000,1161.070000,506.220000,1162.390000,506.220000L1162.390000,504.220000ZM1157.920000,505.377000C1156.590000,506.156000,1155.550000,507.265000,1154.790000,508.675000L1156.550000,509.625000C1157.140000,508.515000,1157.940000,507.684000,1158.930000,507.103000L1157.920000,505.377000ZM1154.780000,508.680000C1154.030000,510.091000,1153.680000,511.718000,1153.680000,513.530000L1155.680000,513.530000C1155.680000,511.982000,1155.980000,510.689000,1156.550000,509.620000L1154.780000,508.680000Z" fill="rgb(0,0,0)" stroke="none" stroke-width="1"/></g></svg>