<svg width="825" height="24" viewBox="0 0 825 24" fill="none" xmlns="http://www.w3.org/2000/svg">
<path d="M1.76 23.15C1.32 23.15 0.95 23 0.65 22.7C0.37 22.4 0.23 22.03 0.23 21.59C0.23 21.15 0.37 20.79 0.65 20.51C0.95 20.21 1.32 20.06 1.76 20.06C2.18 20.06 2.53 20.21 2.81 20.51C3.11 20.79 3.26 21.15 3.26 21.59C3.26 22.03 3.11 22.4 2.81 22.7C2.53 23 2.18 23.15 1.76 23.15ZM9.00922 23.15C8.56922 23.15 8.19922 23 7.89922 22.7C7.61922 22.4 7.47922 22.03 7.47922 21.59C7.47922 21.15 7.61922 20.79 7.89922 20.51C8.19922 20.21 8.56922 20.06 9.00922 20.06C9.42922 20.06 9.77922 20.21 10.0592 20.51C10.3592 20.79 10.5092 21.15 10.5092 21.59C10.5092 22.03 10.3592 22.4 10.0592 22.7C9.77922 23 9.42922 23.15 9.00922 23.15ZM16.2584 23.15C15.8184 23.15 15.4484 23 15.1484 22.7C14.8684 22.4 14.7284 22.03 14.7284 21.59C14.7284 21.15 14.8684 20.79 15.1484 20.51C15.4484 20.21 15.8184 20.06 16.2584 20.06C16.6784 20.06 17.0284 20.21 17.3084 20.51C17.6084 20.79 17.7584 21.15 17.7584 21.59C17.7584 22.03 17.6084 22.4 17.3084 22.7C17.0284 23 16.6784 23.15 16.2584 23.15ZM24.1977 3.53C23.7777 3.53 23.4177 3.38 23.1177 3.08C22.8177 2.78 22.6677 2.41 22.6677 1.97C22.6677 1.53 22.8177 1.17 23.1177 0.889999C23.4177 0.589999 23.7777 0.439999 24.1977 0.439999C24.6177 0.439999 24.9777 0.589999 25.2777 0.889999C25.5777 1.17 25.7277 1.53 25.7277 1.97C25.7277 2.41 25.5777 2.78 25.2777 3.08C24.9777 3.38 24.6177 3.53 24.1977 3.53ZM25.2477 6.62V23H23.1477V6.62H25.2477ZM51.3031 6.32C53.2231 6.32 54.7831 6.93 55.9831 8.15C57.2031 9.35 57.8131 11.1 57.8131 13.4V23H55.7431V13.64C55.7431 11.86 55.3131 10.5 54.4531 9.56C53.5931 8.62 52.4231 8.15 50.9431 8.15C49.4031 8.15 48.1731 8.66 47.2531 9.68C46.3331 10.7 45.8731 12.18 45.8731 14.12V23H43.8031V13.64C43.8031 11.86 43.3731 10.5 42.5131 9.56C41.6531 8.62 40.4731 8.15 38.9731 8.15C37.4331 8.15 36.2031 8.66 35.2831 9.68C34.3631 10.7 33.9031 12.18 33.9031 14.12V23H31.8031V6.62H33.9031V9.44C34.4231 8.42 35.1631 7.65 36.1231 7.13C37.0831 6.59 38.1531 6.32 39.3331 6.32C40.7531 6.32 41.9931 6.66 43.0531 7.34C44.1331 8.02 44.9131 9.02 45.3931 10.34C45.8331 9.04 46.5831 8.05 47.6431 7.37C48.7231 6.67 49.9431 6.32 51.3031 6.32ZM85.4694 23L80.2794 14.24H76.4094V23H74.3094V2.03H80.6094C82.9494 2.03 84.7194 2.59 85.9194 3.71C87.1394 4.83 87.7494 6.3 87.7494 8.12C87.7494 9.64 87.3094 10.94 86.4294 12.02C85.5694 13.08 84.2894 13.77 82.5894 14.09L87.9894 23H85.4694ZM76.4094 12.53H80.6394C82.2794 12.53 83.5094 12.13 84.3294 11.33C85.1694 10.53 85.5894 9.46 85.5894 8.12C85.5894 6.74 85.1894 5.68 84.3894 4.94C83.5894 4.18 82.3294 3.8 80.6094 3.8H76.4094V12.53ZM92.7568 14.78C92.7568 13.1 93.0868 11.63 93.7468 10.37C94.4268 9.09 95.3568 8.11 96.5368 7.43C97.7368 6.73 99.0868 6.38 100.587 6.38C102.147 6.38 103.487 6.74 104.607 7.46C105.747 8.18 106.567 9.1 107.067 10.22V6.62H109.167V23H107.067V19.37C106.547 20.49 105.717 21.42 104.577 22.16C103.457 22.88 102.117 23.24 100.557 23.24C99.0768 23.24 97.7368 22.89 96.5368 22.19C95.3568 21.49 94.4268 20.5 93.7468 19.22C93.0868 17.94 92.7568 16.46 92.7568 14.78ZM107.067 14.81C107.067 13.49 106.797 12.33 106.257 11.33C105.717 10.33 104.977 9.56 104.037 9.02C103.117 8.48 102.097 8.21 100.977 8.21C99.8168 8.21 98.7768 8.47 97.8568 8.99C96.9368 9.51 96.2068 10.27 95.6668 11.27C95.1468 12.25 94.8868 13.42 94.8868 14.78C94.8868 16.12 95.1468 17.3 95.6668 18.32C96.2068 19.32 96.9368 20.09 97.8568 20.63C98.7768 21.15 99.8168 21.41 100.977 21.41C102.097 21.41 103.117 21.14 104.037 20.6C104.977 20.06 105.717 19.29 106.257 18.29C106.797 17.29 107.067 16.13 107.067 14.81ZM123.561 6.32C124.801 6.32 125.911 6.58 126.891 7.1C127.891 7.62 128.671 8.42 129.231 9.5C129.811 10.56 130.101 11.86 130.101 13.4V23H128.031V13.64C128.031 11.86 127.581 10.5 126.681 9.56C125.801 8.62 124.591 8.15 123.051 8.15C121.471 8.15 120.211 8.65 119.271 9.65C118.331 10.65 117.861 12.12 117.861 14.06V23H115.761V0.8H117.861V9.41C118.381 8.43 119.141 7.67 120.141 7.13C121.161 6.59 122.301 6.32 123.561 6.32ZM156.045 6.32C157.965 6.32 159.525 6.93 160.725 8.15C161.945 9.35 162.555 11.1 162.555 13.4V23H160.485V13.64C160.485 11.86 160.055 10.5 159.195 9.56C158.335 8.62 157.165 8.15 155.685 8.15C154.145 8.15 152.915 8.66 151.995 9.68C151.075 10.7 150.615 12.18 150.615 14.12V23H148.545V13.64C148.545 11.86 148.115 10.5 147.255 9.56C146.395 8.62 145.215 8.15 143.715 8.15C142.175 8.15 140.945 8.66 140.025 9.68C139.105 10.7 138.645 12.18 138.645 14.12V23H136.545V6.62H138.645V9.44C139.165 8.42 139.905 7.65 140.865 7.13C141.825 6.59 142.895 6.32 144.075 6.32C145.495 6.32 146.735 6.66 147.795 7.34C148.875 8.02 149.655 9.02 150.135 10.34C150.575 9.04 151.325 8.05 152.385 7.37C153.465 6.67 154.685 6.32 156.045 6.32ZM183.839 13.97C183.839 14.69 183.819 15.24 183.779 15.62H170.189C170.249 16.86 170.549 17.92 171.089 18.8C171.629 19.68 172.339 20.35 173.219 20.81C174.099 21.25 175.059 21.47 176.099 21.47C177.459 21.47 178.599 21.14 179.519 20.48C180.459 19.82 181.079 18.93 181.379 17.81H183.599C183.199 19.41 182.339 20.72 181.019 21.74C179.719 22.74 178.079 23.24 176.099 23.24C174.559 23.24 173.179 22.9 171.959 22.22C170.739 21.52 169.779 20.54 169.079 19.28C168.399 18 168.059 16.51 168.059 14.81C168.059 13.11 168.399 11.62 169.079 10.34C169.759 9.06 170.709 8.08 171.929 7.4C173.149 6.72 174.539 6.38 176.099 6.38C177.659 6.38 179.019 6.72 180.179 7.4C181.359 8.08 182.259 9 182.879 10.16C183.519 11.3 183.839 12.57 183.839 13.97ZM181.709 13.91C181.729 12.69 181.479 11.65 180.959 10.79C180.459 9.93 179.769 9.28 178.889 8.84C178.009 8.4 177.049 8.18 176.009 8.18C174.449 8.18 173.119 8.68 172.019 9.68C170.919 10.68 170.309 12.09 170.189 13.91H181.709ZM197.161 6.32C199.121 6.32 200.721 6.93 201.961 8.15C203.201 9.35 203.821 11.1 203.821 13.4V23H201.751V13.64C201.751 11.86 201.301 10.5 200.401 9.56C199.521 8.62 198.311 8.15 196.771 8.15C195.191 8.15 193.931 8.65 192.991 9.65C192.051 10.65 191.581 12.12 191.581 14.06V23H189.481V6.62H191.581V9.41C192.101 8.41 192.851 7.65 193.831 7.13C194.811 6.59 195.921 6.32 197.161 6.32ZM219.338 14.78C219.338 13.1 219.678 11.63 220.358 10.37C221.038 9.09 221.968 8.11 223.148 7.43C224.348 6.73 225.698 6.38 227.198 6.38C228.638 6.38 229.938 6.73 231.098 7.43C232.258 8.13 233.108 9.04 233.648 10.16V0.8H235.748V23H233.648V19.34C233.148 20.48 232.328 21.42 231.188 22.16C230.048 22.88 228.708 23.24 227.168 23.24C225.668 23.24 224.318 22.89 223.118 22.19C221.938 21.49 221.008 20.5 220.328 19.22C219.668 17.94 219.338 16.46 219.338 14.78ZM233.648 14.81C233.648 13.49 233.378 12.33 232.838 11.33C232.298 10.33 231.558 9.56 230.618 9.02C229.698 8.48 228.678 8.21 227.558 8.21C226.398 8.21 225.358 8.47 224.438 8.99C223.518 9.51 222.788 10.27 222.248 11.27C221.728 12.25 221.468 13.42 221.468 14.78C221.468 16.12 221.728 17.3 222.248 18.32C222.788 19.32 223.518 20.09 224.438 20.63C225.358 21.15 226.398 21.41 227.558 21.41C228.678 21.41 229.698 21.14 230.618 20.6C231.558 20.06 232.298 19.29 232.838 18.29C233.378 17.29 233.648 16.13 233.648 14.81ZM257.162 13.97C257.162 14.69 257.142 15.24 257.102 15.62H243.512C243.572 16.86 243.872 17.92 244.412 18.8C244.952 19.68 245.662 20.35 246.542 20.81C247.422 21.25 248.382 21.47 249.422 21.47C250.782 21.47 251.922 21.14 252.842 20.48C253.782 19.82 254.402 18.93 254.702 17.81H256.922C256.522 19.41 255.662 20.72 254.342 21.74C253.042 22.74 251.402 23.24 249.422 23.24C247.882 23.24 246.502 22.9 245.282 22.22C244.062 21.52 243.102 20.54 242.402 19.28C241.722 18 241.382 16.51 241.382 14.81C241.382 13.11 241.722 11.62 242.402 10.34C243.082 9.06 244.032 8.08 245.252 7.4C246.472 6.72 247.862 6.38 249.422 6.38C250.982 6.38 252.342 6.72 253.502 7.4C254.682 8.08 255.582 9 256.202 10.16C256.842 11.3 257.162 12.57 257.162 13.97ZM255.032 13.91C255.052 12.69 254.802 11.65 254.282 10.79C253.782 9.93 253.092 9.28 252.212 8.84C251.332 8.4 250.372 8.18 249.332 8.18C247.772 8.18 246.442 8.68 245.342 9.68C244.242 10.68 243.632 12.09 243.512 13.91H255.032ZM268.444 23.24C266.564 23.24 265.024 22.81 263.824 21.95C262.644 21.07 261.984 19.88 261.844 18.38H264.004C264.104 19.3 264.534 20.05 265.294 20.63C266.074 21.19 267.114 21.47 268.414 21.47C269.554 21.47 270.444 21.2 271.084 20.66C271.744 20.12 272.074 19.45 272.074 18.65C272.074 18.09 271.894 17.63 271.534 17.27C271.174 16.91 270.714 16.63 270.154 16.43C269.614 16.21 268.874 15.98 267.934 15.74C266.714 15.42 265.724 15.1 264.964 14.78C264.204 14.46 263.554 13.99 263.014 13.37C262.494 12.73 262.234 11.88 262.234 10.82C262.234 10.02 262.474 9.28 262.954 8.6C263.434 7.92 264.114 7.38 264.994 6.98C265.874 6.58 266.874 6.38 267.994 6.38C269.754 6.38 271.174 6.83 272.254 7.73C273.334 8.61 273.914 9.83 273.994 11.39H271.894C271.834 10.43 271.454 9.66 270.754 9.08C270.074 8.48 269.134 8.18 267.934 8.18C266.874 8.18 266.014 8.43 265.354 8.93C264.694 9.43 264.364 10.05 264.364 10.79C264.364 11.43 264.554 11.96 264.934 12.38C265.334 12.78 265.824 13.1 266.404 13.34C266.984 13.56 267.764 13.81 268.744 14.09C269.924 14.41 270.864 14.72 271.564 15.02C272.264 15.32 272.864 15.76 273.364 16.34C273.864 16.92 274.124 17.69 274.144 18.65C274.144 19.53 273.904 20.32 273.424 21.02C272.944 21.7 272.274 22.24 271.414 22.64C270.554 23.04 269.564 23.24 268.444 23.24ZM310.42 2.3V23H308.32V6.47L300.94 23H299.41L292.03 6.53V23H289.93V2.3H292.15L300.16 20.24L308.17 2.3H310.42ZM324.154 23.24C322.614 23.24 321.224 22.9 319.984 22.22C318.764 21.52 317.794 20.54 317.074 19.28C316.374 18 316.024 16.51 316.024 14.81C316.024 13.11 316.384 11.63 317.104 10.37C317.824 9.09 318.804 8.11 320.044 7.43C321.284 6.73 322.674 6.38 324.214 6.38C325.754 6.38 327.144 6.73 328.384 7.43C329.644 8.11 330.624 9.09 331.324 10.37C332.044 11.63 332.404 13.11 332.404 14.81C332.404 16.49 332.044 17.97 331.324 19.25C330.604 20.53 329.614 21.52 328.354 22.22C327.094 22.9 325.694 23.24 324.154 23.24ZM324.154 21.41C325.234 21.41 326.234 21.17 327.154 20.69C328.074 20.19 328.814 19.45 329.374 18.47C329.954 17.47 330.244 16.25 330.244 14.81C330.244 13.37 329.964 12.16 329.404 11.18C328.844 10.18 328.104 9.44 327.184 8.96C326.264 8.46 325.264 8.21 324.184 8.21C323.104 8.21 322.104 8.46 321.184 8.96C320.264 9.44 319.524 10.18 318.964 11.18C318.424 12.16 318.154 13.37 318.154 14.81C318.154 16.25 318.424 17.47 318.964 18.47C319.524 19.45 320.254 20.19 321.154 20.69C322.074 21.17 323.074 21.41 324.154 21.41ZM337.072 14.78C337.072 13.1 337.412 11.63 338.092 10.37C338.772 9.09 339.702 8.11 340.882 7.43C342.082 6.73 343.432 6.38 344.932 6.38C346.372 6.38 347.672 6.73 348.832 7.43C349.992 8.13 350.842 9.04 351.382 10.16V0.8H353.482V23H351.382V19.34C350.882 20.48 350.062 21.42 348.922 22.16C347.782 22.88 346.442 23.24 344.902 23.24C343.402 23.24 342.052 22.89 340.852 22.19C339.672 21.49 338.742 20.5 338.062 19.22C337.402 17.94 337.072 16.46 337.072 14.78ZM351.382 14.81C351.382 13.49 351.112 12.33 350.572 11.33C350.032 10.33 349.292 9.56 348.352 9.02C347.432 8.48 346.412 8.21 345.292 8.21C344.132 8.21 343.092 8.47 342.172 8.99C341.252 9.51 340.522 10.27 339.982 11.27C339.462 12.25 339.202 13.42 339.202 14.78C339.202 16.12 339.462 17.3 339.982 18.32C340.522 19.32 341.252 20.09 342.172 20.63C343.092 21.15 344.132 21.41 345.292 21.41C346.412 21.41 347.432 21.14 348.352 20.6C349.292 20.06 350.032 19.29 350.572 18.29C351.112 17.29 351.382 16.13 351.382 14.81ZM374.266 6.62V23H372.166V20.12C371.686 21.14 370.946 21.92 369.946 22.46C368.946 23 367.826 23.27 366.586 23.27C364.626 23.27 363.026 22.67 361.786 21.47C360.546 20.25 359.926 18.49 359.926 16.19V6.62H361.996V15.95C361.996 17.73 362.436 19.09 363.316 20.03C364.216 20.97 365.436 21.44 366.976 21.44C368.556 21.44 369.816 20.94 370.756 19.94C371.696 18.94 372.166 17.47 372.166 15.53V6.62H374.266ZM382.96 0.8V23H380.86V0.8H382.96ZM395.156 23.24C393.276 23.24 391.736 22.81 390.536 21.95C389.356 21.07 388.696 19.88 388.556 18.38H390.716C390.816 19.3 391.246 20.05 392.006 20.63C392.786 21.19 393.826 21.47 395.126 21.47C396.266 21.47 397.156 21.2 397.796 20.66C398.456 20.12 398.786 19.45 398.786 18.65C398.786 18.09 398.606 17.63 398.246 17.27C397.886 16.91 397.426 16.63 396.866 16.43C396.326 16.21 395.586 15.98 394.646 15.74C393.426 15.42 392.436 15.1 391.676 14.78C390.916 14.46 390.266 13.99 389.726 13.37C389.206 12.73 388.946 11.88 388.946 10.82C388.946 10.02 389.186 9.28 389.666 8.6C390.146 7.92 390.826 7.38 391.706 6.98C392.586 6.58 393.586 6.38 394.706 6.38C396.466 6.38 397.886 6.83 398.966 7.73C400.046 8.61 400.626 9.83 400.706 11.39H398.606C398.546 10.43 398.166 9.66 397.466 9.08C396.786 8.48 395.846 8.18 394.646 8.18C393.586 8.18 392.726 8.43 392.066 8.93C391.406 9.43 391.076 10.05 391.076 10.79C391.076 11.43 391.266 11.96 391.646 12.38C392.046 12.78 392.536 13.1 393.116 13.34C393.696 13.56 394.476 13.81 395.456 14.09C396.636 14.41 397.576 14.72 398.276 15.02C398.976 15.32 399.576 15.76 400.076 16.34C400.576 16.92 400.836 17.69 400.856 18.65C400.856 19.53 400.616 20.32 400.136 21.02C399.656 21.7 398.986 22.24 398.126 22.64C397.266 23.04 396.276 23.24 395.156 23.24ZM417.391 8.51H414.961L417.571 2.03H419.101L417.391 8.51ZM421.741 8.51H419.311L421.951 2.03H423.481L421.741 8.51ZM440.965 2.03V3.77H435.145V23H433.045V3.77H427.195V2.03H440.965ZM453.881 6.32C455.121 6.32 456.231 6.58 457.211 7.1C458.211 7.62 458.991 8.42 459.551 9.5C460.131 10.56 460.421 11.86 460.421 13.4V23H458.351V13.64C458.351 11.86 457.901 10.5 457.001 9.56C456.121 8.62 454.911 8.15 453.371 8.15C451.791 8.15 450.531 8.65 449.591 9.65C448.651 10.65 448.181 12.12 448.181 14.06V23H446.081V0.8H448.181V9.41C448.701 8.43 449.461 7.67 450.461 7.13C451.481 6.59 452.621 6.32 453.881 6.32ZM481.685 13.97C481.685 14.69 481.665 15.24 481.625 15.62H468.035C468.095 16.86 468.395 17.92 468.935 18.8C469.475 19.68 470.185 20.35 471.065 20.81C471.945 21.25 472.905 21.47 473.945 21.47C475.305 21.47 476.445 21.14 477.365 20.48C478.305 19.82 478.925 18.93 479.225 17.81H481.445C481.045 19.41 480.185 20.72 478.865 21.74C477.565 22.74 475.925 23.24 473.945 23.24C472.405 23.24 471.025 22.9 469.805 22.22C468.585 21.52 467.625 20.54 466.925 19.28C466.245 18 465.905 16.51 465.905 14.81C465.905 13.11 466.245 11.62 466.925 10.34C467.605 9.06 468.555 8.08 469.775 7.4C470.995 6.72 472.385 6.38 473.945 6.38C475.505 6.38 476.865 6.72 478.025 7.4C479.205 8.08 480.105 9 480.725 10.16C481.365 11.3 481.685 12.57 481.685 13.97ZM479.555 13.91C479.575 12.69 479.325 11.65 478.805 10.79C478.305 9.93 477.615 9.28 476.735 8.84C475.855 8.4 474.895 8.18 473.855 8.18C472.295 8.18 470.965 8.68 469.865 9.68C468.765 10.68 468.155 12.09 468.035 13.91H479.555ZM494.497 23.24C492.957 23.24 491.567 22.9 490.327 22.22C489.107 21.52 488.137 20.54 487.417 19.28C486.717 18 486.367 16.51 486.367 14.81C486.367 13.11 486.727 11.63 487.447 10.37C488.167 9.09 489.147 8.11 490.387 7.43C491.627 6.73 493.017 6.38 494.557 6.38C496.097 6.38 497.487 6.73 498.727 7.43C499.987 8.11 500.967 9.09 501.667 10.37C502.387 11.63 502.747 13.11 502.747 14.81C502.747 16.49 502.387 17.97 501.667 19.25C500.947 20.53 499.957 21.52 498.697 22.22C497.437 22.9 496.037 23.24 494.497 23.24ZM494.497 21.41C495.577 21.41 496.577 21.17 497.497 20.69C498.417 20.19 499.157 19.45 499.717 18.47C500.297 17.47 500.587 16.25 500.587 14.81C500.587 13.37 500.307 12.16 499.747 11.18C499.187 10.18 498.447 9.44 497.527 8.96C496.607 8.46 495.607 8.21 494.527 8.21C493.447 8.21 492.447 8.46 491.527 8.96C490.607 9.44 489.867 10.18 489.307 11.18C488.767 12.16 488.497 13.37 488.497 14.81C488.497 16.25 488.767 17.47 489.307 18.47C489.867 19.45 490.597 20.19 491.497 20.69C492.417 21.17 493.417 21.41 494.497 21.41ZM510.475 9.53C510.935 8.51 511.635 7.72 512.575 7.16C513.535 6.6 514.705 6.32 516.085 6.32V8.51H515.515C513.995 8.51 512.775 8.92 511.855 9.74C510.935 10.56 510.475 11.93 510.475 13.85V23H508.375V6.62H510.475V9.53ZM535.865 13.97C535.865 14.69 535.845 15.24 535.805 15.62H522.215C522.275 16.86 522.575 17.92 523.115 18.8C523.655 19.68 524.365 20.35 525.245 20.81C526.125 21.25 527.085 21.47 528.125 21.47C529.485 21.47 530.625 21.14 531.545 20.48C532.485 19.82 533.105 18.93 533.405 17.81H535.625C535.225 19.41 534.365 20.72 533.045 21.74C531.745 22.74 530.105 23.24 528.125 23.24C526.585 23.24 525.205 22.9 523.985 22.22C522.765 21.52 521.805 20.54 521.105 19.28C520.425 18 520.085 16.51 520.085 14.81C520.085 13.11 520.425 11.62 521.105 10.34C521.785 9.06 522.735 8.08 523.955 7.4C525.175 6.72 526.565 6.38 528.125 6.38C529.685 6.38 531.045 6.72 532.205 7.4C533.385 8.08 534.285 9 534.905 10.16C535.545 11.3 535.865 12.57 535.865 13.97ZM533.735 13.91C533.755 12.69 533.505 11.65 532.985 10.79C532.485 9.93 531.795 9.28 530.915 8.84C530.035 8.4 529.075 8.18 528.035 8.18C526.475 8.18 525.145 8.68 524.045 9.68C522.945 10.68 522.335 12.09 522.215 13.91H533.735ZM544.237 8.39V18.56C544.237 19.56 544.427 20.25 544.807 20.63C545.187 21.01 545.857 21.2 546.817 21.2H548.737V23H546.487C545.007 23 543.907 22.66 543.187 21.98C542.467 21.28 542.107 20.14 542.107 18.56V8.39H539.827V6.62H542.107V2.51H544.237V6.62H548.737V8.39H544.237ZM555.05 3.53C554.63 3.53 554.27 3.38 553.97 3.08C553.67 2.78 553.52 2.41 553.52 1.97C553.52 1.53 553.67 1.17 553.97 0.889999C554.27 0.589999 554.63 0.439999 555.05 0.439999C555.47 0.439999 555.83 0.589999 556.13 0.889999C556.43 1.17 556.58 1.53 556.58 1.97C556.58 2.41 556.43 2.78 556.13 3.08C555.83 3.38 555.47 3.53 555.05 3.53ZM556.1 6.62V23H554V6.62H556.1ZM568.295 23.24C566.415 23.24 564.875 22.81 563.675 21.95C562.495 21.07 561.835 19.88 561.695 18.38H563.855C563.955 19.3 564.385 20.05 565.145 20.63C565.925 21.19 566.965 21.47 568.265 21.47C569.405 21.47 570.295 21.2 570.935 20.66C571.595 20.12 571.925 19.45 571.925 18.65C571.925 18.09 571.745 17.63 571.385 17.27C571.025 16.91 570.565 16.63 570.005 16.43C569.465 16.21 568.725 15.98 567.785 15.74C566.565 15.42 565.575 15.1 564.815 14.78C564.055 14.46 563.405 13.99 562.865 13.37C562.345 12.73 562.085 11.88 562.085 10.82C562.085 10.02 562.325 9.28 562.805 8.6C563.285 7.92 563.965 7.38 564.845 6.98C565.725 6.58 566.725 6.38 567.845 6.38C569.605 6.38 571.025 6.83 572.105 7.73C573.185 8.61 573.765 9.83 573.845 11.39H571.745C571.685 10.43 571.305 9.66 570.605 9.08C569.925 8.48 568.985 8.18 567.785 8.18C566.725 8.18 565.865 8.43 565.205 8.93C564.545 9.43 564.215 10.05 564.215 10.79C564.215 11.43 564.405 11.96 564.785 12.38C565.185 12.78 565.675 13.1 566.255 13.34C566.835 13.56 567.615 13.81 568.595 14.09C569.775 14.41 570.715 14.72 571.415 15.02C572.115 15.32 572.715 15.76 573.215 16.34C573.715 16.92 573.975 17.69 573.995 18.65C573.995 19.53 573.755 20.32 573.275 21.02C572.795 21.7 572.125 22.24 571.265 22.64C570.405 23.04 569.415 23.24 568.295 23.24ZM578.788 14.81C578.788 13.11 579.128 11.63 579.808 10.37C580.488 9.09 581.428 8.11 582.628 7.43C583.828 6.73 585.198 6.38 586.738 6.38C588.758 6.38 590.418 6.88 591.718 7.88C593.038 8.88 593.888 10.24 594.268 11.96H592.018C591.738 10.78 591.128 9.86 590.188 9.2C589.268 8.52 588.118 8.18 586.738 8.18C585.638 8.18 584.648 8.43 583.768 8.93C582.888 9.43 582.188 10.18 581.668 11.18C581.168 12.16 580.918 13.37 580.918 14.81C580.918 16.25 581.168 17.47 581.668 18.47C582.188 19.47 582.888 20.22 583.768 20.72C584.648 21.22 585.638 21.47 586.738 21.47C588.118 21.47 589.268 21.14 590.188 20.48C591.128 19.8 591.738 18.86 592.018 17.66H594.268C593.888 19.34 593.038 20.69 591.718 21.71C590.398 22.73 588.738 23.24 586.738 23.24C585.198 23.24 583.828 22.9 582.628 22.22C581.428 21.52 580.488 20.54 579.808 19.28C579.128 18 578.788 16.51 578.788 14.81ZM607.747 6.32C608.987 6.32 610.097 6.58 611.077 7.1C612.077 7.62 612.857 8.42 613.417 9.5C613.997 10.56 614.287 11.86 614.287 13.4V23H612.217V13.64C612.217 11.86 611.767 10.5 610.867 9.56C609.987 8.62 608.777 8.15 607.237 8.15C605.657 8.15 604.397 8.65 603.457 9.65C602.517 10.65 602.047 12.12 602.047 14.06V23H599.947V0.8H602.047V9.41C602.567 8.43 603.327 7.67 604.327 7.13C605.347 6.59 606.487 6.32 607.747 6.32ZM635.551 13.97C635.551 14.69 635.531 15.24 635.491 15.62H621.901C621.961 16.86 622.261 17.92 622.801 18.8C623.341 19.68 624.051 20.35 624.931 20.81C625.811 21.25 626.771 21.47 627.811 21.47C629.171 21.47 630.311 21.14 631.231 20.48C632.171 19.82 632.791 18.93 633.091 17.81H635.311C634.911 19.41 634.051 20.72 632.731 21.74C631.431 22.74 629.791 23.24 627.811 23.24C626.271 23.24 624.891 22.9 623.671 22.22C622.451 21.52 621.491 20.54 620.791 19.28C620.111 18 619.771 16.51 619.771 14.81C619.771 13.11 620.111 11.62 620.791 10.34C621.471 9.06 622.421 8.08 623.641 7.4C624.861 6.72 626.251 6.38 627.811 6.38C629.371 6.38 630.731 6.72 631.891 7.4C633.071 8.08 633.971 9 634.591 10.16C635.231 11.3 635.551 12.57 635.551 13.97ZM633.421 13.91C633.441 12.69 633.191 11.65 632.671 10.79C632.171 9.93 631.481 9.28 630.601 8.84C629.721 8.4 628.761 8.18 627.721 8.18C626.161 8.18 624.831 8.68 623.731 9.68C622.631 10.68 622.021 12.09 621.901 13.91H633.421ZM653.326 2.03V23H651.226V2.03H653.326ZM667.561 6.32C669.521 6.32 671.121 6.93 672.361 8.15C673.601 9.35 674.221 11.1 674.221 13.4V23H672.151V13.64C672.151 11.86 671.701 10.5 670.801 9.56C669.921 8.62 668.711 8.15 667.171 8.15C665.591 8.15 664.331 8.65 663.391 9.65C662.451 10.65 661.981 12.12 661.981 14.06V23H659.881V6.62H661.981V9.41C662.501 8.41 663.251 7.65 664.231 7.13C665.211 6.59 666.321 6.32 667.561 6.32ZM687.116 8.39H683.306V23H681.206V8.39H678.926V6.62H681.206V5.48C681.206 3.7 681.656 2.39 682.556 1.55C683.476 0.709999 684.956 0.289999 686.996 0.289999V2.09C685.636 2.09 684.676 2.35 684.116 2.87C683.576 3.39 683.306 4.26 683.306 5.48V6.62H687.116V8.39ZM699.391 23.24C697.851 23.24 696.461 22.9 695.221 22.22C694.001 21.52 693.031 20.54 692.311 19.28C691.611 18 691.261 16.51 691.261 14.81C691.261 13.11 691.621 11.63 692.341 10.37C693.061 9.09 694.041 8.11 695.281 7.43C696.521 6.73 697.911 6.38 699.451 6.38C700.991 6.38 702.381 6.73 703.621 7.43C704.881 8.11 705.861 9.09 706.561 10.37C707.281 11.63 707.641 13.11 707.641 14.81C707.641 16.49 707.281 17.97 706.561 19.25C705.841 20.53 704.851 21.52 703.591 22.22C702.331 22.9 700.931 23.24 699.391 23.24ZM699.391 21.41C700.471 21.41 701.471 21.17 702.391 20.69C703.311 20.19 704.051 19.45 704.611 18.47C705.191 17.47 705.481 16.25 705.481 14.81C705.481 13.37 705.201 12.16 704.641 11.18C704.081 10.18 703.341 9.44 702.421 8.96C701.501 8.46 700.501 8.21 699.421 8.21C698.341 8.21 697.341 8.46 696.421 8.96C695.501 9.44 694.761 10.18 694.201 11.18C693.661 12.16 693.391 13.37 693.391 14.81C693.391 16.25 693.661 17.47 694.201 18.47C694.761 19.45 695.491 20.19 696.391 20.69C697.311 21.17 698.311 21.41 699.391 21.41ZM715.37 9.53C715.83 8.51 716.53 7.72 717.47 7.16C718.43 6.6 719.6 6.32 720.98 6.32V8.51H720.41C718.89 8.51 717.67 8.92 716.75 9.74C715.83 10.56 715.37 11.93 715.37 13.85V23H713.27V6.62H715.37V9.53ZM745.439 6.32C747.359 6.32 748.919 6.93 750.119 8.15C751.339 9.35 751.949 11.1 751.949 13.4V23H749.879V13.64C749.879 11.86 749.449 10.5 748.589 9.56C747.729 8.62 746.559 8.15 745.079 8.15C743.539 8.15 742.309 8.66 741.389 9.68C740.469 10.7 740.009 12.18 740.009 14.12V23H737.939V13.64C737.939 11.86 737.509 10.5 736.649 9.56C735.789 8.62 734.609 8.15 733.109 8.15C731.569 8.15 730.339 8.66 729.419 9.68C728.499 10.7 728.039 12.18 728.039 14.12V23H725.939V6.62H728.039V9.44C728.559 8.42 729.299 7.65 730.259 7.13C731.219 6.59 732.289 6.32 733.469 6.32C734.889 6.32 736.129 6.66 737.189 7.34C738.269 8.02 739.049 9.02 739.529 10.34C739.969 9.04 740.719 8.05 741.779 7.37C742.859 6.67 744.079 6.32 745.439 6.32ZM757.453 14.78C757.453 13.1 757.783 11.63 758.443 10.37C759.123 9.09 760.053 8.11 761.233 7.43C762.433 6.73 763.783 6.38 765.283 6.38C766.843 6.38 768.183 6.74 769.303 7.46C770.443 8.18 771.263 9.1 771.763 10.22V6.62H773.863V23H771.763V19.37C771.243 20.49 770.413 21.42 769.273 22.16C768.153 22.88 766.813 23.24 765.253 23.24C763.773 23.24 762.433 22.89 761.233 22.19C760.053 21.49 759.123 20.5 758.443 19.22C757.783 17.94 757.453 16.46 757.453 14.78ZM771.763 14.81C771.763 13.49 771.493 12.33 770.953 11.33C770.413 10.33 769.673 9.56 768.733 9.02C767.813 8.48 766.793 8.21 765.673 8.21C764.513 8.21 763.473 8.47 762.553 8.99C761.633 9.51 760.903 10.27 760.363 11.27C759.843 12.25 759.583 13.42 759.583 14.78C759.583 16.12 759.843 17.3 760.363 18.32C760.903 19.32 761.633 20.09 762.553 20.63C763.473 21.15 764.513 21.41 765.673 21.41C766.793 21.41 767.813 21.14 768.733 20.6C769.673 20.06 770.413 19.29 770.953 18.29C771.493 17.29 771.763 16.13 771.763 14.81ZM783.187 8.39V18.56C783.187 19.56 783.377 20.25 783.757 20.63C784.137 21.01 784.807 21.2 785.767 21.2H787.687V23H785.437C783.957 23 782.857 22.66 782.137 21.98C781.417 21.28 781.057 20.14 781.057 18.56V8.39H778.777V6.62H781.057V2.51H783.187V6.62H787.687V8.39H783.187ZM794 3.53C793.58 3.53 793.22 3.38 792.92 3.08C792.62 2.78 792.47 2.41 792.47 1.97C792.47 1.53 792.62 1.17 792.92 0.889999C793.22 0.589999 793.58 0.439999 794 0.439999C794.42 0.439999 794.78 0.589999 795.08 0.889999C795.38 1.17 795.53 1.53 795.53 1.97C795.53 2.41 795.38 2.78 795.08 3.08C794.78 3.38 794.42 3.53 794 3.53ZM795.05 6.62V23H792.95V6.62H795.05ZM810.455 23L803.705 15.65V23H801.605V0.8H803.705V13.94L810.305 6.62H813.245L805.475 14.78L813.305 23H810.455ZM818.09 2.03H820.52L817.88 8.51H816.35L818.09 2.03ZM822.44 2.03H824.87L822.23 8.51H820.7L822.44 2.03Z" fill="#443B3B"/>
</svg>
