<svg width="400" height="33" viewBox="0 0 400 33" fill="none" xmlns="http://www.w3.org/2000/svg">
<g filter="url(#filter0_d)">
<path d="M12.64 20.94L17.32 7.47H20.95L14.65 24H10.57L4.3 7.47H7.96L12.64 20.94ZM35.2052 24.27C33.6452 24.27 32.2352 23.92 30.9752 23.22C29.7152 22.5 28.7252 21.5 28.0052 20.22C27.2852 18.92 26.9252 17.42 26.9252 15.72C26.9252 14.04 27.2952 12.55 28.0352 11.25C28.7752 9.95 29.7852 8.95 31.0652 8.25C32.3452 7.55 33.7752 7.2 35.3552 7.2C36.9352 7.2 38.3652 7.55 39.6452 8.25C40.9252 8.95 41.9352 9.95 42.6752 11.25C43.4152 12.55 43.7852 14.04 43.7852 15.72C43.7852 17.4 43.4052 18.89 42.6452 20.19C41.8852 21.49 40.8452 22.5 39.5252 23.22C38.2252 23.92 36.7852 24.27 35.2052 24.27ZM35.2052 21.3C36.0852 21.3 36.9052 21.09 37.6652 20.67C38.4452 20.25 39.0752 19.62 39.5552 18.78C40.0352 17.94 40.2752 16.92 40.2752 15.72C40.2752 14.52 40.0452 13.51 39.5852 12.69C39.1252 11.85 38.5152 11.22 37.7552 10.8C36.9952 10.38 36.1752 10.17 35.2952 10.17C34.4152 10.17 33.5952 10.38 32.8352 10.8C32.0952 11.22 31.5052 11.85 31.0652 12.69C30.6252 13.51 30.4052 14.52 30.4052 15.72C30.4052 17.5 30.8552 18.88 31.7552 19.86C32.6752 20.82 33.8252 21.3 35.2052 21.3ZM60.006 7.2C61.306 7.2 62.466 7.47 63.486 8.01C64.526 8.55 65.336 9.35 65.916 10.41C66.496 11.47 66.786 12.75 66.786 14.25V24H63.396V14.76C63.396 13.28 63.026 12.15 62.286 11.37C61.546 10.57 60.536 10.17 59.256 10.17C57.976 10.17 56.956 10.57 56.196 11.37C55.456 12.15 55.086 13.28 55.086 14.76V24H51.666V7.47H55.086V9.36C55.646 8.68 56.356 8.15 57.216 7.77C58.096 7.39 59.026 7.2 60.006 7.2ZM91.3614 5.91V12.03H98.5614V14.82H91.3614V21.21H99.4614V24H87.9414V3.12H99.4614V5.91H91.3614ZM114.714 15.75L122.334 24H117.714L111.594 16.89V24H108.174V1.8H111.594V14.7L117.594 7.47H122.334L114.714 15.75ZM128.145 15.66C128.145 14 128.485 12.53 129.165 11.25C129.865 9.97 130.805 8.98 131.985 8.28C133.185 7.56 134.505 7.2 135.945 7.2C137.245 7.2 138.375 7.46 139.335 7.98C140.315 8.48 141.095 9.11 141.675 9.87V7.47H145.125V24H141.675V21.54C141.095 22.32 140.305 22.97 139.305 23.49C138.305 24.01 137.165 24.27 135.885 24.27C134.465 24.27 133.165 23.91 131.985 23.19C130.805 22.45 129.865 21.43 129.165 20.13C128.485 18.81 128.145 17.32 128.145 15.66ZM141.675 15.72C141.675 14.58 141.435 13.59 140.955 12.75C140.495 11.91 139.885 11.27 139.125 10.83C138.365 10.39 137.545 10.17 136.665 10.17C135.785 10.17 134.965 10.39 134.205 10.83C133.445 11.25 132.825 11.88 132.345 12.72C131.885 13.54 131.655 14.52 131.655 15.66C131.655 16.8 131.885 17.8 132.345 18.66C132.825 19.52 133.445 20.18 134.205 20.64C134.985 21.08 135.805 21.3 136.665 21.3C137.545 21.3 138.365 21.08 139.125 20.64C139.885 20.2 140.495 19.56 140.955 18.72C141.435 17.86 141.675 16.86 141.675 15.72ZM158.107 10.26V19.41C158.107 20.03 158.247 20.48 158.527 20.76C158.827 21.02 159.327 21.15 160.027 21.15H162.127V24H159.427C157.887 24 156.707 23.64 155.887 22.92C155.067 22.2 154.657 21.03 154.657 19.41V10.26H152.707V7.47H154.657V3.36H158.107V7.47H162.127V10.26H158.107ZM184.929 15.33C184.929 15.95 184.889 16.51 184.809 17.01H172.179C172.279 18.33 172.769 19.39 173.649 20.19C174.529 20.99 175.609 21.39 176.889 21.39C178.729 21.39 180.029 20.62 180.789 19.08H184.479C183.979 20.6 183.069 21.85 181.749 22.83C180.449 23.79 178.829 24.27 176.889 24.27C175.309 24.27 173.889 23.92 172.629 23.22C171.389 22.5 170.409 21.5 169.689 20.22C168.989 18.92 168.639 17.42 168.639 15.72C168.639 14.02 168.979 12.53 169.659 11.25C170.359 9.95 171.329 8.95 172.569 8.25C173.829 7.55 175.269 7.2 176.889 7.2C178.449 7.2 179.839 7.54 181.059 8.22C182.279 8.9 183.229 9.86 183.909 11.1C184.589 12.32 184.929 13.73 184.929 15.33ZM181.359 14.25C181.339 12.99 180.889 11.98 180.009 11.22C179.129 10.46 178.039 10.08 176.739 10.08C175.559 10.08 174.549 10.46 173.709 11.22C172.869 11.96 172.369 12.97 172.209 14.25H181.359ZM196.215 9.87C196.715 9.03 197.375 8.38 198.195 7.92C199.035 7.44 200.025 7.2 201.165 7.2V10.74H200.295C198.955 10.74 197.935 11.08 197.235 11.76C196.555 12.44 196.215 13.62 196.215 15.3V24H192.795V7.47H196.215V9.87ZM210.549 5.28C209.929 5.28 209.409 5.07 208.989 4.65C208.569 4.23 208.359 3.71 208.359 3.09C208.359 2.47 208.569 1.95 208.989 1.53C209.409 1.11 209.929 0.899999 210.549 0.899999C211.149 0.899999 211.659 1.11 212.079 1.53C212.499 1.95 212.709 2.47 212.709 3.09C212.709 3.71 212.499 4.23 212.079 4.65C211.659 5.07 211.149 5.28 210.549 5.28ZM212.229 7.47V24H208.809V7.47H212.229ZM229.559 7.2C230.859 7.2 232.019 7.47 233.039 8.01C234.079 8.55 234.889 9.35 235.469 10.41C236.049 11.47 236.339 12.75 236.339 14.25V24H232.949V14.76C232.949 13.28 232.579 12.15 231.839 11.37C231.099 10.57 230.089 10.17 228.809 10.17C227.529 10.17 226.509 10.57 225.749 11.37C225.009 12.15 224.639 13.28 224.639 14.76V24H221.219V7.47H224.639V9.36C225.199 8.68 225.909 8.15 226.769 7.77C227.649 7.39 228.579 7.2 229.559 7.2ZM244.061 15.66C244.061 14 244.401 12.53 245.081 11.25C245.781 9.97 246.721 8.98 247.901 8.28C249.101 7.56 250.421 7.2 251.861 7.2C253.161 7.2 254.291 7.46 255.251 7.98C256.231 8.48 257.011 9.11 257.591 9.87V7.47H261.041V24H257.591V21.54C257.011 22.32 256.221 22.97 255.221 23.49C254.221 24.01 253.081 24.27 251.801 24.27C250.381 24.27 249.081 23.91 247.901 23.19C246.721 22.45 245.781 21.43 245.081 20.13C244.401 18.81 244.061 17.32 244.061 15.66ZM257.591 15.72C257.591 14.58 257.351 13.59 256.871 12.75C256.411 11.91 255.801 11.27 255.041 10.83C254.281 10.39 253.461 10.17 252.581 10.17C251.701 10.17 250.881 10.39 250.121 10.83C249.361 11.25 248.741 11.88 248.261 12.72C247.801 13.54 247.571 14.52 247.571 15.66C247.571 16.8 247.801 17.8 248.261 18.66C248.741 19.52 249.361 20.18 250.121 20.64C250.901 21.08 251.721 21.3 252.581 21.3C253.461 21.3 254.281 21.08 255.041 20.64C255.801 20.2 256.411 19.56 256.871 18.72C257.351 17.86 257.591 16.86 257.591 15.72ZM293.816 24L285.746 14.67V24H282.326V3.15H285.746V12.66L293.846 3.15H298.136L289.076 13.59L298.286 24H293.816ZM304.671 15.66C304.671 14 305.011 12.53 305.691 11.25C306.391 9.97 307.331 8.98 308.511 8.28C309.711 7.56 311.031 7.2 312.471 7.2C313.771 7.2 314.901 7.46 315.861 7.98C316.841 8.48 317.621 9.11 318.201 9.87V7.47H321.651V24H318.201V21.54C317.621 22.32 316.831 22.97 315.831 23.49C314.831 24.01 313.691 24.27 312.411 24.27C310.991 24.27 309.691 23.91 308.511 23.19C307.331 22.45 306.391 21.43 305.691 20.13C305.011 18.81 304.671 17.32 304.671 15.66ZM318.201 15.72C318.201 14.58 317.961 13.59 317.481 12.75C317.021 11.91 316.411 11.27 315.651 10.83C314.891 10.39 314.071 10.17 313.191 10.17C312.311 10.17 311.491 10.39 310.731 10.83C309.971 11.25 309.351 11.88 308.871 12.72C308.411 13.54 308.181 14.52 308.181 15.66C308.181 16.8 308.411 17.8 308.871 18.66C309.351 19.52 309.971 20.18 310.731 20.64C311.511 21.08 312.331 21.3 313.191 21.3C314.071 21.3 314.891 21.08 315.651 20.64C316.411 20.2 317.021 19.56 317.481 18.72C317.961 17.86 318.201 16.86 318.201 15.72ZM334.063 1.8V24H330.643V1.8H334.063ZM344.793 5.28C344.173 5.28 343.653 5.07 343.233 4.65C342.813 4.23 342.603 3.71 342.603 3.09C342.603 2.47 342.813 1.95 343.233 1.53C343.653 1.11 344.173 0.899999 344.793 0.899999C345.393 0.899999 345.903 1.11 346.323 1.53C346.743 1.95 346.953 2.47 346.953 3.09C346.953 3.71 346.743 4.23 346.323 4.65C345.903 5.07 345.393 5.28 344.793 5.28ZM346.473 7.47V24H343.053V7.47H346.473ZM363.803 7.2C365.103 7.2 366.263 7.47 367.283 8.01C368.323 8.55 369.133 9.35 369.713 10.41C370.293 11.47 370.583 12.75 370.583 14.25V24H367.193V14.76C367.193 13.28 366.823 12.15 366.083 11.37C365.343 10.57 364.333 10.17 363.053 10.17C361.773 10.17 360.753 10.57 359.993 11.37C359.253 12.15 358.883 13.28 358.883 14.76V24H355.463V7.47H358.883V9.36C359.443 8.68 360.153 8.15 361.013 7.77C361.893 7.39 362.823 7.2 363.803 7.2ZM378.305 15.66C378.305 14 378.645 12.53 379.325 11.25C380.025 9.97 380.965 8.98 382.145 8.28C383.345 7.56 384.665 7.2 386.105 7.2C387.405 7.2 388.535 7.46 389.495 7.98C390.475 8.48 391.255 9.11 391.835 9.87V7.47H395.285V24H391.835V21.54C391.255 22.32 390.465 22.97 389.465 23.49C388.465 24.01 387.325 24.27 386.045 24.27C384.625 24.27 383.325 23.91 382.145 23.19C380.965 22.45 380.025 21.43 379.325 20.13C378.645 18.81 378.305 17.32 378.305 15.66ZM391.835 15.72C391.835 14.58 391.595 13.59 391.115 12.75C390.655 11.91 390.045 11.27 389.285 10.83C388.525 10.39 387.705 10.17 386.825 10.17C385.945 10.17 385.125 10.39 384.365 10.83C383.605 11.25 382.985 11.88 382.505 12.72C382.045 13.54 381.815 14.52 381.815 15.66C381.815 16.8 382.045 17.8 382.505 18.66C382.985 19.52 383.605 20.18 384.365 20.64C385.145 21.08 385.965 21.3 386.825 21.3C387.705 21.3 388.525 21.08 389.285 20.64C390.045 20.2 390.655 19.56 391.115 18.72C391.595 17.86 391.835 16.86 391.835 15.72Z" fill="#443B3B"/>
</g>
<defs>
<filter id="filter0_d" x="0.300049" y="0.900024" width="398.985" height="31.37" filterUnits="userSpaceOnUse" color-interpolation-filters="sRGB">
<feFlood flood-opacity="0" result="BackgroundImageFix"/>
<feColorMatrix in="SourceAlpha" type="matrix" values="0 0 0 0 0 0 0 0 0 0 0 0 0 0 0 0 0 0 127 0"/>
<feOffset dy="4"/>
<feGaussianBlur stdDeviation="2"/>
<feColorMatrix type="matrix" values="0 0 0 0 0 0 0 0 0 0 0 0 0 0 0 0 0 0 0.25 0"/>
<feBlend mode="normal" in2="BackgroundImageFix" result="effect1_dropShadow"/>
<feBlend mode="normal" in="SourceGraphic" in2="effect1_dropShadow" result="shape"/>
</filter>
</defs>
</svg>
