<svg width="46" height="18" viewBox="0 0 46 18" fill="none" xmlns="http://www.w3.org/2000/svg">
<path d="M6.35 0.574999C8.25 0.574999 9.89167 0.933333 11.275 1.65C12.675 2.35 13.7417 3.35833 14.475 4.675C15.225 5.99167 15.6 7.54167 15.6 9.325C15.6 11.1083 15.225 12.6583 14.475 13.975C13.7417 15.275 12.675 16.275 11.275 16.975C9.89167 17.6583 8.25 18 6.35 18H0.925V0.574999H6.35ZM6.35 16.125C8.6 16.125 10.3167 15.5333 11.5 14.35C12.6833 13.15 13.275 11.475 13.275 9.325C13.275 7.15833 12.675 5.46667 11.475 4.25C10.2917 3.03333 8.58333 2.425 6.35 2.425H3.2V16.125H6.35ZM20.8758 2.425V8.25H27.2258V10.125H20.8758V16.125H27.9758V18H18.6008V0.55H27.9758V2.425H20.8758ZM41.7182 14.125H34.1182L32.7182 18H30.3182L36.6182 0.675H39.2432L45.5182 18H43.1182L41.7182 14.125ZM41.0682 12.275L37.9182 3.475L34.7682 12.275H41.0682Z" fill="#F3EAEA"/>
</svg>
