<svg width="142" height="21" viewBox="0 0 142 21" fill="none" xmlns="http://www.w3.org/2000/svg">
<path d="M14.125 7.625C13.6417 6.60833 12.9417 5.825 12.025 5.275C11.1083 4.70833 10.0417 4.425 8.825 4.425C7.60833 4.425 6.50833 4.70833 5.525 5.275C4.55833 5.825 3.79167 6.625 3.225 7.675C2.675 8.70833 2.4 9.90833 2.4 11.275C2.4 12.6417 2.675 13.8417 3.225 14.875C3.79167 15.9083 4.55833 16.7083 5.525 17.275C6.50833 17.825 7.60833 18.1 8.825 18.1C10.525 18.1 11.925 17.5917 13.025 16.575C14.125 15.5583 14.7667 14.1833 14.95 12.45H8V10.6H17.375V12.35C17.2417 13.7833 16.7917 15.1 16.025 16.3C15.2583 17.4833 14.25 18.425 13 19.125C11.75 19.8083 10.3583 20.15 8.825 20.15C7.20833 20.15 5.73333 19.775 4.4 19.025C3.06667 18.2583 2.00833 17.2 1.225 15.85C0.458333 14.5 0.075 12.975 0.075 11.275C0.075 9.575 0.458333 8.05 1.225 6.7C2.00833 5.33333 3.06667 4.275 4.4 3.525C5.73333 2.75833 7.20833 2.375 8.825 2.375C10.675 2.375 12.3083 2.83333 13.725 3.75C15.1583 4.66667 16.2 5.95833 16.85 7.625H14.125ZM22.658 8.525C23.058 7.74167 23.6247 7.13333 24.358 6.7C25.108 6.26667 26.0163 6.05 27.083 6.05V8.4H26.483C23.933 8.4 22.658 9.78333 22.658 12.55V20H20.383V6.3H22.658V8.525ZM28.8592 13.1C28.8592 11.7 29.1425 10.475 29.7092 9.425C30.2758 8.35833 31.0508 7.53333 32.0342 6.95C33.0342 6.36667 34.1425 6.075 35.3592 6.075C36.5592 6.075 37.6008 6.33333 38.4842 6.85C39.3675 7.36667 40.0258 8.01667 40.4592 8.8V6.3H42.7592V20H40.4592V17.45C40.0092 18.25 39.3342 18.9167 38.4342 19.45C37.5508 19.9667 36.5175 20.225 35.3342 20.225C34.1175 20.225 33.0175 19.925 32.0342 19.325C31.0508 18.725 30.2758 17.8833 29.7092 16.8C29.1425 15.7167 28.8592 14.4833 28.8592 13.1ZM40.4592 13.125C40.4592 12.0917 40.2508 11.1917 39.8342 10.425C39.4175 9.65833 38.8508 9.075 38.1342 8.675C37.4342 8.25833 36.6592 8.05 35.8092 8.05C34.9592 8.05 34.1842 8.25 33.4842 8.65C32.7842 9.05 32.2258 9.63333 31.8092 10.4C31.3925 11.1667 31.1842 12.0667 31.1842 13.1C31.1842 14.15 31.3925 15.0667 31.8092 15.85C32.2258 16.6167 32.7842 17.2083 33.4842 17.625C34.1842 18.025 34.9592 18.225 35.8092 18.225C36.6592 18.225 37.4342 18.025 38.1342 17.625C38.8508 17.2083 39.4175 16.6167 39.8342 15.85C40.2508 15.0667 40.4592 14.1583 40.4592 13.125ZM63.0787 6.05C64.1454 6.05 65.0954 6.275 65.9287 6.725C66.762 7.15833 67.4204 7.81667 67.9037 8.7C68.387 9.58333 68.6287 10.6583 68.6287 11.925V20H66.3787V12.25C66.3787 10.8833 66.037 9.84167 65.3537 9.125C64.687 8.39167 63.7787 8.025 62.6287 8.025C61.4454 8.025 60.5037 8.40833 59.8037 9.175C59.1037 9.925 58.7537 11.0167 58.7537 12.45V20H56.5037V12.25C56.5037 10.8833 56.162 9.84167 55.4787 9.125C54.812 8.39167 53.9037 8.025 52.7537 8.025C51.5704 8.025 50.6287 8.40833 49.9287 9.175C49.2287 9.925 48.8787 11.0167 48.8787 12.45V20H46.6037V6.3H48.8787V8.275C49.3287 7.55833 49.9287 7.00833 50.6787 6.625C51.4454 6.24167 52.287 6.05 53.2037 6.05C54.3537 6.05 55.3704 6.30833 56.2537 6.825C57.137 7.34167 57.7954 8.1 58.2287 9.1C58.612 8.13333 59.2454 7.38333 60.1287 6.85C61.012 6.31667 61.9954 6.05 63.0787 6.05ZM88.8355 6.05C89.9022 6.05 90.8522 6.275 91.6855 6.725C92.5189 7.15833 93.1772 7.81667 93.6605 8.7C94.1439 9.58333 94.3855 10.6583 94.3855 11.925V20H92.1355V12.25C92.1355 10.8833 91.7939 9.84167 91.1105 9.125C90.4439 8.39167 89.5355 8.025 88.3855 8.025C87.2022 8.025 86.2605 8.40833 85.5605 9.175C84.8605 9.925 84.5105 11.0167 84.5105 12.45V20H82.2605V12.25C82.2605 10.8833 81.9189 9.84167 81.2355 9.125C80.5689 8.39167 79.6605 8.025 78.5105 8.025C77.3272 8.025 76.3855 8.40833 75.6855 9.175C74.9855 9.925 74.6355 11.0167 74.6355 12.45V20H72.3605V6.3H74.6355V8.275C75.0855 7.55833 75.6855 7.00833 76.4355 6.625C77.2022 6.24167 78.0439 6.05 78.9605 6.05C80.1105 6.05 81.1272 6.30833 82.0105 6.825C82.8939 7.34167 83.5522 8.1 83.9855 9.1C84.3689 8.13333 85.0022 7.38333 85.8855 6.85C86.7689 6.31667 87.7522 6.05 88.8355 6.05ZM97.2674 13.1C97.2674 11.7 97.5507 10.475 98.1174 9.425C98.684 8.35833 99.459 7.53333 100.442 6.95C101.442 6.36667 102.551 6.075 103.767 6.075C104.967 6.075 106.009 6.33333 106.892 6.85C107.776 7.36667 108.434 8.01667 108.867 8.8V6.3H111.167V20H108.867V17.45C108.417 18.25 107.742 18.9167 106.842 19.45C105.959 19.9667 104.926 20.225 103.742 20.225C102.526 20.225 101.426 19.925 100.442 19.325C99.459 18.725 98.684 17.8833 98.1174 16.8C97.5507 15.7167 97.2674 14.4833 97.2674 13.1ZM108.867 13.125C108.867 12.0917 108.659 11.1917 108.242 10.425C107.826 9.65833 107.259 9.075 106.542 8.675C105.842 8.25833 105.067 8.05 104.217 8.05C103.367 8.05 102.592 8.25 101.892 8.65C101.192 9.05 100.634 9.63333 100.217 10.4C99.8007 11.1667 99.5924 12.0667 99.5924 13.1C99.5924 14.15 99.8007 15.0667 100.217 15.85C100.634 16.6167 101.192 17.2083 101.892 17.625C102.592 18.025 103.367 18.225 104.217 18.225C105.067 18.225 105.842 18.025 106.542 17.625C107.259 17.2083 107.826 16.6167 108.242 15.85C108.659 15.0667 108.867 14.1583 108.867 13.125ZM117.787 8.175V16.25C117.787 16.9167 117.929 17.3917 118.212 17.675C118.495 17.9417 118.987 18.075 119.687 18.075H121.362V20H119.312C118.045 20 117.095 19.7083 116.462 19.125C115.829 18.5417 115.512 17.5833 115.512 16.25V8.175H113.737V6.3H115.512V2.85H117.787V6.3H121.362V8.175H117.787ZM125.293 4.075C124.86 4.075 124.493 3.925 124.193 3.625C123.893 3.325 123.743 2.95833 123.743 2.525C123.743 2.09167 123.893 1.725 124.193 1.425C124.493 1.125 124.86 0.974999 125.293 0.974999C125.71 0.974999 126.06 1.125 126.343 1.425C126.643 1.725 126.793 2.09167 126.793 2.525C126.793 2.95833 126.643 3.325 126.343 3.625C126.06 3.925 125.71 4.075 125.293 4.075ZM126.393 6.3V20H124.118V6.3H126.393ZM137.921 20L132.546 13.95V20H130.271V1.5H132.546V12.375L137.821 6.3H140.996L134.546 13.125L141.021 20H137.921Z" fill="#F3EAEA"/>
</svg>
