<svg width="403" height="40" viewBox="0 0 403 40" fill="none" xmlns="http://www.w3.org/2000/svg">
<path d="M20.2 38L11.9 23.75H6.4V38H1.85V3.15H13.1C15.7333 3.15 17.95 3.6 19.75 4.5C21.5833 5.4 22.95 6.61667 23.85 8.15C24.75 9.68333 25.2 11.4333 25.2 13.4C25.2 15.8 24.5 17.9167 23.1 19.75C21.7333 21.5833 19.6667 22.8 16.9 23.4L25.65 38H20.2ZM6.4 20.1H13.1C15.5667 20.1 17.4167 19.5 18.65 18.3C19.8833 17.0667 20.5 15.4333 20.5 13.4C20.5 11.3333 19.8833 9.73333 18.65 8.6C17.45 7.46667 15.6 6.9 13.1 6.9H6.4V20.1ZM57.2699 23.25C57.2699 24.1167 57.2199 25.0333 57.1199 26H35.2199C35.3866 28.7 36.3033 30.8167 37.9699 32.35C39.6699 33.85 41.7199 34.6 44.1199 34.6C46.0866 34.6 47.7199 34.15 49.0199 33.25C50.3533 32.3167 51.2866 31.0833 51.8199 29.55H56.7199C55.9866 32.1833 54.5199 34.3333 52.3199 36C50.1199 37.6333 47.3866 38.45 44.1199 38.45C41.5199 38.45 39.1866 37.8667 37.1199 36.7C35.0866 35.5333 33.4866 33.8833 32.3199 31.75C31.1533 29.5833 30.5699 27.0833 30.5699 24.25C30.5699 21.4167 31.1366 18.9333 32.2699 16.8C33.4033 14.6667 34.9866 13.0333 37.0199 11.9C39.0866 10.7333 41.4533 10.15 44.1199 10.15C46.7199 10.15 49.0199 10.7167 51.0199 11.85C53.0199 12.9833 54.5533 14.55 55.6199 16.55C56.7199 18.5167 57.2699 20.75 57.2699 23.25ZM52.5699 22.3C52.5699 20.5667 52.1866 19.0833 51.4199 17.85C50.6533 16.5833 49.6033 15.6333 48.2699 15C46.9699 14.3333 45.5199 14 43.9199 14C41.6199 14 39.6533 14.7333 38.0199 16.2C36.4199 17.6667 35.5033 19.7 35.2699 22.3H52.5699ZM67.8258 15.7C68.7591 14.0667 70.1258 12.7333 71.9258 11.7C73.7258 10.6667 75.7758 10.15 78.0758 10.15C80.5424 10.15 82.7591 10.7333 84.7258 11.9C86.6924 13.0667 88.2424 14.7167 89.3758 16.85C90.5091 18.95 91.0758 21.4 91.0758 24.2C91.0758 26.9667 90.5091 29.4333 89.3758 31.6C88.2424 33.7667 86.6758 35.45 84.6758 36.65C82.7091 37.85 80.5091 38.45 78.0758 38.45C75.7091 38.45 73.6258 37.9333 71.8258 36.9C70.0591 35.8667 68.7258 34.55 67.8258 32.95V38H63.2758V1H67.8258V15.7ZM86.4258 24.2C86.4258 22.1333 86.0091 20.3333 85.1758 18.8C84.3424 17.2667 83.2091 16.1 81.7758 15.3C80.3758 14.5 78.8258 14.1 77.1258 14.1C75.4591 14.1 73.9091 14.5167 72.4758 15.35C71.0758 16.15 69.9424 17.3333 69.0758 18.9C68.2424 20.4333 67.8258 22.2167 67.8258 24.25C67.8258 26.3167 68.2424 28.1333 69.0758 29.7C69.9424 31.2333 71.0758 32.4167 72.4758 33.25C73.9091 34.05 75.4591 34.45 77.1258 34.45C78.8258 34.45 80.3758 34.05 81.7758 33.25C83.2091 32.4167 84.3424 31.2333 85.1758 29.7C86.0091 28.1333 86.4258 26.3 86.4258 24.2ZM122.065 23.25C122.065 24.1167 122.015 25.0333 121.915 26H100.015C100.182 28.7 101.098 30.8167 102.765 32.35C104.465 33.85 106.515 34.6 108.915 34.6C110.882 34.6 112.515 34.15 113.815 33.25C115.148 32.3167 116.082 31.0833 116.615 29.55H121.515C120.782 32.1833 119.315 34.3333 117.115 36C114.915 37.6333 112.182 38.45 108.915 38.45C106.315 38.45 103.982 37.8667 101.915 36.7C99.8815 35.5333 98.2815 33.8833 97.1148 31.75C95.9482 29.5833 95.3648 27.0833 95.3648 24.25C95.3648 21.4167 95.9315 18.9333 97.0648 16.8C98.1982 14.6667 99.7815 13.0333 101.815 11.9C103.882 10.7333 106.248 10.15 108.915 10.15C111.515 10.15 113.815 10.7167 115.815 11.85C117.815 12.9833 119.348 14.55 120.415 16.55C121.515 18.5167 122.065 20.75 122.065 23.25ZM117.365 22.3C117.365 20.5667 116.982 19.0833 116.215 17.85C115.448 16.5833 114.398 15.6333 113.065 15C111.765 14.3333 110.315 14 108.715 14C106.415 14 104.448 14.7333 102.815 16.2C101.215 17.6667 100.298 19.7 100.065 22.3H117.365ZM132.621 15.05C133.421 13.4833 134.554 12.2667 136.021 11.4C137.521 10.5333 139.337 10.1 141.471 10.1V14.8H140.271C135.171 14.8 132.621 17.5667 132.621 23.1V38H128.071V10.6H132.621V15.05ZM186.453 13.25C185.486 11.2167 184.086 9.65 182.253 8.55C180.42 7.41667 178.286 6.85 175.853 6.85C173.42 6.85 171.22 7.41667 169.253 8.55C167.32 9.65 165.786 11.25 164.653 13.35C163.553 15.4167 163.003 17.8167 163.003 20.55C163.003 23.2833 163.553 25.6833 164.653 27.75C165.786 29.8167 167.32 31.4167 169.253 32.55C171.22 33.65 173.42 34.2 175.853 34.2C179.253 34.2 182.053 33.1833 184.253 31.15C186.453 29.1167 187.736 26.3667 188.103 22.9H174.203V19.2H192.953V22.7C192.686 25.5667 191.786 28.2 190.253 30.6C188.72 32.9667 186.703 34.85 184.203 36.25C181.703 37.6167 178.92 38.3 175.853 38.3C172.62 38.3 169.67 37.55 167.003 36.05C164.336 34.5167 162.22 32.4 160.653 29.7C159.12 27 158.353 23.95 158.353 20.55C158.353 17.15 159.12 14.1 160.653 11.4C162.22 8.66667 164.336 6.55 167.003 5.05C169.67 3.51666 172.62 2.75 175.853 2.75C179.553 2.75 182.82 3.66666 185.653 5.5C188.52 7.33333 190.603 9.91667 191.903 13.25H186.453ZM203.519 15.05C204.319 13.4833 205.452 12.2667 206.919 11.4C208.419 10.5333 210.236 10.1 212.369 10.1V14.8H211.169C206.069 14.8 203.519 17.5667 203.519 23.1V38H198.969V10.6H203.519V15.05ZM215.921 24.2C215.921 21.4 216.488 18.95 217.621 16.85C218.755 14.7167 220.305 13.0667 222.271 11.9C224.271 10.7333 226.488 10.15 228.921 10.15C231.321 10.15 233.405 10.6667 235.171 11.7C236.938 12.7333 238.255 14.0333 239.121 15.6V10.6H243.721V38H239.121V32.9C238.221 34.5 236.871 35.8333 235.071 36.9C233.305 37.9333 231.238 38.45 228.871 38.45C226.438 38.45 224.238 37.85 222.271 36.65C220.305 35.45 218.755 33.7667 217.621 31.6C216.488 29.4333 215.921 26.9667 215.921 24.2ZM239.121 24.25C239.121 22.1833 238.705 20.3833 237.871 18.85C237.038 17.3167 235.905 16.15 234.471 15.35C233.071 14.5167 231.521 14.1 229.821 14.1C228.121 14.1 226.571 14.5 225.171 15.3C223.771 16.1 222.655 17.2667 221.821 18.8C220.988 20.3333 220.571 22.1333 220.571 24.2C220.571 26.3 220.988 28.1333 221.821 29.7C222.655 31.2333 223.771 32.4167 225.171 33.25C226.571 34.05 228.121 34.45 229.821 34.45C231.521 34.45 233.071 34.05 234.471 33.25C235.905 32.4167 237.038 31.2333 237.871 29.7C238.705 28.1333 239.121 26.3167 239.121 24.25ZM284.361 10.1C286.494 10.1 288.394 10.55 290.061 11.45C291.727 12.3167 293.044 13.6333 294.011 15.4C294.977 17.1667 295.461 19.3167 295.461 21.85V38H290.961V22.5C290.961 19.7667 290.277 17.6833 288.911 16.25C287.577 14.7833 285.761 14.05 283.461 14.05C281.094 14.05 279.211 14.8167 277.811 16.35C276.411 17.85 275.711 20.0333 275.711 22.9V38H271.211V22.5C271.211 19.7667 270.527 17.6833 269.161 16.25C267.827 14.7833 266.011 14.05 263.711 14.05C261.344 14.05 259.461 14.8167 258.061 16.35C256.661 17.85 255.961 20.0333 255.961 22.9V38H251.411V10.6H255.961V14.55C256.861 13.1167 258.061 12.0167 259.561 11.25C261.094 10.4833 262.777 10.1 264.611 10.1C266.911 10.1 268.944 10.6167 270.711 11.65C272.477 12.6833 273.794 14.2 274.661 16.2C275.427 14.2667 276.694 12.7667 278.461 11.7C280.227 10.6333 282.194 10.1 284.361 10.1ZM335.874 10.1C338.008 10.1 339.908 10.55 341.574 11.45C343.241 12.3167 344.558 13.6333 345.524 15.4C346.491 17.1667 346.974 19.3167 346.974 21.85V38H342.474V22.5C342.474 19.7667 341.791 17.6833 340.424 16.25C339.091 14.7833 337.274 14.05 334.974 14.05C332.608 14.05 330.724 14.8167 329.324 16.35C327.924 17.85 327.224 20.0333 327.224 22.9V38H322.724V22.5C322.724 19.7667 322.041 17.6833 320.674 16.25C319.341 14.7833 317.524 14.05 315.224 14.05C312.858 14.05 310.974 14.8167 309.574 16.35C308.174 17.85 307.474 20.0333 307.474 22.9V38H302.924V10.6H307.474V14.55C308.374 13.1167 309.574 12.0167 311.074 11.25C312.608 10.4833 314.291 10.1 316.124 10.1C318.424 10.1 320.458 10.6167 322.224 11.65C323.991 12.6833 325.308 14.2 326.174 16.2C326.941 14.2667 328.208 12.7667 329.974 11.7C331.741 10.6333 333.708 10.1 335.874 10.1ZM352.738 24.2C352.738 21.4 353.305 18.95 354.438 16.85C355.571 14.7167 357.121 13.0667 359.088 11.9C361.088 10.7333 363.305 10.15 365.738 10.15C368.138 10.15 370.221 10.6667 371.988 11.7C373.755 12.7333 375.071 14.0333 375.938 15.6V10.6H380.538V38H375.938V32.9C375.038 34.5 373.688 35.8333 371.888 36.9C370.121 37.9333 368.055 38.45 365.688 38.45C363.255 38.45 361.055 37.85 359.088 36.65C357.121 35.45 355.571 33.7667 354.438 31.6C353.305 29.4333 352.738 26.9667 352.738 24.2ZM375.938 24.25C375.938 22.1833 375.521 20.3833 374.688 18.85C373.855 17.3167 372.721 16.15 371.288 15.35C369.888 14.5167 368.338 14.1 366.638 14.1C364.938 14.1 363.388 14.5 361.988 15.3C360.588 16.1 359.471 17.2667 358.638 18.8C357.805 20.3333 357.388 22.1333 357.388 24.2C357.388 26.3 357.805 28.1333 358.638 29.7C359.471 31.2333 360.588 32.4167 361.988 33.25C363.388 34.05 364.938 34.45 366.638 34.45C368.338 34.45 369.888 34.05 371.288 33.25C372.721 32.4167 373.855 31.2333 374.688 29.7C375.521 28.1333 375.938 26.3167 375.938 24.25ZM392.777 15.05C393.577 13.4833 394.71 12.2667 396.177 11.4C397.677 10.5333 399.494 10.1 401.627 10.1V14.8H400.427C395.327 14.8 392.777 17.5667 392.777 23.1V38H388.227V10.6H392.777V15.05Z" fill="black"/>
<path d="M20.2 38L19.3359 38.5033L19.6252 39H20.2V38ZM11.9 23.75L12.7641 23.2467L12.4748 22.75H11.9V23.75ZM6.4 23.75V22.75H5.4V23.75H6.4ZM6.4 38V39H7.4V38H6.4ZM1.85 38H0.85V39H1.85V38ZM1.85 3.15V2.15H0.85V3.15H1.85ZM19.75 4.5L19.3028 5.39445L19.3093 5.39767L19.75 4.5ZM23.1 19.75L22.3052 19.143L22.2983 19.1523L23.1 19.75ZM16.9 23.4L16.6881 22.4227L15.3256 22.7182L16.0422 23.9141L16.9 23.4ZM25.65 38V39H27.4152L26.5078 37.4859L25.65 38ZM6.4 20.1H5.4V21.1H6.4V20.1ZM18.65 18.3L19.3474 19.0168L19.3571 19.0071L18.65 18.3ZM18.65 8.6L17.9633 9.32708L17.9734 9.33633L18.65 8.6ZM6.4 6.9V5.9H5.4V6.9H6.4ZM21.0641 37.4967L12.7641 23.2467L11.0359 24.2533L19.3359 38.5033L21.0641 37.4967ZM11.9 22.75H6.4V24.75H11.9V22.75ZM5.4 23.75V38H7.4V23.75H5.4ZM6.4 37H1.85V39H6.4V37ZM2.85 38V3.15H0.85V38H2.85ZM1.85 4.15H13.1V2.15H1.85V4.15ZM13.1 4.15C15.6242 4.15 17.6777 4.58188 19.3028 5.39443L20.1972 3.60557C18.2223 2.61811 15.8425 2.15 13.1 2.15V4.15ZM19.3093 5.39767C20.9936 6.22451 22.2009 7.31595 22.9876 8.6562L24.7124 7.6438C23.6991 5.91738 22.173 4.57549 20.1907 3.60233L19.3093 5.39767ZM22.9876 8.6562C23.7882 10.0201 24.2 11.5919 24.2 13.4H26.2C26.2 11.2748 25.7118 9.34653 24.7124 7.6438L22.9876 8.6562ZM24.2 13.4C24.2 15.5902 23.5664 17.4915 22.3052 19.1431L23.8948 20.3569C25.4336 18.3418 26.2 16.0098 26.2 13.4H24.2ZM22.2983 19.1523C21.108 20.7491 19.2771 21.8612 16.6881 22.4227L17.1119 24.3773C20.0563 23.7388 22.3587 22.4176 23.9017 20.3477L22.2983 19.1523ZM16.0422 23.9141L24.7922 38.5141L26.5078 37.4859L17.7578 22.8859L16.0422 23.9141ZM25.65 37H20.2V39H25.65V37ZM6.4 21.1H13.1V19.1H6.4V21.1ZM13.1 21.1C15.714 21.1 17.8595 20.4644 19.3474 19.0167L17.9526 17.5833C16.9738 18.5356 15.4193 19.1 13.1 19.1V21.1ZM19.3571 19.0071C20.8091 17.5551 21.5 15.6511 21.5 13.4H19.5C19.5 15.2156 18.9576 16.5782 17.9429 17.5929L19.3571 19.0071ZM21.5 13.4C21.5 11.1238 20.8127 9.22926 19.3266 7.86367L17.9734 9.33633C18.954 10.2374 19.5 11.5428 19.5 13.4H21.5ZM19.3366 7.87299C17.875 6.4926 15.7271 5.9 13.1 5.9V7.9C15.4729 7.9 17.025 8.44073 17.9634 9.32701L19.3366 7.87299ZM13.1 5.9H6.4V7.9H13.1V5.9ZM5.4 6.9V20.1H7.4V6.9H5.4ZM57.1199 26V27H58.0218L58.1146 26.1029L57.1199 26ZM35.2199 26V25H34.1563L34.2218 26.0616L35.2199 26ZM37.9699 32.35L37.2929 33.0859L37.3005 33.093L37.3083 33.0998L37.9699 32.35ZM49.0199 33.25L49.5891 34.0722L49.5934 34.0692L49.0199 33.25ZM51.8199 29.55V28.55H51.109L50.8754 29.2215L51.8199 29.55ZM56.7199 29.55L57.6833 29.8183L58.0365 28.55H56.7199V29.55ZM52.3199 36L52.916 36.8029L52.9238 36.7971L52.3199 36ZM37.1199 36.7L36.6222 37.5674L36.6283 37.5708L37.1199 36.7ZM32.3199 31.75L31.4394 32.2241L31.4426 32.2298L32.3199 31.75ZM32.2699 16.8L33.153 17.2692L32.2699 16.8ZM37.0199 11.9L37.5068 12.7735L37.5115 12.7708L37.0199 11.9ZM51.0199 11.85L50.5269 12.72L51.0199 11.85ZM55.6199 16.55L54.7376 17.0206L54.7423 17.0294L54.7472 17.0382L55.6199 16.55ZM52.5699 22.3V23.3H53.5699V22.3H52.5699ZM51.4199 17.85L50.5644 18.3678L50.5706 18.3779L51.4199 17.85ZM48.2699 15L47.8136 15.8898L47.8271 15.8968L47.8409 15.9033L48.2699 15ZM38.0199 16.2L37.3518 15.4559L37.3442 15.4628L38.0199 16.2ZM35.2699 22.3L34.2739 22.2106L34.1762 23.3H35.2699V22.3ZM56.2699 23.25C56.2699 24.0785 56.2221 24.9606 56.1252 25.8971L58.1146 26.1029C58.2177 25.1061 58.2699 24.1549 58.2699 23.25H56.2699ZM57.1199 25H35.2199V27H57.1199V25ZM34.2218 26.0616C34.4011 28.966 35.4001 31.3446 37.2929 33.0859L38.647 31.6141C37.2064 30.2888 36.3721 28.434 36.218 25.9384L34.2218 26.0616ZM37.3083 33.0998C39.2023 34.771 41.4918 35.6 44.1199 35.6V33.6C41.948 33.6 40.1375 32.929 38.6315 31.6002L37.3083 33.0998ZM44.1199 35.6C46.24 35.6 48.085 35.1135 49.5891 34.0722L48.4507 32.4278C47.3548 33.1865 45.9331 33.6 44.1199 33.6V35.6ZM49.5934 34.0692C51.0984 33.0157 52.1619 31.6109 52.7644 29.8785L50.8754 29.2215C50.4113 30.5558 49.6081 31.6176 48.4465 32.4308L49.5934 34.0692ZM51.8199 30.55H56.7199V28.55H51.8199V30.55ZM55.7566 29.2817C55.0826 31.702 53.7434 33.667 51.7161 35.2029L52.9238 36.7971C55.2964 34.9996 56.8906 32.6647 57.6833 29.8183L55.7566 29.2817ZM51.7238 35.1971C49.7275 36.6792 47.2144 37.45 44.1199 37.45V39.45C47.5588 39.45 50.5124 38.5874 52.916 36.8029L51.7238 35.1971ZM44.1199 37.45C41.6753 37.45 39.5141 36.9032 37.6115 35.8292L36.6283 37.5708C38.8591 38.8301 41.3646 39.45 44.1199 39.45V37.45ZM37.6176 35.8326C35.7503 34.7612 34.279 33.2481 33.1973 31.2702L31.4426 32.2298C32.6942 34.5185 34.4229 36.3055 36.6223 37.5674L37.6176 35.8326ZM33.2004 31.2759C32.1233 29.2757 31.5699 26.9431 31.5699 24.25H29.5699C29.5699 27.2236 30.1832 29.891 31.4394 32.2241L33.2004 31.2759ZM31.5699 24.25C31.5699 21.5519 32.1087 19.2349 33.153 17.2692L31.3868 16.3308C30.1645 18.6317 29.5699 21.2814 29.5699 24.25H31.5699ZM33.153 17.2692C34.1996 15.2992 35.6483 13.8094 37.5068 12.7735L36.5331 11.0265C34.3249 12.2573 32.6069 14.0342 31.3868 16.3308L33.153 17.2692ZM37.5115 12.7708C39.4104 11.6989 41.6038 11.15 44.1199 11.15V9.15C41.3027 9.15 38.7628 9.76776 36.5283 11.0292L37.5115 12.7708ZM44.1199 11.15C46.5702 11.15 48.6961 11.6826 50.5269 12.72L51.5129 10.98C49.3437 9.75077 46.8697 9.15 44.1199 9.15V11.15ZM50.5269 12.72C52.3643 13.7612 53.7615 15.1905 54.7376 17.0206L56.5023 16.0794C55.345 13.9095 53.6755 12.2054 51.5129 10.98L50.5269 12.72ZM54.7472 17.0382C55.7549 18.8398 56.2699 20.9018 56.2699 23.25H58.2699C58.2699 20.5982 57.685 18.1935 56.4927 16.0618L54.7472 17.0382ZM53.5699 22.3C53.5699 20.4165 53.152 18.7422 52.2692 17.3221L50.5706 18.3779C51.2212 19.4244 51.5699 20.7168 51.5699 22.3H53.5699ZM52.2754 17.3322C51.4077 15.8986 50.2097 14.8143 48.699 14.0967L47.8409 15.9033C48.9968 16.4524 49.8988 17.268 50.5644 18.3678L52.2754 17.3322ZM48.7262 14.1102C47.2719 13.3644 45.6632 13 43.9199 13V15C45.3766 15 46.6679 15.3023 47.8136 15.8898L48.7262 14.1102ZM43.9199 13C41.3862 13 39.178 13.8161 37.3518 15.456L38.688 16.944C40.1285 15.6506 41.8537 15 43.9199 15V13ZM37.3442 15.4628C35.5246 17.1308 34.5248 19.4154 34.2739 22.2106L36.2659 22.3894C36.4817 19.9846 37.3152 18.2025 38.6956 16.9372L37.3442 15.4628ZM35.2699 23.3H52.5699V21.3H35.2699V23.3ZM67.8258 15.7H66.8258V19.4656L68.694 16.1961L67.8258 15.7ZM71.9258 11.7L72.4236 12.5673H72.4237L71.9258 11.7ZM84.7258 11.9L85.236 11.0399L84.7258 11.9ZM89.3758 16.85L88.4926 17.3192L88.4958 17.3249L89.3758 16.85ZM89.3758 31.6L90.2619 32.0635V32.0635L89.3758 31.6ZM84.6758 36.65L84.1613 35.7925L84.1549 35.7964L84.6758 36.65ZM71.8258 36.9L71.3209 37.7632L71.3279 37.7673L71.8258 36.9ZM67.8258 32.95L68.6974 32.4597L66.8258 29.1325V32.95H67.8258ZM67.8258 38V39H68.8258V38H67.8258ZM63.2758 38H62.2758V39H63.2758V38ZM63.2758 1V0H62.2758V1H63.2758ZM67.8258 1H68.8258V0H67.8258V1ZM85.1758 18.8L86.0544 18.3225L85.1758 18.8ZM81.7758 15.3L81.2796 16.1683L81.2884 16.1732L81.7758 15.3ZM72.4758 15.35L72.9719 16.2183L72.9784 16.2145L72.4758 15.35ZM69.0758 18.9L68.2007 18.4159L68.1972 18.4225L69.0758 18.9ZM69.0758 29.7L68.1929 30.1696L68.1989 30.1809L68.2052 30.1921L69.0758 29.7ZM72.4758 33.25L71.9643 34.1093L71.9763 34.1164L71.9884 34.1232L72.4758 33.25ZM81.7758 33.25L82.2719 34.1183L82.2784 34.1145L81.7758 33.25ZM85.1758 29.7L86.0544 30.1775L86.0587 30.1696L85.1758 29.7ZM68.694 16.1961C69.5302 14.7329 70.7615 13.5214 72.4236 12.5673L71.4279 10.8327C69.49 11.9452 67.988 13.4005 66.9575 15.2039L68.694 16.1961ZM72.4237 12.5673C74.0562 11.6301 75.9311 11.15 78.0758 11.15V9.15C75.6204 9.15 73.3954 9.70328 71.4279 10.8327L72.4237 12.5673ZM78.0758 11.15C80.3775 11.15 82.4155 11.6922 84.2156 12.7601L85.236 11.0399C83.1028 9.77448 80.7074 9.15 78.0758 9.15V11.15ZM84.2156 12.7601C86.0154 13.8277 87.4404 15.3383 88.4927 17.3192L90.2589 16.3808C89.0445 14.095 87.3695 12.3056 85.236 11.0399L84.2156 12.7601ZM88.4958 17.3249C89.5377 19.2556 90.0758 21.537 90.0758 24.2H92.0758C92.0758 21.263 91.4805 18.6444 90.2558 16.3751L88.4958 17.3249ZM90.0758 24.2C90.0758 26.8267 89.5388 29.1307 88.4897 31.1365L90.2619 32.0635C91.4794 29.7359 92.0758 27.1066 92.0758 24.2H90.0758ZM88.4897 31.1365C87.4373 33.1484 85.9957 34.6918 84.1613 35.7925L85.1903 37.5075C87.3558 36.2082 89.0476 34.3849 90.2619 32.0635L88.4897 31.1365ZM84.1549 35.7964C82.3541 36.8952 80.3361 37.45 78.0758 37.45V39.45C80.6821 39.45 83.0641 38.8048 85.1966 37.5036L84.1549 35.7964ZM78.0758 37.45C75.8589 37.45 73.9519 36.9675 72.3236 36.0327L71.3279 37.7673C73.2997 38.8992 75.5593 39.45 78.0758 39.45V37.45ZM72.3307 36.0368C70.6991 35.0825 69.5007 33.8879 68.6974 32.4597L66.9542 33.4403C67.9509 35.2121 69.4191 36.6508 71.3209 37.7632L72.3307 36.0368ZM66.8258 32.95V38H68.8258V32.95H66.8258ZM67.8258 37H63.2758V39H67.8258V37ZM64.2758 38V1H62.2758V38H64.2758ZM63.2758 2H67.8258V0H63.2758V2ZM66.8258 1V15.7H68.8258V1H66.8258ZM87.4258 24.2C87.4258 21.9973 86.9809 20.0272 86.0544 18.3225L84.2972 19.2775C85.0374 20.6395 85.4258 22.2694 85.4258 24.2H87.4258ZM86.0544 18.3225C85.1367 16.6339 83.8723 15.3249 82.2631 14.4268L81.2884 16.1732C82.5459 16.8751 83.5482 17.8995 84.2972 19.2775L86.0544 18.3225ZM82.2719 14.4318C80.7125 13.5407 78.99 13.1 77.1258 13.1V15.1C78.6616 15.1 80.039 15.4593 81.2796 16.1682L82.2719 14.4318ZM77.1258 13.1C75.2835 13.1 73.56 13.5629 71.9732 14.4855L72.9784 16.2145C74.2583 15.4704 75.6347 15.1 77.1258 15.1V13.1ZM71.9796 14.4818C70.4034 15.3825 69.146 16.7071 68.2007 18.4159L69.9508 19.3841C70.7388 17.9595 71.7482 16.9175 72.9719 16.2182L71.9796 14.4818ZM68.1972 18.4225C67.2719 20.1249 66.8258 22.0775 66.8258 24.25H68.8258C68.8258 22.3558 69.213 20.7418 69.9544 19.3775L68.1972 18.4225ZM66.8258 24.25C66.8258 26.4534 67.2709 28.4362 68.1929 30.1696L69.9587 29.2304C69.214 27.8304 68.8258 26.18 68.8258 24.25H66.8258ZM68.2052 30.1921C69.1504 31.8643 70.4026 33.1797 71.9643 34.1093L72.9873 32.3907C71.7489 31.6536 70.7345 30.6024 69.9463 29.2079L68.2052 30.1921ZM71.9884 34.1232C73.5731 35.0077 75.2912 35.45 77.1258 35.45V33.45C75.627 33.45 74.2451 33.0923 72.9632 32.3768L71.9884 34.1232ZM77.1258 35.45C78.99 35.45 80.7125 35.0093 82.2719 34.1182L81.2796 32.3818C80.039 33.0907 78.6616 33.45 77.1258 33.45V35.45ZM82.2784 34.1145C83.8786 33.1841 85.1384 31.863 86.0544 30.1775L84.2972 29.2225C83.5465 30.6036 82.5396 31.6492 81.2732 32.3855L82.2784 34.1145ZM86.0587 30.1696C86.9818 28.434 87.4258 26.4338 87.4258 24.2H85.4258C85.4258 26.1662 85.0364 27.8327 84.2929 29.2304L86.0587 30.1696ZM121.915 26V27H122.817L122.91 26.1029L121.915 26ZM100.015 26V25H98.9512L99.0167 26.0616L100.015 26ZM102.765 32.35L102.088 33.0859L102.095 33.093L102.103 33.0998L102.765 32.35ZM113.815 33.25L114.384 34.0722L114.388 34.0692L113.815 33.25ZM116.615 29.55V28.55H115.904L115.67 29.2215L116.615 29.55ZM121.515 29.55L122.478 29.8183L122.831 28.55H121.515V29.55ZM117.115 36L117.711 36.8029L117.719 36.7971L117.115 36ZM101.915 36.7L101.417 37.5674L101.423 37.5708L101.915 36.7ZM97.1148 31.75L96.2344 32.2241L96.2375 32.2298L97.1148 31.75ZM97.0648 16.8L97.948 17.2692L97.0648 16.8ZM101.815 11.9L102.302 12.7735L102.306 12.7708L101.815 11.9ZM115.815 11.85L115.322 12.72L115.815 11.85ZM120.415 16.55L119.532 17.0206L119.537 17.0294L119.542 17.0382L120.415 16.55ZM117.365 22.3V23.3H118.365V22.3H117.365ZM116.215 17.85L115.359 18.3678L115.366 18.3779L116.215 17.85ZM113.065 15L112.609 15.8898L112.622 15.8968L112.636 15.9033L113.065 15ZM102.815 16.2L102.147 15.4559L102.139 15.4628L102.815 16.2ZM100.065 22.3L99.0688 22.2106L98.9711 23.3H100.065V22.3ZM121.065 23.25C121.065 24.0785 121.017 24.9606 120.92 25.8971L122.91 26.1029C123.013 25.1061 123.065 24.1549 123.065 23.25H121.065ZM121.915 25H100.015V27H121.915V25ZM99.0167 26.0616C99.196 28.966 100.195 31.3446 102.088 33.0859L103.442 31.6141C102.001 30.2888 101.167 28.434 101.013 25.9384L99.0167 26.0616ZM102.103 33.0998C103.997 34.771 106.287 35.6 108.915 35.6V33.6C106.743 33.6 104.932 32.929 103.426 31.6002L102.103 33.0998ZM108.915 35.6C111.035 35.6 112.88 35.1135 114.384 34.0722L113.246 32.4278C112.15 33.1865 110.728 33.6 108.915 33.6V35.6ZM114.388 34.0692C115.893 33.0157 116.957 31.6109 117.559 29.8785L115.67 29.2215C115.206 30.5558 114.403 31.6176 113.241 32.4308L114.388 34.0692ZM116.615 30.55H121.515V28.55H116.615V30.55ZM120.552 29.2817C119.878 31.702 118.538 33.667 116.511 35.2029L117.719 36.7971C120.091 34.9996 121.686 32.6647 122.478 29.8183L120.552 29.2817ZM116.519 35.1971C114.522 36.6792 112.009 37.45 108.915 37.45V39.45C112.354 39.45 115.307 38.5874 117.711 36.8029L116.519 35.1971ZM108.915 37.45C106.47 37.45 104.309 36.9032 102.406 35.8292L101.423 37.5708C103.654 38.8301 106.159 39.45 108.915 39.45V37.45ZM102.413 35.8326C100.545 34.7612 99.0739 33.2481 97.9922 31.2702L96.2375 32.2298C97.4891 34.5185 99.2178 36.3055 101.417 37.5674L102.413 35.8326ZM97.9953 31.2759C96.9183 29.2757 96.3648 26.9431 96.3648 24.25H94.3648C94.3648 27.2236 94.9781 29.891 96.2344 32.2241L97.9953 31.2759ZM96.3648 24.25C96.3648 21.5519 96.9036 19.2349 97.948 17.2692L96.1817 16.3308C94.9594 18.6317 94.3648 21.2814 94.3648 24.25H96.3648ZM97.948 17.2692C98.9945 15.2992 100.443 13.8094 102.302 12.7735L101.328 11.0265C99.1198 12.2573 97.4018 14.0342 96.1817 16.3308L97.948 17.2692ZM102.306 12.7708C104.205 11.6989 106.399 11.15 108.915 11.15V9.15C106.098 9.15 103.558 9.76776 101.323 11.0292L102.306 12.7708ZM108.915 11.15C111.365 11.15 113.491 11.6826 115.322 12.72L116.308 10.98C114.139 9.75077 111.665 9.15 108.915 9.15V11.15ZM115.322 12.72C117.159 13.7612 118.556 15.1905 119.532 17.0206L121.297 16.0794C120.14 13.9095 118.47 12.2054 116.308 10.98L115.322 12.72ZM119.542 17.0382C120.55 18.8398 121.065 20.9018 121.065 23.25H123.065C123.065 20.5982 122.48 18.1935 121.288 16.0618L119.542 17.0382ZM118.365 22.3C118.365 20.4165 117.947 18.7422 117.064 17.3221L115.366 18.3779C116.016 19.4244 116.365 20.7168 116.365 22.3H118.365ZM117.07 17.3322C116.203 15.8986 115.005 14.8143 113.494 14.0967L112.636 15.9033C113.792 16.4524 114.694 17.268 115.359 18.3678L117.07 17.3322ZM113.521 14.1102C112.067 13.3644 110.458 13 108.715 13V15C110.172 15 111.463 15.3023 112.609 15.8898L113.521 14.1102ZM108.715 13C106.181 13 103.973 13.8161 102.147 15.456L103.483 16.944C104.923 15.6506 106.649 15 108.715 15V13ZM102.139 15.4628C100.32 17.1308 99.3197 19.4154 99.0688 22.2106L101.061 22.3894C101.277 19.9846 102.11 18.2025 103.491 16.9372L102.139 15.4628ZM100.065 23.3H117.365V21.3H100.065V23.3ZM132.621 15.05H131.621L133.511 15.5048L132.621 15.05ZM136.021 11.4L135.52 10.5341L135.512 10.5391L136.021 11.4ZM141.471 10.1H142.471V9.1H141.471V10.1ZM141.471 14.8V15.8H142.471V14.8H141.471ZM132.621 38V39H133.621V38H132.621ZM128.071 38H127.071V39H128.071V38ZM128.071 10.6V9.6H127.071V10.6H128.071ZM132.621 10.6H133.621V9.6H132.621V10.6ZM133.511 15.5048C134.228 14.1012 135.232 13.0279 136.529 12.2609L135.512 10.5391C133.877 11.5054 132.613 12.8655 131.73 14.5952L133.511 15.5048ZM136.521 12.2659C137.837 11.5053 139.473 11.1 141.471 11.1V9.1C139.202 9.1 137.204 9.56139 135.52 10.5341L136.521 12.2659ZM140.471 10.1V14.8H142.471V10.1H140.471ZM141.471 13.8H140.271V15.8H141.471V13.8ZM140.271 13.8C137.545 13.8 135.322 14.5432 133.798 16.1973C132.288 17.8359 131.621 20.1985 131.621 23.1H133.621C133.621 20.4682 134.229 18.6807 135.269 17.5527C136.294 16.4401 137.897 15.8 140.271 15.8V13.8ZM131.621 23.1V38H133.621V23.1H131.621ZM132.621 37H128.071V39H132.621V37ZM129.071 38V10.6H127.071V38H129.071ZM128.071 11.6H132.621V9.6H128.071V11.6ZM131.621 10.6V15.05H133.621V10.6H131.621ZM186.453 13.25L185.55 13.6794L185.821 14.25H186.453V13.25ZM182.253 8.55L181.727 9.40067L181.739 9.40749L182.253 8.55ZM169.253 8.55L169.748 9.41917L169.752 9.41643L169.253 8.55ZM164.653 13.35L163.773 12.8751L163.77 12.8801L164.653 13.35ZM164.653 27.75L163.77 28.2199L163.776 28.2308L164.653 27.75ZM169.253 32.55L168.747 33.4127L168.756 33.4178L168.765 33.4228L169.253 32.55ZM184.253 31.15L184.932 31.8844L184.253 31.15ZM188.103 22.9L189.098 23.0052L189.214 21.9H188.103V22.9ZM174.203 22.9H173.203V23.9H174.203V22.9ZM174.203 19.2V18.2H173.203V19.2H174.203ZM192.953 19.2H193.953V18.2H192.953V19.2ZM192.953 22.7L193.949 22.7926L193.953 22.7464V22.7H192.953ZM190.253 30.6L191.092 31.1438L191.096 31.1384L190.253 30.6ZM184.203 36.25L184.683 37.1275L184.692 37.1225L184.203 36.25ZM167.003 36.05L166.505 36.9169L166.513 36.9216L167.003 36.05ZM160.653 29.7L159.784 30.1938L159.788 30.2019L160.653 29.7ZM160.653 11.4L159.786 10.9027L159.784 10.9062L160.653 11.4ZM167.003 5.05L167.493 5.92161L167.502 5.9169L167.003 5.05ZM185.653 5.5L185.11 6.33958L185.114 6.34245L185.653 5.5ZM191.903 13.25V14.25H193.366L192.835 12.8867L191.903 13.25ZM187.356 12.8206C186.31 10.6194 184.779 8.89935 182.768 7.6925L181.739 9.40749C183.394 10.4006 184.663 11.8139 185.55 13.6794L187.356 12.8206ZM182.779 7.6994C180.768 6.45624 178.448 5.85 175.853 5.85V7.85C178.125 7.85 180.072 8.37709 181.727 9.40059L182.779 7.6994ZM175.853 5.85C173.258 5.85 170.883 6.45643 168.754 7.68357L169.752 9.41643C171.556 8.3769 173.582 7.85 175.853 7.85V5.85ZM168.759 7.68083C166.65 8.88031 164.989 10.6226 163.773 12.8751L165.533 13.8249C166.584 11.8774 167.989 10.4197 169.748 9.41916L168.759 7.68083ZM163.77 12.8801C162.581 15.1139 162.003 17.6803 162.003 20.55H164.003C164.003 17.953 164.525 15.7194 165.536 13.8198L163.77 12.8801ZM162.003 20.55C162.003 23.4197 162.581 25.986 163.77 28.2198L165.536 27.2802C164.525 25.3806 164.003 23.147 164.003 20.55H162.003ZM163.776 28.2308C164.992 30.4474 166.65 32.1831 168.747 33.4127L169.759 31.6873C167.99 30.6502 166.581 29.1859 165.53 27.2692L163.776 28.2308ZM168.765 33.4228C170.893 34.6128 173.263 35.2 175.853 35.2V33.2C173.577 33.2 171.547 32.6872 169.741 31.6772L168.765 33.4228ZM175.853 35.2C179.468 35.2 182.522 34.1118 184.932 31.8844L183.574 30.4156C181.584 32.2549 179.038 33.2 175.853 33.2V35.2ZM184.932 31.8844C187.339 29.6601 188.71 26.6711 189.098 23.0052L187.109 22.7948C186.763 26.0622 185.568 28.5733 183.574 30.4156L184.932 31.8844ZM188.103 21.9H174.203V23.9H188.103V21.9ZM175.203 22.9V19.2H173.203V22.9H175.203ZM174.203 20.2H192.953V18.2H174.203V20.2ZM191.953 19.2V22.7H193.953V19.2H191.953ZM191.957 22.6074C191.705 25.3172 190.857 27.7974 189.41 30.0616L191.096 31.1384C192.716 28.6026 193.668 25.8161 193.949 22.7926L191.957 22.6074ZM189.414 30.0563C187.97 32.2842 186.075 34.0556 183.715 35.3775L184.692 37.1225C187.331 35.6444 189.469 33.6491 191.092 31.1437L189.414 30.0563ZM183.723 35.3726C181.382 36.6527 178.765 37.3 175.853 37.3V39.3C179.074 39.3 182.025 38.5806 184.683 37.1274L183.723 35.3726ZM175.853 37.3C172.781 37.3 170.002 36.5894 167.493 35.1784L166.513 36.9216C169.338 38.5106 172.458 39.3 175.853 39.3V37.3ZM167.502 35.1831C164.989 33.7385 162.998 31.7488 161.518 29.1981L159.788 30.2019C161.442 33.0512 163.684 35.2948 166.505 36.9169L167.502 35.1831ZM161.523 29.2062C160.083 26.6708 159.353 23.7938 159.353 20.55H157.353C157.353 24.1062 158.157 27.3292 159.784 30.1938L161.523 29.2062ZM159.353 20.55C159.353 17.3062 160.083 14.4292 161.523 11.8938L159.784 10.9062C158.157 13.7708 157.353 16.9938 157.353 20.55H159.353ZM161.521 11.8973C163 9.31558 164.989 7.33041 167.493 5.92157L166.513 4.17842C163.684 5.76958 161.439 8.01775 159.786 10.9027L161.521 11.8973ZM167.502 5.9169C170.009 4.47529 172.785 3.75 175.853 3.75V1.75C172.454 1.75 169.331 2.55803 166.505 4.18309L167.502 5.9169ZM175.853 3.75C179.38 3.75 182.454 4.62097 185.11 6.33957L186.196 4.66043C183.186 2.71236 179.727 1.75 175.853 1.75V3.75ZM185.114 6.34245C187.793 8.0556 189.744 10.4665 190.971 13.6133L192.835 12.8867C191.462 9.36686 189.246 6.61106 186.192 4.65755L185.114 6.34245ZM191.903 12.25H186.453V14.25H191.903V12.25ZM203.519 15.05H202.519L204.41 15.5048L203.519 15.05ZM206.919 11.4L206.419 10.5341L206.41 10.5391L206.919 11.4ZM212.369 10.1H213.369V9.1H212.369V10.1ZM212.369 14.8V15.8H213.369V14.8H212.369ZM203.519 38V39H204.519V38H203.519ZM198.969 38H197.969V39H198.969V38ZM198.969 10.6V9.6H197.969V10.6H198.969ZM203.519 10.6H204.519V9.6H203.519V10.6ZM204.41 15.5048C205.126 14.1012 206.13 13.0279 207.428 12.2609L206.41 10.5391C204.775 11.5054 203.512 12.8655 202.629 14.5952L204.41 15.5048ZM207.419 12.2659C208.736 11.5053 210.371 11.1 212.369 11.1V9.1C210.101 9.1 208.102 9.56139 206.419 10.5341L207.419 12.2659ZM211.369 10.1V14.8H213.369V10.1H211.369ZM212.369 13.8H211.169V15.8H212.369V13.8ZM211.169 13.8C208.443 13.8 206.221 14.5432 204.696 16.1973C203.186 17.8359 202.519 20.1985 202.519 23.1H204.519C204.519 20.4682 205.127 18.6807 206.167 17.5527C207.192 16.4401 208.795 15.8 211.169 15.8V13.8ZM202.519 23.1V38H204.519V23.1H202.519ZM203.519 37H198.969V39H203.519V37ZM199.969 38V10.6H197.969V38H199.969ZM198.969 11.6H203.519V9.6H198.969V11.6ZM202.519 10.6V15.05H204.519V10.6H202.519ZM217.621 16.85L218.502 17.3249L218.505 17.3192L217.621 16.85ZM222.271 11.9L221.768 11.0362L221.761 11.0399L222.271 11.9ZM235.171 11.7L234.667 12.5632L235.171 11.7ZM239.121 15.6L238.246 16.0841L240.121 15.6H239.121ZM239.121 10.6V9.6H238.121V10.6H239.121ZM243.721 10.6H244.721V9.6H243.721V10.6ZM243.721 38V39H244.721V38H243.721ZM239.121 38H238.121V39H239.121V38ZM239.121 32.9H240.121V29.0825L238.25 32.4097L239.121 32.9ZM235.071 36.9L235.576 37.7632L235.581 37.7603L235.071 36.9ZM222.271 36.65L221.751 37.5036L222.271 36.65ZM217.621 31.6L218.508 31.1365L217.621 31.6ZM234.471 15.35L233.96 16.2093L233.972 16.2164L233.984 16.2232L234.471 15.35ZM225.171 15.3L224.675 14.4318L225.171 15.3ZM221.821 18.8L222.7 19.2775L221.821 18.8ZM221.821 29.7L220.939 30.1696L220.943 30.1775L221.821 29.7ZM225.171 33.25L224.66 34.1093L224.668 34.1138L224.675 34.1182L225.171 33.25ZM234.471 33.25L234.968 34.1183L234.974 34.1145L234.471 33.25ZM237.871 29.7L238.75 30.1775L238.754 30.1696L237.871 29.7ZM216.921 24.2C216.921 21.537 217.46 19.2556 218.502 17.3249L216.741 16.3751C215.517 18.6444 214.921 21.263 214.921 24.2H216.921ZM218.505 17.3192C219.557 15.3383 220.982 13.8277 222.782 12.7601L221.761 11.0399C219.628 12.3056 217.953 14.095 216.738 16.3808L218.505 17.3192ZM222.775 12.7638C224.615 11.6909 226.656 11.15 228.921 11.15V9.15C226.32 9.15 223.928 9.77573 221.768 11.0362L222.775 12.7638ZM228.921 11.15C231.175 11.15 233.078 11.6339 234.667 12.5632L235.676 10.8368C233.732 9.69947 231.468 9.15 228.921 9.15V11.15ZM234.667 12.5632C236.301 13.519 237.479 14.6962 238.246 16.0841L239.997 15.1159C239.031 13.3705 237.576 11.9477 235.676 10.8368L234.667 12.5632ZM240.121 15.6V10.6H238.121V15.6H240.121ZM239.121 11.6H243.721V9.6H239.121V11.6ZM242.721 10.6V38H244.721V10.6H242.721ZM243.721 37H239.121V39H243.721V37ZM240.121 38V32.9H238.121V38H240.121ZM238.25 32.4097C237.447 33.8364 236.232 35.0498 234.562 36.0397L235.581 37.7603C237.511 36.6169 238.996 35.1636 239.993 33.3903L238.25 32.4097ZM234.567 36.0368C232.976 36.9674 231.089 37.45 228.871 37.45V39.45C231.387 39.45 233.634 38.8993 235.576 37.7632L234.567 36.0368ZM228.871 37.45C226.611 37.45 224.593 36.8952 222.792 35.7964L221.751 37.5036C223.883 38.8048 226.265 39.45 228.871 39.45V37.45ZM222.792 35.7964C220.99 34.6967 219.562 33.1527 218.508 31.1365L216.735 32.0635C217.947 34.3807 219.619 36.2033 221.751 37.5036L222.792 35.7964ZM218.508 31.1365C217.458 29.1307 216.921 26.8267 216.921 24.2H214.921C214.921 27.1066 215.518 29.7359 216.735 32.0635L218.508 31.1365ZM240.121 24.25C240.121 22.0473 239.677 20.0772 238.75 18.3725L236.993 19.3275C237.733 20.6895 238.121 22.3194 238.121 24.25H240.121ZM238.75 18.3725C237.832 16.6839 236.568 15.3749 234.959 14.4768L233.984 16.2232C235.242 16.9251 236.244 17.9495 236.993 19.3275L238.75 18.3725ZM234.983 14.4907C233.421 13.5612 231.693 13.1 229.821 13.1V15.1C231.35 15.1 232.722 15.4721 233.96 16.2093L234.983 14.4907ZM229.821 13.1C227.957 13.1 226.235 13.5407 224.675 14.4318L225.668 16.1682C226.908 15.4593 228.286 15.1 229.821 15.1V13.1ZM224.675 14.4318C223.101 15.3315 221.857 16.6399 220.943 18.3225L222.7 19.2775C223.452 17.8935 224.442 16.8685 225.668 16.1682L224.675 14.4318ZM220.943 18.3225C220.016 20.0272 219.571 21.9973 219.571 24.2H221.571C221.571 22.2694 221.96 20.6395 222.7 19.2775L220.943 18.3225ZM219.571 24.2C219.571 26.4338 220.015 28.434 220.939 30.1696L222.704 29.2304C221.961 27.8327 221.571 26.1662 221.571 24.2H219.571ZM220.943 30.1775C221.856 31.8571 223.095 33.1775 224.66 34.1093L225.683 32.3907C224.448 31.6559 223.454 30.6095 222.7 29.2225L220.943 30.1775ZM224.675 34.1182C226.235 35.0093 227.957 35.45 229.821 35.45V33.45C228.286 33.45 226.908 33.0907 225.668 32.3818L224.675 34.1182ZM229.821 35.45C231.686 35.45 233.408 35.0093 234.968 34.1182L233.975 32.3818C232.735 33.0907 231.357 33.45 229.821 33.45V35.45ZM234.974 34.1145C236.574 33.1841 237.834 31.863 238.75 30.1775L236.993 29.2225C236.242 30.6036 235.235 31.6492 233.969 32.3855L234.974 34.1145ZM238.754 30.1696C239.676 28.4362 240.121 26.4534 240.121 24.25H238.121C238.121 26.18 237.733 27.8304 236.989 29.2304L238.754 30.1696ZM290.061 11.45L289.585 12.3299L289.592 12.3336L289.599 12.3372L290.061 11.45ZM294.011 15.4L293.133 15.88V15.88L294.011 15.4ZM295.461 38V39H296.461V38H295.461ZM290.961 38H289.961V39H290.961V38ZM288.911 16.25L288.171 16.9227L288.179 16.9315L288.187 16.9401L288.911 16.25ZM277.811 16.35L278.542 17.0324L278.549 17.0243L277.811 16.35ZM275.711 38V39H276.711V38H275.711ZM271.211 38H270.211V39H271.211V38ZM269.161 16.25L268.421 16.9227L268.429 16.9315L268.437 16.9401L269.161 16.25ZM258.061 16.35L258.792 17.0324L258.799 17.0243L258.061 16.35ZM255.961 38V39H256.961V38H255.961ZM251.411 38H250.411V39H251.411V38ZM251.411 10.6V9.6H250.411V10.6H251.411ZM255.961 10.6H256.961V9.6H255.961V10.6ZM255.961 14.55H254.961V18.0231L256.807 15.0818L255.961 14.55ZM259.561 11.25L259.113 10.3555L259.105 10.3596L259.561 11.25ZM270.711 11.65L270.206 12.5132L270.711 11.65ZM274.661 16.2L273.743 16.5976L274.702 18.8095L275.59 16.5686L274.661 16.2ZM278.461 11.7L278.977 12.5561L278.461 11.7ZM284.361 11.1C286.349 11.1 288.082 11.5182 289.585 12.3299L290.536 10.5701C288.705 9.58175 286.639 9.1 284.361 9.1V11.1ZM289.599 12.3372C291.077 13.1057 292.255 14.2742 293.133 15.88L294.888 14.92C293.833 12.9925 292.377 11.5276 290.522 10.5628L289.599 12.3372ZM293.133 15.88C294.001 17.4663 294.461 19.442 294.461 21.85H296.461C296.461 19.1914 295.953 16.8671 294.888 14.92L293.133 15.88ZM294.461 21.85V38H296.461V21.85H294.461ZM295.461 37H290.961V39H295.461V37ZM291.961 38V22.5H289.961V38H291.961ZM291.961 22.5C291.961 19.6086 291.236 17.2403 289.634 15.5599L288.187 16.9401C289.318 18.1264 289.961 19.9247 289.961 22.5H291.961ZM289.65 15.5773C288.097 13.8681 285.993 13.05 283.461 13.05V15.05C285.528 15.05 287.058 15.6986 288.171 16.9227L289.65 15.5773ZM283.461 13.05C280.856 13.05 278.689 13.9049 277.072 15.6757L278.549 17.0243C279.732 15.7284 281.332 15.05 283.461 15.05V13.05ZM277.079 15.6677C275.448 17.4155 274.711 19.8812 274.711 22.9H276.711C276.711 20.1855 277.373 18.2845 278.542 17.0323L277.079 15.6677ZM274.711 22.9V38H276.711V22.9H274.711ZM275.711 37H271.211V39H275.711V37ZM272.211 38V22.5H270.211V38H272.211ZM272.211 22.5C272.211 19.6086 271.486 17.2403 269.884 15.5599L268.437 16.9401C269.568 18.1264 270.211 19.9247 270.211 22.5H272.211ZM269.9 15.5773C268.347 13.8681 266.243 13.05 263.711 13.05V15.05C265.778 15.05 267.308 15.6986 268.421 16.9227L269.9 15.5773ZM263.711 13.05C261.106 13.05 258.939 13.9049 257.322 15.6757L258.799 17.0243C259.982 15.7284 261.582 15.05 263.711 15.05V13.05ZM257.329 15.6677C255.698 17.4155 254.961 19.8812 254.961 22.9H256.961C256.961 20.1855 257.623 18.2845 258.792 17.0323L257.329 15.6677ZM254.961 22.9V38H256.961V22.9H254.961ZM255.961 37H251.411V39H255.961V37ZM252.411 38V10.6H250.411V38H252.411ZM251.411 11.6H255.961V9.6H251.411V11.6ZM254.961 10.6V14.55H256.961V10.6H254.961ZM256.807 15.0818C257.612 13.8004 258.677 12.8246 260.016 12.1404L259.105 10.3596C257.444 11.2087 256.109 12.433 255.114 14.0182L256.807 15.0818ZM260.008 12.1444C261.393 11.452 262.921 11.1 264.611 11.1V9.1C262.633 9.1 260.795 9.51471 259.113 10.3556L260.008 12.1444ZM264.611 11.1C266.756 11.1 268.61 11.5801 270.206 12.5132L271.215 10.7868C269.277 9.65319 267.066 9.1 264.611 9.1V11.1ZM270.206 12.5132C271.776 13.432 272.955 14.7793 273.743 16.5976L275.578 15.8024C274.633 13.6207 273.178 11.9347 271.215 10.7868L270.206 12.5132ZM275.59 16.5686C276.277 14.8368 277.399 13.5088 278.977 12.5561L277.944 10.8439C275.988 12.0245 274.578 13.6965 273.731 15.8314L275.59 16.5686ZM278.977 12.5561C280.58 11.5884 282.367 11.1 284.361 11.1V9.1C282.021 9.1 279.874 9.67831 277.944 10.8439L278.977 12.5561ZM341.574 11.45L341.099 12.3299L341.106 12.3336L341.113 12.3372L341.574 11.45ZM345.524 15.4L344.647 15.88V15.88L345.524 15.4ZM346.974 38V39H347.974V38H346.974ZM342.474 38H341.474V39H342.474V38ZM340.424 16.25L339.684 16.9227L339.692 16.9315L339.7 16.9401L340.424 16.25ZM329.324 16.35L330.055 17.0324L330.063 17.0243L329.324 16.35ZM327.224 38V39H328.224V38H327.224ZM322.724 38H321.724V39H322.724V38ZM320.674 16.25L319.934 16.9227L319.942 16.9315L319.95 16.9401L320.674 16.25ZM309.574 16.35L310.305 17.0324L310.313 17.0243L309.574 16.35ZM307.474 38V39H308.474V38H307.474ZM302.924 38H301.924V39H302.924V38ZM302.924 10.6V9.6H301.924V10.6H302.924ZM307.474 10.6H308.474V9.6H307.474V10.6ZM307.474 14.55H306.474V18.0231L308.321 15.0818L307.474 14.55ZM311.074 11.25L310.627 10.3555L310.619 10.3596L311.074 11.25ZM322.224 11.65L321.719 12.5132L322.224 11.65ZM326.174 16.2L325.257 16.5976L326.215 18.8095L327.104 16.5686L326.174 16.2ZM329.974 11.7L330.491 12.5561L329.974 11.7ZM335.874 11.1C337.863 11.1 339.596 11.5182 341.099 12.3299L342.049 10.5701C340.219 9.58175 338.152 9.1 335.874 9.1V11.1ZM341.113 12.3372C342.591 13.1057 343.768 14.2742 344.647 15.88L346.401 14.92C345.347 12.9925 343.891 11.5276 342.036 10.5628L341.113 12.3372ZM344.647 15.88C345.515 17.4663 345.974 19.442 345.974 21.85H347.974C347.974 19.1914 347.467 16.8671 346.401 14.92L344.647 15.88ZM345.974 21.85V38H347.974V21.85H345.974ZM346.974 37H342.474V39H346.974V37ZM343.474 38V22.5H341.474V38H343.474ZM343.474 22.5C343.474 19.6086 342.75 17.2403 341.148 15.5599L339.7 16.9401C340.832 18.1264 341.474 19.9247 341.474 22.5H343.474ZM341.164 15.5773C339.61 13.8681 337.506 13.05 334.974 13.05V15.05C337.042 15.05 338.571 15.6986 339.684 16.9227L341.164 15.5773ZM334.974 13.05C332.37 13.05 330.203 13.9049 328.586 15.6757L330.063 17.0243C331.246 15.7284 332.845 15.05 334.974 15.05V13.05ZM328.593 15.6677C326.962 17.4155 326.224 19.8812 326.224 22.9H328.224C328.224 20.1855 328.887 18.2845 330.055 17.0323L328.593 15.6677ZM326.224 22.9V38H328.224V22.9H326.224ZM327.224 37H322.724V39H327.224V37ZM323.724 38V22.5H321.724V38H323.724ZM323.724 22.5C323.724 19.6086 323 17.2403 321.398 15.5599L319.95 16.9401C321.082 18.1264 321.724 19.9247 321.724 22.5H323.724ZM321.414 15.5773C319.86 13.8681 317.756 13.05 315.224 13.05V15.05C317.292 15.05 318.821 15.6986 319.934 16.9227L321.414 15.5773ZM315.224 13.05C312.62 13.05 310.453 13.9049 308.836 15.6757L310.313 17.0243C311.496 15.7284 313.095 15.05 315.224 15.05V13.05ZM308.843 15.6677C307.212 17.4155 306.474 19.8812 306.474 22.9H308.474C308.474 20.1855 309.137 18.2845 310.305 17.0323L308.843 15.6677ZM306.474 22.9V38H308.474V22.9H306.474ZM307.474 37H302.924V39H307.474V37ZM303.924 38V10.6H301.924V38H303.924ZM302.924 11.6H307.474V9.6H302.924V11.6ZM306.474 10.6V14.55H308.474V10.6H306.474ZM308.321 15.0818C309.126 13.8004 310.191 12.8246 311.529 12.1404L310.619 10.3596C308.958 11.2087 307.623 12.433 306.627 14.0182L308.321 15.0818ZM311.521 12.1444C312.906 11.452 314.435 11.1 316.124 11.1V9.1C314.147 9.1 312.309 9.51471 310.627 10.3556L311.521 12.1444ZM316.124 11.1C318.269 11.1 320.124 11.5801 321.719 12.5132L322.729 10.7868C320.791 9.65319 318.579 9.1 316.124 9.1V11.1ZM321.719 12.5132C323.29 13.432 324.469 14.7793 325.257 16.5976L327.092 15.8024C326.146 13.6207 324.692 11.9347 322.729 10.7868L321.719 12.5132ZM327.104 16.5686C327.791 14.8368 328.913 13.5088 330.491 12.5561L329.457 10.8439C327.502 12.0245 326.091 13.6965 325.245 15.8314L327.104 16.5686ZM330.491 12.5561C332.094 11.5884 333.88 11.1 335.874 11.1V9.1C333.535 9.1 331.388 9.67831 329.457 10.8439L330.491 12.5561ZM354.438 16.85L355.318 17.3249L355.321 17.3192L354.438 16.85ZM359.088 11.9L358.584 11.0362L358.578 11.0399L359.088 11.9ZM371.988 11.7L371.483 12.5632L371.988 11.7ZM375.938 15.6L375.063 16.0841L376.938 15.6H375.938ZM375.938 10.6V9.6H374.938V10.6H375.938ZM380.538 10.6H381.538V9.6H380.538V10.6ZM380.538 38V39H381.538V38H380.538ZM375.938 38H374.938V39H375.938V38ZM375.938 32.9H376.938V29.0825L375.066 32.4097L375.938 32.9ZM371.888 36.9L372.393 37.7632L372.398 37.7603L371.888 36.9ZM359.088 36.65L358.567 37.5036L359.088 36.65ZM354.438 31.6L355.324 31.1365L354.438 31.6ZM371.288 15.35L370.776 16.2093L370.788 16.2164L370.801 16.2232L371.288 15.35ZM361.988 15.3L361.492 14.4318L361.988 15.3ZM358.638 18.8L359.517 19.2775L358.638 18.8ZM358.638 29.7L357.755 30.1696L357.759 30.1775L358.638 29.7ZM361.988 33.25L361.476 34.1093L361.484 34.1138L361.492 34.1182L361.988 33.25ZM371.288 33.25L371.784 34.1183L371.791 34.1145L371.288 33.25ZM374.688 29.7L375.567 30.1775L375.571 30.1696L374.688 29.7ZM353.738 24.2C353.738 21.537 354.276 19.2556 355.318 17.3249L353.558 16.3751C352.333 18.6444 351.738 21.263 351.738 24.2H353.738ZM355.321 17.3192C356.373 15.3383 357.798 13.8277 359.598 12.7601L358.578 11.0399C356.444 12.3056 354.769 14.095 353.555 16.3808L355.321 17.3192ZM359.592 12.7638C361.431 11.6909 363.472 11.15 365.738 11.15V9.15C363.137 9.15 360.745 9.77573 358.584 11.0362L359.592 12.7638ZM365.738 11.15C367.991 11.15 369.894 11.6339 371.483 12.5632L372.493 10.8368C370.548 9.69947 368.284 9.15 365.738 9.15V11.15ZM371.483 12.5632C373.117 13.519 374.295 14.6962 375.063 16.0841L376.813 15.1159C375.847 13.3705 374.392 11.9477 372.493 10.8368L371.483 12.5632ZM376.938 15.6V10.6H374.938V15.6H376.938ZM375.938 11.6H380.538V9.6H375.938V11.6ZM379.538 10.6V38H381.538V10.6H379.538ZM380.538 37H375.938V39H380.538V37ZM376.938 38V32.9H374.938V38H376.938ZM375.066 32.4097C374.264 33.8364 373.049 35.0498 371.378 36.0397L372.398 37.7603C374.327 36.6169 375.812 35.1636 376.809 33.3903L375.066 32.4097ZM371.383 36.0368C369.792 36.9674 367.905 37.45 365.688 37.45V39.45C368.204 39.45 370.45 38.8993 372.393 37.7632L371.383 36.0368ZM365.688 37.45C363.428 37.45 361.41 36.8952 359.609 35.7964L358.567 37.5036C360.7 38.8048 363.082 39.45 365.688 39.45V37.45ZM359.609 35.7964C357.807 34.6967 356.379 33.1527 355.324 31.1365L353.552 32.0635C354.764 34.3807 356.436 36.2033 358.567 37.5036L359.609 35.7964ZM355.324 31.1365C354.275 29.1307 353.738 26.8267 353.738 24.2H351.738C351.738 27.1066 352.334 29.7359 353.552 32.0635L355.324 31.1365ZM376.938 24.25C376.938 22.0473 376.493 20.0772 375.567 18.3725L373.809 19.3275C374.549 20.6895 374.938 22.3194 374.938 24.25H376.938ZM375.567 18.3725C374.649 16.6839 373.384 15.3749 371.775 14.4768L370.801 16.2232C372.058 16.9251 373.06 17.9495 373.809 19.3275L375.567 18.3725ZM371.799 14.4907C370.238 13.5612 368.51 13.1 366.638 13.1V15.1C368.166 15.1 369.538 15.4721 370.776 16.2093L371.799 14.4907ZM366.638 13.1C364.774 13.1 363.051 13.5407 361.492 14.4318L362.484 16.1682C363.725 15.4593 365.102 15.1 366.638 15.1V13.1ZM361.492 14.4318C359.917 15.3315 358.674 16.6399 357.759 18.3225L359.517 19.2775C360.269 17.8935 361.259 16.8685 362.484 16.1682L361.492 14.4318ZM357.759 18.3225C356.833 20.0272 356.388 21.9973 356.388 24.2H358.388C358.388 22.2694 358.776 20.6395 359.517 19.2775L357.759 18.3225ZM356.388 24.2C356.388 26.4338 356.832 28.434 357.755 30.1696L359.521 29.2304C358.777 27.8327 358.388 26.1662 358.388 24.2H356.388ZM357.759 30.1775C358.672 31.8571 359.911 33.1775 361.476 34.1093L362.499 32.3907C361.265 31.6559 360.27 30.6095 359.517 29.2225L357.759 30.1775ZM361.492 34.1182C363.051 35.0093 364.774 35.45 366.638 35.45V33.45C365.102 33.45 363.725 33.0907 362.484 32.3818L361.492 34.1182ZM366.638 35.45C368.502 35.45 370.225 35.0093 371.784 34.1182L370.792 32.3818C369.551 33.0907 368.174 33.45 366.638 33.45V35.45ZM371.791 34.1145C373.391 33.1841 374.65 31.863 375.567 30.1775L373.809 29.2225C373.059 30.6036 372.052 31.6492 370.785 32.3855L371.791 34.1145ZM375.571 30.1696C376.493 28.4362 376.938 26.4534 376.938 24.25H374.938C374.938 26.18 374.55 27.8304 373.805 29.2304L375.571 30.1696ZM392.777 15.05H391.777L393.668 15.5048L392.777 15.05ZM396.177 11.4L395.677 10.5341L395.668 10.5391L396.177 11.4ZM401.627 10.1H402.627V9.1H401.627V10.1ZM401.627 14.8V15.8H402.627V14.8H401.627ZM392.777 38V39H393.777V38H392.777ZM388.227 38H387.227V39H388.227V38ZM388.227 10.6V9.6H387.227V10.6H388.227ZM392.777 10.6H393.777V9.6H392.777V10.6ZM393.668 15.5048C394.384 14.1012 395.388 13.0279 396.686 12.2609L395.668 10.5391C394.033 11.5054 392.77 12.8655 391.886 14.5952L393.668 15.5048ZM396.677 12.2659C397.994 11.5053 399.629 11.1 401.627 11.1V9.1C399.358 9.1 397.36 9.56139 395.677 10.5341L396.677 12.2659ZM400.627 10.1V14.8H402.627V10.1H400.627ZM401.627 13.8H400.427V15.8H401.627V13.8ZM400.427 13.8C397.701 13.8 395.479 14.5432 393.954 16.1973C392.444 17.8359 391.777 20.1985 391.777 23.1H393.777C393.777 20.4682 394.385 18.6807 395.425 17.5527C396.45 16.4401 398.053 15.8 400.427 15.8V13.8ZM391.777 23.1V38H393.777V23.1H391.777ZM392.777 37H388.227V39H392.777V37ZM389.227 38V10.6H387.227V38H389.227ZM388.227 11.6H392.777V9.6H388.227V11.6ZM391.777 10.6V15.05H393.777V10.6H391.777Z" fill="black"/>
</svg>
