<svg width="22" height="22" viewBox="0 0 22 22" fill="none" xmlns="http://www.w3.org/2000/svg">
<path d="M22 11.0002C22 10.6978 21.8068 10.4378 21.5242 10.3014L1.43625 0.144246C1.28347 0.05044 1.10142 7.97202e-05 0.914832 0C0.672274 -2.10932e-08 0.439645 0.0843635 0.268092 0.234542C0.0965397 0.38472 0.000108092 0.588419 0 0.80085C0 0.831913 0.00652327 0.861191 0.0106001 0.891183H0V21.2895H0.0106001C0.035167 21.4846 0.14097 21.6649 0.307784 21.796C0.474598 21.9271 0.690719 21.9997 0.914832 22C1.07506 21.9993 1.23221 21.9613 1.37021 21.89L1.37836 21.9025L21.5487 11.7036L21.5405 11.6911C21.6798 11.6215 21.7956 11.521 21.8763 11.3997C21.957 11.2784 21.9997 11.1406 22 11.0002Z" fill="#443B3B"/>
</svg>
