<svg width="74" height="20" viewBox="0 0 74 20" fill="none" xmlns="http://www.w3.org/2000/svg">
<path d="M12.225 15.125H4.625L3.225 19H0.825L7.125 1.675H9.75L16.025 19H13.625L12.225 15.125ZM11.575 13.275L8.425 4.475L5.275 13.275H11.575ZM21.0457 7.85C21.5124 7.03333 22.1957 6.36667 23.0957 5.85C23.9957 5.33333 25.0207 5.075 26.1707 5.075C27.404 5.075 28.5124 5.36667 29.4957 5.95C30.479 6.53333 31.254 7.35833 31.8207 8.425C32.3874 9.475 32.6707 10.7 32.6707 12.1C32.6707 13.4833 32.3874 14.7167 31.8207 15.8C31.254 16.8833 30.4707 17.725 29.4707 18.325C28.4874 18.925 27.3874 19.225 26.1707 19.225C24.9874 19.225 23.9457 18.9667 23.0457 18.45C22.1624 17.9333 21.4957 17.275 21.0457 16.475V19H18.7707V0.5H21.0457V7.85ZM30.3457 12.1C30.3457 11.0667 30.1374 10.1667 29.7207 9.4C29.304 8.63333 28.7374 8.05 28.0207 7.65C27.3207 7.25 26.5457 7.05 25.6957 7.05C24.8624 7.05 24.0874 7.25833 23.3707 7.675C22.6707 8.075 22.104 8.66667 21.6707 9.45C21.254 10.2167 21.0457 11.1083 21.0457 12.125C21.0457 13.1583 21.254 14.0667 21.6707 14.85C22.104 15.6167 22.6707 16.2083 23.3707 16.625C24.0874 17.025 24.8624 17.225 25.6957 17.225C26.5457 17.225 27.3207 17.025 28.0207 16.625C28.7374 16.2083 29.304 15.6167 29.7207 14.85C30.1374 14.0667 30.3457 13.15 30.3457 12.1ZM41.6402 19.225C40.3569 19.225 39.1902 18.9333 38.1402 18.35C37.1069 17.7667 36.2902 16.9417 35.6902 15.875C35.1069 14.7917 34.8152 13.5417 34.8152 12.125C34.8152 10.725 35.1152 9.49167 35.7152 8.425C36.3319 7.34167 37.1652 6.51667 38.2152 5.95C39.2652 5.36667 40.4402 5.075 41.7402 5.075C43.0402 5.075 44.2152 5.36667 45.2652 5.95C46.3152 6.51667 47.1402 7.33333 47.7402 8.4C48.3569 9.46667 48.6652 10.7083 48.6652 12.125C48.6652 13.5417 48.3486 14.7917 47.7152 15.875C47.0986 16.9417 46.2569 17.7667 45.1902 18.35C44.1236 18.9333 42.9402 19.225 41.6402 19.225ZM41.6402 17.225C42.4569 17.225 43.2236 17.0333 43.9402 16.65C44.6569 16.2667 45.2319 15.6917 45.6652 14.925C46.1152 14.1583 46.3402 13.225 46.3402 12.125C46.3402 11.025 46.1236 10.0917 45.6902 9.325C45.2569 8.55833 44.6902 7.99167 43.9902 7.625C43.2902 7.24167 42.5319 7.05 41.7152 7.05C40.8819 7.05 40.1152 7.24167 39.4152 7.625C38.7319 7.99167 38.1819 8.55833 37.7652 9.325C37.3486 10.0917 37.1402 11.025 37.1402 12.125C37.1402 13.2417 37.3402 14.1833 37.7402 14.95C38.1569 15.7167 38.7069 16.2917 39.3902 16.675C40.0736 17.0417 40.8236 17.225 41.6402 17.225ZM63.8064 5.3V19H61.5314V16.975C61.0981 17.675 60.4898 18.225 59.7064 18.625C58.9398 19.0083 58.0898 19.2 57.1564 19.2C56.0898 19.2 55.1314 18.9833 54.2814 18.55C53.4314 18.1 52.7564 17.4333 52.2564 16.55C51.7731 15.6667 51.5314 14.5917 51.5314 13.325V5.3H53.7814V13.025C53.7814 14.375 54.1231 15.4167 54.8064 16.15C55.4898 16.8667 56.4231 17.225 57.6064 17.225C58.8231 17.225 59.7814 16.85 60.4814 16.1C61.1814 15.35 61.5314 14.2583 61.5314 12.825V5.3H63.8064ZM70.4227 7.175V15.25C70.4227 15.9167 70.5643 16.3917 70.8477 16.675C71.131 16.9417 71.6227 17.075 72.3227 17.075H73.9977V19H71.9477C70.681 19 69.731 18.7083 69.0977 18.125C68.4643 17.5417 68.1477 16.5833 68.1477 15.25V7.175H66.3727V5.3H68.1477V1.85H70.4227V5.3H73.9977V7.175H70.4227Z" fill="#F3EAEA"/>
</svg>
