<svg width="176" height="20" viewBox="0 0 176 20" fill="none" xmlns="http://www.w3.org/2000/svg">
<path d="M10.375 19L3.2 11.05V19H0.925V1.575H3.2V9.65L10.4 1.575H13.275L5.375 10.3L13.35 19H10.375ZM28.3908 11.625C28.3908 12.0583 28.3658 12.5167 28.3158 13H17.3658C17.4492 14.35 17.9075 15.4083 18.7408 16.175C19.5908 16.925 20.6158 17.3 21.8158 17.3C22.7992 17.3 23.6158 17.075 24.2658 16.625C24.9325 16.1583 25.3992 15.5417 25.6658 14.775H28.1158C27.7492 16.0917 27.0158 17.1667 25.9158 18C24.8158 18.8167 23.4492 19.225 21.8158 19.225C20.5158 19.225 19.3492 18.9333 18.3158 18.35C17.2992 17.7667 16.4992 16.9417 15.9158 15.875C15.3325 14.7917 15.0408 13.5417 15.0408 12.125C15.0408 10.7083 15.3242 9.46667 15.8908 8.4C16.4575 7.33333 17.2492 6.51667 18.2658 5.95C19.2992 5.36667 20.4825 5.075 21.8158 5.075C23.1158 5.075 24.2658 5.35833 25.2658 5.925C26.2658 6.49167 27.0325 7.275 27.5658 8.275C28.1158 9.25833 28.3908 10.375 28.3908 11.625ZM26.0408 11.15C26.0408 10.2833 25.8492 9.54167 25.4658 8.925C25.0825 8.29167 24.5575 7.81667 23.8908 7.5C23.2408 7.16667 22.5158 7 21.7158 7C20.5658 7 19.5825 7.36667 18.7658 8.1C17.9658 8.83333 17.5075 9.85 17.3908 11.15H26.0408ZM33.6688 0.5V19H31.3938V0.5H33.6688ZM39.8211 0.5V19H37.5461V0.5H39.8211ZM56.1984 11.625C56.1984 12.0583 56.1734 12.5167 56.1234 13H45.1734C45.2568 14.35 45.7151 15.4083 46.5484 16.175C47.3984 16.925 48.4234 17.3 49.6234 17.3C50.6068 17.3 51.4234 17.075 52.0734 16.625C52.7401 16.1583 53.2068 15.5417 53.4734 14.775H55.9234C55.5568 16.0917 54.8234 17.1667 53.7234 18C52.6234 18.8167 51.2568 19.225 49.6234 19.225C48.3234 19.225 47.1568 18.9333 46.1234 18.35C45.1068 17.7667 44.3068 16.9417 43.7234 15.875C43.1401 14.7917 42.8484 13.5417 42.8484 12.125C42.8484 10.7083 43.1318 9.46667 43.6984 8.4C44.2651 7.33333 45.0568 6.51667 46.0734 5.95C47.1068 5.36667 48.2901 5.075 49.6234 5.075C50.9234 5.075 52.0734 5.35833 53.0734 5.925C54.0734 6.49167 54.8401 7.275 55.3734 8.275C55.9234 9.25833 56.1984 10.375 56.1984 11.625ZM53.8484 11.15C53.8484 10.2833 53.6568 9.54167 53.2734 8.925C52.8901 8.29167 52.3651 7.81667 51.6984 7.5C51.0484 7.16667 50.3234 7 49.5234 7C48.3734 7 47.3901 7.36667 46.5734 8.1C45.7734 8.83333 45.3151 9.85 45.1984 11.15H53.8484ZM61.4764 7.525C61.8764 6.74167 62.443 6.13333 63.1764 5.7C63.9264 5.26667 64.8347 5.05 65.9014 5.05V7.4H65.3014C62.7514 7.4 61.4764 8.78333 61.4764 11.55V19H59.2014V5.3H61.4764V7.525ZM67.6775 12.1C67.6775 10.7 67.9609 9.475 68.5275 8.425C69.0942 7.35833 69.8692 6.53333 70.8525 5.95C71.8525 5.36667 72.9609 5.075 74.1775 5.075C75.3775 5.075 76.4192 5.33333 77.3025 5.85C78.1859 6.36667 78.8442 7.01667 79.2775 7.8V5.3H81.5775V19H79.2775V16.45C78.8275 17.25 78.1525 17.9167 77.2525 18.45C76.3692 18.9667 75.3359 19.225 74.1525 19.225C72.9359 19.225 71.8359 18.925 70.8525 18.325C69.8692 17.725 69.0942 16.8833 68.5275 15.8C67.9609 14.7167 67.6775 13.4833 67.6775 12.1ZM79.2775 12.125C79.2775 11.0917 79.0692 10.1917 78.6525 9.425C78.2359 8.65833 77.6692 8.075 76.9525 7.675C76.2525 7.25833 75.4775 7.05 74.6275 7.05C73.7775 7.05 73.0025 7.25 72.3025 7.65C71.6025 8.05 71.0442 8.63333 70.6275 9.4C70.2109 10.1667 70.0025 11.0667 70.0025 12.1C70.0025 13.15 70.2109 14.0667 70.6275 14.85C71.0442 15.6167 71.6025 16.2083 72.3025 16.625C73.0025 17.025 73.7775 17.225 74.6275 17.225C75.4775 17.225 76.2525 17.025 76.9525 16.625C77.6692 16.2083 78.2359 15.6167 78.6525 14.85C79.0692 14.0667 79.2775 13.1583 79.2775 12.125ZM97.5721 5.3V19H95.2971V16.975C94.8637 17.675 94.2554 18.225 93.4721 18.625C92.7054 19.0083 91.8554 19.2 90.9221 19.2C89.8554 19.2 88.8971 18.9833 88.0471 18.55C87.1971 18.1 86.5221 17.4333 86.0221 16.55C85.5387 15.6667 85.2971 14.5917 85.2971 13.325V5.3H87.5471V13.025C87.5471 14.375 87.8887 15.4167 88.5721 16.15C89.2554 16.8667 90.1887 17.225 91.3721 17.225C92.5887 17.225 93.5471 16.85 94.2471 16.1C94.9471 15.35 95.2971 14.2583 95.2971 12.825V5.3H97.5721ZM104.188 7.175V15.25C104.188 15.9167 104.33 16.3917 104.613 16.675C104.897 16.9417 105.388 17.075 106.088 17.075H107.763V19H105.713C104.447 19 103.497 18.7083 102.863 18.125C102.23 17.5417 101.913 16.5833 101.913 15.25V7.175H100.138V5.3H101.913V1.85H104.188V5.3H107.763V7.175H104.188ZM116.495 19.225C115.211 19.225 114.045 18.9333 112.995 18.35C111.961 17.7667 111.145 16.9417 110.545 15.875C109.961 14.7917 109.67 13.5417 109.67 12.125C109.67 10.725 109.97 9.49167 110.57 8.425C111.186 7.34167 112.02 6.51667 113.07 5.95C114.12 5.36667 115.295 5.075 116.595 5.075C117.895 5.075 119.07 5.36667 120.12 5.95C121.17 6.51667 121.995 7.33333 122.595 8.4C123.211 9.46667 123.52 10.7083 123.52 12.125C123.52 13.5417 123.203 14.7917 122.57 15.875C121.953 16.9417 121.111 17.7667 120.045 18.35C118.978 18.9333 117.795 19.225 116.495 19.225ZM116.495 17.225C117.311 17.225 118.078 17.0333 118.795 16.65C119.511 16.2667 120.086 15.6917 120.52 14.925C120.97 14.1583 121.195 13.225 121.195 12.125C121.195 11.025 120.978 10.0917 120.545 9.325C120.111 8.55833 119.545 7.99167 118.845 7.625C118.145 7.24167 117.386 7.05 116.57 7.05C115.736 7.05 114.97 7.24167 114.27 7.625C113.586 7.99167 113.036 8.55833 112.62 9.325C112.203 10.0917 111.995 11.025 111.995 12.125C111.995 13.2417 112.195 14.1833 112.595 14.95C113.011 15.7167 113.561 16.2917 114.245 16.675C114.928 17.0417 115.678 17.225 116.495 17.225ZM142.986 5.05C144.053 5.05 145.003 5.275 145.836 5.725C146.669 6.15833 147.328 6.81667 147.811 7.7C148.294 8.58333 148.536 9.65833 148.536 10.925V19H146.286V11.25C146.286 9.88333 145.944 8.84167 145.261 8.125C144.594 7.39167 143.686 7.025 142.536 7.025C141.353 7.025 140.411 7.40833 139.711 8.175C139.011 8.925 138.661 10.0167 138.661 11.45V19H136.411V11.25C136.411 9.88333 136.069 8.84167 135.386 8.125C134.719 7.39167 133.811 7.025 132.661 7.025C131.478 7.025 130.536 7.40833 129.836 8.175C129.136 8.925 128.786 10.0167 128.786 11.45V19H126.511V5.3H128.786V7.275C129.236 6.55833 129.836 6.00833 130.586 5.625C131.353 5.24167 132.194 5.05 133.111 5.05C134.261 5.05 135.278 5.30833 136.161 5.825C137.044 6.34167 137.703 7.1 138.136 8.1C138.519 7.13333 139.153 6.38333 140.036 5.85C140.919 5.31667 141.903 5.05 142.986 5.05ZM151.418 12.1C151.418 10.7 151.701 9.475 152.268 8.425C152.834 7.35833 153.609 6.53333 154.593 5.95C155.593 5.36667 156.701 5.075 157.918 5.075C159.118 5.075 160.159 5.33333 161.043 5.85C161.926 6.36667 162.584 7.01667 163.018 7.8V5.3H165.318V19H163.018V16.45C162.568 17.25 161.893 17.9167 160.993 18.45C160.109 18.9667 159.076 19.225 157.893 19.225C156.676 19.225 155.576 18.925 154.593 18.325C153.609 17.725 152.834 16.8833 152.268 15.8C151.701 14.7167 151.418 13.4833 151.418 12.1ZM163.018 12.125C163.018 11.0917 162.809 10.1917 162.393 9.425C161.976 8.65833 161.409 8.075 160.693 7.675C159.993 7.25833 159.218 7.05 158.368 7.05C157.518 7.05 156.743 7.25 156.043 7.65C155.343 8.05 154.784 8.63333 154.368 9.4C153.951 10.1667 153.743 11.0667 153.743 12.1C153.743 13.15 153.951 14.0667 154.368 14.85C154.784 15.6167 155.343 16.2083 156.043 16.625C156.743 17.025 157.518 17.225 158.368 17.225C159.218 17.225 159.993 17.025 160.693 16.625C161.409 16.2083 161.976 15.6167 162.393 14.85C162.809 14.0667 163.018 13.1583 163.018 12.125ZM171.937 7.175V15.25C171.937 15.9167 172.079 16.3917 172.362 16.675C172.646 16.9417 173.137 17.075 173.837 17.075H175.512V19H173.462C172.196 19 171.246 18.7083 170.612 18.125C169.979 17.5417 169.662 16.5833 169.662 15.25V7.175H167.887V5.3H169.662V1.85H171.937V5.3H175.512V7.175H171.937Z" fill="#F3EAEA"/>
</svg>
