<svg width="472" height="34" viewBox="0 0 472 34" fill="none" xmlns="http://www.w3.org/2000/svg">
<g filter="url(#filter0_d)">
<path d="M20.71 0.604999V3.195H14.06V25H10.875V3.195H4.19V0.604999H20.71ZM43.4255 0.604999V25H40.2405V13.94H27.8155V25H24.6305V0.604999H27.8155V11.315H40.2405V0.604999H43.4255ZM52.0489 3.195V11.35H60.9389V13.975H52.0489V22.375H61.9889V25H48.8639V0.57H61.9889V3.195H52.0489ZM77.8683 25.245C75.6049 25.245 73.5399 24.72 71.6733 23.67C69.8066 22.5967 68.3249 21.115 67.2283 19.225C66.1549 17.3117 65.6183 15.165 65.6183 12.785C65.6183 10.405 66.1549 8.27 67.2283 6.38C68.3249 4.46667 69.8066 2.985 71.6733 1.935C73.5399 0.861665 75.6049 0.324998 77.8683 0.324998C80.1549 0.324998 82.2316 0.861665 84.0983 1.935C85.9649 2.985 87.4349 4.455 88.5083 6.345C89.5816 8.235 90.1183 10.3817 90.1183 12.785C90.1183 15.1883 89.5816 17.335 88.5083 19.225C87.4349 21.115 85.9649 22.5967 84.0983 23.67C82.2316 24.72 80.1549 25.245 77.8683 25.245ZM77.8683 22.48C79.5716 22.48 81.0999 22.0833 82.4533 21.29C83.8299 20.4967 84.9033 19.365 85.6733 17.895C86.4666 16.425 86.8633 14.7217 86.8633 12.785C86.8633 10.825 86.4666 9.12167 85.6733 7.675C84.9033 6.205 83.8416 5.07333 82.4883 4.28C81.1349 3.48667 79.5949 3.09 77.8683 3.09C76.1416 3.09 74.6016 3.48667 73.2483 4.28C71.8949 5.07333 70.8216 6.205 70.0283 7.675C69.2583 9.12167 68.8733 10.825 68.8733 12.785C68.8733 14.7217 69.2583 16.425 70.0283 17.895C70.8216 19.365 71.8949 20.4967 73.2483 21.29C74.6249 22.0833 76.1649 22.48 77.8683 22.48ZM107.168 25L101.358 15.025H97.5079V25H94.3229V0.604999H102.198C104.041 0.604999 105.593 0.919999 106.853 1.55C108.136 2.18 109.093 3.03167 109.723 4.105C110.353 5.17833 110.668 6.40333 110.668 7.78C110.668 9.46 110.178 10.9417 109.198 12.225C108.241 13.5083 106.795 14.36 104.858 14.78L110.983 25H107.168ZM97.5079 12.47H102.198C103.925 12.47 105.22 12.05 106.083 11.21C106.946 10.3467 107.378 9.20333 107.378 7.78C107.378 6.33333 106.946 5.21333 106.083 4.42C105.243 3.62667 103.948 3.23 102.198 3.23H97.5079V12.47ZM118.802 3.195V11.35H127.692V13.975H118.802V22.375H128.742V25H115.617V0.57H128.742V3.195H118.802ZM148.576 0.604999V3.195H141.926V25H138.741V3.195H132.056V0.604999H148.576ZM155.682 0.604999V25H152.497V0.604999H155.682ZM168.845 25.245C167.235 25.245 165.788 24.965 164.505 24.405C163.245 23.8217 162.253 23.0283 161.53 22.025C160.807 20.9983 160.433 19.82 160.41 18.49H163.805C163.922 19.6333 164.388 20.6017 165.205 21.395C166.045 22.165 167.258 22.55 168.845 22.55C170.362 22.55 171.552 22.1767 172.415 21.43C173.302 20.66 173.745 19.68 173.745 18.49C173.745 17.5567 173.488 16.7983 172.975 16.215C172.462 15.6317 171.82 15.1883 171.05 14.885C170.28 14.5817 169.242 14.255 167.935 13.905C166.325 13.485 165.03 13.065 164.05 12.645C163.093 12.225 162.265 11.5717 161.565 10.685C160.888 9.775 160.55 8.56167 160.55 7.045C160.55 5.715 160.888 4.53667 161.565 3.51C162.242 2.48333 163.187 1.69 164.4 1.13C165.637 0.569999 167.048 0.289999 168.635 0.289999C170.922 0.289999 172.788 0.861666 174.235 2.005C175.705 3.14833 176.533 4.665 176.72 6.555H173.22C173.103 5.62167 172.613 4.805 171.75 4.105C170.887 3.38167 169.743 3.02 168.32 3.02C166.99 3.02 165.905 3.37 165.065 4.07C164.225 4.74667 163.805 5.70333 163.805 6.94C163.805 7.82667 164.05 8.55 164.54 9.11C165.053 9.67 165.672 10.1017 166.395 10.405C167.142 10.685 168.18 11.0117 169.51 11.385C171.12 11.8283 172.415 12.2717 173.395 12.715C174.375 13.135 175.215 13.8 175.915 14.71C176.615 15.5967 176.965 16.81 176.965 18.35C176.965 19.54 176.65 20.66 176.02 21.71C175.39 22.76 174.457 23.6117 173.22 24.265C171.983 24.9183 170.525 25.245 168.845 25.245ZM180.462 12.785C180.462 10.405 180.999 8.27 182.072 6.38C183.145 4.46667 184.604 2.97333 186.447 1.9C188.314 0.826666 190.379 0.289999 192.642 0.289999C195.302 0.289999 197.624 0.931666 199.607 2.215C201.59 3.49833 203.037 5.31833 203.947 7.675H200.132C199.455 6.205 198.475 5.07333 197.192 4.28C195.932 3.48667 194.415 3.09 192.642 3.09C190.939 3.09 189.41 3.48667 188.057 4.28C186.704 5.07333 185.642 6.205 184.872 7.675C184.102 9.12167 183.717 10.825 183.717 12.785C183.717 14.7217 184.102 16.425 184.872 17.895C185.642 19.3417 186.704 20.4617 188.057 21.255C189.41 22.0483 190.939 22.445 192.642 22.445C194.415 22.445 195.932 22.06 197.192 21.29C198.475 20.4967 199.455 19.365 200.132 17.895H203.947C203.037 20.2283 201.59 22.0367 199.607 23.32C197.624 24.58 195.302 25.21 192.642 25.21C190.379 25.21 188.314 24.685 186.447 23.635C184.604 22.5617 183.145 21.08 182.072 19.19C180.999 17.3 180.462 15.165 180.462 12.785ZM227.483 0.604999V25H224.298V13.94H211.873V25H208.688V0.604999H211.873V11.315H224.298V0.604999H227.483ZM236.107 3.195V11.35H244.997V13.975H236.107V22.375H246.047V25H232.922V0.57H246.047V3.195H236.107ZM272.713 0.604999V25H269.528V0.604999H272.713ZM297.321 25H294.136L281.326 5.575V25H278.141V0.57H281.326L294.136 19.96V0.57H297.321V25ZM316.541 0.604999V3.195H305.936V11.42H314.546V14.01H305.936V25H302.751V0.604999H316.541ZM331.447 25.245C329.184 25.245 327.119 24.72 325.252 23.67C323.386 22.5967 321.904 21.115 320.807 19.225C319.734 17.3117 319.197 15.165 319.197 12.785C319.197 10.405 319.734 8.27 320.807 6.38C321.904 4.46667 323.386 2.985 325.252 1.935C327.119 0.861665 329.184 0.324998 331.447 0.324998C333.734 0.324998 335.811 0.861665 337.677 1.935C339.544 2.985 341.014 4.455 342.087 6.345C343.161 8.235 343.697 10.3817 343.697 12.785C343.697 15.1883 343.161 17.335 342.087 19.225C341.014 21.115 339.544 22.5967 337.677 23.67C335.811 24.72 333.734 25.245 331.447 25.245ZM331.447 22.48C333.151 22.48 334.679 22.0833 336.032 21.29C337.409 20.4967 338.482 19.365 339.252 17.895C340.046 16.425 340.442 14.7217 340.442 12.785C340.442 10.825 340.046 9.12167 339.252 7.675C338.482 6.205 337.421 5.07333 336.067 4.28C334.714 3.48667 333.174 3.09 331.447 3.09C329.721 3.09 328.181 3.48667 326.827 4.28C325.474 5.07333 324.401 6.205 323.607 7.675C322.837 9.12167 322.452 10.825 322.452 12.785C322.452 14.7217 322.837 16.425 323.607 17.895C324.401 19.365 325.474 20.4967 326.827 21.29C328.204 22.0833 329.744 22.48 331.447 22.48ZM360.747 25L354.937 15.025H351.087V25H347.902V0.604999H355.777C357.62 0.604999 359.172 0.919999 360.432 1.55C361.715 2.18 362.672 3.03167 363.302 4.105C363.932 5.17833 364.247 6.40333 364.247 7.78C364.247 9.46 363.757 10.9417 362.777 12.225C361.82 13.5083 360.374 14.36 358.437 14.78L364.562 25H360.747ZM351.087 12.47H355.777C357.504 12.47 358.799 12.05 359.662 11.21C360.525 10.3467 360.957 9.20333 360.957 7.78C360.957 6.33333 360.525 5.21333 359.662 4.42C358.822 3.62667 357.527 3.23 355.777 3.23H351.087V12.47ZM393.941 0.779999V25H390.756V6.94L382.706 25H380.466L372.381 6.905V25H369.196V0.779999H372.626L381.586 20.8L390.546 0.779999H393.941ZM413.762 19.575H403.122L401.162 25H397.802L406.622 0.744999H410.297L419.082 25H415.722L413.762 19.575ZM412.852 16.985L408.442 4.665L404.032 16.985H412.852ZM437.941 0.604999V3.195H431.291V25H428.106V3.195H421.421V0.604999H437.941ZM445.047 0.604999V25H441.862V0.604999H445.047ZM463.705 25L453.66 13.87V25H450.475V0.604999H453.66V11.91L463.74 0.604999H467.765L456.705 12.82L467.87 25H463.705Z" fill="#F3EAEA"/>
</g>
<defs>
<filter id="filter0_d" x="0.190002" y="0.290009" width="471.68" height="32.955" filterUnits="userSpaceOnUse" color-interpolation-filters="sRGB">
<feFlood flood-opacity="0" result="BackgroundImageFix"/>
<feColorMatrix in="SourceAlpha" type="matrix" values="0 0 0 0 0 0 0 0 0 0 0 0 0 0 0 0 0 0 127 0"/>
<feOffset dy="4"/>
<feGaussianBlur stdDeviation="2"/>
<feColorMatrix type="matrix" values="0 0 0 0 0 0 0 0 0 0 0 0 0 0 0 0 0 0 0.25 0"/>
<feBlend mode="normal" in2="BackgroundImageFix" result="effect1_dropShadow"/>
<feBlend mode="normal" in="SourceGraphic" in2="effect1_dropShadow" result="shape"/>
</filter>
</defs>
</svg>
