<svg width="343" height="75" viewBox="0 0 343 75" fill="none" xmlns="http://www.w3.org/2000/svg">
<g filter="url(#filter0_d)">
<rect x="4.68262" y="0.760498" width="134.192" height="45.9874" rx="22.9937" fill="#F58A8A"/>
</g>
<path d="M26.668 25.7691C27.124 25.8411 27.538 26.0271 27.91 26.3271C28.294 26.6271 28.594 26.9991 28.81 27.4431C29.038 27.8871 29.152 28.3611 29.152 28.8651C29.152 29.5011 28.99 30.0771 28.666 30.5931C28.342 31.0971 27.868 31.4991 27.244 31.7991C26.632 32.0871 25.906 32.2311 25.066 32.2311H20.386V19.6851H24.886C25.738 19.6851 26.464 19.8291 27.064 20.1171C27.664 20.3931 28.114 20.7711 28.414 21.2511C28.714 21.7311 28.864 22.2711 28.864 22.8711C28.864 23.6151 28.66 24.2331 28.252 24.7251C27.856 25.2051 27.328 25.5531 26.668 25.7691ZM22.024 25.1031H24.778C25.546 25.1031 26.14 24.9231 26.56 24.5631C26.98 24.2031 27.19 23.7051 27.19 23.0691C27.19 22.4331 26.98 21.9351 26.56 21.5751C26.14 21.2151 25.534 21.0351 24.742 21.0351H22.024V25.1031ZM24.922 30.8811C25.738 30.8811 26.374 30.6891 26.83 30.3051C27.286 29.9211 27.514 29.3871 27.514 28.7031C27.514 28.0071 27.274 27.4611 26.794 27.0651C26.314 26.6571 25.672 26.4531 24.868 26.4531H22.024V30.8811H24.922ZM39.8131 23.3571C39.8131 24.4011 39.4531 25.2711 38.7331 25.9671C38.0251 26.6511 36.9391 26.9931 35.4751 26.9931H33.0631V32.2311H31.4251V19.6851H35.4751C36.8911 19.6851 37.9651 20.0271 38.6971 20.7111C39.4411 21.3951 39.8131 22.2771 39.8131 23.3571ZM35.4751 25.6431C36.3871 25.6431 37.0591 25.4451 37.4911 25.0491C37.9231 24.6531 38.1391 24.0891 38.1391 23.3571C38.1391 21.8091 37.2511 21.0351 35.4751 21.0351H33.0631V25.6431H35.4751ZM52.2169 19.6851L47.4829 32.2311H45.5929L40.8589 19.6851H42.6049L46.5469 30.5031L50.4889 19.6851H52.2169ZM62.401 23.3571C62.401 24.4011 62.041 25.2711 61.321 25.9671C60.613 26.6511 59.527 26.9931 58.063 26.9931H55.651V32.2311H54.013V19.6851H58.063C59.479 19.6851 60.553 20.0271 61.285 20.7111C62.029 21.3951 62.401 22.2771 62.401 23.3571ZM58.063 25.6431C58.975 25.6431 59.647 25.4451 60.079 25.0491C60.511 24.6531 60.727 24.0891 60.727 23.3571C60.727 21.8091 59.839 21.0351 58.063 21.0351H55.651V25.6431H58.063ZM68.4148 32.3571C67.5868 32.3571 66.8428 32.2131 66.1828 31.9251C65.5348 31.6251 65.0248 31.2171 64.6528 30.7011C64.2808 30.1731 64.0888 29.5671 64.0768 28.8831H65.8228C65.8828 29.4711 66.1228 29.9691 66.5428 30.3771C66.9748 30.7731 67.5988 30.9711 68.4148 30.9711C69.1948 30.9711 69.8068 30.7791 70.2508 30.3951C70.7068 29.9991 70.9348 29.4951 70.9348 28.8831C70.9348 28.4031 70.8028 28.0131 70.5388 27.7131C70.2748 27.4131 69.9448 27.1851 69.5488 27.0291C69.1528 26.8731 68.6188 26.7051 67.9468 26.5251C67.1188 26.3091 66.4528 26.0931 65.9488 25.8771C65.4568 25.6611 65.0308 25.3251 64.6708 24.8691C64.3228 24.4011 64.1488 23.7771 64.1488 22.9971C64.1488 22.3131 64.3228 21.7071 64.6708 21.1791C65.0188 20.6511 65.5048 20.2431 66.1288 19.9551C66.7648 19.6671 67.4908 19.5231 68.3068 19.5231C69.4828 19.5231 70.4428 19.8171 71.1868 20.4051C71.9428 20.9931 72.3688 21.7731 72.4648 22.7451H70.6648C70.6048 22.2651 70.3528 21.8451 69.9088 21.4851C69.4648 21.1131 68.8768 20.9271 68.1448 20.9271C67.4608 20.9271 66.9028 21.1071 66.4708 21.4671C66.0388 21.8151 65.8228 22.3071 65.8228 22.9431C65.8228 23.3991 65.9488 23.7711 66.2008 24.0591C66.4648 24.3471 66.7828 24.5691 67.1548 24.7251C67.5388 24.8691 68.0728 25.0371 68.7568 25.2291C69.5848 25.4571 70.2508 25.6851 70.7548 25.9131C71.2588 26.1291 71.6908 26.4711 72.0508 26.9391C72.4108 27.3951 72.5908 28.0191 72.5908 28.8111C72.5908 29.4231 72.4288 29.9991 72.1048 30.5391C71.7808 31.0791 71.3008 31.5171 70.6648 31.8531C70.0288 32.1891 69.2788 32.3571 68.4148 32.3571ZM82.7232 19.6851V21.0171H79.3032V32.2311H77.6652V21.0171H74.2272V19.6851H82.7232Z" fill="#443B3B"/>
<path d="M26.668 25.7691L26.357 24.8187L26.512 26.7568L26.668 25.7691ZM27.91 26.3271L27.2822 27.1055L27.2883 27.1103L27.2944 27.1151L27.91 26.3271ZM28.81 27.4431L27.9108 27.8805L27.9155 27.8903L27.9204 27.8999L28.81 27.4431ZM28.666 30.5931L29.5072 31.1339L29.5129 31.1248L28.666 30.5931ZM27.244 31.7991L27.6698 32.7039L27.6773 32.7003L27.244 31.7991ZM20.386 32.2311H19.386V33.2311H20.386V32.2311ZM20.386 19.6851V18.6851H19.386V19.6851H20.386ZM27.064 20.1171L26.6313 21.0186L26.6387 21.0221L26.6461 21.0256L27.064 20.1171ZM28.414 21.2511L27.566 21.7811L27.566 21.7811L28.414 21.2511ZM28.252 24.7251L27.4822 24.0867L27.4806 24.0887L28.252 24.7251ZM22.024 25.1031H21.024V26.1031H22.024V25.1031ZM26.56 21.5751L25.9092 22.3343L25.9092 22.3343L26.56 21.5751ZM22.024 21.0351V20.0351H21.024V21.0351H22.024ZM26.83 30.3051L27.4741 31.07L27.4741 31.07L26.83 30.3051ZM26.794 27.0651L26.1464 27.827L26.152 27.8318L26.1576 27.8365L26.794 27.0651ZM22.024 26.4531V25.4531H21.024V26.4531H22.024ZM22.024 30.8811H21.024V31.8811H22.024V30.8811ZM26.512 26.7568C26.7889 26.8006 27.0415 26.9113 27.2822 27.1055L28.5378 25.5487C28.0345 25.1428 27.4591 24.8816 26.824 24.7813L26.512 26.7568ZM27.2944 27.1151C27.5567 27.3201 27.7605 27.5716 27.9108 27.8805L29.7092 27.0056C29.4275 26.4266 29.0313 25.9341 28.5256 25.5391L27.2944 27.1151ZM27.9204 27.8999C28.0751 28.2011 28.152 28.5183 28.152 28.8651H30.152C30.152 28.2038 30.0009 27.573 29.6996 26.9863L27.9204 27.8999ZM28.152 28.8651C28.152 29.3216 28.0386 29.7118 27.8191 30.0613L29.5129 31.1248C29.9414 30.4423 30.152 29.6805 30.152 28.8651H28.152ZM27.8248 30.0523C27.6156 30.3778 27.2944 30.6653 26.8107 30.8978L27.6773 32.7003C28.4416 32.3329 29.0684 31.8163 29.5072 31.1338L27.8248 30.0523ZM26.8182 30.8943C26.3676 31.1063 25.7935 31.2311 25.066 31.2311V33.2311C26.0185 33.2311 26.8964 33.0678 27.6698 32.7039L26.8182 30.8943ZM25.066 31.2311H20.386V33.2311H25.066V31.2311ZM21.386 32.2311V19.6851H19.386V32.2311H21.386ZM20.386 20.6851H24.886V18.6851H20.386V20.6851ZM24.886 20.6851C25.6288 20.6851 26.1987 20.8109 26.6313 21.0186L27.4967 19.2156C26.7293 18.8472 25.8472 18.6851 24.886 18.6851V20.6851ZM26.6461 21.0256C27.0991 21.2339 27.3857 21.4926 27.566 21.7811L29.262 20.7211C28.8423 20.0496 28.2289 19.5522 27.4819 19.2086L26.6461 21.0256ZM27.566 21.7811C27.7606 22.0925 27.864 22.4467 27.864 22.8711H29.864C29.864 22.0954 29.6674 21.3697 29.262 20.7211L27.566 21.7811ZM27.864 22.8711C27.864 23.4222 27.7177 23.8029 27.4822 24.0867L29.0218 25.3634C29.6024 24.6633 29.864 23.808 29.864 22.8711H27.864ZM27.4806 24.0887C27.2189 24.406 26.8584 24.6546 26.357 24.8187L26.979 26.7195C27.7976 26.4516 28.4931 26.0042 29.0234 25.3615L27.4806 24.0887ZM22.024 26.1031H24.778V24.1031H22.024V26.1031ZM24.778 26.1031C25.6924 26.1031 26.55 25.8887 27.2108 25.3223L25.9092 23.8038C25.73 23.9574 25.3996 24.1031 24.778 24.1031V26.1031ZM27.2108 25.3223C27.8869 24.7428 28.19 23.9484 28.19 23.0691H26.19C26.19 23.4618 26.0731 23.6633 25.9092 23.8038L27.2108 25.3223ZM28.19 23.0691C28.19 22.1898 27.8869 21.3953 27.2108 20.8158L25.9092 22.3343C26.0731 22.4748 26.19 22.6764 26.19 23.0691H28.19ZM27.2108 20.8158C26.5451 20.2452 25.6713 20.0351 24.742 20.0351V22.0351C25.3967 22.0351 25.7349 22.1849 25.9092 22.3343L27.2108 20.8158ZM24.742 20.0351H22.024V22.0351H24.742V20.0351ZM21.024 21.0351V25.1031H23.024V21.0351H21.024ZM24.922 31.8811C25.8869 31.8811 26.781 31.6536 27.4741 31.07L26.1859 29.5402C25.967 29.7245 25.5891 29.8811 24.922 29.8811V31.8811ZM27.4741 31.07C28.1904 30.4668 28.514 29.6335 28.514 28.7031H26.514C26.514 29.1406 26.3816 29.3754 26.1859 29.5402L27.4741 31.07ZM28.514 28.7031C28.514 27.7485 28.1698 26.9037 27.4304 26.2937L26.1576 27.8365C26.3782 28.0185 26.514 28.2656 26.514 28.7031H28.514ZM27.4416 26.3031C26.7355 25.7029 25.8421 25.4531 24.868 25.4531V27.4531C25.5019 27.4531 25.8925 27.6112 26.1464 27.827L27.4416 26.3031ZM24.868 25.4531H22.024V27.4531H24.868V25.4531ZM21.024 26.4531V30.8811H23.024V26.4531H21.024ZM22.024 31.8811H24.922V29.8811H22.024V31.8811ZM38.7331 25.9671L39.4279 26.6863L39.4281 26.6861L38.7331 25.9671ZM33.0631 26.9931V25.9931H32.0631V26.9931H33.0631ZM33.0631 32.2311V33.2311H34.0631V32.2311H33.0631ZM31.4251 32.2311H30.4251V33.2311H31.4251V32.2311ZM31.4251 19.6851V18.6851H30.4251V19.6851H31.4251ZM38.6971 20.7111L38.0143 21.4418L38.0203 21.4472L38.6971 20.7111ZM37.4911 25.0491L38.1668 25.7862L38.1668 25.7862L37.4911 25.0491ZM33.0631 21.0351V20.0351H32.0631V21.0351H33.0631ZM33.0631 25.6431H32.0631V26.6431H33.0631V25.6431ZM38.8131 23.3571C38.8131 24.1429 38.554 24.7493 38.038 25.2481L39.4281 26.6861C40.3521 25.7929 40.8131 24.6592 40.8131 23.3571H38.8131ZM38.0383 25.2479C37.5903 25.6806 36.8044 25.9931 35.4751 25.9931V27.9931C37.0737 27.9931 38.4598 27.6215 39.4279 26.6863L38.0383 25.2479ZM35.4751 25.9931H33.0631V27.9931H35.4751V25.9931ZM32.0631 26.9931V32.2311H34.0631V26.9931H32.0631ZM33.0631 31.2311H31.4251V33.2311H33.0631V31.2311ZM32.4251 32.2311V19.6851H30.4251V32.2311H32.4251ZM31.4251 20.6851H35.4751V18.6851H31.4251V20.6851ZM35.4751 20.6851C36.7425 20.6851 37.5321 20.9911 38.0143 21.4417L39.3798 19.9804C38.398 19.063 37.0397 18.6851 35.4751 18.6851V20.6851ZM38.0203 21.4472C38.5429 21.9278 38.8131 22.5353 38.8131 23.3571H40.8131C40.8131 22.0188 40.3392 20.8624 39.3739 19.9749L38.0203 21.4472ZM35.4751 26.6431C36.5035 26.6431 37.4711 26.424 38.1668 25.7862L36.8153 24.3119C36.6471 24.4662 36.2706 24.6431 35.4751 24.6431V26.6431ZM38.1668 25.7862C38.8548 25.1556 39.1391 24.2946 39.1391 23.3571H37.1391C37.1391 23.8836 36.9914 24.1506 36.8153 24.3119L38.1668 25.7862ZM39.1391 23.3571C39.1391 22.3905 38.8555 21.494 38.1301 20.8617C37.4311 20.2524 36.4861 20.0351 35.4751 20.0351V22.0351C36.2401 22.0351 36.6271 22.2047 36.816 22.3694C36.9787 22.5112 37.1391 22.7757 37.1391 23.3571H39.1391ZM35.4751 20.0351H33.0631V22.0351H35.4751V20.0351ZM32.0631 21.0351V25.6431H34.0631V21.0351H32.0631ZM33.0631 26.6431H35.4751V24.6431H33.0631V26.6431ZM52.2169 19.6851L53.1525 20.0381L53.663 18.6851H52.2169V19.6851ZM47.4829 32.2311V33.2311H48.1744L48.4185 32.5841L47.4829 32.2311ZM45.5929 32.2311L44.6573 32.5841L44.9014 33.2311H45.5929V32.2311ZM40.8589 19.6851V18.6851H39.4127L39.9233 20.0381L40.8589 19.6851ZM42.6049 19.6851L43.5445 19.3427L43.3048 18.6851H42.6049V19.6851ZM46.5469 30.5031L45.6073 30.8454L46.5469 33.4239L47.4865 30.8454L46.5469 30.5031ZM50.4889 19.6851V18.6851H49.789L49.5493 19.3427L50.4889 19.6851ZM51.2813 19.332L46.5473 31.878L48.4185 32.5841L53.1525 20.0381L51.2813 19.332ZM47.4829 31.2311H45.5929V33.2311H47.4829V31.2311ZM46.5285 31.878L41.7945 19.332L39.9233 20.0381L44.6573 32.5841L46.5285 31.878ZM40.8589 20.6851H42.6049V18.6851H40.8589V20.6851ZM41.6653 20.0274L45.6073 30.8454L47.4865 30.1607L43.5445 19.3427L41.6653 20.0274ZM47.4865 30.8454L51.4285 20.0274L49.5493 19.3427L45.6073 30.1607L47.4865 30.8454ZM50.4889 20.6851H52.2169V18.6851H50.4889V20.6851ZM61.321 25.9671L62.0158 26.6863L62.016 26.6861L61.321 25.9671ZM55.651 26.9931V25.9931H54.651V26.9931H55.651ZM55.651 32.2311V33.2311H56.651V32.2311H55.651ZM54.013 32.2311H53.013V33.2311H54.013V32.2311ZM54.013 19.6851V18.6851H53.013V19.6851H54.013ZM61.285 20.7111L60.6022 21.4418L60.6082 21.4472L61.285 20.7111ZM60.079 25.0491L60.7547 25.7862L60.7547 25.7862L60.079 25.0491ZM55.651 21.0351V20.0351H54.651V21.0351H55.651ZM55.651 25.6431H54.651V26.6431H55.651V25.6431ZM61.401 23.3571C61.401 24.1429 61.1419 24.7493 60.6259 25.2481L62.016 26.6861C62.94 25.7929 63.401 24.6592 63.401 23.3571H61.401ZM60.6261 25.2479C60.1782 25.6806 59.3923 25.9931 58.063 25.9931V27.9931C59.6616 27.9931 61.0477 27.6215 62.0158 26.6863L60.6261 25.2479ZM58.063 25.9931H55.651V27.9931H58.063V25.9931ZM54.651 26.9931V32.2311H56.651V26.9931H54.651ZM55.651 31.2311H54.013V33.2311H55.651V31.2311ZM55.013 32.2311V19.6851H53.013V32.2311H55.013ZM54.013 20.6851H58.063V18.6851H54.013V20.6851ZM58.063 20.6851C59.3304 20.6851 60.12 20.9911 60.6022 21.4417L61.9677 19.9804C60.9859 19.063 59.6275 18.6851 58.063 18.6851V20.6851ZM60.6082 21.4472C61.1308 21.9278 61.401 22.5353 61.401 23.3571H63.401C63.401 22.0188 62.9271 20.8624 61.9618 19.9749L60.6082 21.4472ZM58.063 26.6431C59.0914 26.6431 60.059 26.424 60.7547 25.7862L59.4032 24.3119C59.2349 24.4662 58.8585 24.6431 58.063 24.6431V26.6431ZM60.7547 25.7862C61.4427 25.1556 61.727 24.2946 61.727 23.3571H59.727C59.727 23.8836 59.5792 24.1506 59.4032 24.3119L60.7547 25.7862ZM61.727 23.3571C61.727 22.3905 61.4433 21.494 60.718 20.8617C60.0189 20.2524 59.0739 20.0351 58.063 20.0351V22.0351C58.828 22.0351 59.215 22.2047 59.4039 22.3694C59.5666 22.5112 59.727 22.7757 59.727 23.3571H61.727ZM58.063 20.0351H55.651V22.0351H58.063V20.0351ZM54.651 21.0351V25.6431H56.651V21.0351H54.651ZM55.651 26.6431H58.063V24.6431H55.651V26.6431ZM66.1828 31.9251L65.7627 32.8325L65.7727 32.8372L65.7828 32.8416L66.1828 31.9251ZM64.6528 30.7011L63.8353 31.2771L63.8416 31.2859L64.6528 30.7011ZM64.0768 28.8831V27.8831H63.0591L63.0769 28.9006L64.0768 28.8831ZM65.8228 28.8831L66.8176 28.7816L66.7259 27.8831H65.8228V28.8831ZM66.5428 30.3771L65.846 31.0944L65.8564 31.1044L65.8671 31.1142L66.5428 30.3771ZM70.2508 30.3951L70.9049 31.1514L70.9065 31.1501L70.2508 30.3951ZM70.5388 27.7131L69.7881 28.3737L69.7881 28.3737L70.5388 27.7131ZM69.5488 27.0291L69.1823 27.9595L69.1823 27.9595L69.5488 27.0291ZM67.9468 26.5251L68.2055 25.5591L68.1992 25.5575L67.9468 26.5251ZM65.9488 25.8771L65.5468 26.7928L65.5549 26.7962L65.9488 25.8771ZM64.6708 24.8691L63.8683 25.4658L63.8769 25.4774L63.8859 25.4887L64.6708 24.8691ZM64.6708 21.1791L65.5057 21.7294L65.5057 21.7294L64.6708 21.1791ZM66.1288 19.9551L65.7163 19.0441L65.7097 19.0471L66.1288 19.9551ZM71.1868 20.4051L70.5667 21.1897L70.5728 21.1944L71.1868 20.4051ZM72.4648 22.7451V23.7451H73.5684L73.4599 22.6468L72.4648 22.7451ZM70.6648 22.7451L69.6725 22.8691L69.782 23.7451H70.6648V22.7451ZM69.9088 21.4851L69.2666 22.2516L69.2727 22.2568L69.279 22.2618L69.9088 21.4851ZM66.4708 21.4671L67.0981 22.2458L67.1046 22.2406L67.111 22.2353L66.4708 21.4671ZM66.2008 24.0591L65.4482 24.7176L65.4558 24.7263L65.4636 24.7348L66.2008 24.0591ZM67.1548 24.7251L66.7681 25.6473L66.7857 25.6547L66.8037 25.6614L67.1548 24.7251ZM68.7568 25.2291L68.4865 26.1919L68.4913 26.1932L68.7568 25.2291ZM70.7548 25.9131L70.3426 26.8242L70.3517 26.8283L70.3609 26.8322L70.7548 25.9131ZM72.0508 26.9391L71.2581 27.5488L71.2659 27.5587L72.0508 26.9391ZM72.1048 30.5391L72.9623 31.0536L72.9623 31.0536L72.1048 30.5391ZM70.6648 31.8531L70.1977 30.9689L70.6648 31.8531ZM68.4148 31.3571C67.7039 31.3571 67.0991 31.2338 66.5827 31.0085L65.7828 32.8416C66.5865 33.1923 67.4696 33.3571 68.4148 33.3571V31.3571ZM66.6029 31.0176C66.0913 30.7808 65.7236 30.4765 65.464 30.1163L63.8416 31.2859C64.3259 31.9577 64.9782 32.4694 65.7627 32.8325L66.6029 31.0176ZM65.4703 30.1251C65.2206 29.7707 65.0853 29.3618 65.0766 28.8655L63.0769 28.9006C63.0922 29.7723 63.341 30.5754 63.8353 31.277L65.4703 30.1251ZM64.0768 29.8831H65.8228V27.8831H64.0768V29.8831ZM64.8279 28.9846C64.9116 29.8041 65.2556 30.5208 65.846 31.0944L67.2396 29.6598C66.9899 29.4173 66.854 29.1381 66.8176 28.7816L64.8279 28.9846ZM65.8671 31.1142C66.5451 31.7358 67.4471 31.9711 68.4148 31.9711V29.9711C67.7504 29.9711 67.4044 29.8104 67.2185 29.6399L65.8671 31.1142ZM68.4148 31.9711C69.355 31.9711 70.2267 31.738 70.9049 31.1514L69.5966 29.6387C69.3869 29.8201 69.0345 29.9711 68.4148 29.9711V31.9711ZM70.9065 31.1501C71.5845 30.5613 71.9348 29.7803 71.9348 28.8831H69.9348C69.9348 29.2099 69.8291 29.4369 69.5951 29.64L70.9065 31.1501ZM71.9348 28.8831C71.9348 28.2112 71.7451 27.5702 71.2895 27.0525L69.7881 28.3737C69.8604 28.456 69.9348 28.5949 69.9348 28.8831H71.9348ZM71.2895 27.0525C70.9139 26.6256 70.4491 26.309 69.9153 26.0987L69.1823 27.9595C69.4405 28.0612 69.6357 28.2006 69.7881 28.3737L71.2895 27.0525ZM69.9153 26.0987C69.4691 25.9229 68.8943 25.7436 68.2055 25.5591L67.688 27.491C68.3433 27.6665 68.8364 27.8233 69.1823 27.9595L69.9153 26.0987ZM68.1992 25.5575C67.396 25.3479 66.7828 25.1466 66.3427 24.9579L65.5549 26.7962C66.1227 27.0396 66.8416 27.2702 67.6944 27.4927L68.1992 25.5575ZM66.3508 24.9614C66.0207 24.8165 65.7226 24.5876 65.4557 24.2494L63.8859 25.4887C64.3389 26.0625 64.8928 26.5056 65.5468 26.7927L66.3508 24.9614ZM65.4732 24.2724C65.2906 24.0268 65.1488 23.634 65.1488 22.9971H63.1488C63.1488 23.9202 63.3549 24.7754 63.8683 25.4658L65.4732 24.2724ZM65.1488 22.9971C65.1488 22.492 65.2742 22.0806 65.5057 21.7294L63.8358 20.6288C63.3713 21.3335 63.1488 22.1341 63.1488 22.9971H65.1488ZM65.5057 21.7294C65.7423 21.3705 66.0779 21.08 66.5478 20.863L65.7097 19.0471C64.9317 19.4062 64.2953 19.9317 63.8358 20.6288L65.5057 21.7294ZM66.5413 20.866C67.0276 20.6458 67.6093 20.5231 68.3068 20.5231V18.5231C67.3723 18.5231 66.5019 18.6884 65.7163 19.0441L66.5413 20.866ZM68.3068 20.5231C69.3131 20.5231 70.0383 20.772 70.5667 21.1896L71.8068 19.6205C70.8473 18.8622 69.6525 18.5231 68.3068 18.5231V20.5231ZM70.5728 21.1944C71.1076 21.6103 71.4 22.1381 71.4696 22.8434L73.4599 22.6468C73.3376 21.408 72.778 20.3758 71.8007 19.6157L70.5728 21.1944ZM72.4648 21.7451H70.6648V23.7451H72.4648V21.7451ZM71.6571 22.621C71.5593 21.8391 71.1442 21.1994 70.5386 20.7083L69.279 22.2618C69.5614 22.4908 69.6503 22.6911 69.6725 22.8691L71.6571 22.621ZM70.551 20.7186C69.8836 20.1594 69.0481 19.9271 68.1448 19.9271V21.9271C68.7055 21.9271 69.0459 22.0667 69.2666 22.2516L70.551 20.7186ZM68.1448 19.9271C67.2794 19.9271 66.4789 20.1586 65.8306 20.6989L67.111 22.2353C67.3267 22.0556 67.6422 21.9271 68.1448 21.9271V19.9271ZM65.8435 20.6883C65.1395 21.2554 64.8228 22.0544 64.8228 22.9431H66.8228C66.8228 22.5598 66.9381 22.3748 67.0981 22.2458L65.8435 20.6883ZM64.8228 22.9431C64.8228 23.5925 65.0073 24.2136 65.4482 24.7176L66.9534 23.4006C66.8903 23.3285 66.8228 23.2057 66.8228 22.9431H64.8228ZM65.4636 24.7348C65.8285 25.1328 66.2673 25.4373 66.7681 25.6473L67.5415 23.8029C67.2983 23.7009 67.1011 23.5613 66.9379 23.3834L65.4636 24.7348ZM66.8037 25.6614C67.2266 25.82 67.7918 25.9969 68.4865 26.1919L69.027 24.2663C68.3537 24.0773 67.851 23.9182 67.5059 23.7887L66.8037 25.6614ZM68.4913 26.1932C69.2933 26.414 69.9045 26.626 70.3426 26.8242L71.1669 25.002C70.5971 24.7442 69.8763 24.5001 69.0223 24.265L68.4913 26.1932ZM70.3609 26.8322C70.6957 26.9757 70.9942 27.2056 71.2582 27.5488L72.8434 26.3294C72.3874 25.7366 71.8219 25.2824 71.1487 24.9939L70.3609 26.8322ZM71.2659 27.5587C71.4435 27.7837 71.5908 28.163 71.5908 28.8111H73.5908C73.5908 27.8752 73.378 27.0064 72.8357 26.3194L71.2659 27.5587ZM71.5908 28.8111C71.5908 29.2364 71.4809 29.6353 71.2473 30.0246L72.9623 31.0536C73.3767 30.3629 73.5908 29.6098 73.5908 28.8111H71.5908ZM71.2473 30.0246C71.03 30.3868 70.6957 30.7058 70.1977 30.9689L71.1319 32.7373C71.9059 32.3284 72.5316 31.7714 72.9623 31.0536L71.2473 30.0246ZM70.1977 30.9689C69.7319 31.215 69.1485 31.3571 68.4148 31.3571V33.3571C69.4091 33.3571 70.3257 33.1632 71.1319 32.7373L70.1977 30.9689ZM82.7232 19.6851H83.7232V18.6851H82.7232V19.6851ZM82.7232 21.0171V22.0171H83.7232V21.0171H82.7232ZM79.3032 21.0171V20.0171H78.3032V21.0171H79.3032ZM79.3032 32.2311V33.2311H80.3032V32.2311H79.3032ZM77.6652 32.2311H76.6652V33.2311H77.6652V32.2311ZM77.6652 21.0171H78.6652V20.0171H77.6652V21.0171ZM74.2272 21.0171H73.2272V22.0171H74.2272V21.0171ZM74.2272 19.6851V18.6851H73.2272V19.6851H74.2272ZM81.7232 19.6851V21.0171H83.7232V19.6851H81.7232ZM82.7232 20.0171H79.3032V22.0171H82.7232V20.0171ZM78.3032 21.0171V32.2311H80.3032V21.0171H78.3032ZM79.3032 31.2311H77.6652V33.2311H79.3032V31.2311ZM78.6652 32.2311V21.0171H76.6652V32.2311H78.6652ZM77.6652 20.0171H74.2272V22.0171H77.6652V20.0171ZM75.2272 21.0171V19.6851H73.2272V21.0171H75.2272ZM74.2272 20.6851H82.7232V18.6851H74.2272V20.6851Z" fill="#443B3B"/>
<path d="M126.681 24.3016C126.681 23.9992 126.488 23.7393 126.205 23.6029L106.117 13.4457C105.964 13.3519 105.782 13.3015 105.596 13.3014C105.353 13.3014 105.121 13.3858 104.949 13.536C104.778 13.6862 104.681 13.8899 104.681 14.1023C104.681 14.1334 104.688 14.1626 104.692 14.1926H104.681V34.5909H104.692C104.716 34.786 104.822 34.9663 104.989 35.0974C105.156 35.2285 105.372 35.3011 105.596 35.3014C105.756 35.3007 105.913 35.2628 106.051 35.1915L106.059 35.204L126.23 25.005L126.222 24.9925C126.361 24.923 126.477 24.8225 126.557 24.7011C126.638 24.5798 126.681 24.442 126.681 24.3016Z" fill="#443B3B"/>
<defs>
<filter id="filter0_d" x="0.682617" y="0.760498" width="142.192" height="53.9874" filterUnits="userSpaceOnUse" color-interpolation-filters="sRGB">
<feFlood flood-opacity="0" result="BackgroundImageFix"/>
<feColorMatrix in="SourceAlpha" type="matrix" values="0 0 0 0 0 0 0 0 0 0 0 0 0 0 0 0 0 0 127 0"/>
<feOffset dy="4"/>
<feGaussianBlur stdDeviation="2"/>
<feColorMatrix type="matrix" values="0 0 0 0 0 0 0 0 0 0 0 0 0 0 0 0 0 0 0.25 0"/>
<feBlend mode="normal" in2="BackgroundImageFix" result="effect1_dropShadow"/>
<feBlend mode="normal" in="SourceGraphic" in2="effect1_dropShadow" result="shape"/>
</filter>
</defs>
</svg>
