<svg width="343" height="75" viewBox="0 0 343 75" fill="none" xmlns="http://www.w3.org/2000/svg">
<g filter="url(#filter0_d)">
<rect x="4.02588" y="0.60083" width="134.192" height="45.9874" rx="22.9937" fill="#9DF5B1"/>
</g>
<path d="M26.3472 22.5002C26.8032 22.5722 27.2172 22.7582 27.5892 23.0582C27.9732 23.3582 28.2732 23.7302 28.4892 24.1742C28.7172 24.6182 28.8312 25.0922 28.8312 25.5962C28.8312 26.2322 28.6692 26.8082 28.3452 27.3242C28.0212 27.8282 27.5472 28.2302 26.9232 28.5302C26.3112 28.8182 25.5852 28.9622 24.7452 28.9622H20.0652V16.4162H24.5652C25.4172 16.4162 26.1432 16.5602 26.7432 16.8482C27.3432 17.1242 27.7932 17.5022 28.0932 17.9822C28.3932 18.4622 28.5432 19.0022 28.5432 19.6022C28.5432 20.3462 28.3392 20.9642 27.9312 21.4562C27.5352 21.9362 27.0072 22.2842 26.3472 22.5002ZM21.7032 21.8342H24.4572C25.2252 21.8342 25.8192 21.6542 26.2392 21.2942C26.6592 20.9342 26.8692 20.4362 26.8692 19.8002C26.8692 19.1642 26.6592 18.6662 26.2392 18.3062C25.8192 17.9462 25.2132 17.7662 24.4212 17.7662H21.7032V21.8342ZM24.6012 27.6122C25.4172 27.6122 26.0532 27.4202 26.5092 27.0362C26.9652 26.6522 27.1932 26.1182 27.1932 25.4342C27.1932 24.7382 26.9532 24.1922 26.4732 23.7962C25.9932 23.3882 25.3512 23.1842 24.5472 23.1842H21.7032V27.6122H24.6012ZM39.4923 20.0882C39.4923 21.1322 39.1323 22.0022 38.4123 22.6982C37.7043 23.3822 36.6183 23.7242 35.1543 23.7242H32.7423V28.9622H31.1043V16.4162H35.1543C36.5703 16.4162 37.6443 16.7582 38.3763 17.4422C39.1203 18.1262 39.4923 19.0082 39.4923 20.0882ZM35.1543 22.3742C36.0663 22.3742 36.7383 22.1762 37.1703 21.7802C37.6023 21.3842 37.8183 20.8202 37.8183 20.0882C37.8183 18.5402 36.9303 17.7662 35.1543 17.7662H32.7423V22.3742H35.1543ZM51.8961 16.4162L47.1621 28.9622H45.2721L40.5381 16.4162H42.2841L46.2261 27.2342L50.1681 16.4162H51.8961ZM64.0602 16.4162L59.3262 28.9622H57.4362L52.7022 16.4162H54.4482L58.3902 27.2342L62.3322 16.4162H64.0602ZM67.4942 17.7482V21.9422H72.0662V23.2922H67.4942V27.6122H72.6062V28.9622H65.8562V16.3982H72.6062V17.7482H67.4942Z" fill="#443B3B"/>
<path d="M26.3472 22.5002L26.0362 21.5498L26.1912 23.488L26.3472 22.5002ZM27.5892 23.0582L26.9614 23.8366L26.9675 23.8415L26.9736 23.8462L27.5892 23.0582ZM28.4892 24.1742L27.59 24.6117L27.5947 24.6214L27.5996 24.631L28.4892 24.1742ZM28.3452 27.3242L29.1864 27.865L29.1921 27.856L28.3452 27.3242ZM26.9232 28.5302L27.349 29.435L27.3565 29.4314L26.9232 28.5302ZM20.0652 28.9622H19.0652V29.9622H20.0652V28.9622ZM20.0652 16.4162V15.4162H19.0652V16.4162H20.0652ZM26.7432 16.8482L26.3105 17.7497L26.3179 17.7533L26.3253 17.7567L26.7432 16.8482ZM28.0932 17.9822L27.2452 18.5122L27.2452 18.5122L28.0932 17.9822ZM27.9312 21.4562L27.1614 20.8178L27.1598 20.8198L27.9312 21.4562ZM21.7032 21.8342H20.7032V22.8342H21.7032V21.8342ZM26.2392 18.3062L25.5884 19.0654L25.5884 19.0654L26.2392 18.3062ZM21.7032 17.7662V16.7662H20.7032V17.7662H21.7032ZM26.5092 27.0362L27.1533 27.8011L27.1533 27.8011L26.5092 27.0362ZM26.4732 23.7962L25.8256 24.5581L25.8311 24.5629L25.8368 24.5676L26.4732 23.7962ZM21.7032 23.1842V22.1842H20.7032V23.1842H21.7032ZM21.7032 27.6122H20.7032V28.6122H21.7032V27.6122ZM26.1912 23.488C26.4681 23.5317 26.7207 23.6424 26.9614 23.8366L28.217 22.2798C27.7137 21.8739 27.1383 21.6127 26.5032 21.5124L26.1912 23.488ZM26.9736 23.8462C27.2359 24.0512 27.4397 24.3027 27.59 24.6117L29.3884 23.7367C29.1067 23.1577 28.7105 22.6652 28.2048 22.2702L26.9736 23.8462ZM27.5996 24.631C27.7543 24.9322 27.8312 25.2494 27.8312 25.5962H29.8312C29.8312 24.9349 29.6801 24.3041 29.3788 23.7174L27.5996 24.631ZM27.8312 25.5962C27.8312 26.0527 27.7178 26.4429 27.4983 26.7924L29.1921 27.856C29.6206 27.1735 29.8312 26.4117 29.8312 25.5962H27.8312ZM27.504 26.7834C27.2948 27.1089 26.9736 27.3964 26.4899 27.6289L27.3565 29.4314C28.1208 29.064 28.7476 28.5474 29.1864 27.8649L27.504 26.7834ZM26.4974 27.6254C26.0468 27.8374 25.4727 27.9622 24.7452 27.9622V29.9622C25.6977 29.9622 26.5756 29.799 27.349 29.435L26.4974 27.6254ZM24.7452 27.9622H20.0652V29.9622H24.7452V27.9622ZM21.0652 28.9622V16.4162H19.0652V28.9622H21.0652ZM20.0652 17.4162H24.5652V15.4162H20.0652V17.4162ZM24.5652 17.4162C25.308 17.4162 25.8779 17.5421 26.3105 17.7497L27.1759 15.9467C26.4085 15.5783 25.5264 15.4162 24.5652 15.4162V17.4162ZM26.3253 17.7567C26.7783 17.9651 27.0649 18.2237 27.2452 18.5122L28.9412 17.4522C28.5215 16.7807 27.9081 16.2833 27.1611 15.9397L26.3253 17.7567ZM27.2452 18.5122C27.4398 18.8236 27.5432 19.1779 27.5432 19.6022H29.5432C29.5432 18.8265 29.3466 18.1008 28.9412 17.4522L27.2452 18.5122ZM27.5432 19.6022C27.5432 20.1533 27.3968 20.534 27.1614 20.8179L28.701 22.0945C29.2816 21.3944 29.5432 20.5391 29.5432 19.6022H27.5432ZM27.1598 20.8198C26.8981 21.1371 26.5376 21.3857 26.0362 21.5498L26.6582 23.4506C27.4768 23.1827 28.1723 22.7353 28.7026 22.0926L27.1598 20.8198ZM21.7032 22.8342H24.4572V20.8342H21.7032V22.8342ZM24.4572 22.8342C25.3716 22.8342 26.2292 22.6198 26.89 22.0534L25.5884 20.5349C25.4092 20.6885 25.0788 20.8342 24.4572 20.8342V22.8342ZM26.89 22.0534C27.5661 21.4739 27.8692 20.6795 27.8692 19.8002H25.8692C25.8692 20.1929 25.7523 20.3944 25.5884 20.5349L26.89 22.0534ZM27.8692 19.8002C27.8692 18.9209 27.5661 18.1264 26.89 17.5469L25.5884 19.0654C25.7523 19.2059 25.8692 19.4075 25.8692 19.8002H27.8692ZM26.89 17.5469C26.2243 16.9763 25.3505 16.7662 24.4212 16.7662V18.7662C25.0759 18.7662 25.4141 18.9161 25.5884 19.0654L26.89 17.5469ZM24.4212 16.7662H21.7032V18.7662H24.4212V16.7662ZM20.7032 17.7662V21.8342H22.7032V17.7662H20.7032ZM24.6012 28.6122C25.5661 28.6122 26.4602 28.3848 27.1533 27.8011L25.8651 26.2713C25.6462 26.4556 25.2683 26.6122 24.6012 26.6122V28.6122ZM27.1533 27.8011C27.8696 27.1979 28.1932 26.3646 28.1932 25.4342H26.1932C26.1932 25.8717 26.0608 26.1065 25.8651 26.2713L27.1533 27.8011ZM28.1932 25.4342C28.1932 24.4796 27.849 23.6348 27.1096 23.0248L25.8368 24.5676C26.0574 24.7496 26.1932 24.9968 26.1932 25.4342H28.1932ZM27.1208 23.0342C26.4147 22.4341 25.5213 22.1842 24.5472 22.1842V24.1842C25.1811 24.1842 25.5717 24.3423 25.8256 24.5581L27.1208 23.0342ZM24.5472 22.1842H21.7032V24.1842H24.5472V22.1842ZM20.7032 23.1842V27.6122H22.7032V23.1842H20.7032ZM21.7032 28.6122H24.6012V26.6122H21.7032V28.6122ZM38.4123 22.6982L39.1071 23.4174L39.1073 23.4172L38.4123 22.6982ZM32.7423 23.7242V22.7242H31.7423V23.7242H32.7423ZM32.7423 28.9622V29.9622H33.7423V28.9622H32.7423ZM31.1043 28.9622H30.1043V29.9622H31.1043V28.9622ZM31.1043 16.4162V15.4162H30.1043V16.4162H31.1043ZM38.3763 17.4422L37.6935 18.1729L37.6995 18.1784L38.3763 17.4422ZM37.1703 21.7802L37.846 22.5173L37.846 22.5173L37.1703 21.7802ZM32.7423 17.7662V16.7662H31.7423V17.7662H32.7423ZM32.7423 22.3742H31.7423V23.3742H32.7423V22.3742ZM38.4923 20.0882C38.4923 20.874 38.2332 21.4804 37.7172 21.9792L39.1073 23.4172C40.0313 22.524 40.4923 21.3904 40.4923 20.0882H38.4923ZM37.7174 21.979C37.2695 22.4117 36.4836 22.7242 35.1543 22.7242V24.7242C36.7529 24.7242 38.139 24.3526 39.1071 23.4174L37.7174 21.979ZM35.1543 22.7242H32.7423V24.7242H35.1543V22.7242ZM31.7423 23.7242V28.9622H33.7423V23.7242H31.7423ZM32.7423 27.9622H31.1043V29.9622H32.7423V27.9622ZM32.1043 28.9622V16.4162H30.1043V28.9622H32.1043ZM31.1043 17.4162H35.1543V15.4162H31.1043V17.4162ZM35.1543 17.4162C36.4217 17.4162 37.2113 17.7223 37.6935 18.1728L39.059 16.7115C38.0772 15.7941 36.7189 15.4162 35.1543 15.4162V17.4162ZM37.6995 18.1784C38.2221 18.6589 38.4923 19.2664 38.4923 20.0882H40.4923C40.4923 18.7499 40.0184 17.5935 39.0531 16.706L37.6995 18.1784ZM35.1543 23.3742C36.1827 23.3742 37.1503 23.1551 37.846 22.5173L36.4945 21.043C36.3263 21.1973 35.9498 21.3742 35.1543 21.3742V23.3742ZM37.846 22.5173C38.534 21.8867 38.8183 21.0257 38.8183 20.0882H36.8183C36.8183 20.6147 36.6706 20.8817 36.4945 21.043L37.846 22.5173ZM38.8183 20.0882C38.8183 19.1216 38.5347 18.2251 37.8093 17.5929C37.1103 16.9835 36.1653 16.7662 35.1543 16.7662V18.7662C35.9193 18.7662 36.3063 18.9358 36.4952 19.1005C36.6579 19.2423 36.8183 19.5068 36.8183 20.0882H38.8183ZM35.1543 16.7662H32.7423V18.7662H35.1543V16.7662ZM31.7423 17.7662V22.3742H33.7423V17.7662H31.7423ZM32.7423 23.3742H35.1543V21.3742H32.7423V23.3742ZM51.8961 16.4162L52.8317 16.7692L53.3422 15.4162H51.8961V16.4162ZM47.1621 28.9622V29.9622H47.8536L48.0977 29.3152L47.1621 28.9622ZM45.2721 28.9622L44.3365 29.3152L44.5806 29.9622H45.2721V28.9622ZM40.5381 16.4162V15.4162H39.0919L39.6025 16.7692L40.5381 16.4162ZM42.2841 16.4162L43.2237 16.0738L42.984 15.4162H42.2841V16.4162ZM46.2261 27.2342L45.2865 27.5766L46.2261 30.155L47.1657 27.5766L46.2261 27.2342ZM50.1681 16.4162V15.4162H49.4682L49.2285 16.0738L50.1681 16.4162ZM50.9605 16.0632L46.2265 28.6092L48.0977 29.3152L52.8317 16.7692L50.9605 16.0632ZM47.1621 27.9622H45.2721V29.9622H47.1621V27.9622ZM46.2077 28.6092L41.4737 16.0632L39.6025 16.7692L44.3365 29.3152L46.2077 28.6092ZM40.5381 17.4162H42.2841V15.4162H40.5381V17.4162ZM41.3445 16.7586L45.2865 27.5766L47.1657 26.8918L43.2237 16.0738L41.3445 16.7586ZM47.1657 27.5766L51.1077 16.7586L49.2285 16.0738L45.2865 26.8918L47.1657 27.5766ZM50.1681 17.4162H51.8961V15.4162H50.1681V17.4162ZM64.0602 16.4162L64.9958 16.7692L65.5063 15.4162H64.0602V16.4162ZM59.3262 28.9622V29.9622H60.0176L60.2618 29.3152L59.3262 28.9622ZM57.4362 28.9622L56.5005 29.3152L56.7447 29.9622H57.4362V28.9622ZM52.7022 16.4162V15.4162H51.256L51.7665 16.7692L52.7022 16.4162ZM54.4482 16.4162L55.3877 16.0738L55.1481 15.4162H54.4482V16.4162ZM58.3902 27.2342L57.4506 27.5766L58.3902 30.155L59.3297 27.5766L58.3902 27.2342ZM62.3322 16.4162V15.4162H61.6322L61.3926 16.0738L62.3322 16.4162ZM63.1245 16.0632L58.3905 28.6092L60.2618 29.3152L64.9958 16.7692L63.1245 16.0632ZM59.3262 27.9622H57.4362V29.9622H59.3262V27.9622ZM58.3718 28.6092L53.6378 16.0632L51.7665 16.7692L56.5005 29.3152L58.3718 28.6092ZM52.7022 17.4162H54.4482V15.4162H52.7022V17.4162ZM53.5086 16.7586L57.4506 27.5766L59.3297 26.8918L55.3877 16.0738L53.5086 16.7586ZM59.3297 27.5766L63.2717 16.7586L61.3926 16.0738L57.4506 26.8918L59.3297 27.5766ZM62.3322 17.4162H64.0602V15.4162H62.3322V17.4162ZM67.4942 17.7482V16.7482H66.4942V17.7482H67.4942ZM67.4942 21.9422H66.4942V22.9422H67.4942V21.9422ZM72.0662 21.9422H73.0662V20.9422H72.0662V21.9422ZM72.0662 23.2922V24.2922H73.0662V23.2922H72.0662ZM67.4942 23.2922V22.2922H66.4942V23.2922H67.4942ZM67.4942 27.6122H66.4942V28.6122H67.4942V27.6122ZM72.6062 27.6122H73.6062V26.6122H72.6062V27.6122ZM72.6062 28.9622V29.9622H73.6062V28.9622H72.6062ZM65.8562 28.9622H64.8562V29.9622H65.8562V28.9622ZM65.8562 16.3982V15.3982H64.8562V16.3982H65.8562ZM72.6062 16.3982H73.6062V15.3982H72.6062V16.3982ZM72.6062 17.7482V18.7482H73.6062V17.7482H72.6062ZM66.4942 17.7482V21.9422H68.4942V17.7482H66.4942ZM67.4942 22.9422H72.0662V20.9422H67.4942V22.9422ZM71.0662 21.9422V23.2922H73.0662V21.9422H71.0662ZM72.0662 22.2922H67.4942V24.2922H72.0662V22.2922ZM66.4942 23.2922V27.6122H68.4942V23.2922H66.4942ZM67.4942 28.6122H72.6062V26.6122H67.4942V28.6122ZM71.6062 27.6122V28.9622H73.6062V27.6122H71.6062ZM72.6062 27.9622H65.8562V29.9622H72.6062V27.9622ZM66.8562 28.9622V16.3982H64.8562V28.9622H66.8562ZM65.8562 17.3982H72.6062V15.3982H65.8562V17.3982ZM71.6062 16.3982V17.7482H73.6062V16.3982H71.6062ZM72.6062 16.7482H67.4942V18.7482H72.6062V16.7482Z" fill="#443B3B"/>
<path d="M126 23.0002C126 22.6978 125.807 22.4378 125.524 22.3014L105.436 12.1442C105.283 12.0504 105.101 12.0001 104.915 12C104.672 12 104.44 12.0844 104.268 12.2345C104.097 12.3847 104 12.5884 104 12.8009C104 12.8319 104.007 12.8612 104.011 12.8912H104V33.2895H104.011C104.035 33.4846 104.141 33.6649 104.308 33.796C104.475 33.9271 104.691 33.9997 104.915 34C105.075 33.9993 105.232 33.9613 105.37 33.89L105.378 33.9025L125.549 23.7036L125.541 23.6911C125.68 23.6215 125.796 23.521 125.876 23.3997C125.957 23.2784 126 23.1406 126 23.0002Z" fill="#443B3B"/>
<defs>
<filter id="filter0_d" x="0.0258789" y="0.60083" width="142.192" height="53.9874" filterUnits="userSpaceOnUse" color-interpolation-filters="sRGB">
<feFlood flood-opacity="0" result="BackgroundImageFix"/>
<feColorMatrix in="SourceAlpha" type="matrix" values="0 0 0 0 0 0 0 0 0 0 0 0 0 0 0 0 0 0 127 0"/>
<feOffset dy="4"/>
<feGaussianBlur stdDeviation="2"/>
<feColorMatrix type="matrix" values="0 0 0 0 0 0 0 0 0 0 0 0 0 0 0 0 0 0 0.25 0"/>
<feBlend mode="normal" in2="BackgroundImageFix" result="effect1_dropShadow"/>
<feBlend mode="normal" in="SourceGraphic" in2="effect1_dropShadow" result="shape"/>
</filter>
</defs>
</svg>
