<svg width="343" height="75" viewBox="0 0 343 75" fill="none" xmlns="http://www.w3.org/2000/svg">
<g filter="url(#filter0_d)">
<rect x="4.02588" y="0.672241" width="134.192" height="45.9874" rx="22.9937" fill="#9DF5B1"/>
</g>
<path d="M19.964 24.974C20.3187 25.03 20.6407 25.1747 20.93 25.408C21.2287 25.6413 21.462 25.9307 21.63 26.276C21.8073 26.6213 21.896 26.99 21.896 27.382C21.896 27.8767 21.77 28.3247 21.518 28.726C21.266 29.118 20.8973 29.4307 20.412 29.664C19.936 29.888 19.3713 30 18.718 30H15.078V20.242H18.578C19.2407 20.242 19.8053 20.354 20.272 20.578C20.7387 20.7927 21.0887 21.0867 21.322 21.46C21.5553 21.8333 21.672 22.2533 21.672 22.72C21.672 23.2987 21.5133 23.7793 21.196 24.162C20.888 24.5353 20.4773 24.806 19.964 24.974ZM16.352 24.456H18.494C19.0913 24.456 19.5533 24.316 19.88 24.036C20.2067 23.756 20.37 23.3687 20.37 22.874C20.37 22.3793 20.2067 21.992 19.88 21.712C19.5533 21.432 19.082 21.292 18.466 21.292H16.352V24.456ZM18.606 28.95C19.2407 28.95 19.7353 28.8007 20.09 28.502C20.4447 28.2033 20.622 27.788 20.622 27.256C20.622 26.7147 20.4353 26.29 20.062 25.982C19.6887 25.6647 19.1893 25.506 18.564 25.506H16.352V28.95H18.606ZM29.6699 20.242V21.278H27.0099V30H25.7359V21.278H23.0619V20.242H29.6699ZM34.3322 30.098C33.6882 30.098 33.1095 29.986 32.5962 29.762C32.0922 29.5287 31.6955 29.2113 31.4062 28.81C31.1168 28.3993 30.9675 27.928 30.9582 27.396H32.3162C32.3628 27.8533 32.5495 28.2407 32.8762 28.558C33.2122 28.866 33.6975 29.02 34.3322 29.02C34.9388 29.02 35.4148 28.8707 35.7602 28.572C36.1148 28.264 36.2922 27.872 36.2922 27.396C36.2922 27.0227 36.1895 26.7193 35.9842 26.486C35.7788 26.2527 35.5222 26.0753 35.2142 25.954C34.9062 25.8327 34.4908 25.702 33.9682 25.562C33.3242 25.394 32.8062 25.226 32.4142 25.058C32.0315 24.89 31.7002 24.6287 31.4202 24.274C31.1495 23.91 31.0142 23.4247 31.0142 22.818C31.0142 22.286 31.1495 21.8147 31.4202 21.404C31.6908 20.9933 32.0688 20.676 32.5542 20.452C33.0488 20.228 33.6135 20.116 34.2482 20.116C35.1628 20.116 35.9095 20.3447 36.4882 20.802C37.0762 21.2593 37.4075 21.866 37.4822 22.622H36.0822C36.0355 22.2487 35.8395 21.922 35.4942 21.642C35.1488 21.3527 34.6915 21.208 34.1222 21.208C33.5902 21.208 33.1562 21.348 32.8202 21.628C32.4842 21.8987 32.3162 22.2813 32.3162 22.776C32.3162 23.1307 32.4142 23.42 32.6102 23.644C32.8155 23.868 33.0628 24.0407 33.3522 24.162C33.6508 24.274 34.0662 24.4047 34.5982 24.554C35.2422 24.7313 35.7602 24.9087 36.1522 25.086C36.5442 25.254 36.8802 25.52 37.1602 25.884C37.4402 26.2387 37.5802 26.724 37.5802 27.34C37.5802 27.816 37.4542 28.264 37.2022 28.684C36.9502 29.104 36.5768 29.4447 36.0822 29.706C35.5875 29.9673 35.0042 30.098 34.3322 30.098ZM42.549 30.098C41.905 30.098 41.3263 29.986 40.813 29.762C40.309 29.5287 39.9123 29.2113 39.623 28.81C39.3336 28.3993 39.1843 27.928 39.175 27.396H40.533C40.5796 27.8533 40.7663 28.2407 41.093 28.558C41.429 28.866 41.9143 29.02 42.549 29.02C43.1556 29.02 43.6316 28.8707 43.977 28.572C44.3316 28.264 44.509 27.872 44.509 27.396C44.509 27.0227 44.4063 26.7193 44.201 26.486C43.9956 26.2527 43.739 26.0753 43.431 25.954C43.123 25.8327 42.7076 25.702 42.185 25.562C41.541 25.394 41.023 25.226 40.631 25.058C40.2483 24.89 39.917 24.6287 39.637 24.274C39.3663 23.91 39.231 23.4247 39.231 22.818C39.231 22.286 39.3663 21.8147 39.637 21.404C39.9076 20.9933 40.2856 20.676 40.771 20.452C41.2656 20.228 41.8303 20.116 42.465 20.116C43.3796 20.116 44.1263 20.3447 44.705 20.802C45.293 21.2593 45.6243 21.866 45.699 22.622H44.299C44.2523 22.2487 44.0563 21.922 43.711 21.642C43.3656 21.3527 42.9083 21.208 42.339 21.208C41.807 21.208 41.373 21.348 41.037 21.628C40.701 21.8987 40.533 22.2813 40.533 22.776C40.533 23.1307 40.631 23.42 40.827 23.644C41.0323 23.868 41.2796 24.0407 41.569 24.162C41.8676 24.274 42.283 24.4047 42.815 24.554C43.459 24.7313 43.977 24.9087 44.369 25.086C44.761 25.254 45.097 25.52 45.377 25.884C45.657 26.2387 45.797 26.724 45.797 27.34C45.797 27.816 45.671 28.264 45.419 28.684C45.167 29.104 44.7936 29.4447 44.299 29.706C43.8043 29.9673 43.221 30.098 42.549 30.098ZM51.6618 25.128L54.6578 30H53.2158L50.8778 26.192L48.6517 30H47.2378L50.2198 25.128L47.2238 20.242H48.6517L51.0038 24.064L53.2438 20.242H54.6718L51.6618 25.128ZM60.3571 25.128L63.3531 30H61.9111L59.5731 26.192L57.3471 30H55.9331L58.9151 25.128L55.9191 20.242H57.3471L59.6991 24.064L61.9391 20.242H63.3671L60.3571 25.128ZM71.0684 20.242V21.278H68.4084V30H67.1344V21.278H64.4604V20.242H71.0684ZM80.7006 20.242L77.0186 30H75.5486L71.8666 20.242H73.2246L76.2906 28.656L79.3566 20.242H80.7006ZM90.1615 20.242L86.4795 30H85.0095L81.3275 20.242H82.6855L85.7515 28.656L88.8175 20.242H90.1615ZM92.8325 21.278V24.54H96.3885V25.59H92.8325V28.95H96.8085V30H91.5585V20.228H96.8085V21.278H92.8325Z" fill="#443B3B"/>
<path d="M19.964 24.974L19.653 24.0236L19.808 25.9618L19.964 24.974ZM20.93 25.408L20.3022 26.1864L20.3083 26.1913L20.3144 26.196L20.93 25.408ZM21.63 26.276L20.7308 26.7135L20.7355 26.7232L20.7404 26.7328L21.63 26.276ZM21.518 28.726L22.3592 29.2668L22.3649 29.2578L21.518 28.726ZM20.412 29.664L20.8378 30.5688L20.8453 30.5653L20.412 29.664ZM15.078 30H14.078V31H15.078V30ZM15.078 20.242V19.242H14.078V20.242H15.078ZM20.272 20.578L19.8393 21.4795L19.8467 21.4831L19.8541 21.4865L20.272 20.578ZM21.322 21.46L20.474 21.99L20.474 21.99L21.322 21.46ZM21.196 24.162L20.4262 23.5237L20.4246 23.5256L21.196 24.162ZM16.352 24.456H15.352V25.456H16.352V24.456ZM19.88 21.712L19.2292 22.4713L19.2292 22.4713L19.88 21.712ZM16.352 21.292V20.292H15.352V21.292H16.352ZM20.09 28.502L20.7341 29.2669L20.7341 29.2669L20.09 28.502ZM20.062 25.982L19.4144 26.7439L19.42 26.7487L19.4256 26.7534L20.062 25.982ZM16.352 25.506V24.506H15.352V25.506H16.352ZM16.352 28.95H15.352V29.95H16.352V28.95ZM19.808 25.9618C19.9836 25.9895 20.1441 26.0589 20.3022 26.1864L21.5578 24.6296C21.1372 24.2904 20.6537 24.0705 20.12 23.9862L19.808 25.9618ZM20.3144 26.196C20.4914 26.3343 20.6285 26.5032 20.7308 26.7135L22.5292 25.8385C22.2955 25.3582 21.9659 24.9483 21.5456 24.62L20.3144 26.196ZM20.7404 26.7328C20.8445 26.9354 20.896 27.1473 20.896 27.382H22.896C22.896 26.8327 22.7702 26.3073 22.5196 25.8192L20.7404 26.7328ZM20.896 27.382C20.896 27.6972 20.8186 27.9594 20.6711 28.1942L22.3649 29.2578C22.7214 28.6899 22.896 28.0561 22.896 27.382H20.896ZM20.6768 28.1852C20.5396 28.3987 20.3238 28.5969 19.9787 28.7627L20.8453 30.5653C21.4709 30.2645 21.9924 29.8373 22.3592 29.2668L20.6768 28.1852ZM19.9862 28.7592C19.6716 28.9072 19.2588 29 18.718 29V31C19.4838 31 20.2004 30.8688 20.8378 30.5688L19.9862 28.7592ZM18.718 29H15.078V31H18.718V29ZM16.078 30V20.242H14.078V30H16.078ZM15.078 21.242H18.578V19.242H15.078V21.242ZM18.578 21.242C19.1314 21.242 19.54 21.3359 19.8393 21.4795L20.7047 19.6765C20.0707 19.3721 19.3499 19.242 18.578 19.242V21.242ZM19.8541 21.4865C20.1738 21.6335 20.3604 21.8082 20.474 21.99L22.17 20.93C21.817 20.3652 21.3036 19.9518 20.6899 19.6695L19.8541 21.4865ZM20.474 21.99C20.602 22.1947 20.672 22.429 20.672 22.72H22.672C22.672 22.0777 22.5087 21.4719 22.17 20.93L20.474 21.99ZM20.672 22.72C20.672 23.1058 20.571 23.3491 20.4262 23.5237L21.9658 24.8003C22.4557 24.2095 22.672 23.4916 22.672 22.72H20.672ZM20.4246 23.5256C20.2509 23.7362 20.0078 23.9075 19.653 24.0236L20.275 25.9244C20.9469 25.7045 21.5251 25.3345 21.9674 24.7984L20.4246 23.5256ZM16.352 25.456H18.494V23.456H16.352V25.456ZM18.494 25.456C19.2378 25.456 19.9633 25.2816 20.5308 24.7953L19.2292 23.2767C19.1433 23.3504 18.9449 23.456 18.494 23.456V25.456ZM20.5308 24.7953C21.1135 24.2958 21.37 23.612 21.37 22.874H19.37C19.37 23.1254 19.2998 23.2162 19.2292 23.2767L20.5308 24.7953ZM21.37 22.874C21.37 22.136 21.1135 21.4522 20.5308 20.9527L19.2292 22.4713C19.2998 22.5318 19.37 22.6226 19.37 22.874H21.37ZM20.5308 20.9527C19.9584 20.4621 19.2193 20.292 18.466 20.292V22.292C18.9447 22.292 19.1483 22.4019 19.2292 22.4713L20.5308 20.9527ZM18.466 20.292H16.352V22.292H18.466V20.292ZM15.352 21.292V24.456H17.352V21.292H15.352ZM18.606 29.95C19.3896 29.95 20.1424 29.7652 20.7341 29.2669L19.4459 27.7371C19.3283 27.8361 19.0917 27.95 18.606 27.95V29.95ZM20.7341 29.2669C21.3491 28.749 21.622 28.0344 21.622 27.256H19.622C19.622 27.5416 19.5402 27.6576 19.4459 27.7371L20.7341 29.2669ZM21.622 27.256C21.622 26.4561 21.3311 25.7326 20.6984 25.2106L19.4256 26.7534C19.5396 26.8474 19.622 26.9732 19.622 27.256H21.622ZM20.7096 25.2201C20.1102 24.7105 19.3595 24.506 18.564 24.506V26.506C19.0192 26.506 19.2671 26.6188 19.4144 26.7439L20.7096 25.2201ZM18.564 24.506H16.352V26.506H18.564V24.506ZM15.352 25.506V28.95H17.352V25.506H15.352ZM16.352 29.95H18.606V27.95H16.352V29.95ZM29.6699 20.242H30.6699V19.242H29.6699V20.242ZM29.6699 21.278V22.278H30.6699V21.278H29.6699ZM27.0099 21.278V20.278H26.0099V21.278H27.0099ZM27.0099 30V31H28.0099V30H27.0099ZM25.7359 30H24.7359V31H25.7359V30ZM25.7359 21.278H26.7359V20.278H25.7359V21.278ZM23.0619 21.278H22.0619V22.278H23.0619V21.278ZM23.0619 20.242V19.242H22.0619V20.242H23.0619ZM28.6699 20.242V21.278H30.6699V20.242H28.6699ZM29.6699 20.278H27.0099V22.278H29.6699V20.278ZM26.0099 21.278V30H28.0099V21.278H26.0099ZM27.0099 29H25.7359V31H27.0099V29ZM26.7359 30V21.278H24.7359V30H26.7359ZM25.7359 20.278H23.0619V22.278H25.7359V20.278ZM24.0619 21.278V20.242H22.0619V21.278H24.0619ZM23.0619 21.242H29.6699V19.242H23.0619V21.242ZM32.5962 29.762L32.176 30.6695L32.1861 30.6741L32.1962 30.6785L32.5962 29.762ZM31.4062 28.81L30.5886 29.386L30.595 29.3948L31.4062 28.81ZM30.9582 27.396V26.396H29.9405L29.9583 27.4135L30.9582 27.396ZM32.3162 27.396L33.311 27.2945L33.2193 26.396H32.3162V27.396ZM32.8762 28.558L32.1794 29.2753L32.1898 29.2854L32.2004 29.2952L32.8762 28.558ZM35.7602 28.572L36.4143 29.3284L36.4158 29.327L35.7602 28.572ZM35.9842 26.486L35.2334 27.1466L35.2334 27.1466L35.9842 26.486ZM35.2142 25.954L34.8476 26.8844L34.8476 26.8844L35.2142 25.954ZM33.9682 25.562L34.2269 24.596L34.2206 24.5944L33.9682 25.562ZM32.4142 25.058L32.0122 25.9737L32.0202 25.9771L32.4142 25.058ZM31.4202 24.274L30.6177 24.8707L30.6263 24.8823L30.6353 24.8936L31.4202 24.274ZM31.4202 21.404L32.2551 21.9543L32.2551 21.9543L31.4202 21.404ZM32.5542 20.452L32.1416 19.541L32.1351 19.544L32.5542 20.452ZM36.4882 20.802L35.8681 21.5866L35.8742 21.5914L36.4882 20.802ZM37.4822 22.622V23.622H38.5858L38.4773 22.5237L37.4822 22.622ZM36.0822 22.622L35.0899 22.746L35.1994 23.622H36.0822V22.622ZM35.4942 21.642L34.8519 22.4085L34.8581 22.4137L34.8644 22.4188L35.4942 21.642ZM32.8202 21.628L33.4475 22.4068L33.454 22.4015L33.4603 22.3962L32.8202 21.628ZM32.6102 23.644L31.8576 24.3025L31.8652 24.3112L31.873 24.3197L32.6102 23.644ZM33.3522 24.162L32.9654 25.0842L32.9831 25.0916L33.001 25.0983L33.3522 24.162ZM34.5982 24.554L34.3279 25.5168L34.3327 25.5181L34.5982 24.554ZM36.1522 25.086L35.74 25.9971L35.7491 26.0012L35.7582 26.0051L36.1522 25.086ZM37.1602 25.884L36.3675 26.4938L36.3753 26.5036L37.1602 25.884ZM37.2022 28.684L38.0596 29.1985L38.0596 29.1985L37.2022 28.684ZM36.0822 29.706L35.615 28.8218L36.0822 29.706ZM34.3322 29.098C33.8053 29.098 33.3658 29.0068 32.9961 28.8455L32.1962 30.6785C32.8532 30.9652 33.571 31.098 34.3322 31.098V29.098ZM33.0163 28.8545C32.6487 28.6844 32.3944 28.4707 32.2173 28.2252L30.595 29.3948C30.9966 29.9519 31.5356 30.373 32.176 30.6695L33.0163 28.8545ZM32.2236 28.234C32.0566 27.997 31.964 27.7228 31.958 27.3785L29.9583 27.4135C29.9709 28.1332 30.177 28.8017 30.5887 29.386L32.2236 28.234ZM30.9582 28.396H32.3162V26.396H30.9582V28.396ZM31.3213 27.4975C31.3916 28.1863 31.6823 28.7924 32.1794 29.2753L33.5729 27.8407C33.4167 27.6889 33.334 27.5203 33.311 27.2945L31.3213 27.4975ZM32.2004 29.2952C32.7825 29.8287 33.5459 30.02 34.3322 30.02V28.02C33.8491 28.02 33.6418 27.9033 33.5519 27.8208L32.2004 29.2952ZM34.3322 30.02C35.0991 30.02 35.8347 29.8296 36.4143 29.3284L35.106 27.8156C34.9949 27.9117 34.7786 28.02 34.3322 28.02V30.02ZM36.4158 29.327C36.9925 28.8262 37.2922 28.1572 37.2922 27.396H35.2922C35.2922 27.5868 35.2371 27.7018 35.1045 27.817L36.4158 29.327ZM37.2922 27.396C37.2922 26.8308 37.1318 26.2765 36.7349 25.8254L35.2334 27.1466C35.2472 27.1622 35.2922 27.2145 35.2922 27.396H37.2922ZM36.7349 25.8254C36.4179 25.4652 36.0265 25.1992 35.5807 25.0236L34.8476 26.8844C35.0178 26.9515 35.1397 27.0401 35.2334 27.1466L36.7349 25.8254ZM35.5807 25.0236C35.2225 24.8825 34.7663 24.7405 34.2269 24.5961L33.7094 26.5279C34.2153 26.6635 34.5898 26.7828 34.8476 26.8844L35.5807 25.0236ZM34.2206 24.5944C33.6013 24.4328 33.1362 24.2795 32.8081 24.1389L32.0202 25.9771C32.4761 26.1725 33.047 26.3552 33.7157 26.5296L34.2206 24.5944ZM32.8161 24.1424C32.5954 24.0455 32.392 23.8912 32.205 23.6544L30.6353 24.8936C31.0083 25.3661 31.4675 25.7345 32.0122 25.9736L32.8161 24.1424ZM32.2226 23.6773C32.1173 23.5357 32.0142 23.2816 32.0142 22.818H30.0142C30.0142 23.5677 30.1816 24.2843 30.6177 24.8707L32.2226 23.6773ZM32.0142 22.818C32.0142 22.4649 32.1009 22.1882 32.2551 21.9543L30.5852 20.8537C30.198 21.4411 30.0142 22.1071 30.0142 22.818H32.0142ZM32.2551 21.9543C32.4143 21.7127 32.6419 21.5129 32.9732 21.36L32.1351 19.544C31.4957 19.8391 30.9673 20.2739 30.5852 20.8537L32.2551 21.9543ZM32.9667 21.363C33.3117 21.2067 33.732 21.116 34.2482 21.116V19.116C33.495 19.116 32.786 19.2493 32.1416 19.541L32.9667 21.363ZM34.2482 21.116C34.9931 21.116 35.505 21.2996 35.8681 21.5866L37.1082 20.0174C36.314 19.3897 35.3325 19.116 34.2482 19.116V21.116ZM35.8742 21.5914C36.241 21.8766 36.4387 22.231 36.487 22.7203L38.4773 22.5237C38.3763 21.5009 37.9113 20.6421 37.1021 20.0126L35.8742 21.5914ZM37.4822 21.622H36.0822V23.622H37.4822V21.622ZM37.0744 22.498C36.99 21.8227 36.6309 21.2763 36.124 20.8652L34.8644 22.4188C35.0481 22.5677 35.081 22.6747 35.0899 22.746L37.0744 22.498ZM36.1364 20.8755C35.5677 20.399 34.8628 20.208 34.1222 20.208V22.208C34.5202 22.208 34.73 22.3063 34.8519 22.4085L36.1364 20.8755ZM34.1222 20.208C33.4087 20.208 32.7323 20.3995 32.18 20.8598L33.4603 22.3962C33.58 22.2965 33.7716 22.208 34.1222 22.208V20.208ZM32.1928 20.8492C31.5849 21.339 31.3162 22.0286 31.3162 22.776H33.3162C33.3162 22.534 33.3834 22.4584 33.4475 22.4068L32.1928 20.8492ZM31.3162 22.776C31.3162 23.3241 31.4726 23.8626 31.8576 24.3025L33.3627 22.9855C33.3557 22.9774 33.3162 22.9372 33.3162 22.776H31.3162ZM31.873 24.3197C32.1792 24.6537 32.5473 24.9089 32.9654 25.0842L33.7389 23.2398C33.5783 23.1725 33.4518 23.0823 33.3473 22.9683L31.873 24.3197ZM33.001 25.0983C33.3386 25.2249 33.7852 25.3645 34.3279 25.5168L34.8684 23.5912C34.3471 23.4449 33.963 23.3231 33.7033 23.2257L33.001 25.0983ZM34.3327 25.5181C34.9507 25.6883 35.4138 25.8496 35.74 25.9971L36.5643 24.1749C36.1065 23.9678 35.5336 23.7744 34.8636 23.5899L34.3327 25.5181ZM35.7582 26.0051C35.9811 26.1006 36.1835 26.2545 36.3675 26.4937L37.9528 25.2743C37.5768 24.7855 37.1072 24.4074 36.5461 24.1669L35.7582 26.0051ZM36.3753 26.5036C36.4729 26.6273 36.5802 26.8679 36.5802 27.34H38.5802C38.5802 26.5801 38.4074 25.85 37.945 25.2644L36.3753 26.5036ZM36.5802 27.34C36.5802 27.6293 36.5063 27.9002 36.3447 28.1695L38.0596 29.1985C38.4021 28.6278 38.5802 28.0027 38.5802 27.34H36.5802ZM36.3447 28.1695C36.1994 28.4117 35.9717 28.6334 35.615 28.8218L36.5493 30.5902C37.182 30.256 37.701 29.7963 38.0596 29.1985L36.3447 28.1695ZM35.615 28.8218C35.2906 28.9932 34.8739 29.098 34.3322 29.098V31.098C35.1344 31.098 35.8844 30.9415 36.5493 30.5902L35.615 28.8218ZM40.813 29.762L40.3928 30.6695L40.4029 30.6741L40.413 30.6785L40.813 29.762ZM39.623 28.81L38.8054 29.386L38.8118 29.3948L39.623 28.81ZM39.175 27.396V26.396H38.1573L38.1751 27.4135L39.175 27.396ZM40.533 27.396L41.5278 27.2945L41.4361 26.396H40.533V27.396ZM41.093 28.558L40.3962 29.2753L40.4066 29.2854L40.4172 29.2952L41.093 28.558ZM43.977 28.572L44.6311 29.3284L44.6326 29.327L43.977 28.572ZM44.201 26.486L43.4502 27.1466L43.4502 27.1466L44.201 26.486ZM43.431 25.954L43.0644 26.8844L43.0644 26.8844L43.431 25.954ZM42.185 25.562L42.4437 24.596L42.4374 24.5944L42.185 25.562ZM40.631 25.058L40.2289 25.9737L40.237 25.9771L40.631 25.058ZM39.637 24.274L38.8345 24.8707L38.8431 24.8823L38.8521 24.8936L39.637 24.274ZM39.637 21.404L40.4719 21.9543L40.4719 21.9543L39.637 21.404ZM40.771 20.452L40.3584 19.541L40.3519 19.544L40.771 20.452ZM44.705 20.802L44.0849 21.5866L44.091 21.5914L44.705 20.802ZM45.699 22.622V23.622H46.8026L46.6941 22.5237L45.699 22.622ZM44.299 22.622L43.3067 22.746L43.4162 23.622H44.299V22.622ZM43.711 21.642L43.0687 22.4085L43.0749 22.4137L43.0812 22.4188L43.711 21.642ZM41.037 21.628L41.6643 22.4068L41.6708 22.4015L41.6771 22.3962L41.037 21.628ZM40.827 23.644L40.0744 24.3025L40.082 24.3112L40.0898 24.3197L40.827 23.644ZM41.569 24.162L41.1822 25.0842L41.1999 25.0916L41.2178 25.0983L41.569 24.162ZM42.815 24.554L42.5447 25.5168L42.5495 25.5181L42.815 24.554ZM44.369 25.086L43.9568 25.9971L43.9659 26.0012L43.975 26.0051L44.369 25.086ZM45.377 25.884L44.5843 26.4938L44.5921 26.5036L45.377 25.884ZM45.419 28.684L46.2764 29.1985L46.2764 29.1985L45.419 28.684ZM44.299 29.706L43.8318 28.8218L44.299 29.706ZM42.549 29.098C42.0221 29.098 41.5826 29.0068 41.2129 28.8455L40.413 30.6785C41.07 30.9652 41.7878 31.098 42.549 31.098V29.098ZM41.2331 28.8545C40.8655 28.6844 40.6111 28.4707 40.4341 28.2252L38.8118 29.3948C39.2134 29.9519 39.7524 30.373 40.3928 30.6695L41.2331 28.8545ZM40.4404 28.234C40.2734 27.997 40.1808 27.7228 40.1748 27.3785L38.1751 27.4135C38.1877 28.1332 38.3938 28.8017 38.8055 29.386L40.4404 28.234ZM39.175 28.396H40.533V26.396H39.175V28.396ZM39.5381 27.4975C39.6084 28.1863 39.8991 28.7924 40.3962 29.2753L41.7897 27.8407C41.6335 27.6889 41.5508 27.5203 41.5278 27.2945L39.5381 27.4975ZM40.4172 29.2952C40.9993 29.8287 41.7626 30.02 42.549 30.02V28.02C42.0659 28.02 41.8586 27.9033 41.7687 27.8208L40.4172 29.2952ZM42.549 30.02C43.3159 30.02 44.0515 29.8296 44.6311 29.3284L43.3228 27.8156C43.2117 27.9117 42.9954 28.02 42.549 28.02V30.02ZM44.6326 29.327C45.2093 28.8262 45.509 28.1572 45.509 27.396H43.509C43.509 27.5868 43.4539 27.7018 43.3213 27.817L44.6326 29.327ZM45.509 27.396C45.509 26.8308 45.3486 26.2765 44.9517 25.8254L43.4502 27.1466C43.4639 27.1622 43.509 27.2145 43.509 27.396H45.509ZM44.9517 25.8254C44.6347 25.4652 44.2433 25.1992 43.7975 25.0236L43.0644 26.8844C43.2346 26.9515 43.3565 27.0401 43.4502 27.1466L44.9517 25.8254ZM43.7975 25.0236C43.4393 24.8825 42.9831 24.7405 42.4437 24.5961L41.9262 26.5279C42.4321 26.6635 42.8066 26.7828 43.0644 26.8844L43.7975 25.0236ZM42.4374 24.5944C41.8181 24.4328 41.353 24.2795 41.0249 24.1389L40.237 25.9771C40.6929 26.1725 41.2638 26.3552 41.9325 26.5296L42.4374 24.5944ZM41.0329 24.1424C40.8122 24.0455 40.6088 23.8912 40.4218 23.6544L38.8521 24.8936C39.2251 25.3661 39.6843 25.7345 40.229 25.9736L41.0329 24.1424ZM40.4394 23.6773C40.3341 23.5357 40.231 23.2816 40.231 22.818H38.231C38.231 23.5677 38.3984 24.2843 38.8345 24.8707L40.4394 23.6773ZM40.231 22.818C40.231 22.4649 40.3177 22.1882 40.4719 21.9543L38.802 20.8537C38.4148 21.4411 38.231 22.1071 38.231 22.818H40.231ZM40.4719 21.9543C40.6311 21.7127 40.8587 21.5129 41.19 21.36L40.3519 19.544C39.7125 19.8391 39.1841 20.2739 38.802 20.8537L40.4719 21.9543ZM41.1835 21.363C41.5285 21.2067 41.9488 21.116 42.465 21.116V19.116C41.7118 19.116 41.0028 19.2493 40.3584 19.541L41.1835 21.363ZM42.465 21.116C43.2099 21.116 43.7218 21.2996 44.0849 21.5866L45.325 20.0174C44.5308 19.3897 43.5493 19.116 42.465 19.116V21.116ZM44.091 21.5914C44.4578 21.8766 44.6555 22.231 44.7038 22.7203L46.6941 22.5237C46.5931 21.5009 46.1281 20.6421 45.3189 20.0126L44.091 21.5914ZM45.699 21.622H44.299V23.622H45.699V21.622ZM45.2912 22.498C45.2068 21.8227 44.8477 21.2763 44.3408 20.8652L43.0812 22.4188C43.2649 22.5677 43.2978 22.6747 43.3067 22.746L45.2912 22.498ZM44.3532 20.8755C43.7845 20.399 43.0796 20.208 42.339 20.208V22.208C42.737 22.208 42.9468 22.3063 43.0687 22.4085L44.3532 20.8755ZM42.339 20.208C41.6255 20.208 40.9491 20.3995 40.3968 20.8598L41.6771 22.3962C41.7968 22.2965 41.9884 22.208 42.339 22.208V20.208ZM40.4096 20.8492C39.8017 21.339 39.533 22.0286 39.533 22.776H41.533C41.533 22.534 41.6002 22.4584 41.6643 22.4068L40.4096 20.8492ZM39.533 22.776C39.533 23.3241 39.6894 23.8626 40.0744 24.3025L41.5795 22.9855C41.5725 22.9774 41.533 22.9372 41.533 22.776H39.533ZM40.0898 24.3197C40.396 24.6537 40.7641 24.9089 41.1822 25.0842L41.9557 23.2398C41.7951 23.1725 41.6686 23.0823 41.5641 22.9683L40.0898 24.3197ZM41.2178 25.0983C41.5554 25.2249 42.002 25.3645 42.5447 25.5168L43.0852 23.5912C42.5639 23.4449 42.1798 23.3231 41.9201 23.2257L41.2178 25.0983ZM42.5495 25.5181C43.1675 25.6883 43.6306 25.8496 43.9568 25.9971L44.7811 24.1749C44.3233 23.9678 43.7504 23.7744 43.0804 23.5899L42.5495 25.5181ZM43.975 26.0051C44.1979 26.1006 44.4003 26.2545 44.5843 26.4937L46.1696 25.2743C45.7936 24.7855 45.324 24.4074 44.7629 24.1669L43.975 26.0051ZM44.5921 26.5036C44.6897 26.6273 44.797 26.8679 44.797 27.34H46.797C46.797 26.5801 46.6242 25.85 46.1618 25.2644L44.5921 26.5036ZM44.797 27.34C44.797 27.6293 44.723 27.9002 44.5615 28.1695L46.2764 29.1985C46.6189 28.6278 46.797 28.0027 46.797 27.34H44.797ZM44.5615 28.1695C44.4162 28.4117 44.1885 28.6334 43.8318 28.8218L44.7661 30.5902C45.3987 30.256 45.9178 29.7963 46.2764 29.1985L44.5615 28.1695ZM43.8318 28.8218C43.5074 28.9932 43.0907 29.098 42.549 29.098V31.098C43.3512 31.098 44.1012 30.9415 44.7661 30.5902L43.8318 28.8218ZM51.6618 25.128L50.8103 24.6035L50.4875 25.1275L50.8099 25.6518L51.6618 25.128ZM54.6578 30V31H56.4466L55.5096 29.4762L54.6578 30ZM53.2158 30L52.3636 30.5232L52.6563 31H53.2158V30ZM50.8778 26.192L51.7299 25.6688L50.8567 24.2465L50.0144 25.6873L50.8778 26.192ZM48.6517 30V31H49.2255L49.5151 30.5047L48.6517 30ZM47.2378 30L46.3848 29.478L45.4532 31H47.2378V30ZM50.2198 25.128L51.0727 25.65L51.3925 25.1275L51.0722 24.6053L50.2198 25.128ZM47.2238 20.242V19.242H45.4375L46.3713 20.7647L47.2238 20.242ZM48.6517 20.242L49.5034 19.7179L49.2105 19.242H48.6517V20.242ZM51.0038 24.064L50.1521 24.5881L51.0247 26.006L51.8665 24.5696L51.0038 24.064ZM53.2438 20.242V19.242H52.6707L52.381 19.7364L53.2438 20.242ZM54.6718 20.242L55.5232 20.7665L56.4623 19.242H54.6718V20.242ZM50.8099 25.6518L53.8059 30.5238L55.5096 29.4762L52.5136 24.6042L50.8099 25.6518ZM54.6578 29H53.2158V31H54.6578V29ZM54.0679 29.4768L51.7299 25.6688L50.0256 26.7152L52.3636 30.5232L54.0679 29.4768ZM50.0144 25.6873L47.7884 29.4953L49.5151 30.5047L51.7411 26.6967L50.0144 25.6873ZM48.6517 29H47.2378V31H48.6517V29ZM48.0907 30.522L51.0727 25.65L49.3668 24.606L46.3848 29.478L48.0907 30.522ZM51.0722 24.6053L48.0762 19.7193L46.3713 20.7647L49.3673 25.6507L51.0722 24.6053ZM47.2238 21.242H48.6517V19.242H47.2238V21.242ZM47.8001 20.7661L50.1521 24.5881L51.8554 23.5399L49.5034 19.7179L47.8001 20.7661ZM51.8665 24.5696L54.1065 20.7476L52.381 19.7364L50.141 23.5584L51.8665 24.5696ZM53.2438 21.242H54.6718V19.242H53.2438V21.242ZM53.8203 19.7175L50.8103 24.6035L52.5132 25.6525L55.5232 20.7665L53.8203 19.7175ZM60.3571 25.128L59.5057 24.6035L59.1828 25.1275L59.5052 25.6518L60.3571 25.128ZM63.3531 30V31H65.142L64.2049 29.4762L63.3531 30ZM61.9111 30L61.0589 30.5232L61.3516 31H61.9111V30ZM59.5731 26.192L60.4253 25.6688L59.552 24.2465L58.7097 25.6873L59.5731 26.192ZM57.3471 30V31H57.9208L58.2104 30.5047L57.3471 30ZM55.9331 30L55.0801 29.478L54.1485 31H55.9331V30ZM58.9151 25.128L59.768 25.65L60.0878 25.1275L59.7676 24.6053L58.9151 25.128ZM55.9191 20.242V19.242H54.1329L55.0666 20.7647L55.9191 20.242ZM57.3471 20.242L58.1987 19.7179L57.9059 19.242H57.3471V20.242ZM59.6991 24.064L58.8474 24.5881L59.72 26.006L60.5618 24.5696L59.6991 24.064ZM61.9391 20.242V19.242H61.3661L61.0763 19.7364L61.9391 20.242ZM63.3671 20.242L64.2185 20.7665L65.1576 19.242H63.3671V20.242ZM59.5052 25.6518L62.5012 30.5238L64.2049 29.4762L61.2089 24.6042L59.5052 25.6518ZM63.3531 29H61.9111V31H63.3531V29ZM62.7633 29.4768L60.4253 25.6688L58.7209 26.7152L61.0589 30.5232L62.7633 29.4768ZM58.7097 25.6873L56.4837 29.4953L58.2104 30.5047L60.4364 26.6967L58.7097 25.6873ZM57.3471 29H55.9331V31H57.3471V29ZM56.786 30.522L59.768 25.65L58.0621 24.606L55.0801 29.478L56.786 30.522ZM59.7676 24.6053L56.7716 19.7193L55.0666 20.7647L58.0626 25.6507L59.7676 24.6053ZM55.9191 21.242H57.3471V19.242H55.9191V21.242ZM56.4954 20.7661L58.8474 24.5881L60.5507 23.5399L58.1987 19.7179L56.4954 20.7661ZM60.5618 24.5696L62.8018 20.7476L61.0763 19.7364L58.8363 23.5584L60.5618 24.5696ZM61.9391 21.242H63.3671V19.242H61.9391V21.242ZM62.5157 19.7175L59.5057 24.6035L61.2085 25.6525L64.2185 20.7665L62.5157 19.7175ZM71.0684 20.242H72.0684V19.242H71.0684V20.242ZM71.0684 21.278V22.278H72.0684V21.278H71.0684ZM68.4084 21.278V20.278H67.4084V21.278H68.4084ZM68.4084 30V31H69.4084V30H68.4084ZM67.1344 30H66.1344V31H67.1344V30ZM67.1344 21.278H68.1344V20.278H67.1344V21.278ZM64.4604 21.278H63.4604V22.278H64.4604V21.278ZM64.4604 20.242V19.242H63.4604V20.242H64.4604ZM70.0684 20.242V21.278H72.0684V20.242H70.0684ZM71.0684 20.278H68.4084V22.278H71.0684V20.278ZM67.4084 21.278V30H69.4084V21.278H67.4084ZM68.4084 29H67.1344V31H68.4084V29ZM68.1344 30V21.278H66.1344V30H68.1344ZM67.1344 20.278H64.4604V22.278H67.1344V20.278ZM65.4604 21.278V20.242H63.4604V21.278H65.4604ZM64.4604 21.242H71.0684V19.242H64.4604V21.242ZM80.7006 20.242L81.6362 20.595L82.1467 19.242H80.7006V20.242ZM77.0186 30V31H77.7101L77.9542 30.353L77.0186 30ZM75.5486 30L74.613 30.353L74.8571 31H75.5486V30ZM71.8666 20.242V19.242H70.4204L70.931 20.595L71.8666 20.242ZM73.2246 20.242L74.1642 19.8996L73.9245 19.242H73.2246V20.242ZM76.2906 28.656L75.351 28.9984L76.2906 31.5768L77.2302 28.9984L76.2906 28.656ZM79.3566 20.242V19.242H78.6567L78.417 19.8996L79.3566 20.242ZM79.765 19.889L76.083 29.647L77.9542 30.353L81.6362 20.595L79.765 19.889ZM77.0186 29H75.5486V31H77.0186V29ZM76.4842 29.647L72.8022 19.889L70.931 20.595L74.613 30.353L76.4842 29.647ZM71.8666 21.242H73.2246V19.242H71.8666V21.242ZM72.285 20.5844L75.351 28.9984L77.2302 28.3136L74.1642 19.8996L72.285 20.5844ZM77.2302 28.9984L80.2962 20.5844L78.417 19.8996L75.351 28.3136L77.2302 28.9984ZM79.3566 21.242H80.7006V19.242H79.3566V21.242ZM90.1615 20.242L91.0971 20.595L91.6077 19.242H90.1615V20.242ZM86.4795 30V31H87.171L87.4151 30.353L86.4795 30ZM85.0095 30L84.0739 30.353L84.318 31H85.0095V30ZM81.3275 20.242V19.242H79.8814L80.3919 20.595L81.3275 20.242ZM82.6855 20.242L83.6251 19.8996L83.3855 19.242H82.6855V20.242ZM85.7515 28.656L84.812 28.9984L85.7515 31.5768L86.6911 28.9984L85.7515 28.656ZM88.8175 20.242V19.242H88.1176L87.878 19.8996L88.8175 20.242ZM89.2259 19.889L85.5439 29.647L87.4151 30.353L91.0971 20.595L89.2259 19.889ZM86.4795 29H85.0095V31H86.4795V29ZM85.9451 29.647L82.2631 19.889L80.3919 20.595L84.0739 30.353L85.9451 29.647ZM81.3275 21.242H82.6855V19.242H81.3275V21.242ZM81.746 20.5844L84.812 28.9984L86.6911 28.3136L83.6251 19.8996L81.746 20.5844ZM86.6911 28.9984L89.7571 20.5844L87.878 19.8996L84.812 28.3136L86.6911 28.9984ZM88.8175 21.242H90.1615V19.242H88.8175V21.242ZM92.8325 21.278V20.278H91.8325V21.278H92.8325ZM92.8325 24.54H91.8325V25.54H92.8325V24.54ZM96.3885 24.54H97.3885V23.54H96.3885V24.54ZM96.3885 25.59V26.59H97.3885V25.59H96.3885ZM92.8325 25.59V24.59H91.8325V25.59H92.8325ZM92.8325 28.95H91.8325V29.95H92.8325V28.95ZM96.8085 28.95H97.8085V27.95H96.8085V28.95ZM96.8085 30V31H97.8085V30H96.8085ZM91.5585 30H90.5585V31H91.5585V30ZM91.5585 20.228V19.228H90.5585V20.228H91.5585ZM96.8085 20.228H97.8085V19.228H96.8085V20.228ZM96.8085 21.278V22.278H97.8085V21.278H96.8085ZM91.8325 21.278V24.54H93.8325V21.278H91.8325ZM92.8325 25.54H96.3885V23.54H92.8325V25.54ZM95.3885 24.54V25.59H97.3885V24.54H95.3885ZM96.3885 24.59H92.8325V26.59H96.3885V24.59ZM91.8325 25.59V28.95H93.8325V25.59H91.8325ZM92.8325 29.95H96.8085V27.95H92.8325V29.95ZM95.8085 28.95V30H97.8085V28.95H95.8085ZM96.8085 29H91.5585V31H96.8085V29ZM92.5585 30V20.228H90.5585V30H92.5585ZM91.5585 21.228H96.8085V19.228H91.5585V21.228ZM95.8085 20.228V21.278H97.8085V20.228H95.8085ZM96.8085 20.278H92.8325V22.278H96.8085V20.278Z" fill="#443B3B"/>
<path d="M126 26.0002C126 25.6978 125.807 25.4378 125.524 25.3014L105.436 15.1442C105.283 15.0504 105.101 15.0001 104.915 15C104.672 15 104.44 15.0844 104.268 15.2345C104.097 15.3847 104 15.5884 104 15.8009C104 15.8319 104.007 15.8612 104.011 15.8912H104V36.2895H104.011C104.035 36.4846 104.141 36.6649 104.308 36.796C104.475 36.9271 104.691 36.9997 104.915 37C105.075 36.9993 105.232 36.9613 105.37 36.89L105.378 36.9025L125.549 26.7036L125.541 26.6911C125.68 26.6215 125.796 26.521 125.876 26.3997C125.957 26.2784 126 26.1406 126 26.0002Z" fill="#443B3B"/>
<defs>
<filter id="filter0_d" x="0.0258789" y="0.672241" width="142.192" height="53.9874" filterUnits="userSpaceOnUse" color-interpolation-filters="sRGB">
<feFlood flood-opacity="0" result="BackgroundImageFix"/>
<feColorMatrix in="SourceAlpha" type="matrix" values="0 0 0 0 0 0 0 0 0 0 0 0 0 0 0 0 0 0 127 0"/>
<feOffset dy="4"/>
<feGaussianBlur stdDeviation="2"/>
<feColorMatrix type="matrix" values="0 0 0 0 0 0 0 0 0 0 0 0 0 0 0 0 0 0 0.25 0"/>
<feBlend mode="normal" in2="BackgroundImageFix" result="effect1_dropShadow"/>
<feBlend mode="normal" in="SourceGraphic" in2="effect1_dropShadow" result="shape"/>
</filter>
</defs>
</svg>
