<svg width="343" height="75" viewBox="0 0 343 75" fill="none" xmlns="http://www.w3.org/2000/svg">
<g filter="url(#filter0_d)">
<rect x="4.02588" y="0.760498" width="134.192" height="45.9874" rx="22.9937" fill="#9DF5B1"/>
</g>
<path d="M19.964 22.974C20.3187 23.03 20.6407 23.1747 20.93 23.408C21.2287 23.6413 21.462 23.9307 21.63 24.276C21.8073 24.6213 21.896 24.99 21.896 25.382C21.896 25.8767 21.77 26.3247 21.518 26.726C21.266 27.118 20.8973 27.4307 20.412 27.664C19.936 27.888 19.3713 28 18.718 28H15.078V18.242H18.578C19.2407 18.242 19.8053 18.354 20.272 18.578C20.7387 18.7927 21.0887 19.0867 21.322 19.46C21.5553 19.8333 21.672 20.2533 21.672 20.72C21.672 21.2987 21.5133 21.7793 21.196 22.162C20.888 22.5353 20.4773 22.806 19.964 22.974ZM16.352 22.456H18.494C19.0913 22.456 19.5533 22.316 19.88 22.036C20.2067 21.756 20.37 21.3687 20.37 20.874C20.37 20.3793 20.2067 19.992 19.88 19.712C19.5533 19.432 19.082 19.292 18.466 19.292H16.352V22.456ZM18.606 26.95C19.2407 26.95 19.7353 26.8007 20.09 26.502C20.4447 26.2033 20.622 25.788 20.622 25.256C20.622 24.7147 20.4353 24.29 20.062 23.982C19.6887 23.6647 19.1893 23.506 18.564 23.506H16.352V26.95H18.606ZM29.6699 18.242V19.278H27.0099V28H25.7359V19.278H23.0619V18.242H29.6699ZM34.3322 28.098C33.6882 28.098 33.1095 27.986 32.5962 27.762C32.0922 27.5287 31.6955 27.2113 31.4062 26.81C31.1168 26.3993 30.9675 25.928 30.9582 25.396H32.3162C32.3628 25.8533 32.5495 26.2407 32.8762 26.558C33.2122 26.866 33.6975 27.02 34.3322 27.02C34.9388 27.02 35.4148 26.8707 35.7602 26.572C36.1148 26.264 36.2922 25.872 36.2922 25.396C36.2922 25.0227 36.1895 24.7193 35.9842 24.486C35.7788 24.2527 35.5222 24.0753 35.2142 23.954C34.9062 23.8327 34.4908 23.702 33.9682 23.562C33.3242 23.394 32.8062 23.226 32.4142 23.058C32.0315 22.89 31.7002 22.6287 31.4202 22.274C31.1495 21.91 31.0142 21.4247 31.0142 20.818C31.0142 20.286 31.1495 19.8147 31.4202 19.404C31.6908 18.9933 32.0688 18.676 32.5542 18.452C33.0488 18.228 33.6135 18.116 34.2482 18.116C35.1628 18.116 35.9095 18.3447 36.4882 18.802C37.0762 19.2593 37.4075 19.866 37.4822 20.622H36.0822C36.0355 20.2487 35.8395 19.922 35.4942 19.642C35.1488 19.3527 34.6915 19.208 34.1222 19.208C33.5902 19.208 33.1562 19.348 32.8202 19.628C32.4842 19.8987 32.3162 20.2813 32.3162 20.776C32.3162 21.1307 32.4142 21.42 32.6102 21.644C32.8155 21.868 33.0628 22.0407 33.3522 22.162C33.6508 22.274 34.0662 22.4047 34.5982 22.554C35.2422 22.7313 35.7602 22.9087 36.1522 23.086C36.5442 23.254 36.8802 23.52 37.1602 23.884C37.4402 24.2387 37.5802 24.724 37.5802 25.34C37.5802 25.816 37.4542 26.264 37.2022 26.684C36.9502 27.104 36.5768 27.4447 36.0822 27.706C35.5875 27.9673 35.0042 28.098 34.3322 28.098ZM43.445 23.128L46.441 28H44.999L42.661 24.192L40.435 28H39.021L42.003 23.128L39.007 18.242H40.435L42.787 22.064L45.027 18.242H46.455L43.445 23.128ZM52.1403 23.128L55.1363 28H53.6943L51.3563 24.192L49.1303 28H47.7163L50.6983 23.128L47.7023 18.242H49.1303L51.4823 22.064L53.7223 18.242H55.1503L52.1403 23.128ZM64.9096 18.242L61.2276 28H59.7576L56.0756 18.242H57.4336L60.4996 26.656L63.5656 18.242H64.9096ZM72.8305 21.098C72.8305 21.91 72.5505 22.5867 71.9905 23.128C71.4398 23.66 70.5952 23.926 69.4565 23.926H67.5805V28H66.3065V18.242H69.4565C70.5578 18.242 71.3932 18.508 71.9625 19.04C72.5412 19.572 72.8305 20.258 72.8305 21.098ZM69.4565 22.876C70.1658 22.876 70.6885 22.722 71.0245 22.414C71.3605 22.106 71.5285 21.6673 71.5285 21.098C71.5285 19.894 70.8378 19.292 69.4565 19.292H67.5805V22.876H69.4565ZM77.5079 28.098C76.8639 28.098 76.2853 27.986 75.7719 27.762C75.2679 27.5287 74.8713 27.2113 74.5819 26.81C74.2926 26.3993 74.1433 25.928 74.1339 25.396H75.4919C75.5386 25.8533 75.7253 26.2407 76.0519 26.558C76.3879 26.866 76.8733 27.02 77.5079 27.02C78.1146 27.02 78.5906 26.8707 78.9359 26.572C79.2906 26.264 79.4679 25.872 79.4679 25.396C79.4679 25.0227 79.3653 24.7193 79.1599 24.486C78.9546 24.2527 78.6979 24.0753 78.3899 23.954C78.0819 23.8327 77.6666 23.702 77.1439 23.562C76.4999 23.394 75.9819 23.226 75.5899 23.058C75.2073 22.89 74.8759 22.6287 74.5959 22.274C74.3253 21.91 74.1899 21.4247 74.1899 20.818C74.1899 20.286 74.3253 19.8147 74.5959 19.404C74.8666 18.9933 75.2446 18.676 75.7299 18.452C76.2246 18.228 76.7893 18.116 77.4239 18.116C78.3386 18.116 79.0853 18.3447 79.6639 18.802C80.2519 19.2593 80.5833 19.866 80.6579 20.622H79.2579C79.2113 20.2487 79.0153 19.922 78.6699 19.642C78.3246 19.3527 77.8673 19.208 77.2979 19.208C76.7659 19.208 76.3319 19.348 75.9959 19.628C75.6599 19.8987 75.4919 20.2813 75.4919 20.776C75.4919 21.1307 75.5899 21.42 75.7859 21.644C75.9913 21.868 76.2386 22.0407 76.5279 22.162C76.8266 22.274 77.2419 22.4047 77.7739 22.554C78.4179 22.7313 78.9359 22.9087 79.3279 23.086C79.7199 23.254 80.0559 23.52 80.3359 23.884C80.6159 24.2387 80.7559 24.724 80.7559 25.34C80.7559 25.816 80.6299 26.264 80.3779 26.684C80.1259 27.104 79.7526 27.4447 79.2579 27.706C78.7633 27.9673 78.1799 28.098 77.5079 28.098ZM83.9047 19.278V22.54H87.4607V23.59H83.9047V26.95H87.8807V28H82.6307V18.228H87.8807V19.278H83.9047Z" fill="#443B3B"/>
<path d="M19.964 22.974L19.653 22.0236L19.808 23.9618L19.964 22.974ZM20.93 23.408L20.3022 24.1864L20.3083 24.1913L20.3144 24.196L20.93 23.408ZM21.63 24.276L20.7308 24.7135L20.7355 24.7232L20.7404 24.7328L21.63 24.276ZM21.518 26.726L22.3592 27.2668L22.3649 27.2578L21.518 26.726ZM20.412 27.664L20.8378 28.5688L20.8453 28.5653L20.412 27.664ZM15.078 28H14.078V29H15.078V28ZM15.078 18.242V17.242H14.078V18.242H15.078ZM20.272 18.578L19.8393 19.4795L19.8467 19.4831L19.8541 19.4865L20.272 18.578ZM21.322 19.46L20.474 19.99L20.474 19.99L21.322 19.46ZM21.196 22.162L20.4262 21.5237L20.4246 21.5256L21.196 22.162ZM16.352 22.456H15.352V23.456H16.352V22.456ZM19.88 19.712L19.2292 20.4713L19.2292 20.4713L19.88 19.712ZM16.352 19.292V18.292H15.352V19.292H16.352ZM20.09 26.502L20.7341 27.2669L20.7341 27.2669L20.09 26.502ZM20.062 23.982L19.4144 24.7439L19.42 24.7487L19.4256 24.7534L20.062 23.982ZM16.352 23.506V22.506H15.352V23.506H16.352ZM16.352 26.95H15.352V27.95H16.352V26.95ZM19.808 23.9618C19.9836 23.9895 20.1441 24.0589 20.3022 24.1864L21.5578 22.6296C21.1372 22.2904 20.6537 22.0705 20.12 21.9862L19.808 23.9618ZM20.3144 24.196C20.4914 24.3343 20.6285 24.5032 20.7308 24.7135L22.5292 23.8385C22.2955 23.3582 21.9659 22.9483 21.5456 22.62L20.3144 24.196ZM20.7404 24.7328C20.8445 24.9354 20.896 25.1473 20.896 25.382H22.896C22.896 24.8327 22.7702 24.3073 22.5196 23.8192L20.7404 24.7328ZM20.896 25.382C20.896 25.6972 20.8186 25.9594 20.6711 26.1942L22.3649 27.2578C22.7214 26.6899 22.896 26.0561 22.896 25.382H20.896ZM20.6768 26.1852C20.5396 26.3987 20.3238 26.5969 19.9787 26.7627L20.8453 28.5653C21.4709 28.2645 21.9924 27.8373 22.3592 27.2668L20.6768 26.1852ZM19.9862 26.7592C19.6716 26.9072 19.2588 27 18.718 27V29C19.4838 29 20.2004 28.8688 20.8378 28.5688L19.9862 26.7592ZM18.718 27H15.078V29H18.718V27ZM16.078 28V18.242H14.078V28H16.078ZM15.078 19.242H18.578V17.242H15.078V19.242ZM18.578 19.242C19.1314 19.242 19.54 19.3359 19.8393 19.4795L20.7047 17.6765C20.0707 17.3721 19.3499 17.242 18.578 17.242V19.242ZM19.8541 19.4865C20.1738 19.6335 20.3604 19.8082 20.474 19.99L22.17 18.93C21.817 18.3652 21.3036 17.9518 20.6899 17.6695L19.8541 19.4865ZM20.474 19.99C20.602 20.1947 20.672 20.429 20.672 20.72H22.672C22.672 20.0777 22.5087 19.4719 22.17 18.93L20.474 19.99ZM20.672 20.72C20.672 21.1058 20.571 21.3491 20.4262 21.5237L21.9658 22.8003C22.4557 22.2095 22.672 21.4916 22.672 20.72H20.672ZM20.4246 21.5256C20.2509 21.7362 20.0078 21.9075 19.653 22.0236L20.275 23.9244C20.9469 23.7045 21.5251 23.3345 21.9674 22.7984L20.4246 21.5256ZM16.352 23.456H18.494V21.456H16.352V23.456ZM18.494 23.456C19.2378 23.456 19.9633 23.2816 20.5308 22.7953L19.2292 21.2767C19.1433 21.3504 18.9449 21.456 18.494 21.456V23.456ZM20.5308 22.7953C21.1135 22.2958 21.37 21.612 21.37 20.874H19.37C19.37 21.1254 19.2998 21.2162 19.2292 21.2767L20.5308 22.7953ZM21.37 20.874C21.37 20.136 21.1135 19.4522 20.5308 18.9527L19.2292 20.4713C19.2998 20.5318 19.37 20.6226 19.37 20.874H21.37ZM20.5308 18.9527C19.9584 18.4621 19.2193 18.292 18.466 18.292V20.292C18.9447 20.292 19.1483 20.4019 19.2292 20.4713L20.5308 18.9527ZM18.466 18.292H16.352V20.292H18.466V18.292ZM15.352 19.292V22.456H17.352V19.292H15.352ZM18.606 27.95C19.3896 27.95 20.1424 27.7652 20.7341 27.2669L19.4459 25.7371C19.3283 25.8361 19.0917 25.95 18.606 25.95V27.95ZM20.7341 27.2669C21.3491 26.749 21.622 26.0344 21.622 25.256H19.622C19.622 25.5416 19.5402 25.6576 19.4459 25.7371L20.7341 27.2669ZM21.622 25.256C21.622 24.4561 21.3311 23.7326 20.6984 23.2106L19.4256 24.7534C19.5396 24.8474 19.622 24.9732 19.622 25.256H21.622ZM20.7096 23.2201C20.1102 22.7105 19.3595 22.506 18.564 22.506V24.506C19.0192 24.506 19.2671 24.6188 19.4144 24.7439L20.7096 23.2201ZM18.564 22.506H16.352V24.506H18.564V22.506ZM15.352 23.506V26.95H17.352V23.506H15.352ZM16.352 27.95H18.606V25.95H16.352V27.95ZM29.6699 18.242H30.6699V17.242H29.6699V18.242ZM29.6699 19.278V20.278H30.6699V19.278H29.6699ZM27.0099 19.278V18.278H26.0099V19.278H27.0099ZM27.0099 28V29H28.0099V28H27.0099ZM25.7359 28H24.7359V29H25.7359V28ZM25.7359 19.278H26.7359V18.278H25.7359V19.278ZM23.0619 19.278H22.0619V20.278H23.0619V19.278ZM23.0619 18.242V17.242H22.0619V18.242H23.0619ZM28.6699 18.242V19.278H30.6699V18.242H28.6699ZM29.6699 18.278H27.0099V20.278H29.6699V18.278ZM26.0099 19.278V28H28.0099V19.278H26.0099ZM27.0099 27H25.7359V29H27.0099V27ZM26.7359 28V19.278H24.7359V28H26.7359ZM25.7359 18.278H23.0619V20.278H25.7359V18.278ZM24.0619 19.278V18.242H22.0619V19.278H24.0619ZM23.0619 19.242H29.6699V17.242H23.0619V19.242ZM32.5962 27.762L32.176 28.6695L32.1861 28.6741L32.1962 28.6785L32.5962 27.762ZM31.4062 26.81L30.5886 27.386L30.595 27.3948L31.4062 26.81ZM30.9582 25.396V24.396H29.9405L29.9583 25.4135L30.9582 25.396ZM32.3162 25.396L33.311 25.2945L33.2193 24.396H32.3162V25.396ZM32.8762 26.558L32.1794 27.2753L32.1898 27.2854L32.2004 27.2952L32.8762 26.558ZM35.7602 26.572L36.4143 27.3284L36.4158 27.327L35.7602 26.572ZM35.9842 24.486L35.2334 25.1466L35.2334 25.1466L35.9842 24.486ZM35.2142 23.954L34.8476 24.8844L34.8476 24.8844L35.2142 23.954ZM33.9682 23.562L34.2269 22.596L34.2206 22.5944L33.9682 23.562ZM32.4142 23.058L32.0122 23.9737L32.0202 23.9771L32.4142 23.058ZM31.4202 22.274L30.6177 22.8707L30.6263 22.8823L30.6353 22.8936L31.4202 22.274ZM31.4202 19.404L32.2551 19.9543L32.2551 19.9543L31.4202 19.404ZM32.5542 18.452L32.1416 17.541L32.1351 17.544L32.5542 18.452ZM36.4882 18.802L35.8681 19.5866L35.8742 19.5914L36.4882 18.802ZM37.4822 20.622V21.622H38.5858L38.4773 20.5237L37.4822 20.622ZM36.0822 20.622L35.0899 20.746L35.1994 21.622H36.0822V20.622ZM35.4942 19.642L34.8519 20.4085L34.8581 20.4137L34.8644 20.4188L35.4942 19.642ZM32.8202 19.628L33.4475 20.4068L33.454 20.4015L33.4603 20.3962L32.8202 19.628ZM32.6102 21.644L31.8576 22.3025L31.8652 22.3112L31.873 22.3197L32.6102 21.644ZM33.3522 22.162L32.9654 23.0842L32.9831 23.0916L33.001 23.0983L33.3522 22.162ZM34.5982 22.554L34.3279 23.5168L34.3327 23.5181L34.5982 22.554ZM36.1522 23.086L35.74 23.9971L35.7491 24.0012L35.7582 24.0051L36.1522 23.086ZM37.1602 23.884L36.3675 24.4938L36.3753 24.5036L37.1602 23.884ZM37.2022 26.684L38.0596 27.1985L38.0596 27.1985L37.2022 26.684ZM36.0822 27.706L35.615 26.8218L36.0822 27.706ZM34.3322 27.098C33.8053 27.098 33.3658 27.0068 32.9961 26.8455L32.1962 28.6785C32.8532 28.9652 33.571 29.098 34.3322 29.098V27.098ZM33.0163 26.8545C32.6487 26.6844 32.3944 26.4707 32.2173 26.2252L30.595 27.3948C30.9966 27.9519 31.5356 28.373 32.176 28.6695L33.0163 26.8545ZM32.2236 26.234C32.0566 25.997 31.964 25.7228 31.958 25.3785L29.9583 25.4135C29.9709 26.1332 30.177 26.8017 30.5887 27.386L32.2236 26.234ZM30.9582 26.396H32.3162V24.396H30.9582V26.396ZM31.3213 25.4975C31.3916 26.1863 31.6823 26.7924 32.1794 27.2753L33.5729 25.8407C33.4167 25.6889 33.334 25.5203 33.311 25.2945L31.3213 25.4975ZM32.2004 27.2952C32.7825 27.8287 33.5459 28.02 34.3322 28.02V26.02C33.8491 26.02 33.6418 25.9033 33.5519 25.8208L32.2004 27.2952ZM34.3322 28.02C35.0991 28.02 35.8347 27.8296 36.4143 27.3284L35.106 25.8156C34.9949 25.9117 34.7786 26.02 34.3322 26.02V28.02ZM36.4158 27.327C36.9925 26.8262 37.2922 26.1572 37.2922 25.396H35.2922C35.2922 25.5868 35.2371 25.7018 35.1045 25.817L36.4158 27.327ZM37.2922 25.396C37.2922 24.8308 37.1318 24.2765 36.7349 23.8254L35.2334 25.1466C35.2472 25.1622 35.2922 25.2145 35.2922 25.396H37.2922ZM36.7349 23.8254C36.4179 23.4652 36.0265 23.1992 35.5807 23.0236L34.8476 24.8844C35.0178 24.9515 35.1397 25.0401 35.2334 25.1466L36.7349 23.8254ZM35.5807 23.0236C35.2225 22.8825 34.7663 22.7405 34.2269 22.5961L33.7094 24.5279C34.2153 24.6635 34.5898 24.7828 34.8476 24.8844L35.5807 23.0236ZM34.2206 22.5944C33.6013 22.4328 33.1362 22.2795 32.8081 22.1389L32.0202 23.9771C32.4761 24.1725 33.047 24.3552 33.7157 24.5296L34.2206 22.5944ZM32.8161 22.1424C32.5954 22.0455 32.392 21.8912 32.205 21.6544L30.6353 22.8936C31.0083 23.3661 31.4675 23.7345 32.0122 23.9736L32.8161 22.1424ZM32.2226 21.6773C32.1173 21.5357 32.0142 21.2816 32.0142 20.818H30.0142C30.0142 21.5677 30.1816 22.2843 30.6177 22.8707L32.2226 21.6773ZM32.0142 20.818C32.0142 20.4649 32.1009 20.1882 32.2551 19.9543L30.5852 18.8537C30.198 19.4411 30.0142 20.1071 30.0142 20.818H32.0142ZM32.2551 19.9543C32.4143 19.7127 32.6419 19.5129 32.9732 19.36L32.1351 17.544C31.4957 17.8391 30.9673 18.2739 30.5852 18.8537L32.2551 19.9543ZM32.9667 19.363C33.3117 19.2067 33.732 19.116 34.2482 19.116V17.116C33.495 17.116 32.786 17.2493 32.1416 17.541L32.9667 19.363ZM34.2482 19.116C34.9931 19.116 35.505 19.2996 35.8681 19.5866L37.1082 18.0174C36.314 17.3897 35.3325 17.116 34.2482 17.116V19.116ZM35.8742 19.5914C36.241 19.8766 36.4387 20.231 36.487 20.7203L38.4773 20.5237C38.3763 19.5009 37.9113 18.6421 37.1021 18.0126L35.8742 19.5914ZM37.4822 19.622H36.0822V21.622H37.4822V19.622ZM37.0744 20.498C36.99 19.8227 36.6309 19.2763 36.124 18.8652L34.8644 20.4188C35.0481 20.5677 35.081 20.6747 35.0899 20.746L37.0744 20.498ZM36.1364 18.8755C35.5677 18.399 34.8628 18.208 34.1222 18.208V20.208C34.5202 20.208 34.73 20.3063 34.8519 20.4085L36.1364 18.8755ZM34.1222 18.208C33.4087 18.208 32.7323 18.3995 32.18 18.8598L33.4603 20.3962C33.58 20.2965 33.7716 20.208 34.1222 20.208V18.208ZM32.1928 18.8492C31.5849 19.339 31.3162 20.0286 31.3162 20.776H33.3162C33.3162 20.534 33.3834 20.4584 33.4475 20.4068L32.1928 18.8492ZM31.3162 20.776C31.3162 21.3241 31.4726 21.8626 31.8576 22.3025L33.3627 20.9855C33.3557 20.9774 33.3162 20.9372 33.3162 20.776H31.3162ZM31.873 22.3197C32.1792 22.6537 32.5473 22.9089 32.9654 23.0842L33.7389 21.2398C33.5783 21.1725 33.4518 21.0823 33.3473 20.9683L31.873 22.3197ZM33.001 23.0983C33.3386 23.2249 33.7852 23.3645 34.3279 23.5168L34.8684 21.5912C34.3471 21.4449 33.963 21.3231 33.7033 21.2257L33.001 23.0983ZM34.3327 23.5181C34.9507 23.6883 35.4138 23.8496 35.74 23.9971L36.5643 22.1749C36.1065 21.9678 35.5336 21.7744 34.8636 21.5899L34.3327 23.5181ZM35.7582 24.0051C35.9811 24.1006 36.1835 24.2545 36.3675 24.4937L37.9528 23.2743C37.5768 22.7855 37.1072 22.4074 36.5461 22.1669L35.7582 24.0051ZM36.3753 24.5036C36.4729 24.6273 36.5802 24.8679 36.5802 25.34H38.5802C38.5802 24.5801 38.4074 23.85 37.945 23.2644L36.3753 24.5036ZM36.5802 25.34C36.5802 25.6293 36.5063 25.9002 36.3447 26.1695L38.0596 27.1985C38.4021 26.6278 38.5802 26.0027 38.5802 25.34H36.5802ZM36.3447 26.1695C36.1994 26.4117 35.9717 26.6334 35.615 26.8218L36.5493 28.5902C37.182 28.256 37.701 27.7963 38.0596 27.1985L36.3447 26.1695ZM35.615 26.8218C35.2906 26.9932 34.8739 27.098 34.3322 27.098V29.098C35.1344 29.098 35.8844 28.9415 36.5493 28.5902L35.615 26.8218ZM43.445 23.128L42.5935 22.6035L42.2707 23.1275L42.5931 23.6518L43.445 23.128ZM46.441 28V29H48.2298L47.2928 27.4762L46.441 28ZM44.999 28L44.1468 28.5232L44.4395 29H44.999V28ZM42.661 24.192L43.5131 23.6688L42.6399 22.2465L41.7976 23.6873L42.661 24.192ZM40.435 28V29H41.0087L41.2983 28.5047L40.435 28ZM39.021 28L38.168 27.478L37.2364 29H39.021V28ZM42.003 23.128L42.8559 23.65L43.1757 23.1275L42.8554 22.6053L42.003 23.128ZM39.007 18.242V17.242H37.2207L38.1545 18.7647L39.007 18.242ZM40.435 18.242L41.2866 17.7179L40.9937 17.242H40.435V18.242ZM42.787 22.064L41.9353 22.5881L42.8079 24.006L43.6497 22.5696L42.787 22.064ZM45.027 18.242V17.242H44.4539L44.1642 17.7364L45.027 18.242ZM46.455 18.242L47.3064 18.7665L48.2455 17.242H46.455V18.242ZM42.5931 23.6518L45.5891 28.5238L47.2928 27.4762L44.2968 22.6042L42.5931 23.6518ZM46.441 27H44.999V29H46.441V27ZM45.8511 27.4768L43.5131 23.6688L41.8088 24.7152L44.1468 28.5232L45.8511 27.4768ZM41.7976 23.6873L39.5716 27.4953L41.2983 28.5047L43.5243 24.6967L41.7976 23.6873ZM40.435 27H39.021V29H40.435V27ZM39.8739 28.522L42.8559 23.65L41.15 22.606L38.168 27.478L39.8739 28.522ZM42.8554 22.6053L39.8594 17.7193L38.1545 18.7647L41.1505 23.6507L42.8554 22.6053ZM39.007 19.242H40.435V17.242H39.007V19.242ZM39.5833 18.7661L41.9353 22.5881L43.6386 21.5399L41.2866 17.7179L39.5833 18.7661ZM43.6497 22.5696L45.8897 18.7476L44.1642 17.7364L41.9242 21.5584L43.6497 22.5696ZM45.027 19.242H46.455V17.242H45.027V19.242ZM45.6035 17.7175L42.5935 22.6035L44.2964 23.6525L47.3064 18.7665L45.6035 17.7175ZM52.1403 23.128L51.2889 22.6035L50.966 23.1275L51.2884 23.6518L52.1403 23.128ZM55.1363 28V29H56.9252L55.9881 27.4762L55.1363 28ZM53.6943 28L52.8421 28.5232L53.1348 29H53.6943V28ZM51.3563 24.192L52.2085 23.6688L51.3352 22.2465L50.4929 23.6873L51.3563 24.192ZM49.1303 28V29H49.704L49.9936 28.5047L49.1303 28ZM47.7163 28L46.8633 27.478L45.9318 29H47.7163V28ZM50.6983 23.128L51.5512 23.65L51.871 23.1275L51.5508 22.6053L50.6983 23.128ZM47.7023 18.242V17.242H45.9161L46.8498 18.7647L47.7023 18.242ZM49.1303 18.242L49.9819 17.7179L49.6891 17.242H49.1303V18.242ZM51.4823 22.064L50.6306 22.5881L51.5032 24.006L52.345 22.5696L51.4823 22.064ZM53.7223 18.242V17.242H53.1493L52.8595 17.7364L53.7223 18.242ZM55.1503 18.242L56.0017 18.7665L56.9408 17.242H55.1503V18.242ZM51.2884 23.6518L54.2844 28.5238L55.9881 27.4762L52.9921 22.6042L51.2884 23.6518ZM55.1363 27H53.6943V29H55.1363V27ZM54.5465 27.4768L52.2085 23.6688L50.5041 24.7152L52.8421 28.5232L54.5465 27.4768ZM50.4929 23.6873L48.2669 27.4953L49.9936 28.5047L52.2196 24.6967L50.4929 23.6873ZM49.1303 27H47.7163V29H49.1303V27ZM48.5692 28.522L51.5512 23.65L49.8453 22.606L46.8633 27.478L48.5692 28.522ZM51.5508 22.6053L48.5548 17.7193L46.8498 18.7647L49.8458 23.6507L51.5508 22.6053ZM47.7023 19.242H49.1303V17.242H47.7023V19.242ZM48.2786 18.7661L50.6306 22.5881L52.3339 21.5399L49.9819 17.7179L48.2786 18.7661ZM52.345 22.5696L54.585 18.7476L52.8595 17.7364L50.6195 21.5584L52.345 22.5696ZM53.7223 19.242H55.1503V17.242H53.7223V19.242ZM54.2989 17.7175L51.2889 22.6035L52.9917 23.6525L56.0017 18.7665L54.2989 17.7175ZM64.9096 18.242L65.8452 18.595L66.3557 17.242H64.9096V18.242ZM61.2276 28V29H61.9191L62.1632 28.353L61.2276 28ZM59.7576 28L58.822 28.353L59.0661 29H59.7576V28ZM56.0756 18.242V17.242H54.6294L55.14 18.595L56.0756 18.242ZM57.4336 18.242L58.3731 17.8996L58.1335 17.242H57.4336V18.242ZM60.4996 26.656L59.56 26.9984L60.4996 29.5768L61.4391 26.9984L60.4996 26.656ZM63.5656 18.242V17.242H62.8656L62.626 17.8996L63.5656 18.242ZM63.974 17.889L60.292 27.647L62.1632 28.353L65.8452 18.595L63.974 17.889ZM61.2276 27H59.7576V29H61.2276V27ZM60.6932 27.647L57.0112 17.889L55.14 18.595L58.822 28.353L60.6932 27.647ZM56.0756 19.242H57.4336V17.242H56.0756V19.242ZM56.494 18.5844L59.56 26.9984L61.4391 26.3136L58.3731 17.8996L56.494 18.5844ZM61.4391 26.9984L64.5051 18.5844L62.626 17.8996L59.56 26.3136L61.4391 26.9984ZM63.5656 19.242H64.9096V17.242H63.5656V19.242ZM71.9905 23.128L72.6853 23.8472L72.6855 23.847L71.9905 23.128ZM67.5805 23.926V22.926H66.5805V23.926H67.5805ZM67.5805 28V29H68.5805V28H67.5805ZM66.3065 28H65.3065V29H66.3065V28ZM66.3065 18.242V17.242H65.3065V18.242H66.3065ZM71.9625 19.04L71.2797 19.7707L71.2857 19.7762L71.9625 19.04ZM71.0245 22.414L71.7002 23.1512L71.7002 23.1512L71.0245 22.414ZM67.5805 19.292V18.292H66.5805V19.292H67.5805ZM67.5805 22.876H66.5805V23.876H67.5805V22.876ZM71.8305 21.098C71.8305 21.6518 71.6515 22.0649 71.2955 22.409L72.6855 23.847C73.4496 23.1084 73.8305 22.1682 73.8305 21.098H71.8305ZM71.2957 22.4088C71.0051 22.6895 70.4605 22.926 69.4565 22.926V24.926C70.7299 24.926 71.8746 24.6305 72.6853 23.8472L71.2957 22.4088ZM69.4565 22.926H67.5805V24.926H69.4565V22.926ZM66.5805 23.926V28H68.5805V23.926H66.5805ZM67.5805 27H66.3065V29H67.5805V27ZM67.3065 28V18.242H65.3065V28H67.3065ZM66.3065 19.242H69.4565V17.242H66.3065V19.242ZM69.4565 19.242C70.4093 19.242 70.9602 19.4721 71.2798 19.7707L72.6453 18.3093C71.8261 17.5439 70.7064 17.242 69.4565 17.242V19.242ZM71.2857 19.7762C71.6431 20.1047 71.8305 20.5162 71.8305 21.098H73.8305C73.8305 19.9998 73.4393 19.0393 72.6393 18.3038L71.2857 19.7762ZM69.4565 23.876C70.2823 23.876 71.1005 23.7009 71.7002 23.1512L70.3488 21.6768C70.2765 21.7431 70.0494 21.876 69.4565 21.876V23.876ZM71.7002 23.1512C72.2922 22.6085 72.5285 21.8728 72.5285 21.098H70.5285C70.5285 21.4618 70.4288 21.6035 70.3488 21.6768L71.7002 23.1512ZM72.5285 21.098C72.5285 20.3034 72.2942 19.5359 71.6676 18.9897C71.0672 18.4663 70.2702 18.292 69.4565 18.292V20.292C70.0242 20.292 70.2632 20.4187 70.3535 20.4973C70.4175 20.5531 70.5285 20.6886 70.5285 21.098H72.5285ZM69.4565 18.292H67.5805V20.292H69.4565V18.292ZM66.5805 19.292V22.876H68.5805V19.292H66.5805ZM67.5805 23.876H69.4565V21.876H67.5805V23.876ZM75.7719 27.762L75.3518 28.6695L75.3619 28.6741L75.372 28.6785L75.7719 27.762ZM74.5819 26.81L73.7644 27.386L73.7708 27.3948L74.5819 26.81ZM74.1339 25.396V24.396H73.1162L73.1341 25.4135L74.1339 25.396ZM75.4919 25.396L76.4868 25.2945L76.3951 24.396H75.4919V25.396ZM76.0519 26.558L75.3552 27.2753L75.3655 27.2854L75.3762 27.2952L76.0519 26.558ZM78.9359 26.572L79.5901 27.3284L79.5916 27.327L78.9359 26.572ZM79.1599 24.486L78.4092 25.1466L78.4092 25.1466L79.1599 24.486ZM78.3899 23.954L78.0234 24.8844L78.0234 24.8844L78.3899 23.954ZM77.1439 23.562L77.4027 22.596L77.3964 22.5944L77.1439 23.562ZM75.5899 23.058L75.1879 23.9737L75.196 23.9771L75.5899 23.058ZM74.5959 22.274L73.7935 22.8707L73.8021 22.8823L73.8111 22.8936L74.5959 22.274ZM74.5959 19.404L75.4309 19.9543L75.4309 19.9543L74.5959 19.404ZM75.7299 18.452L75.3174 17.541L75.3109 17.544L75.7299 18.452ZM79.6639 18.802L79.0439 19.5866L79.05 19.5914L79.6639 18.802ZM80.6579 20.622V21.622H81.7616L81.6531 20.5237L80.6579 20.622ZM79.2579 20.622L78.2657 20.746L78.3752 21.622H79.2579V20.622ZM78.6699 19.642L78.0277 20.4085L78.0339 20.4137L78.0401 20.4188L78.6699 19.642ZM75.9959 19.628L76.6233 20.4068L76.6297 20.4015L76.6361 20.3962L75.9959 19.628ZM75.7859 21.644L75.0334 22.3025L75.041 22.3112L75.0488 22.3197L75.7859 21.644ZM76.5279 22.162L76.1412 23.0842L76.1589 23.0916L76.1768 23.0983L76.5279 22.162ZM77.7739 22.554L77.5037 23.5168L77.5085 23.5181L77.7739 22.554ZM79.3279 23.086L78.9158 23.9971L78.9249 24.0012L78.934 24.0051L79.3279 23.086ZM80.3359 23.884L79.5433 24.4938L79.5511 24.5036L80.3359 23.884ZM80.3779 26.684L81.2354 27.1985L81.2354 27.1985L80.3779 26.684ZM79.2579 27.706L78.7908 26.8218L79.2579 27.706ZM77.5079 27.098C76.9811 27.098 76.5415 27.0068 76.1719 26.8455L75.372 28.6785C76.029 28.9652 76.7468 29.098 77.5079 29.098V27.098ZM76.1921 26.8545C75.8245 26.6844 75.5701 26.4707 75.3931 26.2252L73.7708 27.3948C74.1724 27.9519 74.7114 28.373 75.3518 28.6695L76.1921 26.8545ZM75.3994 26.234C75.2324 25.997 75.1398 25.7228 75.1338 25.3785L73.1341 25.4135C73.1467 26.1332 73.3528 26.8017 73.7645 27.386L75.3994 26.234ZM74.1339 26.396H75.4919V24.396H74.1339V26.396ZM74.4971 25.4975C74.5674 26.1863 74.8581 26.7924 75.3552 27.2753L76.7487 25.8407C76.5924 25.6889 76.5098 25.5203 76.4868 25.2945L74.4971 25.4975ZM75.3762 27.2952C75.9583 27.8287 76.7216 28.02 77.5079 28.02V26.02C77.0249 26.02 76.8176 25.9033 76.7277 25.8208L75.3762 27.2952ZM77.5079 28.02C78.2749 28.02 79.0105 27.8296 79.5901 27.3284L78.2818 25.8156C78.1707 25.9117 77.9543 26.02 77.5079 26.02V28.02ZM79.5916 27.327C80.1683 26.8262 80.4679 26.1572 80.4679 25.396H78.4679C78.4679 25.5868 78.4129 25.7018 78.2803 25.817L79.5916 27.327ZM80.4679 25.396C80.4679 24.8308 80.3076 24.2765 79.9107 23.8254L78.4092 25.1466C78.4229 25.1622 78.4679 25.2145 78.4679 25.396H80.4679ZM79.9107 23.8254C79.5937 23.4652 79.2023 23.1992 78.7565 23.0236L78.0234 24.8844C78.1936 24.9515 78.3155 25.0401 78.4092 25.1466L79.9107 23.8254ZM78.7565 23.0236C78.3983 22.8825 77.9421 22.7405 77.4027 22.5961L76.8852 24.5279C77.3911 24.6635 77.7656 24.7828 78.0234 24.8844L78.7565 23.0236ZM77.3964 22.5944C76.7771 22.4328 76.312 22.2795 75.9839 22.1389L75.196 23.9771C75.6519 24.1725 76.2228 24.3552 76.8915 24.5296L77.3964 22.5944ZM75.9919 22.1424C75.7712 22.0455 75.5678 21.8912 75.3808 21.6544L73.8111 22.8936C74.1841 23.3661 74.6433 23.7345 75.1879 23.9736L75.9919 22.1424ZM75.3984 21.6773C75.2931 21.5357 75.1899 21.2816 75.1899 20.818H73.1899C73.1899 21.5677 73.3574 22.2843 73.7935 22.8707L75.3984 21.6773ZM75.1899 20.818C75.1899 20.4649 75.2767 20.1882 75.4309 19.9543L73.761 18.8537C73.3738 19.4411 73.1899 20.1071 73.1899 20.818H75.1899ZM75.4309 19.9543C75.5901 19.7127 75.8177 19.5129 76.149 19.36L75.3109 17.544C74.6715 17.8391 74.1431 18.2739 73.761 18.8537L75.4309 19.9543ZM76.1424 19.363C76.4875 19.2067 76.9077 19.116 77.4239 19.116V17.116C76.6708 17.116 75.9618 17.2493 75.3174 17.541L76.1424 19.363ZM77.4239 19.116C78.1689 19.116 78.6808 19.2996 79.0439 19.5866L80.284 18.0174C79.4898 17.3897 78.5083 17.116 77.4239 17.116V19.116ZM79.05 19.5914C79.4167 19.8766 79.6145 20.231 79.6628 20.7203L81.6531 20.5237C81.5521 19.5009 81.0871 18.6421 80.2779 18.0126L79.05 19.5914ZM80.6579 19.622H79.2579V21.622H80.6579V19.622ZM80.2502 20.498C80.1658 19.8227 79.8067 19.2763 79.2997 18.8652L78.0401 20.4188C78.2238 20.5677 78.2567 20.6747 78.2657 20.746L80.2502 20.498ZM79.3122 18.8755C78.7435 18.399 78.0386 18.208 77.2979 18.208V20.208C77.696 20.208 77.9057 20.3063 78.0277 20.4085L79.3122 18.8755ZM77.2979 18.208C76.5845 18.208 75.9081 18.3995 75.3558 18.8598L76.6361 20.3962C76.7558 20.2965 76.9473 20.208 77.2979 20.208V18.208ZM75.3686 18.8492C74.7607 19.339 74.4919 20.0286 74.4919 20.776H76.4919C76.4919 20.534 76.5592 20.4584 76.6233 20.4068L75.3686 18.8492ZM74.4919 20.776C74.4919 21.3241 74.6484 21.8626 75.0334 22.3025L76.5385 20.9855C76.5315 20.9774 76.4919 20.9372 76.4919 20.776H74.4919ZM75.0488 22.3197C75.355 22.6537 75.7231 22.9089 76.1412 23.0842L76.9147 21.2398C76.7541 21.1725 76.6276 21.0823 76.5231 20.9683L75.0488 22.3197ZM76.1768 23.0983C76.5144 23.2249 76.961 23.3645 77.5037 23.5168L78.0442 21.5912C77.5229 21.4449 77.1388 21.3231 76.8791 21.2257L76.1768 23.0983ZM77.5085 23.5181C78.1264 23.6883 78.5896 23.8496 78.9158 23.9971L79.7401 22.1749C79.2823 21.9678 78.7094 21.7744 78.0394 21.5899L77.5085 23.5181ZM78.934 24.0051C79.1569 24.1006 79.3593 24.2545 79.5433 24.4937L81.1286 23.2743C80.7526 22.7855 80.283 22.4074 79.7219 22.1669L78.934 24.0051ZM79.5511 24.5036C79.6487 24.6273 79.7559 24.8679 79.7559 25.34H81.7559C81.7559 24.5801 81.5832 23.85 81.1208 23.2644L79.5511 24.5036ZM79.7559 25.34C79.7559 25.6293 79.682 25.9002 79.5204 26.1695L81.2354 27.1985C81.5778 26.6278 81.7559 26.0027 81.7559 25.34H79.7559ZM79.5204 26.1695C79.3751 26.4117 79.1475 26.6334 78.7908 26.8218L79.7251 28.5902C80.3577 28.256 80.8767 27.7963 81.2354 27.1985L79.5204 26.1695ZM78.7908 26.8218C78.4664 26.9932 78.0497 27.098 77.5079 27.098V29.098C78.3102 29.098 79.0602 28.9415 79.7251 28.5902L78.7908 26.8218ZM83.9047 19.278V18.278H82.9047V19.278H83.9047ZM83.9047 22.54H82.9047V23.54H83.9047V22.54ZM87.4607 22.54H88.4607V21.54H87.4607V22.54ZM87.4607 23.59V24.59H88.4607V23.59H87.4607ZM83.9047 23.59V22.59H82.9047V23.59H83.9047ZM83.9047 26.95H82.9047V27.95H83.9047V26.95ZM87.8807 26.95H88.8807V25.95H87.8807V26.95ZM87.8807 28V29H88.8807V28H87.8807ZM82.6307 28H81.6307V29H82.6307V28ZM82.6307 18.228V17.228H81.6307V18.228H82.6307ZM87.8807 18.228H88.8807V17.228H87.8807V18.228ZM87.8807 19.278V20.278H88.8807V19.278H87.8807ZM82.9047 19.278V22.54H84.9047V19.278H82.9047ZM83.9047 23.54H87.4607V21.54H83.9047V23.54ZM86.4607 22.54V23.59H88.4607V22.54H86.4607ZM87.4607 22.59H83.9047V24.59H87.4607V22.59ZM82.9047 23.59V26.95H84.9047V23.59H82.9047ZM83.9047 27.95H87.8807V25.95H83.9047V27.95ZM86.8807 26.95V28H88.8807V26.95H86.8807ZM87.8807 27H82.6307V29H87.8807V27ZM83.6307 28V18.228H81.6307V28H83.6307ZM82.6307 19.228H87.8807V17.228H82.6307V19.228ZM86.8807 18.228V19.278H88.8807V18.228H86.8807ZM87.8807 18.278H83.9047V20.278H87.8807V18.278Z" fill="#443B3B"/>
<path d="M126.024 24.3016C126.024 23.9992 125.831 23.7393 125.548 23.6029L105.46 13.4457C105.308 13.3519 105.126 13.3015 104.939 13.3014C104.697 13.3014 104.464 13.3858 104.292 13.536C104.121 13.6862 104.024 13.8899 104.024 14.1023C104.024 14.1334 104.031 14.1626 104.035 14.1926H104.024V34.5909H104.035C104.059 34.786 104.165 34.9663 104.332 35.0974C104.499 35.2285 104.715 35.3011 104.939 35.3014C105.099 35.3007 105.256 35.2628 105.394 35.1915L105.403 35.204L125.573 25.005L125.565 24.9925C125.704 24.923 125.82 24.8225 125.901 24.7011C125.981 24.5798 126.024 24.442 126.024 24.3016Z" fill="#443B3B"/>
<defs>
<filter id="filter0_d" x="0.0258789" y="0.760498" width="142.192" height="53.9874" filterUnits="userSpaceOnUse" color-interpolation-filters="sRGB">
<feFlood flood-opacity="0" result="BackgroundImageFix"/>
<feColorMatrix in="SourceAlpha" type="matrix" values="0 0 0 0 0 0 0 0 0 0 0 0 0 0 0 0 0 0 127 0"/>
<feOffset dy="4"/>
<feGaussianBlur stdDeviation="2"/>
<feColorMatrix type="matrix" values="0 0 0 0 0 0 0 0 0 0 0 0 0 0 0 0 0 0 0.25 0"/>
<feBlend mode="normal" in2="BackgroundImageFix" result="effect1_dropShadow"/>
<feBlend mode="normal" in="SourceGraphic" in2="effect1_dropShadow" result="shape"/>
</filter>
</defs>
</svg>
