<svg width="343" height="75" viewBox="0 0 343 75" fill="none" xmlns="http://www.w3.org/2000/svg">
<g filter="url(#filter0_d)">
<rect x="9.02588" y="0.0125732" width="134.192" height="45.9874" rx="22.9937" fill="#9DF5B1"/>
</g>
<path d="M131 24.0001C131 23.6977 130.807 23.4378 130.524 23.3014L110.436 13.1442C110.284 13.0504 110.101 13.0001 109.915 13C109.672 13 109.44 13.0843 109.268 13.2345C109.097 13.3847 109 13.5884 109 13.8008C109 13.8319 109.007 13.8612 109.011 13.8912H109V34.2895H109.011C109.035 34.4845 109.141 34.6649 109.308 34.7959C109.475 34.927 109.691 34.9997 109.915 35C110.075 34.9993 110.232 34.9613 110.37 34.89L110.378 34.9025L130.549 24.7035L130.541 24.691C130.68 24.6215 130.796 24.521 130.876 24.3997C130.957 24.2784 131 24.1405 131 24.0001Z" fill="#443B3B"/>
<path d="M31.6621 21.538C32.1181 21.61 32.5321 21.796 32.9041 22.096C33.2881 22.396 33.5881 22.768 33.8041 23.212C34.0321 23.656 34.1461 24.13 34.1461 24.634C34.1461 25.27 33.9841 25.846 33.6601 26.362C33.3361 26.866 32.8621 27.268 32.2381 27.568C31.6261 27.856 30.9001 28 30.0601 28H25.3801V15.454H29.8801C30.7321 15.454 31.4581 15.598 32.0581 15.886C32.6581 16.162 33.1081 16.54 33.4081 17.02C33.7081 17.5 33.8581 18.04 33.8581 18.64C33.8581 19.384 33.6541 20.002 33.2461 20.494C32.8501 20.974 32.3221 21.322 31.6621 21.538ZM27.0181 20.872H29.7721C30.5401 20.872 31.1341 20.692 31.5541 20.332C31.9741 19.972 32.1841 19.474 32.1841 18.838C32.1841 18.202 31.9741 17.704 31.5541 17.344C31.1341 16.984 30.5281 16.804 29.7361 16.804H27.0181V20.872ZM29.9161 26.65C30.7321 26.65 31.3681 26.458 31.8241 26.074C32.2801 25.69 32.5081 25.156 32.5081 24.472C32.5081 23.776 32.2681 23.23 31.7881 22.834C31.3081 22.426 30.6661 22.222 29.8621 22.222H27.0181V26.65H29.9161ZM44.1412 15.454V16.786H40.7212V28H39.0832V16.786H35.6452V15.454H44.1412ZM51.2875 21.736L55.1395 28H53.2855L50.2795 23.104L47.4175 28H45.5995L49.4335 21.736L45.5815 15.454H47.4175L50.4415 20.368L53.3215 15.454H55.1575L51.2875 21.736ZM61.3152 28.126C60.4872 28.126 59.7432 27.982 59.0832 27.694C58.4352 27.394 57.9252 26.986 57.5532 26.47C57.1812 25.942 56.9892 25.336 56.9772 24.652H58.7232C58.7832 25.24 59.0232 25.738 59.4432 26.146C59.8752 26.542 60.4992 26.74 61.3152 26.74C62.0952 26.74 62.7072 26.548 63.1512 26.164C63.6072 25.768 63.8352 25.264 63.8352 24.652C63.8352 24.172 63.7032 23.782 63.4392 23.482C63.1752 23.182 62.8452 22.954 62.4492 22.798C62.0532 22.642 61.5192 22.474 60.8472 22.294C60.0192 22.078 59.3532 21.862 58.8492 21.646C58.3572 21.43 57.9312 21.094 57.5712 20.638C57.2232 20.17 57.0492 19.546 57.0492 18.766C57.0492 18.082 57.2232 17.476 57.5712 16.948C57.9192 16.42 58.4052 16.012 59.0292 15.724C59.6652 15.436 60.3912 15.292 61.2072 15.292C62.3832 15.292 63.3432 15.586 64.0872 16.174C64.8432 16.762 65.2692 17.542 65.3652 18.514H63.5652C63.5052 18.034 63.2532 17.614 62.8092 17.254C62.3652 16.882 61.7772 16.696 61.0452 16.696C60.3612 16.696 59.8032 16.876 59.3712 17.236C58.9392 17.584 58.7232 18.076 58.7232 18.712C58.7232 19.168 58.8492 19.54 59.1012 19.828C59.3652 20.116 59.6832 20.338 60.0552 20.494C60.4392 20.638 60.9732 20.806 61.6572 20.998C62.4852 21.226 63.1512 21.454 63.6552 21.682C64.1592 21.898 64.5912 22.24 64.9512 22.708C65.3112 23.164 65.4912 23.788 65.4912 24.58C65.4912 25.192 65.3292 25.768 65.0052 26.308C64.6812 26.848 64.2012 27.286 63.5652 27.622C62.9292 27.958 62.1792 28.126 61.3152 28.126ZM69.5396 16.786V20.98H74.1116V22.33H69.5396V26.65H74.6516V28H67.9016V15.436H74.6516V16.786H69.5396Z" fill="#443B3B"/>
<path d="M31.6621 21.538L31.3511 20.5876L31.5062 22.5257L31.6621 21.538ZM32.9041 22.096L32.2764 22.8744L32.2824 22.8792L32.2885 22.884L32.9041 22.096ZM33.8041 23.212L32.9049 23.6494L32.9096 23.6592L32.9146 23.6688L33.8041 23.212ZM33.6601 26.362L34.5014 26.9028L34.507 26.8937L33.6601 26.362ZM32.2381 27.568L32.664 28.4728L32.6714 28.4692L32.2381 27.568ZM25.3801 28H24.3801V29H25.3801V28ZM25.3801 15.454V14.454H24.3801V15.454H25.3801ZM32.0581 15.886L31.6254 16.7875L31.6328 16.791L31.6402 16.7945L32.0581 15.886ZM33.4081 17.02L32.5601 17.55L32.5601 17.55L33.4081 17.02ZM33.2461 20.494L32.4764 19.8556L32.4748 19.8576L33.2461 20.494ZM27.0181 20.872H26.0181V21.872H27.0181V20.872ZM31.5541 17.344L30.9033 18.1032L30.9033 18.1032L31.5541 17.344ZM27.0181 16.804V15.804H26.0181V16.804H27.0181ZM31.8241 26.074L32.4683 26.8389L32.4683 26.8389L31.8241 26.074ZM31.7881 22.834L31.1405 23.5959L31.1461 23.6007L31.1518 23.6053L31.7881 22.834ZM27.0181 22.222V21.222H26.0181V22.222H27.0181ZM27.0181 26.65H26.0181V27.65H27.0181V26.65ZM31.5062 22.5257C31.7831 22.5695 32.0356 22.6802 32.2764 22.8744L33.5319 21.3176C33.0287 20.9117 32.4532 20.6505 31.8181 20.5502L31.5062 22.5257ZM32.2885 22.884C32.5509 23.089 32.7546 23.3405 32.9049 23.6494L34.7034 22.7745C34.4217 22.1955 34.0254 21.703 33.5198 21.3079L32.2885 22.884ZM32.9146 23.6688C33.0693 23.97 33.1461 24.2872 33.1461 24.634H35.1461C35.1461 23.9727 34.995 23.3419 34.6937 22.7552L32.9146 23.6688ZM33.1461 24.634C33.1461 25.0905 33.0327 25.4807 32.8133 25.8302L34.507 26.8937C34.9356 26.2112 35.1461 25.4494 35.1461 24.634H33.1461ZM32.819 25.8212C32.6097 26.1467 32.2886 26.4342 31.8048 26.6667L32.6714 28.4692C33.4357 28.1018 34.0626 27.5852 34.5013 26.9027L32.819 25.8212ZM31.8123 26.6632C31.3617 26.8752 30.7877 27 30.0601 27V29C31.0126 29 31.8905 28.8367 32.6639 28.4728L31.8123 26.6632ZM30.0601 27H25.3801V29H30.0601V27ZM26.3801 28V15.454H24.3801V28H26.3801ZM25.3801 16.454H29.8801V14.454H25.3801V16.454ZM29.8801 16.454C30.6229 16.454 31.1928 16.5798 31.6254 16.7875L32.4909 14.9844C31.7235 14.6161 30.8414 14.454 29.8801 14.454V16.454ZM31.6402 16.7945C32.0932 17.0028 32.3798 17.2615 32.5601 17.55L34.2561 16.49C33.8364 15.8185 33.2231 15.3211 32.476 14.9775L31.6402 16.7945ZM32.5601 17.55C32.7548 17.8614 32.8581 18.2156 32.8581 18.64H34.8581C34.8581 17.8643 34.6615 17.1386 34.2561 16.49L32.5601 17.55ZM32.8581 18.64C32.8581 19.1911 32.7118 19.5718 32.4764 19.8556L34.0159 21.1323C34.5965 20.4322 34.8581 19.5769 34.8581 18.64H32.8581ZM32.4748 19.8576C32.213 20.1749 31.8526 20.4235 31.3511 20.5876L31.9732 22.4884C32.7917 22.2205 33.4873 21.7731 34.0175 21.1304L32.4748 19.8576ZM27.0181 21.872H29.7721V19.872H27.0181V21.872ZM29.7721 21.872C30.6866 21.872 31.5441 21.6576 32.2049 21.0912L30.9033 19.5727C30.7241 19.7263 30.3937 19.872 29.7721 19.872V21.872ZM32.2049 21.0912C32.881 20.5117 33.1841 19.7173 33.1841 18.838H31.1841C31.1841 19.2307 31.0673 19.4322 30.9033 19.5727L32.2049 21.0912ZM33.1841 18.838C33.1841 17.9587 32.881 17.1642 32.2049 16.5847L30.9033 18.1032C31.0673 18.2437 31.1841 18.4453 31.1841 18.838H33.1841ZM32.2049 16.5847C31.5392 16.0141 30.6654 15.804 29.7361 15.804V17.804C30.3909 17.804 30.7291 17.9538 30.9033 18.1032L32.2049 16.5847ZM29.7361 15.804H27.0181V17.804H29.7361V15.804ZM26.0181 16.804V20.872H28.0181V16.804H26.0181ZM29.9161 27.65C30.8811 27.65 31.7752 27.4225 32.4683 26.8389L31.18 25.3091C30.9611 25.4934 30.5832 25.65 29.9161 25.65V27.65ZM32.4683 26.8389C33.1846 26.2357 33.5081 25.4024 33.5081 24.472H31.5081C31.5081 24.9095 31.3757 25.1443 31.18 25.3091L32.4683 26.8389ZM33.5081 24.472C33.5081 23.5174 33.1639 22.6726 32.4245 22.0626L31.1518 23.6053C31.3724 23.7873 31.5081 24.0345 31.5081 24.472H33.5081ZM32.4358 22.072C31.7297 21.4718 30.8363 21.222 29.8621 21.222V23.222C30.496 23.222 30.8866 23.3801 31.1405 23.5959L32.4358 22.072ZM29.8621 21.222H27.0181V23.222H29.8621V21.222ZM26.0181 22.222V26.65H28.0181V22.222H26.0181ZM27.0181 27.65H29.9161V25.65H27.0181V27.65ZM44.1412 15.454H45.1412V14.454H44.1412V15.454ZM44.1412 16.786V17.786H45.1412V16.786H44.1412ZM40.7212 16.786V15.786H39.7212V16.786H40.7212ZM40.7212 28V29H41.7212V28H40.7212ZM39.0832 28H38.0832V29H39.0832V28ZM39.0832 16.786H40.0832V15.786H39.0832V16.786ZM35.6452 16.786H34.6452V17.786H35.6452V16.786ZM35.6452 15.454V14.454H34.6452V15.454H35.6452ZM43.1412 15.454V16.786H45.1412V15.454H43.1412ZM44.1412 15.786H40.7212V17.786H44.1412V15.786ZM39.7212 16.786V28H41.7212V16.786H39.7212ZM40.7212 27H39.0832V29H40.7212V27ZM40.0832 28V16.786H38.0832V28H40.0832ZM39.0832 15.786H35.6452V17.786H39.0832V15.786ZM36.6452 16.786V15.454H34.6452V16.786H36.6452ZM35.6452 16.454H44.1412V14.454H35.6452V16.454ZM51.2875 21.736L50.4361 21.2115L50.1132 21.7355L50.4357 22.2598L51.2875 21.736ZM55.1395 28V29H56.9284L55.9913 27.4761L55.1395 28ZM53.2855 28L52.4333 28.5232L52.726 29H53.2855V28ZM50.2795 23.104L51.1317 22.5807L50.2584 21.1585L49.4162 22.5993L50.2795 23.104ZM47.4175 28V29H47.9912L48.2808 28.5046L47.4175 28ZM45.5995 28L44.7466 27.4779L43.815 29H45.5995V28ZM49.4335 21.736L50.2864 22.258L50.6062 21.7355L50.286 21.2132L49.4335 21.736ZM45.5815 15.454V14.454H43.7953L44.729 15.9767L45.5815 15.454ZM47.4175 15.454L48.2691 14.9299L47.9763 14.454H47.4175V15.454ZM50.4415 20.368L49.5898 20.8921L50.4624 22.31L51.3042 20.8736L50.4415 20.368ZM53.3215 15.454V14.454H52.7485L52.4587 14.9483L53.3215 15.454ZM55.1575 15.454L56.0089 15.9785L56.9481 14.454H55.1575V15.454ZM50.4357 22.2598L54.2877 28.5238L55.9913 27.4761L52.1393 21.2121L50.4357 22.2598ZM55.1395 27H53.2855V29H55.1395V27ZM54.1377 27.4767L51.1317 22.5807L49.4273 23.6272L52.4333 28.5232L54.1377 27.4767ZM49.4162 22.5993L46.5542 27.4953L48.2808 28.5046L51.1428 23.6086L49.4162 22.5993ZM47.4175 27H45.5995V29H47.4175V27ZM46.4524 28.522L50.2864 22.258L48.5806 21.2139L44.7466 27.4779L46.4524 28.522ZM50.286 21.2132L46.434 14.9312L44.729 15.9767L48.581 22.2587L50.286 21.2132ZM45.5815 16.454H47.4175V14.454H45.5815V16.454ZM46.5658 15.9781L49.5898 20.8921L51.2931 19.8439L48.2691 14.9299L46.5658 15.9781ZM51.3042 20.8736L54.1842 15.9596L52.4587 14.9483L49.5787 19.8623L51.3042 20.8736ZM53.3215 16.454H55.1575V14.454H53.3215V16.454ZM54.3061 14.9295L50.4361 21.2115L52.1389 22.2605L56.0089 15.9785L54.3061 14.9295ZM59.0832 27.694L58.663 28.6014L58.6731 28.6061L58.6832 28.6105L59.0832 27.694ZM57.5532 26.47L56.7356 27.046L56.742 27.0548L57.5532 26.47ZM56.9772 24.652V23.652H55.9595L55.9773 24.6695L56.9772 24.652ZM58.7232 24.652L59.718 24.5505L59.6263 23.652H58.7232V24.652ZM59.4432 26.146L58.7464 26.8632L58.7568 26.8733L58.7674 26.8831L59.4432 26.146ZM63.1512 26.164L63.8053 26.9203L63.8069 26.919L63.1512 26.164ZM63.4392 23.482L62.6885 24.1426L62.6885 24.1426L63.4392 23.482ZM62.4492 22.798L62.0826 23.7284L62.0826 23.7284L62.4492 22.798ZM60.8472 22.294L61.1059 21.328L61.0996 21.3264L60.8472 22.294ZM58.8492 21.646L58.4472 22.5616L58.4553 22.5651L58.8492 21.646ZM57.5712 20.638L56.7687 21.2347L56.7773 21.2463L56.7863 21.2576L57.5712 20.638ZM57.5712 16.948L58.4061 17.4983L58.4061 17.4983L57.5712 16.948ZM59.0292 15.724L58.6167 14.813L58.6101 14.816L59.0292 15.724ZM64.0872 16.174L63.4671 16.9586L63.4732 16.9633L64.0872 16.174ZM65.3652 18.514V19.514H66.4688L66.3603 18.4157L65.3652 18.514ZM63.5652 18.514L62.5729 18.638L62.6824 19.514H63.5652V18.514ZM62.8092 17.254L62.167 18.0205L62.1731 18.0257L62.1794 18.0307L62.8092 17.254ZM59.3712 17.236L59.9985 18.0147L60.005 18.0095L60.0114 18.0042L59.3712 17.236ZM59.1012 19.828L58.3486 20.4865L58.3562 20.4952L58.364 20.5037L59.1012 19.828ZM60.0552 20.494L59.6684 21.4162L59.6861 21.4236L59.704 21.4303L60.0552 20.494ZM61.6572 20.998L61.3869 21.9608L61.3917 21.9621L61.6572 20.998ZM63.6552 21.682L63.243 22.5931L63.2521 22.5972L63.2613 22.6011L63.6552 21.682ZM64.9512 22.708L64.1585 23.3177L64.1663 23.3276L64.9512 22.708ZM65.0052 26.308L65.8627 26.8225L65.8627 26.8225L65.0052 26.308ZM63.5652 27.622L63.0981 26.7378L63.5652 27.622ZM61.3152 27.126C60.6043 27.126 59.9994 27.0027 59.4831 26.7774L58.6832 28.6105C59.4869 28.9612 60.37 29.126 61.3152 29.126V27.126ZM59.5033 26.7865C58.9917 26.5497 58.624 26.2454 58.3643 25.8852L56.742 27.0548C57.2263 27.7266 57.8786 28.2383 58.663 28.6014L59.5033 26.7865ZM58.3707 25.894C58.121 25.5396 57.9857 25.1307 57.977 24.6344L55.9773 24.6695C55.9926 25.5412 56.2414 26.3443 56.7357 27.0459L58.3707 25.894ZM56.9772 25.652H58.7232V23.652H56.9772V25.652ZM57.7283 24.7535C57.812 25.573 58.156 26.2897 58.7464 26.8632L60.14 25.4287C59.8903 25.1862 59.7544 24.907 59.718 24.5505L57.7283 24.7535ZM58.7674 26.8831C59.4455 27.5047 60.3475 27.74 61.3152 27.74V25.74C60.6508 25.74 60.3048 25.5792 60.1189 25.4088L58.7674 26.8831ZM61.3152 27.74C62.2554 27.74 63.1271 27.5069 63.8053 26.9203L62.497 25.4076C62.2872 25.589 61.9349 25.74 61.3152 25.74V27.74ZM63.8069 26.919C64.4849 26.3302 64.8352 25.5492 64.8352 24.652H62.8352C62.8352 24.9787 62.7294 25.2058 62.4955 25.4089L63.8069 26.919ZM64.8352 24.652C64.8352 23.9801 64.6455 23.3391 64.1899 22.8213L62.6885 24.1426C62.7608 24.2248 62.8352 24.3638 62.8352 24.652H64.8352ZM64.1899 22.8213C63.8143 22.3945 63.3495 22.0778 62.8157 21.8676L62.0826 23.7284C62.3409 23.8301 62.5361 23.9694 62.6885 24.1426L64.1899 22.8213ZM62.8157 21.8676C62.3695 21.6918 61.7947 21.5125 61.1059 21.328L60.5884 23.2599C61.2436 23.4354 61.7368 23.5921 62.0826 23.7284L62.8157 21.8676ZM61.0996 21.3264C60.2963 21.1168 59.6832 20.9155 59.2431 20.7268L58.4553 22.5651C59.0231 22.8085 59.742 23.0391 60.5948 23.2616L61.0996 21.3264ZM59.2512 20.7303C58.9211 20.5854 58.623 20.3565 58.3561 20.0183L56.7863 21.2576C57.2393 21.8314 57.7932 22.2745 58.4472 22.5616L59.2512 20.7303ZM58.3736 20.0413C58.191 19.7957 58.0492 19.4029 58.0492 18.766H56.0492C56.0492 19.689 56.2553 20.5443 56.7687 21.2347L58.3736 20.0413ZM58.0492 18.766C58.0492 18.2609 58.1746 17.8495 58.4061 17.4983L56.7362 16.3977C56.2717 17.1024 56.0492 17.903 56.0492 18.766H58.0492ZM58.4061 17.4983C58.6427 17.1394 58.9782 16.8488 59.4482 16.6319L58.6101 14.816C57.8321 15.1751 57.1957 15.7006 56.7362 16.3977L58.4061 17.4983ZM59.4417 16.6349C59.928 16.4147 60.5096 16.292 61.2072 16.292V14.292C60.2727 14.292 59.4023 14.4572 58.6167 14.813L59.4417 16.6349ZM61.2072 16.292C62.2135 16.292 62.9387 16.5409 63.4671 16.9585L64.7072 15.3894C63.7477 14.631 62.5529 14.292 61.2072 14.292V16.292ZM63.4732 16.9633C64.008 17.3792 64.3004 17.907 64.37 18.6123L66.3603 18.4157C66.238 17.1769 65.6784 16.1447 64.7011 15.3846L63.4732 16.9633ZM65.3652 17.514H63.5652V19.514H65.3652V17.514ZM64.5574 18.3899C64.4597 17.608 64.0446 16.9683 63.439 16.4772L62.1794 18.0307C62.4617 18.2597 62.5506 18.46 62.5729 18.638L64.5574 18.3899ZM63.4514 16.4874C62.784 15.9283 61.9485 15.696 61.0452 15.696V17.696C61.6059 17.696 61.9463 17.8356 62.167 18.0205L63.4514 16.4874ZM61.0452 15.696C60.1798 15.696 59.3793 15.9275 58.731 16.4677L60.0114 18.0042C60.227 17.8245 60.5426 17.696 61.0452 17.696V15.696ZM58.7438 16.4572C58.0399 17.0243 57.7232 17.8233 57.7232 18.712H59.7232C59.7232 18.3287 59.8384 18.1437 59.9985 18.0147L58.7438 16.4572ZM57.7232 18.712C57.7232 19.3614 57.9076 19.9825 58.3486 20.4865L59.8537 19.1695C59.7907 19.0974 59.7232 18.9745 59.7232 18.712H57.7232ZM58.364 20.5037C58.7289 20.9017 59.1677 21.2062 59.6684 21.4162L60.4419 19.5718C60.1987 19.4698 60.0015 19.3302 59.8383 19.1522L58.364 20.5037ZM59.704 21.4303C60.127 21.5889 60.6922 21.7658 61.3869 21.9608L61.9274 20.0352C61.2541 19.8462 60.7514 19.687 60.4063 19.5576L59.704 21.4303ZM61.3917 21.9621C62.1937 22.1829 62.8048 22.3949 63.243 22.5931L64.0673 20.7709C63.4975 20.5131 62.7767 20.269 61.9227 20.0339L61.3917 21.9621ZM63.2613 22.6011C63.5961 22.7446 63.8946 22.9745 64.1585 23.3177L65.7438 22.0983C65.2878 21.5054 64.7223 21.0513 64.0491 20.7628L63.2613 22.6011ZM64.1663 23.3276C64.3439 23.5526 64.4912 23.9319 64.4912 24.58H66.4912C66.4912 23.6441 66.2784 22.7753 65.7361 22.0883L64.1663 23.3276ZM64.4912 24.58C64.4912 25.0053 64.3813 25.4042 64.1477 25.7935L65.8627 26.8225C66.2771 26.1318 66.4912 25.3786 66.4912 24.58H64.4912ZM64.1477 25.7935C63.9304 26.1557 63.596 26.4747 63.0981 26.7378L64.0323 28.5062C64.8063 28.0973 65.432 27.5403 65.8627 26.8225L64.1477 25.7935ZM63.0981 26.7378C62.6323 26.9839 62.0489 27.126 61.3152 27.126V29.126C62.3094 29.126 63.2261 28.9321 64.0323 28.5062L63.0981 26.7378ZM69.5396 16.786V15.786H68.5396V16.786H69.5396ZM69.5396 20.98H68.5396V21.98H69.5396V20.98ZM74.1116 20.98H75.1116V19.98H74.1116V20.98ZM74.1116 22.33V23.33H75.1116V22.33H74.1116ZM69.5396 22.33V21.33H68.5396V22.33H69.5396ZM69.5396 26.65H68.5396V27.65H69.5396V26.65ZM74.6516 26.65H75.6516V25.65H74.6516V26.65ZM74.6516 28V29H75.6516V28H74.6516ZM67.9016 28H66.9016V29H67.9016V28ZM67.9016 15.436V14.436H66.9016V15.436H67.9016ZM74.6516 15.436H75.6516V14.436H74.6516V15.436ZM74.6516 16.786V17.786H75.6516V16.786H74.6516ZM68.5396 16.786V20.98H70.5396V16.786H68.5396ZM69.5396 21.98H74.1116V19.98H69.5396V21.98ZM73.1116 20.98V22.33H75.1116V20.98H73.1116ZM74.1116 21.33H69.5396V23.33H74.1116V21.33ZM68.5396 22.33V26.65H70.5396V22.33H68.5396ZM69.5396 27.65H74.6516V25.65H69.5396V27.65ZM73.6516 26.65V28H75.6516V26.65H73.6516ZM74.6516 27H67.9016V29H74.6516V27ZM68.9016 28V15.436H66.9016V28H68.9016ZM67.9016 16.436H74.6516V14.436H67.9016V16.436ZM73.6516 15.436V16.786H75.6516V15.436H73.6516ZM74.6516 15.786H69.5396V17.786H74.6516V15.786Z" fill="#443B3B"/>
<defs>
<filter id="filter0_d" x="5.02588" y="0.0125732" width="142.192" height="53.9874" filterUnits="userSpaceOnUse" color-interpolation-filters="sRGB">
<feFlood flood-opacity="0" result="BackgroundImageFix"/>
<feColorMatrix in="SourceAlpha" type="matrix" values="0 0 0 0 0 0 0 0 0 0 0 0 0 0 0 0 0 0 127 0"/>
<feOffset dy="4"/>
<feGaussianBlur stdDeviation="2"/>
<feColorMatrix type="matrix" values="0 0 0 0 0 0 0 0 0 0 0 0 0 0 0 0 0 0 0.25 0"/>
<feBlend mode="normal" in2="BackgroundImageFix" result="effect1_dropShadow"/>
<feBlend mode="normal" in="SourceGraphic" in2="effect1_dropShadow" result="shape"/>
</filter>
</defs>
</svg>
