<svg width="343" height="118" viewBox="0 0 343 118" fill="none" xmlns="http://www.w3.org/2000/svg">
<g filter="url(#filter0_d)">
<g filter="url(#filter1_d)">
<rect x="4.9707" width="151.93" height="89.4664" rx="19" fill="#FDFCFC"/>
</g>
<path d="M52.7828 17.16C53.5555 17.3247 54.1761 17.711 54.6448 18.319C55.1135 18.9143 55.3478 19.5983 55.3478 20.371C55.3478 21.4857 54.9551 22.3723 54.1698 23.031C53.3971 23.677 52.3141 24 50.9208 24H44.7078V10.662H50.7118C52.0671 10.662 53.1248 10.9723 53.8848 11.593C54.6575 12.2137 55.0438 13.056 55.0438 14.12C55.0438 14.9053 54.8348 15.5577 54.4168 16.077C54.0115 16.5963 53.4668 16.9573 52.7828 17.16ZM47.9568 16.058H50.0848C50.6168 16.058 51.0221 15.944 51.3008 15.716C51.5921 15.4753 51.7378 15.127 51.7378 14.671C51.7378 14.215 51.5921 13.8667 51.3008 13.626C51.0221 13.3853 50.6168 13.265 50.0848 13.265H47.9568V16.058ZM50.3508 21.378C50.8955 21.378 51.3135 21.2577 51.6048 21.017C51.9088 20.7637 52.0608 20.4027 52.0608 19.934C52.0608 19.4653 51.9025 19.098 51.5858 18.832C51.2818 18.566 50.8575 18.433 50.3128 18.433H47.9568V21.378H50.3508ZM67.2262 18.528C67.2262 18.832 67.2072 19.1487 67.1692 19.478H59.8162C59.8669 20.1367 60.0759 20.6433 60.4432 20.998C60.8232 21.34 61.2855 21.511 61.8302 21.511C62.6409 21.511 63.2045 21.169 63.5212 20.485H66.9792C66.8019 21.1817 66.4789 21.8087 66.0102 22.366C65.5542 22.9233 64.9779 23.3603 64.2812 23.677C63.5845 23.9937 62.8055 24.152 61.9442 24.152C60.9055 24.152 59.9809 23.9303 59.1702 23.487C58.3595 23.0437 57.7262 22.4103 57.2702 21.587C56.8142 20.7637 56.5862 19.801 56.5862 18.699C56.5862 17.597 56.8079 16.6343 57.2512 15.811C57.7072 14.9877 58.3405 14.3543 59.1512 13.911C59.9619 13.4677 60.8929 13.246 61.9442 13.246C62.9702 13.246 63.8822 13.4613 64.6802 13.892C65.4782 14.3227 66.0989 14.937 66.5422 15.735C66.9982 16.533 67.2262 17.464 67.2262 18.528ZM63.9012 17.673C63.9012 17.1157 63.7112 16.6723 63.3312 16.343C62.9512 16.0137 62.4762 15.849 61.9062 15.849C61.3615 15.849 60.8992 16.0073 60.5192 16.324C60.1519 16.6407 59.9239 17.0903 59.8352 17.673H63.9012ZM70.5742 12.296C70.0042 12.296 69.5355 12.1313 69.1682 11.802C68.8135 11.46 68.6362 11.042 68.6362 10.548C68.6362 10.0413 68.8135 9.62333 69.1682 9.294C69.5355 8.952 70.0042 8.781 70.5742 8.781C71.1315 8.781 71.5875 8.952 71.9422 9.294C72.3095 9.62333 72.4932 10.0413 72.4932 10.548C72.4932 11.042 72.3095 11.46 71.9422 11.802C71.5875 12.1313 71.1315 12.296 70.5742 12.296ZM72.1892 13.398V24H68.9402V13.398H72.1892ZM78.8567 24.152C77.9321 24.152 77.1087 23.9937 76.3867 23.677C75.6647 23.3603 75.0947 22.9297 74.6767 22.385C74.2587 21.8277 74.0244 21.207 73.9737 20.523H77.1847C77.2227 20.8903 77.3937 21.188 77.6977 21.416C78.0017 21.644 78.3754 21.758 78.8187 21.758C79.2241 21.758 79.5344 21.682 79.7497 21.53C79.9777 21.3653 80.0917 21.1563 80.0917 20.903C80.0917 20.599 79.9334 20.3773 79.6167 20.238C79.3001 20.086 78.7871 19.9213 78.0777 19.744C77.3177 19.5667 76.6844 19.383 76.1777 19.193C75.6711 18.9903 75.2341 18.68 74.8667 18.262C74.4994 17.8313 74.3157 17.255 74.3157 16.533C74.3157 15.925 74.4804 15.374 74.8097 14.88C75.1517 14.3733 75.6457 13.9743 76.2917 13.683C76.9504 13.3917 77.7294 13.246 78.6287 13.246C79.9587 13.246 81.0037 13.5753 81.7637 14.234C82.5364 14.8927 82.9797 15.7667 83.0937 16.856H80.0917C80.0411 16.4887 79.8764 16.1973 79.5977 15.982C79.3317 15.7667 78.9771 15.659 78.5337 15.659C78.1537 15.659 77.8624 15.735 77.6597 15.887C77.4571 16.0263 77.3557 16.2227 77.3557 16.476C77.3557 16.78 77.5141 17.008 77.8307 17.16C78.1601 17.312 78.6667 17.464 79.3507 17.616C80.1361 17.8187 80.7757 18.0213 81.2697 18.224C81.7637 18.414 82.1944 18.7307 82.5617 19.174C82.9417 19.6047 83.1381 20.1873 83.1507 20.922C83.1507 21.5427 82.9734 22.1 82.6187 22.594C82.2767 23.0753 81.7764 23.4553 81.1177 23.734C80.4717 24.0127 79.7181 24.152 78.8567 24.152ZM88.3874 14.899C88.7041 14.405 89.1411 14.006 89.6984 13.702C90.2558 13.398 90.9081 13.246 91.6554 13.246C92.5294 13.246 93.3211 13.4677 94.0304 13.911C94.7398 14.3543 95.2971 14.9877 95.7024 15.811C96.1204 16.6343 96.3294 17.5907 96.3294 18.68C96.3294 19.7693 96.1204 20.732 95.7024 21.568C95.2971 22.3913 94.7398 23.031 94.0304 23.487C93.3211 23.9303 92.5294 24.152 91.6554 24.152C90.9208 24.152 90.2684 24 89.6984 23.696C89.1411 23.392 88.7041 22.9993 88.3874 22.518V29.054H85.1384V13.398H88.3874V14.899ZM93.0234 18.68C93.0234 17.8693 92.7954 17.236 92.3394 16.78C91.8961 16.3113 91.3451 16.077 90.6864 16.077C90.0404 16.077 89.4894 16.3113 89.0334 16.78C88.5901 17.2487 88.3684 17.8883 88.3684 18.699C88.3684 19.5097 88.5901 20.1493 89.0334 20.618C89.4894 21.0867 90.0404 21.321 90.6864 21.321C91.3324 21.321 91.8834 21.0867 92.3394 20.618C92.7954 20.1367 93.0234 19.4907 93.0234 18.68ZM99.668 12.296C99.098 12.296 98.6293 12.1313 98.262 11.802C97.9073 11.46 97.73 11.042 97.73 10.548C97.73 10.0413 97.9073 9.62333 98.262 9.294C98.6293 8.952 99.098 8.781 99.668 8.781C100.225 8.781 100.681 8.952 101.036 9.294C101.403 9.62333 101.587 10.0413 101.587 10.548C101.587 11.042 101.403 11.46 101.036 11.802C100.681 12.1313 100.225 12.296 99.668 12.296ZM101.283 13.398V24H98.034V13.398H101.283ZM113.631 18.528C113.631 18.832 113.612 19.1487 113.574 19.478H106.221C106.272 20.1367 106.481 20.6433 106.848 20.998C107.228 21.34 107.691 21.511 108.235 21.511C109.046 21.511 109.61 21.169 109.926 20.485H113.384C113.207 21.1817 112.884 21.8087 112.415 22.366C111.959 22.9233 111.383 23.3603 110.686 23.677C109.99 23.9937 109.211 24.152 108.349 24.152C107.311 24.152 106.386 23.9303 105.575 23.487C104.765 23.0437 104.131 22.4103 103.675 21.587C103.219 20.7637 102.991 19.801 102.991 18.699C102.991 17.597 103.213 16.6343 103.656 15.811C104.112 14.9877 104.746 14.3543 105.556 13.911C106.367 13.4677 107.298 13.246 108.349 13.246C109.375 13.246 110.287 13.4613 111.085 13.892C111.883 14.3227 112.504 14.937 112.947 15.735C113.403 16.533 113.631 17.464 113.631 18.528ZM110.306 17.673C110.306 17.1157 110.116 16.6723 109.736 16.343C109.356 16.0137 108.881 15.849 108.311 15.849C107.767 15.849 107.304 16.0073 106.924 16.324C106.557 16.6407 106.329 17.0903 106.24 17.673H110.306ZM118.594 9.94V24H115.345V9.94H118.594ZM122.469 24.152C121.899 24.152 121.43 23.9873 121.063 23.658C120.708 23.316 120.531 22.898 120.531 22.404C120.531 21.8973 120.708 21.473 121.063 21.131C121.43 20.789 121.899 20.618 122.469 20.618C123.026 20.618 123.482 20.789 123.837 21.131C124.204 21.473 124.388 21.8973 124.388 22.404C124.388 22.898 124.204 23.316 123.837 23.658C123.482 23.9873 123.026 24.152 122.469 24.152ZM122.469 16.419C121.899 16.419 121.43 16.2543 121.063 15.925C120.708 15.583 120.531 15.165 120.531 14.671C120.531 14.1643 120.708 13.74 121.063 13.398C121.43 13.056 121.899 12.885 122.469 12.885C123.026 12.885 123.482 13.056 123.837 13.398C124.204 13.74 124.388 14.1643 124.388 14.671C124.388 15.165 124.204 15.583 123.837 15.925C123.482 16.2543 123.026 16.419 122.469 16.419ZM33.9342 47.528C33.9342 47.832 33.9152 48.1487 33.8772 48.478H26.5242C26.5749 49.1367 26.7839 49.6433 27.1512 49.998C27.5312 50.34 27.9935 50.511 28.5382 50.511C29.3489 50.511 29.9125 50.169 30.2292 49.485H33.6872C33.5099 50.1817 33.1869 50.8087 32.7182 51.366C32.2622 51.9233 31.6859 52.3603 30.9892 52.677C30.2925 52.9937 29.5135 53.152 28.6522 53.152C27.6135 53.152 26.6889 52.9303 25.8782 52.487C25.0675 52.0437 24.4342 51.4103 23.9782 50.587C23.5222 49.7637 23.2942 48.801 23.2942 47.699C23.2942 46.597 23.5159 45.6343 23.9592 44.811C24.4152 43.9877 25.0485 43.3543 25.8592 42.911C26.6699 42.4677 27.6009 42.246 28.6522 42.246C29.6782 42.246 30.5902 42.4613 31.3882 42.892C32.1862 43.3227 32.8069 43.937 33.2502 44.735C33.7062 45.533 33.9342 46.464 33.9342 47.528ZM30.6092 46.673C30.6092 46.1157 30.4192 45.6723 30.0392 45.343C29.6592 45.0137 29.1842 44.849 28.6142 44.849C28.0695 44.849 27.6072 45.0073 27.2272 45.324C26.8599 45.6407 26.6319 46.0903 26.5432 46.673H30.6092ZM37.2822 41.296C36.7122 41.296 36.2435 41.1313 35.8762 40.802C35.5215 40.46 35.3442 40.042 35.3442 39.548C35.3442 39.0413 35.5215 38.6233 35.8762 38.294C36.2435 37.952 36.7122 37.781 37.2822 37.781C37.8395 37.781 38.2955 37.952 38.6502 38.294C39.0175 38.6233 39.2012 39.0413 39.2012 39.548C39.2012 40.042 39.0175 40.46 38.6502 40.802C38.2955 41.1313 37.8395 41.296 37.2822 41.296ZM38.8972 42.398V53H35.6482V42.398H38.8972ZM47.7117 42.284C48.9531 42.284 49.9411 42.6893 50.6757 43.5C51.4231 44.298 51.7967 45.4 51.7967 46.806V53H48.5667V47.243C48.5667 46.5337 48.3831 45.9827 48.0157 45.59C47.6484 45.1973 47.1544 45.001 46.5337 45.001C45.9131 45.001 45.4191 45.1973 45.0517 45.59C44.6844 45.9827 44.5007 46.5337 44.5007 47.243V53H41.2517V42.398H44.5007V43.804C44.8301 43.3353 45.2734 42.968 45.8307 42.702C46.3881 42.4233 47.0151 42.284 47.7117 42.284ZM63.4008 45.096H61.6528V53H58.4038V45.096H57.2258V42.398H58.4038V42.094C58.4038 40.7893 58.7775 39.8013 59.5248 39.13C60.2722 38.446 61.3678 38.104 62.8118 38.104C63.0525 38.104 63.2298 38.1103 63.3438 38.123V40.878C62.7232 40.84 62.2862 40.9287 62.0328 41.144C61.7795 41.3593 61.6528 41.7457 61.6528 42.303V42.398H63.4008V45.096ZM64.2815 47.68C64.2815 46.5907 64.4842 45.6343 64.8895 44.811C65.3075 43.9877 65.8712 43.3543 66.5805 42.911C67.2898 42.4677 68.0815 42.246 68.9555 42.246C69.7028 42.246 70.3552 42.398 70.9125 42.702C71.4825 43.006 71.9195 43.405 72.2235 43.899V42.398H75.4725V53H72.2235V51.499C71.9068 51.993 71.4635 52.392 70.8935 52.696C70.3362 53 69.6838 53.152 68.9365 53.152C68.0752 53.152 67.2898 52.9303 66.5805 52.487C65.8712 52.031 65.3075 51.3913 64.8895 50.568C64.4842 49.732 64.2815 48.7693 64.2815 47.68ZM72.2235 47.699C72.2235 46.8883 71.9955 46.2487 71.5395 45.78C71.0962 45.3113 70.5515 45.077 69.9055 45.077C69.2595 45.077 68.7085 45.3113 68.2525 45.78C67.8092 46.236 67.5875 46.8693 67.5875 47.68C67.5875 48.4907 67.8092 49.1367 68.2525 49.618C68.7085 50.0867 69.2595 50.321 69.9055 50.321C70.5515 50.321 71.0962 50.0867 71.5395 49.618C71.9955 49.1493 72.2235 48.5097 72.2235 47.699ZM81.072 38.94V53H77.823V38.94H81.072ZM87.7395 53.152C86.8149 53.152 85.9915 52.9937 85.2695 52.677C84.5475 52.3603 83.9775 51.9297 83.5595 51.385C83.1415 50.8277 82.9072 50.207 82.8565 49.523H86.0675C86.1055 49.8903 86.2765 50.188 86.5805 50.416C86.8845 50.644 87.2582 50.758 87.7015 50.758C88.1069 50.758 88.4172 50.682 88.6325 50.53C88.8605 50.3653 88.9745 50.1563 88.9745 49.903C88.9745 49.599 88.8162 49.3773 88.4995 49.238C88.1829 49.086 87.6699 48.9213 86.9605 48.744C86.2005 48.5667 85.5672 48.383 85.0605 48.193C84.5539 47.9903 84.1169 47.68 83.7495 47.262C83.3822 46.8313 83.1985 46.255 83.1985 45.533C83.1985 44.925 83.3632 44.374 83.6925 43.88C84.0345 43.3733 84.5285 42.9743 85.1745 42.683C85.8332 42.3917 86.6122 42.246 87.5115 42.246C88.8415 42.246 89.8865 42.5753 90.6465 43.234C91.4192 43.8927 91.8625 44.7667 91.9765 45.856H88.9745C88.9239 45.4887 88.7592 45.1973 88.4805 44.982C88.2145 44.7667 87.8599 44.659 87.4165 44.659C87.0365 44.659 86.7452 44.735 86.5425 44.887C86.3399 45.0263 86.2385 45.2227 86.2385 45.476C86.2385 45.78 86.3969 46.008 86.7135 46.16C87.0429 46.312 87.5495 46.464 88.2335 46.616C89.0189 46.8187 89.6585 47.0213 90.1525 47.224C90.6465 47.414 91.0772 47.7307 91.4445 48.174C91.8245 48.6047 92.0209 49.1873 92.0335 49.922C92.0335 50.5427 91.8562 51.1 91.5015 51.594C91.1595 52.0753 90.6592 52.4553 90.0005 52.734C89.3545 53.0127 88.6009 53.152 87.7395 53.152ZM93.3753 47.699C93.3753 46.597 93.5969 45.6343 94.0403 44.811C94.4963 43.9877 95.1233 43.3543 95.9213 42.911C96.7319 42.4677 97.6566 42.246 98.6953 42.246C100.025 42.246 101.134 42.5943 102.02 43.291C102.92 43.9877 103.509 44.9693 103.787 46.236H100.329C100.038 45.4253 99.4743 45.02 98.6383 45.02C98.0429 45.02 97.5679 45.2543 97.2133 45.723C96.8586 46.179 96.6813 46.8377 96.6813 47.699C96.6813 48.5603 96.8586 49.2253 97.2133 49.694C97.5679 50.15 98.0429 50.378 98.6383 50.378C99.4743 50.378 100.038 49.9727 100.329 49.162H103.787C103.509 50.4033 102.92 51.3787 102.02 52.088C101.121 52.7973 100.013 53.152 98.6953 53.152C97.6566 53.152 96.7319 52.9303 95.9213 52.487C95.1233 52.0437 94.4963 51.4103 94.0403 50.587C93.5969 49.7637 93.3753 48.801 93.3753 47.699ZM112.042 42.284C113.258 42.284 114.234 42.6893 114.968 43.5C115.703 44.298 116.07 45.4 116.07 46.806V53H112.84V47.243C112.84 46.5337 112.657 45.9827 112.289 45.59C111.922 45.1973 111.428 45.001 110.807 45.001C110.187 45.001 109.693 45.1973 109.325 45.59C108.958 45.9827 108.774 46.5337 108.774 47.243V53H105.525V38.94H108.774V43.823C109.104 43.3543 109.553 42.9807 110.123 42.702C110.693 42.4233 111.333 42.284 112.042 42.284ZM128.322 47.528C128.322 47.832 128.303 48.1487 128.265 48.478H120.912C120.963 49.1367 121.172 49.6433 121.539 49.998C121.919 50.34 122.381 50.511 122.926 50.511C123.737 50.511 124.3 50.169 124.617 49.485H128.075C127.898 50.1817 127.575 50.8087 127.106 51.366C126.65 51.9233 126.074 52.3603 125.377 52.677C124.68 52.9937 123.901 53.152 123.04 53.152C122.001 53.152 121.077 52.9303 120.266 52.487C119.455 52.0437 118.822 51.4103 118.366 50.587C117.91 49.7637 117.682 48.801 117.682 47.699C117.682 46.597 117.904 45.6343 118.347 44.811C118.803 43.9877 119.436 43.3543 120.247 42.911C121.058 42.4677 121.989 42.246 123.04 42.246C124.066 42.246 124.978 42.4613 125.776 42.892C126.574 43.3227 127.195 43.937 127.638 44.735C128.094 45.533 128.322 46.464 128.322 47.528ZM124.997 46.673C124.997 46.1157 124.807 45.6723 124.427 45.343C124.047 45.0137 123.572 44.849 123.002 44.849C122.457 44.849 121.995 45.0073 121.615 45.324C121.248 45.6407 121.02 46.0903 120.931 46.673H124.997ZM134.349 53.152C133.424 53.152 132.601 52.9937 131.879 52.677C131.157 52.3603 130.587 51.9297 130.169 51.385C129.751 50.8277 129.517 50.207 129.466 49.523H132.677C132.715 49.8903 132.886 50.188 133.19 50.416C133.494 50.644 133.868 50.758 134.311 50.758C134.716 50.758 135.027 50.682 135.242 50.53C135.47 50.3653 135.584 50.1563 135.584 49.903C135.584 49.599 135.426 49.3773 135.109 49.238C134.792 49.086 134.279 48.9213 133.57 48.744C132.81 48.5667 132.177 48.383 131.67 48.193C131.163 47.9903 130.726 47.68 130.359 47.262C129.992 46.8313 129.808 46.255 129.808 45.533C129.808 44.925 129.973 44.374 130.302 43.88C130.644 43.3733 131.138 42.9743 131.784 42.683C132.443 42.3917 133.222 42.246 134.121 42.246C135.451 42.246 136.496 42.5753 137.256 43.234C138.029 43.8927 138.472 44.7667 138.586 45.856H135.584C135.533 45.4887 135.369 45.1973 135.09 44.982C134.824 44.7667 134.469 44.659 134.026 44.659C133.646 44.659 133.355 44.735 133.152 44.887C132.949 45.0263 132.848 45.2227 132.848 45.476C132.848 45.78 133.006 46.008 133.323 46.16C133.652 46.312 134.159 46.464 134.843 46.616C135.628 46.8187 136.268 47.0213 136.762 47.224C137.256 47.414 137.687 47.7307 138.054 48.174C138.434 48.6047 138.63 49.1873 138.643 49.922C138.643 50.5427 138.466 51.1 138.111 51.594C137.769 52.0753 137.269 52.4553 136.61 52.734C135.964 53.0127 135.21 53.152 134.349 53.152ZM30.7422 82L27.9682 76.965H27.1892V82H23.9402V68.662H29.3932C30.4445 68.662 31.3375 68.8457 32.0722 69.213C32.8195 69.5803 33.3769 70.087 33.7442 70.733C34.1115 71.3663 34.2952 72.0757 34.2952 72.861C34.2952 73.7477 34.0419 74.5393 33.5352 75.236C33.0412 75.9327 32.3065 76.4267 31.3312 76.718L34.4092 82H30.7422ZM27.1892 74.666H29.2032C29.7985 74.666 30.2419 74.5203 30.5332 74.229C30.8372 73.9377 30.9892 73.526 30.9892 72.994C30.9892 72.4873 30.8372 72.0883 30.5332 71.797C30.2419 71.5057 29.7985 71.36 29.2032 71.36H27.1892V74.666ZM46.3287 76.528C46.3287 76.832 46.3097 77.1487 46.2717 77.478H38.9187C38.9694 78.1367 39.1784 78.6433 39.5457 78.998C39.9257 79.34 40.3881 79.511 40.9327 79.511C41.7434 79.511 42.3071 79.169 42.6237 78.485H46.0817C45.9044 79.1817 45.5814 79.8087 45.1127 80.366C44.6567 80.9233 44.0804 81.3603 43.3837 81.677C42.6871 81.9937 41.9081 82.152 41.0467 82.152C40.0081 82.152 39.0834 81.9303 38.2727 81.487C37.4621 81.0437 36.8287 80.4103 36.3727 79.587C35.9167 78.7637 35.6887 77.801 35.6887 76.699C35.6887 75.597 35.9104 74.6343 36.3537 73.811C36.8097 72.9877 37.4431 72.3543 38.2537 71.911C39.0644 71.4677 39.9954 71.246 41.0467 71.246C42.0727 71.246 42.9847 71.4613 43.7827 71.892C44.5807 72.3227 45.2014 72.937 45.6447 73.735C46.1007 74.533 46.3287 75.464 46.3287 76.528ZM43.0037 75.673C43.0037 75.1157 42.8137 74.6723 42.4337 74.343C42.0537 74.0137 41.5787 73.849 41.0087 73.849C40.4641 73.849 40.0017 74.0073 39.6217 74.324C39.2544 74.6407 39.0264 75.0903 38.9377 75.673H43.0037ZM51.2917 72.899C51.5957 72.405 52.0327 72.006 52.6027 71.702C53.1727 71.398 53.8251 71.246 54.5597 71.246C55.4337 71.246 56.2254 71.4677 56.9347 71.911C57.6441 72.3543 58.2014 72.9877 58.6067 73.811C59.0247 74.6343 59.2337 75.5907 59.2337 76.68C59.2337 77.7693 59.0247 78.732 58.6067 79.568C58.2014 80.3913 57.6441 81.031 56.9347 81.487C56.2254 81.9303 55.4337 82.152 54.5597 82.152C53.8124 82.152 53.1601 82.0063 52.6027 81.715C52.0454 81.411 51.6084 81.012 51.2917 80.518V82H48.0427V67.94H51.2917V72.899ZM55.9277 76.68C55.9277 75.8693 55.6997 75.236 55.2437 74.78C54.8004 74.3113 54.2494 74.077 53.5907 74.077C52.9447 74.077 52.3937 74.3113 51.9377 74.78C51.4944 75.2487 51.2727 75.8883 51.2727 76.699C51.2727 77.5097 51.4944 78.1493 51.9377 78.618C52.3937 79.0867 52.9447 79.321 53.5907 79.321C54.2367 79.321 54.7877 79.0867 55.2437 78.618C55.6997 78.1367 55.9277 77.4907 55.9277 76.68ZM70.9323 76.528C70.9323 76.832 70.9133 77.1487 70.8753 77.478H63.5223C63.5729 78.1367 63.7819 78.6433 64.1493 78.998C64.5293 79.34 64.9916 79.511 65.5363 79.511C66.3469 79.511 66.9106 79.169 67.2273 78.485H70.6853C70.5079 79.1817 70.1849 79.8087 69.7163 80.366C69.2603 80.9233 68.6839 81.3603 67.9873 81.677C67.2906 81.9937 66.5116 82.152 65.6503 82.152C64.6116 82.152 63.6869 81.9303 62.8763 81.487C62.0656 81.0437 61.4323 80.4103 60.9763 79.587C60.5203 78.7637 60.2923 77.801 60.2923 76.699C60.2923 75.597 60.5139 74.6343 60.9573 73.811C61.4133 72.9877 62.0466 72.3543 62.8573 71.911C63.6679 71.4677 64.5989 71.246 65.6503 71.246C66.6763 71.246 67.5883 71.4613 68.3863 71.892C69.1843 72.3227 69.8049 72.937 70.2483 73.735C70.7043 74.533 70.9323 75.464 70.9323 76.528ZM67.6073 75.673C67.6073 75.1157 67.4173 74.6723 67.0373 74.343C66.6573 74.0137 66.1823 73.849 65.6123 73.849C65.0676 73.849 64.6053 74.0073 64.2253 74.324C63.8579 74.6407 63.6299 75.0903 63.5413 75.673H67.6073ZM75.8953 73.165C76.2753 72.5823 76.7503 72.1263 77.3203 71.797C77.8903 71.455 78.5236 71.284 79.2203 71.284V74.723H78.3273C77.5166 74.723 76.9086 74.9003 76.5033 75.255C76.0979 75.597 75.8953 76.205 75.8953 77.079V82H72.6463V71.398H75.8953V73.165ZM88.9432 73.982V76.68H80.5832V73.982H88.9432ZM110.149 68.662L106.672 82H102.739L100.611 73.222L98.4067 82H94.4737L91.0917 68.662H94.5687L96.4877 78.371L98.8627 68.662H102.435L104.715 78.371L106.653 68.662H110.149ZM116.604 82.152C115.565 82.152 114.628 81.9303 113.792 81.487C112.969 81.0437 112.316 80.4103 111.835 79.587C111.366 78.7637 111.132 77.801 111.132 76.699C111.132 75.6097 111.373 74.6533 111.854 73.83C112.335 72.994 112.994 72.3543 113.83 71.911C114.666 71.4677 115.603 71.246 116.642 71.246C117.681 71.246 118.618 71.4677 119.454 71.911C120.29 72.3543 120.949 72.994 121.43 73.83C121.911 74.6533 122.152 75.6097 122.152 76.699C122.152 77.7883 121.905 78.751 121.411 79.587C120.93 80.4103 120.265 81.0437 119.416 81.487C118.58 81.9303 117.643 82.152 116.604 82.152ZM116.604 79.34C117.225 79.34 117.75 79.112 118.181 78.656C118.624 78.2 118.846 77.5477 118.846 76.699C118.846 75.8503 118.631 75.198 118.2 74.742C117.782 74.286 117.263 74.058 116.642 74.058C116.009 74.058 115.483 74.286 115.065 74.742C114.647 75.1853 114.438 75.8377 114.438 76.699C114.438 77.5477 114.641 78.2 115.046 78.656C115.464 79.112 115.983 79.34 116.604 79.34ZM127.125 73.165C127.505 72.5823 127.98 72.1263 128.55 71.797C129.12 71.455 129.753 71.284 130.45 71.284V74.723H129.557C128.746 74.723 128.138 74.9003 127.733 75.255C127.327 75.597 127.125 76.205 127.125 77.079V82H123.876V71.398H127.125V73.165ZM137.912 79.245V82H136.259C135.081 82 134.162 81.715 133.504 81.145C132.845 80.5623 132.516 79.6187 132.516 78.314V74.096H131.224V71.398H132.516V68.814H135.765V71.398H137.893V74.096H135.765V78.352C135.765 78.6687 135.841 78.8967 135.993 79.036C136.145 79.1753 136.398 79.245 136.753 79.245H137.912Z" fill="#A90C0C"/>
</g>
<defs>
<filter id="filter0_d" x="0.970703" y="0" width="159.93" height="97.4664" filterUnits="userSpaceOnUse" color-interpolation-filters="sRGB">
<feFlood flood-opacity="0" result="BackgroundImageFix"/>
<feColorMatrix in="SourceAlpha" type="matrix" values="0 0 0 0 0 0 0 0 0 0 0 0 0 0 0 0 0 0 127 0"/>
<feOffset dy="4"/>
<feGaussianBlur stdDeviation="2"/>
<feColorMatrix type="matrix" values="0 0 0 0 0 0 0 0 0 0 0 0 0 0 0 0 0 0 0.25 0"/>
<feBlend mode="normal" in2="BackgroundImageFix" result="effect1_dropShadow"/>
<feBlend mode="normal" in="SourceGraphic" in2="effect1_dropShadow" result="shape"/>
</filter>
<filter id="filter1_d" x="0.970703" y="0" width="159.93" height="97.4664" filterUnits="userSpaceOnUse" color-interpolation-filters="sRGB">
<feFlood flood-opacity="0" result="BackgroundImageFix"/>
<feColorMatrix in="SourceAlpha" type="matrix" values="0 0 0 0 0 0 0 0 0 0 0 0 0 0 0 0 0 0 127 0"/>
<feOffset dy="4"/>
<feGaussianBlur stdDeviation="2"/>
<feColorMatrix type="matrix" values="0 0 0 0 0 0 0 0 0 0 0 0 0 0 0 0 0 0 0.25 0"/>
<feBlend mode="normal" in2="BackgroundImageFix" result="effect1_dropShadow"/>
<feBlend mode="normal" in="SourceGraphic" in2="effect1_dropShadow" result="shape"/>
</filter>
</defs>
</svg>
