<svg width="343" height="118" viewBox="0 0 343 118" fill="none" xmlns="http://www.w3.org/2000/svg">
<g filter="url(#filter0_d)">
<g filter="url(#filter1_d)">
<rect x="4.31396" width="151.93" height="89.4664" rx="19" fill="#FDFCFC"/>
</g>
<path d="M52.126 17.16C52.8987 17.3247 53.5194 17.711 53.988 18.319C54.4567 18.9143 54.691 19.5983 54.691 20.371C54.691 21.4857 54.2984 22.3723 53.513 23.031C52.7404 23.677 51.6574 24 50.264 24H44.051V10.662H50.055C51.4104 10.662 52.468 10.9723 53.228 11.593C54.0007 12.2137 54.387 13.056 54.387 14.12C54.387 14.9053 54.178 15.5577 53.76 16.077C53.3547 16.5963 52.81 16.9573 52.126 17.16ZM47.3 16.058H49.428C49.96 16.058 50.3654 15.944 50.644 15.716C50.9354 15.4753 51.081 15.127 51.081 14.671C51.081 14.215 50.9354 13.8667 50.644 13.626C50.3654 13.3853 49.96 13.265 49.428 13.265H47.3V16.058ZM49.694 21.378C50.2387 21.378 50.6567 21.2577 50.948 21.017C51.252 20.7637 51.404 20.4027 51.404 19.934C51.404 19.4653 51.2457 19.098 50.929 18.832C50.625 18.566 50.2007 18.433 49.656 18.433H47.3V21.378H49.694ZM66.5695 18.528C66.5695 18.832 66.5505 19.1487 66.5125 19.478H59.1595C59.2101 20.1367 59.4191 20.6433 59.7865 20.998C60.1665 21.34 60.6288 21.511 61.1735 21.511C61.9841 21.511 62.5478 21.169 62.8645 20.485H66.3225C66.1451 21.1817 65.8221 21.8087 65.3535 22.366C64.8975 22.9233 64.3211 23.3603 63.6245 23.677C62.9278 23.9937 62.1488 24.152 61.2875 24.152C60.2488 24.152 59.3241 23.9303 58.5135 23.487C57.7028 23.0437 57.0695 22.4103 56.6135 21.587C56.1575 20.7637 55.9295 19.801 55.9295 18.699C55.9295 17.597 56.1511 16.6343 56.5945 15.811C57.0505 14.9877 57.6838 14.3543 58.4945 13.911C59.3051 13.4677 60.2361 13.246 61.2875 13.246C62.3135 13.246 63.2255 13.4613 64.0235 13.892C64.8215 14.3227 65.4421 14.937 65.8855 15.735C66.3415 16.533 66.5695 17.464 66.5695 18.528ZM63.2445 17.673C63.2445 17.1157 63.0545 16.6723 62.6745 16.343C62.2945 16.0137 61.8195 15.849 61.2495 15.849C60.7048 15.849 60.2425 16.0073 59.8625 16.324C59.4951 16.6407 59.2671 17.0903 59.1785 17.673H63.2445ZM69.9175 12.296C69.3475 12.296 68.8788 12.1313 68.5115 11.802C68.1568 11.46 67.9795 11.042 67.9795 10.548C67.9795 10.0413 68.1568 9.62333 68.5115 9.294C68.8788 8.952 69.3475 8.781 69.9175 8.781C70.4748 8.781 70.9308 8.952 71.2855 9.294C71.6528 9.62333 71.8365 10.0413 71.8365 10.548C71.8365 11.042 71.6528 11.46 71.2855 11.802C70.9308 12.1313 70.4748 12.296 69.9175 12.296ZM71.5325 13.398V24H68.2835V13.398H71.5325ZM78.2 24.152C77.2753 24.152 76.452 23.9937 75.73 23.677C75.008 23.3603 74.438 22.9297 74.02 22.385C73.602 21.8277 73.3677 21.207 73.317 20.523H76.528C76.566 20.8903 76.737 21.188 77.041 21.416C77.345 21.644 77.7187 21.758 78.162 21.758C78.5673 21.758 78.8777 21.682 79.093 21.53C79.321 21.3653 79.435 21.1563 79.435 20.903C79.435 20.599 79.2767 20.3773 78.96 20.238C78.6433 20.086 78.1303 19.9213 77.421 19.744C76.661 19.5667 76.0277 19.383 75.521 19.193C75.0143 18.9903 74.5773 18.68 74.21 18.262C73.8427 17.8313 73.659 17.255 73.659 16.533C73.659 15.925 73.8237 15.374 74.153 14.88C74.495 14.3733 74.989 13.9743 75.635 13.683C76.2937 13.3917 77.0727 13.246 77.972 13.246C79.302 13.246 80.347 13.5753 81.107 14.234C81.8797 14.8927 82.323 15.7667 82.437 16.856H79.435C79.3843 16.4887 79.2197 16.1973 78.941 15.982C78.675 15.7667 78.3203 15.659 77.877 15.659C77.497 15.659 77.2057 15.735 77.003 15.887C76.8003 16.0263 76.699 16.2227 76.699 16.476C76.699 16.78 76.8573 17.008 77.174 17.16C77.5033 17.312 78.01 17.464 78.694 17.616C79.4793 17.8187 80.119 18.0213 80.613 18.224C81.107 18.414 81.5377 18.7307 81.905 19.174C82.285 19.6047 82.4813 20.1873 82.494 20.922C82.494 21.5427 82.3167 22.1 81.962 22.594C81.62 23.0753 81.1197 23.4553 80.461 23.734C79.815 24.0127 79.0613 24.152 78.2 24.152ZM87.7307 14.899C88.0474 14.405 88.4844 14.006 89.0417 13.702C89.599 13.398 90.2514 13.246 90.9987 13.246C91.8727 13.246 92.6644 13.4677 93.3737 13.911C94.083 14.3543 94.6404 14.9877 95.0457 15.811C95.4637 16.6343 95.6727 17.5907 95.6727 18.68C95.6727 19.7693 95.4637 20.732 95.0457 21.568C94.6404 22.3913 94.083 23.031 93.3737 23.487C92.6644 23.9303 91.8727 24.152 90.9987 24.152C90.264 24.152 89.6117 24 89.0417 23.696C88.4844 23.392 88.0474 22.9993 87.7307 22.518V29.054H84.4817V13.398H87.7307V14.899ZM92.3667 18.68C92.3667 17.8693 92.1387 17.236 91.6827 16.78C91.2394 16.3113 90.6884 16.077 90.0297 16.077C89.3837 16.077 88.8327 16.3113 88.3767 16.78C87.9334 17.2487 87.7117 17.8883 87.7117 18.699C87.7117 19.5097 87.9334 20.1493 88.3767 20.618C88.8327 21.0867 89.3837 21.321 90.0297 21.321C90.6757 21.321 91.2267 21.0867 91.6827 20.618C92.1387 20.1367 92.3667 19.4907 92.3667 18.68ZM99.0112 12.296C98.4412 12.296 97.9726 12.1313 97.6052 11.802C97.2506 11.46 97.0732 11.042 97.0732 10.548C97.0732 10.0413 97.2506 9.62333 97.6052 9.294C97.9726 8.952 98.4412 8.781 99.0112 8.781C99.5686 8.781 100.025 8.952 100.379 9.294C100.747 9.62333 100.93 10.0413 100.93 10.548C100.93 11.042 100.747 11.46 100.379 11.802C100.025 12.1313 99.5686 12.296 99.0112 12.296ZM100.626 13.398V24H97.3772V13.398H100.626ZM112.975 18.528C112.975 18.832 112.956 19.1487 112.918 19.478H105.565C105.615 20.1367 105.824 20.6433 106.192 20.998C106.572 21.34 107.034 21.511 107.579 21.511C108.389 21.511 108.953 21.169 109.27 20.485H112.728C112.55 21.1817 112.227 21.8087 111.759 22.366C111.303 22.9233 110.726 23.3603 110.03 23.677C109.333 23.9937 108.554 24.152 107.693 24.152C106.654 24.152 105.729 23.9303 104.919 23.487C104.108 23.0437 103.475 22.4103 103.019 21.587C102.563 20.7637 102.335 19.801 102.335 18.699C102.335 17.597 102.556 16.6343 103 15.811C103.456 14.9877 104.089 14.3543 104.9 13.911C105.71 13.4677 106.641 13.246 107.693 13.246C108.719 13.246 109.631 13.4613 110.429 13.892C111.227 14.3227 111.847 14.937 112.291 15.735C112.747 16.533 112.975 17.464 112.975 18.528ZM109.65 17.673C109.65 17.1157 109.46 16.6723 109.08 16.343C108.7 16.0137 108.225 15.849 107.655 15.849C107.11 15.849 106.648 16.0073 106.268 16.324C105.9 16.6407 105.672 17.0903 105.584 17.673H109.65ZM117.938 9.94V24H114.689V9.94H117.938ZM121.812 24.152C121.242 24.152 120.774 23.9873 120.406 23.658C120.052 23.316 119.874 22.898 119.874 22.404C119.874 21.8973 120.052 21.473 120.406 21.131C120.774 20.789 121.242 20.618 121.812 20.618C122.37 20.618 122.826 20.789 123.18 21.131C123.548 21.473 123.731 21.8973 123.731 22.404C123.731 22.898 123.548 23.316 123.18 23.658C122.826 23.9873 122.37 24.152 121.812 24.152ZM121.812 16.419C121.242 16.419 120.774 16.2543 120.406 15.925C120.052 15.583 119.874 15.165 119.874 14.671C119.874 14.1643 120.052 13.74 120.406 13.398C120.774 13.056 121.242 12.885 121.812 12.885C122.37 12.885 122.826 13.056 123.18 13.398C123.548 13.74 123.731 14.1643 123.731 14.671C123.731 15.165 123.548 15.583 123.18 15.925C122.826 16.2543 122.37 16.419 121.812 16.419ZM33.2775 47.528C33.2775 47.832 33.2585 48.1487 33.2205 48.478H25.8675C25.9181 49.1367 26.1271 49.6433 26.4945 49.998C26.8745 50.34 27.3368 50.511 27.8815 50.511C28.6921 50.511 29.2558 50.169 29.5725 49.485H33.0305C32.8531 50.1817 32.5301 50.8087 32.0615 51.366C31.6055 51.9233 31.0291 52.3603 30.3325 52.677C29.6358 52.9937 28.8568 53.152 27.9955 53.152C26.9568 53.152 26.0321 52.9303 25.2215 52.487C24.4108 52.0437 23.7775 51.4103 23.3215 50.587C22.8655 49.7637 22.6375 48.801 22.6375 47.699C22.6375 46.597 22.8591 45.6343 23.3025 44.811C23.7585 43.9877 24.3918 43.3543 25.2025 42.911C26.0131 42.4677 26.9441 42.246 27.9955 42.246C29.0215 42.246 29.9335 42.4613 30.7315 42.892C31.5295 43.3227 32.1501 43.937 32.5935 44.735C33.0495 45.533 33.2775 46.464 33.2775 47.528ZM29.9525 46.673C29.9525 46.1157 29.7625 45.6723 29.3825 45.343C29.0025 45.0137 28.5275 44.849 27.9575 44.849C27.4128 44.849 26.9505 45.0073 26.5705 45.324C26.2031 45.6407 25.9751 46.0903 25.8865 46.673H29.9525ZM36.6255 41.296C36.0555 41.296 35.5868 41.1313 35.2195 40.802C34.8648 40.46 34.6875 40.042 34.6875 39.548C34.6875 39.0413 34.8648 38.6233 35.2195 38.294C35.5868 37.952 36.0555 37.781 36.6255 37.781C37.1828 37.781 37.6388 37.952 37.9935 38.294C38.3608 38.6233 38.5445 39.0413 38.5445 39.548C38.5445 40.042 38.3608 40.46 37.9935 40.802C37.6388 41.1313 37.1828 41.296 36.6255 41.296ZM38.2405 42.398V53H34.9915V42.398H38.2405ZM47.055 42.284C48.2963 42.284 49.2843 42.6893 50.019 43.5C50.7663 44.298 51.14 45.4 51.14 46.806V53H47.91V47.243C47.91 46.5337 47.7263 45.9827 47.359 45.59C46.9917 45.1973 46.4977 45.001 45.877 45.001C45.2563 45.001 44.7623 45.1973 44.395 45.59C44.0277 45.9827 43.844 46.5337 43.844 47.243V53H40.595V42.398H43.844V43.804C44.1733 43.3353 44.6167 42.968 45.174 42.702C45.7313 42.4233 46.3583 42.284 47.055 42.284ZM60.6731 44.165C61.0531 43.5823 61.5281 43.1263 62.0981 42.797C62.6681 42.455 63.3014 42.284 63.9981 42.284V45.723H63.1051C62.2944 45.723 61.6864 45.9003 61.2811 46.255C60.8758 46.597 60.6731 47.205 60.6731 48.079V53H57.4241V42.398H60.6731V44.165ZM67.185 41.296C66.615 41.296 66.1464 41.1313 65.779 40.802C65.4244 40.46 65.247 40.042 65.247 39.548C65.247 39.0413 65.4244 38.6233 65.779 38.294C66.1464 37.952 66.615 37.781 67.185 37.781C67.7424 37.781 68.1984 37.952 68.553 38.294C68.9204 38.6233 69.104 39.0413 69.104 39.548C69.104 40.042 68.9204 40.46 68.553 40.802C68.1984 41.1313 67.7424 41.296 67.185 41.296ZM68.8 42.398V53H65.551V42.398H68.8ZM70.5086 47.699C70.5086 46.597 70.7302 45.6343 71.1736 44.811C71.6296 43.9877 72.2566 43.3543 73.0546 42.911C73.8652 42.4677 74.7899 42.246 75.8286 42.246C77.1586 42.246 78.2669 42.5943 79.1536 43.291C80.0529 43.9877 80.6419 44.9693 80.9206 46.236H77.4626C77.1712 45.4253 76.6076 45.02 75.7716 45.02C75.1762 45.02 74.7012 45.2543 74.3466 45.723C73.9919 46.179 73.8146 46.8377 73.8146 47.699C73.8146 48.5603 73.9919 49.2253 74.3466 49.694C74.7012 50.15 75.1762 50.378 75.7716 50.378C76.6076 50.378 77.1712 49.9727 77.4626 49.162H80.9206C80.6419 50.4033 80.0529 51.3787 79.1536 52.088C78.2542 52.7973 77.1459 53.152 75.8286 53.152C74.7899 53.152 73.8652 52.9303 73.0546 52.487C72.2566 52.0437 71.6296 51.4103 71.1736 50.587C70.7302 49.7637 70.5086 48.801 70.5086 47.699ZM89.1755 42.284C90.3915 42.284 91.3668 42.6893 92.1015 43.5C92.8361 44.298 93.2035 45.4 93.2035 46.806V53H89.9735V47.243C89.9735 46.5337 89.7898 45.9827 89.4225 45.59C89.0551 45.1973 88.5611 45.001 87.9405 45.001C87.3198 45.001 86.8258 45.1973 86.4585 45.59C86.0911 45.9827 85.9075 46.5337 85.9075 47.243V53H82.6585V38.94H85.9075V43.823C86.2368 43.3543 86.6865 42.9807 87.2565 42.702C87.8265 42.4233 88.4661 42.284 89.1755 42.284ZM101.37 50.245V53H99.7172C98.5392 53 97.6209 52.715 96.9622 52.145C96.3035 51.5623 95.9742 50.6187 95.9742 49.314V45.096H94.6822V42.398H95.9742V39.814H99.2232V42.398H101.351V45.096H99.2232V49.352C99.2232 49.6687 99.2992 49.8967 99.4512 50.036C99.6032 50.1753 99.8565 50.245 100.211 50.245H101.37ZM104.814 41.296C104.244 41.296 103.775 41.1313 103.408 40.802C103.053 40.46 102.876 40.042 102.876 39.548C102.876 39.0413 103.053 38.6233 103.408 38.294C103.775 37.952 104.244 37.781 104.814 37.781C105.371 37.781 105.827 37.952 106.182 38.294C106.549 38.6233 106.733 39.0413 106.733 39.548C106.733 40.042 106.549 40.46 106.182 40.802C105.827 41.1313 105.371 41.296 104.814 41.296ZM106.429 42.398V53H103.18V42.398H106.429ZM112.811 42.246C113.559 42.246 114.211 42.398 114.768 42.702C115.338 43.006 115.775 43.405 116.079 43.899V42.398H119.328V52.981C119.328 53.9563 119.132 54.8367 118.739 55.622C118.359 56.42 117.77 57.0533 116.972 57.522C116.187 57.9907 115.205 58.225 114.027 58.225C112.457 58.225 111.184 57.8513 110.208 57.104C109.233 56.3693 108.676 55.3687 108.536 54.102H111.747C111.849 54.5073 112.089 54.824 112.469 55.052C112.849 55.2927 113.318 55.413 113.875 55.413C114.547 55.413 115.079 55.2167 115.471 54.824C115.877 54.444 116.079 53.8297 116.079 52.981V51.48C115.763 51.974 115.326 52.3793 114.768 52.696C114.211 53 113.559 53.152 112.811 53.152C111.937 53.152 111.146 52.9303 110.436 52.487C109.727 52.031 109.163 51.3913 108.745 50.568C108.34 49.732 108.137 48.7693 108.137 47.68C108.137 46.5907 108.34 45.6343 108.745 44.811C109.163 43.9877 109.727 43.3543 110.436 42.911C111.146 42.4677 111.937 42.246 112.811 42.246ZM116.079 47.699C116.079 46.8883 115.851 46.2487 115.395 45.78C114.952 45.3113 114.407 45.077 113.761 45.077C113.115 45.077 112.564 45.3113 112.108 45.78C111.665 46.236 111.443 46.8693 111.443 47.68C111.443 48.4907 111.665 49.1367 112.108 49.618C112.564 50.0867 113.115 50.321 113.761 50.321C114.407 50.321 114.952 50.0867 115.395 49.618C115.851 49.1493 116.079 48.5097 116.079 47.699ZM131.673 47.528C131.673 47.832 131.654 48.1487 131.616 48.478H124.263C124.314 49.1367 124.523 49.6433 124.89 49.998C125.27 50.34 125.732 50.511 126.277 50.511C127.088 50.511 127.651 50.169 127.968 49.485H131.426C131.249 50.1817 130.926 50.8087 130.457 51.366C130.001 51.9233 129.425 52.3603 128.728 52.677C128.031 52.9937 127.252 53.152 126.391 53.152C125.352 53.152 124.428 52.9303 123.617 52.487C122.806 52.0437 122.173 51.4103 121.717 50.587C121.261 49.7637 121.033 48.801 121.033 47.699C121.033 46.597 121.255 45.6343 121.698 44.811C122.154 43.9877 122.787 43.3543 123.598 42.911C124.409 42.4677 125.34 42.246 126.391 42.246C127.417 42.246 128.329 42.4613 129.127 42.892C129.925 43.3227 130.546 43.937 130.989 44.735C131.445 45.533 131.673 46.464 131.673 47.528ZM128.348 46.673C128.348 46.1157 128.158 45.6723 127.778 45.343C127.398 45.0137 126.923 44.849 126.353 44.849C125.808 44.849 125.346 45.0073 124.966 45.324C124.599 45.6407 124.371 46.0903 124.282 46.673H128.348ZM137.7 53.152C136.775 53.152 135.952 52.9937 135.23 52.677C134.508 52.3603 133.938 51.9297 133.52 51.385C133.102 50.8277 132.868 50.207 132.817 49.523H136.028C136.066 49.8903 136.237 50.188 136.541 50.416C136.845 50.644 137.219 50.758 137.662 50.758C138.067 50.758 138.378 50.682 138.593 50.53C138.821 50.3653 138.935 50.1563 138.935 49.903C138.935 49.599 138.777 49.3773 138.46 49.238C138.143 49.086 137.63 48.9213 136.921 48.744C136.161 48.5667 135.528 48.383 135.021 48.193C134.514 47.9903 134.077 47.68 133.71 47.262C133.343 46.8313 133.159 46.255 133.159 45.533C133.159 44.925 133.324 44.374 133.653 43.88C133.995 43.3733 134.489 42.9743 135.135 42.683C135.794 42.3917 136.573 42.246 137.472 42.246C138.802 42.246 139.847 42.5753 140.607 43.234C141.38 43.8927 141.823 44.7667 141.937 45.856H138.935C138.884 45.4887 138.72 45.1973 138.441 44.982C138.175 44.7667 137.82 44.659 137.377 44.659C136.997 44.659 136.706 44.735 136.503 44.887C136.3 45.0263 136.199 45.2227 136.199 45.476C136.199 45.78 136.357 46.008 136.674 46.16C137.003 46.312 137.51 46.464 138.194 46.616C138.979 46.8187 139.619 47.0213 140.113 47.224C140.607 47.414 141.038 47.7307 141.405 48.174C141.785 48.6047 141.981 49.1873 141.994 49.922C141.994 50.5427 141.817 51.1 141.462 51.594C141.12 52.0753 140.62 52.4553 139.961 52.734C139.315 53.0127 138.561 53.152 137.7 53.152ZM30.0855 82L27.3115 76.965H26.5325V82H23.2835V68.662H28.7365C29.7878 68.662 30.6808 68.8457 31.4155 69.213C32.1628 69.5803 32.7201 70.087 33.0875 70.733C33.4548 71.3663 33.6385 72.0757 33.6385 72.861C33.6385 73.7477 33.3851 74.5393 32.8785 75.236C32.3845 75.9327 31.6498 76.4267 30.6745 76.718L33.7525 82H30.0855ZM26.5325 74.666H28.5465C29.1418 74.666 29.5851 74.5203 29.8765 74.229C30.1805 73.9377 30.3325 73.526 30.3325 72.994C30.3325 72.4873 30.1805 72.0883 29.8765 71.797C29.5851 71.5057 29.1418 71.36 28.5465 71.36H26.5325V74.666ZM45.672 76.528C45.672 76.832 45.653 77.1487 45.615 77.478H38.262C38.3127 78.1367 38.5217 78.6433 38.889 78.998C39.269 79.34 39.7313 79.511 40.276 79.511C41.0867 79.511 41.6503 79.169 41.967 78.485H45.425C45.2477 79.1817 44.9247 79.8087 44.456 80.366C44 80.9233 43.4237 81.3603 42.727 81.677C42.0303 81.9937 41.2513 82.152 40.39 82.152C39.3513 82.152 38.4267 81.9303 37.616 81.487C36.8053 81.0437 36.172 80.4103 35.716 79.587C35.26 78.7637 35.032 77.801 35.032 76.699C35.032 75.597 35.2537 74.6343 35.697 73.811C36.153 72.9877 36.7863 72.3543 37.597 71.911C38.4077 71.4677 39.3387 71.246 40.39 71.246C41.416 71.246 42.328 71.4613 43.126 71.892C43.924 72.3227 44.5447 72.937 44.988 73.735C45.444 74.533 45.672 75.464 45.672 76.528ZM42.347 75.673C42.347 75.1157 42.157 74.6723 41.777 74.343C41.397 74.0137 40.922 73.849 40.352 73.849C39.8073 73.849 39.345 74.0073 38.965 74.324C38.5977 74.6407 38.3697 75.0903 38.281 75.673H42.347ZM50.635 72.899C50.939 72.405 51.376 72.006 51.946 71.702C52.516 71.398 53.1683 71.246 53.903 71.246C54.777 71.246 55.5687 71.4677 56.278 71.911C56.9873 72.3543 57.5447 72.9877 57.95 73.811C58.368 74.6343 58.577 75.5907 58.577 76.68C58.577 77.7693 58.368 78.732 57.95 79.568C57.5447 80.3913 56.9873 81.031 56.278 81.487C55.5687 81.9303 54.777 82.152 53.903 82.152C53.1557 82.152 52.5033 82.0063 51.946 81.715C51.3887 81.411 50.9517 81.012 50.635 80.518V82H47.386V67.94H50.635V72.899ZM55.271 76.68C55.271 75.8693 55.043 75.236 54.587 74.78C54.1437 74.3113 53.5927 74.077 52.934 74.077C52.288 74.077 51.737 74.3113 51.281 74.78C50.8377 75.2487 50.616 75.8883 50.616 76.699C50.616 77.5097 50.8377 78.1493 51.281 78.618C51.737 79.0867 52.288 79.321 52.934 79.321C53.58 79.321 54.131 79.0867 54.587 78.618C55.043 78.1367 55.271 77.4907 55.271 76.68ZM70.2755 76.528C70.2755 76.832 70.2565 77.1487 70.2185 77.478H62.8655C62.9162 78.1367 63.1252 78.6433 63.4925 78.998C63.8725 79.34 64.3348 79.511 64.8795 79.511C65.6902 79.511 66.2538 79.169 66.5705 78.485H70.0285C69.8512 79.1817 69.5282 79.8087 69.0595 80.366C68.6035 80.9233 68.0272 81.3603 67.3305 81.677C66.6338 81.9937 65.8548 82.152 64.9935 82.152C63.9548 82.152 63.0302 81.9303 62.2195 81.487C61.4088 81.0437 60.7755 80.4103 60.3195 79.587C59.8635 78.7637 59.6355 77.801 59.6355 76.699C59.6355 75.597 59.8572 74.6343 60.3005 73.811C60.7565 72.9877 61.3898 72.3543 62.2005 71.911C63.0112 71.4677 63.9422 71.246 64.9935 71.246C66.0195 71.246 66.9315 71.4613 67.7295 71.892C68.5275 72.3227 69.1482 72.937 69.5915 73.735C70.0475 74.533 70.2755 75.464 70.2755 76.528ZM66.9505 75.673C66.9505 75.1157 66.7605 74.6723 66.3805 74.343C66.0005 74.0137 65.5255 73.849 64.9555 73.849C64.4108 73.849 63.9485 74.0073 63.5685 74.324C63.2012 74.6407 62.9732 75.0903 62.8845 75.673H66.9505ZM75.2385 73.165C75.6185 72.5823 76.0935 72.1263 76.6635 71.797C77.2335 71.455 77.8669 71.284 78.5635 71.284V74.723H77.6705C76.8599 74.723 76.2519 74.9003 75.8465 75.255C75.4412 75.597 75.2385 76.205 75.2385 77.079V82H71.9895V71.398H75.2385V73.165ZM88.2865 73.982V76.68H79.9265V73.982H88.2865ZM109.492 68.662L106.015 82H102.082L99.954 73.222L97.75 82H93.817L90.435 68.662H93.912L95.831 78.371L98.206 68.662H101.778L104.058 78.371L105.996 68.662H109.492ZM115.947 82.152C114.909 82.152 113.971 81.9303 113.135 81.487C112.312 81.0437 111.66 80.4103 111.178 79.587C110.71 78.7637 110.475 77.801 110.475 76.699C110.475 75.6097 110.716 74.6533 111.197 73.83C111.679 72.994 112.337 72.3543 113.173 71.911C114.009 71.4677 114.947 71.246 115.985 71.246C117.024 71.246 117.961 71.4677 118.797 71.911C119.633 72.3543 120.292 72.994 120.773 73.83C121.255 74.6533 121.495 75.6097 121.495 76.699C121.495 77.7883 121.248 78.751 120.754 79.587C120.273 80.4103 119.608 81.0437 118.759 81.487C117.923 81.9303 116.986 82.152 115.947 82.152ZM115.947 79.34C116.568 79.34 117.094 79.112 117.524 78.656C117.968 78.2 118.189 77.5477 118.189 76.699C118.189 75.8503 117.974 75.198 117.543 74.742C117.125 74.286 116.606 74.058 115.985 74.058C115.352 74.058 114.826 74.286 114.408 74.742C113.99 75.1853 113.781 75.8377 113.781 76.699C113.781 77.5477 113.984 78.2 114.389 78.656C114.807 79.112 115.327 79.34 115.947 79.34ZM126.468 73.165C126.848 72.5823 127.323 72.1263 127.893 71.797C128.463 71.455 129.096 71.284 129.793 71.284V74.723H128.9C128.089 74.723 127.481 74.9003 127.076 75.255C126.671 75.597 126.468 76.205 126.468 77.079V82H123.219V71.398H126.468V73.165ZM137.255 79.245V82H135.602C134.424 82 133.506 81.715 132.847 81.145C132.188 80.5623 131.859 79.6187 131.859 78.314V74.096H130.567V71.398H131.859V68.814H135.108V71.398H137.236V74.096H135.108V78.352C135.108 78.6687 135.184 78.8967 135.336 79.036C135.488 79.1753 135.741 79.245 136.096 79.245H137.255Z" fill="#0C5200"/>
</g>
<defs>
<filter id="filter0_d" x="0.313965" y="0" width="159.93" height="97.4664" filterUnits="userSpaceOnUse" color-interpolation-filters="sRGB">
<feFlood flood-opacity="0" result="BackgroundImageFix"/>
<feColorMatrix in="SourceAlpha" type="matrix" values="0 0 0 0 0 0 0 0 0 0 0 0 0 0 0 0 0 0 127 0"/>
<feOffset dy="4"/>
<feGaussianBlur stdDeviation="2"/>
<feColorMatrix type="matrix" values="0 0 0 0 0 0 0 0 0 0 0 0 0 0 0 0 0 0 0.25 0"/>
<feBlend mode="normal" in2="BackgroundImageFix" result="effect1_dropShadow"/>
<feBlend mode="normal" in="SourceGraphic" in2="effect1_dropShadow" result="shape"/>
</filter>
<filter id="filter1_d" x="0.313965" y="0" width="159.93" height="97.4664" filterUnits="userSpaceOnUse" color-interpolation-filters="sRGB">
<feFlood flood-opacity="0" result="BackgroundImageFix"/>
<feColorMatrix in="SourceAlpha" type="matrix" values="0 0 0 0 0 0 0 0 0 0 0 0 0 0 0 0 0 0 127 0"/>
<feOffset dy="4"/>
<feGaussianBlur stdDeviation="2"/>
<feColorMatrix type="matrix" values="0 0 0 0 0 0 0 0 0 0 0 0 0 0 0 0 0 0 0.25 0"/>
<feBlend mode="normal" in2="BackgroundImageFix" result="effect1_dropShadow"/>
<feBlend mode="normal" in="SourceGraphic" in2="effect1_dropShadow" result="shape"/>
</filter>
</defs>
</svg>
