<svg width="65" height="69" viewBox="0 0 65 69" fill="none" xmlns="http://www.w3.org/2000/svg">
<path d="M28.6813 44.3038C30.7938 46.5463 34.2334 46.5463 36.3459 44.3038C37.7813 42.78 44.2272 32.1713 48.2355 25.53C49.0209 24.2363 47.5855 22.7125 46.3668 23.5463C40.1105 27.8013 30.1168 34.6438 28.6813 36.1675C26.5418 38.4388 26.5418 42.0613 28.6813 44.3038Z" fill="#443B3B"/>
<path d="M52.7041 28.7787C52.7041 28.8075 52.677 28.8362 52.677 28.8362C52.1895 29.6412 52.1625 30.6475 52.4874 31.51C53.784 34.7486 54.3444 38.2657 54.1233 41.7769C53.9021 45.288 52.9057 48.6946 51.2145 51.7212L13.7854 51.8075C11.858 48.2989 10.8395 44.3115 10.8333 40.25C10.8333 27.5712 20.5562 17.25 32.5 17.25H33.1229C35.8041 17.3362 38.35 17.9687 40.7333 19.0037C41.5729 19.3775 42.5208 19.32 43.2791 18.8025C43.3062 18.8025 43.3062 18.7737 43.3333 18.7737C45.1479 17.5375 44.9041 14.6625 42.927 13.7425C39.9479 12.3912 36.6979 11.5862 33.2854 11.4712C33.0145 11.5 32.7437 11.5 32.5 11.5C17.55 11.5 5.41663 24.38 5.41663 40.25C5.41663 45.54 6.77079 50.485 9.12704 54.7112C10.102 56.465 11.8895 57.5 13.7854 57.5H51.2145C53.1104 57.5 54.8979 56.465 55.8729 54.7112C58.3656 50.22 59.649 45.0885 59.5833 39.8762C59.5271 36.2166 58.8004 32.6036 57.4437 29.2387C56.6041 27.1112 53.8687 26.8525 52.7041 28.7787Z" fill="#443B3B"/>
</svg>
