<svg width= "683px" height="444" id="btxse" xmlns="http://www.w3.org/2000/svg" xmlns:xlink="http://www.w3.org/1999/xlink" viewBox="0 0 990 759" shape-rendering="geometricPrecision" text-rendering="geometricPrecision"><style><![CDATA[#btxse-circle2 {animation: btxse-circle2_f_p 3000ms linear infinite normal forwards}@keyframes btxse-circle2_f_p { 0% {fill: rgb(68,59,59)} 46.666667% {fill: rgb(68,59,59)} 53.333333% {fill: rgb(15,170,83)} 100% {fill: rgb(15,170,83)} }#btxse-circle3 {animation: btxse-circle3_f_p 3000ms linear infinite normal forwards}@keyframes btxse-circle3_f_p { 0% {fill: rgb(68,59,59)} 33.333333% {fill: rgb(68,59,59)} 40% {fill: rgb(15,170,83)} 100% {fill: rgb(15,170,83)} }#btxse-circle5 {animation: btxse-circle5_f_p 3000ms linear infinite normal forwards}@keyframes btxse-circle5_f_p { 0% {fill: rgb(68,59,59)} 20% {fill: rgb(68,59,59)} 26.666667% {fill: rgb(15,170,83)} 100% {fill: rgb(15,170,83)} }#btxse-circle6 {animation: btxse-circle6_f_p 3000ms linear infinite normal forwards}@keyframes btxse-circle6_f_p { 0% {fill: rgb(68,59,59)} 6.666667% {fill: rgb(68,59,59)} 13.333333% {fill: rgb(15,170,83)} 100% {fill: rgb(15,170,83)} }#btxse-path2 {animation: btxse-path2_f_p 3000ms linear infinite normal forwards}@keyframes btxse-path2_f_p { 0% {fill: rgb(0,0,0)} 40% {fill: rgb(0,0,0)} 46.666667% {fill: rgb(15,170,83)} 100% {fill: rgb(15,170,83)} }#btxse-path3 {animation: btxse-path3_f_p 3000ms linear infinite normal forwards}@keyframes btxse-path3_f_p { 0% {fill: rgb(0,0,0)} 53.333333% {fill: rgb(0,0,0)} 60% {fill: rgb(15,170,83)} 100% {fill: rgb(15,170,83)} }#btxse-path4 {animation: btxse-path4_f_p 3000ms linear infinite normal forwards}@keyframes btxse-path4_f_p { 0% {fill: rgb(0,0,0)} 6.666667% {fill: rgb(15,170,83)} 100% {fill: rgb(15,170,83)} }#btxse-path5 {animation: btxse-path5_f_p 3000ms linear infinite normal forwards}@keyframes btxse-path5_f_p { 0% {fill: rgb(0,0,0)} 26.666667% {fill: rgb(0,0,0)} 33.333333% {fill: rgb(15,170,83)} 100% {fill: rgb(15,170,83)} }#btxse-path10 {animation: btxse-path10_f_p 3000ms linear infinite normal forwards}@keyframes btxse-path10_f_p { 0% {fill: rgb(68,59,59)} 13.333333% {fill: rgb(68,59,59)} 20% {fill: rgb(15,170,83)} 100% {fill: rgb(15,170,83)} }#btxse-path13 {animation: btxse-path13_f_p 3000ms linear infinite normal forwards}@keyframes btxse-path13_f_p { 0% {fill: rgb(0,0,0)} 6.666667% {fill: rgb(15,170,83)} 100% {fill: rgb(15,170,83)} }#btxse-path14 {animation: btxse-path14_f_p 3000ms linear infinite normal forwards}@keyframes btxse-path14_f_p { 0% {fill: rgb(0,0,0)} 6.666667% {fill: rgb(0,0,0)} 13.333333% {fill: rgb(15,170,83)} 100% {fill: rgb(15,170,83)} }#btxse-path15 {animation: btxse-path15_f_p 3000ms linear infinite normal forwards}@keyframes btxse-path15_f_p { 0% {fill: rgb(0,0,0)} 13.333333% {fill: rgb(0,0,0)} 20% {fill: rgb(15,170,83)} 100% {fill: rgb(15,170,83)} }#btxse-path16 {animation: btxse-path16_f_p 3000ms linear infinite normal forwards}@keyframes btxse-path16_f_p { 0% {fill: rgb(0,0,0)} 46.666667% {fill: rgb(0,0,0)} 53.333333% {fill: rgb(15,170,83)} 100% {fill: rgb(15,170,83)} }#btxse-path23 {animation: btxse-path23_f_p 3000ms linear infinite normal forwards}@keyframes btxse-path23_f_p { 0% {fill: rgb(0,0,0)} 53.333333% {fill: rgb(0,0,0)} 60% {fill: rgb(15,170,83)} 100% {fill: rgb(15,170,83)} }]]></style><g id="btxse-g1"><circle id="btxse-circle1" r="45" transform="matrix(-1 0 0 1 375 607)" fill="rgb(68,59,59)" stroke="none" stroke-width="1"/></g><g id="btxse-g2"><circle id="btxse-circle2" r="45" transform="matrix(-1 0 0 1 825 437)" fill="rgb(68,59,59)" stroke="none" stroke-width="1"/></g><g id="btxse-g3"><circle id="btxse-circle3" r="45" transform="matrix(-1 0 0 1 630 262)" fill="rgb(68,59,59)" stroke="none" stroke-width="1"/></g><g id="btxse-g4"><circle id="btxse-circle4" r="45" transform="matrix(-1 0 0 1 630 607)" fill="rgb(68,59,59)" stroke="none" stroke-width="1"/></g><g id="btxse-g5"><circle id="btxse-circle5" r="45" transform="matrix(-1 0 0 1 375 262)" fill="rgb(68,59,59)" stroke="none" stroke-width="1"/></g><g id="btxse-g6"><circle id="btxse-circle6" r="45" transform="matrix(-1 0 0 1 171.36000000000001 434.07866784500004)" fill="rgb(68,59,59)" stroke="none" stroke-width="1"/></g><g id="btxse-g7"><path id="btxse-path1" d="M576.994000,618.879000C577.777000,618.101000,577.781000,616.834000,577.003000,616.051000L564.315000,603.283000C563.536000,602.500000,562.270000,602.496000,561.486000,603.274000C560.703000,604.053000,560.699000,605.319000,561.477000,606.103000L572.756000,617.452000L561.407000,628.730000C560.623000,629.509000,560.619000,630.775000,561.398000,631.559000C562.177000,632.342000,563.443000,632.346000,564.226000,631.567000L576.994000,618.879000ZM428.009000,619L575.578000,619.461000L575.590000,615.461000L428.021000,615L428.009000,619Z" fill="rgb(0,0,0)" stroke="none" stroke-width="1"/></g><g id="btxse-g8"><path id="btxse-path2" d="M792.459000,397.874000C793.562000,397.922000,794.496000,397.067000,794.545000,395.964000L795.338000,377.981000C795.387000,376.878000,794.532000,375.944000,793.428000,375.895000C792.325000,375.846000,791.391000,376.701000,791.342000,377.805000L790.637000,393.789000L774.653000,393.084000C773.549000,393.036000,772.615000,393.891000,772.566000,394.994000C772.518000,396.098000,773.373000,397.032000,774.476000,397.080000L792.459000,397.874000ZM681.458000,277.496000L791.072000,397.226000L794.022000,394.525000L684.408000,274.795000L681.458000,277.496000Z" fill="rgb(0,0,0)" stroke="none" stroke-width="1"/></g><g id="btxse-g9"><path id="btxse-path3" d="M983.225000,441.746000C984.008000,440.967000,984.012000,439.701000,983.233000,438.917000L970.545000,426.150000C969.767000,425.366000,968.500000,425.362000,967.717000,426.141000C966.933000,426.920000,966.929000,428.186000,967.708000,428.969000L978.986000,440.318000L967.637000,451.597000C966.854000,452.375000,966.850000,453.642000,967.629000,454.425000C968.407000,455.209000,969.674000,455.212000,970.457000,454.434000L983.225000,441.746000ZM877.009000,442L981.809000,442.327000L981.821000,438.327000L877.021000,438L877.009000,442Z" fill="rgb(0,0,0)" stroke="none" stroke-width="1"/></g><g id="btxse-g10"><path id="btxse-path4" d="M114.225000,438.746000C115.008000,437.967000,115.012000,436.701000,114.233000,435.917000L101.545000,423.150000C100.767000,422.366000,99.500300,422.362000,98.716900,423.141000C97.933400,423.920000,97.929400,425.186000,98.708000,425.969000L109.986000,437.318000L98.637400,448.597000C97.853900,449.375000,97.850000,450.642000,98.628600,451.425000C99.407200,452.209000,100.674000,452.212000,101.457000,451.434000L114.225000,438.746000ZM8.008590,439C8.008590,439,112.809000,439.327000,112.809000,439.327000L112.821000,435.327000L8.021070,435L8.008590,439Z" fill="rgb(0,0,0)" stroke="none" stroke-width="1"/></g><g id="btxse-g11"><path id="btxse-path5" d="M576.997000,258.879000C577.780000,258.101000,577.784000,256.834000,577.005000,256.051000L564.317000,243.283000C563.539000,242.500000,562.272000,242.496000,561.489000,243.274000C560.705000,244.053000,560.701000,245.319000,561.480000,246.103000L572.758000,257.452000L561.409000,268.730000C560.626000,269.509000,560.622000,270.775000,561.401000,271.559000C562.179000,272.342000,563.445000,272.346000,564.229000,271.567000L576.997000,258.879000ZM428.009000,259L575.581000,259.461000L575.593000,255.461000L428.021000,255L428.009000,259Z" fill="rgb(0,0,0)" stroke="none" stroke-width="1"/></g><g id="btxse-g12"><path id="btxse-path6" d="M805.514000,487.185000C805.617000,486.086000,804.808000,485.111000,803.708000,485.009000L785.786000,483.340000C784.686000,483.237000,783.711000,484.046000,783.609000,485.146000C783.507000,486.245000,784.315000,487.220000,785.415000,487.322000L801.346000,488.806000L799.863000,504.737000C799.760000,505.837000,800.569000,506.811000,801.669000,506.914000C802.768000,507.016000,803.743000,506.208000,803.845000,505.108000L805.514000,487.185000ZM679.277000,592.677000L804.800000,488.539000L802.246000,485.461000L676.723000,589.598000L679.277000,592.677000Z" fill="rgb(0,0,0)" stroke="none" stroke-width="1"/></g><g id="btxse-g13"><path id="btxse-path7" d="M327.705000,589.185000C327.769000,590.288000,326.928000,591.234000,325.825000,591.299000L307.856000,592.354000C306.754000,592.419000,305.807000,591.578000,305.742000,590.475000C305.678000,589.373000,306.519000,588.426000,307.622000,588.361000L323.594000,587.423000L322.656000,571.451000C322.591000,570.348000,323.433000,569.402000,324.535000,569.337000C325.638000,569.272000,326.584000,570.113000,326.649000,571.216000L327.705000,589.185000ZM198.329000,473.381000L327.037000,587.808000L324.379000,590.797000L195.671000,476.371000L198.329000,473.381000Z" fill="rgb(0,0,0)" stroke="none" stroke-width="1"/></g><g id="btxse-g14"><path id="btxse-path8" d="M396.437000,552.020000C395.336000,552.109000,394.371000,551.288000,394.282000,550.187000L392.838000,532.245000C392.749000,531.144000,393.570000,530.180000,394.671000,530.091000C395.772000,530.003000,396.736000,530.823000,396.825000,531.924000L398.109000,547.873000L414.057000,546.589000C415.158000,546.500000,416.123000,547.321000,416.211000,548.422000C416.300000,549.523000,415.479000,550.487000,414.378000,550.576000L396.437000,552.020000ZM602.052000,311.296000L397.799000,551.323000L394.753000,548.731000L599.006000,308.704000L602.052000,311.296000Z" fill="rgb(0,0,0)" stroke="none" stroke-width="1"/></g><g id="btxse-g15"><path id="btxse-path9" d="M628.306000,317.593000C629.083000,316.808000,630.349000,316.802000,631.134000,317.579000L643.926000,330.243000C644.710000,331.020000,644.717000,332.286000,643.940000,333.071000C643.163000,333.856000,641.896000,333.863000,641.111000,333.085000L629.741000,321.828000L618.484000,333.199000C617.707000,333.984000,616.441000,333.990000,615.656000,333.213000C614.871000,332.436000,614.865000,331.169000,615.642000,330.384000L628.306000,317.593000ZM628.889000,551.157000L627.727000,319.010000L631.727000,318.990000L632.889000,551.137000L628.889000,551.157000Z" fill="rgb(0,0,0)" stroke="none" stroke-width="1"/></g><g id="btxse-g16"><path id="btxse-path10" d="M330.228000,283.060000C331.328000,283.163000,332.137000,284.137000,332.034000,285.237000L330.365000,303.160000C330.263000,304.259000,329.288000,305.068000,328.189000,304.966000C327.089000,304.863000,326.280000,303.889000,326.383000,302.789000L327.866000,286.858000L311.935000,285.374000C310.835000,285.272000,310.027000,284.297000,310.129000,283.197000C310.232000,282.098000,311.206000,281.289000,312.306000,281.391000L330.228000,283.060000ZM193.766000,395.513000L328.766000,283.513000L331.320000,286.591000L196.320000,398.591000L193.766000,395.513000Z" transform="matrix(1 0 0 1 0 -0.71523705999999)" fill="rgb(68,59,59)" stroke="none" stroke-width="1"/></g><g id="btxse-g17"><path id="btxse-path11" d="M345,640.472000C358.519000,778.848000,528.253000,669.125000,415.598000,623" fill="none" stroke="rgb(0,0,0)" stroke-width="4"/></g><g id="btxse-g18"><path id="btxse-path12" d="M345,230.761000C358.519000,102.153000,528.253000,204.131000,415.598000,247" fill="none" stroke="rgb(0,0,0)" stroke-width="4"/></g><path id="btxse-path13" d="M67.040000,406.640000C68.053300,406.800000,68.973300,407.213000,69.800000,407.880000C70.653300,408.547000,71.320000,409.373000,71.800000,410.360000C72.306700,411.347000,72.560000,412.400000,72.560000,413.520000C72.560000,414.933000,72.200000,416.213000,71.480000,417.360000C70.760000,418.480000,69.706700,419.373000,68.320000,420.040000C66.960000,420.680000,65.346700,421,63.480000,421L53.080000,421L53.080000,393.120000L63.080000,393.120000C64.973300,393.120000,66.586700,393.440000,67.920000,394.080000C69.253300,394.693000,70.253300,395.533000,70.920000,396.600000C71.586700,397.667000,71.920000,398.867000,71.920000,400.200000C71.920000,401.853000,71.466700,403.227000,70.560000,404.320000C69.680000,405.387000,68.506700,406.160000,67.040000,406.640000ZM56.720000,405.160000L62.840000,405.160000C64.546700,405.160000,65.866700,404.760000,66.800000,403.960000C67.733300,403.160000,68.200000,402.053000,68.200000,400.640000C68.200000,399.227000,67.733300,398.120000,66.800000,397.320000C65.866700,396.520000,64.520000,396.120000,62.760000,396.120000L56.720000,396.120000L56.720000,405.160000ZM63.160000,418C64.973300,418,66.386700,417.573000,67.400000,416.720000C68.413300,415.867000,68.920000,414.680000,68.920000,413.160000C68.920000,411.613000,68.386700,410.400000,67.320000,409.520000C66.253300,408.613000,64.826700,408.160000,63.040000,408.160000L56.720000,408.160000L56.720000,418L63.160000,418Z" transform="matrix(1 0 0 1 0 -1.12000000000000)" fill="rgb(0,0,0)" stroke="none" stroke-width="1"/><path id="btxse-path14" d="M235.240000,308.120000L235.240000,311.080000L227.640000,311.080000L227.640000,336L224,336L224,311.080000L216.360000,311.080000L216.360000,308.120000L235.240000,308.120000Z" fill="rgb(0,0,0)" stroke="none" stroke-width="1"/><path id="btxse-path15" d="M497.480000,203.080000L506.040000,217L501.920000,217L495.240000,206.120000L488.880000,217L484.840000,217L493.360000,203.080000L484.800000,189.120000L488.880000,189.120000L495.600000,200.040000L502,189.120000L506.080000,189.120000L497.480000,203.080000Z" fill="rgb(0,0,0)" stroke="none" stroke-width="1"/><path id="btxse-path16" d="M770.920000,336.280000C769.080000,336.280000,767.427000,335.960000,765.960000,335.320000C764.520000,334.653000,763.387000,333.747000,762.560000,332.600000C761.733000,331.427000,761.307000,330.080000,761.280000,328.560000L765.160000,328.560000C765.293000,329.867000,765.827000,330.973000,766.760000,331.880000C767.720000,332.760000,769.107000,333.200000,770.920000,333.200000C772.653000,333.200000,774.013000,332.773000,775,331.920000C776.013000,331.040000,776.520000,329.920000,776.520000,328.560000C776.520000,327.493000,776.227000,326.627000,775.640000,325.960000C775.053000,325.293000,774.320000,324.787000,773.440000,324.440000C772.560000,324.093000,771.373000,323.720000,769.880000,323.320000C768.040000,322.840000,766.560000,322.360000,765.440000,321.880000C764.347000,321.400000,763.400000,320.653000,762.600000,319.640000C761.827000,318.600000,761.440000,317.213000,761.440000,315.480000C761.440000,313.960000,761.827000,312.613000,762.600000,311.440000C763.373000,310.267000,764.453000,309.360000,765.840000,308.720000C767.253000,308.080000,768.867000,307.760000,770.680000,307.760000C773.293000,307.760000,775.427000,308.413000,777.080000,309.720000C778.760000,311.027000,779.707000,312.760000,779.920000,314.920000L775.920000,314.920000C775.787000,313.853000,775.227000,312.920000,774.240000,312.120000C773.253000,311.293000,771.947000,310.880000,770.320000,310.880000C768.800000,310.880000,767.560000,311.280000,766.600000,312.080000C765.640000,312.853000,765.160000,313.947000,765.160000,315.360000C765.160000,316.373000,765.440000,317.200000,766,317.840000C766.587000,318.480000,767.293000,318.973000,768.120000,319.320000C768.973000,319.640000,770.160000,320.013000,771.680000,320.440000C773.520000,320.947000,775,321.453000,776.120000,321.960000C777.240000,322.440000,778.200000,323.200000,779,324.240000C779.800000,325.253000,780.200000,326.640000,780.200000,328.400000C780.200000,329.760000,779.840000,331.040000,779.120000,332.240000C778.400000,333.440000,777.333000,334.413000,775.920000,335.160000C774.507000,335.907000,772.840000,336.280000,770.920000,336.280000Z" fill="rgb(0,0,0)" stroke="none" stroke-width="1"/><path id="btxse-path17" d="M311.920000,222.280000C310.080000,222.280000,308.427000,221.960000,306.960000,221.320000C305.520000,220.653000,304.387000,219.747000,303.560000,218.600000C302.733000,217.427000,302.307000,216.080000,302.280000,214.560000L306.160000,214.560000C306.293000,215.867000,306.827000,216.973000,307.760000,217.880000C308.720000,218.760000,310.107000,219.200000,311.920000,219.200000C313.653000,219.200000,315.013000,218.773000,316,217.920000C317.013000,217.040000,317.520000,215.920000,317.520000,214.560000C317.520000,213.493000,317.227000,212.627000,316.640000,211.960000C316.053000,211.293000,315.320000,210.787000,314.440000,210.440000C313.560000,210.093000,312.373000,209.720000,310.880000,209.320000C309.040000,208.840000,307.560000,208.360000,306.440000,207.880000C305.347000,207.400000,304.400000,206.653000,303.600000,205.640000C302.827000,204.600000,302.440000,203.213000,302.440000,201.480000C302.440000,199.960000,302.827000,198.613000,303.600000,197.440000C304.373000,196.267000,305.453000,195.360000,306.840000,194.720000C308.253000,194.080000,309.867000,193.760000,311.680000,193.760000C314.293000,193.760000,316.427000,194.413000,318.080000,195.720000C319.760000,197.027000,320.707000,198.760000,320.920000,200.920000L316.920000,200.920000C316.787000,199.853000,316.227000,198.920000,315.240000,198.120000C314.253000,197.293000,312.947000,196.880000,311.320000,196.880000C309.800000,196.880000,308.560000,197.280000,307.600000,198.080000C306.640000,198.853000,306.160000,199.947000,306.160000,201.360000C306.160000,202.373000,306.440000,203.200000,307,203.840000C307.587000,204.480000,308.293000,204.973000,309.120000,205.320000C309.973000,205.640000,311.160000,206.013000,312.680000,206.440000C314.520000,206.947000,316,207.453000,317.120000,207.960000C318.240000,208.440000,319.200000,209.200000,320,210.240000C320.800000,211.253000,321.200000,212.640000,321.200000,214.400000C321.200000,215.760000,320.840000,217.040000,320.120000,218.240000C319.400000,219.440000,318.333000,220.413000,316.920000,221.160000C315.507000,221.907000,313.840000,222.280000,311.920000,222.280000Z" fill="rgb(0,0,0)" stroke="none" stroke-width="1"/><path id="btxse-path18" d="M456.480000,407.080000L465.040000,421L460.920000,421L454.240000,410.120000L447.880000,421L443.840000,421L452.360000,407.080000L443.800000,393.120000L447.880000,393.120000L454.600000,404.040000L461,393.120000L465.080000,393.120000L456.480000,407.080000Z" fill="rgb(0,0,0)" stroke="none" stroke-width="1"/><g id="btxse-g19"><path id="btxse-path19" d="M684.720000,401.280000C684.720000,403.600000,683.920000,405.533000,682.320000,407.080000C680.747000,408.600000,678.333000,409.360000,675.080000,409.360000L669.720000,409.360000L669.720000,421L666.080000,421L666.080000,393.120000L675.080000,393.120000C678.227000,393.120000,680.613000,393.880000,682.240000,395.400000C683.893000,396.920000,684.720000,398.880000,684.720000,401.280000ZM675.080000,406.360000C677.107000,406.360000,678.600000,405.920000,679.560000,405.040000C680.520000,404.160000,681,402.907000,681,401.280000C681,397.840000,679.027000,396.120000,675.080000,396.120000L669.720000,396.120000L669.720000,406.360000L675.080000,406.360000Z" fill="rgb(0,0,0)" stroke="none" stroke-width="1"/></g><g id="btxse-g20"><path id="btxse-path20" d="M247.720000,553.280000C247.720000,555.600000,246.920000,557.533000,245.320000,559.080000C243.747000,560.600000,241.333000,561.360000,238.080000,561.360000L232.720000,561.360000L232.720000,573L229.080000,573L229.080000,545.120000L238.080000,545.120000C241.227000,545.120000,243.613000,545.880000,245.240000,547.400000C246.893000,548.920000,247.720000,550.880000,247.720000,553.280000ZM238.080000,558.360000C240.107000,558.360000,241.600000,557.920000,242.560000,557.040000C243.520000,556.160000,244,554.907000,244,553.280000C244,549.840000,242.027000,548.120000,238.080000,548.120000L232.720000,548.120000L232.720000,558.360000L238.080000,558.360000Z" fill="rgb(0,0,0)" stroke="none" stroke-width="1"/></g><path id="btxse-path21" d="M320.240000,652.120000L320.240000,655.080000L312.640000,655.080000L312.640000,680L309,680L309,655.080000L301.360000,655.080000L301.360000,652.120000L320.240000,652.120000Z" fill="rgb(0,0,0)" stroke="none" stroke-width="1"/><path id="btxse-path22" d="M509.120000,653.120000L498.600000,681L494.400000,681L483.880000,653.120000L487.760000,653.120000L496.520000,677.160000L505.280000,653.120000L509.120000,653.120000Z" fill="rgb(0,0,0)" stroke="none" stroke-width="1"/><path id="btxse-path23" d="M930.720000,396.080000L930.720000,405.400000L940.880000,405.400000L940.880000,408.400000L930.720000,408.400000L930.720000,418L942.080000,418L942.080000,421L927.080000,421L927.080000,393.080000L942.080000,393.080000L942.080000,396.080000L930.720000,396.080000Z" fill="rgb(0,0,0)" stroke="none" stroke-width="1"/><path id="btxse-path24" d="M781.120000,545.120000L770.600000,573L766.400000,573L755.880000,545.120000L759.760000,545.120000L768.520000,569.160000L777.280000,545.120000L781.120000,545.120000Z" fill="rgb(0,0,0)" stroke="none" stroke-width="1"/></svg>