<svg width="683" height="444" viewBox="0 0 1083 744" fill="none" xmlns="http://www.w3.org/2000/svg">
<g filter="url(#filter0_d)">
<path d="M4 155C4 119.654 32.6538 91 68 91H1015C1050.35 91 1079 119.654 1079 155V672C1079 707.346 1050.35 736 1015 736H68C32.6538 736 4 707.346 4 672V155Z" fill="#FDFCFC"/>
</g>
<g filter="url(#filter1_d)">
<ellipse rx="44.7917" ry="45" transform="matrix(-1 0 0 1 387.218 605)" fill="#443B3B"/>
</g>
<g filter="url(#filter2_d)">
<ellipse rx="44.7917" ry="45" transform="matrix(-1 0 0 1 835.134 435)" fill="#443B3B"/>
</g>
<g filter="url(#filter3_d)">
<ellipse rx="44.7917" ry="45" transform="matrix(-1 0 0 1 641.037 260)" fill="#443B3B"/>
</g>
<g filter="url(#filter4_d)">
<ellipse rx="44.7917" ry="45" transform="matrix(-1 0 0 1 641.037 605)" fill="#443B3B"/>
</g>
<g filter="url(#filter5_d)">
<ellipse rx="44.7917" ry="45" transform="matrix(-1 0 0 1 387.218 260)" fill="#443B3B"/>
</g>
<g filter="url(#filter6_d)">
<ellipse rx="44.7917" ry="45" transform="matrix(-1 0 0 1 178.19 435)" fill="#443B3B"/>
</g>
<g filter="url(#filter7_d)">
<path d="M357.356 638.472C370.813 776.848 539.762 667.125 427.627 621" stroke="black" stroke-width="4"/>
</g>
<g filter="url(#filter8_d)">
<path d="M346.593 278.004C347.691 278.106 348.497 279.083 348.394 280.185L346.722 298.148C346.619 299.251 345.646 300.061 344.549 299.959C343.452 299.857 342.645 298.881 342.748 297.778L344.235 281.811L328.34 280.331C327.243 280.229 326.436 279.252 326.539 278.15C326.642 277.048 327.614 276.237 328.712 276.339L346.593 278.004ZM203.208 396.751L345.134 278.458L347.681 281.542L205.755 399.836L203.208 396.751Z" fill="black"/>
</g>
<g filter="url(#filter9_d)">
<path d="M639.293 305.389C640.07 304.604 641.337 304.598 642.122 305.375L654.913 318.039C655.698 318.816 655.704 320.082 654.927 320.867C654.15 321.652 652.883 321.659 652.098 320.882L640.728 309.625L629.471 320.995C628.694 321.78 627.428 321.787 626.643 321.009C625.858 320.232 625.852 318.966 626.629 318.181L639.293 305.389ZM639.982 561.311L638.714 306.806L642.714 306.786L643.982 561.291L639.982 561.311Z" fill="black"/>
</g>
<g filter="url(#filter10_d)">
<path d="M396.399 564.378C395.3 564.466 394.338 563.644 394.249 562.54L392.801 544.557C392.712 543.454 393.53 542.487 394.629 542.399C395.727 542.31 396.69 543.133 396.779 544.237L398.066 560.222L413.978 558.94C415.076 558.852 416.039 559.675 416.128 560.778C416.216 561.882 415.398 562.848 414.3 562.937L396.399 564.378ZM621.406 299.638L397.758 563.68L394.718 561.08L618.366 297.039L621.406 299.638Z" fill="black"/>
</g>
<g filter="url(#filter11_d)">
<path d="M345.517 591.983C345.582 593.088 344.743 594.036 343.643 594.101L325.715 595.154C324.615 595.219 323.67 594.375 323.606 593.27C323.541 592.165 324.38 591.216 325.48 591.152L341.416 590.216L340.475 574.207C340.41 573.101 341.25 572.153 342.35 572.088C343.45 572.024 344.394 572.867 344.459 573.973L345.517 591.983ZM206.75 467.255L344.85 590.602L342.2 593.598L204.1 470.25L206.75 467.255Z" fill="black"/>
</g>
<g filter="url(#filter12_d)">
<path d="M596.208 256.904C596.991 256.125 596.995 254.859 596.216 254.076L583.528 241.308C582.749 240.524 581.483 240.52 580.7 241.299C579.916 242.078 579.912 243.344 580.691 244.127L591.969 255.477L580.621 266.755C579.837 267.533 579.833 268.8 580.612 269.583C581.39 270.367 582.657 270.371 583.44 269.592L596.208 256.904ZM430.651 256.971L594.792 257.485L594.804 253.485L430.664 252.971L430.651 256.971Z" fill="black"/>
</g>
<g filter="url(#filter13_d)">
<path d="M822.477 479.573C822.579 478.47 821.773 477.494 820.676 477.392L802.794 475.727C801.697 475.625 800.724 476.435 800.621 477.538C800.519 478.64 801.325 479.616 802.422 479.719L818.317 481.199L816.83 497.166C816.728 498.268 817.534 499.245 818.631 499.347C819.729 499.449 820.701 498.638 820.804 497.536L822.477 479.573ZM683.799 595.922L821.763 480.93L819.216 477.846L681.252 592.837L683.799 595.922Z" fill="black"/>
</g>
<g filter="url(#filter14_d)">
<path d="M135.96 436.772C136.744 435.993 136.748 434.727 135.969 433.943L123.281 421.176C122.502 420.392 121.236 420.388 120.452 421.167C119.669 421.945 119.665 423.212 120.443 423.995L131.722 435.344L120.373 446.622C119.59 447.401 119.586 448.667 120.364 449.451C121.143 450.234 122.409 450.238 123.193 449.46L135.96 436.772ZM21.9252 437L134.544 437.353L134.557 433.353L21.9377 433L21.9252 437Z" fill="black"/>
</g>
<g filter="url(#filter15_d)">
<path d="M992.633 439.746C993.416 438.967 993.42 437.701 992.642 436.917L979.953 424.15C979.175 423.366 977.908 423.362 977.125 424.141C976.341 424.919 976.337 426.186 977.116 426.969L988.395 438.318L977.046 449.596C976.262 450.375 976.258 451.641 977.037 452.425C977.816 453.208 979.082 453.212 979.865 452.434L992.633 439.746ZM878.257 439.973L991.217 440.327L991.229 436.327L878.27 435.973L878.257 439.973Z" fill="black"/>
</g>
<g filter="url(#filter16_d)">
<path d="M806.983 400.531C808.084 400.58 809.016 399.722 809.065 398.616L809.86 380.592C809.909 379.486 809.056 378.55 807.955 378.502C806.854 378.453 805.922 379.31 805.873 380.416L805.167 396.438L789.219 395.734C788.118 395.686 787.186 396.543 787.137 397.649C787.089 398.755 787.941 399.691 789.042 399.74L806.983 400.531ZM683.575 265.977L805.6 399.882L808.544 397.174L686.519 263.269L683.575 265.977Z" fill="black"/>
</g>
<g filter="url(#filter17_d)">
<path d="M598.506 616.911C599.29 616.133 599.293 614.866 598.515 614.083L585.827 601.315C585.048 600.532 583.782 600.528 582.998 601.306C582.215 602.085 582.211 603.351 582.989 604.135L594.268 615.484L582.919 626.762C582.136 627.541 582.132 628.807 582.91 629.59C583.689 630.374 584.955 630.378 585.739 629.599L598.506 616.911ZM429.455 616.967L597.09 617.493L597.102 613.493L429.468 612.967L429.455 616.967Z" fill="black"/>
</g>
<g filter="url(#filter18_d)">
<path d="M357.356 228.761C370.813 100.153 539.762 202.131 427.627 245" stroke="black" stroke-width="4"/>
</g>
<g filter="url(#filter19_d)">
<ellipse rx="29.8611" ry="28" transform="matrix(-1 0 0 1 43.8148 434)" fill="#443B3B"/>
</g>
<g filter="url(#filter20_d)">
<ellipse rx="29.8611" ry="28" transform="matrix(-1 0 0 1 1021.27 438)" fill="#443B3B"/>
</g>
<path d="M774.657 548.12L764.137 576H759.937L749.417 548.12H753.297L762.057 572.16L770.817 548.12H774.657Z" fill="black"/>
<path d="M931.438 403.08V412.4H941.598V415.4H931.438V425H942.798V428H927.798V400.08H942.798V403.08H931.438Z" fill="black"/>
<path d="M520.838 629.12L510.318 657H506.118L495.598 629.12H499.478L508.238 653.16L516.998 629.12H520.838Z" fill="black"/>
<path d="M344.749 639.12V642.08H337.149V667H333.509V642.08H325.869V639.12H344.749Z" fill="black"/>
<g filter="url(#filter21_d)">
<path d="M277.549 556.28C277.549 558.6 276.749 560.533 275.149 562.08C273.575 563.6 271.162 564.36 267.909 564.36H262.549V576H258.909V548.12H267.909C271.055 548.12 273.442 548.88 275.069 550.4C276.722 551.92 277.549 553.88 277.549 556.28ZM267.909 561.36C269.935 561.36 271.429 560.92 272.389 560.04C273.349 559.16 273.829 557.907 273.829 556.28C273.829 552.84 271.855 551.12 267.909 551.12H262.549V561.36H267.909Z" fill="black"/>
</g>
<g filter="url(#filter22_d)">
<path d="M675.697 407.28C675.697 409.6 674.897 411.533 673.297 413.08C671.723 414.6 669.31 415.36 666.057 415.36H660.697V427H657.057V399.12H666.057C669.203 399.12 671.59 399.88 673.217 401.4C674.87 402.92 675.697 404.88 675.697 407.28ZM666.057 412.36C668.083 412.36 669.577 411.92 670.537 411.04C671.497 410.16 671.977 408.907 671.977 407.28C671.977 403.84 670.003 402.12 666.057 402.12H660.697V412.36H666.057Z" fill="black"/>
</g>
<path d="M484.313 415.08L492.873 429H488.753L482.073 418.12L475.713 429H471.673L480.193 415.08L471.633 401.12H475.713L482.433 412.04L488.833 401.12H492.913L484.313 415.08Z" fill="black"/>
<path d="M335.434 215.28C333.594 215.28 331.941 214.96 330.474 214.32C329.034 213.653 327.901 212.747 327.074 211.6C326.247 210.427 325.821 209.08 325.794 207.56H329.674C329.807 208.867 330.341 209.973 331.274 210.88C332.234 211.76 333.621 212.2 335.434 212.2C337.167 212.2 338.527 211.773 339.514 210.92C340.527 210.04 341.034 208.92 341.034 207.56C341.034 206.493 340.741 205.627 340.154 204.96C339.567 204.293 338.834 203.787 337.954 203.44C337.074 203.093 335.887 202.72 334.394 202.32C332.554 201.84 331.074 201.36 329.954 200.88C328.861 200.4 327.914 199.653 327.114 198.64C326.341 197.6 325.954 196.213 325.954 194.48C325.954 192.96 326.341 191.613 327.114 190.44C327.887 189.267 328.967 188.36 330.354 187.72C331.767 187.08 333.381 186.76 335.194 186.76C337.807 186.76 339.941 187.413 341.594 188.72C343.274 190.027 344.221 191.76 344.434 193.92H340.434C340.301 192.853 339.741 191.92 338.754 191.12C337.767 190.293 336.461 189.88 334.834 189.88C333.314 189.88 332.074 190.28 331.114 191.08C330.154 191.853 329.674 192.947 329.674 194.36C329.674 195.373 329.954 196.2 330.514 196.84C331.101 197.48 331.807 197.973 332.634 198.32C333.487 198.64 334.674 199.013 336.194 199.44C338.034 199.947 339.514 200.453 340.634 200.96C341.754 201.44 342.714 202.2 343.514 203.24C344.314 204.253 344.714 205.64 344.714 207.4C344.714 208.76 344.354 210.04 343.634 211.24C342.914 212.44 341.847 213.413 340.434 214.16C339.021 214.907 337.354 215.28 335.434 215.28Z" fill="black"/>
<path d="M766.429 334.28C764.589 334.28 762.936 333.96 761.469 333.32C760.029 332.653 758.896 331.747 758.069 330.6C757.243 329.427 756.816 328.08 756.789 326.56H760.669C760.803 327.867 761.336 328.973 762.269 329.88C763.229 330.76 764.616 331.2 766.429 331.2C768.163 331.2 769.523 330.773 770.509 329.92C771.523 329.04 772.029 327.92 772.029 326.56C772.029 325.493 771.736 324.627 771.149 323.96C770.563 323.293 769.829 322.787 768.949 322.44C768.069 322.093 766.883 321.72 765.389 321.32C763.549 320.84 762.069 320.36 760.949 319.88C759.856 319.4 758.909 318.653 758.109 317.64C757.336 316.6 756.949 315.213 756.949 313.48C756.949 311.96 757.336 310.613 758.109 309.44C758.883 308.267 759.963 307.36 761.349 306.72C762.763 306.08 764.376 305.76 766.189 305.76C768.803 305.76 770.936 306.413 772.589 307.72C774.269 309.027 775.216 310.76 775.429 312.92H771.429C771.296 311.853 770.736 310.92 769.749 310.12C768.763 309.293 767.456 308.88 765.829 308.88C764.309 308.88 763.069 309.28 762.109 310.08C761.149 310.853 760.669 311.947 760.669 313.36C760.669 314.373 760.949 315.2 761.509 315.84C762.096 316.48 762.803 316.973 763.629 317.32C764.483 317.64 765.669 318.013 767.189 318.44C769.029 318.947 770.509 319.453 771.629 319.96C772.749 320.44 773.709 321.2 774.509 322.24C775.309 323.253 775.709 324.64 775.709 326.4C775.709 327.76 775.349 329.04 774.629 330.24C773.909 331.44 772.843 332.413 771.429 333.16C770.016 333.907 768.349 334.28 766.429 334.28Z" fill="black"/>
<path d="M266.115 306.12V309.08H258.515V334H254.875V309.08H247.235V306.12H266.115Z" fill="black"/>
<path d="M516.165 229.08L524.725 243H520.605L513.925 232.12L507.565 243H503.525L512.045 229.08L503.485 215.12H507.565L514.285 226.04L520.685 215.12H524.765L516.165 229.08Z" fill="black"/>
<path d="M107.637 404.64C108.651 404.8 109.571 405.213 110.397 405.88C111.251 406.547 111.917 407.373 112.397 408.36C112.904 409.347 113.157 410.4 113.157 411.52C113.157 412.933 112.797 414.213 112.077 415.36C111.357 416.48 110.304 417.373 108.917 418.04C107.557 418.68 105.944 419 104.077 419H93.6772V391.12H103.677C105.571 391.12 107.184 391.44 108.517 392.08C109.851 392.693 110.851 393.533 111.517 394.6C112.184 395.667 112.517 396.867 112.517 398.2C112.517 399.853 112.064 401.227 111.157 402.32C110.277 403.387 109.104 404.16 107.637 404.64ZM97.3172 403.16H103.437C105.144 403.16 106.464 402.76 107.397 401.96C108.331 401.16 108.797 400.053 108.797 398.64C108.797 397.227 108.331 396.12 107.397 395.32C106.464 394.52 105.117 394.12 103.357 394.12H97.3172V403.16ZM103.757 416C105.571 416 106.984 415.573 107.997 414.72C109.011 413.867 109.517 412.68 109.517 411.16C109.517 409.613 108.984 408.4 107.917 407.52C106.851 406.613 105.424 406.16 103.637 406.16H97.3172V416H103.757Z" fill="black"/>
<path d="M839.168 424.352L832.496 440H830.288L837.056 424.568H827.792V422.696H839.168V424.352Z" fill="#F3EAEA"/>
<path d="M645.552 596.544H637.128V602.016C637.496 601.504 638.04 601.088 638.76 600.768C639.48 600.432 640.256 600.264 641.088 600.264C642.416 600.264 643.496 600.544 644.328 601.104C645.16 601.648 645.752 602.36 646.104 603.24C646.472 604.104 646.656 605.024 646.656 606C646.656 607.152 646.44 608.184 646.008 609.096C645.576 610.008 644.912 610.728 644.016 611.256C643.136 611.784 642.04 612.048 640.728 612.048C639.048 612.048 637.688 611.616 636.648 610.752C635.608 609.888 634.976 608.736 634.752 607.296H636.888C637.096 608.208 637.536 608.92 638.208 609.432C638.88 609.944 639.728 610.2 640.752 610.2C642.016 610.2 642.968 609.824 643.608 609.072C644.248 608.304 644.568 607.296 644.568 606.048C644.568 604.8 644.248 603.84 643.608 603.168C642.968 602.48 642.024 602.136 640.776 602.136C639.928 602.136 639.184 602.344 638.544 602.76C637.92 603.16 637.464 603.712 637.176 604.416H635.112V594.624H645.552V596.544Z" fill="#F3EAEA"/>
<path d="M644.16 250.776C643.808 249 642.712 248.112 640.872 248.112C639.448 248.112 638.384 248.664 637.68 249.768C636.976 250.856 636.632 252.656 636.648 255.168C637.016 254.336 637.624 253.688 638.472 253.224C639.336 252.744 640.296 252.504 641.352 252.504C643 252.504 644.312 253.016 645.288 254.04C646.28 255.064 646.776 256.48 646.776 258.288C646.776 259.376 646.56 260.352 646.128 261.216C645.712 262.08 645.072 262.768 644.208 263.28C643.36 263.792 642.328 264.048 641.112 264.048C639.464 264.048 638.176 263.68 637.248 262.944C636.32 262.208 635.672 261.192 635.304 259.896C634.936 258.6 634.752 257 634.752 255.096C634.752 249.224 636.8 246.288 640.896 246.288C642.464 246.288 643.696 246.712 644.592 247.56C645.488 248.408 646.016 249.48 646.176 250.776H644.16ZM640.896 254.352C640.208 254.352 639.56 254.496 638.952 254.784C638.344 255.056 637.848 255.48 637.464 256.056C637.096 256.616 636.912 257.304 636.912 258.12C636.912 259.336 637.264 260.328 637.968 261.096C638.672 261.848 639.68 262.224 640.992 262.224C642.112 262.224 643 261.88 643.656 261.192C644.328 260.488 644.664 259.544 644.664 258.36C644.664 257.112 644.344 256.136 643.704 255.432C643.064 254.712 642.128 254.352 640.896 254.352Z" fill="#F3EAEA"/>
<path d="M377.96 609.136V607.48L386.384 595.816H389V607.24H391.4V609.136H389V613H386.84V609.136H377.96ZM386.936 598.096L380.48 607.24H386.936V598.096Z" fill="#F3EAEA"/>
<path d="M382.44 253.016C382.552 251.544 383.12 250.392 384.144 249.56C385.168 248.728 386.496 248.312 388.128 248.312C389.216 248.312 390.152 248.512 390.936 248.912C391.736 249.296 392.336 249.824 392.736 250.496C393.152 251.168 393.36 251.928 393.36 252.776C393.36 253.768 393.072 254.624 392.496 255.344C391.936 256.064 391.2 256.528 390.288 256.736V256.856C391.328 257.112 392.152 257.616 392.76 258.368C393.368 259.12 393.672 260.104 393.672 261.32C393.672 262.232 393.464 263.056 393.048 263.792C392.632 264.512 392.008 265.08 391.176 265.496C390.344 265.912 389.344 266.12 388.176 266.12C386.48 266.12 385.088 265.68 384 264.8C382.912 263.904 382.304 262.64 382.176 261.008H384.288C384.4 261.968 384.792 262.752 385.464 263.36C386.136 263.968 387.032 264.272 388.152 264.272C389.272 264.272 390.12 263.984 390.696 263.408C391.288 262.816 391.584 262.056 391.584 261.128C391.584 259.928 391.184 259.064 390.384 258.536C389.584 258.008 388.376 257.744 386.76 257.744H386.208V255.92H386.784C388.256 255.904 389.368 255.664 390.12 255.2C390.872 254.72 391.248 253.984 391.248 252.992C391.248 252.144 390.968 251.464 390.408 250.952C389.864 250.44 389.08 250.184 388.056 250.184C387.064 250.184 386.264 250.44 385.656 250.952C385.048 251.464 384.688 252.152 384.576 253.016H382.44Z" fill="#F3EAEA"/>
<path d="M1018.66 435.976C1017.76 435.624 1017.07 435.112 1016.59 434.44C1016.11 433.768 1015.87 432.952 1015.87 431.992C1015.87 431.128 1016.09 430.352 1016.52 429.664C1016.95 428.96 1017.59 428.408 1018.44 428.008C1019.3 427.592 1020.34 427.384 1021.56 427.384C1022.78 427.384 1023.81 427.592 1024.66 428.008C1025.52 428.408 1026.17 428.96 1026.6 429.664C1027.05 430.352 1027.27 431.128 1027.27 431.992C1027.27 432.92 1027.02 433.736 1026.53 434.44C1026.03 435.128 1025.35 435.64 1024.49 435.976C1025.48 436.28 1026.26 436.816 1026.84 437.584C1027.43 438.336 1027.73 439.248 1027.73 440.32C1027.73 441.36 1027.47 442.272 1026.96 443.056C1026.45 443.824 1025.72 444.424 1024.78 444.856C1023.85 445.272 1022.78 445.48 1021.56 445.48C1020.34 445.48 1019.27 445.272 1018.34 444.856C1017.43 444.424 1016.72 443.824 1016.21 443.056C1015.7 442.272 1015.44 441.36 1015.44 440.32C1015.44 439.248 1015.73 438.328 1016.3 437.56C1016.88 436.792 1017.66 436.264 1018.66 435.976ZM1025.16 432.256C1025.16 431.28 1024.84 430.528 1024.2 430C1023.56 429.472 1022.68 429.208 1021.56 429.208C1020.46 429.208 1019.58 429.472 1018.94 430C1018.3 430.528 1017.98 431.288 1017.98 432.28C1017.98 433.176 1018.31 433.896 1018.97 434.44C1019.64 434.984 1020.5 435.256 1021.56 435.256C1022.63 435.256 1023.5 434.984 1024.15 434.44C1024.82 433.88 1025.16 433.152 1025.16 432.256ZM1021.56 436.936C1020.38 436.936 1019.41 437.216 1018.66 437.776C1017.9 438.32 1017.53 439.144 1017.53 440.248C1017.53 441.272 1017.89 442.096 1018.61 442.72C1019.34 443.344 1020.33 443.656 1021.56 443.656C1022.79 443.656 1023.77 443.344 1024.49 442.72C1025.21 442.096 1025.57 441.272 1025.57 440.248C1025.57 439.176 1025.2 438.36 1024.46 437.8C1023.73 437.224 1022.76 436.936 1021.56 436.936Z" fill="#F3EAEA"/>
<path d="M39.912 426.64V424.648H44.424V442H42.216V426.64H39.912Z" fill="#F3EAEA"/>
<path d="M172.224 438.248C174.256 436.616 175.848 435.28 177 434.24C178.152 433.184 179.12 432.088 179.904 430.952C180.704 429.8 181.104 428.672 181.104 427.568C181.104 426.528 180.848 425.712 180.336 425.12C179.84 424.512 179.032 424.208 177.912 424.208C176.824 424.208 175.976 424.552 175.368 425.24C174.776 425.912 174.456 426.816 174.408 427.952H172.296C172.36 426.16 172.904 424.776 173.928 423.8C174.952 422.824 176.272 422.336 177.888 422.336C179.536 422.336 180.84 422.792 181.8 423.704C182.776 424.616 183.264 425.872 183.264 427.472C183.264 428.8 182.864 430.096 182.064 431.36C181.28 432.608 180.384 433.712 179.376 434.672C178.368 435.616 177.08 436.72 175.512 437.984H183.768V439.808H172.224V438.248Z" fill="#F3EAEA"/>
<defs>
<filter id="filter0_d" x="0" y="91" width="1083" height="653" filterUnits="userSpaceOnUse" color-interpolation-filters="sRGB">
<feFlood flood-opacity="0" result="BackgroundImageFix"/>
<feColorMatrix in="SourceAlpha" type="matrix" values="0 0 0 0 0 0 0 0 0 0 0 0 0 0 0 0 0 0 127 0"/>
<feOffset dy="4"/>
<feGaussianBlur stdDeviation="2"/>
<feColorMatrix type="matrix" values="0 0 0 0 0 0 0 0 0 0 0 0 0 0 0 0 0 0 0.25 0"/>
<feBlend mode="normal" in2="BackgroundImageFix" result="effect1_dropShadow"/>
<feBlend mode="normal" in="SourceGraphic" in2="effect1_dropShadow" result="shape"/>
</filter>
<filter id="filter1_d" x="338.426" y="560" width="97.5833" height="98" filterUnits="userSpaceOnUse" color-interpolation-filters="sRGB">
<feFlood flood-opacity="0" result="BackgroundImageFix"/>
<feColorMatrix in="SourceAlpha" type="matrix" values="0 0 0 0 0 0 0 0 0 0 0 0 0 0 0 0 0 0 127 0"/>
<feOffset dy="4"/>
<feGaussianBlur stdDeviation="2"/>
<feColorMatrix type="matrix" values="0 0 0 0 0 0 0 0 0 0 0 0 0 0 0 0 0 0 0.25 0"/>
<feBlend mode="normal" in2="BackgroundImageFix" result="effect1_dropShadow"/>
<feBlend mode="normal" in="SourceGraphic" in2="effect1_dropShadow" result="shape"/>
</filter>
<filter id="filter2_d" x="786.343" y="390" width="97.5833" height="98" filterUnits="userSpaceOnUse" color-interpolation-filters="sRGB">
<feFlood flood-opacity="0" result="BackgroundImageFix"/>
<feColorMatrix in="SourceAlpha" type="matrix" values="0 0 0 0 0 0 0 0 0 0 0 0 0 0 0 0 0 0 127 0"/>
<feOffset dy="4"/>
<feGaussianBlur stdDeviation="2"/>
<feColorMatrix type="matrix" values="0 0 0 0 0 0 0 0 0 0 0 0 0 0 0 0 0 0 0.25 0"/>
<feBlend mode="normal" in2="BackgroundImageFix" result="effect1_dropShadow"/>
<feBlend mode="normal" in="SourceGraphic" in2="effect1_dropShadow" result="shape"/>
</filter>
<filter id="filter3_d" x="592.245" y="215" width="97.5833" height="98" filterUnits="userSpaceOnUse" color-interpolation-filters="sRGB">
<feFlood flood-opacity="0" result="BackgroundImageFix"/>
<feColorMatrix in="SourceAlpha" type="matrix" values="0 0 0 0 0 0 0 0 0 0 0 0 0 0 0 0 0 0 127 0"/>
<feOffset dy="4"/>
<feGaussianBlur stdDeviation="2"/>
<feColorMatrix type="matrix" values="0 0 0 0 0 0 0 0 0 0 0 0 0 0 0 0 0 0 0.25 0"/>
<feBlend mode="normal" in2="BackgroundImageFix" result="effect1_dropShadow"/>
<feBlend mode="normal" in="SourceGraphic" in2="effect1_dropShadow" result="shape"/>
</filter>
<filter id="filter4_d" x="592.245" y="560" width="97.5833" height="98" filterUnits="userSpaceOnUse" color-interpolation-filters="sRGB">
<feFlood flood-opacity="0" result="BackgroundImageFix"/>
<feColorMatrix in="SourceAlpha" type="matrix" values="0 0 0 0 0 0 0 0 0 0 0 0 0 0 0 0 0 0 127 0"/>
<feOffset dy="4"/>
<feGaussianBlur stdDeviation="2"/>
<feColorMatrix type="matrix" values="0 0 0 0 0 0 0 0 0 0 0 0 0 0 0 0 0 0 0.25 0"/>
<feBlend mode="normal" in2="BackgroundImageFix" result="effect1_dropShadow"/>
<feBlend mode="normal" in="SourceGraphic" in2="effect1_dropShadow" result="shape"/>
</filter>
<filter id="filter5_d" x="338.426" y="215" width="97.5833" height="98" filterUnits="userSpaceOnUse" color-interpolation-filters="sRGB">
<feFlood flood-opacity="0" result="BackgroundImageFix"/>
<feColorMatrix in="SourceAlpha" type="matrix" values="0 0 0 0 0 0 0 0 0 0 0 0 0 0 0 0 0 0 127 0"/>
<feOffset dy="4"/>
<feGaussianBlur stdDeviation="2"/>
<feColorMatrix type="matrix" values="0 0 0 0 0 0 0 0 0 0 0 0 0 0 0 0 0 0 0.25 0"/>
<feBlend mode="normal" in2="BackgroundImageFix" result="effect1_dropShadow"/>
<feBlend mode="normal" in="SourceGraphic" in2="effect1_dropShadow" result="shape"/>
</filter>
<filter id="filter6_d" x="129.398" y="390" width="97.5833" height="98" filterUnits="userSpaceOnUse" color-interpolation-filters="sRGB">
<feFlood flood-opacity="0" result="BackgroundImageFix"/>
<feColorMatrix in="SourceAlpha" type="matrix" values="0 0 0 0 0 0 0 0 0 0 0 0 0 0 0 0 0 0 127 0"/>
<feOffset dy="4"/>
<feGaussianBlur stdDeviation="2"/>
<feColorMatrix type="matrix" values="0 0 0 0 0 0 0 0 0 0 0 0 0 0 0 0 0 0 0.25 0"/>
<feBlend mode="normal" in2="BackgroundImageFix" result="effect1_dropShadow"/>
<feBlend mode="normal" in="SourceGraphic" in2="effect1_dropShadow" result="shape"/>
</filter>
<filter id="filter7_d" x="351.366" y="619.15" width="120.486" height="96.8502" filterUnits="userSpaceOnUse" color-interpolation-filters="sRGB">
<feFlood flood-opacity="0" result="BackgroundImageFix"/>
<feColorMatrix in="SourceAlpha" type="matrix" values="0 0 0 0 0 0 0 0 0 0 0 0 0 0 0 0 0 0 127 0"/>
<feOffset dy="4"/>
<feGaussianBlur stdDeviation="2"/>
<feColorMatrix type="matrix" values="0 0 0 0 0 0 0 0 0 0 0 0 0 0 0 0 0 0 0.25 0"/>
<feBlend mode="normal" in2="BackgroundImageFix" result="effect1_dropShadow"/>
<feBlend mode="normal" in="SourceGraphic" in2="effect1_dropShadow" result="shape"/>
</filter>
<filter id="filter8_d" x="199.208" y="276.33" width="153.195" height="131.505" filterUnits="userSpaceOnUse" color-interpolation-filters="sRGB">
<feFlood flood-opacity="0" result="BackgroundImageFix"/>
<feColorMatrix in="SourceAlpha" type="matrix" values="0 0 0 0 0 0 0 0 0 0 0 0 0 0 0 0 0 0 127 0"/>
<feOffset dy="4"/>
<feGaussianBlur stdDeviation="2"/>
<feColorMatrix type="matrix" values="0 0 0 0 0 0 0 0 0 0 0 0 0 0 0 0 0 0 0.25 0"/>
<feBlend mode="normal" in2="BackgroundImageFix" result="effect1_dropShadow"/>
<feBlend mode="normal" in="SourceGraphic" in2="effect1_dropShadow" result="shape"/>
</filter>
<filter id="filter9_d" x="622.05" y="304.796" width="37.4555" height="264.515" filterUnits="userSpaceOnUse" color-interpolation-filters="sRGB">
<feFlood flood-opacity="0" result="BackgroundImageFix"/>
<feColorMatrix in="SourceAlpha" type="matrix" values="0 0 0 0 0 0 0 0 0 0 0 0 0 0 0 0 0 0 127 0"/>
<feOffset dy="4"/>
<feGaussianBlur stdDeviation="2"/>
<feColorMatrix type="matrix" values="0 0 0 0 0 0 0 0 0 0 0 0 0 0 0 0 0 0 0.25 0"/>
<feBlend mode="normal" in2="BackgroundImageFix" result="effect1_dropShadow"/>
<feBlend mode="normal" in="SourceGraphic" in2="effect1_dropShadow" result="shape"/>
</filter>
<filter id="filter10_d" x="388.794" y="297.039" width="236.612" height="275.346" filterUnits="userSpaceOnUse" color-interpolation-filters="sRGB">
<feFlood flood-opacity="0" result="BackgroundImageFix"/>
<feColorMatrix in="SourceAlpha" type="matrix" values="0 0 0 0 0 0 0 0 0 0 0 0 0 0 0 0 0 0 127 0"/>
<feOffset dy="4"/>
<feGaussianBlur stdDeviation="2"/>
<feColorMatrix type="matrix" values="0 0 0 0 0 0 0 0 0 0 0 0 0 0 0 0 0 0 0.25 0"/>
<feBlend mode="normal" in2="BackgroundImageFix" result="effect1_dropShadow"/>
<feBlend mode="normal" in="SourceGraphic" in2="effect1_dropShadow" result="shape"/>
</filter>
<filter id="filter11_d" x="200.1" y="467.255" width="149.421" height="135.903" filterUnits="userSpaceOnUse" color-interpolation-filters="sRGB">
<feFlood flood-opacity="0" result="BackgroundImageFix"/>
<feColorMatrix in="SourceAlpha" type="matrix" values="0 0 0 0 0 0 0 0 0 0 0 0 0 0 0 0 0 0 127 0"/>
<feOffset dy="4"/>
<feGaussianBlur stdDeviation="2"/>
<feColorMatrix type="matrix" values="0 0 0 0 0 0 0 0 0 0 0 0 0 0 0 0 0 0 0.25 0"/>
<feBlend mode="normal" in2="BackgroundImageFix" result="effect1_dropShadow"/>
<feBlend mode="normal" in="SourceGraphic" in2="effect1_dropShadow" result="shape"/>
</filter>
<filter id="filter12_d" x="426.651" y="240.718" width="174.146" height="37.4557" filterUnits="userSpaceOnUse" color-interpolation-filters="sRGB">
<feFlood flood-opacity="0" result="BackgroundImageFix"/>
<feColorMatrix in="SourceAlpha" type="matrix" values="0 0 0 0 0 0 0 0 0 0 0 0 0 0 0 0 0 0 127 0"/>
<feOffset dy="4"/>
<feGaussianBlur stdDeviation="2"/>
<feColorMatrix type="matrix" values="0 0 0 0 0 0 0 0 0 0 0 0 0 0 0 0 0 0 0.25 0"/>
<feBlend mode="normal" in2="BackgroundImageFix" result="effect1_dropShadow"/>
<feBlend mode="normal" in="SourceGraphic" in2="effect1_dropShadow" result="shape"/>
</filter>
<filter id="filter13_d" x="677.252" y="475.718" width="149.234" height="128.204" filterUnits="userSpaceOnUse" color-interpolation-filters="sRGB">
<feFlood flood-opacity="0" result="BackgroundImageFix"/>
<feColorMatrix in="SourceAlpha" type="matrix" values="0 0 0 0 0 0 0 0 0 0 0 0 0 0 0 0 0 0 127 0"/>
<feOffset dy="4"/>
<feGaussianBlur stdDeviation="2"/>
<feColorMatrix type="matrix" values="0 0 0 0 0 0 0 0 0 0 0 0 0 0 0 0 0 0 0.25 0"/>
<feBlend mode="normal" in2="BackgroundImageFix" result="effect1_dropShadow"/>
<feBlend mode="normal" in="SourceGraphic" in2="effect1_dropShadow" result="shape"/>
</filter>
<filter id="filter14_d" x="17.9252" y="420.585" width="122.625" height="37.4557" filterUnits="userSpaceOnUse" color-interpolation-filters="sRGB">
<feFlood flood-opacity="0" result="BackgroundImageFix"/>
<feColorMatrix in="SourceAlpha" type="matrix" values="0 0 0 0 0 0 0 0 0 0 0 0 0 0 0 0 0 0 127 0"/>
<feOffset dy="4"/>
<feGaussianBlur stdDeviation="2"/>
<feColorMatrix type="matrix" values="0 0 0 0 0 0 0 0 0 0 0 0 0 0 0 0 0 0 0.25 0"/>
<feBlend mode="normal" in2="BackgroundImageFix" result="effect1_dropShadow"/>
<feBlend mode="normal" in="SourceGraphic" in2="effect1_dropShadow" result="shape"/>
</filter>
<filter id="filter15_d" x="874.257" y="423.559" width="122.966" height="37.4557" filterUnits="userSpaceOnUse" color-interpolation-filters="sRGB">
<feFlood flood-opacity="0" result="BackgroundImageFix"/>
<feColorMatrix in="SourceAlpha" type="matrix" values="0 0 0 0 0 0 0 0 0 0 0 0 0 0 0 0 0 0 127 0"/>
<feOffset dy="4"/>
<feGaussianBlur stdDeviation="2"/>
<feColorMatrix type="matrix" values="0 0 0 0 0 0 0 0 0 0 0 0 0 0 0 0 0 0 0.25 0"/>
<feBlend mode="normal" in2="BackgroundImageFix" result="effect1_dropShadow"/>
<feBlend mode="normal" in="SourceGraphic" in2="effect1_dropShadow" result="shape"/>
</filter>
<filter id="filter16_d" x="679.575" y="263.269" width="134.287" height="145.264" filterUnits="userSpaceOnUse" color-interpolation-filters="sRGB">
<feFlood flood-opacity="0" result="BackgroundImageFix"/>
<feColorMatrix in="SourceAlpha" type="matrix" values="0 0 0 0 0 0 0 0 0 0 0 0 0 0 0 0 0 0 127 0"/>
<feOffset dy="4"/>
<feGaussianBlur stdDeviation="2"/>
<feColorMatrix type="matrix" values="0 0 0 0 0 0 0 0 0 0 0 0 0 0 0 0 0 0 0.25 0"/>
<feBlend mode="normal" in2="BackgroundImageFix" result="effect1_dropShadow"/>
<feBlend mode="normal" in="SourceGraphic" in2="effect1_dropShadow" result="shape"/>
</filter>
<filter id="filter17_d" x="425.455" y="600.725" width="177.641" height="37.4557" filterUnits="userSpaceOnUse" color-interpolation-filters="sRGB">
<feFlood flood-opacity="0" result="BackgroundImageFix"/>
<feColorMatrix in="SourceAlpha" type="matrix" values="0 0 0 0 0 0 0 0 0 0 0 0 0 0 0 0 0 0 127 0"/>
<feOffset dy="4"/>
<feGaussianBlur stdDeviation="2"/>
<feColorMatrix type="matrix" values="0 0 0 0 0 0 0 0 0 0 0 0 0 0 0 0 0 0 0.25 0"/>
<feBlend mode="normal" in2="BackgroundImageFix" result="effect1_dropShadow"/>
<feBlend mode="normal" in="SourceGraphic" in2="effect1_dropShadow" result="shape"/>
</filter>
<filter id="filter18_d" x="351.367" y="164" width="120.485" height="90.8686" filterUnits="userSpaceOnUse" color-interpolation-filters="sRGB">
<feFlood flood-opacity="0" result="BackgroundImageFix"/>
<feColorMatrix in="SourceAlpha" type="matrix" values="0 0 0 0 0 0 0 0 0 0 0 0 0 0 0 0 0 0 127 0"/>
<feOffset dy="4"/>
<feGaussianBlur stdDeviation="2"/>
<feColorMatrix type="matrix" values="0 0 0 0 0 0 0 0 0 0 0 0 0 0 0 0 0 0 0.25 0"/>
<feBlend mode="normal" in2="BackgroundImageFix" result="effect1_dropShadow"/>
<feBlend mode="normal" in="SourceGraphic" in2="effect1_dropShadow" result="shape"/>
</filter>
<filter id="filter19_d" x="9.95367" y="406" width="67.7222" height="64" filterUnits="userSpaceOnUse" color-interpolation-filters="sRGB">
<feFlood flood-opacity="0" result="BackgroundImageFix"/>
<feColorMatrix in="SourceAlpha" type="matrix" values="0 0 0 0 0 0 0 0 0 0 0 0 0 0 0 0 0 0 127 0"/>
<feOffset dy="4"/>
<feGaussianBlur stdDeviation="2"/>
<feColorMatrix type="matrix" values="0 0 0 0 0 0 0 0 0 0 0 0 0 0 0 0 0 0 0.25 0"/>
<feBlend mode="normal" in2="BackgroundImageFix" result="effect1_dropShadow"/>
<feBlend mode="normal" in="SourceGraphic" in2="effect1_dropShadow" result="shape"/>
</filter>
<filter id="filter20_d" x="987.407" y="410" width="67.7222" height="64" filterUnits="userSpaceOnUse" color-interpolation-filters="sRGB">
<feFlood flood-opacity="0" result="BackgroundImageFix"/>
<feColorMatrix in="SourceAlpha" type="matrix" values="0 0 0 0 0 0 0 0 0 0 0 0 0 0 0 0 0 0 127 0"/>
<feOffset dy="4"/>
<feGaussianBlur stdDeviation="2"/>
<feColorMatrix type="matrix" values="0 0 0 0 0 0 0 0 0 0 0 0 0 0 0 0 0 0 0.25 0"/>
<feBlend mode="normal" in2="BackgroundImageFix" result="effect1_dropShadow"/>
<feBlend mode="normal" in="SourceGraphic" in2="effect1_dropShadow" result="shape"/>
</filter>
<filter id="filter21_d" x="254.909" y="548.12" width="26.64" height="35.88" filterUnits="userSpaceOnUse" color-interpolation-filters="sRGB">
<feFlood flood-opacity="0" result="BackgroundImageFix"/>
<feColorMatrix in="SourceAlpha" type="matrix" values="0 0 0 0 0 0 0 0 0 0 0 0 0 0 0 0 0 0 127 0"/>
<feOffset dy="4"/>
<feGaussianBlur stdDeviation="2"/>
<feColorMatrix type="matrix" values="0 0 0 0 0 0 0 0 0 0 0 0 0 0 0 0 0 0 0.25 0"/>
<feBlend mode="normal" in2="BackgroundImageFix" result="effect1_dropShadow"/>
<feBlend mode="normal" in="SourceGraphic" in2="effect1_dropShadow" result="shape"/>
</filter>
<filter id="filter22_d" x="653.057" y="399.12" width="26.64" height="35.88" filterUnits="userSpaceOnUse" color-interpolation-filters="sRGB">
<feFlood flood-opacity="0" result="BackgroundImageFix"/>
<feColorMatrix in="SourceAlpha" type="matrix" values="0 0 0 0 0 0 0 0 0 0 0 0 0 0 0 0 0 0 127 0"/>
<feOffset dy="4"/>
<feGaussianBlur stdDeviation="2"/>
<feColorMatrix type="matrix" values="0 0 0 0 0 0 0 0 0 0 0 0 0 0 0 0 0 0 0.25 0"/>
<feBlend mode="normal" in2="BackgroundImageFix" result="effect1_dropShadow"/>
<feBlend mode="normal" in="SourceGraphic" in2="effect1_dropShadow" result="shape"/>
</filter>
</defs>
</svg>
