<svg id="eu9dyh5vj241" xmlns="http://www.w3.org/2000/svg" xmlns:xlink="http://www.w3.org/1999/xlink" viewBox="0 0 428 413" shape-rendering="geometricPrecision" text-rendering="geometricPrecision"><style><![CDATA[#eu9dyh5vj2430 {animation: eu9dyh5vj2430_f_p 3000ms linear 1 normal forwards}@keyframes eu9dyh5vj2430_f_p { 0% {fill: rgb(0,0,0)} 6.666667% {fill: rgb(0,0,0)} 13.333333% {fill: rgb(31,159,36)} 100% {fill: rgb(31,159,36)} }#eu9dyh5vj2432 {animation: eu9dyh5vj2432_f_p 3000ms linear 1 normal forwards}@keyframes eu9dyh5vj2432_f_p { 0% {fill: rgb(0,0,0)} 6.666667% {fill: rgb(8,158,87)} 100% {fill: rgb(8,158,87)} }]]></style><g id="eu9dyh5vj242"><rect id="eu9dyh5vj243" width="416" height="401" rx="0" ry="0" transform="matrix(1 0 0 1 6 2)" fill="rgb(196,196,196)" stroke="rgb(68,59,59)" stroke-width="4"/><line id="eu9dyh5vj244" x1="274.500000" y1="0" x2="274.500000" y2="405" fill="none" stroke="rgb(68,59,59)" stroke-width="1"/><line id="eu9dyh5vj245" x1="4" y1="404.500000" x2="424" y2="404.500000" fill="none" stroke="rgb(0,0,0)" stroke-width="1"/><line id="eu9dyh5vj246" x1="4" y1="374.500000" x2="424" y2="374.500000" fill="none" stroke="rgb(0,0,0)" stroke-width="1"/><line id="eu9dyh5vj247" x1="4" y1="314.500000" x2="424" y2="314.500000" fill="none" stroke="rgb(0,0,0)" stroke-width="1"/><line id="eu9dyh5vj248" x1="4" y1="344.500000" x2="424" y2="344.500000" fill="none" stroke="rgb(0,0,0)" stroke-width="1"/><line id="eu9dyh5vj249" x1="4" y1="284.500000" x2="424" y2="284.500000" fill="none" stroke="rgb(0,0,0)" stroke-width="1"/><line id="eu9dyh5vj2410" x1="4" y1="256.500000" x2="424" y2="256.500000" fill="none" stroke="rgb(0,0,0)" stroke-width="1"/><line id="eu9dyh5vj2411" x1="4" y1="224.500000" x2="424" y2="224.500000" fill="none" stroke="rgb(0,0,0)" stroke-width="1"/><line id="eu9dyh5vj2412" x1="4" y1="194.500000" x2="424" y2="194.500000" fill="none" stroke="rgb(0,0,0)" stroke-width="1"/><line id="eu9dyh5vj2413" x1="4" y1="134.500000" x2="424" y2="134.500000" fill="none" stroke="rgb(0,0,0)" stroke-width="1"/><line id="eu9dyh5vj2414" x1="4" y1="104.500000" x2="424" y2="104.500000" fill="none" stroke="rgb(0,0,0)" stroke-width="1"/><line id="eu9dyh5vj2415" x1="4" y1="164.500000" x2="424" y2="164.500000" fill="none" stroke="rgb(0,0,0)" stroke-width="1"/><line id="eu9dyh5vj2416" x1="4" y1="44.500000" x2="424" y2="44.500000" fill="none" stroke="rgb(68,59,59)" stroke-width="1"/><line id="eu9dyh5vj2417" x1="4" y1="74.500000" x2="424" y2="74.500000" fill="none" stroke="rgb(0,0,0)" stroke-width="1"/><path id="eu9dyh5vj2418" d="M53.707100,60.707100C54.097600,60.316600,54.097600,59.683400,53.707100,59.292900L47.343100,52.928900C46.952600,52.538400,46.319500,52.538400,45.928900,52.928900C45.538400,53.319500,45.538400,53.952600,45.928900,54.343100L51.585800,60L45.928900,65.656900C45.538400,66.047400,45.538400,66.680500,45.928900,67.071100C46.319500,67.461600,46.952600,67.461600,47.343100,67.071100L53.707100,60.707100ZM23,61L53,61L53,59L23,59L23,61Z" fill="rgb(0,0,0)" stroke="none" stroke-width="1"/><path id="eu9dyh5vj2419" d="M218.868000,14.340000L209.508000,14.340000L217.488000,22.410000L217.488000,24.540000L209.478000,32.760000L218.868000,32.760000L218.868000,34.890000L207.198000,34.890000L207.198000,31.710000L214.998000,23.550000L207.198000,15.360000L207.198000,12.210000L218.868000,12.210000L218.868000,14.340000Z" fill="rgb(0,0,0)" stroke="none" stroke-width="1"/><path id="eu9dyh5vj2420" d="M218.868000,14.340000L218.868000,15.340000L219.868000,15.340000L219.868000,14.340000L218.868000,14.340000ZM209.508000,14.340000L209.508000,13.340000L207.113000,13.340000L208.797000,15.043100L209.508000,14.340000ZM217.488000,22.410000L218.488000,22.410000L218.488000,21.999100L218.199000,21.706900L217.488000,22.410000ZM217.488000,24.540000L218.204000,25.237900L218.488000,24.946700L218.488000,24.540000L217.488000,24.540000ZM209.478000,32.760000L208.762000,32.062100L207.107000,33.760000L209.478000,33.760000L209.478000,32.760000ZM218.868000,32.760000L219.868000,32.760000L219.868000,31.760000L218.868000,31.760000L218.868000,32.760000ZM218.868000,34.890000L218.868000,35.890000L219.868000,35.890000L219.868000,34.890000L218.868000,34.890000ZM207.198000,34.890000L206.198000,34.890000L206.198000,35.890000L207.198000,35.890000L207.198000,34.890000ZM207.198000,31.710000L206.475000,31.019000L206.198000,31.308900L206.198000,31.710000L207.198000,31.710000ZM214.998000,23.550000L215.721000,24.241000L216.380000,23.551300L215.722000,22.860300L214.998000,23.550000ZM207.198000,15.360000L206.198000,15.360000L206.198000,15.760000L206.474000,16.049700L207.198000,15.360000ZM207.198000,12.210000L207.198000,11.210000L206.198000,11.210000L206.198000,12.210000L207.198000,12.210000ZM218.868000,12.210000L219.868000,12.210000L219.868000,11.210000L218.868000,11.210000L218.868000,12.210000ZM218.868000,13.340000L209.508000,13.340000L209.508000,15.340000L218.868000,15.340000L218.868000,13.340000ZM208.797000,15.043100L216.777000,23.113100L218.199000,21.706900L210.219000,13.636900L208.797000,15.043100ZM216.488000,22.410000L216.488000,24.540000L218.488000,24.540000L218.488000,22.410000L216.488000,22.410000ZM216.772000,23.842100L208.762000,32.062100L210.194000,33.457900L218.204000,25.237900L216.772000,23.842100ZM209.478000,33.760000L218.868000,33.760000L218.868000,31.760000L209.478000,31.760000L209.478000,33.760000ZM217.868000,32.760000L217.868000,34.890000L219.868000,34.890000L219.868000,32.760000L217.868000,32.760000ZM218.868000,33.890000L207.198000,33.890000L207.198000,35.890000L218.868000,35.890000L218.868000,33.890000ZM208.198000,34.890000L208.198000,31.710000L206.198000,31.710000L206.198000,34.890000L208.198000,34.890000ZM207.921000,32.401000L215.721000,24.241000L214.275000,22.859000L206.475000,31.019000L207.921000,32.401000ZM215.722000,22.860300L207.922000,14.670300L206.474000,16.049700L214.274000,24.239700L215.722000,22.860300ZM208.198000,15.360000L208.198000,12.210000L206.198000,12.210000L206.198000,15.360000L208.198000,15.360000ZM207.198000,13.210000L218.868000,13.210000L218.868000,11.210000L207.198000,11.210000L207.198000,13.210000ZM217.868000,12.210000L217.868000,14.340000L219.868000,14.340000L219.868000,12.210000L217.868000,12.210000Z" fill="rgb(0,0,0)" stroke="none" stroke-width="1"/><path id="eu9dyh5vj2421" d="M91.749700,380.656000L85.633700,395L83.609700,395L89.813700,380.854000L81.321700,380.854000L81.321700,379.138000L91.749700,379.138000L91.749700,380.656000ZM207.741000,381.294000L207.741000,386.420000L213.329000,386.420000L213.329000,388.070000L207.741000,388.070000L207.741000,393.350000L213.989000,393.350000L213.989000,395L205.739000,395L205.739000,379.644000L213.989000,379.644000L213.989000,381.294000L207.741000,381.294000ZM348.627000,386.728000C347.806000,386.405000,347.175000,385.936000,346.735000,385.320000C346.295000,384.704000,346.075000,383.956000,346.075000,383.076000C346.075000,382.284000,346.273000,381.573000,346.669000,380.942000C347.065000,380.297000,347.652000,379.791000,348.429000,379.424000C349.221000,379.043000,350.175000,378.852000,351.289000,378.852000C352.404000,378.852000,353.350000,379.043000,354.127000,379.424000C354.919000,379.791000,355.513000,380.297000,355.909000,380.942000C356.320000,381.573000,356.525000,382.284000,356.525000,383.076000C356.525000,383.927000,356.298000,384.675000,355.843000,385.320000C355.389000,385.951000,354.765000,386.420000,353.973000,386.728000C354.883000,387.007000,355.601000,387.498000,356.129000,388.202000C356.672000,388.891000,356.943000,389.727000,356.943000,390.710000C356.943000,391.663000,356.709000,392.499000,356.239000,393.218000C355.770000,393.922000,355.103000,394.472000,354.237000,394.868000C353.387000,395.249000,352.404000,395.440000,351.289000,395.440000C350.175000,395.440000,349.192000,395.249000,348.341000,394.868000C347.505000,394.472000,346.853000,393.922000,346.383000,393.218000C345.914000,392.499000,345.679000,391.663000,345.679000,390.710000C345.679000,389.727000,345.943000,388.884000,346.471000,388.180000C346.999000,387.476000,347.718000,386.992000,348.627000,386.728000ZM354.589000,383.318000C354.589000,382.423000,354.296000,381.734000,353.709000,381.250000C353.123000,380.766000,352.316000,380.524000,351.289000,380.524000C350.277000,380.524000,349.478000,380.766000,348.891000,381.250000C348.305000,381.734000,348.011000,382.431000,348.011000,383.340000C348.011000,384.161000,348.312000,384.821000,348.913000,385.320000C349.529000,385.819000,350.321000,386.068000,351.289000,386.068000C352.272000,386.068000,353.064000,385.819000,353.665000,385.320000C354.281000,384.807000,354.589000,384.139000,354.589000,383.318000ZM351.289000,387.608000C350.204000,387.608000,349.317000,387.865000,348.627000,388.378000C347.938000,388.877000,347.593000,389.632000,347.593000,390.644000C347.593000,391.583000,347.923000,392.338000,348.583000,392.910000C349.258000,393.482000,350.160000,393.768000,351.289000,393.768000C352.419000,393.768000,353.313000,393.482000,353.973000,392.910000C354.633000,392.338000,354.963000,391.583000,354.963000,390.644000C354.963000,389.661000,354.626000,388.913000,353.951000,388.400000C353.277000,387.872000,352.389000,387.608000,351.289000,387.608000ZM366.752000,380.260000L367.544000,381.690000L364.486000,382.966000L367.566000,384.220000L366.730000,385.694000L364.068000,383.758000L364.420000,387.080000L362.770000,387.080000L363.100000,383.758000L360.438000,385.716000L359.580000,384.220000L362.638000,382.944000L359.580000,381.712000L360.394000,380.238000L363.122000,382.196000L362.770000,378.852000L364.442000,378.852000L364.068000,382.196000L366.752000,380.260000Z" fill="rgb(0,0,0)" stroke="none" stroke-width="1"/><path id="eu9dyh5vj2422" d="M90.825700,354.878000C90.503000,353.250000,89.498400,352.436000,87.811700,352.436000C86.506400,352.436000,85.531000,352.942000,84.885700,353.954000C84.240400,354.951000,83.925000,356.601000,83.939700,358.904000C84.277000,358.141000,84.834400,357.547000,85.611700,357.122000C86.403700,356.682000,87.283700,356.462000,88.251700,356.462000C89.762400,356.462000,90.965000,356.931000,91.859700,357.870000C92.769000,358.809000,93.223700,360.107000,93.223700,361.764000C93.223700,362.761000,93.025700,363.656000,92.629700,364.448000C92.248400,365.240000,91.661700,365.871000,90.869700,366.340000C90.092400,366.809000,89.146400,367.044000,88.031700,367.044000C86.521000,367.044000,85.340400,366.707000,84.489700,366.032000C83.639000,365.357000,83.045000,364.426000,82.707700,363.238000C82.370400,362.050000,82.201700,360.583000,82.201700,358.838000C82.201700,353.455000,84.079000,350.764000,87.833700,350.764000C89.271000,350.764000,90.400400,351.153000,91.221700,351.930000C92.043000,352.707000,92.527000,353.690000,92.673700,354.878000L90.825700,354.878000ZM87.833700,358.156000C87.203000,358.156000,86.609000,358.288000,86.051700,358.552000C85.494400,358.801000,85.039700,359.190000,84.687700,359.718000C84.350400,360.231000,84.181700,360.862000,84.181700,361.610000C84.181700,362.725000,84.504400,363.634000,85.149700,364.338000C85.795000,365.027000,86.719000,365.372000,87.921700,365.372000C88.948400,365.372000,89.762400,365.057000,90.363700,364.426000C90.979700,363.781000,91.287700,362.915000,91.287700,361.830000C91.287700,360.686000,90.994400,359.791000,90.407700,359.146000C89.821000,358.486000,88.963000,358.156000,87.833700,358.156000ZM212.556000,367.154000C211.544000,367.154000,210.635000,366.978000,209.828000,366.626000C209.036000,366.259000,208.413000,365.761000,207.958000,365.130000C207.503000,364.485000,207.269000,363.744000,207.254000,362.908000L209.388000,362.908000C209.461000,363.627000,209.755000,364.235000,210.268000,364.734000C210.796000,365.218000,211.559000,365.460000,212.556000,365.460000C213.509000,365.460000,214.257000,365.225000,214.800000,364.756000C215.357000,364.272000,215.636000,363.656000,215.636000,362.908000C215.636000,362.321000,215.475000,361.845000,215.152000,361.478000C214.829000,361.111000,214.426000,360.833000,213.942000,360.642000C213.458000,360.451000,212.805000,360.246000,211.984000,360.026000C210.972000,359.762000,210.158000,359.498000,209.542000,359.234000C208.941000,358.970000,208.420000,358.559000,207.980000,358.002000C207.555000,357.430000,207.342000,356.667000,207.342000,355.714000C207.342000,354.878000,207.555000,354.137000,207.980000,353.492000C208.405000,352.847000,208.999000,352.348000,209.762000,351.996000C210.539000,351.644000,211.427000,351.468000,212.424000,351.468000C213.861000,351.468000,215.035000,351.827000,215.944000,352.546000C216.868000,353.265000,217.389000,354.218000,217.506000,355.406000L215.306000,355.406000C215.233000,354.819000,214.925000,354.306000,214.382000,353.866000C213.839000,353.411000,213.121000,353.184000,212.226000,353.184000C211.390000,353.184000,210.708000,353.404000,210.180000,353.844000C209.652000,354.269000,209.388000,354.871000,209.388000,355.648000C209.388000,356.205000,209.542000,356.660000,209.850000,357.012000C210.173000,357.364000,210.561000,357.635000,211.016000,357.826000C211.485000,358.002000,212.138000,358.207000,212.974000,358.442000C213.986000,358.721000,214.800000,358.999000,215.416000,359.278000C216.032000,359.542000,216.560000,359.960000,217,360.532000C217.440000,361.089000,217.660000,361.852000,217.660000,362.820000C217.660000,363.568000,217.462000,364.272000,217.066000,364.932000C216.670000,365.592000,216.083000,366.127000,215.306000,366.538000C214.529000,366.949000,213.612000,367.154000,212.556000,367.154000ZM359.101000,352.656000L352.985000,367L350.961000,367L357.165000,352.854000L348.673000,352.854000L348.673000,351.138000L359.101000,351.138000L359.101000,352.656000Z" fill="rgb(0,0,0)" stroke="none" stroke-width="1"/><path id="eu9dyh5vj2423" d="M92.101700,294.832000L84.379700,294.832000L84.379700,299.848000C84.717000,299.379000,85.215700,298.997000,85.875700,298.704000C86.535700,298.396000,87.247000,298.242000,88.009700,298.242000C89.227000,298.242000,90.217000,298.499000,90.979700,299.012000C91.742400,299.511000,92.285000,300.163000,92.607700,300.970000C92.945000,301.762000,93.113700,302.605000,93.113700,303.500000C93.113700,304.556000,92.915700,305.502000,92.519700,306.338000C92.123700,307.174000,91.515000,307.834000,90.693700,308.318000C89.887000,308.802000,88.882400,309.044000,87.679700,309.044000C86.139700,309.044000,84.893000,308.648000,83.939700,307.856000C82.986400,307.064000,82.407000,306.008000,82.201700,304.688000L84.159700,304.688000C84.350400,305.524000,84.753700,306.177000,85.369700,306.646000C85.985700,307.115000,86.763000,307.350000,87.701700,307.350000C88.860400,307.350000,89.733000,307.005000,90.319700,306.316000C90.906400,305.612000,91.199700,304.688000,91.199700,303.544000C91.199700,302.400000,90.906400,301.520000,90.319700,300.904000C89.733000,300.273000,88.867700,299.958000,87.723700,299.958000C86.946400,299.958000,86.264400,300.149000,85.677700,300.530000C85.105700,300.897000,84.687700,301.403000,84.423700,302.048000L82.531700,302.048000L82.531700,293.072000L92.101700,293.072000L92.101700,294.832000ZM220.216000,293.666000L214.430000,309L212.120000,309L206.334000,293.666000L208.468000,293.666000L213.286000,306.888000L218.104000,293.666000L220.216000,293.666000ZM360.906000,294.656000L354.790000,309L352.766000,309L358.970000,294.854000L350.478000,294.854000L350.478000,293.138000L360.906000,293.138000L360.906000,294.656000Z" fill="rgb(0,0,0)" stroke="none" stroke-width="1"/><path id="eu9dyh5vj2424" d="M92.101700,262.832000L84.379700,262.832000L84.379700,267.848000C84.717000,267.379000,85.215700,266.997000,85.875700,266.704000C86.535700,266.396000,87.247000,266.242000,88.009700,266.242000C89.227000,266.242000,90.217000,266.499000,90.979700,267.012000C91.742400,267.511000,92.285000,268.163000,92.607700,268.970000C92.945000,269.762000,93.113700,270.605000,93.113700,271.500000C93.113700,272.556000,92.915700,273.502000,92.519700,274.338000C92.123700,275.174000,91.515000,275.834000,90.693700,276.318000C89.887000,276.802000,88.882400,277.044000,87.679700,277.044000C86.139700,277.044000,84.893000,276.648000,83.939700,275.856000C82.986400,275.064000,82.407000,274.008000,82.201700,272.688000L84.159700,272.688000C84.350400,273.524000,84.753700,274.177000,85.369700,274.646000C85.985700,275.115000,86.763000,275.350000,87.701700,275.350000C88.860400,275.350000,89.733000,275.005000,90.319700,274.316000C90.906400,273.612000,91.199700,272.688000,91.199700,271.544000C91.199700,270.400000,90.906400,269.520000,90.319700,268.904000C89.733000,268.273000,88.867700,267.958000,87.723700,267.958000C86.946400,267.958000,86.264400,268.149000,85.677700,268.530000C85.105700,268.897000,84.687700,269.403000,84.423700,270.048000L82.531700,270.048000L82.531700,261.072000L92.101700,261.072000L92.101700,262.832000ZM217.796000,266.154000C217.796000,267.430000,217.356000,268.493000,216.476000,269.344000C215.610000,270.180000,214.283000,270.598000,212.494000,270.598000L209.546000,270.598000L209.546000,277L207.544000,277L207.544000,261.666000L212.494000,261.666000C214.224000,261.666000,215.537000,262.084000,216.432000,262.920000C217.341000,263.756000,217.796000,264.834000,217.796000,266.154000ZM212.494000,268.948000C213.608000,268.948000,214.430000,268.706000,214.958000,268.222000C215.486000,267.738000,215.750000,267.049000,215.750000,266.154000C215.750000,264.262000,214.664000,263.316000,212.494000,263.316000L209.546000,263.316000L209.546000,268.948000L212.494000,268.948000ZM357.855000,264.878000C357.532000,263.250000,356.528000,262.436000,354.841000,262.436000C353.536000,262.436000,352.560000,262.942000,351.915000,263.954000C351.270000,264.951000,350.954000,266.601000,350.969000,268.904000C351.306000,268.141000,351.864000,267.547000,352.641000,267.122000C353.433000,266.682000,354.313000,266.462000,355.281000,266.462000C356.792000,266.462000,357.994000,266.931000,358.889000,267.870000C359.798000,268.809000,360.253000,270.107000,360.253000,271.764000C360.253000,272.761000,360.055000,273.656000,359.659000,274.448000C359.278000,275.240000,358.691000,275.871000,357.899000,276.340000C357.122000,276.809000,356.176000,277.044000,355.061000,277.044000C353.550000,277.044000,352.370000,276.707000,351.519000,276.032000C350.668000,275.357000,350.074000,274.426000,349.737000,273.238000C349.400000,272.050000,349.231000,270.583000,349.231000,268.838000C349.231000,263.455000,351.108000,260.764000,354.863000,260.764000C356.300000,260.764000,357.430000,261.153000,358.251000,261.930000C359.072000,262.707000,359.556000,263.690000,359.703000,264.878000L357.855000,264.878000ZM354.863000,268.156000C354.232000,268.156000,353.638000,268.288000,353.081000,268.552000C352.524000,268.801000,352.069000,269.190000,351.717000,269.718000C351.380000,270.231000,351.211000,270.862000,351.211000,271.610000C351.211000,272.725000,351.534000,273.634000,352.179000,274.338000C352.824000,275.027000,353.748000,275.372000,354.951000,275.372000C355.978000,275.372000,356.792000,275.057000,357.393000,274.426000C358.009000,273.781000,358.317000,272.915000,358.317000,271.830000C358.317000,270.686000,358.024000,269.791000,357.437000,269.146000C356.850000,268.486000,355.992000,268.156000,354.863000,268.156000Z" fill="rgb(0,0,0)" stroke="none" stroke-width="1"/><path id="eu9dyh5vj2425" d="M90.825700,324.878000C90.503000,323.250000,89.498400,322.436000,87.811700,322.436000C86.506400,322.436000,85.531000,322.942000,84.885700,323.954000C84.240400,324.951000,83.925000,326.601000,83.939700,328.904000C84.277000,328.141000,84.834400,327.547000,85.611700,327.122000C86.403700,326.682000,87.283700,326.462000,88.251700,326.462000C89.762400,326.462000,90.965000,326.931000,91.859700,327.870000C92.769000,328.809000,93.223700,330.107000,93.223700,331.764000C93.223700,332.761000,93.025700,333.656000,92.629700,334.448000C92.248400,335.240000,91.661700,335.871000,90.869700,336.340000C90.092400,336.809000,89.146400,337.044000,88.031700,337.044000C86.521000,337.044000,85.340400,336.707000,84.489700,336.032000C83.639000,335.357000,83.045000,334.426000,82.707700,333.238000C82.370400,332.050000,82.201700,330.583000,82.201700,328.838000C82.201700,323.455000,84.079000,320.764000,87.833700,320.764000C89.271000,320.764000,90.400400,321.153000,91.221700,321.930000C92.043000,322.707000,92.527000,323.690000,92.673700,324.878000L90.825700,324.878000ZM87.833700,328.156000C87.203000,328.156000,86.609000,328.288000,86.051700,328.552000C85.494400,328.801000,85.039700,329.190000,84.687700,329.718000C84.350400,330.231000,84.181700,330.862000,84.181700,331.610000C84.181700,332.725000,84.504400,333.634000,85.149700,334.338000C85.795000,335.027000,86.719000,335.372000,87.921700,335.372000C88.948400,335.372000,89.762400,335.057000,90.363700,334.426000C90.979700,333.781000,91.287700,332.915000,91.287700,331.830000C91.287700,330.686000,90.994400,329.791000,90.407700,329.146000C89.821000,328.486000,88.963000,328.156000,87.833700,328.156000ZM213.964000,329.344000L218.672000,337L216.406000,337L212.732000,331.016000L209.234000,337L207.012000,337L211.698000,329.344000L206.990000,321.666000L209.234000,321.666000L212.930000,327.672000L216.450000,321.666000L218.694000,321.666000L213.964000,329.344000ZM349.579000,333.458000L349.579000,331.940000L357.301000,321.248000L359.699000,321.248000L359.699000,331.720000L361.899000,331.720000L361.899000,333.458000L359.699000,333.458000L359.699000,337L357.719000,337L357.719000,333.458000L349.579000,333.458000ZM357.807000,323.338000L351.889000,331.720000L357.807000,331.720000L357.807000,323.338000Z" fill="rgb(0,0,0)" stroke="none" stroke-width="1"/><path id="eu9dyh5vj2426" d="M81.475700,243.458000L81.475700,241.940000L89.197700,231.248000L91.595700,231.248000L91.595700,241.720000L93.795700,241.720000L93.795700,243.458000L91.595700,243.458000L91.595700,247L89.615700,247L89.615700,243.458000L81.475700,243.458000ZM89.703700,233.338000L83.785700,241.720000L89.703700,241.720000L89.703700,233.338000ZM220.237000,231.666000L214.451000,247L212.141000,247L206.355000,231.666000L208.489000,231.666000L213.307000,244.888000L218.125000,231.666000L220.237000,231.666000ZM361.279000,232.832000L353.557000,232.832000L353.557000,237.848000C353.895000,237.379000,354.393000,236.997000,355.053000,236.704000C355.713000,236.396000,356.425000,236.242000,357.187000,236.242000C358.405000,236.242000,359.395000,236.499000,360.157000,237.012000C360.920000,237.511000,361.463000,238.163000,361.785000,238.970000C362.123000,239.762000,362.291000,240.605000,362.291000,241.500000C362.291000,242.556000,362.093000,243.502000,361.697000,244.338000C361.301000,245.174000,360.693000,245.834000,359.871000,246.318000C359.065000,246.802000,358.060000,247.044000,356.857000,247.044000C355.317000,247.044000,354.071000,246.648000,353.117000,245.856000C352.164000,245.064000,351.585000,244.008000,351.379000,242.688000L353.337000,242.688000C353.528000,243.524000,353.931000,244.177000,354.547000,244.646000C355.163000,245.115000,355.941000,245.350000,356.879000,245.350000C358.038000,245.350000,358.911000,245.005000,359.497000,244.316000C360.084000,243.612000,360.377000,242.688000,360.377000,241.544000C360.377000,240.400000,360.084000,239.520000,359.497000,238.904000C358.911000,238.273000,358.045000,237.958000,356.901000,237.958000C356.124000,237.958000,355.442000,238.149000,354.855000,238.530000C354.283000,238.897000,353.865000,239.403000,353.601000,240.048000L351.709000,240.048000L351.709000,231.072000L361.279000,231.072000L361.279000,232.832000Z" fill="rgb(0,0,0)" stroke="none" stroke-width="1"/><path id="eu9dyh5vj2427" d="M81.475700,213.458000L81.475700,211.940000L89.197700,201.248000L91.595700,201.248000L91.595700,211.720000L93.795700,211.720000L93.795700,213.458000L91.595700,213.458000L91.595700,217L89.615700,217L89.615700,213.458000L81.475700,213.458000ZM89.703700,203.338000L83.785700,211.720000L89.703700,211.720000L89.703700,203.338000ZM217.003000,201.666000L217.003000,203.294000L212.823000,203.294000L212.823000,217L210.821000,217L210.821000,203.294000L206.619000,203.294000L206.619000,201.666000L217.003000,201.666000ZM347.689000,213.458000L347.689000,211.940000L355.411000,201.248000L357.809000,201.248000L357.809000,211.720000L360.009000,211.720000L360.009000,213.458000L357.809000,213.458000L357.809000,217L355.829000,217L355.829000,213.458000L347.689000,213.458000ZM355.917000,203.338000L349.999000,211.720000L355.917000,211.720000L355.917000,203.338000Z" fill="rgb(0,0,0)" stroke="none" stroke-width="1"/><path id="eu9dyh5vj2428" d="M81.915700,175.098000C82.018400,173.749000,82.539000,172.693000,83.477700,171.930000C84.416400,171.167000,85.633700,170.786000,87.129700,170.786000C88.127000,170.786000,88.985000,170.969000,89.703700,171.336000C90.437000,171.688000,90.987000,172.172000,91.353700,172.788000C91.735000,173.404000,91.925700,174.101000,91.925700,174.878000C91.925700,175.787000,91.661700,176.572000,91.133700,177.232000C90.620400,177.892000,89.945700,178.317000,89.109700,178.508000L89.109700,178.618000C90.063000,178.853000,90.818400,179.315000,91.375700,180.004000C91.933000,180.693000,92.211700,181.595000,92.211700,182.710000C92.211700,183.546000,92.021000,184.301000,91.639700,184.976000C91.258400,185.636000,90.686400,186.157000,89.923700,186.538000C89.161000,186.919000,88.244400,187.110000,87.173700,187.110000C85.619000,187.110000,84.343000,186.707000,83.345700,185.900000C82.348400,185.079000,81.791000,183.920000,81.673700,182.424000L83.609700,182.424000C83.712400,183.304000,84.071700,184.023000,84.687700,184.580000C85.303700,185.137000,86.125000,185.416000,87.151700,185.416000C88.178400,185.416000,88.955700,185.152000,89.483700,184.624000C90.026400,184.081000,90.297700,183.385000,90.297700,182.534000C90.297700,181.434000,89.931000,180.642000,89.197700,180.158000C88.464400,179.674000,87.357000,179.432000,85.875700,179.432000L85.369700,179.432000L85.369700,177.760000L85.897700,177.760000C87.247000,177.745000,88.266400,177.525000,88.955700,177.100000C89.645000,176.660000,89.989700,175.985000,89.989700,175.076000C89.989700,174.299000,89.733000,173.675000,89.219700,173.206000C88.721000,172.737000,88.002400,172.502000,87.063700,172.502000C86.154400,172.502000,85.421000,172.737000,84.863700,173.206000C84.306400,173.675000,83.976400,174.306000,83.873700,175.098000L81.915700,175.098000ZM212.954000,179.344000L217.662000,187L215.396000,187L211.722000,181.016000L208.224000,187L206.002000,187L210.688000,179.344000L205.980000,171.666000L208.224000,171.666000L211.920000,177.672000L215.440000,171.666000L217.684000,171.666000L212.954000,179.344000ZM357.919000,174.878000C357.597000,173.250000,356.592000,172.436000,354.905000,172.436000C353.600000,172.436000,352.625000,172.942000,351.979000,173.954000C351.334000,174.951000,351.019000,176.601000,351.033000,178.904000C351.371000,178.141000,351.928000,177.547000,352.705000,177.122000C353.497000,176.682000,354.377000,176.462000,355.345000,176.462000C356.856000,176.462000,358.059000,176.931000,358.953000,177.870000C359.863000,178.809000,360.317000,180.107000,360.317000,181.764000C360.317000,182.761000,360.119000,183.656000,359.723000,184.448000C359.342000,185.240000,358.755000,185.871000,357.963000,186.340000C357.186000,186.809000,356.240000,187.044000,355.125000,187.044000C353.615000,187.044000,352.434000,186.707000,351.583000,186.032000C350.733000,185.357000,350.139000,184.426000,349.801000,183.238000C349.464000,182.050000,349.295000,180.583000,349.295000,178.838000C349.295000,173.455000,351.173000,170.764000,354.927000,170.764000C356.365000,170.764000,357.494000,171.153000,358.315000,171.930000C359.137000,172.707000,359.621000,173.690000,359.767000,174.878000L357.919000,174.878000ZM354.927000,178.156000C354.297000,178.156000,353.703000,178.288000,353.145000,178.552000C352.588000,178.801000,352.133000,179.190000,351.781000,179.718000C351.444000,180.231000,351.275000,180.862000,351.275000,181.610000C351.275000,182.725000,351.598000,183.634000,352.243000,184.338000C352.889000,185.027000,353.813000,185.372000,355.015000,185.372000C356.042000,185.372000,356.856000,185.057000,357.457000,184.426000C358.073000,183.781000,358.381000,182.915000,358.381000,181.830000C358.381000,180.686000,358.088000,179.791000,357.501000,179.146000C356.915000,178.486000,356.057000,178.156000,354.927000,178.156000Z" fill="rgb(0,0,0)" stroke="none" stroke-width="1"/><path id="eu9dyh5vj2429" d="M81.915700,145.098000C82.018400,143.749000,82.539000,142.693000,83.477700,141.930000C84.416400,141.167000,85.633700,140.786000,87.129700,140.786000C88.127000,140.786000,88.985000,140.969000,89.703700,141.336000C90.437000,141.688000,90.987000,142.172000,91.353700,142.788000C91.735000,143.404000,91.925700,144.101000,91.925700,144.878000C91.925700,145.787000,91.661700,146.572000,91.133700,147.232000C90.620400,147.892000,89.945700,148.317000,89.109700,148.508000L89.109700,148.618000C90.063000,148.853000,90.818400,149.315000,91.375700,150.004000C91.933000,150.693000,92.211700,151.595000,92.211700,152.710000C92.211700,153.546000,92.021000,154.301000,91.639700,154.976000C91.258400,155.636000,90.686400,156.157000,89.923700,156.538000C89.161000,156.919000,88.244400,157.110000,87.173700,157.110000C85.619000,157.110000,84.343000,156.707000,83.345700,155.900000C82.348400,155.079000,81.791000,153.920000,81.673700,152.424000L83.609700,152.424000C83.712400,153.304000,84.071700,154.023000,84.687700,154.580000C85.303700,155.137000,86.125000,155.416000,87.151700,155.416000C88.178400,155.416000,88.955700,155.152000,89.483700,154.624000C90.026400,154.081000,90.297700,153.385000,90.297700,152.534000C90.297700,151.434000,89.931000,150.642000,89.197700,150.158000C88.464400,149.674000,87.357000,149.432000,85.875700,149.432000L85.369700,149.432000L85.369700,147.760000L85.897700,147.760000C87.247000,147.745000,88.266400,147.525000,88.955700,147.100000C89.645000,146.660000,89.989700,145.985000,89.989700,145.076000C89.989700,144.299000,89.733000,143.675000,89.219700,143.206000C88.721000,142.737000,88.002400,142.502000,87.063700,142.502000C86.154400,142.502000,85.421000,142.737000,84.863700,143.206000C84.306400,143.675000,83.976400,144.306000,83.873700,145.098000L81.915700,145.098000ZM211.546000,157.154000C210.534000,157.154000,209.625000,156.978000,208.818000,156.626000C208.026000,156.259000,207.403000,155.761000,206.948000,155.130000C206.494000,154.485000,206.259000,153.744000,206.244000,152.908000L208.378000,152.908000C208.452000,153.627000,208.745000,154.235000,209.258000,154.734000C209.786000,155.218000,210.549000,155.460000,211.546000,155.460000C212.500000,155.460000,213.248000,155.225000,213.790000,154.756000C214.348000,154.272000,214.626000,153.656000,214.626000,152.908000C214.626000,152.321000,214.465000,151.845000,214.142000,151.478000C213.820000,151.111000,213.416000,150.833000,212.932000,150.642000C212.448000,150.451000,211.796000,150.246000,210.974000,150.026000C209.962000,149.762000,209.148000,149.498000,208.532000,149.234000C207.931000,148.970000,207.410000,148.559000,206.970000,148.002000C206.545000,147.430000,206.332000,146.667000,206.332000,145.714000C206.332000,144.878000,206.545000,144.137000,206.970000,143.492000C207.396000,142.847000,207.990000,142.348000,208.752000,141.996000C209.530000,141.644000,210.417000,141.468000,211.414000,141.468000C212.852000,141.468000,214.025000,141.827000,214.934000,142.546000C215.858000,143.265000,216.379000,144.218000,216.496000,145.406000L214.296000,145.406000C214.223000,144.819000,213.915000,144.306000,213.372000,143.866000C212.830000,143.411000,212.111000,143.184000,211.216000,143.184000C210.380000,143.184000,209.698000,143.404000,209.170000,143.844000C208.642000,144.269000,208.378000,144.871000,208.378000,145.648000C208.378000,146.205000,208.532000,146.660000,208.840000,147.012000C209.163000,147.364000,209.552000,147.635000,210.006000,147.826000C210.476000,148.002000,211.128000,148.207000,211.964000,148.442000C212.976000,148.721000,213.790000,148.999000,214.406000,149.278000C215.022000,149.542000,215.550000,149.960000,215.990000,150.532000C216.430000,151.089000,216.650000,151.852000,216.650000,152.820000C216.650000,153.568000,216.452000,154.272000,216.056000,154.932000C215.660000,155.592000,215.074000,156.127000,214.296000,156.538000C213.519000,156.949000,212.602000,157.154000,211.546000,157.154000ZM348.258000,145.098000C348.360000,143.749000,348.881000,142.693000,349.820000,141.930000C350.758000,141.167000,351.976000,140.786000,353.472000,140.786000C354.469000,140.786000,355.327000,140.969000,356.046000,141.336000C356.779000,141.688000,357.329000,142.172000,357.696000,142.788000C358.077000,143.404000,358.268000,144.101000,358.268000,144.878000C358.268000,145.787000,358.004000,146.572000,357.476000,147.232000C356.962000,147.892000,356.288000,148.317000,355.452000,148.508000L355.452000,148.618000C356.405000,148.853000,357.160000,149.315000,357.718000,150.004000C358.275000,150.693000,358.553000,151.595000,358.553000,152.710000C358.553000,153.546000,358.363000,154.301000,357.982000,154.976000C357.600000,155.636000,357.028000,156.157000,356.266000,156.538000C355.503000,156.919000,354.586000,157.110000,353.516000,157.110000C351.961000,157.110000,350.685000,156.707000,349.688000,155.900000C348.690000,155.079000,348.133000,153.920000,348.016000,152.424000L349.952000,152.424000C350.054000,153.304000,350.414000,154.023000,351.030000,154.580000C351.646000,155.137000,352.467000,155.416000,353.494000,155.416000C354.520000,155.416000,355.298000,155.152000,355.826000,154.624000C356.368000,154.081000,356.640000,153.385000,356.640000,152.534000C356.640000,151.434000,356.273000,150.642000,355.540000,150.158000C354.806000,149.674000,353.699000,149.432000,352.218000,149.432000L351.712000,149.432000L351.712000,147.760000L352.240000,147.760000C353.589000,147.745000,354.608000,147.525000,355.298000,147.100000C355.987000,146.660000,356.332000,145.985000,356.332000,145.076000C356.332000,144.299000,356.075000,143.675000,355.562000,143.206000C355.063000,142.737000,354.344000,142.502000,353.405000,142.502000C352.496000,142.502000,351.763000,142.737000,351.206000,143.206000C350.648000,143.675000,350.318000,144.306000,350.216000,145.098000L348.258000,145.098000Z" fill="rgb(0,0,0)" stroke="none" stroke-width="1"/><path id="eu9dyh5vj2430" d="M81.717700,127.394000C83.580400,125.898000,85.039700,124.673000,86.095700,123.720000C87.151700,122.752000,88.039000,121.747000,88.757700,120.706000C89.491000,119.650000,89.857700,118.616000,89.857700,117.604000C89.857700,116.651000,89.623000,115.903000,89.153700,115.360000C88.699000,114.803000,87.958400,114.524000,86.931700,114.524000C85.934400,114.524000,85.157000,114.839000,84.599700,115.470000C84.057000,116.086000,83.763700,116.915000,83.719700,117.956000L81.783700,117.956000C81.842400,116.313000,82.341000,115.045000,83.279700,114.150000C84.218400,113.255000,85.428400,112.808000,86.909700,112.808000C88.420400,112.808000,89.615700,113.226000,90.495700,114.062000C91.390400,114.898000,91.837700,116.049000,91.837700,117.516000C91.837700,118.733000,91.471000,119.921000,90.737700,121.080000C90.019000,122.224000,89.197700,123.236000,88.273700,124.116000C87.349700,124.981000,86.169000,125.993000,84.731700,127.152000L92.299700,127.152000L92.299700,128.824000L81.717700,128.824000L81.717700,127.394000ZM216.635000,118.154000C216.635000,119.430000,216.195000,120.493000,215.315000,121.344000C214.450000,122.180000,213.123000,122.598000,211.333000,122.598000L208.385000,122.598000L208.385000,129L206.383000,129L206.383000,113.666000L211.333000,113.666000C213.064000,113.666000,214.377000,114.084000,215.271000,114.920000C216.181000,115.756000,216.635000,116.834000,216.635000,118.154000ZM211.333000,120.948000C212.448000,120.948000,213.269000,120.706000,213.797000,120.222000C214.325000,119.738000,214.589000,119.049000,214.589000,118.154000C214.589000,116.262000,213.504000,115.316000,211.333000,115.316000L208.385000,115.316000L208.385000,120.948000L211.333000,120.948000ZM347.345000,125.458000L347.345000,123.940000L355.067000,113.248000L357.465000,113.248000L357.465000,123.720000L359.665000,123.720000L359.665000,125.458000L357.465000,125.458000L357.465000,129L355.485000,129L355.485000,125.458000L347.345000,125.458000ZM355.573000,115.338000L349.655000,123.720000L355.573000,123.720000L355.573000,115.338000Z" fill="rgb(0,0,0)" stroke="none" stroke-width="1"/><path id="eu9dyh5vj2431" d="M81.717700,95.394000C83.580400,93.898000,85.039700,92.673300,86.095700,91.720000C87.151700,90.752000,88.039000,89.747300,88.757700,88.706000C89.491000,87.650000,89.857700,86.616000,89.857700,85.604000C89.857700,84.650700,89.623000,83.902700,89.153700,83.360000C88.699000,82.802700,87.958400,82.524000,86.931700,82.524000C85.934400,82.524000,85.157000,82.839300,84.599700,83.470000C84.057000,84.086000,83.763700,84.914700,83.719700,85.956000L81.783700,85.956000C81.842400,84.313300,82.341000,83.044700,83.279700,82.150000C84.218400,81.255300,85.428400,80.808000,86.909700,80.808000C88.420400,80.808000,89.615700,81.226000,90.495700,82.062000C91.390400,82.898000,91.837700,84.049300,91.837700,85.516000C91.837700,86.733300,91.471000,87.921300,90.737700,89.080000C90.019000,90.224000,89.197700,91.236000,88.273700,92.116000C87.349700,92.981300,86.169000,93.993300,84.731700,95.152000L92.299700,95.152000L92.299700,96.824000L81.717700,96.824000L81.717700,95.394000ZM215.821000,81.666000L215.821000,83.294000L211.641000,83.294000L211.641000,97L209.639000,97L209.639000,83.294000L205.437000,83.294000L205.437000,81.666000L215.821000,81.666000ZM346.947000,85.098000C347.050000,83.748700,347.570000,82.692700,348.509000,81.930000C349.448000,81.167300,350.665000,80.786000,352.161000,80.786000C353.158000,80.786000,354.016000,80.969300,354.735000,81.336000C355.468000,81.688000,356.018000,82.172000,356.385000,82.788000C356.766000,83.404000,356.957000,84.100700,356.957000,84.878000C356.957000,85.787300,356.693000,86.572000,356.165000,87.232000C355.652000,87.892000,354.977000,88.317300,354.141000,88.508000L354.141000,88.618000C355.094000,88.852700,355.850000,89.314700,356.407000,90.004000C356.964000,90.693300,357.243000,91.595300,357.243000,92.710000C357.243000,93.546000,357.052000,94.301300,356.671000,94.976000C356.290000,95.636000,355.718000,96.156700,354.955000,96.538000C354.192000,96.919300,353.276000,97.110000,352.205000,97.110000C350.650000,97.110000,349.374000,96.706700,348.377000,95.900000C347.380000,95.078700,346.822000,93.920000,346.705000,92.424000L348.641000,92.424000C348.744000,93.304000,349.103000,94.022700,349.719000,94.580000C350.335000,95.137300,351.156000,95.416000,352.183000,95.416000C353.210000,95.416000,353.987000,95.152000,354.515000,94.624000C355.058000,94.081300,355.329000,93.384700,355.329000,92.534000C355.329000,91.434000,354.962000,90.642000,354.229000,90.158000C353.496000,89.674000,352.388000,89.432000,350.907000,89.432000L350.401000,89.432000L350.401000,87.760000L350.929000,87.760000C352.278000,87.745300,353.298000,87.525300,353.987000,87.100000C354.676000,86.660000,355.021000,85.985300,355.021000,85.076000C355.021000,84.298700,354.764000,83.675300,354.251000,83.206000C353.752000,82.736700,353.034000,82.502000,352.095000,82.502000C351.186000,82.502000,350.452000,82.736700,349.895000,83.206000C349.338000,83.675300,349.008000,84.306000,348.905000,85.098000L346.947000,85.098000Z" fill="rgb(0,0,0)" stroke="none" stroke-width="1"/><path id="eu9dyh5vj2432" d="M81.431700,52.920000L81.431700,51.094000L85.567700,51.094000L85.567700,67L83.543700,67L83.543700,52.920000L81.431700,52.920000ZM214.319000,59.102000C214.877000,59.190000,215.383000,59.417300,215.837000,59.784000C216.307000,60.150700,216.673000,60.605300,216.937000,61.148000C217.216000,61.690700,217.355000,62.270000,217.355000,62.886000C217.355000,63.663300,217.157000,64.367300,216.761000,64.998000C216.365000,65.614000,215.786000,66.105300,215.023000,66.472000C214.275000,66.824000,213.388000,67,212.361000,67L206.641000,67L206.641000,51.666000L212.141000,51.666000C213.183000,51.666000,214.070000,51.842000,214.803000,52.194000C215.537000,52.531300,216.087000,52.993300,216.453000,53.580000C216.820000,54.166700,217.003000,54.826700,217.003000,55.560000C217.003000,56.469300,216.754000,57.224700,216.255000,57.826000C215.771000,58.412700,215.126000,58.838000,214.319000,59.102000ZM208.643000,58.288000L212.009000,58.288000C212.948000,58.288000,213.674000,58.068000,214.187000,57.628000C214.701000,57.188000,214.957000,56.579300,214.957000,55.802000C214.957000,55.024700,214.701000,54.416000,214.187000,53.976000C213.674000,53.536000,212.933000,53.316000,211.965000,53.316000L208.643000,53.316000L208.643000,58.288000ZM212.185000,65.350000C213.183000,65.350000,213.960000,65.115300,214.517000,64.646000C215.075000,64.176700,215.353000,63.524000,215.353000,62.688000C215.353000,61.837300,215.060000,61.170000,214.473000,60.686000C213.887000,60.187300,213.102000,59.938000,212.119000,59.938000L208.643000,59.938000L208.643000,65.350000L212.185000,65.350000ZM348.597000,65.394000C350.459000,63.898000,351.919000,62.673300,352.975000,61.720000C354.031000,60.752000,354.918000,59.747300,355.637000,58.706000C356.370000,57.650000,356.737000,56.616000,356.737000,55.604000C356.737000,54.650700,356.502000,53.902700,356.033000,53.360000C355.578000,52.802700,354.837000,52.524000,353.811000,52.524000C352.813000,52.524000,352.036000,52.839300,351.479000,53.470000C350.936000,54.086000,350.643000,54.914700,350.599000,55.956000L348.663000,55.956000C348.721000,54.313300,349.220000,53.044700,350.159000,52.150000C351.097000,51.255300,352.307000,50.808000,353.789000,50.808000C355.299000,50.808000,356.495000,51.226000,357.375000,52.062000C358.269000,52.898000,358.717000,54.049300,358.717000,55.516000C358.717000,56.733300,358.350000,57.921300,357.617000,59.080000C356.898000,60.224000,356.077000,61.236000,355.153000,62.116000C354.229000,62.981300,353.048000,63.993300,351.611000,65.152000L359.179000,65.152000L359.179000,66.824000L348.597000,66.824000L348.597000,65.394000Z" fill="rgb(0,0,0)" stroke="none" stroke-width="1"/><path id="eu9dyh5vj2433" d="M86.810500,36.960000L82.640500,32.790000C81.620500,33.070000,80.580500,33.210000,79.520500,33.210000C77.580500,33.210000,75.810500,32.760000,74.210500,31.860000C72.610500,30.940000,71.340500,29.670000,70.400500,28.050000C69.480500,26.410000,69.020500,24.570000,69.020500,22.530000C69.020500,20.490000,69.480500,18.660000,70.400500,17.040000C71.340500,15.400000,72.610500,14.130000,74.210500,13.230000C75.810500,12.310000,77.580500,11.850000,79.520500,11.850000C81.480500,11.850000,83.260500,12.310000,84.860500,13.230000C86.460500,14.130000,87.720500,15.390000,88.640500,17.010000C89.560500,18.630000,90.020500,20.470000,90.020500,22.530000C90.020500,24.530000,89.580500,26.330000,88.700500,27.930000C87.820500,29.530000,86.610500,30.790000,85.070500,31.710000L90.350500,36.960000L86.810500,36.960000ZM71.810500,22.530000C71.810500,24.190000,72.140500,25.650000,72.800500,26.910000C73.480500,28.170000,74.400500,29.140000,75.560500,29.820000C76.740500,30.500000,78.060500,30.840000,79.520500,30.840000C80.980500,30.840000,82.290500,30.500000,83.450500,29.820000C84.630500,29.140000,85.550500,28.170000,86.210500,26.910000C86.890500,25.650000,87.230500,24.190000,87.230500,22.530000C87.230500,20.850000,86.890500,19.390000,86.210500,18.150000C85.550500,16.890000,84.640500,15.920000,83.480500,15.240000C82.320500,14.560000,81.000500,14.220000,79.520500,14.220000C78.040500,14.220000,76.720500,14.560000,75.560500,15.240000C74.400500,15.920000,73.480500,16.890000,72.800500,18.150000C72.140500,19.390000,71.810500,20.850000,71.810500,22.530000Z" fill="rgb(0,0,0)" stroke="none" stroke-width="1"/><path id="eu9dyh5vj2434" d="M86.810500,36.960000L86.103400,37.667100L86.396300,37.960000L86.810500,37.960000L86.810500,36.960000ZM82.640500,32.790000L83.347600,32.082900L82.936400,31.671800L82.375800,31.825700L82.640500,32.790000ZM74.210500,31.860000L73.712000,32.726900L73.720200,32.731600L74.210500,31.860000ZM70.400500,28.050000L69.528300,28.539300L69.531900,28.545600L69.535500,28.551900L70.400500,28.050000ZM70.400500,17.040000L69.532900,16.542700L69.530900,16.546200L70.400500,17.040000ZM74.210500,13.230000L74.700800,14.101600L74.708900,14.096900L74.210500,13.230000ZM84.860500,13.230000L84.362000,14.096900L84.370200,14.101600L84.860500,13.230000ZM88.640500,17.010000L89.510000,16.516200L89.510000,16.516200L88.640500,17.010000ZM88.700500,27.930000L89.576700,28.411900L88.700500,27.930000ZM85.070500,31.710000L84.557600,30.851500L83.452700,31.511600L84.365400,32.419100L85.070500,31.710000ZM90.350500,36.960000L90.350500,37.960000L92.774400,37.960000L91.055600,36.250900L90.350500,36.960000ZM72.800500,26.910000L71.914600,27.374000L71.920400,27.384900L72.800500,26.910000ZM75.560500,29.820000L75.054700,30.682700L75.061200,30.686400L75.560500,29.820000ZM83.450500,29.820000L82.951200,28.953500L82.944800,28.957300L83.450500,29.820000ZM86.210500,26.910000L85.330400,26.435000L85.324600,26.446000L86.210500,26.910000ZM86.210500,18.150000L85.324600,18.614000L85.329100,18.622500L85.333700,18.630800L86.210500,18.150000ZM83.480500,15.240000L82.974800,16.102700L83.480500,15.240000ZM75.560500,15.240000L76.066200,16.102700L75.560500,15.240000ZM72.800500,18.150000L71.920400,17.675100L71.917700,17.680100L72.800500,18.150000ZM87.517600,36.252900L83.347600,32.082900L81.933400,33.497100L86.103400,37.667100L87.517600,36.252900ZM82.375800,31.825700C81.442200,32.081900,80.491200,32.210000,79.520500,32.210000L79.520500,34.210000C80.669700,34.210000,81.798800,34.058100,82.905200,33.754300L82.375800,31.825700ZM79.520500,32.210000C77.742100,32.210000,76.142500,31.799400,74.700700,30.988400L73.720200,32.731600C75.478500,33.720600,77.418800,34.210000,79.520500,34.210000L79.520500,32.210000ZM74.708900,30.993100C73.263300,30.161900,72.118700,29.018800,71.265400,27.548100L69.535500,28.551900C70.562200,30.321200,71.957600,31.718100,73.712000,32.726900L74.708900,30.993100ZM71.272600,27.560700C70.443500,26.082700,70.020500,24.413600,70.020500,22.530000L68.020500,22.530000C68.020500,24.726400,68.517500,26.737300,69.528300,28.539300L71.272600,27.560700ZM70.020500,22.530000C70.020500,20.646200,70.443500,18.989200,71.270000,17.533800L69.530900,16.546200C68.517400,18.330800,68.020500,20.333800,68.020500,22.530000L70.020500,22.530000ZM71.268100,17.537300C72.121100,16.048900,73.262800,14.910400,74.700700,14.101600L73.720200,12.358400C71.958100,13.349600,70.559800,14.751100,69.532900,16.542700L71.268100,17.537300ZM74.708900,14.096900C76.149400,13.268600,77.746100,12.850000,79.520500,12.850000L79.520500,10.850000C77.414800,10.850000,75.471500,11.351400,73.712000,12.363100L74.708900,14.096900ZM79.520500,12.850000C81.316800,12.850000,82.923100,13.269500,84.362000,14.096900L85.358900,12.363100C83.597800,11.350500,81.644200,10.850000,79.520500,10.850000L79.520500,12.850000ZM84.370200,14.101600C85.809300,14.911100,86.939300,16.039400,87.770900,17.503800L89.510000,16.516200C88.501700,14.740600,87.111600,13.348900,85.350700,12.358400L84.370200,14.101600ZM87.770900,17.503800C88.596600,18.957800,89.020500,20.624400,89.020500,22.530000L91.020500,22.530000C91.020500,20.315600,90.524300,18.302200,89.510000,16.516200L87.770900,17.503800ZM89.020500,22.530000C89.020500,24.377900,88.615500,26.009500,87.824300,27.448100L89.576700,28.411900C90.545500,26.650500,91.020500,24.682100,91.020500,22.530000L89.020500,22.530000ZM87.824300,27.448100C87.028200,28.895500,85.942400,30.024300,84.557600,30.851500L85.583300,32.568500C87.278600,31.555700,88.612700,30.164500,89.576700,28.411900L87.824300,27.448100ZM84.365400,32.419100L89.645400,37.669100L91.055600,36.250900L85.775600,31.000900L84.365400,32.419100ZM90.350500,35.960000L86.810500,35.960000L86.810500,37.960000L90.350500,37.960000L90.350500,35.960000ZM70.810500,22.530000C70.810500,24.324600,71.168000,25.948700,71.914600,27.374000L73.686300,26.446000C73.112900,25.351300,72.810500,24.055400,72.810500,22.530000L70.810500,22.530000ZM71.920400,27.384900C72.681500,28.795100,73.726500,29.904100,75.054800,30.682700L76.066200,28.957300C75.074400,28.375900,74.279400,27.544900,73.680500,26.435100L71.920400,27.384900ZM75.061200,30.686400C76.403900,31.460200,77.898300,31.840000,79.520500,31.840000L79.520500,29.840000C78.222700,29.840000,77.077000,29.539800,76.059800,28.953600L75.061200,30.686400ZM79.520500,31.840000C81.142500,31.840000,82.629800,31.460200,83.956200,30.682700L82.944800,28.957300C81.951200,29.539800,80.818400,29.840000,79.520500,29.840000L79.520500,31.840000ZM83.949800,30.686400C85.301700,29.907400,86.352400,28.794300,87.096300,27.374000L85.324600,26.446000C84.748600,27.545700,83.959200,28.372600,82.951200,28.953600L83.949800,30.686400ZM87.090500,27.384900C87.861000,25.957300,88.230500,24.329200,88.230500,22.530000L86.230500,22.530000C86.230500,24.050800,85.920000,25.342700,85.330400,26.435100L87.090500,27.384900ZM88.230500,22.530000C88.230500,20.713500,87.862000,19.082000,87.087300,17.669200L85.333700,18.630800C85.918900,19.698000,86.230500,20.986500,86.230500,22.530000L88.230500,22.530000ZM87.096300,17.686000C86.354700,16.270200,85.317200,15.157600,83.986200,14.377300L82.974800,16.102700C83.963700,16.682400,84.746300,17.509800,85.324600,18.614000L87.096300,17.686000ZM83.986200,14.377300C82.657700,13.598500,81.159800,13.220000,79.520500,13.220000L79.520500,15.220000C80.841100,15.220000,81.983300,15.521500,82.974800,16.102700L83.986200,14.377300ZM79.520500,13.220000C77.881100,13.220000,76.383300,13.598500,75.054700,14.377300L76.066200,16.102700C77.057700,15.521500,78.199800,15.220000,79.520500,15.220000L79.520500,13.220000ZM75.054800,14.377300C73.726500,15.155900,72.681500,16.264900,71.920400,17.675100L73.680500,18.624900C74.279400,17.515100,75.074400,16.684100,76.066200,16.102700L75.054800,14.377300ZM71.917700,17.680100C71.167000,19.090600,70.810500,20.718100,70.810500,22.530000L72.810500,22.530000C72.810500,20.981900,73.113900,19.689400,73.683200,18.619800L71.917700,17.680100Z" fill="rgb(0,0,0)" stroke="none" stroke-width="1"/><path id="eu9dyh5vj2435" d="M355.676000,36.960000L351.506000,32.790000C350.486000,33.070000,349.446000,33.210000,348.386000,33.210000C346.446000,33.210000,344.676000,32.760000,343.076000,31.860000C341.476000,30.940000,340.206000,29.670000,339.266000,28.050000C338.346000,26.410000,337.886000,24.570000,337.886000,22.530000C337.886000,20.490000,338.346000,18.660000,339.266000,17.040000C340.206000,15.400000,341.476000,14.130000,343.076000,13.230000C344.676000,12.310000,346.446000,11.850000,348.386000,11.850000C350.346000,11.850000,352.126000,12.310000,353.726000,13.230000C355.326000,14.130000,356.586000,15.390000,357.506000,17.010000C358.426000,18.630000,358.886000,20.470000,358.886000,22.530000C358.886000,24.530000,358.446000,26.330000,357.566000,27.930000C356.686000,29.530000,355.476000,30.790000,353.936000,31.710000L359.216000,36.960000L355.676000,36.960000ZM340.676000,22.530000C340.676000,24.190000,341.006000,25.650000,341.666000,26.910000C342.346000,28.170000,343.266000,29.140000,344.426000,29.820000C345.606000,30.500000,346.926000,30.840000,348.386000,30.840000C349.846000,30.840000,351.156000,30.500000,352.316000,29.820000C353.496000,29.140000,354.416000,28.170000,355.076000,26.910000C355.756000,25.650000,356.096000,24.190000,356.096000,22.530000C356.096000,20.850000,355.756000,19.390000,355.076000,18.150000C354.416000,16.890000,353.506000,15.920000,352.346000,15.240000C351.186000,14.560000,349.866000,14.220000,348.386000,14.220000C346.906000,14.220000,345.586000,14.560000,344.426000,15.240000C343.266000,15.920000,342.346000,16.890000,341.666000,18.150000C341.006000,19.390000,340.676000,20.850000,340.676000,22.530000Z" fill="rgb(0,0,0)" stroke="none" stroke-width="1"/><path id="eu9dyh5vj2436" d="M355.676000,36.960000L354.969000,37.667100L355.261000,37.960000L355.676000,37.960000L355.676000,36.960000ZM351.506000,32.790000L352.213000,32.082900L351.802000,31.671800L351.241000,31.825700L351.506000,32.790000ZM343.076000,31.860000L342.577000,32.726900L342.585000,32.731600L343.076000,31.860000ZM339.266000,28.050000L338.394000,28.539300L338.397000,28.545600L338.401000,28.551900L339.266000,28.050000ZM339.266000,17.040000L338.398000,16.542700L338.396000,16.546200L339.266000,17.040000ZM343.076000,13.230000L343.566000,14.101600L343.574000,14.096900L343.076000,13.230000ZM353.726000,13.230000L353.227000,14.096900L353.235000,14.101600L353.726000,13.230000ZM357.506000,17.010000L358.375000,16.516200L358.375000,16.516200L357.506000,17.010000ZM357.566000,27.930000L358.442000,28.411900L357.566000,27.930000ZM353.936000,31.710000L353.423000,30.851500L352.318000,31.511600L353.231000,32.419100L353.936000,31.710000ZM359.216000,36.960000L359.216000,37.960000L361.640000,37.960000L359.921000,36.250900L359.216000,36.960000ZM341.666000,26.910000L340.780000,27.374000L340.786000,27.384900L341.666000,26.910000ZM344.426000,29.820000L343.920000,30.682700L343.926000,30.686400L344.426000,29.820000ZM352.316000,29.820000L351.816000,28.953500L351.810000,28.957300L352.316000,29.820000ZM355.076000,26.910000L354.196000,26.435000L354.190000,26.446000L355.076000,26.910000ZM355.076000,18.150000L354.190000,18.614000L354.194000,18.622500L354.199000,18.630800L355.076000,18.150000ZM352.346000,15.240000L351.840000,16.102700L352.346000,15.240000ZM344.426000,15.240000L344.931000,16.102700L344.426000,15.240000ZM341.666000,18.150000L340.786000,17.675100L340.783000,17.680100L341.666000,18.150000ZM356.383000,36.252900L352.213000,32.082900L350.799000,33.497100L354.969000,37.667100L356.383000,36.252900ZM351.241000,31.825700C350.307000,32.081900,349.356000,32.210000,348.386000,32.210000L348.386000,34.210000C349.535000,34.210000,350.664000,34.058100,351.770000,33.754300L351.241000,31.825700ZM348.386000,32.210000C346.607000,32.210000,345.008000,31.799400,343.566000,30.988400L342.585000,32.731600C344.344000,33.720600,346.284000,34.210000,348.386000,34.210000L348.386000,32.210000ZM343.574000,30.993100C342.129000,30.161900,340.984000,29.018800,340.131000,27.548100L338.401000,28.551900C339.427000,30.321200,340.823000,31.718100,342.577000,32.726900L343.574000,30.993100ZM340.138000,27.560700C339.309000,26.082700,338.886000,24.413600,338.886000,22.530000L336.886000,22.530000C336.886000,24.726400,337.383000,26.737300,338.394000,28.539300L340.138000,27.560700ZM338.886000,22.530000C338.886000,20.646200,339.309000,18.989200,340.135000,17.533800L338.396000,16.546200C337.383000,18.330800,336.886000,20.333800,336.886000,22.530000L338.886000,22.530000ZM340.133000,17.537300C340.986000,16.048900,342.128000,14.910400,343.566000,14.101600L342.585000,12.358400C340.823000,13.349600,339.425000,14.751100,338.398000,16.542700L340.133000,17.537300ZM343.574000,14.096900C345.015000,13.268600,346.611000,12.850000,348.386000,12.850000L348.386000,10.850000C346.280000,10.850000,344.337000,11.351400,342.577000,12.363100L343.574000,14.096900ZM348.386000,12.850000C350.182000,12.850000,351.788000,13.269500,353.227000,14.096900L354.224000,12.363100C352.463000,11.350500,350.509000,10.850000,348.386000,10.850000L348.386000,12.850000ZM353.235000,14.101600C354.675000,14.911100,355.804000,16.039400,356.636000,17.503800L358.375000,16.516200C357.367000,14.740600,355.977000,13.348900,354.216000,12.358400L353.235000,14.101600ZM356.636000,17.503800C357.462000,18.957800,357.886000,20.624400,357.886000,22.530000L359.886000,22.530000C359.886000,20.315600,359.390000,18.302200,358.375000,16.516200L356.636000,17.503800ZM357.886000,22.530000C357.886000,24.377900,357.481000,26.009500,356.689000,27.448100L358.442000,28.411900C359.411000,26.650500,359.886000,24.682100,359.886000,22.530000L357.886000,22.530000ZM356.689000,27.448100C355.893000,28.895500,354.808000,30.024300,353.423000,30.851500L354.449000,32.568500C356.144000,31.555700,357.478000,30.164500,358.442000,28.411900L356.689000,27.448100ZM353.231000,32.419100L358.511000,37.669100L359.921000,36.250900L354.641000,31.000900L353.231000,32.419100ZM359.216000,35.960000L355.676000,35.960000L355.676000,37.960000L359.216000,37.960000L359.216000,35.960000ZM339.676000,22.530000C339.676000,24.324600,340.033000,25.948700,340.780000,27.374000L342.552000,26.446000C341.978000,25.351300,341.676000,24.055400,341.676000,22.530000L339.676000,22.530000ZM340.786000,27.384900C341.547000,28.795100,342.592000,29.904100,343.920000,30.682700L344.931000,28.957300C343.940000,28.375900,343.145000,27.544900,342.546000,26.435100L340.786000,27.384900ZM343.926000,30.686400C345.269000,31.460200,346.763000,31.840000,348.386000,31.840000L348.386000,29.840000C347.088000,29.840000,345.942000,29.539800,344.925000,28.953600L343.926000,30.686400ZM348.386000,31.840000C350.008000,31.840000,351.495000,31.460200,352.821000,30.682700L351.810000,28.957300C350.816000,29.539800,349.684000,29.840000,348.386000,29.840000L348.386000,31.840000ZM352.815000,30.686400C354.167000,29.907400,355.218000,28.794300,355.962000,27.374000L354.190000,26.446000C353.614000,27.545700,352.824000,28.372600,351.816000,28.953600L352.815000,30.686400ZM355.956000,27.384900C356.726000,25.957300,357.096000,24.329200,357.096000,22.530000L355.096000,22.530000C355.096000,24.050800,354.785000,25.342700,354.196000,26.435100L355.956000,27.384900ZM357.096000,22.530000C357.096000,20.713500,356.727000,19.082000,355.953000,17.669200L354.199000,18.630800C354.784000,19.698000,355.096000,20.986500,355.096000,22.530000L357.096000,22.530000ZM355.962000,17.686000C355.220000,16.270200,354.182000,15.157600,352.851000,14.377300L351.840000,16.102700C352.829000,16.682400,353.611000,17.509800,354.190000,18.614000L355.962000,17.686000ZM352.851000,14.377300C351.523000,13.598500,350.025000,13.220000,348.386000,13.220000L348.386000,15.220000C349.706000,15.220000,350.848000,15.521500,351.840000,16.102700L352.851000,14.377300ZM348.386000,13.220000C346.746000,13.220000,345.248000,13.598500,343.920000,14.377300L344.931000,16.102700C345.923000,15.521500,347.065000,15.220000,348.386000,15.220000L348.386000,13.220000ZM343.920000,14.377300C342.592000,15.155900,341.547000,16.264900,340.786000,17.675100L342.546000,18.624900C343.145000,17.515100,343.940000,16.684100,344.931000,16.102700L343.920000,14.377300ZM340.783000,17.680100C340.032000,19.090600,339.676000,20.718100,339.676000,22.530000L341.676000,22.530000C341.676000,20.981900,341.979000,19.689400,342.548000,18.619800L340.783000,17.680100Z" fill="rgb(0,0,0)" stroke="none" stroke-width="1"/></g></svg>