<svg width="1247" height="913" viewBox="0 0 1247 913" fill="none" xmlns="http://www.w3.org/2000/svg">
<g filter="url(#filter0_d)">
<path d="M4 153C4 117.654 32.6538 89 68 89H1179C1214.35 89 1243 117.654 1243 153V769C1243 804.346 1214.35 833 1179 833H68C32.6538 833 4 804.346 4 769V153Z" fill="#FDFCFC"/>
</g>
<g filter="url(#filter1_d)">
<ellipse rx="44.7917" ry="45" transform="matrix(-1 0 0 1 387.218 603)" fill="#443B3B"/>
</g>
<g filter="url(#filter2_d)">
<ellipse rx="44.7917" ry="45" transform="matrix(-1 0 0 1 835.134 433)" fill="#443B3B"/>
</g>
<g filter="url(#filter3_d)">
<ellipse rx="44.7917" ry="45" transform="matrix(-1 0 0 1 641.037 258)" fill="#443B3B"/>
</g>
<g filter="url(#filter4_d)">
<ellipse rx="44.7917" ry="45" transform="matrix(-1 0 0 1 641.037 603)" fill="#443B3B"/>
</g>
<g filter="url(#filter5_d)">
<ellipse rx="44.7917" ry="45" transform="matrix(-1 0 0 1 387.218 258)" fill="#443B3B"/>
</g>
<g filter="url(#filter6_d)">
<ellipse rx="44.7917" ry="45" transform="matrix(-1 0 0 1 178.19 433)" fill="#443B3B"/>
</g>
<g filter="url(#filter7_d)">
<path d="M357.356 636.472C370.813 774.848 539.762 665.125 427.627 619" stroke="black" stroke-width="4"/>
</g>
<g filter="url(#filter8_d)">
<path d="M346.593 276.004C347.691 276.106 348.497 277.083 348.394 278.185L346.722 296.148C346.619 297.251 345.646 298.061 344.549 297.959C343.452 297.857 342.645 296.881 342.748 295.778L344.235 279.811L328.34 278.331C327.243 278.229 326.436 277.252 326.539 276.15C326.642 275.048 327.614 274.237 328.712 274.339L346.593 276.004ZM203.208 394.751L345.134 276.458L347.681 279.542L205.755 397.836L203.208 394.751Z" fill="black"/>
</g>
<g filter="url(#filter9_d)">
<path d="M639.293 303.389C640.07 302.604 641.337 302.598 642.122 303.375L654.913 316.039C655.698 316.816 655.704 318.082 654.927 318.867C654.15 319.652 652.883 319.659 652.098 318.882L640.728 307.625L629.471 318.995C628.694 319.78 627.428 319.787 626.643 319.009C625.858 318.232 625.852 316.966 626.629 316.181L639.293 303.389ZM639.982 559.311L638.714 304.806L642.714 304.786L643.982 559.291L639.982 559.311Z" fill="black"/>
</g>
<g filter="url(#filter10_d)">
<path d="M396.399 562.378C395.3 562.466 394.338 561.644 394.249 560.54L392.801 542.557C392.712 541.454 393.53 540.487 394.629 540.399C395.727 540.31 396.69 541.133 396.779 542.237L398.066 558.222L413.978 556.94C415.076 556.852 416.039 557.675 416.128 558.778C416.216 559.882 415.398 560.848 414.3 560.937L396.399 562.378ZM621.406 297.638L397.758 561.68L394.718 559.08L618.366 295.039L621.406 297.638Z" fill="black"/>
</g>
<g filter="url(#filter11_d)">
<path d="M345.517 589.983C345.582 591.088 344.743 592.036 343.643 592.101L325.715 593.154C324.615 593.219 323.67 592.375 323.606 591.27C323.541 590.165 324.38 589.216 325.48 589.152L341.416 588.216L340.475 572.207C340.41 571.101 341.25 570.153 342.35 570.088C343.45 570.024 344.394 570.867 344.459 571.973L345.517 589.983ZM206.75 465.255L344.85 588.602L342.2 591.598L204.1 468.25L206.75 465.255Z" fill="black"/>
</g>
<g filter="url(#filter12_d)">
<path d="M596.208 254.904C596.991 254.125 596.995 252.859 596.216 252.076L583.528 239.308C582.749 238.524 581.483 238.52 580.7 239.299C579.916 240.078 579.912 241.344 580.691 242.127L591.969 253.477L580.621 264.755C579.837 265.533 579.833 266.8 580.612 267.583C581.39 268.367 582.657 268.371 583.44 267.592L596.208 254.904ZM430.651 254.971L594.792 255.485L594.804 251.485L430.664 250.971L430.651 254.971Z" fill="black"/>
</g>
<g filter="url(#filter13_d)">
<path d="M822.477 477.573C822.579 476.47 821.773 475.494 820.676 475.392L802.794 473.727C801.697 473.625 800.724 474.435 800.621 475.538C800.519 476.64 801.325 477.616 802.422 477.719L818.317 479.199L816.83 495.166C816.728 496.268 817.534 497.245 818.631 497.347C819.729 497.449 820.701 496.638 820.804 495.536L822.477 477.573ZM683.799 593.922L821.763 478.93L819.216 475.846L681.252 590.837L683.799 593.922Z" fill="black"/>
</g>
<g filter="url(#filter14_d)">
<path d="M135.96 434.772C136.744 433.993 136.748 432.727 135.969 431.943L123.281 419.176C122.502 418.392 121.236 418.388 120.452 419.167C119.669 419.945 119.665 421.212 120.443 421.995L131.722 433.344L120.373 444.622C119.59 445.401 119.586 446.667 120.364 447.451C121.143 448.234 122.409 448.238 123.193 447.46L135.96 434.772ZM21.9252 435L134.544 435.353L134.557 431.353L21.9377 431L21.9252 435Z" fill="black"/>
</g>
<g filter="url(#filter15_d)">
<path d="M992.633 437.746C993.416 436.967 993.42 435.701 992.642 434.917L979.953 422.15C979.175 421.366 977.908 421.362 977.125 422.141C976.341 422.919 976.337 424.186 977.116 424.969L988.395 436.318L977.046 447.596C976.262 448.375 976.258 449.641 977.037 450.425C977.816 451.208 979.082 451.212 979.865 450.434L992.633 437.746ZM878.257 437.973L991.217 438.327L991.229 434.327L878.27 433.973L878.257 437.973Z" fill="black"/>
</g>
<g filter="url(#filter16_d)">
<path d="M806.983 398.531C808.084 398.58 809.016 397.722 809.065 396.616L809.86 378.592C809.909 377.486 809.056 376.55 807.955 376.502C806.854 376.453 805.922 377.31 805.873 378.416L805.167 394.438L789.219 393.734C788.118 393.686 787.186 394.543 787.137 395.649C787.089 396.755 787.941 397.691 789.042 397.74L806.983 398.531ZM683.575 263.977L805.6 397.882L808.544 395.174L686.519 261.269L683.575 263.977Z" fill="black"/>
</g>
<g filter="url(#filter17_d)">
<path d="M598.506 614.911C599.29 614.133 599.293 612.866 598.515 612.083L585.827 599.315C585.048 598.532 583.782 598.528 582.998 599.306C582.215 600.085 582.211 601.351 582.989 602.135L594.268 613.484L582.919 624.762C582.136 625.541 582.132 626.807 582.91 627.59C583.689 628.374 584.955 628.378 585.739 627.599L598.506 614.911ZM429.455 614.967L597.09 615.493L597.102 611.493L429.468 610.967L429.455 614.967Z" fill="black"/>
</g>
<g filter="url(#filter18_d)">
<path d="M357.356 226.761C370.813 98.1528 539.762 200.131 427.627 243" stroke="black" stroke-width="4"/>
</g>
<g filter="url(#filter19_d)">
<ellipse rx="29.8611" ry="28" transform="matrix(-1 0 0 1 43.8148 432)" fill="#443B3B"/>
</g>
<g filter="url(#filter20_d)">
<ellipse rx="29.8611" ry="28" transform="matrix(-1 0 0 1 1021.27 436)" fill="#443B3B"/>
</g>
<path d="M774.657 546.12L764.137 574H759.937L749.417 546.12H753.297L762.057 570.16L770.817 546.12H774.657Z" fill="black"/>
<path d="M931.438 401.08V410.4H941.598V413.4H931.438V423H942.798V426H927.798V398.08H942.798V401.08H931.438Z" fill="black"/>
<path d="M520.838 627.12L510.318 655H506.118L495.598 627.12H499.478L508.238 651.16L516.998 627.12H520.838Z" fill="black"/>
<path d="M344.749 637.12V640.08H337.149V665H333.509V640.08H325.869V637.12H344.749Z" fill="black"/>
<g filter="url(#filter21_d)">
<path d="M277.549 554.28C277.549 556.6 276.749 558.533 275.149 560.08C273.575 561.6 271.162 562.36 267.909 562.36H262.549V574H258.909V546.12H267.909C271.055 546.12 273.442 546.88 275.069 548.4C276.722 549.92 277.549 551.88 277.549 554.28ZM267.909 559.36C269.935 559.36 271.429 558.92 272.389 558.04C273.349 557.16 273.829 555.907 273.829 554.28C273.829 550.84 271.855 549.12 267.909 549.12H262.549V559.36H267.909Z" fill="black"/>
</g>
<g filter="url(#filter22_d)">
<path d="M675.697 405.28C675.697 407.6 674.897 409.533 673.297 411.08C671.723 412.6 669.31 413.36 666.057 413.36H660.697V425H657.057V397.12H666.057C669.203 397.12 671.59 397.88 673.217 399.4C674.87 400.92 675.697 402.88 675.697 405.28ZM666.057 410.36C668.083 410.36 669.577 409.92 670.537 409.04C671.497 408.16 671.977 406.907 671.977 405.28C671.977 401.84 670.003 400.12 666.057 400.12H660.697V410.36H666.057Z" fill="black"/>
</g>
<path d="M484.313 413.08L492.873 427H488.753L482.073 416.12L475.713 427H471.673L480.193 413.08L471.633 399.12H475.713L482.433 410.04L488.833 399.12H492.913L484.313 413.08Z" fill="black"/>
<path d="M335.434 213.28C333.594 213.28 331.941 212.96 330.474 212.32C329.034 211.653 327.901 210.747 327.074 209.6C326.247 208.427 325.821 207.08 325.794 205.56H329.674C329.807 206.867 330.341 207.973 331.274 208.88C332.234 209.76 333.621 210.2 335.434 210.2C337.167 210.2 338.527 209.773 339.514 208.92C340.527 208.04 341.034 206.92 341.034 205.56C341.034 204.493 340.741 203.627 340.154 202.96C339.567 202.293 338.834 201.787 337.954 201.44C337.074 201.093 335.887 200.72 334.394 200.32C332.554 199.84 331.074 199.36 329.954 198.88C328.861 198.4 327.914 197.653 327.114 196.64C326.341 195.6 325.954 194.213 325.954 192.48C325.954 190.96 326.341 189.613 327.114 188.44C327.887 187.267 328.967 186.36 330.354 185.72C331.767 185.08 333.381 184.76 335.194 184.76C337.807 184.76 339.941 185.413 341.594 186.72C343.274 188.027 344.221 189.76 344.434 191.92H340.434C340.301 190.853 339.741 189.92 338.754 189.12C337.767 188.293 336.461 187.88 334.834 187.88C333.314 187.88 332.074 188.28 331.114 189.08C330.154 189.853 329.674 190.947 329.674 192.36C329.674 193.373 329.954 194.2 330.514 194.84C331.101 195.48 331.807 195.973 332.634 196.32C333.487 196.64 334.674 197.013 336.194 197.44C338.034 197.947 339.514 198.453 340.634 198.96C341.754 199.44 342.714 200.2 343.514 201.24C344.314 202.253 344.714 203.64 344.714 205.4C344.714 206.76 344.354 208.04 343.634 209.24C342.914 210.44 341.847 211.413 340.434 212.16C339.021 212.907 337.354 213.28 335.434 213.28Z" fill="black"/>
<path d="M766.429 332.28C764.589 332.28 762.936 331.96 761.469 331.32C760.029 330.653 758.896 329.747 758.069 328.6C757.243 327.427 756.816 326.08 756.789 324.56H760.669C760.803 325.867 761.336 326.973 762.269 327.88C763.229 328.76 764.616 329.2 766.429 329.2C768.163 329.2 769.523 328.773 770.509 327.92C771.523 327.04 772.029 325.92 772.029 324.56C772.029 323.493 771.736 322.627 771.149 321.96C770.563 321.293 769.829 320.787 768.949 320.44C768.069 320.093 766.883 319.72 765.389 319.32C763.549 318.84 762.069 318.36 760.949 317.88C759.856 317.4 758.909 316.653 758.109 315.64C757.336 314.6 756.949 313.213 756.949 311.48C756.949 309.96 757.336 308.613 758.109 307.44C758.883 306.267 759.963 305.36 761.349 304.72C762.763 304.08 764.376 303.76 766.189 303.76C768.803 303.76 770.936 304.413 772.589 305.72C774.269 307.027 775.216 308.76 775.429 310.92H771.429C771.296 309.853 770.736 308.92 769.749 308.12C768.763 307.293 767.456 306.88 765.829 306.88C764.309 306.88 763.069 307.28 762.109 308.08C761.149 308.853 760.669 309.947 760.669 311.36C760.669 312.373 760.949 313.2 761.509 313.84C762.096 314.48 762.803 314.973 763.629 315.32C764.483 315.64 765.669 316.013 767.189 316.44C769.029 316.947 770.509 317.453 771.629 317.96C772.749 318.44 773.709 319.2 774.509 320.24C775.309 321.253 775.709 322.64 775.709 324.4C775.709 325.76 775.349 327.04 774.629 328.24C773.909 329.44 772.843 330.413 771.429 331.16C770.016 331.907 768.349 332.28 766.429 332.28Z" fill="black"/>
<path d="M266.115 304.12V307.08H258.515V332H254.875V307.08H247.235V304.12H266.115Z" fill="black"/>
<path d="M516.165 227.08L524.725 241H520.605L513.925 230.12L507.565 241H503.525L512.045 227.08L503.485 213.12H507.565L514.285 224.04L520.685 213.12H524.765L516.165 227.08Z" fill="black"/>
<path d="M107.637 402.64C108.651 402.8 109.571 403.213 110.397 403.88C111.251 404.547 111.917 405.373 112.397 406.36C112.904 407.347 113.157 408.4 113.157 409.52C113.157 410.933 112.797 412.213 112.077 413.36C111.357 414.48 110.304 415.373 108.917 416.04C107.557 416.68 105.944 417 104.077 417H93.6772V389.12H103.677C105.571 389.12 107.184 389.44 108.517 390.08C109.851 390.693 110.851 391.533 111.517 392.6C112.184 393.667 112.517 394.867 112.517 396.2C112.517 397.853 112.064 399.227 111.157 400.32C110.277 401.387 109.104 402.16 107.637 402.64ZM97.3172 401.16H103.437C105.144 401.16 106.464 400.76 107.397 399.96C108.331 399.16 108.797 398.053 108.797 396.64C108.797 395.227 108.331 394.12 107.397 393.32C106.464 392.52 105.117 392.12 103.357 392.12H97.3172V401.16ZM103.757 414C105.571 414 106.984 413.573 107.997 412.72C109.011 411.867 109.517 410.68 109.517 409.16C109.517 407.613 108.984 406.4 107.917 405.52C106.851 404.613 105.424 404.16 103.637 404.16H97.3172V414H103.757Z" fill="black"/>
<path d="M839.168 422.352L832.496 438H830.288L837.056 422.568H827.792V420.696H839.168V422.352Z" fill="#F3EAEA"/>
<path d="M645.552 594.544H637.128V600.016C637.496 599.504 638.04 599.088 638.76 598.768C639.48 598.432 640.256 598.264 641.088 598.264C642.416 598.264 643.496 598.544 644.328 599.104C645.16 599.648 645.752 600.36 646.104 601.24C646.472 602.104 646.656 603.024 646.656 604C646.656 605.152 646.44 606.184 646.008 607.096C645.576 608.008 644.912 608.728 644.016 609.256C643.136 609.784 642.04 610.048 640.728 610.048C639.048 610.048 637.688 609.616 636.648 608.752C635.608 607.888 634.976 606.736 634.752 605.296H636.888C637.096 606.208 637.536 606.92 638.208 607.432C638.88 607.944 639.728 608.2 640.752 608.2C642.016 608.2 642.968 607.824 643.608 607.072C644.248 606.304 644.568 605.296 644.568 604.048C644.568 602.8 644.248 601.84 643.608 601.168C642.968 600.48 642.024 600.136 640.776 600.136C639.928 600.136 639.184 600.344 638.544 600.76C637.92 601.16 637.464 601.712 637.176 602.416H635.112V592.624H645.552V594.544Z" fill="#F3EAEA"/>
<path d="M644.16 248.776C643.808 247 642.712 246.112 640.872 246.112C639.448 246.112 638.384 246.664 637.68 247.768C636.976 248.856 636.632 250.656 636.648 253.168C637.016 252.336 637.624 251.688 638.472 251.224C639.336 250.744 640.296 250.504 641.352 250.504C643 250.504 644.312 251.016 645.288 252.04C646.28 253.064 646.776 254.48 646.776 256.288C646.776 257.376 646.56 258.352 646.128 259.216C645.712 260.08 645.072 260.768 644.208 261.28C643.36 261.792 642.328 262.048 641.112 262.048C639.464 262.048 638.176 261.68 637.248 260.944C636.32 260.208 635.672 259.192 635.304 257.896C634.936 256.6 634.752 255 634.752 253.096C634.752 247.224 636.8 244.288 640.896 244.288C642.464 244.288 643.696 244.712 644.592 245.56C645.488 246.408 646.016 247.48 646.176 248.776H644.16ZM640.896 252.352C640.208 252.352 639.56 252.496 638.952 252.784C638.344 253.056 637.848 253.48 637.464 254.056C637.096 254.616 636.912 255.304 636.912 256.12C636.912 257.336 637.264 258.328 637.968 259.096C638.672 259.848 639.68 260.224 640.992 260.224C642.112 260.224 643 259.88 643.656 259.192C644.328 258.488 644.664 257.544 644.664 256.36C644.664 255.112 644.344 254.136 643.704 253.432C643.064 252.712 642.128 252.352 640.896 252.352Z" fill="#F3EAEA"/>
<path d="M377.96 607.136V605.48L386.384 593.816H389V605.24H391.4V607.136H389V611H386.84V607.136H377.96ZM386.936 596.096L380.48 605.24H386.936V596.096Z" fill="#F3EAEA"/>
<path d="M382.44 251.016C382.552 249.544 383.12 248.392 384.144 247.56C385.168 246.728 386.496 246.312 388.128 246.312C389.216 246.312 390.152 246.512 390.936 246.912C391.736 247.296 392.336 247.824 392.736 248.496C393.152 249.168 393.36 249.928 393.36 250.776C393.36 251.768 393.072 252.624 392.496 253.344C391.936 254.064 391.2 254.528 390.288 254.736V254.856C391.328 255.112 392.152 255.616 392.76 256.368C393.368 257.12 393.672 258.104 393.672 259.32C393.672 260.232 393.464 261.056 393.048 261.792C392.632 262.512 392.008 263.08 391.176 263.496C390.344 263.912 389.344 264.12 388.176 264.12C386.48 264.12 385.088 263.68 384 262.8C382.912 261.904 382.304 260.64 382.176 259.008H384.288C384.4 259.968 384.792 260.752 385.464 261.36C386.136 261.968 387.032 262.272 388.152 262.272C389.272 262.272 390.12 261.984 390.696 261.408C391.288 260.816 391.584 260.056 391.584 259.128C391.584 257.928 391.184 257.064 390.384 256.536C389.584 256.008 388.376 255.744 386.76 255.744H386.208V253.92H386.784C388.256 253.904 389.368 253.664 390.12 253.2C390.872 252.72 391.248 251.984 391.248 250.992C391.248 250.144 390.968 249.464 390.408 248.952C389.864 248.44 389.08 248.184 388.056 248.184C387.064 248.184 386.264 248.44 385.656 248.952C385.048 249.464 384.688 250.152 384.576 251.016H382.44Z" fill="#F3EAEA"/>
<path d="M1018.66 433.976C1017.76 433.624 1017.07 433.112 1016.59 432.44C1016.11 431.768 1015.87 430.952 1015.87 429.992C1015.87 429.128 1016.09 428.352 1016.52 427.664C1016.95 426.96 1017.59 426.408 1018.44 426.008C1019.3 425.592 1020.34 425.384 1021.56 425.384C1022.78 425.384 1023.81 425.592 1024.66 426.008C1025.52 426.408 1026.17 426.96 1026.6 427.664C1027.05 428.352 1027.27 429.128 1027.27 429.992C1027.27 430.92 1027.02 431.736 1026.53 432.44C1026.03 433.128 1025.35 433.64 1024.49 433.976C1025.48 434.28 1026.26 434.816 1026.84 435.584C1027.43 436.336 1027.73 437.248 1027.73 438.32C1027.73 439.36 1027.47 440.272 1026.96 441.056C1026.45 441.824 1025.72 442.424 1024.78 442.856C1023.85 443.272 1022.78 443.48 1021.56 443.48C1020.34 443.48 1019.27 443.272 1018.34 442.856C1017.43 442.424 1016.72 441.824 1016.21 441.056C1015.7 440.272 1015.44 439.36 1015.44 438.32C1015.44 437.248 1015.73 436.328 1016.3 435.56C1016.88 434.792 1017.66 434.264 1018.66 433.976ZM1025.16 430.256C1025.16 429.28 1024.84 428.528 1024.2 428C1023.56 427.472 1022.68 427.208 1021.56 427.208C1020.46 427.208 1019.58 427.472 1018.94 428C1018.3 428.528 1017.98 429.288 1017.98 430.28C1017.98 431.176 1018.31 431.896 1018.97 432.44C1019.64 432.984 1020.5 433.256 1021.56 433.256C1022.63 433.256 1023.5 432.984 1024.15 432.44C1024.82 431.88 1025.16 431.152 1025.16 430.256ZM1021.56 434.936C1020.38 434.936 1019.41 435.216 1018.66 435.776C1017.9 436.32 1017.53 437.144 1017.53 438.248C1017.53 439.272 1017.89 440.096 1018.61 440.72C1019.34 441.344 1020.33 441.656 1021.56 441.656C1022.79 441.656 1023.77 441.344 1024.49 440.72C1025.21 440.096 1025.57 439.272 1025.57 438.248C1025.57 437.176 1025.2 436.36 1024.46 435.8C1023.73 435.224 1022.76 434.936 1021.56 434.936Z" fill="#F3EAEA"/>
<path d="M39.912 424.64V422.648H44.424V440H42.216V424.64H39.912Z" fill="#F3EAEA"/>
<path d="M172.224 436.248C174.256 434.616 175.848 433.28 177 432.24C178.152 431.184 179.12 430.088 179.904 428.952C180.704 427.8 181.104 426.672 181.104 425.568C181.104 424.528 180.848 423.712 180.336 423.12C179.84 422.512 179.032 422.208 177.912 422.208C176.824 422.208 175.976 422.552 175.368 423.24C174.776 423.912 174.456 424.816 174.408 425.952H172.296C172.36 424.16 172.904 422.776 173.928 421.8C174.952 420.824 176.272 420.336 177.888 420.336C179.536 420.336 180.84 420.792 181.8 421.704C182.776 422.616 183.264 423.872 183.264 425.472C183.264 426.8 182.864 428.096 182.064 429.36C181.28 430.608 180.384 431.712 179.376 432.672C178.368 433.616 177.08 434.72 175.512 435.984H183.768V437.808H172.224V436.248Z" fill="#F3EAEA"/>
<g filter="url(#filter23_d)">
<rect x="883" y="493" width="341" height="323" rx="39" fill="#C4C4C4" stroke="#443B3B" stroke-width="4"/>
<line x1="1103.29" y1="497.093" x2="1103.29" y2="818" stroke="#443B3B"/>
<path d="M887 793.5H1220" stroke="black"/>
<line x1="881" y1="746.187" x2="1226" y2="746.187" stroke="#443B3B"/>
<line x1="881" y1="769.958" x2="1226" y2="769.958" stroke="#443B3B"/>
<line x1="881" y1="722.416" x2="1226" y2="722.417" stroke="#443B3B"/>
<line x1="881" y1="700.23" x2="1226" y2="700.23" stroke="#443B3B"/>
<line x1="881" y1="674.875" x2="1226" y2="674.875" stroke="#443B3B"/>
<line x1="881" y1="651.104" x2="1226" y2="651.104" stroke="#443B3B"/>
<line x1="881" y1="603.562" x2="1226" y2="603.562" stroke="#443B3B"/>
<line x1="881" y1="579.791" x2="1226" y2="579.791" stroke="#443B3B"/>
<line x1="881" y1="627.333" x2="1226" y2="627.333" stroke="#443B3B"/>
<line x1="881" y1="532.249" x2="1226" y2="532.249" stroke="#443B3B"/>
<line x1="881" y1="556.02" x2="1226" y2="556.02" stroke="#443B3B"/>
<path d="M921.957 545.342C922.348 544.952 922.348 544.318 921.957 543.928L915.593 537.564C915.203 537.173 914.569 537.173 914.179 537.564C913.788 537.954 913.788 538.588 914.179 538.978L919.836 544.635L914.179 550.292C913.788 550.682 913.788 551.315 914.179 551.706C914.569 552.097 915.203 552.097 915.593 551.706L921.957 545.342ZM896.607 545.635H921.25V543.635H896.607V545.635Z" fill="#443B3B"/>
<path d="M1051.87 505.34H1042.51L1050.49 513.41V515.54L1042.48 523.76H1051.87V525.89H1040.2V522.71L1048 514.55L1040.2 506.36V503.21H1051.87V505.34Z" fill="black"/>
<path d="M1051.87 505.34V506.34H1052.87V505.34H1051.87ZM1042.51 505.34V504.34H1040.11L1041.8 506.043L1042.51 505.34ZM1050.49 513.41H1051.49V512.999L1051.2 512.707L1050.49 513.41ZM1050.49 515.54L1051.2 516.238L1051.49 515.947V515.54H1050.49ZM1042.48 523.76L1041.76 523.062L1040.11 524.76H1042.48V523.76ZM1051.87 523.76H1052.87V522.76H1051.87V523.76ZM1051.87 525.89V526.89H1052.87V525.89H1051.87ZM1040.2 525.89H1039.2V526.89H1040.2V525.89ZM1040.2 522.71L1039.48 522.019L1039.2 522.309V522.71H1040.2ZM1048 514.55L1048.72 515.241L1049.38 514.551L1048.72 513.86L1048 514.55ZM1040.2 506.36H1039.2V506.76L1039.47 507.05L1040.2 506.36ZM1040.2 503.21V502.21H1039.2V503.21H1040.2ZM1051.87 503.21H1052.87V502.21H1051.87V503.21ZM1051.87 504.34H1042.51V506.34H1051.87V504.34ZM1041.8 506.043L1049.78 514.113L1051.2 512.707L1043.22 504.637L1041.8 506.043ZM1049.49 513.41V515.54H1051.49V513.41H1049.49ZM1049.77 514.842L1041.76 523.062L1043.19 524.458L1051.2 516.238L1049.77 514.842ZM1042.48 524.76H1051.87V522.76H1042.48V524.76ZM1050.87 523.76V525.89H1052.87V523.76H1050.87ZM1051.87 524.89H1040.2V526.89H1051.87V524.89ZM1041.2 525.89V522.71H1039.2V525.89H1041.2ZM1040.92 523.401L1048.72 515.241L1047.28 513.859L1039.48 522.019L1040.92 523.401ZM1048.72 513.86L1040.92 505.67L1039.47 507.05L1047.27 515.24L1048.72 513.86ZM1041.2 506.36V503.21H1039.2V506.36H1041.2ZM1040.2 504.21H1051.87V502.21H1040.2V504.21ZM1050.87 503.21V505.34H1052.87V503.21H1050.87Z" fill="black"/>
<path d="M956.907 800.368L951.069 814.06H949.137L955.059 800.557H946.953V798.919H956.907V800.368ZM1045.23 800.977V805.87H1050.57V807.445H1045.23V812.485H1051.2V814.06H1043.32V799.402H1051.2V800.977H1045.23ZM1157.32 806.164C1156.54 805.856 1155.93 805.408 1155.51 804.82C1155.09 804.232 1154.88 803.518 1154.88 802.678C1154.88 801.922 1155.07 801.243 1155.45 800.641C1155.83 800.025 1156.39 799.542 1157.13 799.192C1157.89 798.828 1158.8 798.646 1159.86 798.646C1160.92 798.646 1161.83 798.828 1162.57 799.192C1163.33 799.542 1163.89 800.025 1164.27 800.641C1164.66 801.243 1164.86 801.922 1164.86 802.678C1164.86 803.49 1164.64 804.204 1164.21 804.82C1163.77 805.422 1163.18 805.87 1162.42 806.164C1163.29 806.43 1163.98 806.899 1164.48 807.571C1165 808.229 1165.26 809.027 1165.26 809.965C1165.26 810.875 1165.03 811.673 1164.59 812.359C1164.14 813.031 1163.5 813.556 1162.67 813.934C1161.86 814.298 1160.92 814.48 1159.86 814.48C1158.8 814.48 1157.86 814.298 1157.05 813.934C1156.25 813.556 1155.63 813.031 1155.18 812.359C1154.73 811.673 1154.51 810.875 1154.51 809.965C1154.51 809.027 1154.76 808.222 1155.26 807.55C1155.77 806.878 1156.45 806.416 1157.32 806.164ZM1163.01 802.909C1163.01 802.055 1162.73 801.397 1162.17 800.935C1161.61 800.473 1160.84 800.242 1159.86 800.242C1158.89 800.242 1158.13 800.473 1157.57 800.935C1157.01 801.397 1156.73 802.062 1156.73 802.93C1156.73 803.714 1157.02 804.344 1157.59 804.82C1158.18 805.296 1158.94 805.534 1159.86 805.534C1160.8 805.534 1161.55 805.296 1162.13 804.82C1162.72 804.33 1163.01 803.693 1163.01 802.909ZM1159.86 807.004C1158.82 807.004 1157.98 807.249 1157.32 807.739C1156.66 808.215 1156.33 808.936 1156.33 809.902C1156.33 810.798 1156.65 811.519 1157.28 812.065C1157.92 812.611 1158.78 812.884 1159.86 812.884C1160.94 812.884 1161.79 812.611 1162.42 812.065C1163.05 811.519 1163.37 810.798 1163.37 809.902C1163.37 808.964 1163.05 808.25 1162.4 807.76C1161.76 807.256 1160.91 807.004 1159.86 807.004ZM1174.62 799.99L1175.38 801.355L1172.46 802.573L1175.4 803.77L1174.6 805.177L1172.06 803.329L1172.39 806.5H1170.82L1171.13 803.329L1168.59 805.198L1167.77 803.77L1170.69 802.552L1167.77 801.376L1168.55 799.969L1171.16 801.838L1170.82 798.646H1172.42L1172.06 801.838L1174.62 799.99Z" fill="black"/>
<path d="M956.025 780.303C955.717 778.749 954.758 777.972 953.148 777.972C951.902 777.972 950.971 778.455 950.355 779.421C949.739 780.373 949.438 781.948 949.452 784.146C949.774 783.418 950.306 782.851 951.048 782.445C951.804 782.025 952.644 781.815 953.568 781.815C955.01 781.815 956.158 782.263 957.012 783.159C957.88 784.055 958.314 785.294 958.314 786.876C958.314 787.828 958.125 788.682 957.747 789.438C957.383 790.194 956.823 790.796 956.067 791.244C955.325 791.692 954.422 791.916 953.358 791.916C951.916 791.916 950.789 791.594 949.977 790.95C949.165 790.306 948.598 789.417 948.276 788.283C947.954 787.149 947.793 785.749 947.793 784.083C947.793 778.945 949.585 776.376 953.169 776.376C954.541 776.376 955.619 776.747 956.403 777.489C957.187 778.231 957.649 779.169 957.789 780.303H956.025ZM953.169 783.432C952.567 783.432 952 783.558 951.468 783.81C950.936 784.048 950.502 784.419 950.166 784.923C949.844 785.413 949.683 786.015 949.683 786.729C949.683 787.793 949.991 788.661 950.607 789.333C951.223 789.991 952.105 790.32 953.253 790.32C954.233 790.32 955.01 790.019 955.584 789.417C956.172 788.801 956.466 787.975 956.466 786.939C956.466 785.847 956.186 784.993 955.626 784.377C955.066 783.747 954.247 783.432 953.169 783.432ZM1049.83 792.021C1048.86 792.021 1047.99 791.853 1047.22 791.517C1046.47 791.167 1045.87 790.691 1045.44 790.089C1045 789.473 1044.78 788.766 1044.77 787.968H1046.8C1046.87 788.654 1047.15 789.235 1047.64 789.711C1048.15 790.173 1048.88 790.404 1049.83 790.404C1050.74 790.404 1051.45 790.18 1051.97 789.732C1052.5 789.27 1052.77 788.682 1052.77 787.968C1052.77 787.408 1052.61 786.953 1052.31 786.603C1052 786.253 1051.61 785.987 1051.15 785.805C1050.69 785.623 1050.07 785.427 1049.28 785.217C1048.32 784.965 1047.54 784.713 1046.95 784.461C1046.38 784.209 1045.88 783.817 1045.46 783.285C1045.05 782.739 1044.85 782.011 1044.85 781.101C1044.85 780.303 1045.05 779.596 1045.46 778.98C1045.87 778.364 1046.43 777.888 1047.16 777.552C1047.9 777.216 1048.75 777.048 1049.7 777.048C1051.07 777.048 1052.19 777.391 1053.06 778.077C1053.94 778.763 1054.44 779.673 1054.55 780.807H1052.45C1052.38 780.247 1052.09 779.757 1051.57 779.337C1051.05 778.903 1050.37 778.686 1049.51 778.686C1048.71 778.686 1048.06 778.896 1047.56 779.316C1047.06 779.722 1046.8 780.296 1046.8 781.038C1046.8 781.57 1046.95 782.004 1047.24 782.34C1047.55 782.676 1047.92 782.935 1048.36 783.117C1048.81 783.285 1049.43 783.481 1050.23 783.705C1051.19 783.971 1051.97 784.237 1052.56 784.503C1053.15 784.755 1053.65 785.154 1054.07 785.7C1054.49 786.232 1054.7 786.96 1054.7 787.884C1054.7 788.598 1054.51 789.27 1054.13 789.9C1053.75 790.53 1053.19 791.041 1052.45 791.433C1051.71 791.825 1050.84 792.021 1049.83 792.021ZM1167.32 778.182L1161.48 791.874H1159.55L1165.47 778.371H1157.36V776.733H1167.32V778.182Z" fill="black"/>
<path d="M957.243 732.392H949.872V737.18C950.194 736.732 950.67 736.368 951.3 736.088C951.93 735.794 952.609 735.647 953.337 735.647C954.499 735.647 955.444 735.892 956.172 736.382C956.9 736.858 957.418 737.481 957.726 738.251C958.048 739.007 958.209 739.812 958.209 740.666C958.209 741.674 958.02 742.577 957.642 743.375C957.264 744.173 956.683 744.803 955.899 745.265C955.129 745.727 954.17 745.958 953.022 745.958C951.552 745.958 950.362 745.58 949.452 744.824C948.542 744.068 947.989 743.06 947.793 741.8H949.662C949.844 742.598 950.229 743.221 950.817 743.669C951.405 744.117 952.147 744.341 953.043 744.341C954.149 744.341 954.982 744.012 955.542 743.354C956.102 742.682 956.382 741.8 956.382 740.708C956.382 739.616 956.102 738.776 955.542 738.188C954.982 737.586 954.156 737.285 953.064 737.285C952.322 737.285 951.671 737.467 951.111 737.831C950.565 738.181 950.166 738.664 949.914 739.28H948.108V730.712H957.243V732.392ZM1057.14 731.279L1051.62 745.916H1049.41L1043.89 731.279H1045.93L1050.52 743.9L1055.12 731.279H1057.14ZM1169.04 732.224L1163.2 745.916H1161.27L1167.19 732.413H1159.09V730.775H1169.04V732.224Z" fill="black"/>
<path d="M957.243 707.037H949.872V711.825C950.194 711.377 950.67 711.013 951.3 710.733C951.93 710.439 952.609 710.292 953.337 710.292C954.499 710.292 955.444 710.537 956.172 711.027C956.9 711.503 957.418 712.126 957.726 712.896C958.048 713.652 958.209 714.457 958.209 715.311C958.209 716.319 958.02 717.222 957.642 718.02C957.264 718.818 956.683 719.448 955.899 719.91C955.129 720.372 954.17 720.603 953.022 720.603C951.552 720.603 950.362 720.225 949.452 719.469C948.542 718.713 947.989 717.705 947.793 716.445H949.662C949.844 717.243 950.229 717.866 950.817 718.314C951.405 718.762 952.147 718.986 953.043 718.986C954.149 718.986 954.982 718.657 955.542 717.999C956.102 717.327 956.382 716.445 956.382 715.353C956.382 714.261 956.102 713.421 955.542 712.833C954.982 712.231 954.156 711.93 953.064 711.93C952.322 711.93 951.671 712.112 951.111 712.476C950.565 712.826 950.166 713.309 949.914 713.925H948.108V705.357H957.243V707.037ZM1054.83 710.208C1054.83 711.426 1054.41 712.441 1053.57 713.253C1052.74 714.051 1051.48 714.45 1049.77 714.45H1046.95V720.561H1045.04V705.924H1049.77C1051.42 705.924 1052.67 706.323 1053.53 707.121C1054.4 707.919 1054.83 708.948 1054.83 710.208ZM1049.77 712.875C1050.83 712.875 1051.62 712.644 1052.12 712.182C1052.62 711.72 1052.88 711.062 1052.88 710.208C1052.88 708.402 1051.84 707.499 1049.77 707.499H1046.95V712.875H1049.77ZM1166.13 708.99C1165.82 707.436 1164.86 706.659 1163.25 706.659C1162 706.659 1161.07 707.142 1160.46 708.108C1159.84 709.06 1159.54 710.635 1159.55 712.833C1159.88 712.105 1160.41 711.538 1161.15 711.132C1161.91 710.712 1162.75 710.502 1163.67 710.502C1165.11 710.502 1166.26 710.95 1167.11 711.846C1167.98 712.742 1168.42 713.981 1168.42 715.563C1168.42 716.515 1168.23 717.369 1167.85 718.125C1167.49 718.881 1166.93 719.483 1166.17 719.931C1165.43 720.379 1164.52 720.603 1163.46 720.603C1162.02 720.603 1160.89 720.281 1160.08 719.637C1159.27 718.993 1158.7 718.104 1158.38 716.97C1158.06 715.836 1157.9 714.436 1157.9 712.77C1157.9 707.632 1159.69 705.063 1163.27 705.063C1164.64 705.063 1165.72 705.434 1166.51 706.176C1167.29 706.918 1167.75 707.856 1167.89 708.99H1166.13ZM1163.27 712.119C1162.67 712.119 1162.1 712.245 1161.57 712.497C1161.04 712.735 1160.6 713.106 1160.27 713.61C1159.95 714.1 1159.79 714.702 1159.79 715.416C1159.79 716.48 1160.09 717.348 1160.71 718.02C1161.33 718.678 1162.21 719.007 1163.36 719.007C1164.34 719.007 1165.11 718.706 1165.69 718.104C1166.27 717.488 1166.57 716.662 1166.57 715.626C1166.57 714.534 1166.29 713.68 1165.73 713.064C1165.17 712.434 1164.35 712.119 1163.27 712.119Z" fill="black"/>
<path d="M956.025 756.532C955.717 754.978 954.758 754.201 953.148 754.201C951.902 754.201 950.971 754.684 950.355 755.65C949.739 756.602 949.438 758.177 949.452 760.375C949.774 759.647 950.306 759.08 951.048 758.674C951.804 758.254 952.644 758.044 953.568 758.044C955.01 758.044 956.158 758.492 957.012 759.388C957.88 760.284 958.314 761.523 958.314 763.105C958.314 764.057 958.125 764.911 957.747 765.667C957.383 766.423 956.823 767.025 956.067 767.473C955.325 767.921 954.422 768.145 953.358 768.145C951.916 768.145 950.789 767.823 949.977 767.179C949.165 766.535 948.598 765.646 948.276 764.512C947.954 763.378 947.793 761.978 947.793 760.312C947.793 755.174 949.585 752.605 953.169 752.605C954.541 752.605 955.619 752.976 956.403 753.718C957.187 754.46 957.649 755.398 957.789 756.532H956.025ZM953.169 759.661C952.567 759.661 952 759.787 951.468 760.039C950.936 760.277 950.502 760.648 950.166 761.152C949.844 761.642 949.683 762.244 949.683 762.958C949.683 764.022 949.991 764.89 950.607 765.562C951.223 766.22 952.105 766.549 953.253 766.549C954.233 766.549 955.01 766.248 955.584 765.646C956.172 765.03 956.466 764.204 956.466 763.168C956.466 762.076 956.186 761.222 955.626 760.606C955.066 759.976 954.247 759.661 953.169 759.661ZM1051.17 760.795L1055.67 768.103H1053.5L1050 762.391L1046.66 768.103H1044.54L1049.01 760.795L1044.51 753.466H1046.66L1050.18 759.199L1053.54 753.466H1055.69L1051.17 760.795ZM1158.23 764.722V763.273L1165.6 753.067H1167.89V763.063H1169.99V764.722H1167.89V768.103H1166V764.722H1158.23ZM1166.08 755.062L1160.43 763.063H1166.08V755.062Z" fill="black"/>
<path d="M947.1 693.409V691.96L954.471 681.754H956.76V691.75H958.86V693.409H956.76V696.79H954.87V693.409H947.1ZM954.954 683.749L949.305 691.75H954.954V683.749ZM1057.16 682.153L1051.64 696.79H1049.43L1043.91 682.153H1045.95L1050.54 694.774L1055.14 682.153H1057.16ZM1169.4 683.266H1162.03V688.054C1162.35 687.606 1162.82 687.242 1163.45 686.962C1164.08 686.668 1164.76 686.521 1165.49 686.521C1166.65 686.521 1167.6 686.766 1168.33 687.256C1169.05 687.732 1169.57 688.355 1169.88 689.125C1170.2 689.881 1170.36 690.686 1170.36 691.54C1170.36 692.548 1170.17 693.451 1169.8 694.249C1169.42 695.047 1168.84 695.677 1168.05 696.139C1167.28 696.601 1166.32 696.832 1165.18 696.832C1163.71 696.832 1162.52 696.454 1161.61 695.698C1160.7 694.942 1160.14 693.934 1159.95 692.674H1161.82C1162 693.472 1162.38 694.095 1162.97 694.543C1163.56 694.991 1164.3 695.215 1165.2 695.215C1166.3 695.215 1167.14 694.886 1167.7 694.228C1168.26 693.556 1168.54 692.674 1168.54 691.582C1168.54 690.49 1168.26 689.65 1167.7 689.062C1167.14 688.46 1166.31 688.159 1165.22 688.159C1164.48 688.159 1163.82 688.341 1163.26 688.705C1162.72 689.055 1162.32 689.538 1162.07 690.154H1160.26V681.586H1169.4V683.266Z" fill="black"/>
<path d="M947.1 669.638V668.189L954.471 657.983H956.76V667.979H958.86V669.638H956.76V673.019H954.87V669.638H947.1ZM954.954 659.978L949.305 667.979H954.954V659.978ZM1054.07 658.382V659.936H1050.08V673.019H1048.17V659.936H1044.16V658.382H1054.07ZM1156.42 669.638V668.189L1163.79 657.983H1166.08V667.979H1168.18V669.638H1166.08V673.019H1164.19V669.638H1156.42ZM1164.28 659.978L1158.63 667.979H1164.28V659.978Z" fill="black"/>
<path d="M947.52 637.887C947.618 636.599 948.115 635.591 949.011 634.863C949.907 634.135 951.069 633.771 952.497 633.771C953.449 633.771 954.268 633.946 954.954 634.296C955.654 634.632 956.179 635.094 956.529 635.682C956.893 636.27 957.075 636.935 957.075 637.677C957.075 638.545 956.823 639.294 956.319 639.924C955.829 640.554 955.185 640.96 954.387 641.142V641.247C955.297 641.471 956.018 641.912 956.55 642.57C957.082 643.228 957.348 644.089 957.348 645.153C957.348 645.951 957.166 646.672 956.802 647.316C956.438 647.946 955.892 648.443 955.164 648.807C954.436 649.171 953.561 649.353 952.539 649.353C951.055 649.353 949.837 648.968 948.885 648.198C947.933 647.414 947.401 646.308 947.289 644.88H949.137C949.235 645.72 949.578 646.406 950.166 646.938C950.754 647.47 951.538 647.736 952.518 647.736C953.498 647.736 954.24 647.484 954.744 646.98C955.262 646.462 955.521 645.797 955.521 644.985C955.521 643.935 955.171 643.179 954.471 642.717C953.771 642.255 952.714 642.024 951.3 642.024H950.817V640.428H951.321C952.609 640.414 953.582 640.204 954.24 639.798C954.898 639.378 955.227 638.734 955.227 637.866C955.227 637.124 954.982 636.529 954.492 636.081C954.016 635.633 953.33 635.409 952.434 635.409C951.566 635.409 950.866 635.633 950.334 636.081C949.802 636.529 949.487 637.131 949.389 637.887H947.52ZM1050.21 641.94L1054.7 649.248H1052.54L1049.03 643.536L1045.69 649.248H1043.57L1048.04 641.94L1043.55 634.611H1045.69L1049.22 640.344L1052.58 634.611H1054.72L1050.21 641.94ZM1166.19 637.677C1165.88 636.123 1164.92 635.346 1163.31 635.346C1162.07 635.346 1161.14 635.829 1160.52 636.795C1159.9 637.747 1159.6 639.322 1159.62 641.52C1159.94 640.792 1160.47 640.225 1161.21 639.819C1161.97 639.399 1162.81 639.189 1163.73 639.189C1165.17 639.189 1166.32 639.637 1167.18 640.533C1168.04 641.429 1168.48 642.668 1168.48 644.25C1168.48 645.202 1168.29 646.056 1167.91 646.812C1167.55 647.568 1166.99 648.17 1166.23 648.618C1165.49 649.066 1164.59 649.29 1163.52 649.29C1162.08 649.29 1160.95 648.968 1160.14 648.324C1159.33 647.68 1158.76 646.791 1158.44 645.657C1158.12 644.523 1157.96 643.123 1157.96 641.457C1157.96 636.319 1159.75 633.75 1163.33 633.75C1164.71 633.75 1165.78 634.121 1166.57 634.863C1167.35 635.605 1167.81 636.543 1167.95 637.677H1166.19ZM1163.33 640.806C1162.73 640.806 1162.16 640.932 1161.63 641.184C1161.1 641.422 1160.67 641.793 1160.33 642.297C1160.01 642.787 1159.85 643.389 1159.85 644.103C1159.85 645.167 1160.16 646.035 1160.77 646.707C1161.39 647.365 1162.27 647.694 1163.42 647.694C1164.4 647.694 1165.17 647.393 1165.75 646.791C1166.34 646.175 1166.63 645.349 1166.63 644.313C1166.63 643.221 1166.35 642.367 1165.79 641.751C1165.23 641.121 1164.41 640.806 1163.33 640.806Z" fill="black"/>
<path d="M947.52 614.116C947.618 612.828 948.115 611.82 949.011 611.092C949.907 610.364 951.069 610 952.497 610C953.449 610 954.268 610.175 954.954 610.525C955.654 610.861 956.179 611.323 956.529 611.911C956.893 612.499 957.075 613.164 957.075 613.906C957.075 614.774 956.823 615.523 956.319 616.153C955.829 616.783 955.185 617.189 954.387 617.371V617.476C955.297 617.7 956.018 618.141 956.55 618.799C957.082 619.457 957.348 620.318 957.348 621.382C957.348 622.18 957.166 622.901 956.802 623.545C956.438 624.175 955.892 624.672 955.164 625.036C954.436 625.4 953.561 625.582 952.539 625.582C951.055 625.582 949.837 625.197 948.885 624.427C947.933 623.643 947.401 622.537 947.289 621.109H949.137C949.235 621.949 949.578 622.635 950.166 623.167C950.754 623.699 951.538 623.965 952.518 623.965C953.498 623.965 954.24 623.713 954.744 623.209C955.262 622.691 955.521 622.026 955.521 621.214C955.521 620.164 955.171 619.408 954.471 618.946C953.771 618.484 952.714 618.253 951.3 618.253H950.817V616.657H951.321C952.609 616.643 953.582 616.433 954.24 616.027C954.898 615.607 955.227 614.963 955.227 614.095C955.227 613.353 954.982 612.758 954.492 612.31C954.016 611.862 953.33 611.638 952.434 611.638C951.566 611.638 950.866 611.862 950.334 612.31C949.802 612.758 949.487 613.36 949.389 614.116H947.52ZM1048.86 625.624C1047.9 625.624 1047.03 625.456 1046.26 625.12C1045.5 624.77 1044.91 624.294 1044.47 623.692C1044.04 623.076 1043.82 622.369 1043.8 621.571H1045.84C1045.91 622.257 1046.19 622.838 1046.68 623.314C1047.18 623.776 1047.91 624.007 1048.86 624.007C1049.77 624.007 1050.49 623.783 1051.01 623.335C1051.54 622.873 1051.8 622.285 1051.8 621.571C1051.8 621.011 1051.65 620.556 1051.34 620.206C1051.03 619.856 1050.65 619.59 1050.19 619.408C1049.72 619.226 1049.1 619.03 1048.32 618.82C1047.35 618.568 1046.57 618.316 1045.99 618.064C1045.41 617.812 1044.92 617.42 1044.5 616.888C1044.09 616.342 1043.89 615.614 1043.89 614.704C1043.89 613.906 1044.09 613.199 1044.5 612.583C1044.9 611.967 1045.47 611.491 1046.2 611.155C1046.94 610.819 1047.79 610.651 1048.74 610.651C1050.11 610.651 1051.23 610.994 1052.1 611.68C1052.98 612.366 1053.48 613.276 1053.59 614.41H1051.49C1051.42 613.85 1051.12 613.36 1050.61 612.94C1050.09 612.506 1049.4 612.289 1048.55 612.289C1047.75 612.289 1047.1 612.499 1046.6 612.919C1046.09 613.325 1045.84 613.899 1045.84 614.641C1045.84 615.173 1045.99 615.607 1046.28 615.943C1046.59 616.279 1046.96 616.538 1047.39 616.72C1047.84 616.888 1048.46 617.084 1049.26 617.308C1050.23 617.574 1051.01 617.84 1051.59 618.106C1052.18 618.358 1052.69 618.757 1053.11 619.303C1053.53 619.835 1053.74 620.563 1053.74 621.487C1053.74 622.201 1053.55 622.873 1053.17 623.503C1052.79 624.133 1052.23 624.644 1051.49 625.036C1050.75 625.428 1049.87 625.624 1048.86 625.624ZM1156.97 614.116C1157.06 612.828 1157.56 611.82 1158.46 611.092C1159.35 610.364 1160.52 610 1161.94 610C1162.9 610 1163.71 610.175 1164.4 610.525C1165.1 610.861 1165.63 611.323 1165.98 611.911C1166.34 612.499 1166.52 613.164 1166.52 613.906C1166.52 614.774 1166.27 615.523 1165.77 616.153C1165.28 616.783 1164.63 617.189 1163.83 617.371V617.476C1164.74 617.7 1165.46 618.141 1166 618.799C1166.53 619.457 1166.79 620.318 1166.79 621.382C1166.79 622.18 1166.61 622.901 1166.25 623.545C1165.88 624.175 1165.34 624.672 1164.61 625.036C1163.88 625.4 1163.01 625.582 1161.99 625.582C1160.5 625.582 1159.28 625.197 1158.33 624.427C1157.38 623.643 1156.85 622.537 1156.74 621.109H1158.58C1158.68 621.949 1159.02 622.635 1159.61 623.167C1160.2 623.699 1160.98 623.965 1161.96 623.965C1162.94 623.965 1163.69 623.713 1164.19 623.209C1164.71 622.691 1164.97 622.026 1164.97 621.214C1164.97 620.164 1164.62 619.408 1163.92 618.946C1163.22 618.484 1162.16 618.253 1160.75 618.253H1160.26V616.657H1160.77C1162.06 616.643 1163.03 616.433 1163.69 616.027C1164.34 615.607 1164.67 614.963 1164.67 614.095C1164.67 613.353 1164.43 612.758 1163.94 612.31C1163.46 611.862 1162.78 611.638 1161.88 611.638C1161.01 611.638 1160.31 611.862 1159.78 612.31C1159.25 612.758 1158.93 613.36 1158.84 614.116H1156.97Z" fill="black"/>
<path d="M947.331 601.758C949.109 600.33 950.502 599.161 951.51 598.251C952.518 597.327 953.365 596.368 954.051 595.374C954.751 594.366 955.101 593.379 955.101 592.413C955.101 591.503 954.877 590.789 954.429 590.271C953.995 589.739 953.288 589.473 952.308 589.473C951.356 589.473 950.614 589.774 950.082 590.376C949.564 590.964 949.284 591.755 949.242 592.749H947.394C947.45 591.181 947.926 589.97 948.822 589.116C949.718 588.262 950.873 587.835 952.287 587.835C953.729 587.835 954.87 588.234 955.71 589.032C956.564 589.83 956.991 590.929 956.991 592.329C956.991 593.491 956.641 594.625 955.941 595.731C955.255 596.823 954.471 597.789 953.589 598.629C952.707 599.455 951.58 600.421 950.208 601.527H957.432V603.123H947.331V601.758ZM1053.72 592.938C1053.72 594.156 1053.3 595.171 1052.46 595.983C1051.64 596.781 1050.37 597.18 1048.66 597.18H1045.85V603.291H1043.94V588.654H1048.66C1050.31 588.654 1051.57 589.053 1052.42 589.851C1053.29 590.649 1053.72 591.678 1053.72 592.938ZM1048.66 595.605C1049.72 595.605 1050.51 595.374 1051.01 594.912C1051.52 594.45 1051.77 593.792 1051.77 592.938C1051.77 591.132 1050.73 590.229 1048.66 590.229H1045.85V595.605H1048.66ZM1156.1 599.91V598.461L1163.47 588.255H1165.76V598.251H1167.86V599.91H1165.76V603.291H1163.87V599.91H1156.1ZM1163.95 590.25L1158.3 598.251H1163.95V590.25Z" fill="black"/>
<path d="M947.331 576.403C949.109 574.975 950.502 573.806 951.51 572.896C952.518 571.972 953.365 571.013 954.051 570.019C954.751 569.011 955.101 568.024 955.101 567.058C955.101 566.148 954.877 565.434 954.429 564.916C953.995 564.384 953.288 564.118 952.308 564.118C951.356 564.118 950.614 564.419 950.082 565.021C949.564 565.609 949.284 566.4 949.242 567.394H947.394C947.45 565.826 947.926 564.615 948.822 563.761C949.718 562.907 950.873 562.48 952.287 562.48C953.729 562.48 954.87 562.879 955.71 563.677C956.564 564.475 956.991 565.574 956.991 566.974C956.991 568.136 956.641 569.27 955.941 570.376C955.255 571.468 954.471 572.434 953.589 573.274C952.707 574.1 951.58 575.066 950.208 576.172H957.432V577.768H947.331V576.403ZM1052.94 563.299V564.853H1048.95V577.936H1047.04V564.853H1043.03V563.299H1052.94ZM1155.72 566.575C1155.81 565.287 1156.31 564.279 1157.21 563.551C1158.1 562.823 1159.26 562.459 1160.69 562.459C1161.64 562.459 1162.46 562.634 1163.15 562.984C1163.85 563.32 1164.37 563.782 1164.72 564.37C1165.09 564.958 1165.27 565.623 1165.27 566.365C1165.27 567.233 1165.02 567.982 1164.51 568.612C1164.02 569.242 1163.38 569.648 1162.58 569.83V569.935C1163.49 570.159 1164.21 570.6 1164.75 571.258C1165.28 571.916 1165.54 572.777 1165.54 573.841C1165.54 574.639 1165.36 575.36 1165 576.004C1164.63 576.634 1164.09 577.131 1163.36 577.495C1162.63 577.859 1161.76 578.041 1160.73 578.041C1159.25 578.041 1158.03 577.656 1157.08 576.886C1156.13 576.102 1155.6 574.996 1155.48 573.568H1157.33C1157.43 574.408 1157.77 575.094 1158.36 575.626C1158.95 576.158 1159.73 576.424 1160.71 576.424C1161.69 576.424 1162.44 576.172 1162.94 575.668C1163.46 575.15 1163.72 574.485 1163.72 573.673C1163.72 572.623 1163.37 571.867 1162.67 571.405C1161.97 570.943 1160.91 570.712 1159.5 570.712H1159.01V569.116H1159.52C1160.8 569.102 1161.78 568.892 1162.44 568.486C1163.09 568.066 1163.42 567.422 1163.42 566.554C1163.42 565.812 1163.18 565.217 1162.69 564.769C1162.21 564.321 1161.53 564.097 1160.63 564.097C1159.76 564.097 1159.06 564.321 1158.53 564.769C1158 565.217 1157.68 565.819 1157.58 566.575H1155.72Z" fill="black"/>
<path d="M947.058 540.725V538.982H951.006V554.165H949.074V540.725H947.058ZM1051.51 546.626C1052.04 546.71 1052.53 546.927 1052.96 547.277C1053.41 547.627 1053.76 548.061 1054.01 548.579C1054.28 549.097 1054.41 549.65 1054.41 550.238C1054.41 550.98 1054.22 551.652 1053.84 552.254C1053.46 552.842 1052.91 553.311 1052.18 553.661C1051.47 553.997 1050.62 554.165 1049.64 554.165H1044.18V539.528H1049.43C1050.43 539.528 1051.27 539.696 1051.97 540.032C1052.67 540.354 1053.2 540.795 1053.55 541.355C1053.9 541.915 1054.07 542.545 1054.07 543.245C1054.07 544.113 1053.83 544.834 1053.36 545.408C1052.9 545.968 1052.28 546.374 1051.51 546.626ZM1046.09 545.849H1049.31C1050.2 545.849 1050.89 545.639 1051.38 545.219C1051.87 544.799 1052.12 544.218 1052.12 543.476C1052.12 542.734 1051.87 542.153 1051.38 541.733C1050.89 541.313 1050.19 541.103 1049.26 541.103H1046.09V545.849ZM1049.47 552.59C1050.43 552.59 1051.17 552.366 1051.7 551.918C1052.23 551.47 1052.5 550.847 1052.5 550.049C1052.5 549.237 1052.22 548.6 1051.66 548.138C1051.1 547.662 1050.35 547.424 1049.41 547.424H1046.09V552.59H1049.47ZM1157.29 552.632C1159.07 551.204 1160.46 550.035 1161.47 549.125C1162.48 548.201 1163.32 547.242 1164.01 546.248C1164.71 545.24 1165.06 544.253 1165.06 543.287C1165.06 542.377 1164.84 541.663 1164.39 541.145C1163.95 540.613 1163.25 540.347 1162.27 540.347C1161.32 540.347 1160.57 540.648 1160.04 541.25C1159.52 541.838 1159.24 542.629 1159.2 543.623H1157.35C1157.41 542.055 1157.89 540.844 1158.78 539.99C1159.68 539.136 1160.83 538.709 1162.25 538.709C1163.69 538.709 1164.83 539.108 1165.67 539.906C1166.52 540.704 1166.95 541.803 1166.95 543.203C1166.95 544.365 1166.6 545.499 1165.9 546.605C1165.21 547.697 1164.43 548.663 1163.55 549.503C1162.67 550.329 1161.54 551.295 1160.17 552.401H1167.39V553.997H1157.29V552.632Z" fill="black"/>
<path d="M959.81 527.96L955.64 523.79C954.62 524.07 953.58 524.21 952.52 524.21C950.58 524.21 948.81 523.76 947.21 522.86C945.61 521.94 944.34 520.67 943.4 519.05C942.48 517.41 942.02 515.57 942.02 513.53C942.02 511.49 942.48 509.66 943.4 508.04C944.34 506.4 945.61 505.13 947.21 504.23C948.81 503.31 950.58 502.85 952.52 502.85C954.48 502.85 956.26 503.31 957.86 504.23C959.46 505.13 960.72 506.39 961.64 508.01C962.56 509.63 963.02 511.47 963.02 513.53C963.02 515.53 962.58 517.33 961.7 518.93C960.82 520.53 959.61 521.79 958.07 522.71L963.35 527.96H959.81ZM944.81 513.53C944.81 515.19 945.14 516.65 945.8 517.91C946.48 519.17 947.4 520.14 948.56 520.82C949.74 521.5 951.06 521.84 952.52 521.84C953.98 521.84 955.29 521.5 956.45 520.82C957.63 520.14 958.55 519.17 959.21 517.91C959.89 516.65 960.23 515.19 960.23 513.53C960.23 511.85 959.89 510.39 959.21 509.15C958.55 507.89 957.64 506.92 956.48 506.24C955.32 505.56 954 505.22 952.52 505.22C951.04 505.22 949.72 505.56 948.56 506.24C947.4 506.92 946.48 507.89 945.8 509.15C945.14 510.39 944.81 511.85 944.81 513.53Z" fill="black"/>
<path d="M959.81 527.96L959.103 528.667L959.396 528.96H959.81V527.96ZM955.64 523.79L956.348 523.083L955.936 522.672L955.376 522.826L955.64 523.79ZM947.21 522.86L946.712 523.727L946.72 523.732L947.21 522.86ZM943.4 519.05L942.528 519.539L942.532 519.546L942.536 519.552L943.4 519.05ZM943.4 508.04L942.533 507.543L942.531 507.546L943.4 508.04ZM947.21 504.23L947.701 505.102L947.709 505.097L947.21 504.23ZM957.86 504.23L957.362 505.097L957.37 505.102L957.86 504.23ZM961.64 508.01L962.51 507.516L962.51 507.516L961.64 508.01ZM961.7 518.93L962.577 519.412L962.577 519.412L961.7 518.93ZM958.07 522.71L957.558 521.852L956.453 522.512L957.365 523.419L958.07 522.71ZM963.35 527.96V528.96H965.774L964.056 527.251L963.35 527.96ZM945.8 517.91L944.915 518.374L944.92 518.385L945.8 517.91ZM948.56 520.82L948.055 521.683L948.061 521.686L948.56 520.82ZM956.45 520.82L955.951 519.954L955.945 519.957L956.45 520.82ZM959.21 517.91L958.33 517.435L958.325 517.446L959.21 517.91ZM959.21 509.15L958.325 509.614L958.329 509.622L958.334 509.631L959.21 509.15ZM956.48 506.24L955.975 507.103L955.975 507.103L956.48 506.24ZM948.56 506.24L949.066 507.103L949.066 507.103L948.56 506.24ZM945.8 509.15L944.92 508.675L944.918 508.68L945.8 509.15ZM960.518 527.253L956.348 523.083L954.933 524.497L959.103 528.667L960.518 527.253ZM955.376 522.826C954.442 523.082 953.491 523.21 952.52 523.21V525.21C953.67 525.21 954.799 525.058 955.905 524.754L955.376 522.826ZM952.52 523.21C950.742 523.21 949.142 522.799 947.701 521.988L946.72 523.732C948.478 524.721 950.419 525.21 952.52 525.21V523.21ZM947.709 521.993C946.263 521.162 945.119 520.019 944.265 518.548L942.536 519.552C943.562 521.321 944.958 522.718 946.712 523.727L947.709 521.993ZM944.273 518.561C943.443 517.083 943.02 515.414 943.02 513.53H941.02C941.02 515.726 941.517 517.737 942.528 519.539L944.273 518.561ZM943.02 513.53C943.02 511.646 943.443 509.989 944.27 508.534L942.531 507.546C941.517 509.331 941.02 511.334 941.02 513.53H943.02ZM944.268 508.537C945.121 507.049 946.263 505.91 947.701 505.102L946.72 503.358C944.958 504.35 943.56 505.751 942.533 507.543L944.268 508.537ZM947.709 505.097C949.149 504.269 950.746 503.85 952.52 503.85V501.85C950.415 501.85 948.472 502.351 946.712 503.363L947.709 505.097ZM952.52 503.85C954.317 503.85 955.923 504.27 957.362 505.097L958.359 503.363C956.598 502.35 954.644 501.85 952.52 501.85V503.85ZM957.37 505.102C958.809 505.911 959.939 507.039 960.771 508.504L962.51 507.516C961.502 505.741 960.112 504.349 958.351 503.358L957.37 505.102ZM960.771 508.504C961.597 509.958 962.02 511.624 962.02 513.53H964.02C964.02 511.316 963.524 509.302 962.51 507.516L960.771 508.504ZM962.02 513.53C962.02 515.378 961.615 517.009 960.824 518.448L962.577 519.412C963.545 517.651 964.02 515.682 964.02 513.53H962.02ZM960.824 518.448C960.028 519.895 958.942 521.024 957.558 521.852L958.583 523.568C960.279 522.556 961.613 521.165 962.577 519.412L960.824 518.448ZM957.365 523.419L962.645 528.669L964.056 527.251L958.776 522.001L957.365 523.419ZM963.35 526.96H959.81V528.96H963.35V526.96ZM943.81 513.53C943.81 515.325 944.168 516.949 944.915 518.374L946.686 517.446C946.113 516.351 945.81 515.055 945.81 513.53H943.81ZM944.92 518.385C945.682 519.795 946.727 520.904 948.055 521.683L949.066 519.957C948.074 519.376 947.279 518.545 946.68 517.435L944.92 518.385ZM948.061 521.686C949.404 522.46 950.898 522.84 952.52 522.84V520.84C951.223 520.84 950.077 520.54 949.06 519.954L948.061 521.686ZM952.52 522.84C954.143 522.84 955.63 522.46 956.956 521.683L955.945 519.957C954.951 520.54 953.818 520.84 952.52 520.84V522.84ZM956.95 521.686C958.302 520.907 959.352 519.794 960.096 518.374L958.325 517.446C957.749 518.546 956.959 519.373 955.951 519.954L956.95 521.686ZM960.09 518.385C960.861 516.957 961.23 515.329 961.23 513.53H959.23C959.23 515.051 958.92 516.343 958.33 517.435L960.09 518.385ZM961.23 513.53C961.23 511.713 960.862 510.082 960.087 508.669L958.334 509.631C958.919 510.698 959.23 511.986 959.23 513.53H961.23ZM960.096 508.686C959.355 507.27 958.317 506.158 956.986 505.377L955.975 507.103C956.964 507.682 957.746 508.51 958.325 509.614L960.096 508.686ZM956.986 505.377C955.658 504.599 954.16 504.22 952.52 504.22V506.22C953.841 506.22 954.983 506.521 955.975 507.103L956.986 505.377ZM952.52 504.22C950.881 504.22 949.383 504.599 948.055 505.377L949.066 507.103C950.058 506.521 951.2 506.22 952.52 506.22V504.22ZM948.055 505.377C946.727 506.156 945.682 507.265 944.92 508.675L946.68 509.625C947.279 508.515 948.074 507.684 949.066 507.103L948.055 505.377ZM944.918 508.68C944.167 510.091 943.81 511.718 943.81 513.53H945.81C945.81 511.982 946.114 510.689 946.683 509.62L944.918 508.68Z" fill="black"/>
<path d="M1169.68 527.96L1165.51 523.79C1164.49 524.07 1163.45 524.21 1162.39 524.21C1160.45 524.21 1158.68 523.76 1157.08 522.86C1155.48 521.94 1154.21 520.67 1153.27 519.05C1152.35 517.41 1151.89 515.57 1151.89 513.53C1151.89 511.49 1152.35 509.66 1153.27 508.04C1154.21 506.4 1155.48 505.13 1157.08 504.23C1158.68 503.31 1160.45 502.85 1162.39 502.85C1164.35 502.85 1166.13 503.31 1167.73 504.23C1169.33 505.13 1170.59 506.39 1171.51 508.01C1172.43 509.63 1172.89 511.47 1172.89 513.53C1172.89 515.53 1172.45 517.33 1171.57 518.93C1170.69 520.53 1169.48 521.79 1167.94 522.71L1173.22 527.96H1169.68ZM1154.68 513.53C1154.68 515.19 1155.01 516.65 1155.67 517.91C1156.35 519.17 1157.27 520.14 1158.43 520.82C1159.61 521.5 1160.93 521.84 1162.39 521.84C1163.85 521.84 1165.16 521.5 1166.32 520.82C1167.5 520.14 1168.42 519.17 1169.08 517.91C1169.76 516.65 1170.1 515.19 1170.1 513.53C1170.1 511.85 1169.76 510.39 1169.08 509.15C1168.42 507.89 1167.51 506.92 1166.35 506.24C1165.19 505.56 1163.87 505.22 1162.39 505.22C1160.91 505.22 1159.59 505.56 1158.43 506.24C1157.27 506.92 1156.35 507.89 1155.67 509.15C1155.01 510.39 1154.68 511.85 1154.68 513.53Z" fill="black"/>
<path d="M1169.68 527.96L1168.97 528.667L1169.26 528.96H1169.68V527.96ZM1165.51 523.79L1166.21 523.083L1165.8 522.672L1165.24 522.826L1165.51 523.79ZM1157.08 522.86L1156.58 523.727L1156.59 523.732L1157.08 522.86ZM1153.27 519.05L1152.39 519.539L1152.4 519.546L1152.4 519.552L1153.27 519.05ZM1153.27 508.04L1152.4 507.543L1152.4 507.546L1153.27 508.04ZM1157.08 504.23L1157.57 505.102L1157.57 505.097L1157.08 504.23ZM1167.73 504.23L1167.23 505.097L1167.24 505.102L1167.73 504.23ZM1171.51 508.01L1172.38 507.516L1172.38 507.516L1171.51 508.01ZM1171.57 518.93L1172.44 519.412L1172.44 519.412L1171.57 518.93ZM1167.94 522.71L1167.42 521.852L1166.32 522.512L1167.23 523.419L1167.94 522.71ZM1173.22 527.96V528.96H1175.64L1173.92 527.251L1173.22 527.96ZM1155.67 517.91L1154.78 518.374L1154.79 518.385L1155.67 517.91ZM1158.43 520.82L1157.92 521.683L1157.93 521.686L1158.43 520.82ZM1166.32 520.82L1165.82 519.954L1165.81 519.957L1166.32 520.82ZM1169.08 517.91L1168.2 517.435L1168.19 517.446L1169.08 517.91ZM1169.08 509.15L1168.19 509.614L1168.19 509.622L1168.2 509.631L1169.08 509.15ZM1166.35 506.24L1165.84 507.103L1165.84 507.103L1166.35 506.24ZM1158.43 506.24L1158.93 507.103L1158.93 507.103L1158.43 506.24ZM1155.67 509.15L1154.79 508.675L1154.78 508.68L1155.67 509.15ZM1170.38 527.253L1166.21 523.083L1164.8 524.497L1168.97 528.667L1170.38 527.253ZM1165.24 522.826C1164.31 523.082 1163.36 523.21 1162.39 523.21V525.21C1163.53 525.21 1164.66 525.058 1165.77 524.754L1165.24 522.826ZM1162.39 523.21C1160.61 523.21 1159.01 522.799 1157.57 521.988L1156.59 523.732C1158.34 524.721 1160.28 525.21 1162.39 525.21V523.21ZM1157.57 521.993C1156.13 521.162 1154.98 520.019 1154.13 518.548L1152.4 519.552C1153.43 521.321 1154.82 522.718 1156.58 523.727L1157.57 521.993ZM1154.14 518.561C1153.31 517.083 1152.89 515.414 1152.89 513.53H1150.89C1150.89 515.726 1151.38 517.737 1152.39 519.539L1154.14 518.561ZM1152.89 513.53C1152.89 511.646 1153.31 509.989 1154.14 508.534L1152.4 507.546C1151.38 509.331 1150.89 511.334 1150.89 513.53H1152.89ZM1154.13 508.537C1154.99 507.049 1156.13 505.91 1157.57 505.102L1156.59 503.358C1154.82 504.35 1153.43 505.751 1152.4 507.543L1154.13 508.537ZM1157.57 505.097C1159.01 504.269 1160.61 503.85 1162.39 503.85V501.85C1160.28 501.85 1158.34 502.351 1156.58 503.363L1157.57 505.097ZM1162.39 503.85C1164.18 503.85 1165.79 504.27 1167.23 505.097L1168.22 503.363C1166.46 502.35 1164.51 501.85 1162.39 501.85V503.85ZM1167.24 505.102C1168.67 505.911 1169.8 507.039 1170.64 508.504L1172.38 507.516C1171.37 505.741 1169.98 504.349 1168.22 503.358L1167.24 505.102ZM1170.64 508.504C1171.46 509.958 1171.89 511.624 1171.89 513.53H1173.89C1173.89 511.316 1173.39 509.302 1172.38 507.516L1170.64 508.504ZM1171.89 513.53C1171.89 515.378 1171.48 517.009 1170.69 518.448L1172.44 519.412C1173.41 517.651 1173.89 515.682 1173.89 513.53H1171.89ZM1170.69 518.448C1169.89 519.895 1168.81 521.024 1167.42 521.852L1168.45 523.568C1170.14 522.556 1171.48 521.165 1172.44 519.412L1170.69 518.448ZM1167.23 523.419L1172.51 528.669L1173.92 527.251L1168.64 522.001L1167.23 523.419ZM1173.22 526.96H1169.68V528.96H1173.22V526.96ZM1153.68 513.53C1153.68 515.325 1154.03 516.949 1154.78 518.374L1156.55 517.446C1155.98 516.351 1155.68 515.055 1155.68 513.53H1153.68ZM1154.79 518.385C1155.55 519.795 1156.59 520.904 1157.92 521.683L1158.93 519.957C1157.94 519.376 1157.14 518.545 1156.55 517.435L1154.79 518.385ZM1157.93 521.686C1159.27 522.46 1160.76 522.84 1162.39 522.84V520.84C1161.09 520.84 1159.94 520.54 1158.93 519.954L1157.93 521.686ZM1162.39 522.84C1164.01 522.84 1165.5 522.46 1166.82 521.683L1165.81 519.957C1164.82 520.54 1163.68 520.84 1162.39 520.84V522.84ZM1166.82 521.686C1168.17 520.907 1169.22 519.794 1169.96 518.374L1168.19 517.446C1167.61 518.546 1166.82 519.373 1165.82 519.954L1166.82 521.686ZM1169.96 518.385C1170.73 516.957 1171.1 515.329 1171.1 513.53H1169.1C1169.1 515.051 1168.79 516.343 1168.2 517.435L1169.96 518.385ZM1171.1 513.53C1171.1 511.713 1170.73 510.082 1169.95 508.669L1168.2 509.631C1168.78 510.698 1169.1 511.986 1169.1 513.53H1171.1ZM1169.96 508.686C1169.22 507.27 1168.18 506.158 1166.85 505.377L1165.84 507.103C1166.83 507.682 1167.61 508.51 1168.19 509.614L1169.96 508.686ZM1166.85 505.377C1165.52 504.599 1164.03 504.22 1162.39 504.22V506.22C1163.71 506.22 1164.85 506.521 1165.84 507.103L1166.85 505.377ZM1162.39 504.22C1160.75 504.22 1159.25 504.599 1157.92 505.377L1158.93 507.103C1159.92 506.521 1161.07 506.22 1162.39 506.22V504.22ZM1157.92 505.377C1156.59 506.156 1155.55 507.265 1154.79 508.675L1156.55 509.625C1157.14 508.515 1157.94 507.684 1158.93 507.103L1157.92 505.377ZM1154.78 508.68C1154.03 510.091 1153.68 511.718 1153.68 513.53H1155.68C1155.68 511.982 1155.98 510.689 1156.55 509.62L1154.78 508.68Z" fill="black"/>
</g>
<defs>
<filter id="filter0_d" x="0" y="89" width="1247" height="752" filterUnits="userSpaceOnUse" color-interpolation-filters="sRGB">
<feFlood flood-opacity="0" result="BackgroundImageFix"/>
<feColorMatrix in="SourceAlpha" type="matrix" values="0 0 0 0 0 0 0 0 0 0 0 0 0 0 0 0 0 0 127 0"/>
<feOffset dy="4"/>
<feGaussianBlur stdDeviation="2"/>
<feColorMatrix type="matrix" values="0 0 0 0 0 0 0 0 0 0 0 0 0 0 0 0 0 0 0.25 0"/>
<feBlend mode="normal" in2="BackgroundImageFix" result="effect1_dropShadow"/>
<feBlend mode="normal" in="SourceGraphic" in2="effect1_dropShadow" result="shape"/>
</filter>
<filter id="filter1_d" x="338.426" y="558" width="97.5833" height="98" filterUnits="userSpaceOnUse" color-interpolation-filters="sRGB">
<feFlood flood-opacity="0" result="BackgroundImageFix"/>
<feColorMatrix in="SourceAlpha" type="matrix" values="0 0 0 0 0 0 0 0 0 0 0 0 0 0 0 0 0 0 127 0"/>
<feOffset dy="4"/>
<feGaussianBlur stdDeviation="2"/>
<feColorMatrix type="matrix" values="0 0 0 0 0 0 0 0 0 0 0 0 0 0 0 0 0 0 0.25 0"/>
<feBlend mode="normal" in2="BackgroundImageFix" result="effect1_dropShadow"/>
<feBlend mode="normal" in="SourceGraphic" in2="effect1_dropShadow" result="shape"/>
</filter>
<filter id="filter2_d" x="786.343" y="388" width="97.5833" height="98" filterUnits="userSpaceOnUse" color-interpolation-filters="sRGB">
<feFlood flood-opacity="0" result="BackgroundImageFix"/>
<feColorMatrix in="SourceAlpha" type="matrix" values="0 0 0 0 0 0 0 0 0 0 0 0 0 0 0 0 0 0 127 0"/>
<feOffset dy="4"/>
<feGaussianBlur stdDeviation="2"/>
<feColorMatrix type="matrix" values="0 0 0 0 0 0 0 0 0 0 0 0 0 0 0 0 0 0 0.25 0"/>
<feBlend mode="normal" in2="BackgroundImageFix" result="effect1_dropShadow"/>
<feBlend mode="normal" in="SourceGraphic" in2="effect1_dropShadow" result="shape"/>
</filter>
<filter id="filter3_d" x="592.245" y="213" width="97.5833" height="98" filterUnits="userSpaceOnUse" color-interpolation-filters="sRGB">
<feFlood flood-opacity="0" result="BackgroundImageFix"/>
<feColorMatrix in="SourceAlpha" type="matrix" values="0 0 0 0 0 0 0 0 0 0 0 0 0 0 0 0 0 0 127 0"/>
<feOffset dy="4"/>
<feGaussianBlur stdDeviation="2"/>
<feColorMatrix type="matrix" values="0 0 0 0 0 0 0 0 0 0 0 0 0 0 0 0 0 0 0.25 0"/>
<feBlend mode="normal" in2="BackgroundImageFix" result="effect1_dropShadow"/>
<feBlend mode="normal" in="SourceGraphic" in2="effect1_dropShadow" result="shape"/>
</filter>
<filter id="filter4_d" x="592.245" y="558" width="97.5833" height="98" filterUnits="userSpaceOnUse" color-interpolation-filters="sRGB">
<feFlood flood-opacity="0" result="BackgroundImageFix"/>
<feColorMatrix in="SourceAlpha" type="matrix" values="0 0 0 0 0 0 0 0 0 0 0 0 0 0 0 0 0 0 127 0"/>
<feOffset dy="4"/>
<feGaussianBlur stdDeviation="2"/>
<feColorMatrix type="matrix" values="0 0 0 0 0 0 0 0 0 0 0 0 0 0 0 0 0 0 0.25 0"/>
<feBlend mode="normal" in2="BackgroundImageFix" result="effect1_dropShadow"/>
<feBlend mode="normal" in="SourceGraphic" in2="effect1_dropShadow" result="shape"/>
</filter>
<filter id="filter5_d" x="338.426" y="213" width="97.5833" height="98" filterUnits="userSpaceOnUse" color-interpolation-filters="sRGB">
<feFlood flood-opacity="0" result="BackgroundImageFix"/>
<feColorMatrix in="SourceAlpha" type="matrix" values="0 0 0 0 0 0 0 0 0 0 0 0 0 0 0 0 0 0 127 0"/>
<feOffset dy="4"/>
<feGaussianBlur stdDeviation="2"/>
<feColorMatrix type="matrix" values="0 0 0 0 0 0 0 0 0 0 0 0 0 0 0 0 0 0 0.25 0"/>
<feBlend mode="normal" in2="BackgroundImageFix" result="effect1_dropShadow"/>
<feBlend mode="normal" in="SourceGraphic" in2="effect1_dropShadow" result="shape"/>
</filter>
<filter id="filter6_d" x="129.398" y="388" width="97.5833" height="98" filterUnits="userSpaceOnUse" color-interpolation-filters="sRGB">
<feFlood flood-opacity="0" result="BackgroundImageFix"/>
<feColorMatrix in="SourceAlpha" type="matrix" values="0 0 0 0 0 0 0 0 0 0 0 0 0 0 0 0 0 0 127 0"/>
<feOffset dy="4"/>
<feGaussianBlur stdDeviation="2"/>
<feColorMatrix type="matrix" values="0 0 0 0 0 0 0 0 0 0 0 0 0 0 0 0 0 0 0.25 0"/>
<feBlend mode="normal" in2="BackgroundImageFix" result="effect1_dropShadow"/>
<feBlend mode="normal" in="SourceGraphic" in2="effect1_dropShadow" result="shape"/>
</filter>
<filter id="filter7_d" x="351.366" y="617.15" width="120.486" height="96.8502" filterUnits="userSpaceOnUse" color-interpolation-filters="sRGB">
<feFlood flood-opacity="0" result="BackgroundImageFix"/>
<feColorMatrix in="SourceAlpha" type="matrix" values="0 0 0 0 0 0 0 0 0 0 0 0 0 0 0 0 0 0 127 0"/>
<feOffset dy="4"/>
<feGaussianBlur stdDeviation="2"/>
<feColorMatrix type="matrix" values="0 0 0 0 0 0 0 0 0 0 0 0 0 0 0 0 0 0 0.25 0"/>
<feBlend mode="normal" in2="BackgroundImageFix" result="effect1_dropShadow"/>
<feBlend mode="normal" in="SourceGraphic" in2="effect1_dropShadow" result="shape"/>
</filter>
<filter id="filter8_d" x="199.208" y="274.33" width="153.195" height="131.505" filterUnits="userSpaceOnUse" color-interpolation-filters="sRGB">
<feFlood flood-opacity="0" result="BackgroundImageFix"/>
<feColorMatrix in="SourceAlpha" type="matrix" values="0 0 0 0 0 0 0 0 0 0 0 0 0 0 0 0 0 0 127 0"/>
<feOffset dy="4"/>
<feGaussianBlur stdDeviation="2"/>
<feColorMatrix type="matrix" values="0 0 0 0 0 0 0 0 0 0 0 0 0 0 0 0 0 0 0.25 0"/>
<feBlend mode="normal" in2="BackgroundImageFix" result="effect1_dropShadow"/>
<feBlend mode="normal" in="SourceGraphic" in2="effect1_dropShadow" result="shape"/>
</filter>
<filter id="filter9_d" x="622.05" y="302.796" width="37.4555" height="264.515" filterUnits="userSpaceOnUse" color-interpolation-filters="sRGB">
<feFlood flood-opacity="0" result="BackgroundImageFix"/>
<feColorMatrix in="SourceAlpha" type="matrix" values="0 0 0 0 0 0 0 0 0 0 0 0 0 0 0 0 0 0 127 0"/>
<feOffset dy="4"/>
<feGaussianBlur stdDeviation="2"/>
<feColorMatrix type="matrix" values="0 0 0 0 0 0 0 0 0 0 0 0 0 0 0 0 0 0 0.25 0"/>
<feBlend mode="normal" in2="BackgroundImageFix" result="effect1_dropShadow"/>
<feBlend mode="normal" in="SourceGraphic" in2="effect1_dropShadow" result="shape"/>
</filter>
<filter id="filter10_d" x="388.794" y="295.039" width="236.612" height="275.346" filterUnits="userSpaceOnUse" color-interpolation-filters="sRGB">
<feFlood flood-opacity="0" result="BackgroundImageFix"/>
<feColorMatrix in="SourceAlpha" type="matrix" values="0 0 0 0 0 0 0 0 0 0 0 0 0 0 0 0 0 0 127 0"/>
<feOffset dy="4"/>
<feGaussianBlur stdDeviation="2"/>
<feColorMatrix type="matrix" values="0 0 0 0 0 0 0 0 0 0 0 0 0 0 0 0 0 0 0.25 0"/>
<feBlend mode="normal" in2="BackgroundImageFix" result="effect1_dropShadow"/>
<feBlend mode="normal" in="SourceGraphic" in2="effect1_dropShadow" result="shape"/>
</filter>
<filter id="filter11_d" x="200.1" y="465.255" width="149.421" height="135.903" filterUnits="userSpaceOnUse" color-interpolation-filters="sRGB">
<feFlood flood-opacity="0" result="BackgroundImageFix"/>
<feColorMatrix in="SourceAlpha" type="matrix" values="0 0 0 0 0 0 0 0 0 0 0 0 0 0 0 0 0 0 127 0"/>
<feOffset dy="4"/>
<feGaussianBlur stdDeviation="2"/>
<feColorMatrix type="matrix" values="0 0 0 0 0 0 0 0 0 0 0 0 0 0 0 0 0 0 0.25 0"/>
<feBlend mode="normal" in2="BackgroundImageFix" result="effect1_dropShadow"/>
<feBlend mode="normal" in="SourceGraphic" in2="effect1_dropShadow" result="shape"/>
</filter>
<filter id="filter12_d" x="426.651" y="238.718" width="174.146" height="37.4557" filterUnits="userSpaceOnUse" color-interpolation-filters="sRGB">
<feFlood flood-opacity="0" result="BackgroundImageFix"/>
<feColorMatrix in="SourceAlpha" type="matrix" values="0 0 0 0 0 0 0 0 0 0 0 0 0 0 0 0 0 0 127 0"/>
<feOffset dy="4"/>
<feGaussianBlur stdDeviation="2"/>
<feColorMatrix type="matrix" values="0 0 0 0 0 0 0 0 0 0 0 0 0 0 0 0 0 0 0.25 0"/>
<feBlend mode="normal" in2="BackgroundImageFix" result="effect1_dropShadow"/>
<feBlend mode="normal" in="SourceGraphic" in2="effect1_dropShadow" result="shape"/>
</filter>
<filter id="filter13_d" x="677.252" y="473.718" width="149.234" height="128.204" filterUnits="userSpaceOnUse" color-interpolation-filters="sRGB">
<feFlood flood-opacity="0" result="BackgroundImageFix"/>
<feColorMatrix in="SourceAlpha" type="matrix" values="0 0 0 0 0 0 0 0 0 0 0 0 0 0 0 0 0 0 127 0"/>
<feOffset dy="4"/>
<feGaussianBlur stdDeviation="2"/>
<feColorMatrix type="matrix" values="0 0 0 0 0 0 0 0 0 0 0 0 0 0 0 0 0 0 0.25 0"/>
<feBlend mode="normal" in2="BackgroundImageFix" result="effect1_dropShadow"/>
<feBlend mode="normal" in="SourceGraphic" in2="effect1_dropShadow" result="shape"/>
</filter>
<filter id="filter14_d" x="17.9252" y="418.585" width="122.625" height="37.4557" filterUnits="userSpaceOnUse" color-interpolation-filters="sRGB">
<feFlood flood-opacity="0" result="BackgroundImageFix"/>
<feColorMatrix in="SourceAlpha" type="matrix" values="0 0 0 0 0 0 0 0 0 0 0 0 0 0 0 0 0 0 127 0"/>
<feOffset dy="4"/>
<feGaussianBlur stdDeviation="2"/>
<feColorMatrix type="matrix" values="0 0 0 0 0 0 0 0 0 0 0 0 0 0 0 0 0 0 0.25 0"/>
<feBlend mode="normal" in2="BackgroundImageFix" result="effect1_dropShadow"/>
<feBlend mode="normal" in="SourceGraphic" in2="effect1_dropShadow" result="shape"/>
</filter>
<filter id="filter15_d" x="874.257" y="421.559" width="122.966" height="37.4557" filterUnits="userSpaceOnUse" color-interpolation-filters="sRGB">
<feFlood flood-opacity="0" result="BackgroundImageFix"/>
<feColorMatrix in="SourceAlpha" type="matrix" values="0 0 0 0 0 0 0 0 0 0 0 0 0 0 0 0 0 0 127 0"/>
<feOffset dy="4"/>
<feGaussianBlur stdDeviation="2"/>
<feColorMatrix type="matrix" values="0 0 0 0 0 0 0 0 0 0 0 0 0 0 0 0 0 0 0.25 0"/>
<feBlend mode="normal" in2="BackgroundImageFix" result="effect1_dropShadow"/>
<feBlend mode="normal" in="SourceGraphic" in2="effect1_dropShadow" result="shape"/>
</filter>
<filter id="filter16_d" x="679.575" y="261.269" width="134.287" height="145.264" filterUnits="userSpaceOnUse" color-interpolation-filters="sRGB">
<feFlood flood-opacity="0" result="BackgroundImageFix"/>
<feColorMatrix in="SourceAlpha" type="matrix" values="0 0 0 0 0 0 0 0 0 0 0 0 0 0 0 0 0 0 127 0"/>
<feOffset dy="4"/>
<feGaussianBlur stdDeviation="2"/>
<feColorMatrix type="matrix" values="0 0 0 0 0 0 0 0 0 0 0 0 0 0 0 0 0 0 0.25 0"/>
<feBlend mode="normal" in2="BackgroundImageFix" result="effect1_dropShadow"/>
<feBlend mode="normal" in="SourceGraphic" in2="effect1_dropShadow" result="shape"/>
</filter>
<filter id="filter17_d" x="425.455" y="598.725" width="177.641" height="37.4557" filterUnits="userSpaceOnUse" color-interpolation-filters="sRGB">
<feFlood flood-opacity="0" result="BackgroundImageFix"/>
<feColorMatrix in="SourceAlpha" type="matrix" values="0 0 0 0 0 0 0 0 0 0 0 0 0 0 0 0 0 0 127 0"/>
<feOffset dy="4"/>
<feGaussianBlur stdDeviation="2"/>
<feColorMatrix type="matrix" values="0 0 0 0 0 0 0 0 0 0 0 0 0 0 0 0 0 0 0.25 0"/>
<feBlend mode="normal" in2="BackgroundImageFix" result="effect1_dropShadow"/>
<feBlend mode="normal" in="SourceGraphic" in2="effect1_dropShadow" result="shape"/>
</filter>
<filter id="filter18_d" x="351.367" y="162" width="120.485" height="90.8686" filterUnits="userSpaceOnUse" color-interpolation-filters="sRGB">
<feFlood flood-opacity="0" result="BackgroundImageFix"/>
<feColorMatrix in="SourceAlpha" type="matrix" values="0 0 0 0 0 0 0 0 0 0 0 0 0 0 0 0 0 0 127 0"/>
<feOffset dy="4"/>
<feGaussianBlur stdDeviation="2"/>
<feColorMatrix type="matrix" values="0 0 0 0 0 0 0 0 0 0 0 0 0 0 0 0 0 0 0.25 0"/>
<feBlend mode="normal" in2="BackgroundImageFix" result="effect1_dropShadow"/>
<feBlend mode="normal" in="SourceGraphic" in2="effect1_dropShadow" result="shape"/>
</filter>
<filter id="filter19_d" x="9.95367" y="404" width="67.7222" height="64" filterUnits="userSpaceOnUse" color-interpolation-filters="sRGB">
<feFlood flood-opacity="0" result="BackgroundImageFix"/>
<feColorMatrix in="SourceAlpha" type="matrix" values="0 0 0 0 0 0 0 0 0 0 0 0 0 0 0 0 0 0 127 0"/>
<feOffset dy="4"/>
<feGaussianBlur stdDeviation="2"/>
<feColorMatrix type="matrix" values="0 0 0 0 0 0 0 0 0 0 0 0 0 0 0 0 0 0 0.25 0"/>
<feBlend mode="normal" in2="BackgroundImageFix" result="effect1_dropShadow"/>
<feBlend mode="normal" in="SourceGraphic" in2="effect1_dropShadow" result="shape"/>
</filter>
<filter id="filter20_d" x="987.407" y="408" width="67.7222" height="64" filterUnits="userSpaceOnUse" color-interpolation-filters="sRGB">
<feFlood flood-opacity="0" result="BackgroundImageFix"/>
<feColorMatrix in="SourceAlpha" type="matrix" values="0 0 0 0 0 0 0 0 0 0 0 0 0 0 0 0 0 0 127 0"/>
<feOffset dy="4"/>
<feGaussianBlur stdDeviation="2"/>
<feColorMatrix type="matrix" values="0 0 0 0 0 0 0 0 0 0 0 0 0 0 0 0 0 0 0.25 0"/>
<feBlend mode="normal" in2="BackgroundImageFix" result="effect1_dropShadow"/>
<feBlend mode="normal" in="SourceGraphic" in2="effect1_dropShadow" result="shape"/>
</filter>
<filter id="filter21_d" x="254.909" y="546.12" width="26.64" height="35.88" filterUnits="userSpaceOnUse" color-interpolation-filters="sRGB">
<feFlood flood-opacity="0" result="BackgroundImageFix"/>
<feColorMatrix in="SourceAlpha" type="matrix" values="0 0 0 0 0 0 0 0 0 0 0 0 0 0 0 0 0 0 127 0"/>
<feOffset dy="4"/>
<feGaussianBlur stdDeviation="2"/>
<feColorMatrix type="matrix" values="0 0 0 0 0 0 0 0 0 0 0 0 0 0 0 0 0 0 0.25 0"/>
<feBlend mode="normal" in2="BackgroundImageFix" result="effect1_dropShadow"/>
<feBlend mode="normal" in="SourceGraphic" in2="effect1_dropShadow" result="shape"/>
</filter>
<filter id="filter22_d" x="653.057" y="397.12" width="26.64" height="35.88" filterUnits="userSpaceOnUse" color-interpolation-filters="sRGB">
<feFlood flood-opacity="0" result="BackgroundImageFix"/>
<feColorMatrix in="SourceAlpha" type="matrix" values="0 0 0 0 0 0 0 0 0 0 0 0 0 0 0 0 0 0 127 0"/>
<feOffset dy="4"/>
<feGaussianBlur stdDeviation="2"/>
<feColorMatrix type="matrix" values="0 0 0 0 0 0 0 0 0 0 0 0 0 0 0 0 0 0 0.25 0"/>
<feBlend mode="normal" in2="BackgroundImageFix" result="effect1_dropShadow"/>
<feBlend mode="normal" in="SourceGraphic" in2="effect1_dropShadow" result="shape"/>
</filter>
<filter id="filter23_d" x="877" y="491" width="353" height="335" filterUnits="userSpaceOnUse" color-interpolation-filters="sRGB">
<feFlood flood-opacity="0" result="BackgroundImageFix"/>
<feColorMatrix in="SourceAlpha" type="matrix" values="0 0 0 0 0 0 0 0 0 0 0 0 0 0 0 0 0 0 127 0"/>
<feOffset dy="4"/>
<feGaussianBlur stdDeviation="2"/>
<feColorMatrix type="matrix" values="0 0 0 0 0 0 0 0 0 0 0 0 0 0 0 0 0 0 0.25 0"/>
<feBlend mode="normal" in2="BackgroundImageFix" result="effect1_dropShadow"/>
<feBlend mode="normal" in="SourceGraphic" in2="effect1_dropShadow" result="shape"/>
</filter>
</defs>
</svg>
