<svg width="343" height="75" viewBox="0 0 343 75" fill="none" xmlns="http://www.w3.org/2000/svg">
<g filter="url(#filter0_d)">
<rect x="4.68262" y="0.672241" width="134.192" height="45.9874" rx="22.9937" fill="#F58A8A"/>
</g>
<path d="M26.668 23.7691C27.124 23.8411 27.538 24.0271 27.91 24.3271C28.294 24.6271 28.594 24.9991 28.81 25.4431C29.038 25.8871 29.152 26.3611 29.152 26.8651C29.152 27.5011 28.99 28.0771 28.666 28.5931C28.342 29.0971 27.868 29.4991 27.244 29.7991C26.632 30.0871 25.906 30.2311 25.066 30.2311H20.386V17.6851H24.886C25.738 17.6851 26.464 17.8291 27.064 18.1171C27.664 18.3931 28.114 18.7711 28.414 19.2511C28.714 19.7311 28.864 20.2711 28.864 20.8711C28.864 21.6151 28.66 22.2331 28.252 22.7251C27.856 23.2051 27.328 23.5531 26.668 23.7691ZM22.024 23.1031H24.778C25.546 23.1031 26.14 22.9231 26.56 22.5631C26.98 22.2031 27.19 21.7051 27.19 21.0691C27.19 20.4331 26.98 19.9351 26.56 19.5751C26.14 19.2151 25.534 19.0351 24.742 19.0351H22.024V23.1031ZM24.922 28.8811C25.738 28.8811 26.374 28.6891 26.83 28.3051C27.286 27.9211 27.514 27.3871 27.514 26.7031C27.514 26.0071 27.274 25.4611 26.794 25.0651C26.314 24.6571 25.672 24.4531 24.868 24.4531H22.024V28.8811H24.922ZM37.7071 23.7691C38.1631 23.8411 38.5771 24.0271 38.9491 24.3271C39.3331 24.6271 39.6331 24.9991 39.8491 25.4431C40.0771 25.8871 40.1911 26.3611 40.1911 26.8651C40.1911 27.5011 40.0291 28.0771 39.7051 28.5931C39.3811 29.0971 38.9071 29.4991 38.2831 29.7991C37.6711 30.0871 36.9451 30.2311 36.1051 30.2311H31.4251V17.6851H35.9251C36.7771 17.6851 37.5031 17.8291 38.1031 18.1171C38.7031 18.3931 39.1531 18.7711 39.4531 19.2511C39.7531 19.7311 39.9031 20.2711 39.9031 20.8711C39.9031 21.6151 39.6991 22.2331 39.2911 22.7251C38.8951 23.2051 38.3671 23.5531 37.7071 23.7691ZM33.0631 23.1031H35.8171C36.5851 23.1031 37.1791 22.9231 37.5991 22.5631C38.0191 22.2031 38.2291 21.7051 38.2291 21.0691C38.2291 20.4331 38.0191 19.9351 37.5991 19.5751C37.1791 19.2151 36.5731 19.0351 35.7811 19.0351H33.0631V23.1031ZM35.9611 28.8811C36.7771 28.8811 37.4131 28.6891 37.8691 28.3051C38.3251 27.9211 38.5531 27.3871 38.5531 26.7031C38.5531 26.0071 38.3131 25.4611 37.8331 25.0651C37.3531 24.6571 36.7111 24.4531 35.9071 24.4531H33.0631V28.8811H35.9611ZM48.7461 23.7691C49.2021 23.8411 49.6161 24.0271 49.9881 24.3271C50.3721 24.6271 50.6721 24.9991 50.8881 25.4431C51.1161 25.8871 51.2301 26.3611 51.2301 26.8651C51.2301 27.5011 51.0681 28.0771 50.7441 28.5931C50.4201 29.0971 49.9461 29.4991 49.3221 29.7991C48.7101 30.0871 47.9841 30.2311 47.1441 30.2311H42.4641V17.6851H46.9641C47.8161 17.6851 48.5421 17.8291 49.1421 18.1171C49.7421 18.3931 50.1921 18.7711 50.4921 19.2511C50.7921 19.7311 50.9421 20.2711 50.9421 20.8711C50.9421 21.6151 50.7381 22.2331 50.3301 22.7251C49.9341 23.2051 49.4061 23.5531 48.7461 23.7691ZM44.1021 23.1031H46.8561C47.6241 23.1031 48.2181 22.9231 48.6381 22.5631C49.0581 22.2031 49.2681 21.7051 49.2681 21.0691C49.2681 20.4331 49.0581 19.9351 48.6381 19.5751C48.2181 19.2151 47.6121 19.0351 46.8201 19.0351H44.1021V23.1031ZM47.0001 28.8811C47.8161 28.8811 48.4521 28.6891 48.9081 28.3051C49.3641 27.9211 49.5921 27.3871 49.5921 26.7031C49.5921 26.0071 49.3521 25.4611 48.8721 25.0651C48.3921 24.6571 47.7501 24.4531 46.9461 24.4531H44.1021V28.8811H47.0001ZM63.8712 17.6851L59.1372 30.2311H57.2472L52.5132 17.6851H54.2592L58.2012 28.5031L62.1432 17.6851H63.8712ZM69.6453 30.3571C68.8173 30.3571 68.0733 30.2131 67.4133 29.9251C66.7653 29.6251 66.2553 29.2171 65.8833 28.7011C65.5113 28.1731 65.3193 27.5671 65.3073 26.8831H67.0533C67.1133 27.4711 67.3533 27.9691 67.7733 28.3771C68.2053 28.7731 68.8293 28.9711 69.6453 28.9711C70.4253 28.9711 71.0373 28.7791 71.4813 28.3951C71.9373 27.9991 72.1653 27.4951 72.1653 26.8831C72.1653 26.4031 72.0333 26.0131 71.7693 25.7131C71.5053 25.4131 71.1753 25.1851 70.7793 25.0291C70.3833 24.8731 69.8493 24.7051 69.1773 24.5251C68.3493 24.3091 67.6833 24.0931 67.1793 23.8771C66.6873 23.6611 66.2613 23.3251 65.9013 22.8691C65.5533 22.4011 65.3793 21.7771 65.3793 20.9971C65.3793 20.3131 65.5533 19.7071 65.9013 19.1791C66.2493 18.6511 66.7353 18.2431 67.3593 17.9551C67.9953 17.6671 68.7213 17.5231 69.5373 17.5231C70.7133 17.5231 71.6733 17.8171 72.4173 18.4051C73.1733 18.9931 73.5993 19.7731 73.6953 20.7451H71.8953C71.8353 20.2651 71.5833 19.8451 71.1393 19.4851C70.6953 19.1131 70.1073 18.9271 69.3753 18.9271C68.6913 18.9271 68.1333 19.1071 67.7013 19.4671C67.2693 19.8151 67.0533 20.3071 67.0533 20.9431C67.0533 21.3991 67.1793 21.7711 67.4313 22.0591C67.6953 22.3471 68.0133 22.5691 68.3853 22.7251C68.7693 22.8691 69.3033 23.0371 69.9873 23.2291C70.8153 23.4571 71.4813 23.6851 71.9853 23.9131C72.4893 24.1291 72.9213 24.4711 73.2812 24.9391C73.6413 25.3951 73.8213 26.0191 73.8213 26.8111C73.8213 27.4231 73.6593 27.9991 73.3353 28.5391C73.0113 29.0791 72.5313 29.5171 71.8953 29.8531C71.2593 30.1891 70.5093 30.3571 69.6453 30.3571Z" fill="#443B3B"/>
<path d="M26.668 23.7691L26.357 22.8187L26.512 24.7568L26.668 23.7691ZM27.91 24.3271L27.2822 25.1055L27.2883 25.1103L27.2944 25.1151L27.91 24.3271ZM28.81 25.4431L27.9108 25.8805L27.9155 25.8903L27.9204 25.8999L28.81 25.4431ZM28.666 28.5931L29.5072 29.1339L29.5129 29.1248L28.666 28.5931ZM27.244 29.7991L27.6698 30.7039L27.6773 30.7003L27.244 29.7991ZM20.386 30.2311H19.386V31.2311H20.386V30.2311ZM20.386 17.6851V16.6851H19.386V17.6851H20.386ZM27.064 18.1171L26.6313 19.0186L26.6387 19.0221L26.6461 19.0256L27.064 18.1171ZM28.414 19.2511L27.566 19.7811L27.566 19.7811L28.414 19.2511ZM28.252 22.7251L27.4822 22.0867L27.4806 22.0887L28.252 22.7251ZM22.024 23.1031H21.024V24.1031H22.024V23.1031ZM26.56 19.5751L25.9092 20.3343L25.9092 20.3343L26.56 19.5751ZM22.024 19.0351V18.0351H21.024V19.0351H22.024ZM26.83 28.3051L27.4741 29.07L27.4741 29.07L26.83 28.3051ZM26.794 25.0651L26.1464 25.827L26.152 25.8318L26.1576 25.8365L26.794 25.0651ZM22.024 24.4531V23.4531H21.024V24.4531H22.024ZM22.024 28.8811H21.024V29.8811H22.024V28.8811ZM26.512 24.7568C26.7889 24.8006 27.0415 24.9113 27.2822 25.1055L28.5378 23.5487C28.0345 23.1428 27.4591 22.8816 26.824 22.7813L26.512 24.7568ZM27.2944 25.1151C27.5567 25.3201 27.7605 25.5716 27.9108 25.8805L29.7092 25.0056C29.4275 24.4266 29.0313 23.9341 28.5256 23.5391L27.2944 25.1151ZM27.9204 25.8999C28.0751 26.2011 28.152 26.5183 28.152 26.8651H30.152C30.152 26.2038 30.0009 25.573 29.6996 24.9863L27.9204 25.8999ZM28.152 26.8651C28.152 27.3216 28.0386 27.7118 27.8191 28.0613L29.5129 29.1248C29.9414 28.4423 30.152 27.6805 30.152 26.8651H28.152ZM27.8248 28.0523C27.6156 28.3778 27.2944 28.6653 26.8107 28.8978L27.6773 30.7003C28.4416 30.3329 29.0684 29.8163 29.5072 29.1338L27.8248 28.0523ZM26.8182 28.8943C26.3676 29.1063 25.7935 29.2311 25.066 29.2311V31.2311C26.0185 31.2311 26.8964 31.0678 27.6698 30.7039L26.8182 28.8943ZM25.066 29.2311H20.386V31.2311H25.066V29.2311ZM21.386 30.2311V17.6851H19.386V30.2311H21.386ZM20.386 18.6851H24.886V16.6851H20.386V18.6851ZM24.886 18.6851C25.6288 18.6851 26.1987 18.8109 26.6313 19.0186L27.4967 17.2156C26.7293 16.8472 25.8472 16.6851 24.886 16.6851V18.6851ZM26.6461 19.0256C27.0991 19.2339 27.3857 19.4926 27.566 19.7811L29.262 18.7211C28.8423 18.0496 28.2289 17.5522 27.4819 17.2086L26.6461 19.0256ZM27.566 19.7811C27.7606 20.0925 27.864 20.4467 27.864 20.8711H29.864C29.864 20.0954 29.6674 19.3697 29.262 18.7211L27.566 19.7811ZM27.864 20.8711C27.864 21.4222 27.7177 21.8029 27.4822 22.0867L29.0218 23.3634C29.6024 22.6633 29.864 21.808 29.864 20.8711H27.864ZM27.4806 22.0887C27.2189 22.406 26.8584 22.6546 26.357 22.8187L26.979 24.7195C27.7976 24.4516 28.4931 24.0042 29.0234 23.3615L27.4806 22.0887ZM22.024 24.1031H24.778V22.1031H22.024V24.1031ZM24.778 24.1031C25.6924 24.1031 26.55 23.8887 27.2108 23.3223L25.9092 21.8038C25.73 21.9574 25.3996 22.1031 24.778 22.1031V24.1031ZM27.2108 23.3223C27.8869 22.7428 28.19 21.9484 28.19 21.0691H26.19C26.19 21.4618 26.0731 21.6633 25.9092 21.8038L27.2108 23.3223ZM28.19 21.0691C28.19 20.1898 27.8869 19.3953 27.2108 18.8158L25.9092 20.3343C26.0731 20.4748 26.19 20.6764 26.19 21.0691H28.19ZM27.2108 18.8158C26.5451 18.2452 25.6713 18.0351 24.742 18.0351V20.0351C25.3967 20.0351 25.7349 20.1849 25.9092 20.3343L27.2108 18.8158ZM24.742 18.0351H22.024V20.0351H24.742V18.0351ZM21.024 19.0351V23.1031H23.024V19.0351H21.024ZM24.922 29.8811C25.8869 29.8811 26.781 29.6536 27.4741 29.07L26.1859 27.5402C25.967 27.7245 25.5891 27.8811 24.922 27.8811V29.8811ZM27.4741 29.07C28.1904 28.4668 28.514 27.6335 28.514 26.7031H26.514C26.514 27.1406 26.3816 27.3754 26.1859 27.5402L27.4741 29.07ZM28.514 26.7031C28.514 25.7485 28.1698 24.9037 27.4304 24.2937L26.1576 25.8365C26.3782 26.0185 26.514 26.2656 26.514 26.7031H28.514ZM27.4416 24.3031C26.7355 23.7029 25.8421 23.4531 24.868 23.4531V25.4531C25.5019 25.4531 25.8925 25.6112 26.1464 25.827L27.4416 24.3031ZM24.868 23.4531H22.024V25.4531H24.868V23.4531ZM21.024 24.4531V28.8811H23.024V24.4531H21.024ZM22.024 29.8811H24.922V27.8811H22.024V29.8811ZM37.7071 23.7691L37.396 22.8187L37.5511 24.7568L37.7071 23.7691ZM38.9491 24.3271L38.3213 25.1055L38.3273 25.1103L38.3334 25.1151L38.9491 24.3271ZM39.8491 25.4431L38.9498 25.8805L38.9546 25.8903L38.9595 25.8999L39.8491 25.4431ZM39.7051 28.5931L40.5463 29.1339L40.552 29.1248L39.7051 28.5931ZM38.2831 29.7991L38.7089 30.7039L38.7164 30.7003L38.2831 29.7991ZM31.4251 30.2311H30.4251V31.2311H31.4251V30.2311ZM31.4251 17.6851V16.6851H30.4251V17.6851H31.4251ZM38.1031 18.1171L37.6703 19.0186L37.6777 19.0221L37.6852 19.0256L38.1031 18.1171ZM39.4531 19.2511L38.6051 19.7811L38.6051 19.7811L39.4531 19.2511ZM39.2911 22.7251L38.5213 22.0867L38.5197 22.0887L39.2911 22.7251ZM33.0631 23.1031H32.0631V24.1031H33.0631V23.1031ZM37.5991 19.5751L36.9483 20.3343L36.9483 20.3343L37.5991 19.5751ZM33.0631 19.0351V18.0351H32.0631V19.0351H33.0631ZM37.8691 28.3051L38.5132 29.07L38.5132 29.07L37.8691 28.3051ZM37.8331 25.0651L37.1854 25.827L37.191 25.8318L37.1967 25.8365L37.8331 25.0651ZM33.0631 24.4531V23.4531H32.0631V24.4531H33.0631ZM33.0631 28.8811H32.0631V29.8811H33.0631V28.8811ZM37.5511 24.7568C37.828 24.8006 38.0805 24.9113 38.3213 25.1055L39.5768 23.5487C39.0736 23.1428 38.4981 22.8816 37.863 22.7813L37.5511 24.7568ZM38.3334 25.1151C38.5958 25.3201 38.7995 25.5716 38.9498 25.8805L40.7483 25.0056C40.4666 24.4266 40.0703 23.9341 39.5647 23.5391L38.3334 25.1151ZM38.9595 25.8999C39.1142 26.2011 39.1911 26.5183 39.1911 26.8651H41.1911C41.1911 26.2038 41.0399 25.573 40.7386 24.9863L38.9595 25.8999ZM39.1911 26.8651C39.1911 27.3216 39.0776 27.7118 38.8582 28.0613L40.552 29.1248C40.9805 28.4423 41.1911 27.6805 41.1911 26.8651H39.1911ZM38.8639 28.0523C38.6546 28.3778 38.3335 28.6653 37.8498 28.8978L38.7164 30.7003C39.4806 30.3329 40.1075 29.8163 40.5462 29.1338L38.8639 28.0523ZM37.8573 28.8943C37.4067 29.1063 36.8326 29.2311 36.1051 29.2311V31.2311C37.0575 31.2311 37.9355 31.0678 38.7089 30.7039L37.8573 28.8943ZM36.1051 29.2311H31.4251V31.2311H36.1051V29.2311ZM32.4251 30.2311V17.6851H30.4251V30.2311H32.4251ZM31.4251 18.6851H35.9251V16.6851H31.4251V18.6851ZM35.9251 18.6851C36.6678 18.6851 37.2377 18.8109 37.6703 19.0186L38.5358 17.2156C37.7684 16.8472 36.8863 16.6851 35.9251 16.6851V18.6851ZM37.6852 19.0256C38.1382 19.2339 38.4248 19.4926 38.6051 19.7811L40.3011 18.7211C39.8814 18.0496 39.268 17.5522 38.521 17.2086L37.6852 19.0256ZM38.6051 19.7811C38.7997 20.0925 38.9031 20.4467 38.9031 20.8711H40.9031C40.9031 20.0954 40.7064 19.3697 40.3011 18.7211L38.6051 19.7811ZM38.9031 20.8711C38.9031 21.4222 38.7567 21.8029 38.5213 22.0867L40.0608 23.3634C40.6414 22.6633 40.9031 21.808 40.9031 20.8711H38.9031ZM38.5197 22.0887C38.2579 22.406 37.8975 22.6546 37.396 22.8187L38.0181 24.7195C38.8366 24.4516 39.5322 24.0042 40.0624 23.3615L38.5197 22.0887ZM33.0631 24.1031H35.8171V22.1031H33.0631V24.1031ZM35.8171 24.1031C36.7315 24.1031 37.5891 23.8887 38.2499 23.3223L36.9483 21.8038C36.7691 21.9574 36.4386 22.1031 35.8171 22.1031V24.1031ZM38.2499 23.3223C38.9259 22.7428 39.2291 21.9484 39.2291 21.0691H37.2291C37.2291 21.4618 37.1122 21.6633 36.9483 21.8038L38.2499 23.3223ZM39.2291 21.0691C39.2291 20.1898 38.9259 19.3953 38.2499 18.8158L36.9483 20.3343C37.1122 20.4748 37.2291 20.6764 37.2291 21.0691H39.2291ZM38.2499 18.8158C37.5841 18.2452 36.7103 18.0351 35.7811 18.0351V20.0351C36.4358 20.0351 36.774 20.1849 36.9483 20.3343L38.2499 18.8158ZM35.7811 18.0351H33.0631V20.0351H35.7811V18.0351ZM32.0631 19.0351V23.1031H34.0631V19.0351H32.0631ZM35.9611 29.8811C36.926 29.8811 37.8201 29.6536 38.5132 29.07L37.2249 27.5402C37.006 27.7245 36.6281 27.8811 35.9611 27.8811V29.8811ZM38.5132 29.07C39.2295 28.4668 39.5531 27.6335 39.5531 26.7031H37.5531C37.5531 27.1406 37.4206 27.3754 37.2249 27.5402L38.5132 29.07ZM39.5531 26.7031C39.5531 25.7485 39.2088 24.9037 38.4694 24.2937L37.1967 25.8365C37.4173 26.0185 37.5531 26.2656 37.5531 26.7031H39.5531ZM38.4807 24.3031C37.7746 23.7029 36.8812 23.4531 35.9071 23.4531V25.4531C36.5409 25.4531 36.9315 25.6112 37.1854 25.827L38.4807 24.3031ZM35.9071 23.4531H33.0631V25.4531H35.9071V23.4531ZM32.0631 24.4531V28.8811H34.0631V24.4531H32.0631ZM33.0631 29.8811H35.9611V27.8811H33.0631V29.8811ZM48.7461 23.7691L48.4351 22.8187L48.5902 24.7568L48.7461 23.7691ZM49.9881 24.3271L49.3604 25.1055L49.3664 25.1103L49.3725 25.1151L49.9881 24.3271ZM50.8881 25.4431L49.9889 25.8805L49.9936 25.8903L49.9986 25.8999L50.8881 25.4431ZM50.7441 28.5931L51.5854 29.1339L51.591 29.1248L50.7441 28.5931ZM49.3221 29.7991L49.7479 30.7039L49.7554 30.7003L49.3221 29.7991ZM42.4641 30.2311H41.4641V31.2311H42.4641V30.2311ZM42.4641 17.6851V16.6851H41.4641V17.6851H42.4641ZM49.1421 18.1171L48.7094 19.0186L48.7168 19.0221L48.7242 19.0256L49.1421 18.1171ZM50.4921 19.2511L49.6441 19.7811L49.6441 19.7811L50.4921 19.2511ZM50.3301 22.7251L49.5604 22.0867L49.5588 22.0887L50.3301 22.7251ZM44.1021 23.1031H43.1021V24.1031H44.1021V23.1031ZM48.6381 19.5751L47.9873 20.3343L47.9873 20.3343L48.6381 19.5751ZM44.1021 19.0351V18.0351H43.1021V19.0351H44.1021ZM48.9081 28.3051L49.5523 29.07L49.5523 29.07L48.9081 28.3051ZM48.8721 25.0651L48.2245 25.827L48.2301 25.8318L48.2357 25.8365L48.8721 25.0651ZM44.1021 24.4531V23.4531H43.1021V24.4531H44.1021ZM44.1021 28.8811H43.1021V29.8811H44.1021V28.8811ZM48.5902 24.7568C48.867 24.8006 49.1196 24.9113 49.3604 25.1055L50.6159 23.5487C50.1126 23.1428 49.5372 22.8816 48.9021 22.7813L48.5902 24.7568ZM49.3725 25.1151C49.6349 25.3201 49.8386 25.5716 49.9889 25.8805L51.7874 25.0056C51.5057 24.4266 51.1094 23.9341 50.6038 23.5391L49.3725 25.1151ZM49.9986 25.8999C50.1532 26.2011 50.2301 26.5183 50.2301 26.8651H52.2301C52.2301 26.2038 52.079 25.573 51.7777 24.9863L49.9986 25.8999ZM50.2301 26.8651C50.2301 27.3216 50.1167 27.7118 49.8972 28.0613L51.591 29.1248C52.0196 28.4423 52.2301 27.6805 52.2301 26.8651H50.2301ZM49.9029 28.0523C49.6937 28.3778 49.3726 28.6653 48.8888 28.8978L49.7554 30.7003C50.5197 30.3329 51.1466 29.8163 51.5853 29.1338L49.9029 28.0523ZM48.8963 28.8943C48.4457 29.1063 47.8716 29.2311 47.1441 29.2311V31.2311C48.0966 31.2311 48.9745 31.0678 49.7479 30.7039L48.8963 28.8943ZM47.1441 29.2311H42.4641V31.2311H47.1441V29.2311ZM43.4641 30.2311V17.6851H41.4641V30.2311H43.4641ZM42.4641 18.6851H46.9641V16.6851H42.4641V18.6851ZM46.9641 18.6851C47.7069 18.6851 48.2768 18.8109 48.7094 19.0186L49.5749 17.2156C48.8075 16.8472 47.9254 16.6851 46.9641 16.6851V18.6851ZM48.7242 19.0256C49.1772 19.2339 49.4638 19.4926 49.6441 19.7811L51.3401 18.7211C50.9204 18.0496 50.307 17.5522 49.56 17.2086L48.7242 19.0256ZM49.6441 19.7811C49.8387 20.0925 49.9421 20.4467 49.9421 20.8711H51.9421C51.9421 20.0954 51.7455 19.3697 51.3401 18.7211L49.6441 19.7811ZM49.9421 20.8711C49.9421 21.4222 49.7958 21.8029 49.5604 22.0867L51.0999 23.3634C51.6805 22.6633 51.9421 21.808 51.9421 20.8711H49.9421ZM49.5588 22.0887C49.297 22.406 48.9365 22.6546 48.4351 22.8187L49.0572 24.7195C49.8757 24.4516 50.5712 24.0042 51.1015 23.3615L49.5588 22.0887ZM44.1021 24.1031H46.8561V22.1031H44.1021V24.1031ZM46.8561 24.1031C47.7705 24.1031 48.6281 23.8887 49.2889 23.3223L47.9873 21.8038C47.8081 21.9574 47.4777 22.1031 46.8561 22.1031V24.1031ZM49.2889 23.3223C49.965 22.7428 50.2681 21.9484 50.2681 21.0691H48.2681C48.2681 21.4618 48.1513 21.6633 47.9873 21.8038L49.2889 23.3223ZM50.2681 21.0691C50.2681 20.1898 49.965 19.3953 49.2889 18.8158L47.9873 20.3343C48.1513 20.4748 48.2681 20.6764 48.2681 21.0691H50.2681ZM49.2889 18.8158C48.6232 18.2452 47.7494 18.0351 46.8201 18.0351V20.0351C47.4748 20.0351 47.813 20.1849 47.9873 20.3343L49.2889 18.8158ZM46.8201 18.0351H44.1021V20.0351H46.8201V18.0351ZM43.1021 19.0351V23.1031H45.1021V19.0351H43.1021ZM47.0001 29.8811C47.9651 29.8811 48.8592 29.6536 49.5523 29.07L48.264 27.5402C48.0451 27.7245 47.6672 27.8811 47.0001 27.8811V29.8811ZM49.5523 29.07C50.2686 28.4668 50.5921 27.6335 50.5921 26.7031H48.5921C48.5921 27.1406 48.4597 27.3754 48.264 27.5402L49.5523 29.07ZM50.5921 26.7031C50.5921 25.7485 50.2479 24.9037 49.5085 24.2937L48.2357 25.8365C48.4564 26.0185 48.5921 26.2656 48.5921 26.7031H50.5921ZM49.5198 24.3031C48.8137 23.7029 47.9203 23.4531 46.9461 23.4531V25.4531C47.58 25.4531 47.9706 25.6112 48.2245 25.827L49.5198 24.3031ZM46.9461 23.4531H44.1021V25.4531H46.9461V23.4531ZM43.1021 24.4531V28.8811H45.1021V24.4531H43.1021ZM44.1021 29.8811H47.0001V27.8811H44.1021V29.8811ZM63.8712 17.6851L64.8068 18.0381L65.3173 16.6851H63.8712V17.6851ZM59.1372 30.2311V31.2311H59.8287L60.0728 30.5841L59.1372 30.2311ZM57.2472 30.2311L56.3116 30.5841L56.5557 31.2311H57.2472V30.2311ZM52.5132 17.6851V16.6851H51.067L51.5776 18.0381L52.5132 17.6851ZM54.2592 17.6851L55.1988 17.3427L54.9591 16.6851H54.2592V17.6851ZM58.2012 28.5031L57.2616 28.8454L58.2012 31.4239L59.1408 28.8454L58.2012 28.5031ZM62.1432 17.6851V16.6851H61.4433L61.2036 17.3427L62.1432 17.6851ZM62.9356 17.332L58.2016 29.878L60.0728 30.5841L64.8068 18.0381L62.9356 17.332ZM59.1372 29.2311H57.2472V31.2311H59.1372V29.2311ZM58.1828 29.878L53.4488 17.332L51.5776 18.0381L56.3116 30.5841L58.1828 29.878ZM52.5132 18.6851H54.2592V16.6851H52.5132V18.6851ZM53.3196 18.0274L57.2616 28.8454L59.1408 28.1607L55.1988 17.3427L53.3196 18.0274ZM59.1408 28.8454L63.0828 18.0274L61.2036 17.3427L57.2616 28.1607L59.1408 28.8454ZM62.1432 18.6851H63.8712V16.6851H62.1432V18.6851ZM67.4133 29.9251L66.9931 30.8325L67.0032 30.8372L67.0133 30.8416L67.4133 29.9251ZM65.8833 28.7011L65.0657 29.2771L65.0721 29.2859L65.8833 28.7011ZM65.3073 26.8831V25.8831H64.2896L64.3074 26.9006L65.3073 26.8831ZM67.0533 26.8831L68.0481 26.7816L67.9564 25.8831H67.0533V26.8831ZM67.7733 28.3771L67.0765 29.0944L67.0869 29.1044L67.0975 29.1142L67.7733 28.3771ZM71.4813 28.3951L72.1354 29.1514L72.1369 29.1501L71.4813 28.3951ZM71.7693 25.7131L71.0185 26.3737L71.0185 26.3737L71.7693 25.7131ZM70.7793 25.0291L70.4127 25.9595L70.4127 25.9595L70.7793 25.0291ZM69.1773 24.5251L69.436 23.5591L69.4297 23.5575L69.1773 24.5251ZM67.1793 23.8771L66.7772 24.7928L66.7853 24.7962L67.1793 23.8771ZM65.9013 22.8691L65.0988 23.4658L65.1074 23.4774L65.1164 23.4887L65.9013 22.8691ZM65.9013 19.1791L66.7362 19.7294L66.7362 19.7294L65.9013 19.1791ZM67.3593 17.9551L66.9467 17.0441L66.9402 17.0471L67.3593 17.9551ZM72.4173 18.4051L71.7972 19.1897L71.8033 19.1944L72.4173 18.4051ZM73.6953 20.7451V21.7451H74.7989L74.6904 20.6468L73.6953 20.7451ZM71.8953 20.7451L70.903 20.8691L71.0125 21.7451H71.8953V20.7451ZM71.1393 19.4851L70.497 20.2516L70.5032 20.2568L70.5094 20.2618L71.1393 19.4851ZM67.7013 19.4671L68.3286 20.2458L68.3351 20.2406L68.3414 20.2353L67.7013 19.4671ZM67.4313 22.0591L66.6787 22.7176L66.6863 22.7263L66.6941 22.7348L67.4313 22.0591ZM68.3853 22.7251L67.9985 23.6473L68.0162 23.6547L68.0341 23.6614L68.3853 22.7251ZM69.9873 23.2291L69.717 24.1919L69.7218 24.1932L69.9873 23.2291ZM71.9853 23.9131L71.5731 24.8242L71.5822 24.8283L71.5913 24.8322L71.9853 23.9131ZM73.2812 24.9391L72.4886 25.5488L72.4964 25.5587L73.2812 24.9391ZM73.3353 28.5391L74.1927 29.0536L74.1927 29.0536L73.3353 28.5391ZM71.8953 29.8531L71.4281 28.9689L71.8953 29.8531ZM69.6453 29.3571C68.9344 29.3571 68.3295 29.2338 67.8132 29.0085L67.0133 30.8416C67.817 31.1923 68.7001 31.3571 69.6453 31.3571V29.3571ZM67.8334 29.0176C67.3218 28.7808 66.9541 28.4765 66.6944 28.1163L65.0721 29.2859C65.5564 29.9577 66.2087 30.4694 66.9931 30.8325L67.8334 29.0176ZM66.7007 28.1251C66.451 27.7707 66.3158 27.3618 66.3071 26.8655L64.3074 26.9006C64.3227 27.7723 64.5715 28.5754 65.0658 29.277L66.7007 28.1251ZM65.3073 27.8831H67.0533V25.8831H65.3073V27.8831ZM66.0584 26.9846C66.142 27.8041 66.4861 28.5208 67.0765 29.0944L68.47 27.6598C68.2204 27.4173 68.0845 27.1381 68.0481 26.7816L66.0584 26.9846ZM67.0975 29.1142C67.7756 29.7358 68.6776 29.9711 69.6453 29.9711V27.9711C68.9809 27.9711 68.6349 27.8104 68.449 27.6399L67.0975 29.1142ZM69.6453 29.9711C70.5855 29.9711 71.4572 29.738 72.1354 29.1514L70.8271 27.6387C70.6173 27.8201 70.265 27.9711 69.6453 27.9711V29.9711ZM72.1369 29.1501C72.815 28.5613 73.1653 27.7803 73.1653 26.8831H71.1653C71.1653 27.2099 71.0595 27.4369 70.8256 27.64L72.1369 29.1501ZM73.1653 26.8831C73.1653 26.2112 72.9756 25.5702 72.52 25.0525L71.0185 26.3737C71.0909 26.456 71.1653 26.5949 71.1653 26.8831H73.1653ZM72.52 25.0525C72.1443 24.6256 71.6796 24.309 71.1458 24.0987L70.4127 25.9595C70.6709 26.0612 70.8662 26.2006 71.0185 26.3737L72.52 25.0525ZM71.1458 24.0987C70.6996 23.9229 70.1248 23.7436 69.436 23.5591L68.9185 25.491C69.5737 25.6665 70.0669 25.8233 70.4127 25.9595L71.1458 24.0987ZM69.4297 23.5575C68.6264 23.3479 68.0133 23.1466 67.5732 22.9579L66.7853 24.7962C67.3532 25.0396 68.0721 25.2702 68.9248 25.4927L69.4297 23.5575ZM67.5812 22.9614C67.2512 22.8165 66.9531 22.5876 66.6861 22.2494L65.1164 23.4887C65.5694 24.0625 66.1233 24.5056 66.7773 24.7927L67.5812 22.9614ZM66.7037 22.2724C66.5211 22.0268 66.3793 21.634 66.3793 20.9971H64.3793C64.3793 21.9202 64.5854 22.7754 65.0988 23.4658L66.7037 22.2724ZM66.3793 20.9971C66.3793 20.492 66.5047 20.0806 66.7362 19.7294L65.0663 18.6288C64.6018 19.3335 64.3793 20.1341 64.3793 20.9971H66.3793ZM66.7362 19.7294C66.9728 19.3705 67.3083 19.08 67.7783 18.863L66.9402 17.0471C66.1622 17.4062 65.5257 17.9317 65.0663 18.6288L66.7362 19.7294ZM67.7718 18.866C68.2581 18.6458 68.8397 18.5231 69.5373 18.5231V16.5231C68.6028 16.5231 67.7324 16.6884 66.9467 17.0441L67.7718 18.866ZM69.5373 18.5231C70.5436 18.5231 71.2688 18.772 71.7972 19.1896L73.0373 17.6205C72.0777 16.8622 70.8829 16.5231 69.5373 16.5231V18.5231ZM71.8033 19.1944C72.3381 19.6103 72.6304 20.1381 72.7001 20.8434L74.6904 20.6468C74.5681 19.408 74.0084 18.3758 73.0312 17.6157L71.8033 19.1944ZM73.6953 19.7451H71.8953V21.7451H73.6953V19.7451ZM72.8875 20.621C72.7898 19.8391 72.3747 19.1994 71.7691 18.7083L70.5094 20.2618C70.7918 20.4908 70.8807 20.6911 70.903 20.8691L72.8875 20.621ZM71.7815 18.7186C71.1141 18.1594 70.2786 17.9271 69.3753 17.9271V19.9271C69.9359 19.9271 70.2764 20.0667 70.497 20.2516L71.7815 18.7186ZM69.3753 17.9271C68.5098 17.9271 67.7094 18.1586 67.0611 18.6989L68.3414 20.2353C68.5571 20.0556 68.8727 19.9271 69.3753 19.9271V17.9271ZM67.0739 18.6883C66.37 19.2554 66.0533 20.0544 66.0533 20.9431H68.0533C68.0533 20.5598 68.1685 20.3748 68.3286 20.2458L67.0739 18.6883ZM66.0533 20.9431C66.0533 21.5925 66.2377 22.2136 66.6787 22.7176L68.1838 21.4006C68.1208 21.3285 68.0533 21.2057 68.0533 20.9431H66.0533ZM66.6941 22.7348C67.0589 23.1328 67.4977 23.4373 67.9985 23.6473L68.772 21.8029C68.5288 21.7009 68.3316 21.5613 68.1684 21.3834L66.6941 22.7348ZM68.0341 23.6614C68.457 23.82 69.0223 23.9969 69.717 24.1919L70.2575 22.2663C69.5842 22.0773 69.0815 21.9182 68.7364 21.7887L68.0341 23.6614ZM69.7218 24.1932C70.5238 24.414 71.1349 24.626 71.5731 24.8242L72.3974 23.002C71.8276 22.7442 71.1067 22.5001 70.2527 22.265L69.7218 24.1932ZM71.5913 24.8322C71.9262 24.9757 72.2246 25.2056 72.4886 25.5488L74.0739 24.3294C73.6179 23.7366 73.0523 23.2824 72.3792 22.9939L71.5913 24.8322ZM72.4964 25.5587C72.674 25.7837 72.8213 26.163 72.8213 26.8111H74.8213C74.8213 25.8752 74.6085 25.0064 74.0661 24.3194L72.4964 25.5587ZM72.8213 26.8111C72.8213 27.2364 72.7113 27.6353 72.4778 28.0246L74.1927 29.0536C74.6072 28.3629 74.8213 27.6098 74.8213 26.8111H72.8213ZM72.4778 28.0246C72.2604 28.3868 71.9261 28.7058 71.4281 28.9689L72.3624 30.7373C73.1364 30.3284 73.7621 29.7714 74.1927 29.0536L72.4778 28.0246ZM71.4281 28.9689C70.9623 29.215 70.379 29.3571 69.6453 29.3571V31.3571C70.6395 31.3571 71.5562 31.1632 72.3624 30.7373L71.4281 28.9689Z" fill="#443B3B"/>
<path d="M126.657 26.0002C126.657 25.6978 126.463 25.4378 126.181 25.3014L106.093 15.1442C105.94 15.0504 105.758 15.0001 105.572 15C105.329 15 105.096 15.0844 104.925 15.2345C104.753 15.3847 104.657 15.5884 104.657 15.8009C104.657 15.8319 104.663 15.8612 104.667 15.8912H104.657V36.2895H104.667C104.692 36.4846 104.798 36.6649 104.965 36.796C105.131 36.9271 105.347 36.9997 105.572 37C105.732 36.9993 105.889 36.9613 106.027 36.89L106.035 36.9025L126.205 26.7036L126.197 26.6911C126.337 26.6215 126.452 26.521 126.533 26.3997C126.614 26.2784 126.656 26.1406 126.657 26.0002Z" fill="#443B3B"/>
<defs>
<filter id="filter0_d" x="0.682617" y="0.672241" width="142.192" height="53.9874" filterUnits="userSpaceOnUse" color-interpolation-filters="sRGB">
<feFlood flood-opacity="0" result="BackgroundImageFix"/>
<feColorMatrix in="SourceAlpha" type="matrix" values="0 0 0 0 0 0 0 0 0 0 0 0 0 0 0 0 0 0 127 0"/>
<feOffset dy="4"/>
<feGaussianBlur stdDeviation="2"/>
<feColorMatrix type="matrix" values="0 0 0 0 0 0 0 0 0 0 0 0 0 0 0 0 0 0 0.25 0"/>
<feBlend mode="normal" in2="BackgroundImageFix" result="effect1_dropShadow"/>
<feBlend mode="normal" in="SourceGraphic" in2="effect1_dropShadow" result="shape"/>
</filter>
</defs>
</svg>
