<svg width="210" height="63" viewBox="0 0 210 63" fill="none" xmlns="http://www.w3.org/2000/svg">
<g filter="url(#filter0_d)">
<rect x="4" width="174" height="55" rx="27.5" fill="#F58A8A"/>
</g>
<path d="M31.224 26.384C31.832 26.48 32.384 26.728 32.88 27.128C33.392 27.528 33.792 28.024 34.08 28.616C34.384 29.208 34.536 29.84 34.536 30.512C34.536 31.36 34.32 32.128 33.888 32.816C33.456 33.488 32.824 34.024 31.992 34.424C31.176 34.808 30.208 35 29.088 35H22.848V18.272H28.848C29.984 18.272 30.952 18.464 31.752 18.848C32.552 19.216 33.152 19.72 33.552 20.36C33.952 21 34.152 21.72 34.152 22.52C34.152 23.512 33.88 24.336 33.336 24.992C32.808 25.632 32.104 26.096 31.224 26.384ZM25.032 25.496H28.704C29.728 25.496 30.52 25.256 31.08 24.776C31.64 24.296 31.92 23.632 31.92 22.784C31.92 21.936 31.64 21.272 31.08 20.792C30.52 20.312 29.712 20.072 28.656 20.072H25.032V25.496ZM28.896 33.2C29.984 33.2 30.832 32.944 31.44 32.432C32.048 31.92 32.352 31.208 32.352 30.296C32.352 29.368 32.032 28.64 31.392 28.112C30.752 27.568 29.896 27.296 28.824 27.296H25.032V33.2H28.896ZM45.9428 26.384C46.5508 26.48 47.1028 26.728 47.5988 27.128C48.1108 27.528 48.5108 28.024 48.7988 28.616C49.1028 29.208 49.2548 29.84 49.2548 30.512C49.2548 31.36 49.0388 32.128 48.6068 32.816C48.1748 33.488 47.5428 34.024 46.7108 34.424C45.8948 34.808 44.9268 35 43.8068 35H37.5668V18.272H43.5668C44.7028 18.272 45.6708 18.464 46.4708 18.848C47.2708 19.216 47.8708 19.72 48.2708 20.36C48.6708 21 48.8708 21.72 48.8708 22.52C48.8708 23.512 48.5988 24.336 48.0547 24.992C47.5268 25.632 46.8228 26.096 45.9428 26.384ZM39.7508 25.496H43.4228C44.4468 25.496 45.2388 25.256 45.7988 24.776C46.3588 24.296 46.6388 23.632 46.6388 22.784C46.6388 21.936 46.3588 21.272 45.7988 20.792C45.2388 20.312 44.4308 20.072 43.3748 20.072H39.7508V25.496ZM43.6148 33.2C44.7028 33.2 45.5508 32.944 46.1588 32.432C46.7668 31.92 47.0708 31.208 47.0708 30.296C47.0708 29.368 46.7508 28.64 46.1108 28.112C45.4708 27.568 44.6148 27.296 43.5428 27.296H39.7508V33.2H43.6148ZM60.6615 26.384C61.2695 26.48 61.8215 26.728 62.3175 27.128C62.8295 27.528 63.2295 28.024 63.5175 28.616C63.8215 29.208 63.9735 29.84 63.9735 30.512C63.9735 31.36 63.7575 32.128 63.3255 32.816C62.8935 33.488 62.2615 34.024 61.4295 34.424C60.6135 34.808 59.6455 35 58.5255 35H52.2855V18.272H58.2855C59.4215 18.272 60.3895 18.464 61.1895 18.848C61.9895 19.216 62.5895 19.72 62.9895 20.36C63.3895 21 63.5895 21.72 63.5895 22.52C63.5895 23.512 63.3175 24.336 62.7735 24.992C62.2455 25.632 61.5415 26.096 60.6615 26.384ZM54.4695 25.496H58.1415C59.1655 25.496 59.9575 25.256 60.5175 24.776C61.0775 24.296 61.3575 23.632 61.3575 22.784C61.3575 21.936 61.0775 21.272 60.5175 20.792C59.9575 20.312 59.1495 20.072 58.0935 20.072H54.4695V25.496ZM58.3335 33.2C59.4215 33.2 60.2695 32.944 60.8775 32.432C61.4855 31.92 61.7895 31.208 61.7895 30.296C61.7895 29.368 61.4695 28.64 60.8295 28.112C60.1895 27.568 59.3335 27.296 58.2615 27.296H54.4695V33.2H58.3335ZM80.8283 18.272L74.5163 35H71.9963L65.6843 18.272H68.0123L73.2683 32.696L78.5243 18.272H80.8283ZM88.527 35.168C87.423 35.168 86.431 34.976 85.551 34.592C84.687 34.192 84.007 33.648 83.511 32.96C83.015 32.256 82.759 31.448 82.743 30.536H85.071C85.151 31.32 85.471 31.984 86.031 32.528C86.607 33.056 87.439 33.32 88.527 33.32C89.567 33.32 90.383 33.064 90.975 32.552C91.583 32.024 91.887 31.352 91.887 30.536C91.887 29.896 91.711 29.376 91.359 28.976C91.007 28.576 90.567 28.272 90.039 28.064C89.511 27.856 88.799 27.632 87.903 27.392C86.799 27.104 85.911 26.816 85.239 26.528C84.583 26.24 84.015 25.792 83.535 25.184C83.071 24.56 82.839 23.728 82.839 22.688C82.839 21.776 83.071 20.968 83.535 20.264C83.999 19.56 84.647 19.016 85.479 18.632C86.327 18.248 87.295 18.056 88.383 18.056C89.951 18.056 91.231 18.448 92.223 19.232C93.231 20.016 93.799 21.056 93.927 22.352H91.527C91.447 21.712 91.111 21.152 90.519 20.672C89.927 20.176 89.143 19.928 88.167 19.928C87.255 19.928 86.511 20.168 85.935 20.648C85.359 21.112 85.071 21.768 85.071 22.616C85.071 23.224 85.239 23.72 85.575 24.104C85.927 24.488 86.351 24.784 86.847 24.992C87.359 25.184 88.071 25.408 88.983 25.664C90.087 25.968 90.975 26.272 91.647 26.576C92.319 26.864 92.895 27.32 93.375 27.944C93.855 28.552 94.095 29.384 94.095 30.44C94.095 31.256 93.879 32.024 93.447 32.744C93.015 33.464 92.375 34.048 91.527 34.496C90.679 34.944 89.679 35.168 88.527 35.168Z" fill="#443B3B"/>
<path d="M31.224 26.384L30.913 25.4336L31.068 27.3718L31.224 26.384ZM32.88 27.128L32.2522 27.9064L32.2583 27.9113L32.2644 27.916L32.88 27.128ZM34.08 28.616L33.1808 29.0535L33.1855 29.0632L33.1904 29.0728L34.08 28.616ZM33.888 32.816L34.7292 33.3568L34.7349 33.3478L33.888 32.816ZM31.992 34.424L32.4178 35.3288L32.4253 35.3253L31.992 34.424ZM22.848 35H21.848V36H22.848V35ZM22.848 18.272V17.272H21.848V18.272H22.848ZM31.752 18.848L31.3193 19.7495L31.3267 19.7531L31.3341 19.7565L31.752 18.848ZM33.552 20.36L32.704 20.89L32.704 20.89L33.552 20.36ZM33.336 24.992L32.5662 24.3537L32.5646 24.3556L33.336 24.992ZM25.032 25.496H24.032V26.496H25.032V25.496ZM31.08 20.792L30.4292 21.5513L30.4292 21.5513L31.08 20.792ZM25.032 20.072V19.072H24.032V20.072H25.032ZM31.44 32.432L32.0841 33.1969H32.0841L31.44 32.432ZM31.392 28.112L30.7444 28.8739L30.75 28.8787L30.7556 28.8834L31.392 28.112ZM25.032 27.296V26.296H24.032V27.296H25.032ZM25.032 33.2H24.032V34.2H25.032V33.2ZM31.068 27.3718C31.4969 27.4395 31.8875 27.6122 32.2522 27.9064L33.5078 26.3496C32.8805 25.8438 32.1671 25.5205 31.38 25.3962L31.068 27.3718ZM32.2644 27.916C32.6547 28.221 32.9585 28.5965 33.1808 29.0535L34.9792 28.1785C34.6255 27.4515 34.1293 26.835 33.4956 26.34L32.2644 27.916ZM33.1904 29.0728C33.4211 29.522 33.536 29.9973 33.536 30.512H35.536C35.536 29.6827 35.3469 28.894 34.9696 28.1592L33.1904 29.0728ZM33.536 30.512C33.536 31.1805 33.3686 31.7627 33.0411 32.2842L34.7349 33.3478C35.2714 32.4933 35.536 31.5395 35.536 30.512H33.536ZM33.0468 32.2752C32.7296 32.7687 32.2504 33.1902 31.5587 33.5227L32.4253 35.3253C33.3976 34.8578 34.1824 34.2073 34.7292 33.3568L33.0468 32.2752ZM31.5662 33.5192C30.9116 33.8272 30.0955 34 29.088 34V36C30.3205 36 31.4404 35.7888 32.4178 35.3288L31.5662 33.5192ZM29.088 34H22.848V36H29.088V34ZM23.848 35V18.272H21.848V35H23.848ZM22.848 19.272H28.848V17.272H22.848V19.272ZM28.848 19.272C29.8748 19.272 30.6867 19.4459 31.3193 19.7495L32.1847 17.9465C31.2173 17.4821 30.0932 17.272 28.848 17.272V19.272ZM31.3341 19.7565C31.9871 20.0569 32.4237 20.4415 32.704 20.89L34.4 19.83C33.8803 18.9985 33.1169 18.3751 32.1699 17.9395L31.3341 19.7565ZM32.704 20.89C32.9986 21.3614 33.152 21.8957 33.152 22.52H35.152C35.152 21.5443 34.9054 20.6386 34.4 19.83L32.704 20.89ZM33.152 22.52C33.152 23.3191 32.9376 23.9058 32.5662 24.3537L34.1058 25.6303C34.8224 24.7662 35.152 23.7049 35.152 22.52H33.152ZM32.5646 24.3556C32.1709 24.8329 31.6344 25.1975 30.913 25.4336L31.535 27.3344C32.5736 26.9945 33.4451 26.4311 34.1074 25.6284L32.5646 24.3556ZM25.032 26.496H28.704V24.496H25.032V26.496ZM28.704 26.496C29.8744 26.496 30.93 26.2216 31.7308 25.5353L30.4292 24.0167C30.11 24.2904 29.5816 24.496 28.704 24.496V26.496ZM31.7308 25.5353C32.5469 24.8358 32.92 23.8753 32.92 22.784H30.92C30.92 23.3887 30.7331 23.7562 30.4292 24.0167L31.7308 25.5353ZM32.92 22.784C32.92 21.6927 32.5469 20.7322 31.7308 20.0327L30.4292 21.5513C30.7331 21.8118 30.92 22.1793 30.92 22.784H32.92ZM31.7308 20.0327C30.9251 19.3421 29.8493 19.072 28.656 19.072V21.072C29.5747 21.072 30.1149 21.2819 30.4292 21.5513L31.7308 20.0327ZM28.656 19.072H25.032V21.072H28.656V19.072ZM24.032 20.072V25.496H26.032V20.072H24.032ZM28.896 34.2C30.1329 34.2 31.239 33.9086 32.0841 33.1969L30.7959 31.6671C30.425 31.9794 29.8351 32.2 28.896 32.2V34.2ZM32.0841 33.1969C32.9524 32.4657 33.352 31.4544 33.352 30.296H31.352C31.352 30.9616 31.1436 31.3743 30.7959 31.6671L32.0841 33.1969ZM33.352 30.296C33.352 29.1094 32.9278 28.0826 32.0284 27.3406L30.7556 28.8834C31.1362 29.1974 31.352 29.6266 31.352 30.296H33.352ZM32.0396 27.3501C31.1735 26.6139 30.0661 26.296 28.824 26.296V28.296C29.7259 28.296 30.3305 28.5221 30.7444 28.8739L32.0396 27.3501ZM28.824 26.296H25.032V28.296H28.824V26.296ZM24.032 27.296V33.2H26.032V27.296H24.032ZM25.032 34.2H28.896V32.2H25.032V34.2ZM45.9428 26.384L45.6317 25.4336L45.7868 27.3718L45.9428 26.384ZM47.5988 27.128L46.971 27.9064L46.977 27.9113L46.9831 27.916L47.5988 27.128ZM48.7987 28.616L47.8995 29.0535L47.9042 29.0632L47.9092 29.0728L48.7987 28.616ZM48.6068 32.816L49.448 33.3568L49.4536 33.3478L48.6068 32.816ZM46.7108 34.424L47.1366 35.3288L47.144 35.3253L46.7108 34.424ZM37.5667 35H36.5668V36H37.5667V35ZM37.5667 18.272V17.272H36.5668V18.272H37.5667ZM46.4708 18.848L46.038 19.7495L46.0454 19.7531L46.0528 19.7565L46.4708 18.848ZM48.2708 20.36L47.4228 20.89L47.4228 20.89L48.2708 20.36ZM48.0548 24.992L47.285 24.3537L47.2834 24.3556L48.0548 24.992ZM39.7507 25.496H38.7507V26.496H39.7507V25.496ZM45.7987 20.792L45.148 21.5513V21.5513L45.7987 20.792ZM39.7507 20.072V19.072H38.7507V20.072H39.7507ZM46.1588 32.432L46.8029 33.1969L46.1588 32.432ZM46.1108 28.112L45.4631 28.8739L45.4687 28.8787L45.4744 28.8834L46.1108 28.112ZM39.7507 27.296V26.296H38.7507V27.296H39.7507ZM39.7507 33.2H38.7507V34.2H39.7507V33.2ZM45.7868 27.3718C46.2157 27.4395 46.6062 27.6122 46.971 27.9064L48.2265 26.3496C47.5993 25.8438 46.8858 25.5205 46.0987 25.3962L45.7868 27.3718ZM46.9831 27.916C47.3735 28.221 47.6772 28.5965 47.8995 29.0535L49.698 28.1785C49.3443 27.4515 48.848 26.835 48.2144 26.34L46.9831 27.916ZM47.9092 29.0728C48.1399 29.522 48.2547 29.9973 48.2547 30.512H50.2547C50.2547 29.6827 50.0656 28.894 49.6883 28.1592L47.9092 29.0728ZM48.2547 30.512C48.2547 31.1805 48.0873 31.7627 47.7599 32.2842L49.4536 33.3478C49.9902 32.4933 50.2547 31.5395 50.2547 30.512H48.2547ZM47.7656 32.2752C47.4483 32.7687 46.9692 33.1902 46.2775 33.5227L47.144 35.3253C48.1163 34.8578 48.9012 34.2073 49.4479 33.3568L47.7656 32.2752ZM46.285 33.5192C45.6304 33.8272 44.8143 34 43.8068 34V36C45.0392 36 46.1591 35.7888 47.1365 35.3288L46.285 33.5192ZM43.8068 34H37.5667V36H43.8068V34ZM38.5667 35V18.272H36.5668V35H38.5667ZM37.5667 19.272H43.5667V17.272H37.5667V19.272ZM43.5667 19.272C44.5935 19.272 45.4054 19.4459 46.038 19.7495L46.9035 17.9465C45.9361 17.4821 44.812 17.272 43.5667 17.272V19.272ZM46.0528 19.7565C46.7058 20.0569 47.1424 20.4415 47.4228 20.89L49.1187 19.83C48.5991 18.9985 47.8357 18.3751 46.8887 17.9395L46.0528 19.7565ZM47.4228 20.89C47.7174 21.3614 47.8708 21.8957 47.8708 22.52H49.8708C49.8708 21.5443 49.6241 20.6386 49.1187 19.83L47.4228 20.89ZM47.8708 22.52C47.8708 23.3191 47.6564 23.9058 47.285 24.3537L48.8245 25.6303C49.5411 24.7662 49.8708 23.7049 49.8708 22.52H47.8708ZM47.2834 24.3556C46.8896 24.8329 46.3532 25.1975 45.6317 25.4336L46.2538 27.3344C47.2923 26.9945 48.1639 26.4311 48.8261 25.6284L47.2834 24.3556ZM39.7507 26.496H43.4228V24.496H39.7507V26.496ZM43.4228 26.496C44.5932 26.496 45.6488 26.2216 46.4495 25.5353L45.148 24.0167C44.8287 24.2904 44.3003 24.496 43.4228 24.496V26.496ZM46.4495 25.5353C47.2656 24.8358 47.6388 23.8753 47.6388 22.784H45.6388C45.6388 23.3887 45.4519 23.7562 45.148 24.0167L46.4495 25.5353ZM47.6388 22.784C47.6388 21.6927 47.2656 20.7322 46.4495 20.0327L45.148 21.5513C45.4519 21.8118 45.6388 22.1793 45.6388 22.784H47.6388ZM46.4495 20.0327C45.6438 19.3421 44.568 19.072 43.3748 19.072V21.072C44.2935 21.072 44.8337 21.2819 45.148 21.5513L46.4495 20.0327ZM43.3748 19.072H39.7507V21.072H43.3748V19.072ZM38.7507 20.072V25.496H40.7507V20.072H38.7507ZM43.6147 34.2C44.8517 34.2 45.9578 33.9086 46.8029 33.1969L45.5146 31.6671C45.1437 31.9794 44.5538 32.2 43.6147 32.2V34.2ZM46.8029 33.1969C47.6712 32.4657 48.0708 31.4544 48.0708 30.296H46.0708C46.0708 30.9616 45.8623 31.3743 45.5146 31.6671L46.8029 33.1969ZM48.0708 30.296C48.0708 29.1094 47.6465 28.0826 46.7471 27.3406L45.4744 28.8834C45.855 29.1974 46.0708 29.6266 46.0708 30.296H48.0708ZM46.7584 27.3501C45.8923 26.6139 44.7849 26.296 43.5427 26.296V28.296C44.4446 28.296 45.0492 28.5221 45.4631 28.8739L46.7584 27.3501ZM43.5427 26.296H39.7507V28.296H43.5427V26.296ZM38.7507 27.296V33.2H40.7507V27.296H38.7507ZM39.7507 34.2H43.6147V32.2H39.7507V34.2ZM60.6615 26.384L60.3505 25.4336L60.5055 27.3718L60.6615 26.384ZM62.3175 27.128L61.6897 27.9064L61.6958 27.9113L61.7019 27.916L62.3175 27.128ZM63.5175 28.616L62.6183 29.0535L62.623 29.0632L62.6279 29.0728L63.5175 28.616ZM63.3255 32.816L64.1667 33.3568L64.1724 33.3478L63.3255 32.816ZM61.4295 34.424L61.8553 35.3288L61.8628 35.3253L61.4295 34.424ZM52.2855 35H51.2855V36H52.2855V35ZM52.2855 18.272V17.272H51.2855V18.272H52.2855ZM61.1895 18.848L60.7568 19.7495L60.7642 19.7531L60.7716 19.7565L61.1895 18.848ZM62.9895 20.36L62.1415 20.89V20.89L62.9895 20.36ZM62.7735 24.992L62.0037 24.3537L62.0021 24.3556L62.7735 24.992ZM54.4695 25.496H53.4695V26.496H54.4695V25.496ZM60.5175 20.792L59.8667 21.5513L59.8667 21.5513L60.5175 20.792ZM54.4695 20.072V19.072H53.4695V20.072H54.4695ZM60.8775 32.432L61.5216 33.1969L60.8775 32.432ZM60.8295 28.112L60.1819 28.8739L60.1875 28.8787L60.1931 28.8834L60.8295 28.112ZM54.4695 27.296V26.296H53.4695V27.296H54.4695ZM54.4695 33.2H53.4695V34.2H54.4695V33.2ZM60.5055 27.3718C60.9344 27.4395 61.325 27.6122 61.6897 27.9064L62.9453 26.3496C62.318 25.8438 61.6046 25.5205 60.8175 25.3962L60.5055 27.3718ZM61.7019 27.916C62.0922 28.221 62.396 28.5965 62.6183 29.0535L64.4167 28.1785C64.063 27.4515 63.5668 26.835 62.9331 26.34L61.7019 27.916ZM62.6279 29.0728C62.8586 29.522 62.9735 29.9973 62.9735 30.512H64.9735C64.9735 29.6827 64.7844 28.894 64.4071 28.1592L62.6279 29.0728ZM62.9735 30.512C62.9735 31.1805 62.8061 31.7627 62.4786 32.2842L64.1724 33.3478C64.7089 32.4933 64.9735 31.5395 64.9735 30.512H62.9735ZM62.4843 32.2752C62.1671 32.7687 61.6879 33.1902 60.9962 33.5227L61.8628 35.3253C62.8351 34.8578 63.6199 34.2073 64.1667 33.3568L62.4843 32.2752ZM61.0037 33.5192C60.3491 33.8272 59.533 34 58.5255 34V36C59.758 36 60.8779 35.7888 61.8553 35.3288L61.0037 33.5192ZM58.5255 34H52.2855V36H58.5255V34ZM53.2855 35V18.272H51.2855V35H53.2855ZM52.2855 19.272H58.2855V17.272H52.2855V19.272ZM58.2855 19.272C59.3123 19.272 60.1242 19.4459 60.7568 19.7495L61.6222 17.9465C60.6548 17.4821 59.5307 17.272 58.2855 17.272V19.272ZM60.7716 19.7565C61.4246 20.0569 61.8612 20.4415 62.1415 20.89L63.8375 19.83C63.3178 18.9985 62.5544 18.3751 61.6074 17.9395L60.7716 19.7565ZM62.1415 20.89C62.4361 21.3614 62.5895 21.8957 62.5895 22.52H64.5895C64.5895 21.5443 64.3429 20.6386 63.8375 19.83L62.1415 20.89ZM62.5895 22.52C62.5895 23.3191 62.3751 23.9058 62.0037 24.3537L63.5433 25.6303C64.2598 24.7662 64.5895 23.7049 64.5895 22.52H62.5895ZM62.0021 24.3556C61.6084 24.8329 61.0719 25.1975 60.3505 25.4336L60.9725 27.3344C62.0111 26.9945 62.8826 26.4311 63.5449 25.6284L62.0021 24.3556ZM54.4695 26.496H58.1415V24.496H54.4695V26.496ZM58.1415 26.496C59.3119 26.496 60.3675 26.2216 61.1683 25.5353L59.8667 24.0167C59.5475 24.2904 59.0191 24.496 58.1415 24.496V26.496ZM61.1683 25.5353C61.9844 24.8358 62.3575 23.8753 62.3575 22.784H60.3575C60.3575 23.3887 60.1706 23.7562 59.8667 24.0167L61.1683 25.5353ZM62.3575 22.784C62.3575 21.6927 61.9844 20.7322 61.1683 20.0327L59.8667 21.5513C60.1706 21.8118 60.3575 22.1793 60.3575 22.784H62.3575ZM61.1683 20.0327C60.3626 19.3421 59.2868 19.072 58.0935 19.072V21.072C59.0122 21.072 59.5524 21.2819 59.8667 21.5513L61.1683 20.0327ZM58.0935 19.072H54.4695V21.072H58.0935V19.072ZM53.4695 20.072V25.496H55.4695V20.072H53.4695ZM58.3335 34.2C59.5704 34.2 60.6765 33.9086 61.5216 33.1969L60.2334 31.6671C59.8625 31.9794 59.2726 32.2 58.3335 32.2V34.2ZM61.5216 33.1969C62.3899 32.4657 62.7895 31.4544 62.7895 30.296H60.7895C60.7895 30.9616 60.5811 31.3743 60.2334 31.6671L61.5216 33.1969ZM62.7895 30.296C62.7895 29.1094 62.3653 28.0826 61.4659 27.3406L60.1931 28.8834C60.5737 29.1974 60.7895 29.6266 60.7895 30.296H62.7895ZM61.4771 27.3501C60.611 26.6139 59.5036 26.296 58.2615 26.296V28.296C59.1634 28.296 59.768 28.5221 60.1819 28.8739L61.4771 27.3501ZM58.2615 26.296H54.4695V28.296H58.2615V26.296ZM53.4695 27.296V33.2H55.4695V27.296H53.4695ZM54.4695 34.2H58.3335V32.2H54.4695V34.2ZM80.8283 18.272L81.7639 18.625L82.2744 17.272H80.8283V18.272ZM74.5163 35V36H75.2077L75.4519 35.353L74.5163 35ZM71.9963 35L71.0606 35.353L71.3048 36H71.9963V35ZM65.6842 18.272V17.272H64.2381L64.7486 18.625L65.6842 18.272ZM68.0122 18.272L68.9518 17.9296L68.7122 17.272H68.0122V18.272ZM73.2682 32.696L72.3287 33.0384L73.2682 35.6168L74.2078 33.0384L73.2682 32.696ZM78.5243 18.272V17.272H77.8243L77.5847 17.9296L78.5243 18.272ZM79.8926 17.919L73.5806 34.647L75.4519 35.353L81.7639 18.625L79.8926 17.919ZM74.5163 34H71.9963V36H74.5163V34ZM72.9319 34.647L66.6199 17.919L64.7486 18.625L71.0606 35.353L72.9319 34.647ZM65.6842 19.272H68.0122V17.272H65.6842V19.272ZM67.0727 18.6144L72.3287 33.0384L74.2078 32.3536L68.9518 17.9296L67.0727 18.6144ZM74.2078 33.0384L79.4638 18.6144L77.5847 17.9296L72.3287 32.3536L74.2078 33.0384ZM78.5243 19.272H80.8283V17.272H78.5243V19.272ZM85.551 34.592L85.1309 35.4995L85.1409 35.5041L85.1511 35.5085L85.551 34.592ZM83.511 32.96L82.6935 33.536L82.6998 33.5448L83.511 32.96ZM82.743 30.536V29.536H81.7253L81.7432 30.5535L82.743 30.536ZM85.071 30.536L86.0658 30.4345L85.9742 29.536H85.071V30.536ZM86.031 32.528L85.3342 33.2453L85.3446 33.2554L85.3553 33.2652L86.031 32.528ZM90.975 32.552L91.6292 33.3084L91.6307 33.307L90.975 32.552ZM91.359 28.976L90.6083 29.6366L91.359 28.976ZM90.039 28.064L89.6725 28.9944L90.039 28.064ZM87.903 27.392L88.1617 26.426L88.1554 26.4244L87.903 27.392ZM85.239 26.528L84.837 27.4437L84.8451 27.4471L85.239 26.528ZM83.535 25.184L82.7325 25.7807L82.7412 25.7923L82.7501 25.8036L83.535 25.184ZM83.535 20.264L84.37 20.8143L83.535 20.264ZM85.479 18.632L85.0665 17.721L85.0599 17.724L85.479 18.632ZM92.223 19.232L91.6029 20.0166L91.6091 20.0214L92.223 19.232ZM93.927 22.352V23.352H95.0306L94.9222 22.2537L93.927 22.352ZM91.527 22.352L90.5347 22.476L90.6442 23.352H91.527V22.352ZM90.519 20.672L89.8768 21.4385L89.8829 21.4437L89.8892 21.4488L90.519 20.672ZM85.935 20.648L86.5623 21.4268L86.5688 21.4215L86.5752 21.4162L85.935 20.648ZM85.575 24.104L84.8224 24.7625L84.83 24.7712L84.8378 24.7797L85.575 24.104ZM86.847 24.992L86.4603 25.9142L86.4779 25.9216L86.4959 25.9283L86.847 24.992ZM88.983 25.664L88.7127 26.6268L88.7175 26.6281L88.983 25.664ZM91.647 26.576L91.2348 27.4871L91.2439 27.4912L91.2531 27.4951L91.647 26.576ZM93.375 27.944L92.5823 28.5538L92.5901 28.5636L93.375 27.944ZM93.447 32.744L94.3045 33.2585L93.447 32.744ZM91.527 34.496L91.0599 33.6118L91.527 34.496ZM88.527 34.168C87.5401 34.168 86.6873 33.9968 85.9509 33.6755L85.1511 35.5085C86.1747 35.9552 87.3059 36.168 88.527 36.168V34.168ZM85.9711 33.6845C85.2436 33.3477 84.7059 32.9074 84.3222 32.3752L82.6998 33.5448C83.3081 34.3886 84.1304 35.0363 85.1309 35.4995L85.9711 33.6845ZM84.3285 32.384C83.9548 31.8537 83.7556 31.2428 83.7428 30.5185L81.7432 30.5535C81.7624 31.6532 82.0752 32.6583 82.6935 33.536L84.3285 32.384ZM82.743 31.536H85.071V29.536H82.743V31.536ZM84.0762 30.6375C84.1798 31.653 84.6038 32.5358 85.3342 33.2453L86.7278 31.8107C86.3382 31.4322 86.1222 30.987 86.0658 30.4345L84.0762 30.6375ZM85.3553 33.2652C86.1774 34.0187 87.2874 34.32 88.527 34.32V32.32C87.5906 32.32 87.0366 32.0933 86.7067 31.7908L85.3553 33.2652ZM88.527 34.32C89.7273 34.32 90.8029 34.0229 91.6292 33.3084L90.3208 31.7956C89.9631 32.1051 89.4067 32.32 88.527 32.32V34.32ZM91.6307 33.307C92.4607 32.5862 92.887 31.6372 92.887 30.536H90.887C90.887 31.0668 90.7053 31.4618 90.3193 31.797L91.6307 33.307ZM92.887 30.536C92.887 29.7042 92.6533 28.9331 92.1097 28.3154L90.6083 29.6366C90.7687 29.8189 90.887 30.0878 90.887 30.536H92.887ZM92.1097 28.3154C91.6461 27.7885 91.0713 27.3959 90.4055 27.1336L89.6725 28.9944C90.0627 29.1481 90.3679 29.3635 90.6083 29.6366L92.1097 28.3154ZM90.4055 27.1336C89.8273 26.9058 89.0745 26.6705 88.1617 26.4261L87.6443 28.3579C88.5235 28.5935 89.1947 28.8062 89.6725 28.9944L90.4055 27.1336ZM88.1554 26.4244C87.0762 26.1428 86.2411 25.8695 85.6329 25.6089L84.8451 27.4471C85.5809 27.7625 86.5218 28.0652 87.6506 28.3596L88.1554 26.4244ZM85.641 25.6124C85.1469 25.3955 84.7069 25.0545 84.3199 24.5644L82.7501 25.8036C83.3231 26.5295 84.0191 27.0845 84.837 27.4436L85.641 25.6124ZM84.3375 24.5873C84.0389 24.1857 83.839 23.5849 83.839 22.688H81.839C81.839 23.8711 82.1031 24.9343 82.7325 25.7807L84.3375 24.5873ZM83.839 22.688C83.839 21.9549 84.0225 21.3416 84.37 20.8143L82.7 19.7137C82.1195 20.5944 81.839 21.5971 81.839 22.688H83.839ZM84.37 20.8143C84.7225 20.2794 85.2201 19.8529 85.8981 19.54L85.0599 17.724C84.0739 18.1791 83.2755 18.8406 82.7 19.7137L84.37 20.8143ZM85.8915 19.543C86.5898 19.2267 87.4135 19.056 88.383 19.056V17.056C87.1765 17.056 86.0642 17.2693 85.0665 17.721L85.8915 19.543ZM88.383 19.056C89.7813 19.056 90.8265 19.4029 91.6029 20.0166L92.8431 18.4474C91.6355 17.4931 90.1207 17.056 88.383 17.056V19.056ZM91.6091 20.0214C92.3958 20.6333 92.8302 21.421 92.9318 22.4503L94.9222 22.2537C94.7678 20.6909 94.0662 19.3987 92.8369 18.4426L91.6091 20.0214ZM93.927 21.352H91.527V23.352H93.927V21.352ZM92.5193 22.228C92.4015 21.286 91.9024 20.5063 91.1488 19.8952L89.8892 21.4488C90.3196 21.7977 90.4925 22.138 90.5347 22.476L92.5193 22.228ZM91.1612 19.9055C90.3459 19.2223 89.3143 18.928 88.167 18.928V20.928C88.9717 20.928 89.5081 21.1297 89.8768 21.4385L91.1612 19.9055ZM88.167 18.928C87.0736 18.928 86.0871 19.2195 85.2948 19.8798L86.5752 21.4162C86.9349 21.1165 87.4364 20.928 88.167 20.928V18.928ZM85.3077 19.8692C84.4597 20.5523 84.071 21.5153 84.071 22.616H86.071C86.071 22.0207 86.2583 21.6717 86.5623 21.4268L85.3077 19.8692ZM84.071 22.616C84.071 23.4174 84.2975 24.1626 84.8224 24.7625L86.3276 23.4455C86.1805 23.2774 86.071 23.0306 86.071 22.616H84.071ZM84.8378 24.7797C85.2907 25.2737 85.8355 25.6522 86.4603 25.9142L87.2337 24.0698C86.8665 23.9158 86.5633 23.7023 86.3122 23.4283L84.8378 24.7797ZM86.4959 25.9283C87.0468 26.1349 87.7901 26.3678 88.7127 26.6268L89.2533 24.7012C88.352 24.4482 87.6712 24.2331 87.1981 24.0557L86.4959 25.9283ZM88.7175 26.6281C89.7955 26.925 90.6287 27.2129 91.2348 27.4871L92.0592 25.6649C91.3213 25.3311 90.3785 25.011 89.2485 24.6999L88.7175 26.6281ZM91.2531 27.4951C91.7559 27.7106 92.1984 28.0545 92.5824 28.5537L94.1676 27.3343C93.5916 26.5855 92.8821 26.0174 92.0409 25.6569L91.2531 27.4951ZM92.5901 28.5636C92.8878 28.9407 93.095 29.5279 93.095 30.44H95.095C95.095 29.2401 94.8222 28.1633 94.1599 27.3244L92.5901 28.5636ZM93.095 30.44C93.095 31.0693 92.9311 31.6602 92.5895 32.2295L94.3045 33.2585C94.8269 32.3878 95.095 31.4427 95.095 30.44H93.095ZM92.5895 32.2295C92.2642 32.7717 91.7699 33.2367 91.0599 33.6118L91.9941 35.3802C92.9801 34.8593 93.7658 34.1563 94.3045 33.2585L92.5895 32.2295ZM91.0599 33.6118C90.3821 33.9699 89.5487 34.168 88.527 34.168V36.168C89.8093 36.168 90.9759 35.9181 91.9941 35.3802L91.0599 33.6118Z" fill="#443B3B"/>
<path d="M156 30.0002C156 29.5879 155.745 29.2334 155.373 29.0474L128.893 15.1967C128.692 15.0688 128.452 15.0001 128.206 15C127.886 15 127.58 15.115 127.353 15.3198C127.127 15.5246 127 15.8024 127 16.0921C127 16.1344 127.009 16.1744 127.014 16.2152H127V44.0311H127.014C127.046 44.2971 127.186 44.543 127.406 44.7218C127.626 44.9005 127.91 44.9996 128.206 45C128.417 44.999 128.624 44.9473 128.806 44.85L128.817 44.8671L155.405 30.9594L155.394 30.9424C155.578 30.8475 155.731 30.7105 155.837 30.5451C155.943 30.3796 156 30.1917 156 30.0002Z" fill="#443B3B"/>
<defs>
<filter id="filter0_d" x="0" y="0" width="182" height="63" filterUnits="userSpaceOnUse" color-interpolation-filters="sRGB">
<feFlood flood-opacity="0" result="BackgroundImageFix"/>
<feColorMatrix in="SourceAlpha" type="matrix" values="0 0 0 0 0 0 0 0 0 0 0 0 0 0 0 0 0 0 127 0"/>
<feOffset dy="4"/>
<feGaussianBlur stdDeviation="2"/>
<feColorMatrix type="matrix" values="0 0 0 0 0 0 0 0 0 0 0 0 0 0 0 0 0 0 0.25 0"/>
<feBlend mode="normal" in2="BackgroundImageFix" result="effect1_dropShadow"/>
<feBlend mode="normal" in="SourceGraphic" in2="effect1_dropShadow" result="shape"/>
</filter>
</defs>
</svg>
