<svg width="216" height="63" viewBox="0 0 216 63" fill="none" xmlns="http://www.w3.org/2000/svg">
<g filter="url(#filter0_d)">
<rect x="4" width="174" height="55" rx="27.5" fill="#F58A8A"/>
</g>
<path d="M31.224 25.384C31.832 25.48 32.384 25.728 32.88 26.128C33.392 26.528 33.792 27.024 34.08 27.616C34.384 28.208 34.536 28.84 34.536 29.512C34.536 30.36 34.32 31.128 33.888 31.816C33.456 32.488 32.824 33.024 31.992 33.424C31.176 33.808 30.208 34 29.088 34H22.848V17.272H28.848C29.984 17.272 30.952 17.464 31.752 17.848C32.552 18.216 33.152 18.72 33.552 19.36C33.952 20 34.152 20.72 34.152 21.52C34.152 22.512 33.88 23.336 33.336 23.992C32.808 24.632 32.104 25.096 31.224 25.384ZM25.032 24.496H28.704C29.728 24.496 30.52 24.256 31.08 23.776C31.64 23.296 31.92 22.632 31.92 21.784C31.92 20.936 31.64 20.272 31.08 19.792C30.52 19.312 29.712 19.072 28.656 19.072H25.032V24.496ZM28.896 32.2C29.984 32.2 30.832 31.944 31.44 31.432C32.048 30.92 32.352 30.208 32.352 29.296C32.352 28.368 32.032 27.64 31.392 27.112C30.752 26.568 29.896 26.296 28.824 26.296H25.032V32.2H28.896ZM48.7508 22.168C48.7508 23.56 48.2708 24.72 47.3108 25.648C46.3668 26.56 44.9188 27.016 42.9668 27.016H39.7508V34H37.5668V17.272H42.9668C44.8548 17.272 46.2868 17.728 47.2628 18.64C48.2548 19.552 48.7508 20.728 48.7508 22.168ZM42.9668 25.216C44.1828 25.216 45.0788 24.952 45.6548 24.424C46.2308 23.896 46.5188 23.144 46.5188 22.168C46.5188 20.104 45.3348 19.072 42.9668 19.072H39.7508V25.216H42.9668ZM65.2892 17.272L58.9772 34H56.4572L50.1452 17.272H52.4732L57.7292 31.696L62.9852 17.272H65.2892ZM78.8679 22.168C78.8679 23.56 78.3879 24.72 77.4279 25.648C76.4839 26.56 75.0359 27.016 73.0839 27.016H69.8679V34H67.6839V17.272H73.0839C74.9719 17.272 76.4039 17.728 77.3799 18.64C78.3719 19.552 78.8679 20.728 78.8679 22.168ZM73.0839 25.216C74.2999 25.216 75.1959 24.952 75.7719 24.424C76.3479 23.896 76.6359 23.144 76.6359 22.168C76.6359 20.104 75.4519 19.072 73.0839 19.072H69.8679V25.216H73.0839ZM86.8864 34.168C85.7824 34.168 84.7904 33.976 83.9104 33.592C83.0464 33.192 82.3664 32.648 81.8704 31.96C81.3744 31.256 81.1184 30.448 81.1024 29.536H83.4304C83.5104 30.32 83.8304 30.984 84.3904 31.528C84.9664 32.056 85.7984 32.32 86.8864 32.32C87.9264 32.32 88.7424 32.064 89.3344 31.552C89.9424 31.024 90.2464 30.352 90.2464 29.536C90.2464 28.896 90.0704 28.376 89.7184 27.976C89.3664 27.576 88.9264 27.272 88.3984 27.064C87.8704 26.856 87.1584 26.632 86.2624 26.392C85.1584 26.104 84.2704 25.816 83.5984 25.528C82.9424 25.24 82.3744 24.792 81.8944 24.184C81.4304 23.56 81.1984 22.728 81.1984 21.688C81.1984 20.776 81.4304 19.968 81.8944 19.264C82.3584 18.56 83.0064 18.016 83.8384 17.632C84.6864 17.248 85.6544 17.056 86.7424 17.056C88.3104 17.056 89.5904 17.448 90.5824 18.232C91.5904 19.016 92.1584 20.056 92.2864 21.352H89.8864C89.8064 20.712 89.4704 20.152 88.8784 19.672C88.2864 19.176 87.5024 18.928 86.5264 18.928C85.6144 18.928 84.8704 19.168 84.2944 19.648C83.7184 20.112 83.4304 20.768 83.4304 21.616C83.4304 22.224 83.5984 22.72 83.9344 23.104C84.2864 23.488 84.7104 23.784 85.2064 23.992C85.7184 24.184 86.4304 24.408 87.3424 24.664C88.4464 24.968 89.3344 25.272 90.0064 25.576C90.6784 25.864 91.2544 26.32 91.7344 26.944C92.2144 27.552 92.4544 28.384 92.4544 29.44C92.4544 30.256 92.2384 31.024 91.8064 31.744C91.3744 32.464 90.7344 33.048 89.8864 33.496C89.0384 33.944 88.0384 34.168 86.8864 34.168ZM105.964 17.272V19.048H101.404V34H99.2203V19.048H94.6363V17.272H105.964Z" fill="#443B3B"/>
<path d="M31.224 25.384L30.913 24.4336L31.068 26.3718L31.224 25.384ZM32.88 26.128L32.2522 26.9064L32.2583 26.9113L32.2644 26.916L32.88 26.128ZM34.08 27.616L33.1808 28.0535L33.1855 28.0632L33.1904 28.0728L34.08 27.616ZM33.888 31.816L34.7292 32.3568L34.7349 32.3478L33.888 31.816ZM31.992 33.424L32.4178 34.3288L32.4253 34.3253L31.992 33.424ZM22.848 34H21.848V35H22.848V34ZM22.848 17.272V16.272H21.848V17.272H22.848ZM31.752 17.848L31.3193 18.7495L31.3267 18.7531L31.3341 18.7565L31.752 17.848ZM33.552 19.36L32.704 19.89L32.704 19.89L33.552 19.36ZM33.336 23.992L32.5662 23.3537L32.5646 23.3556L33.336 23.992ZM25.032 24.496H24.032V25.496H25.032V24.496ZM31.08 19.792L30.4292 20.5513L30.4292 20.5513L31.08 19.792ZM25.032 19.072V18.072H24.032V19.072H25.032ZM31.44 31.432L32.0841 32.1969H32.0841L31.44 31.432ZM31.392 27.112L30.7444 27.8739L30.75 27.8787L30.7556 27.8834L31.392 27.112ZM25.032 26.296V25.296H24.032V26.296H25.032ZM25.032 32.2H24.032V33.2H25.032V32.2ZM31.068 26.3718C31.4969 26.4395 31.8875 26.6122 32.2522 26.9064L33.5078 25.3496C32.8805 24.8438 32.1671 24.5205 31.38 24.3962L31.068 26.3718ZM32.2644 26.916C32.6547 27.221 32.9585 27.5965 33.1808 28.0535L34.9792 27.1785C34.6255 26.4515 34.1293 25.835 33.4956 25.34L32.2644 26.916ZM33.1904 28.0728C33.4211 28.522 33.536 28.9973 33.536 29.512H35.536C35.536 28.6827 35.3469 27.894 34.9696 27.1592L33.1904 28.0728ZM33.536 29.512C33.536 30.1805 33.3686 30.7627 33.0411 31.2842L34.7349 32.3478C35.2714 31.4933 35.536 30.5395 35.536 29.512H33.536ZM33.0468 31.2752C32.7296 31.7687 32.2504 32.1902 31.5587 32.5227L32.4253 34.3253C33.3976 33.8578 34.1824 33.2073 34.7292 32.3568L33.0468 31.2752ZM31.5662 32.5192C30.9116 32.8272 30.0955 33 29.088 33V35C30.3205 35 31.4404 34.7888 32.4178 34.3288L31.5662 32.5192ZM29.088 33H22.848V35H29.088V33ZM23.848 34V17.272H21.848V34H23.848ZM22.848 18.272H28.848V16.272H22.848V18.272ZM28.848 18.272C29.8748 18.272 30.6867 18.4459 31.3193 18.7495L32.1847 16.9465C31.2173 16.4821 30.0932 16.272 28.848 16.272V18.272ZM31.3341 18.7565C31.9871 19.0569 32.4237 19.4415 32.704 19.89L34.4 18.83C33.8803 17.9985 33.1169 17.3751 32.1699 16.9395L31.3341 18.7565ZM32.704 19.89C32.9986 20.3614 33.152 20.8957 33.152 21.52H35.152C35.152 20.5443 34.9054 19.6386 34.4 18.83L32.704 19.89ZM33.152 21.52C33.152 22.3191 32.9376 22.9058 32.5662 23.3537L34.1058 24.6303C34.8224 23.7662 35.152 22.7049 35.152 21.52H33.152ZM32.5646 23.3556C32.1709 23.8329 31.6344 24.1975 30.913 24.4336L31.535 26.3344C32.5736 25.9945 33.4451 25.4311 34.1074 24.6284L32.5646 23.3556ZM25.032 25.496H28.704V23.496H25.032V25.496ZM28.704 25.496C29.8744 25.496 30.93 25.2216 31.7308 24.5353L30.4292 23.0167C30.11 23.2904 29.5816 23.496 28.704 23.496V25.496ZM31.7308 24.5353C32.5469 23.8358 32.92 22.8753 32.92 21.784H30.92C30.92 22.3887 30.7331 22.7562 30.4292 23.0167L31.7308 24.5353ZM32.92 21.784C32.92 20.6927 32.5469 19.7322 31.7308 19.0327L30.4292 20.5513C30.7331 20.8118 30.92 21.1793 30.92 21.784H32.92ZM31.7308 19.0327C30.9251 18.3421 29.8493 18.072 28.656 18.072V20.072C29.5747 20.072 30.1149 20.2819 30.4292 20.5513L31.7308 19.0327ZM28.656 18.072H25.032V20.072H28.656V18.072ZM24.032 19.072V24.496H26.032V19.072H24.032ZM28.896 33.2C30.1329 33.2 31.239 32.9086 32.0841 32.1969L30.7959 30.6671C30.425 30.9794 29.8351 31.2 28.896 31.2V33.2ZM32.0841 32.1969C32.9524 31.4657 33.352 30.4544 33.352 29.296H31.352C31.352 29.9616 31.1436 30.3743 30.7959 30.6671L32.0841 32.1969ZM33.352 29.296C33.352 28.1094 32.9278 27.0826 32.0284 26.3406L30.7556 27.8834C31.1362 28.1974 31.352 28.6266 31.352 29.296H33.352ZM32.0396 26.3501C31.1735 25.6139 30.0661 25.296 28.824 25.296V27.296C29.7259 27.296 30.3305 27.5221 30.7444 27.8739L32.0396 26.3501ZM28.824 25.296H25.032V27.296H28.824V25.296ZM24.032 26.296V32.2H26.032V26.296H24.032ZM25.032 33.2H28.896V31.2H25.032V33.2ZM47.3108 25.648L48.0056 26.3672L48.0058 26.367L47.3108 25.648ZM39.7507 27.016V26.016H38.7507V27.016H39.7507ZM39.7507 34V35H40.7507V34H39.7507ZM37.5667 34H36.5668V35H37.5667V34ZM37.5667 17.272V16.272H36.5668V17.272H37.5667ZM47.2628 18.64L46.58 19.3707L46.586 19.3762L47.2628 18.64ZM45.6548 24.424L46.3305 25.1612L45.6548 24.424ZM39.7507 19.072V18.072H38.7507V19.072H39.7507ZM39.7507 25.216H38.7507V26.216H39.7507V25.216ZM47.7508 22.168C47.7508 23.3018 47.3717 24.1982 46.6157 24.929L48.0058 26.367C49.1698 25.2418 49.7508 23.8182 49.7508 22.168H47.7508ZM46.6159 24.9288C45.932 25.5895 44.7841 26.016 42.9668 26.016V28.016C45.0534 28.016 46.8015 27.5305 48.0056 26.3672L46.6159 24.9288ZM42.9668 26.016H39.7507V28.016H42.9668V26.016ZM38.7507 27.016V34H40.7507V27.016H38.7507ZM39.7507 33H37.5667V35H39.7507V33ZM38.5667 34V17.272H36.5668V34H38.5667ZM37.5667 18.272H42.9668V16.272H37.5667V18.272ZM42.9668 18.272C44.7062 18.272 45.8538 18.6921 46.58 19.3707L47.9455 17.9093C46.7197 16.7639 45.0033 16.272 42.9668 16.272V18.272ZM46.586 19.3762C47.3566 20.0847 47.7508 20.9862 47.7508 22.168H49.7508C49.7508 20.4698 49.1529 19.0193 47.9396 17.9038L46.586 19.3762ZM42.9668 26.216C44.2992 26.216 45.4908 25.9309 46.3305 25.1612L44.979 23.6868C44.6667 23.9731 44.0663 24.216 42.9668 24.216V26.216ZM46.3305 25.1612C47.1625 24.3985 47.5188 23.3495 47.5188 22.168H45.5188C45.5188 22.9385 45.299 23.3935 44.979 23.6868L46.3305 25.1612ZM47.5188 22.168C47.5188 20.9434 47.1611 19.8534 46.2878 19.0922C45.4407 18.3538 44.2737 18.072 42.9668 18.072V20.072C44.0278 20.072 44.6368 20.3062 44.9737 20.5998C45.2844 20.8706 45.5188 21.3286 45.5188 22.168H47.5188ZM42.9668 18.072H39.7507V20.072H42.9668V18.072ZM38.7507 19.072V25.216H40.7507V19.072H38.7507ZM39.7507 26.216H42.9668V24.216H39.7507V26.216ZM65.2892 17.272L66.2248 17.625L66.7353 16.272H65.2892V17.272ZM58.9772 34V35H59.6687L59.9128 34.353L58.9772 34ZM56.4572 34L55.5216 34.353L55.7657 35H56.4572V34ZM50.1452 17.272V16.272H48.699L49.2096 17.625L50.1452 17.272ZM52.4732 17.272L53.4128 16.9296L53.1731 16.272H52.4732V17.272ZM57.7292 31.696L56.7896 32.0384L57.7292 34.6168L58.6688 32.0384L57.7292 31.696ZM62.9852 17.272V16.272H62.2853L62.0456 16.9296L62.9852 17.272ZM64.3536 16.919L58.0416 33.647L59.9128 34.353L66.2248 17.625L64.3536 16.919ZM58.9772 33H56.4572V35H58.9772V33ZM57.3928 33.647L51.0808 16.919L49.2096 17.625L55.5216 34.353L57.3928 33.647ZM50.1452 18.272H52.4732V16.272H50.1452V18.272ZM51.5336 17.6144L56.7896 32.0384L58.6688 31.3536L53.4128 16.9296L51.5336 17.6144ZM58.6688 32.0384L63.9248 17.6144L62.0456 16.9296L56.7896 31.3536L58.6688 32.0384ZM62.9852 18.272H65.2892V16.272H62.9852V18.272ZM77.4279 25.648L78.1227 26.3672L78.123 26.367L77.4279 25.648ZM69.8679 27.016V26.016H68.8679V27.016H69.8679ZM69.8679 34V35H70.8679V34H69.8679ZM67.6839 34H66.6839V35H67.6839V34ZM67.6839 17.272V16.272H66.6839V17.272H67.6839ZM77.3799 18.64L76.6972 19.3707L76.7031 19.3762L77.3799 18.64ZM75.7719 24.424L76.4477 25.1612L75.7719 24.424ZM69.8679 19.072V18.072H68.8679V19.072H69.8679ZM69.8679 25.216H68.8679V26.216H69.8679V25.216ZM77.8679 22.168C77.8679 23.3018 77.4889 24.1982 76.7329 24.929L78.123 26.367C79.287 25.2418 79.8679 23.8182 79.8679 22.168H77.8679ZM76.7331 24.9288C76.0492 25.5895 74.9013 26.016 73.0839 26.016V28.016C75.1706 28.016 76.9187 27.5305 78.1227 26.3672L76.7331 24.9288ZM73.0839 26.016H69.8679V28.016H73.0839V26.016ZM68.8679 27.016V34H70.8679V27.016H68.8679ZM69.8679 33H67.6839V35H69.8679V33ZM68.6839 34V17.272H66.6839V34H68.6839ZM67.6839 18.272H73.0839V16.272H67.6839V18.272ZM73.0839 18.272C74.8233 18.272 75.971 18.6921 76.6972 19.3707L78.0627 17.9093C76.8369 16.7639 75.1205 16.272 73.0839 16.272V18.272ZM76.7031 19.3762C77.4738 20.0847 77.8679 20.9862 77.8679 22.168H79.8679C79.8679 20.4698 79.2701 19.0193 78.0567 17.9038L76.7031 19.3762ZM73.0839 26.216C74.4164 26.216 75.6079 25.9309 76.4477 25.1612L75.0962 23.6868C74.7839 23.9731 74.1835 24.216 73.0839 24.216V26.216ZM76.4477 25.1612C77.2796 24.3985 77.6359 23.3495 77.6359 22.168H75.6359C75.6359 22.9385 75.4162 23.3935 75.0962 23.6868L76.4477 25.1612ZM77.6359 22.168C77.6359 20.9434 77.2783 19.8534 76.405 19.0922C75.5579 18.3538 74.3909 18.072 73.0839 18.072V20.072C74.1449 20.072 74.7539 20.3062 75.0909 20.5998C75.4016 20.8706 75.6359 21.3286 75.6359 22.168H77.6359ZM73.0839 18.072H69.8679V20.072H73.0839V18.072ZM68.8679 19.072V25.216H70.8679V19.072H68.8679ZM69.8679 26.216H73.0839V24.216H69.8679V26.216ZM83.9104 33.592L83.4903 34.4995L83.5003 34.5041L83.5104 34.5085L83.9104 33.592ZM81.8704 31.96L81.0528 32.536L81.0592 32.5448L81.8704 31.96ZM81.1024 29.536V28.536H80.0847L80.1025 29.5535L81.1024 29.536ZM83.4304 29.536L84.4252 29.4345L84.3335 28.536H83.4304V29.536ZM84.3904 31.528L83.6936 32.2453L83.704 32.2554L83.7146 32.2652L84.3904 31.528ZM89.3344 31.552L89.9885 32.3084L89.9901 32.307L89.3344 31.552ZM89.7184 27.976L88.9677 28.6366L89.7184 27.976ZM88.3984 27.064L88.0319 27.9944L88.3984 27.064ZM86.2624 26.392L86.5211 25.426L86.5148 25.4244L86.2624 26.392ZM83.5984 25.528L83.1964 26.4437L83.2045 26.4471L83.5984 25.528ZM81.8944 24.184L81.0919 24.7807L81.1005 24.7923L81.1095 24.8036L81.8944 24.184ZM81.8944 19.264L82.7293 19.8143L81.8944 19.264ZM83.8384 17.632L83.4259 16.721L83.4193 16.724L83.8384 17.632ZM90.5824 18.232L89.9623 19.0166L89.9684 19.0214L90.5824 18.232ZM92.2864 21.352V22.352H93.39L93.2815 21.2537L92.2864 21.352ZM89.8864 21.352L88.8941 21.476L89.0036 22.352H89.8864V21.352ZM88.8784 19.672L88.2362 20.4385L88.2423 20.4437L88.2486 20.4488L88.8784 19.672ZM84.2944 19.648L84.9217 20.4268L84.9282 20.4215L84.9346 20.4162L84.2944 19.648ZM83.9344 23.104L83.1818 23.7625L83.1894 23.7712L83.1972 23.7797L83.9344 23.104ZM85.2064 23.992L84.8196 24.9142L84.8373 24.9216L84.8553 24.9283L85.2064 23.992ZM87.3424 24.664L87.0721 25.6268L87.0769 25.6281L87.3424 24.664ZM90.0064 25.576L89.5942 26.4871L89.6033 26.4912L89.6125 26.4951L90.0064 25.576ZM91.7344 26.944L90.9417 27.5538L90.9495 27.5636L91.7344 26.944ZM91.8064 31.744L92.6639 32.2585L91.8064 31.744ZM89.8864 33.496L89.4193 32.6118L89.8864 33.496ZM86.8864 33.168C85.8995 33.168 85.0466 32.9968 84.3103 32.6755L83.5104 34.5085C84.5341 34.9552 85.6652 35.168 86.8864 35.168V33.168ZM84.3305 32.6845C83.6029 32.3477 83.0652 31.9074 82.6816 31.3752L81.0592 32.5448C81.6675 33.3886 82.4898 34.0363 83.4903 34.4995L84.3305 32.6845ZM82.6879 31.384C82.3142 30.8537 82.1149 30.2428 82.1022 29.5185L80.1025 29.5535C80.1218 30.6532 80.4346 31.6583 81.0529 32.536L82.6879 31.384ZM81.1024 30.536H83.4304V28.536H81.1024V30.536ZM82.4355 29.6375C82.5392 30.653 82.9632 31.5358 83.6936 32.2453L85.0872 30.8107C84.6975 30.4322 84.4816 29.987 84.4252 29.4345L82.4355 29.6375ZM83.7146 32.2652C84.5367 33.0187 85.6467 33.32 86.8864 33.32V31.32C85.95 31.32 85.396 31.0933 85.0661 30.7908L83.7146 32.2652ZM86.8864 33.32C88.0866 33.32 89.1623 33.0229 89.9885 32.3084L88.6802 30.7956C88.3224 31.1051 87.7661 31.32 86.8864 31.32V33.32ZM89.9901 32.307C90.8201 31.5862 91.2464 30.6372 91.2464 29.536H89.2464C89.2464 30.0668 89.0647 30.4618 88.6787 30.797L89.9901 32.307ZM91.2464 29.536C91.2464 28.7042 91.0127 27.9331 90.4691 27.3154L88.9677 28.6366C89.128 28.8189 89.2464 29.0878 89.2464 29.536H91.2464ZM90.4691 27.3154C90.0055 26.7885 89.4307 26.3959 88.7649 26.1336L88.0319 27.9944C88.4221 28.1481 88.7273 28.3635 88.9677 28.6366L90.4691 27.3154ZM88.7649 26.1336C88.1867 25.9058 87.4339 25.6705 86.5211 25.4261L86.0036 27.3579C86.8829 27.5935 87.554 27.8062 88.0319 27.9944L88.7649 26.1336ZM86.5148 25.4244C85.4355 25.1428 84.6004 24.8695 83.9923 24.6089L83.2045 26.4471C83.9403 26.7625 84.8812 27.0652 86.01 27.3596L86.5148 25.4244ZM84.0004 24.6124C83.5063 24.3955 83.0662 24.0545 82.6793 23.5644L81.1095 24.8036C81.6825 25.5295 82.3784 26.0845 83.1964 26.4436L84.0004 24.6124ZM82.6968 23.5873C82.3982 23.1857 82.1984 22.5849 82.1984 21.688H80.1984C80.1984 22.8711 80.4625 23.9343 81.0919 24.7807L82.6968 23.5873ZM82.1984 21.688C82.1984 20.9549 82.3818 20.3416 82.7293 19.8143L81.0594 18.7137C80.4789 19.5944 80.1984 20.5971 80.1984 21.688H82.1984ZM82.7293 19.8143C83.0819 19.2794 83.5794 18.8529 84.2574 18.54L83.4193 16.724C82.4333 17.1791 81.6349 17.8406 81.0594 18.7137L82.7293 19.8143ZM84.2509 18.543C84.9492 18.2267 85.7728 18.056 86.7424 18.056V16.056C85.5359 16.056 84.4235 16.2693 83.4259 16.721L84.2509 18.543ZM86.7424 18.056C88.1407 18.056 89.1859 18.4029 89.9623 19.0166L91.2024 17.4474C89.9949 16.4931 88.4801 16.056 86.7424 16.056V18.056ZM89.9684 19.0214C90.7552 19.6333 91.1896 20.421 91.2912 21.4503L93.2815 21.2537C93.1272 19.6909 92.4256 18.3987 91.1963 17.4426L89.9684 19.0214ZM92.2864 20.352H89.8864V22.352H92.2864V20.352ZM90.8787 21.228C90.7609 20.286 90.2618 19.5063 89.5082 18.8952L88.2486 20.4488C88.6789 20.7977 88.8518 21.138 88.8941 21.476L90.8787 21.228ZM89.5206 18.9055C88.7052 18.2223 87.6737 17.928 86.5264 17.928V19.928C87.3311 19.928 87.8675 20.1297 88.2362 20.4385L89.5206 18.9055ZM86.5264 17.928C85.433 17.928 84.4465 18.2195 83.6542 18.8798L84.9346 20.4162C85.2942 20.1165 85.7958 19.928 86.5264 19.928V17.928ZM83.667 18.8692C82.8191 19.5523 82.4304 20.5153 82.4304 21.616H84.4304C84.4304 21.0207 84.6176 20.6717 84.9217 20.4268L83.667 18.8692ZM82.4304 21.616C82.4304 22.4174 82.6568 23.1626 83.1818 23.7625L84.687 22.4455C84.5399 22.2774 84.4304 22.0306 84.4304 21.616H82.4304ZM83.1972 23.7797C83.6501 24.2737 84.1949 24.6522 84.8196 24.9142L85.5931 23.0698C85.2259 22.9158 84.9227 22.7023 84.6715 22.4283L83.1972 23.7797ZM84.8553 24.9283C85.4062 25.1349 86.1494 25.3678 87.0721 25.6268L87.6126 23.7012C86.7113 23.4482 86.0306 23.2331 85.5575 23.0557L84.8553 24.9283ZM87.0769 25.6281C88.1549 25.925 88.988 26.2129 89.5942 26.4871L90.4185 24.6649C89.6807 24.3311 88.7379 24.011 87.6079 23.6999L87.0769 25.6281ZM89.6125 26.4951C90.1153 26.7106 90.5578 27.0545 90.9417 27.5537L92.527 26.3343C91.951 25.5855 91.2415 25.0174 90.4003 24.6569L89.6125 26.4951ZM90.9495 27.5636C91.2471 27.9407 91.4544 28.5279 91.4544 29.44H93.4544C93.4544 28.2401 93.1816 27.1633 92.5193 26.3244L90.9495 27.5636ZM91.4544 29.44C91.4544 30.0693 91.2905 30.6602 90.9489 31.2295L92.6639 32.2585C93.1863 31.3878 93.4544 30.4427 93.4544 29.44H91.4544ZM90.9489 31.2295C90.6236 31.7717 90.1292 32.2367 89.4193 32.6118L90.3535 34.3802C91.3395 33.8593 92.1252 33.1563 92.6639 32.2585L90.9489 31.2295ZM89.4193 32.6118C88.7415 32.9699 87.9081 33.168 86.8864 33.168V35.168C88.1686 35.168 89.3353 34.9181 90.3535 34.3802L89.4193 32.6118ZM105.964 17.272H106.964V16.272H105.964V17.272ZM105.964 19.048V20.048H106.964V19.048H105.964ZM101.404 19.048V18.048H100.404V19.048H101.404ZM101.404 34V35H102.404V34H101.404ZM99.2203 34H98.2203V35H99.2203V34ZM99.2203 19.048H100.22V18.048H99.2203V19.048ZM94.6363 19.048H93.6363V20.048H94.6363V19.048ZM94.6363 17.272V16.272H93.6363V17.272H94.6363ZM104.964 17.272V19.048H106.964V17.272H104.964ZM105.964 18.048H101.404V20.048H105.964V18.048ZM100.404 19.048V34H102.404V19.048H100.404ZM101.404 33H99.2203V35H101.404V33ZM100.22 34V19.048H98.2203V34H100.22ZM99.2203 18.048H94.6363V20.048H99.2203V18.048ZM95.6363 19.048V17.272H93.6363V19.048H95.6363ZM94.6363 18.272H105.964V16.272H94.6363V18.272Z" fill="#443B3B"/>
<path d="M156 29.0002C156 28.5879 155.745 28.2334 155.373 28.0474L128.893 14.1967C128.692 14.0688 128.452 14.0001 128.206 14C127.886 14 127.58 14.115 127.353 14.3198C127.127 14.5246 127 14.8024 127 15.0921C127 15.1344 127.009 15.1744 127.014 15.2152H127V43.0311H127.014C127.046 43.2971 127.186 43.543 127.406 43.7218C127.626 43.9005 127.91 43.9996 128.206 44C128.417 43.999 128.624 43.9473 128.806 43.85L128.817 43.8671L155.405 29.9594L155.394 29.9424C155.578 29.8475 155.731 29.7105 155.837 29.5451C155.943 29.3796 156 29.1917 156 29.0002Z" fill="#443B3B"/>
<defs>
<filter id="filter0_d" x="0" y="0" width="182" height="63" filterUnits="userSpaceOnUse" color-interpolation-filters="sRGB">
<feFlood flood-opacity="0" result="BackgroundImageFix"/>
<feColorMatrix in="SourceAlpha" type="matrix" values="0 0 0 0 0 0 0 0 0 0 0 0 0 0 0 0 0 0 127 0"/>
<feOffset dy="4"/>
<feGaussianBlur stdDeviation="2"/>
<feColorMatrix type="matrix" values="0 0 0 0 0 0 0 0 0 0 0 0 0 0 0 0 0 0 0.25 0"/>
<feBlend mode="normal" in2="BackgroundImageFix" result="effect1_dropShadow"/>
<feBlend mode="normal" in="SourceGraphic" in2="effect1_dropShadow" result="shape"/>
</filter>
</defs>
</svg>
