<svg width="182" height="45" viewBox="0 0 182 63" fill="none" xmlns="http://www.w3.org/2000/svg">
<g filter="url(#filter0_d)">
<rect x="4" width="174" height="55" rx="27.5" fill="#9DF5B1"/>
</g>
<path d="M33.224 27.384C33.832 27.48 34.384 27.728 34.88 28.128C35.392 28.528 35.792 29.024 36.08 29.616C36.384 30.208 36.536 30.84 36.536 31.512C36.536 32.36 36.32 33.128 35.888 33.816C35.456 34.488 34.824 35.024 33.992 35.424C33.176 35.808 32.208 36 31.088 36H24.848V19.272H30.848C31.984 19.272 32.952 19.464 33.752 19.848C34.552 20.216 35.152 20.72 35.552 21.36C35.952 22 36.152 22.72 36.152 23.52C36.152 24.512 35.88 25.336 35.336 25.992C34.808 26.632 34.104 27.096 33.224 27.384ZM27.032 26.496H30.704C31.728 26.496 32.52 26.256 33.08 25.776C33.64 25.296 33.92 24.632 33.92 23.784C33.92 22.936 33.64 22.272 33.08 21.792C32.52 21.312 31.712 21.072 30.656 21.072H27.032V26.496ZM30.896 34.2C31.984 34.2 32.832 33.944 33.44 33.432C34.048 32.92 34.352 32.208 34.352 31.296C34.352 30.368 34.032 29.64 33.392 29.112C32.752 28.568 31.896 28.296 30.824 28.296H27.032V34.2H30.896ZM50.7508 24.168C50.7508 25.56 50.2708 26.72 49.3108 27.648C48.3668 28.56 46.9188 29.016 44.9668 29.016H41.7508V36H39.5668V19.272H44.9668C46.8548 19.272 48.2868 19.728 49.2628 20.64C50.2548 21.552 50.7508 22.728 50.7508 24.168ZM44.9668 27.216C46.1828 27.216 47.0788 26.952 47.6548 26.424C48.2308 25.896 48.5188 25.144 48.5188 24.168C48.5188 22.104 47.3348 21.072 44.9668 21.072H41.7508V27.216H44.9668ZM67.2892 19.272L60.9772 36H58.4572L52.1452 19.272H54.4732L59.7292 33.696L64.9852 19.272H67.2892ZM83.5079 19.272L77.1959 36H74.6759L68.3639 19.272H70.6919L75.9479 33.696L81.2039 19.272H83.5079ZM88.0867 21.048V26.64H94.1827V28.44H88.0867V34.2H94.9027V36H85.9027V19.248H94.9027V21.048H88.0867Z" fill="#443B3B"/>
<path d="M33.224 27.384L32.913 26.4336L33.068 28.3718L33.224 27.384ZM34.88 28.128L34.2522 28.9064L34.2583 28.9113L34.2644 28.916L34.88 28.128ZM36.08 29.616L35.1808 30.0535L35.1855 30.0632L35.1904 30.0728L36.08 29.616ZM35.888 33.816L36.7292 34.3568L36.7349 34.3478L35.888 33.816ZM33.992 35.424L34.4178 36.3288L34.4253 36.3253L33.992 35.424ZM24.848 36H23.848V37H24.848V36ZM24.848 19.272V18.272H23.848V19.272H24.848ZM33.752 19.848L33.3193 20.7495L33.3267 20.7531L33.3341 20.7565L33.752 19.848ZM35.552 21.36L34.704 21.89L34.704 21.89L35.552 21.36ZM35.336 25.992L34.5662 25.3537L34.5646 25.3556L35.336 25.992ZM27.032 26.496H26.032V27.496H27.032V26.496ZM33.08 21.792L32.4292 22.5513L32.4292 22.5513L33.08 21.792ZM27.032 21.072V20.072H26.032V21.072H27.032ZM33.44 33.432L34.0841 34.1969H34.0841L33.44 33.432ZM33.392 29.112L32.7444 29.8739L32.75 29.8787L32.7556 29.8834L33.392 29.112ZM27.032 28.296V27.296H26.032V28.296H27.032ZM27.032 34.2H26.032V35.2H27.032V34.2ZM33.068 28.3718C33.4969 28.4395 33.8875 28.6122 34.2522 28.9064L35.5078 27.3496C34.8805 26.8438 34.1671 26.5205 33.38 26.3962L33.068 28.3718ZM34.2644 28.916C34.6547 29.221 34.9585 29.5965 35.1808 30.0535L36.9792 29.1785C36.6255 28.4515 36.1293 27.835 35.4956 27.34L34.2644 28.916ZM35.1904 30.0728C35.4211 30.522 35.536 30.9973 35.536 31.512H37.536C37.536 30.6827 37.3469 29.894 36.9696 29.1592L35.1904 30.0728ZM35.536 31.512C35.536 32.1805 35.3686 32.7627 35.0411 33.2842L36.7349 34.3478C37.2714 33.4933 37.536 32.5395 37.536 31.512H35.536ZM35.0468 33.2752C34.7296 33.7687 34.2504 34.1902 33.5587 34.5227L34.4253 36.3253C35.3976 35.8578 36.1824 35.2073 36.7292 34.3568L35.0468 33.2752ZM33.5662 34.5192C32.9116 34.8272 32.0955 35 31.088 35V37C32.3205 37 33.4404 36.7888 34.4178 36.3288L33.5662 34.5192ZM31.088 35H24.848V37H31.088V35ZM25.848 36V19.272H23.848V36H25.848ZM24.848 20.272H30.848V18.272H24.848V20.272ZM30.848 20.272C31.8748 20.272 32.6867 20.4459 33.3193 20.7495L34.1847 18.9465C33.2173 18.4821 32.0932 18.272 30.848 18.272V20.272ZM33.3341 20.7565C33.9871 21.0569 34.4237 21.4415 34.704 21.89L36.4 20.83C35.8803 19.9985 35.1169 19.3751 34.1699 18.9395L33.3341 20.7565ZM34.704 21.89C34.9986 22.3614 35.152 22.8957 35.152 23.52H37.152C37.152 22.5443 36.9054 21.6386 36.4 20.83L34.704 21.89ZM35.152 23.52C35.152 24.3191 34.9376 24.9058 34.5662 25.3537L36.1058 26.6303C36.8224 25.7662 37.152 24.7049 37.152 23.52H35.152ZM34.5646 25.3556C34.1709 25.8329 33.6344 26.1975 32.913 26.4336L33.535 28.3344C34.5736 27.9945 35.4451 27.4311 36.1074 26.6284L34.5646 25.3556ZM27.032 27.496H30.704V25.496H27.032V27.496ZM30.704 27.496C31.8744 27.496 32.93 27.2216 33.7308 26.5353L32.4292 25.0167C32.11 25.2904 31.5816 25.496 30.704 25.496V27.496ZM33.7308 26.5353C34.5469 25.8358 34.92 24.8753 34.92 23.784H32.92C32.92 24.3887 32.7331 24.7562 32.4292 25.0167L33.7308 26.5353ZM34.92 23.784C34.92 22.6927 34.5469 21.7322 33.7308 21.0327L32.4292 22.5513C32.7331 22.8118 32.92 23.1793 32.92 23.784H34.92ZM33.7308 21.0327C32.9251 20.3421 31.8493 20.072 30.656 20.072V22.072C31.5747 22.072 32.1149 22.2819 32.4292 22.5513L33.7308 21.0327ZM30.656 20.072H27.032V22.072H30.656V20.072ZM26.032 21.072V26.496H28.032V21.072H26.032ZM30.896 35.2C32.1329 35.2 33.239 34.9086 34.0841 34.1969L32.7959 32.6671C32.425 32.9794 31.8351 33.2 30.896 33.2V35.2ZM34.0841 34.1969C34.9524 33.4657 35.352 32.4544 35.352 31.296H33.352C33.352 31.9616 33.1436 32.3743 32.7959 32.6671L34.0841 34.1969ZM35.352 31.296C35.352 30.1094 34.9278 29.0826 34.0284 28.3406L32.7556 29.8834C33.1362 30.1974 33.352 30.6266 33.352 31.296H35.352ZM34.0396 28.3501C33.1735 27.6139 32.0661 27.296 30.824 27.296V29.296C31.7259 29.296 32.3305 29.5221 32.7444 29.8739L34.0396 28.3501ZM30.824 27.296H27.032V29.296H30.824V27.296ZM26.032 28.296V34.2H28.032V28.296H26.032ZM27.032 35.2H30.896V33.2H27.032V35.2ZM49.3108 27.648L50.0056 28.3672L50.0058 28.367L49.3108 27.648ZM41.7507 29.016V28.016H40.7507V29.016H41.7507ZM41.7507 36V37H42.7507V36H41.7507ZM39.5667 36H38.5668V37H39.5667V36ZM39.5667 19.272V18.272H38.5668V19.272H39.5667ZM49.2628 20.64L48.58 21.3707L48.586 21.3762L49.2628 20.64ZM47.6548 26.424L48.3305 27.1612L47.6548 26.424ZM41.7507 21.072V20.072H40.7507V21.072H41.7507ZM41.7507 27.216H40.7507V28.216H41.7507V27.216ZM49.7508 24.168C49.7508 25.3018 49.3717 26.1982 48.6157 26.929L50.0058 28.367C51.1698 27.2418 51.7508 25.8182 51.7508 24.168H49.7508ZM48.6159 26.9288C47.932 27.5895 46.7841 28.016 44.9668 28.016V30.016C47.0534 30.016 48.8015 29.5305 50.0056 28.3672L48.6159 26.9288ZM44.9668 28.016H41.7507V30.016H44.9668V28.016ZM40.7507 29.016V36H42.7507V29.016H40.7507ZM41.7507 35H39.5667V37H41.7507V35ZM40.5667 36V19.272H38.5668V36H40.5667ZM39.5667 20.272H44.9668V18.272H39.5667V20.272ZM44.9668 20.272C46.7062 20.272 47.8538 20.6921 48.58 21.3707L49.9455 19.9093C48.7197 18.7639 47.0033 18.272 44.9668 18.272V20.272ZM48.586 21.3762C49.3566 22.0847 49.7508 22.9862 49.7508 24.168H51.7508C51.7508 22.4698 51.1529 21.0193 49.9396 19.9038L48.586 21.3762ZM44.9668 28.216C46.2992 28.216 47.4908 27.9309 48.3305 27.1612L46.979 25.6868C46.6667 25.9731 46.0663 26.216 44.9668 26.216V28.216ZM48.3305 27.1612C49.1625 26.3985 49.5188 25.3495 49.5188 24.168H47.5188C47.5188 24.9385 47.299 25.3935 46.979 25.6868L48.3305 27.1612ZM49.5188 24.168C49.5188 22.9434 49.1611 21.8534 48.2878 21.0922C47.4407 20.3538 46.2737 20.072 44.9668 20.072V22.072C46.0278 22.072 46.6368 22.3062 46.9737 22.5998C47.2844 22.8706 47.5188 23.3286 47.5188 24.168H49.5188ZM44.9668 20.072H41.7507V22.072H44.9668V20.072ZM40.7507 21.072V27.216H42.7507V21.072H40.7507ZM41.7507 28.216H44.9668V26.216H41.7507V28.216ZM67.2892 19.272L68.2248 19.625L68.7353 18.272H67.2892V19.272ZM60.9772 36V37H61.6687L61.9128 36.353L60.9772 36ZM58.4572 36L57.5216 36.353L57.7657 37H58.4572V36ZM52.1452 19.272V18.272H50.699L51.2096 19.625L52.1452 19.272ZM54.4732 19.272L55.4128 18.9296L55.1731 18.272H54.4732V19.272ZM59.7292 33.696L58.7896 34.0384L59.7292 36.6168L60.6688 34.0384L59.7292 33.696ZM64.9852 19.272V18.272H64.2853L64.0456 18.9296L64.9852 19.272ZM66.3536 18.919L60.0416 35.647L61.9128 36.353L68.2248 19.625L66.3536 18.919ZM60.9772 35H58.4572V37H60.9772V35ZM59.3928 35.647L53.0808 18.919L51.2096 19.625L57.5216 36.353L59.3928 35.647ZM52.1452 20.272H54.4732V18.272H52.1452V20.272ZM53.5336 19.6144L58.7896 34.0384L60.6688 33.3536L55.4128 18.9296L53.5336 19.6144ZM60.6688 34.0384L65.9248 19.6144L64.0456 18.9296L58.7896 33.3536L60.6688 34.0384ZM64.9852 20.272H67.2892V18.272H64.9852V20.272ZM83.5079 19.272L84.4436 19.625L84.9541 18.272H83.5079V19.272ZM77.1959 36V37H77.8874L78.1315 36.353L77.1959 36ZM74.6759 36L73.7403 36.353L73.9844 37H74.6759V36ZM68.3639 19.272V18.272H66.9178L67.4283 19.625L68.3639 19.272ZM70.6919 19.272L71.6315 18.9296L71.3919 18.272H70.6919V19.272ZM75.9479 33.696L75.0084 34.0384L75.9479 36.6168L76.8875 34.0384L75.9479 33.696ZM81.2039 19.272V18.272H80.504L80.2644 18.9296L81.2039 19.272ZM82.5723 18.919L76.2603 35.647L78.1315 36.353L84.4436 19.625L82.5723 18.919ZM77.1959 35H74.6759V37H77.1959V35ZM75.6115 35.647L69.2995 18.919L67.4283 19.625L73.7403 36.353L75.6115 35.647ZM68.3639 20.272H70.6919V18.272H68.3639V20.272ZM69.7524 19.6144L75.0084 34.0384L76.8875 33.3536L71.6315 18.9296L69.7524 19.6144ZM76.8875 34.0384L82.1435 19.6144L80.2644 18.9296L75.0084 33.3536L76.8875 34.0384ZM81.2039 20.272H83.5079V18.272H81.2039V20.272ZM88.0867 21.048V20.048H87.0867V21.048H88.0867ZM88.0867 26.64H87.0867V27.64H88.0867V26.64ZM94.1827 26.64H95.1827V25.64H94.1827V26.64ZM94.1827 28.44V29.44H95.1827V28.44H94.1827ZM88.0867 28.44V27.44H87.0867V28.44H88.0867ZM88.0867 34.2H87.0867V35.2H88.0867V34.2ZM94.9027 34.2H95.9027V33.2H94.9027V34.2ZM94.9027 36V37H95.9027V36H94.9027ZM85.9027 36H84.9027V37H85.9027V36ZM85.9027 19.248V18.248H84.9027V19.248H85.9027ZM94.9027 19.248H95.9027V18.248H94.9027V19.248ZM94.9027 21.048V22.048H95.9027V21.048H94.9027ZM87.0867 21.048V26.64H89.0867V21.048H87.0867ZM88.0867 27.64H94.1827V25.64H88.0867V27.64ZM93.1827 26.64V28.44H95.1827V26.64H93.1827ZM94.1827 27.44H88.0867V29.44H94.1827V27.44ZM87.0867 28.44V34.2H89.0867V28.44H87.0867ZM88.0867 35.2H94.9027V33.2H88.0867V35.2ZM93.9027 34.2V36H95.9027V34.2H93.9027ZM94.9027 35H85.9027V37H94.9027V35ZM86.9027 36V19.248H84.9027V36H86.9027ZM85.9027 20.248H94.9027V18.248H85.9027V20.248ZM93.9027 19.248V21.048H95.9027V19.248H93.9027ZM94.9027 20.048H88.0867V22.048H94.9027V20.048Z" fill="#443B3B"/>
<path d="M156 25.0002C156 24.5879 155.745 24.2334 155.373 24.0474L128.893 10.1967C128.692 10.0688 128.452 10.0001 128.206 10C127.886 10 127.58 10.115 127.353 10.3198C127.127 10.5246 127 10.8024 127 11.0921C127 11.1344 127.009 11.1744 127.014 11.2152H127V39.0311H127.014C127.046 39.2971 127.186 39.543 127.406 39.7218C127.626 39.9005 127.91 39.9996 128.206 40C128.417 39.999 128.624 39.9473 128.806 39.85L128.817 39.8671L155.405 25.9594L155.394 25.9424C155.578 25.8475 155.731 25.7105 155.837 25.5451C155.943 25.3796 156 25.1917 156 25.0002Z" fill="#443B3B"/>
<defs>
<filter id="filter0_d" x="0" y="0" width="182" height="63" filterUnits="userSpaceOnUse" color-interpolation-filters="sRGB">
<feFlood flood-opacity="0" result="BackgroundImageFix"/>
<feColorMatrix in="SourceAlpha" type="matrix" values="0 0 0 0 0 0 0 0 0 0 0 0 0 0 0 0 0 0 127 0"/>
<feOffset dy="4"/>
<feGaussianBlur stdDeviation="2"/>
<feColorMatrix type="matrix" values="0 0 0 0 0 0 0 0 0 0 0 0 0 0 0 0 0 0 0.25 0"/>
<feBlend mode="normal" in2="BackgroundImageFix" result="effect1_dropShadow"/>
<feBlend mode="normal" in="SourceGraphic" in2="effect1_dropShadow" result="shape"/>
</filter>
</defs>
</svg>
