<svg width="343" height="75" viewBox="0 0 343 75" fill="none" xmlns="http://www.w3.org/2000/svg">
<g filter="url(#filter0_d)">
<rect x="7.68286" y="0.0126038" width="134.192" height="45.9874" rx="22.9937" fill="#F58A8A"/>
</g>
<path d="M129.657 24.0002C129.657 23.6978 129.464 23.4378 129.181 23.3014L109.093 13.1442C108.941 13.0504 108.758 13.0001 108.572 13C108.329 13 108.097 13.0844 107.925 13.2345C107.754 13.3847 107.657 13.5884 107.657 13.8009C107.657 13.8319 107.664 13.8612 107.668 13.8912H107.657V34.2895H107.668C107.692 34.4846 107.798 34.6649 107.965 34.796C108.132 34.9271 108.348 34.9997 108.572 35C108.732 34.9993 108.889 34.9613 109.027 34.89L109.035 34.9025L129.206 24.7036L129.198 24.6911C129.337 24.6215 129.453 24.521 129.533 24.3997C129.614 24.2784 129.657 24.1406 129.657 24.0002Z" fill="#443B3B"/>
<path d="M31.6621 24.7691C32.1181 24.8411 32.5321 25.0271 32.9041 25.3271C33.2881 25.6271 33.5881 25.9991 33.8041 26.4431C34.0321 26.8871 34.1461 27.3611 34.1461 27.8651C34.1461 28.5011 33.9841 29.0771 33.6601 29.5931C33.3361 30.0971 32.8621 30.4991 32.2381 30.7991C31.6261 31.0871 30.9001 31.2311 30.0601 31.2311H25.3801V18.6851H29.8801C30.7321 18.6851 31.4581 18.8291 32.0581 19.1171C32.6581 19.3931 33.1081 19.7711 33.4081 20.2511C33.7081 20.7311 33.8581 21.2711 33.8581 21.8711C33.8581 22.6151 33.6541 23.2331 33.2461 23.7251C32.8501 24.2051 32.3221 24.5531 31.6621 24.7691ZM27.0181 24.1031H29.7721C30.5401 24.1031 31.1341 23.9231 31.5541 23.5631C31.9741 23.2031 32.1841 22.7051 32.1841 22.0691C32.1841 21.4331 31.9741 20.9351 31.5541 20.5751C31.1341 20.2151 30.5281 20.0351 29.7361 20.0351H27.0181V24.1031ZM29.9161 29.8811C30.7321 29.8811 31.3681 29.6891 31.8241 29.3051C32.2801 28.9211 32.5081 28.3871 32.5081 27.7031C32.5081 27.0071 32.2681 26.4611 31.7881 26.0651C31.3081 25.6571 30.6661 25.4531 29.8621 25.4531H27.0181V29.8811H29.9161ZM40.3972 31.3571C39.5692 31.3571 38.8252 31.2131 38.1652 30.9251C37.5172 30.6251 37.0072 30.2171 36.6352 29.7011C36.2632 29.1731 36.0712 28.5671 36.0592 27.8831H37.8052C37.8652 28.4711 38.1052 28.9691 38.5252 29.3771C38.9572 29.7731 39.5812 29.9711 40.3972 29.9711C41.1772 29.9711 41.7892 29.7791 42.2332 29.3951C42.6892 28.9991 42.9172 28.4951 42.9172 27.8831C42.9172 27.4031 42.7852 27.0131 42.5212 26.7131C42.2572 26.4131 41.9272 26.1851 41.5312 26.0291C41.1352 25.8731 40.6012 25.7051 39.9292 25.5251C39.1012 25.3091 38.4352 25.0931 37.9312 24.8771C37.4392 24.6611 37.0132 24.3251 36.6532 23.8691C36.3052 23.4011 36.1312 22.7771 36.1312 21.9971C36.1312 21.3131 36.3052 20.7071 36.6532 20.1791C37.0012 19.6511 37.4872 19.2431 38.1112 18.9551C38.7472 18.6671 39.4732 18.5231 40.2892 18.5231C41.4652 18.5231 42.4252 18.8171 43.1692 19.4051C43.9252 19.9931 44.3512 20.7731 44.4472 21.7451H42.6472C42.5872 21.2651 42.3352 20.8451 41.8912 20.4851C41.4472 20.1131 40.8592 19.9271 40.1272 19.9271C39.4432 19.9271 38.8852 20.1071 38.4532 20.4671C38.0212 20.8151 37.8052 21.3071 37.8052 21.9431C37.8052 22.3991 37.9312 22.7711 38.1832 23.0591C38.4472 23.3471 38.7652 23.5691 39.1372 23.7251C39.5212 23.8691 40.0552 24.0371 40.7392 24.2291C41.5672 24.4571 42.2332 24.6851 42.7372 24.9131C43.2412 25.1291 43.6732 25.4711 44.0332 25.9391C44.3932 26.3951 44.5732 27.0191 44.5732 27.8111C44.5732 28.4231 44.4112 28.9991 44.0872 29.5391C43.7632 30.0791 43.2832 30.5171 42.6472 30.8531C42.0112 31.1891 41.2612 31.3571 40.3972 31.3571ZM50.9617 31.3571C50.1337 31.3571 49.3897 31.2131 48.7297 30.9251C48.0817 30.6251 47.5717 30.2171 47.1997 29.7011C46.8277 29.1731 46.6357 28.5671 46.6237 27.8831H48.3697C48.4297 28.4711 48.6697 28.9691 49.0897 29.3771C49.5217 29.7731 50.1457 29.9711 50.9617 29.9711C51.7417 29.9711 52.3537 29.7791 52.7977 29.3951C53.2537 28.9991 53.4817 28.4951 53.4817 27.8831C53.4817 27.4031 53.3497 27.0131 53.0857 26.7131C52.8217 26.4131 52.4917 26.1851 52.0957 26.0291C51.6997 25.8731 51.1657 25.7051 50.4937 25.5251C49.6657 25.3091 48.9997 25.0931 48.4957 24.8771C48.0037 24.6611 47.5777 24.3251 47.2177 23.8691C46.8697 23.4011 46.6957 22.7771 46.6957 21.9971C46.6957 21.3131 46.8697 20.7071 47.2177 20.1791C47.5657 19.6511 48.0517 19.2431 48.6757 18.9551C49.3117 18.6671 50.0377 18.5231 50.8537 18.5231C52.0297 18.5231 52.9897 18.8171 53.7337 19.4051C54.4897 19.9931 54.9157 20.7731 55.0117 21.7451H53.2117C53.1517 21.2651 52.8997 20.8451 52.4557 20.4851C52.0117 20.1131 51.4237 19.9271 50.6917 19.9271C50.0077 19.9271 49.4497 20.1071 49.0177 20.4671C48.5857 20.8151 48.3697 21.3071 48.3697 21.9431C48.3697 22.3991 48.4957 22.7711 48.7477 23.0591C49.0117 23.3471 49.3297 23.5691 49.7017 23.7251C50.0857 23.8691 50.6197 24.0371 51.3037 24.2291C52.1317 24.4571 52.7977 24.6851 53.3017 24.9131C53.8057 25.1291 54.2377 25.4711 54.5977 25.9391C54.9577 26.3951 55.1377 27.0191 55.1377 27.8111C55.1377 28.4231 54.9757 28.9991 54.6517 29.5391C54.3277 30.0791 53.8477 30.5171 53.2117 30.8531C52.5757 31.1891 51.8257 31.3571 50.9617 31.3571ZM67.9161 18.6851L63.1821 31.2311H61.2921L56.5581 18.6851H58.3041L62.2461 29.5031L66.1881 18.6851H67.9161ZM74.8422 24.9671L78.6942 31.2311H76.8402L73.8342 26.3351L70.9722 31.2311H69.1542L72.9882 24.9671L69.1362 18.6851H70.9722L73.9962 23.5991L76.8762 18.6851H78.7122L74.8422 24.9671ZM86.0219 24.9671L89.8739 31.2311H88.0199L85.0139 26.3351L82.1519 31.2311H80.3339L84.1679 24.9671L80.3159 18.6851H82.1519L85.1759 23.5991L88.0559 18.6851H89.8919L86.0219 24.9671Z" fill="#443B3B"/>
<path d="M31.6621 24.7691L31.3511 23.8187L31.5062 25.7568L31.6621 24.7691ZM32.9041 25.3271L32.2764 26.1055L32.2824 26.1103L32.2885 26.1151L32.9041 25.3271ZM33.8041 26.4431L32.9049 26.8805L32.9096 26.8903L32.9146 26.8999L33.8041 26.4431ZM33.6601 29.5931L34.5014 30.1339L34.507 30.1248L33.6601 29.5931ZM32.2381 30.7991L32.664 31.7039L32.6714 31.7003L32.2381 30.7991ZM25.3801 31.2311H24.3801V32.2311H25.3801V31.2311ZM25.3801 18.6851V17.6851H24.3801V18.6851H25.3801ZM32.0581 19.1171L31.6254 20.0186L31.6328 20.0221L31.6402 20.0256L32.0581 19.1171ZM33.4081 20.2511L32.5601 20.7811L32.5601 20.7811L33.4081 20.2511ZM33.2461 23.7251L32.4764 23.0867L32.4748 23.0887L33.2461 23.7251ZM27.0181 24.1031H26.0181V25.1031H27.0181V24.1031ZM31.5541 20.5751L30.9033 21.3343L30.9033 21.3343L31.5541 20.5751ZM27.0181 20.0351V19.0351H26.0181V20.0351H27.0181ZM31.8241 29.3051L32.4683 30.07L32.4683 30.07L31.8241 29.3051ZM31.7881 26.0651L31.1405 26.827L31.1461 26.8318L31.1518 26.8365L31.7881 26.0651ZM27.0181 25.4531V24.4531H26.0181V25.4531H27.0181ZM27.0181 29.8811H26.0181V30.8811H27.0181V29.8811ZM31.5062 25.7568C31.7831 25.8006 32.0356 25.9113 32.2764 26.1055L33.5319 24.5487C33.0287 24.1428 32.4532 23.8816 31.8181 23.7813L31.5062 25.7568ZM32.2885 26.1151C32.5509 26.3201 32.7546 26.5716 32.9049 26.8805L34.7034 26.0056C34.4217 25.4266 34.0254 24.9341 33.5198 24.5391L32.2885 26.1151ZM32.9146 26.8999C33.0693 27.2011 33.1461 27.5183 33.1461 27.8651H35.1461C35.1461 27.2038 34.995 26.573 34.6937 25.9863L32.9146 26.8999ZM33.1461 27.8651C33.1461 28.3216 33.0327 28.7118 32.8133 29.0613L34.507 30.1248C34.9356 29.4423 35.1461 28.6805 35.1461 27.8651H33.1461ZM32.819 29.0523C32.6097 29.3778 32.2886 29.6653 31.8048 29.8978L32.6714 31.7003C33.4357 31.3329 34.0626 30.8163 34.5013 30.1338L32.819 29.0523ZM31.8123 29.8943C31.3617 30.1063 30.7877 30.2311 30.0601 30.2311V32.2311C31.0126 32.2311 31.8905 32.0678 32.6639 31.7039L31.8123 29.8943ZM30.0601 30.2311H25.3801V32.2311H30.0601V30.2311ZM26.3801 31.2311V18.6851H24.3801V31.2311H26.3801ZM25.3801 19.6851H29.8801V17.6851H25.3801V19.6851ZM29.8801 19.6851C30.6229 19.6851 31.1928 19.8109 31.6254 20.0186L32.4909 18.2156C31.7235 17.8472 30.8414 17.6851 29.8801 17.6851V19.6851ZM31.6402 20.0256C32.0932 20.2339 32.3798 20.4926 32.5601 20.7811L34.2561 19.7211C33.8364 19.0496 33.2231 18.5522 32.476 18.2086L31.6402 20.0256ZM32.5601 20.7811C32.7548 21.0925 32.8581 21.4467 32.8581 21.8711H34.8581C34.8581 21.0954 34.6615 20.3697 34.2561 19.7211L32.5601 20.7811ZM32.8581 21.8711C32.8581 22.4222 32.7118 22.8029 32.4764 23.0867L34.0159 24.3634C34.5965 23.6633 34.8581 22.808 34.8581 21.8711H32.8581ZM32.4748 23.0887C32.213 23.406 31.8526 23.6546 31.3511 23.8187L31.9732 25.7195C32.7917 25.4516 33.4873 25.0042 34.0175 24.3615L32.4748 23.0887ZM27.0181 25.1031H29.7721V23.1031H27.0181V25.1031ZM29.7721 25.1031C30.6866 25.1031 31.5441 24.8887 32.2049 24.3223L30.9033 22.8038C30.7241 22.9574 30.3937 23.1031 29.7721 23.1031V25.1031ZM32.2049 24.3223C32.881 23.7428 33.1841 22.9484 33.1841 22.0691H31.1841C31.1841 22.4618 31.0673 22.6633 30.9033 22.8038L32.2049 24.3223ZM33.1841 22.0691C33.1841 21.1898 32.881 20.3953 32.2049 19.8158L30.9033 21.3343C31.0673 21.4748 31.1841 21.6764 31.1841 22.0691H33.1841ZM32.2049 19.8158C31.5392 19.2452 30.6654 19.0351 29.7361 19.0351V21.0351C30.3909 21.0351 30.7291 21.1849 30.9033 21.3343L32.2049 19.8158ZM29.7361 19.0351H27.0181V21.0351H29.7361V19.0351ZM26.0181 20.0351V24.1031H28.0181V20.0351H26.0181ZM29.9161 30.8811C30.8811 30.8811 31.7752 30.6536 32.4683 30.07L31.18 28.5402C30.9611 28.7245 30.5832 28.8811 29.9161 28.8811V30.8811ZM32.4683 30.07C33.1846 29.4668 33.5081 28.6335 33.5081 27.7031H31.5081C31.5081 28.1406 31.3757 28.3754 31.18 28.5402L32.4683 30.07ZM33.5081 27.7031C33.5081 26.7485 33.1639 25.9037 32.4245 25.2937L31.1518 26.8365C31.3724 27.0185 31.5081 27.2656 31.5081 27.7031H33.5081ZM32.4358 25.3031C31.7297 24.7029 30.8363 24.4531 29.8621 24.4531V26.4531C30.496 26.4531 30.8866 26.6112 31.1405 26.827L32.4358 25.3031ZM29.8621 24.4531H27.0181V26.4531H29.8621V24.4531ZM26.0181 25.4531V29.8811H28.0181V25.4531H26.0181ZM27.0181 30.8811H29.9161V28.8811H27.0181V30.8811ZM38.1652 30.9251L37.7451 31.8325L37.7551 31.8372L37.7653 31.8416L38.1652 30.9251ZM36.6352 29.7011L35.8177 30.2771L35.824 30.2859L36.6352 29.7011ZM36.0592 27.8831V26.8831H35.0415L35.0594 27.9006L36.0592 27.8831ZM37.8052 27.8831L38.8 27.7816L38.7084 26.8831H37.8052V27.8831ZM38.5252 29.3771L37.8284 30.0944L37.8388 30.1044L37.8495 30.1142L38.5252 29.3771ZM42.2332 29.3951L42.8874 30.1514L42.8889 30.1501L42.2332 29.3951ZM42.5212 26.7131L41.7705 27.3737L41.7705 27.3737L42.5212 26.7131ZM41.5312 26.0291L41.1647 26.9595L41.1647 26.9595L41.5312 26.0291ZM39.9292 25.5251L40.1879 24.5591L40.1816 24.5575L39.9292 25.5251ZM37.9312 24.8771L37.5292 25.7928L37.5373 25.7962L37.9312 24.8771ZM36.6532 23.8691L35.8507 24.4658L35.8594 24.4774L35.8683 24.4887L36.6532 23.8691ZM36.6532 20.1791L37.4882 20.7294L37.4882 20.7294L36.6532 20.1791ZM38.1112 18.9551L37.6987 18.0441L37.6921 18.0471L38.1112 18.9551ZM43.1692 19.4051L42.5491 20.1897L42.5553 20.1944L43.1692 19.4051ZM44.4472 21.7451V22.7451H45.5508L45.4424 21.6468L44.4472 21.7451ZM42.6472 21.7451L41.6549 21.8691L41.7644 22.7451H42.6472V21.7451ZM41.8912 20.4851L41.249 21.2516L41.2552 21.2568L41.2614 21.2618L41.8912 20.4851ZM38.4532 20.4671L39.0805 21.2458L39.087 21.2406L39.0934 21.2353L38.4532 20.4671ZM38.1832 23.0591L37.4306 23.7176L37.4382 23.7263L37.446 23.7348L38.1832 23.0591ZM39.1372 23.7251L38.7505 24.6473L38.7681 24.6547L38.7861 24.6614L39.1372 23.7251ZM40.7392 24.2291L40.4689 25.1919L40.4737 25.1932L40.7392 24.2291ZM42.7372 24.9131L42.325 25.8242L42.3341 25.8283L42.3433 25.8322L42.7372 24.9131ZM44.0332 25.9391L43.2405 26.5488L43.2483 26.5587L44.0332 25.9391ZM44.0872 29.5391L44.9447 30.0536L44.9447 30.0536L44.0872 29.5391ZM42.6472 30.8531L42.1801 29.9689L42.6472 30.8531ZM40.3972 30.3571C39.6863 30.3571 39.0815 30.2338 38.5651 30.0085L37.7653 31.8416C38.5689 32.1923 39.4521 32.3571 40.3972 32.3571V30.3571ZM38.5853 30.0176C38.0738 29.7808 37.7061 29.4765 37.4464 29.1163L35.824 30.2859C36.3083 30.9577 36.9606 31.4694 37.7451 31.8325L38.5853 30.0176ZM37.4527 29.1251C37.203 28.7707 37.0678 28.3618 37.059 27.8655L35.0594 27.9006C35.0747 28.7723 35.3234 29.5754 35.8177 30.277L37.4527 29.1251ZM36.0592 28.8831H37.8052V26.8831H36.0592V28.8831ZM36.8104 27.9846C36.894 28.8041 37.238 29.5208 37.8284 30.0944L39.222 28.6598C38.9724 28.4173 38.8364 28.1381 38.8 27.7816L36.8104 27.9846ZM37.8495 30.1142C38.5276 30.7358 39.4296 30.9711 40.3972 30.9711V28.9711C39.7328 28.9711 39.3869 28.8104 39.2009 28.6399L37.8495 30.1142ZM40.3972 30.9711C41.3375 30.9711 42.2091 30.738 42.8874 30.1514L41.5791 28.6387C41.3693 28.8201 41.0169 28.9711 40.3972 28.9711V30.9711ZM42.8889 30.1501C43.5669 29.5613 43.9172 28.7803 43.9172 27.8831H41.9172C41.9172 28.2099 41.8115 28.4369 41.5775 28.64L42.8889 30.1501ZM43.9172 27.8831C43.9172 27.2112 43.7275 26.5702 43.2719 26.0525L41.7705 27.3737C41.8429 27.456 41.9172 27.5949 41.9172 27.8831H43.9172ZM43.2719 26.0525C42.8963 25.6256 42.4315 25.309 41.8977 25.0987L41.1647 26.9595C41.4229 27.0612 41.6181 27.2006 41.7705 27.3737L43.2719 26.0525ZM41.8977 25.0987C41.4515 24.9229 40.8767 24.7436 40.1879 24.5591L39.6705 26.491C40.3257 26.6665 40.8189 26.8233 41.1647 26.9595L41.8977 25.0987ZM40.1816 24.5575C39.3784 24.3479 38.7653 24.1466 38.3251 23.9579L37.5373 25.7962C38.1051 26.0396 38.824 26.2702 39.6768 26.4927L40.1816 24.5575ZM38.3332 23.9614C38.0031 23.8165 37.7051 23.5876 37.4381 23.2494L35.8683 24.4887C36.3213 25.0625 36.8753 25.5056 37.5292 25.7927L38.3332 23.9614ZM37.4557 23.2724C37.2731 23.0268 37.1312 22.634 37.1312 21.9971H35.1312C35.1312 22.9202 35.3374 23.7754 35.8507 24.4658L37.4557 23.2724ZM37.1312 21.9971C37.1312 21.492 37.2567 21.0806 37.4882 20.7294L35.8182 19.6288C35.3538 20.3335 35.1312 21.1341 35.1312 21.9971H37.1312ZM37.4882 20.7294C37.7247 20.3705 38.0603 20.08 38.5303 19.863L37.6921 18.0471C36.9141 18.4062 36.2777 18.9317 35.8182 19.6288L37.4882 20.7294ZM38.5237 19.866C39.01 19.6458 39.5917 19.5231 40.2892 19.5231V17.5231C39.3547 17.5231 38.4844 17.6884 37.6987 18.0441L38.5237 19.866ZM40.2892 19.5231C41.2955 19.5231 42.0207 19.772 42.5491 20.1896L43.7893 18.6205C42.8297 17.8622 41.6349 17.5231 40.2892 17.5231V19.5231ZM42.5553 20.1944C43.09 20.6103 43.3824 21.1381 43.452 21.8434L45.4424 21.6468C45.32 20.408 44.7604 19.3758 43.7831 18.6157L42.5553 20.1944ZM44.4472 20.7451H42.6472V22.7451H44.4472V20.7451ZM43.6395 21.621C43.5417 20.8391 43.1266 20.1994 42.521 19.7083L41.2614 21.2618C41.5438 21.4908 41.6327 21.6911 41.6549 21.8691L43.6395 21.621ZM42.5334 19.7186C41.8661 19.1594 41.0305 18.9271 40.1272 18.9271V20.9271C40.6879 20.9271 41.0283 21.0667 41.249 21.2516L42.5334 19.7186ZM40.1272 18.9271C39.2618 18.9271 38.4613 19.1586 37.813 19.6989L39.0934 21.2353C39.3091 21.0556 39.6246 20.9271 40.1272 20.9271V18.9271ZM37.8259 19.6883C37.1219 20.2554 36.8052 21.0544 36.8052 21.9431H38.8052C38.8052 21.5598 38.9205 21.3748 39.0805 21.2458L37.8259 19.6883ZM36.8052 21.9431C36.8052 22.5925 36.9897 23.2136 37.4306 23.7176L38.9358 22.4006C38.8727 22.3285 38.8052 22.2057 38.8052 21.9431H36.8052ZM37.446 23.7348C37.8109 24.1328 38.2497 24.4373 38.7505 24.6473L39.5239 22.8029C39.2807 22.7009 39.0835 22.5613 38.9204 22.3834L37.446 23.7348ZM38.7861 24.6614C39.209 24.82 39.7743 24.9969 40.4689 25.1919L41.0095 23.2663C40.3362 23.0773 39.8334 22.9182 39.4883 22.7887L38.7861 24.6614ZM40.4737 25.1932C41.2757 25.414 41.8869 25.626 42.325 25.8242L43.1494 24.002C42.5795 23.7442 41.8587 23.5001 41.0047 23.265L40.4737 25.1932ZM42.3433 25.8322C42.6781 25.9757 42.9766 26.2056 43.2406 26.5488L44.8258 25.3294C44.3698 24.7366 43.8043 24.2824 43.1311 23.9939L42.3433 25.8322ZM43.2483 26.5587C43.426 26.7837 43.5732 27.163 43.5732 27.8111H45.5732C45.5732 26.8752 45.3604 26.0064 44.8181 25.3194L43.2483 26.5587ZM43.5732 27.8111C43.5732 28.2364 43.4633 28.6353 43.2297 29.0246L44.9447 30.0536C45.3591 29.3629 45.5732 28.6098 45.5732 27.8111H43.5732ZM43.2297 29.0246C43.0124 29.3868 42.6781 29.7058 42.1801 29.9689L43.1143 31.7373C43.8883 31.3284 44.514 30.7714 44.9447 30.0536L43.2297 29.0246ZM42.1801 29.9689C41.7143 30.215 41.1309 30.3571 40.3972 30.3571V32.3571C41.3915 32.3571 42.3081 32.1632 43.1143 31.7373L42.1801 29.9689ZM48.7297 30.9251L48.3095 31.8325L48.3196 31.8372L48.3297 31.8416L48.7297 30.9251ZM47.1997 29.7011L46.3821 30.2771L46.3885 30.2859L47.1997 29.7011ZM46.6237 27.8831V26.8831H45.606L45.6238 27.9006L46.6237 27.8831ZM48.3697 27.8831L49.3645 27.7816L49.2728 26.8831H48.3697V27.8831ZM49.0897 29.3771L48.3929 30.0944L48.4033 30.1044L48.4139 30.1142L49.0897 29.3771ZM52.7977 29.3951L53.4518 30.1514L53.4533 30.1501L52.7977 29.3951ZM53.0857 26.7131L52.3349 27.3737L52.3349 27.3737L53.0857 26.7131ZM52.0957 26.0291L51.7291 26.9595L51.7291 26.9595L52.0957 26.0291ZM50.4937 25.5251L50.7524 24.5591L50.7461 24.5575L50.4937 25.5251ZM48.4957 24.8771L48.0937 25.7928L48.1017 25.7962L48.4957 24.8771ZM47.2177 23.8691L46.4152 24.4658L46.4238 24.4774L46.4328 24.4887L47.2177 23.8691ZM47.2177 20.1791L48.0526 20.7294L48.0526 20.7294L47.2177 20.1791ZM48.6757 18.9551L48.2631 18.0441L48.2566 18.0471L48.6757 18.9551ZM53.7337 19.4051L53.1136 20.1897L53.1197 20.1944L53.7337 19.4051ZM55.0117 21.7451V22.7451H56.1153L56.0068 21.6468L55.0117 21.7451ZM53.2117 21.7451L52.2194 21.8691L52.3289 22.7451H53.2117V21.7451ZM52.4557 20.4851L51.8134 21.2516L51.8196 21.2568L51.8259 21.2618L52.4557 20.4851ZM49.0177 20.4671L49.645 21.2458L49.6515 21.2406L49.6578 21.2353L49.0177 20.4671ZM48.7477 23.0591L47.9951 23.7176L48.0027 23.7263L48.0105 23.7348L48.7477 23.0591ZM49.7017 23.7251L49.3149 24.6473L49.3326 24.6547L49.3505 24.6614L49.7017 23.7251ZM51.3037 24.2291L51.0334 25.1919L51.0382 25.1932L51.3037 24.2291ZM53.3017 24.9131L52.8895 25.8242L52.8986 25.8283L52.9077 25.8322L53.3017 24.9131ZM54.5977 25.9391L53.805 26.5488L53.8128 26.5587L54.5977 25.9391ZM54.6517 29.5391L55.5091 30.0536L55.5091 30.0536L54.6517 29.5391ZM53.2117 30.8531L52.7445 29.9689L53.2117 30.8531ZM50.9617 30.3571C50.2508 30.3571 49.6459 30.2338 49.1296 30.0085L48.3297 31.8416C49.1334 32.1923 50.0165 32.3571 50.9617 32.3571V30.3571ZM49.1498 30.0176C48.6382 29.7808 48.2705 29.4765 48.0108 29.1163L46.3885 30.2859C46.8728 30.9577 47.5251 31.4694 48.3095 31.8325L49.1498 30.0176ZM48.0171 29.1251C47.7675 28.7707 47.6322 28.3618 47.6235 27.8655L45.6238 27.9006C45.6391 28.7723 45.8879 29.5754 46.3822 30.277L48.0171 29.1251ZM46.6237 28.8831H48.3697V26.8831H46.6237V28.8831ZM47.3748 27.9846C47.4584 28.8041 47.8025 29.5208 48.3929 30.0944L49.7864 28.6598C49.5368 28.4173 49.4009 28.1381 49.3645 27.7816L47.3748 27.9846ZM48.4139 30.1142C49.092 30.7358 49.994 30.9711 50.9617 30.9711V28.9711C50.2973 28.9711 49.9513 28.8104 49.7654 28.6399L48.4139 30.1142ZM50.9617 30.9711C51.9019 30.9711 52.7736 30.738 53.4518 30.1514L52.1435 28.6387C51.9337 28.8201 51.5814 28.9711 50.9617 28.9711V30.9711ZM53.4533 30.1501C54.1314 29.5613 54.4817 28.7803 54.4817 27.8831H52.4817C52.4817 28.2099 52.3759 28.4369 52.142 28.64L53.4533 30.1501ZM54.4817 27.8831C54.4817 27.2112 54.292 26.5702 53.8364 26.0525L52.3349 27.3737C52.4073 27.456 52.4817 27.5949 52.4817 27.8831H54.4817ZM53.8364 26.0525C53.4607 25.6256 52.996 25.309 52.4622 25.0987L51.7291 26.9595C51.9873 27.0612 52.1826 27.2006 52.3349 27.3737L53.8364 26.0525ZM52.4622 25.0987C52.016 24.9229 51.4412 24.7436 50.7524 24.5591L50.2349 26.491C50.8901 26.6665 51.3833 26.8233 51.7291 26.9595L52.4622 25.0987ZM50.7461 24.5575C49.9428 24.3479 49.3297 24.1466 48.8896 23.9579L48.1017 25.7962C48.6696 26.0396 49.3885 26.2702 50.2412 26.4927L50.7461 24.5575ZM48.8976 23.9614C48.5676 23.8165 48.2695 23.5876 48.0025 23.2494L46.4328 24.4887C46.8858 25.0625 47.4397 25.5056 48.0937 25.7927L48.8976 23.9614ZM48.0201 23.2724C47.8375 23.0268 47.6957 22.634 47.6957 21.9971H45.6957C45.6957 22.9202 45.9018 23.7754 46.4152 24.4658L48.0201 23.2724ZM47.6957 21.9971C47.6957 21.492 47.8211 21.0806 48.0526 20.7294L46.3827 19.6288C45.9182 20.3335 45.6957 21.1341 45.6957 21.9971H47.6957ZM48.0526 20.7294C48.2892 20.3705 48.6247 20.08 49.0947 19.863L48.2566 18.0471C47.4786 18.4062 46.8421 18.9317 46.3827 19.6288L48.0526 20.7294ZM49.0882 19.866C49.5745 19.6458 50.1561 19.5231 50.8537 19.5231V17.5231C49.9192 17.5231 49.0488 17.6884 48.2631 18.0441L49.0882 19.866ZM50.8537 19.5231C51.86 19.5231 52.5852 19.772 53.1136 20.1896L54.3537 18.6205C53.3941 17.8622 52.1993 17.5231 50.8537 17.5231V19.5231ZM53.1197 20.1944C53.6545 20.6103 53.9468 21.1381 54.0165 21.8434L56.0068 21.6468C55.8845 20.408 55.3248 19.3758 54.3476 18.6157L53.1197 20.1944ZM55.0117 20.7451H53.2117V22.7451H55.0117V20.7451ZM54.2039 21.621C54.1062 20.8391 53.6911 20.1994 53.0855 19.7083L51.8259 21.2618C52.1082 21.4908 52.1971 21.6911 52.2194 21.8691L54.2039 21.621ZM53.0979 19.7186C52.4305 19.1594 51.595 18.9271 50.6917 18.9271V20.9271C51.2523 20.9271 51.5928 21.0667 51.8134 21.2516L53.0979 19.7186ZM50.6917 18.9271C49.8262 18.9271 49.0258 19.1586 48.3775 19.6989L49.6578 21.2353C49.8735 21.0556 50.1891 20.9271 50.6917 20.9271V18.9271ZM48.3903 19.6883C47.6864 20.2554 47.3697 21.0544 47.3697 21.9431H49.3697C49.3697 21.5598 49.4849 21.3748 49.645 21.2458L48.3903 19.6883ZM47.3697 21.9431C47.3697 22.5925 47.5541 23.2136 47.9951 23.7176L49.5002 22.4006C49.4372 22.3285 49.3697 22.2057 49.3697 21.9431H47.3697ZM48.0105 23.7348C48.3753 24.1328 48.8141 24.4373 49.3149 24.6473L50.0884 22.8029C49.8452 22.7009 49.648 22.5613 49.4848 22.3834L48.0105 23.7348ZM49.3505 24.6614C49.7735 24.82 50.3387 24.9969 51.0334 25.1919L51.5739 23.2663C50.9006 23.0773 50.3979 22.9182 50.0528 22.7887L49.3505 24.6614ZM51.0382 25.1932C51.8402 25.414 52.4513 25.626 52.8895 25.8242L53.7138 24.002C53.144 23.7442 52.4231 23.5001 51.5691 23.265L51.0382 25.1932ZM52.9077 25.8322C53.2426 25.9757 53.541 26.2056 53.805 26.5488L55.3903 25.3294C54.9343 24.7366 54.3687 24.2824 53.6956 23.9939L52.9077 25.8322ZM53.8128 26.5587C53.9904 26.7837 54.1377 27.163 54.1377 27.8111H56.1377C56.1377 26.8752 55.9249 26.0064 55.3825 25.3194L53.8128 26.5587ZM54.1377 27.8111C54.1377 28.2364 54.0278 28.6353 53.7942 29.0246L55.5091 30.0536C55.9236 29.3629 56.1377 28.6098 56.1377 27.8111H54.1377ZM53.7942 29.0246C53.5769 29.3868 53.2425 29.7058 52.7445 29.9689L53.6788 31.7373C54.4528 31.3284 55.0785 30.7714 55.5091 30.0536L53.7942 29.0246ZM52.7445 29.9689C52.2787 30.215 51.6954 30.3571 50.9617 30.3571V32.3571C51.9559 32.3571 52.8726 32.1632 53.6788 31.7373L52.7445 29.9689ZM67.9161 18.6851L68.8517 19.0381L69.3623 17.6851H67.9161V18.6851ZM63.1821 31.2311V32.2311H63.8736L64.1177 31.5841L63.1821 31.2311ZM61.2921 31.2311L60.3565 31.5841L60.6006 32.2311H61.2921V31.2311ZM56.5581 18.6851V17.6851H55.112L55.6225 19.0381L56.5581 18.6851ZM58.3041 18.6851L59.2437 18.3427L59.004 17.6851H58.3041V18.6851ZM62.2461 29.5031L61.3065 29.8454L62.2461 32.4239L63.1857 29.8454L62.2461 29.5031ZM66.1881 18.6851V17.6851H65.4882L65.2485 18.3427L66.1881 18.6851ZM66.9805 18.332L62.2465 30.878L64.1177 31.5841L68.8517 19.0381L66.9805 18.332ZM63.1821 30.2311H61.2921V32.2311H63.1821V30.2311ZM62.2277 30.878L57.4937 18.332L55.6225 19.0381L60.3565 31.5841L62.2277 30.878ZM56.5581 19.6851H58.3041V17.6851H56.5581V19.6851ZM57.3645 19.0274L61.3065 29.8454L63.1857 29.1607L59.2437 18.3427L57.3645 19.0274ZM63.1857 29.8454L67.1277 19.0274L65.2485 18.3427L61.3065 29.1607L63.1857 29.8454ZM66.1881 19.6851H67.9161V17.6851H66.1881V19.6851ZM74.8422 24.9671L73.9908 24.4426L73.6679 24.9666L73.9903 25.4909L74.8422 24.9671ZM78.6942 31.2311V32.2311H80.4831L79.546 30.7073L78.6942 31.2311ZM76.8402 31.2311L75.988 31.7543L76.2807 32.2311H76.8402V31.2311ZM73.8342 26.3351L74.6864 25.8119L73.8131 24.3896L72.9709 25.8304L73.8342 26.3351ZM70.9722 31.2311V32.2311H71.5459L71.8355 31.7357L70.9722 31.2311ZM69.1542 31.2311L68.3013 30.709L67.3697 32.2311H69.1542V31.2311ZM72.9882 24.9671L73.8411 25.4891L74.1609 24.9666L73.8407 24.4443L72.9882 24.9671ZM69.1362 18.6851V17.6851H67.35L68.2837 19.2078L69.1362 18.6851ZM70.9722 18.6851L71.8238 18.161L71.531 17.6851H70.9722V18.6851ZM73.9962 23.5991L73.1445 24.1232L74.0171 25.5411L74.8589 24.1047L73.9962 23.5991ZM76.8762 18.6851V17.6851H76.3032L76.0134 18.1794L76.8762 18.6851ZM78.7122 18.6851L79.5636 19.2096L80.5027 17.6851H78.7122V18.6851ZM73.9903 25.4909L77.8423 31.7549L79.546 30.7073L75.694 24.4433L73.9903 25.4909ZM78.6942 30.2311H76.8402V32.2311H78.6942V30.2311ZM77.6924 30.7079L74.6864 25.8119L72.982 26.8583L75.988 31.7543L77.6924 30.7079ZM72.9709 25.8304L70.1089 30.7264L71.8355 31.7357L74.6975 26.8397L72.9709 25.8304ZM70.9722 30.2311H69.1542V32.2311H70.9722V30.2311ZM70.0071 31.7531L73.8411 25.4891L72.1353 24.445L68.3013 30.709L70.0071 31.7531ZM73.8407 24.4443L69.9887 18.1623L68.2837 19.2078L72.1357 25.4898L73.8407 24.4443ZM69.1362 19.6851H70.9722V17.6851H69.1362V19.6851ZM70.1205 19.2092L73.1445 24.1232L74.8478 23.075L71.8238 18.161L70.1205 19.2092ZM74.8589 24.1047L77.7389 19.1907L76.0134 18.1794L73.1334 23.0934L74.8589 24.1047ZM76.8762 19.6851H78.7122V17.6851H76.8762V19.6851ZM77.8608 18.1606L73.9908 24.4426L75.6936 25.4916L79.5636 19.2096L77.8608 18.1606ZM86.0219 24.9671L85.1705 24.4426L84.8476 24.9666L85.17 25.4909L86.0219 24.9671ZM89.8739 31.2311V32.2311H91.6628L90.7257 30.7073L89.8739 31.2311ZM88.0199 31.2311L87.1677 31.7543L87.4604 32.2311H88.0199V31.2311ZM85.0139 26.3351L85.8661 25.8119L84.9928 24.3896L84.1505 25.8304L85.0139 26.3351ZM82.1519 31.2311V32.2311H82.7256L83.0152 31.7357L82.1519 31.2311ZM80.3339 31.2311L79.4809 30.709L78.5493 32.2311H80.3339V31.2311ZM84.1679 24.9671L85.0208 25.4891L85.3406 24.9666L85.0204 24.4443L84.1679 24.9671ZM80.3159 18.6851V17.6851H78.5297L79.4634 19.2078L80.3159 18.6851ZM82.1519 18.6851L83.0035 18.161L82.7107 17.6851H82.1519V18.6851ZM85.1759 23.5991L84.3242 24.1232L85.1968 25.5411L86.0386 24.1047L85.1759 23.5991ZM88.0559 18.6851V17.6851H87.4829L87.1931 18.1794L88.0559 18.6851ZM89.8919 18.6851L90.7433 19.2096L91.6824 17.6851H89.8919V18.6851ZM85.17 25.4909L89.022 31.7549L90.7257 30.7073L86.8737 24.4433L85.17 25.4909ZM89.8739 30.2311H88.0199V32.2311H89.8739V30.2311ZM88.8721 30.7079L85.8661 25.8119L84.1617 26.8583L87.1677 31.7543L88.8721 30.7079ZM84.1505 25.8304L81.2885 30.7264L83.0152 31.7357L85.8772 26.8397L84.1505 25.8304ZM82.1519 30.2311H80.3339V32.2311H82.1519V30.2311ZM81.1868 31.7531L85.0208 25.4891L83.3149 24.445L79.4809 30.709L81.1868 31.7531ZM85.0204 24.4443L81.1684 18.1623L79.4634 19.2078L83.3154 25.4898L85.0204 24.4443ZM80.3159 19.6851H82.1519V17.6851H80.3159V19.6851ZM81.3002 19.2092L84.3242 24.1232L86.0275 23.075L83.0035 18.161L81.3002 19.2092ZM86.0386 24.1047L88.9186 19.1907L87.1931 18.1794L84.3131 23.0934L86.0386 24.1047ZM88.0559 19.6851H89.8919V17.6851H88.0559V19.6851ZM89.0405 18.1606L85.1705 24.4426L86.8733 25.4916L90.7433 19.2096L89.0405 18.1606Z" fill="#443B3B"/>
<defs>
<filter id="filter0_d" x="3.68286" y="0.0126038" width="142.192" height="53.9874" filterUnits="userSpaceOnUse" color-interpolation-filters="sRGB">
<feFlood flood-opacity="0" result="BackgroundImageFix"/>
<feColorMatrix in="SourceAlpha" type="matrix" values="0 0 0 0 0 0 0 0 0 0 0 0 0 0 0 0 0 0 127 0"/>
<feOffset dy="4"/>
<feGaussianBlur stdDeviation="2"/>
<feColorMatrix type="matrix" values="0 0 0 0 0 0 0 0 0 0 0 0 0 0 0 0 0 0 0.25 0"/>
<feBlend mode="normal" in2="BackgroundImageFix" result="effect1_dropShadow"/>
<feBlend mode="normal" in="SourceGraphic" in2="effect1_dropShadow" result="shape"/>
</filter>
</defs>
</svg>
