<svg width="232" height="63" viewBox="0 0 232 63" fill="none" xmlns="http://www.w3.org/2000/svg">
<g filter="url(#filter0_d)">
<rect x="4" width="174" height="55" rx="27.5" fill="#F58A8A"/>
</g>
<path d="M156 29.0002C156 28.5879 155.745 28.2334 155.373 28.0474L128.893 14.1967C128.692 14.0688 128.452 14.0001 128.206 14C127.886 14 127.58 14.115 127.353 14.3198C127.127 14.5246 127 14.8024 127 15.0921C127 15.1344 127.009 15.1744 127.014 15.2152H127V43.0311H127.014C127.046 43.2971 127.186 43.543 127.406 43.7218C127.626 43.9005 127.91 43.9996 128.206 44C128.417 43.999 128.624 43.9473 128.806 43.85L128.817 43.8671L155.405 29.9594L155.394 29.9424C155.578 29.8475 155.731 29.7105 155.837 29.5451C155.943 29.3796 156 29.1917 156 29.0002Z" fill="#443B3B"/>
<path d="M31.224 26.384C31.832 26.48 32.384 26.728 32.88 27.128C33.392 27.528 33.792 28.024 34.08 28.616C34.384 29.208 34.536 29.84 34.536 30.512C34.536 31.36 34.32 32.128 33.888 32.816C33.456 33.488 32.824 34.024 31.992 34.424C31.176 34.808 30.208 35 29.088 35H22.848V18.272H28.848C29.984 18.272 30.952 18.464 31.752 18.848C32.552 19.216 33.152 19.72 33.552 20.36C33.952 21 34.152 21.72 34.152 22.52C34.152 23.512 33.88 24.336 33.336 24.992C32.808 25.632 32.104 26.096 31.224 26.384ZM25.032 25.496H28.704C29.728 25.496 30.52 25.256 31.08 24.776C31.64 24.296 31.92 23.632 31.92 22.784C31.92 21.936 31.64 21.272 31.08 20.792C30.52 20.312 29.712 20.072 28.656 20.072H25.032V25.496ZM28.896 33.2C29.984 33.2 30.832 32.944 31.44 32.432C32.048 31.92 32.352 31.208 32.352 30.296C32.352 29.368 32.032 28.64 31.392 28.112C30.752 27.568 29.896 27.296 28.824 27.296H25.032V33.2H28.896ZM42.8708 35.168C41.7668 35.168 40.7748 34.976 39.8948 34.592C39.0308 34.192 38.3508 33.648 37.8548 32.96C37.3588 32.256 37.1028 31.448 37.0868 30.536H39.4148C39.4948 31.32 39.8148 31.984 40.3748 32.528C40.9508 33.056 41.7828 33.32 42.8708 33.32C43.9108 33.32 44.7268 33.064 45.3188 32.552C45.9268 32.024 46.2308 31.352 46.2308 30.536C46.2308 29.896 46.0548 29.376 45.7028 28.976C45.3508 28.576 44.9108 28.272 44.3828 28.064C43.8548 27.856 43.1428 27.632 42.2468 27.392C41.1428 27.104 40.2548 26.816 39.5828 26.528C38.9268 26.24 38.3588 25.792 37.8788 25.184C37.4148 24.56 37.1828 23.728 37.1828 22.688C37.1828 21.776 37.4148 20.968 37.8788 20.264C38.3428 19.56 38.9908 19.016 39.8228 18.632C40.6708 18.248 41.6388 18.056 42.7268 18.056C44.2948 18.056 45.5748 18.448 46.5668 19.232C47.5748 20.016 48.1428 21.056 48.2708 22.352H45.8708C45.7908 21.712 45.4548 21.152 44.8628 20.672C44.2708 20.176 43.4868 19.928 42.5108 19.928C41.5988 19.928 40.8548 20.168 40.2788 20.648C39.7028 21.112 39.4148 21.768 39.4148 22.616C39.4148 23.224 39.5828 23.72 39.9188 24.104C40.2708 24.488 40.6948 24.784 41.1908 24.992C41.7028 25.184 42.4148 25.408 43.3268 25.664C44.4308 25.968 45.3188 26.272 45.9908 26.576C46.6628 26.864 47.2388 27.32 47.7188 27.944C48.1988 28.552 48.4388 29.384 48.4388 30.44C48.4388 31.256 48.2228 32.024 47.7908 32.744C47.3588 33.464 46.7188 34.048 45.8708 34.496C45.0228 34.944 44.0228 35.168 42.8708 35.168ZM56.9567 35.168C55.8527 35.168 54.8607 34.976 53.9807 34.592C53.1167 34.192 52.4367 33.648 51.9407 32.96C51.4447 32.256 51.1887 31.448 51.1727 30.536H53.5007C53.5807 31.32 53.9007 31.984 54.4607 32.528C55.0367 33.056 55.8687 33.32 56.9567 33.32C57.9967 33.32 58.8127 33.064 59.4047 32.552C60.0127 32.024 60.3167 31.352 60.3167 30.536C60.3167 29.896 60.1407 29.376 59.7887 28.976C59.4367 28.576 58.9967 28.272 58.4687 28.064C57.9407 27.856 57.2287 27.632 56.3327 27.392C55.2287 27.104 54.3407 26.816 53.6687 26.528C53.0127 26.24 52.4447 25.792 51.9647 25.184C51.5007 24.56 51.2687 23.728 51.2687 22.688C51.2687 21.776 51.5007 20.968 51.9647 20.264C52.4287 19.56 53.0767 19.016 53.9087 18.632C54.7567 18.248 55.7247 18.056 56.8127 18.056C58.3807 18.056 59.6607 18.448 60.6527 19.232C61.6607 20.016 62.2287 21.056 62.3567 22.352H59.9567C59.8767 21.712 59.5407 21.152 58.9487 20.672C58.3567 20.176 57.5727 19.928 56.5967 19.928C55.6847 19.928 54.9407 20.168 54.3647 20.648C53.7887 21.112 53.5007 21.768 53.5007 22.616C53.5007 23.224 53.6687 23.72 54.0047 24.104C54.3567 24.488 54.7807 24.784 55.2767 24.992C55.7887 25.184 56.5007 25.408 57.4127 25.664C58.5167 25.968 59.4047 26.272 60.0767 26.576C60.7487 26.864 61.3247 27.32 61.8047 27.944C62.2847 28.552 62.5247 29.384 62.5247 30.44C62.5247 31.256 62.3087 32.024 61.8767 32.744C61.4447 33.464 60.8047 34.048 59.9567 34.496C59.1087 34.944 58.1087 35.168 56.9567 35.168ZM79.5626 18.272L73.2506 35H70.7306L64.4186 18.272H66.7466L72.0026 32.696L77.2586 18.272H79.5626ZM88.7974 26.648L93.9334 35H91.4614L87.4534 28.472L83.6374 35H81.2134L86.3254 26.648L81.1894 18.272H83.6374L87.6694 24.824L91.5094 18.272H93.9574L88.7974 26.648ZM103.704 26.648L108.84 35H106.368L102.36 28.472L98.5436 35H96.1196L101.232 26.648L96.0956 18.272H98.5436L102.576 24.824L106.416 18.272H108.864L103.704 26.648Z" fill="#443B3B"/>
<path d="M31.224 26.384L30.913 25.4336L31.068 27.3718L31.224 26.384ZM32.88 27.128L32.2522 27.9064L32.2583 27.9113L32.2644 27.916L32.88 27.128ZM34.08 28.616L33.1808 29.0535L33.1855 29.0632L33.1904 29.0728L34.08 28.616ZM33.888 32.816L34.7292 33.3568L34.7349 33.3478L33.888 32.816ZM31.992 34.424L32.4178 35.3288L32.4253 35.3253L31.992 34.424ZM22.848 35H21.848V36H22.848V35ZM22.848 18.272V17.272H21.848V18.272H22.848ZM31.752 18.848L31.3193 19.7495L31.3267 19.7531L31.3341 19.7565L31.752 18.848ZM33.552 20.36L32.704 20.89L32.704 20.89L33.552 20.36ZM33.336 24.992L32.5662 24.3537L32.5646 24.3556L33.336 24.992ZM25.032 25.496H24.032V26.496H25.032V25.496ZM31.08 20.792L30.4292 21.5513L30.4292 21.5513L31.08 20.792ZM25.032 20.072V19.072H24.032V20.072H25.032ZM31.44 32.432L32.0841 33.1969H32.0841L31.44 32.432ZM31.392 28.112L30.7444 28.8739L30.75 28.8787L30.7556 28.8834L31.392 28.112ZM25.032 27.296V26.296H24.032V27.296H25.032ZM25.032 33.2H24.032V34.2H25.032V33.2ZM31.068 27.3718C31.4969 27.4395 31.8875 27.6122 32.2522 27.9064L33.5078 26.3496C32.8805 25.8438 32.1671 25.5205 31.38 25.3962L31.068 27.3718ZM32.2644 27.916C32.6547 28.221 32.9585 28.5965 33.1808 29.0535L34.9792 28.1785C34.6255 27.4515 34.1293 26.835 33.4956 26.34L32.2644 27.916ZM33.1904 29.0728C33.4211 29.522 33.536 29.9973 33.536 30.512H35.536C35.536 29.6827 35.3469 28.894 34.9696 28.1592L33.1904 29.0728ZM33.536 30.512C33.536 31.1805 33.3686 31.7627 33.0411 32.2842L34.7349 33.3478C35.2714 32.4933 35.536 31.5395 35.536 30.512H33.536ZM33.0468 32.2752C32.7296 32.7687 32.2504 33.1902 31.5587 33.5227L32.4253 35.3253C33.3976 34.8578 34.1824 34.2073 34.7292 33.3568L33.0468 32.2752ZM31.5662 33.5192C30.9116 33.8272 30.0955 34 29.088 34V36C30.3205 36 31.4404 35.7888 32.4178 35.3288L31.5662 33.5192ZM29.088 34H22.848V36H29.088V34ZM23.848 35V18.272H21.848V35H23.848ZM22.848 19.272H28.848V17.272H22.848V19.272ZM28.848 19.272C29.8748 19.272 30.6867 19.4459 31.3193 19.7495L32.1847 17.9465C31.2173 17.4821 30.0932 17.272 28.848 17.272V19.272ZM31.3341 19.7565C31.9871 20.0569 32.4237 20.4415 32.704 20.89L34.4 19.83C33.8803 18.9985 33.1169 18.3751 32.1699 17.9395L31.3341 19.7565ZM32.704 20.89C32.9986 21.3614 33.152 21.8957 33.152 22.52H35.152C35.152 21.5443 34.9054 20.6386 34.4 19.83L32.704 20.89ZM33.152 22.52C33.152 23.3191 32.9376 23.9058 32.5662 24.3537L34.1058 25.6303C34.8224 24.7662 35.152 23.7049 35.152 22.52H33.152ZM32.5646 24.3556C32.1709 24.8329 31.6344 25.1975 30.913 25.4336L31.535 27.3344C32.5736 26.9945 33.4451 26.4311 34.1074 25.6284L32.5646 24.3556ZM25.032 26.496H28.704V24.496H25.032V26.496ZM28.704 26.496C29.8744 26.496 30.93 26.2216 31.7308 25.5353L30.4292 24.0167C30.11 24.2904 29.5816 24.496 28.704 24.496V26.496ZM31.7308 25.5353C32.5469 24.8358 32.92 23.8753 32.92 22.784H30.92C30.92 23.3887 30.7331 23.7562 30.4292 24.0167L31.7308 25.5353ZM32.92 22.784C32.92 21.6927 32.5469 20.7322 31.7308 20.0327L30.4292 21.5513C30.7331 21.8118 30.92 22.1793 30.92 22.784H32.92ZM31.7308 20.0327C30.9251 19.3421 29.8493 19.072 28.656 19.072V21.072C29.5747 21.072 30.1149 21.2819 30.4292 21.5513L31.7308 20.0327ZM28.656 19.072H25.032V21.072H28.656V19.072ZM24.032 20.072V25.496H26.032V20.072H24.032ZM28.896 34.2C30.1329 34.2 31.239 33.9086 32.0841 33.1969L30.7959 31.6671C30.425 31.9794 29.8351 32.2 28.896 32.2V34.2ZM32.0841 33.1969C32.9524 32.4657 33.352 31.4544 33.352 30.296H31.352C31.352 30.9616 31.1436 31.3743 30.7959 31.6671L32.0841 33.1969ZM33.352 30.296C33.352 29.1094 32.9278 28.0826 32.0284 27.3406L30.7556 28.8834C31.1362 29.1974 31.352 29.6266 31.352 30.296H33.352ZM32.0396 27.3501C31.1735 26.6139 30.0661 26.296 28.824 26.296V28.296C29.7259 28.296 30.3305 28.5221 30.7444 28.8739L32.0396 27.3501ZM28.824 26.296H25.032V28.296H28.824V26.296ZM24.032 27.296V33.2H26.032V27.296H24.032ZM25.032 34.2H28.896V32.2H25.032V34.2ZM39.8948 34.592L39.4746 35.4995L39.4847 35.5041L39.4948 35.5085L39.8948 34.592ZM37.8547 32.96L37.0372 33.536L37.0436 33.5448L37.8547 32.96ZM37.0868 30.536V29.536H36.0691L36.0869 30.5535L37.0868 30.536ZM39.4148 30.536L40.4096 30.4345L40.3179 29.536H39.4148V30.536ZM40.3748 32.528L39.678 33.2453L39.6884 33.2554L39.699 33.2652L40.3748 32.528ZM45.3188 32.552L45.9729 33.3084L45.9744 33.307L45.3188 32.552ZM45.7028 28.976L44.952 29.6366L45.7028 28.976ZM44.3828 28.064L44.0162 28.9944L44.3828 28.064ZM42.2467 27.392L42.5055 26.426L42.4992 26.4244L42.2467 27.392ZM39.5828 26.528L39.1807 27.4437L39.1888 27.4471L39.5828 26.528ZM37.8787 25.184L37.0763 25.7807L37.0849 25.7923L37.0939 25.8036L37.8787 25.184ZM37.8787 20.264L38.7137 20.8143L37.8787 20.264ZM39.8228 18.632L39.4102 17.721L39.4037 17.724L39.8228 18.632ZM46.5667 19.232L45.9467 20.0166L45.9528 20.0214L46.5667 19.232ZM48.2708 22.352V23.352H49.3744L49.2659 22.2537L48.2708 22.352ZM45.8708 22.352L44.8785 22.476L44.988 23.352H45.8708V22.352ZM44.8628 20.672L44.2205 21.4385L44.2267 21.4437L44.2329 21.4488L44.8628 20.672ZM40.2787 20.648L40.9061 21.4268L40.9126 21.4215L40.9189 21.4162L40.2787 20.648ZM39.9188 24.104L39.1662 24.7625L39.1738 24.7712L39.1816 24.7797L39.9188 24.104ZM41.1908 24.992L40.804 25.9142L40.8217 25.9216L40.8396 25.9283L41.1908 24.992ZM43.3267 25.664L43.0565 26.6268L43.0613 26.6281L43.3267 25.664ZM45.9908 26.576L45.5786 27.4871L45.5877 27.4912L45.5968 27.4951L45.9908 26.576ZM47.7188 27.944L46.9261 28.5538L46.9339 28.5636L47.7188 27.944ZM47.7908 32.744L48.6482 33.2585L47.7908 32.744ZM45.8708 34.496L45.4036 33.6118L45.8708 34.496ZM42.8708 34.168C41.8839 34.168 41.031 33.9968 40.2947 33.6755L39.4948 35.5085C40.5185 35.9552 41.6496 36.168 42.8708 36.168V34.168ZM40.3149 33.6845C39.5873 33.3477 39.0496 32.9074 38.6659 32.3752L37.0436 33.5448C37.6519 34.3886 38.4742 35.0363 39.4746 35.4995L40.3149 33.6845ZM38.6722 32.384C38.2985 31.8537 38.0993 31.2428 38.0866 30.5185L36.0869 30.5535C36.1062 31.6532 36.419 32.6583 37.0373 33.536L38.6722 32.384ZM37.0868 31.536H39.4148V29.536H37.0868V31.536ZM38.4199 30.6375C38.5235 31.653 38.9476 32.5358 39.678 33.2453L41.0715 31.8107C40.6819 31.4322 40.466 30.987 40.4096 30.4345L38.4199 30.6375ZM39.699 33.2652C40.5211 34.0187 41.6311 34.32 42.8708 34.32V32.32C41.9344 32.32 41.3804 32.0933 41.0505 31.7908L39.699 33.2652ZM42.8708 34.32C44.071 34.32 45.1467 34.0229 45.9729 33.3084L44.6646 31.7956C44.3068 32.1051 43.7505 32.32 42.8708 32.32V34.32ZM45.9744 33.307C46.8045 32.5862 47.2308 31.6372 47.2308 30.536H45.2308C45.2308 31.0668 45.049 31.4618 44.6631 31.797L45.9744 33.307ZM47.2308 30.536C47.2308 29.7042 46.9971 28.9331 46.4535 28.3154L44.952 29.6366C45.1124 29.8189 45.2308 30.0878 45.2308 30.536H47.2308ZM46.4535 28.3154C45.9898 27.7885 45.4151 27.3959 44.7493 27.1336L44.0162 28.9944C44.4064 29.1481 44.7117 29.3635 44.952 29.6366L46.4535 28.3154ZM44.7493 27.1336C44.1711 26.9058 43.4183 26.6705 42.5055 26.4261L41.988 28.3579C42.8672 28.5935 43.5384 28.8062 44.0162 28.9944L44.7493 27.1336ZM42.4992 26.4244C41.4199 26.1428 40.5848 25.8695 39.9767 25.6089L39.1888 27.4471C39.9247 27.7625 40.8656 28.0652 41.9943 28.3596L42.4992 26.4244ZM39.9847 25.6124C39.4907 25.3955 39.0506 25.0545 38.6636 24.5644L37.0939 25.8036C37.6669 26.5295 38.3628 27.0845 39.1808 27.4436L39.9847 25.6124ZM38.6812 24.5873C38.3826 24.1857 38.1828 23.5849 38.1828 22.688H36.1827C36.1827 23.8711 36.4469 24.9343 37.0763 25.7807L38.6812 24.5873ZM38.1828 22.688C38.1828 21.9549 38.3662 21.3416 38.7137 20.8143L37.0438 19.7137C36.4633 20.5944 36.1827 21.5971 36.1827 22.688H38.1828ZM38.7137 20.8143C39.0663 20.2794 39.5638 19.8529 40.2418 19.54L39.4037 17.724C38.4177 18.1791 37.6192 18.8406 37.0438 19.7137L38.7137 20.8143ZM40.2353 19.543C40.9336 19.2267 41.7572 19.056 42.7268 19.056V17.056C41.5203 17.056 40.4079 17.2693 39.4102 17.721L40.2353 19.543ZM42.7268 19.056C44.1251 19.056 45.1703 19.4029 45.9467 20.0166L47.1868 18.4474C45.9792 17.4931 44.4644 17.056 42.7268 17.056V19.056ZM45.9528 20.0214C46.7396 20.6333 47.1739 21.421 47.2756 22.4503L49.2659 22.2537C49.1116 20.6909 48.4099 19.3987 47.1807 18.4426L45.9528 20.0214ZM48.2708 21.352H45.8708V23.352H48.2708V21.352ZM46.863 22.228C46.7453 21.286 46.2462 20.5063 45.4926 19.8952L44.2329 21.4488C44.6633 21.7977 44.8362 22.138 44.8785 22.476L46.863 22.228ZM45.505 19.9055C44.6896 19.2223 43.6581 18.928 42.5107 18.928V20.928C43.3154 20.928 43.8519 21.1297 44.2205 21.4385L45.505 19.9055ZM42.5107 18.928C41.4173 18.928 40.4309 19.2195 39.6386 19.8798L40.9189 21.4162C41.2786 21.1165 41.7802 20.928 42.5107 20.928V18.928ZM39.6514 19.8692C38.8035 20.5523 38.4148 21.5153 38.4148 22.616H40.4148C40.4148 22.0207 40.602 21.6717 40.9061 21.4268L39.6514 19.8692ZM38.4148 22.616C38.4148 23.4174 38.6412 24.1626 39.1662 24.7625L40.6713 23.4455C40.5243 23.2774 40.4148 23.0306 40.4148 22.616H38.4148ZM39.1816 24.7797C39.6344 25.2737 40.1792 25.6522 40.804 25.9142L41.5775 24.0698C41.2103 23.9158 40.9071 23.7023 40.6559 23.4283L39.1816 24.7797ZM40.8396 25.9283C41.3905 26.1349 42.1338 26.3678 43.0565 26.6268L43.597 24.7012C42.6957 24.4482 42.015 24.2331 41.5419 24.0557L40.8396 25.9283ZM43.0613 26.6281C44.1393 26.925 44.9724 27.2129 45.5786 27.4871L46.4029 25.6649C45.6651 25.3311 44.7222 25.011 43.5922 24.6999L43.0613 26.6281ZM45.5968 27.4951C46.0997 27.7106 46.5421 28.0545 46.9261 28.5537L48.5114 27.3343C47.9354 26.5855 47.2258 26.0174 46.3847 25.6569L45.5968 27.4951ZM46.9339 28.5636C47.2315 28.9407 47.4388 29.5279 47.4388 30.44H49.4388C49.4388 29.2401 49.166 28.1633 48.5036 27.3244L46.9339 28.5636ZM47.4388 30.44C47.4388 31.0693 47.2748 31.6602 46.9333 32.2295L48.6482 33.2585C49.1707 32.3878 49.4388 31.4427 49.4388 30.44H47.4388ZM46.9333 32.2295C46.6079 32.7717 46.1136 33.2367 45.4036 33.6118L46.3379 35.3802C47.3239 34.8593 48.1096 34.1563 48.6482 33.2585L46.9333 32.2295ZM45.4036 33.6118C44.7258 33.9699 43.8925 34.168 42.8708 34.168V36.168C44.153 36.168 45.3197 35.9181 46.3379 35.3802L45.4036 33.6118ZM53.9807 34.592L53.5606 35.4995L53.5706 35.5041L53.5807 35.5085L53.9807 34.592ZM51.9407 32.96L51.1232 33.536L51.1295 33.5448L51.9407 32.96ZM51.1727 30.536V29.536H50.155L50.1728 30.5535L51.1727 30.536ZM53.5007 30.536L54.4955 30.4345L54.4038 29.536H53.5007V30.536ZM54.4607 32.528L53.7639 33.2453L53.7743 33.2554L53.785 33.2652L54.4607 32.528ZM59.4047 32.552L60.0588 33.3084L60.0604 33.307L59.4047 32.552ZM59.7887 28.976L59.038 29.6366L59.7887 28.976ZM58.4687 28.064L58.1022 28.9944L58.4687 28.064ZM56.3327 27.392L56.5914 26.426L56.5851 26.4244L56.3327 27.392ZM53.6687 26.528L53.2667 27.4437L53.2748 27.4471L53.6687 26.528ZM51.9647 25.184L51.1622 25.7807L51.1708 25.7923L51.1798 25.8036L51.9647 25.184ZM51.9647 20.264L52.7996 20.8143L51.9647 20.264ZM53.9087 18.632L53.4962 17.721L53.4896 17.724L53.9087 18.632ZM60.6527 19.232L60.0326 20.0166L60.0387 20.0214L60.6527 19.232ZM62.3567 22.352V23.352H63.4603L63.3518 22.2537L62.3567 22.352ZM59.9567 22.352L58.9644 22.476L59.0739 23.352H59.9567V22.352ZM58.9487 20.672L58.3065 21.4385L58.3126 21.4437L58.3189 21.4488L58.9487 20.672ZM54.3647 20.648L54.992 21.4268L54.9985 21.4215L55.0049 21.4162L54.3647 20.648ZM54.0047 24.104L53.2521 24.7625L53.2597 24.7712L53.2675 24.7797L54.0047 24.104ZM55.2767 24.992L54.89 25.9142L54.9076 25.9216L54.9256 25.9283L55.2767 24.992ZM57.4127 25.664L57.1424 26.6268L57.1472 26.6281L57.4127 25.664ZM60.0767 26.576L59.6645 27.4871L59.6736 27.4912L59.6828 27.4951L60.0767 26.576ZM61.8047 27.944L61.012 28.5538L61.0198 28.5636L61.8047 27.944ZM61.8767 32.744L62.7342 33.2585L61.8767 32.744ZM59.9567 34.496L59.4896 33.6118L59.9567 34.496ZM56.9567 34.168C55.9698 34.168 55.117 33.9968 54.3806 33.6755L53.5807 35.5085C54.6044 35.9552 55.7355 36.168 56.9567 36.168V34.168ZM54.4008 33.6845C53.6732 33.3477 53.1356 32.9074 52.7519 32.3752L51.1295 33.5448C51.7378 34.3886 52.5601 35.0363 53.5606 35.4995L54.4008 33.6845ZM52.7582 32.384C52.3845 31.8537 52.1852 31.2428 52.1725 30.5185L50.1728 30.5535C50.1921 31.6532 50.5049 32.6583 51.1232 33.536L52.7582 32.384ZM51.1727 31.536H53.5007V29.536H51.1727V31.536ZM52.5059 30.6375C52.6095 31.653 53.0335 32.5358 53.7639 33.2453L55.1575 31.8107C54.7679 31.4322 54.5519 30.987 54.4955 30.4345L52.5059 30.6375ZM53.785 33.2652C54.607 34.0187 55.7171 34.32 56.9567 34.32V32.32C56.0203 32.32 55.4663 32.0933 55.1364 31.7908L53.785 33.2652ZM56.9567 34.32C58.157 34.32 59.2326 34.0229 60.0588 33.3084L58.7505 31.7956C58.3928 32.1051 57.8364 32.32 56.9567 32.32V34.32ZM60.0604 33.307C60.8904 32.5862 61.3167 31.6372 61.3167 30.536H59.3167C59.3167 31.0668 59.135 31.4618 58.749 31.797L60.0604 33.307ZM61.3167 30.536C61.3167 29.7042 61.083 28.9331 60.5394 28.3154L59.038 29.6366C59.1983 29.8189 59.3167 30.0878 59.3167 30.536H61.3167ZM60.5394 28.3154C60.0758 27.7885 59.501 27.3959 58.8352 27.1336L58.1022 28.9944C58.4924 29.1481 58.7976 29.3635 59.038 29.6366L60.5394 28.3154ZM58.8352 27.1336C58.257 26.9058 57.5042 26.6705 56.5914 26.4261L56.074 28.3579C56.9532 28.5935 57.6244 28.8062 58.1022 28.9944L58.8352 27.1336ZM56.5851 26.4244C55.5059 26.1428 54.6707 25.8695 54.0626 25.6089L53.2748 27.4471C54.0106 27.7625 54.9515 28.0652 56.0803 28.3596L56.5851 26.4244ZM54.0707 25.6124C53.5766 25.3955 53.1366 25.0545 52.7496 24.5644L51.1798 25.8036C51.7528 26.5295 52.4487 27.0845 53.2667 27.4436L54.0707 25.6124ZM52.7672 24.5873C52.4685 24.1857 52.2687 23.5849 52.2687 22.688H50.2687C50.2687 23.8711 50.5328 24.9343 51.1622 25.7807L52.7672 24.5873ZM52.2687 22.688C52.2687 21.9549 52.4521 21.3416 52.7996 20.8143L51.1297 19.7137C50.5492 20.5944 50.2687 21.5971 50.2687 22.688H52.2687ZM52.7996 20.8143C53.1522 20.2794 53.6498 19.8529 54.3277 19.54L53.4896 17.724C52.5036 18.1791 51.7052 18.8406 51.1297 19.7137L52.7996 20.8143ZM54.3212 19.543C55.0195 19.2267 55.8432 19.056 56.8127 19.056V17.056C55.6062 17.056 54.4938 17.2693 53.4962 17.721L54.3212 19.543ZM56.8127 19.056C58.211 19.056 59.2562 19.4029 60.0326 20.0166L61.2727 18.4474C60.0652 17.4931 58.5504 17.056 56.8127 17.056V19.056ZM60.0387 20.0214C60.8255 20.6333 61.2599 21.421 61.3615 22.4503L63.3518 22.2537C63.1975 20.6909 62.4959 19.3987 61.2666 18.4426L60.0387 20.0214ZM62.3567 21.352H59.9567V23.352H62.3567V21.352ZM60.949 22.228C60.8312 21.286 60.3321 20.5063 59.5785 19.8952L58.3189 21.4488C58.7493 21.7977 58.9222 22.138 58.9644 22.476L60.949 22.228ZM59.5909 19.9055C58.7756 19.2223 57.744 18.928 56.5967 18.928V20.928C57.4014 20.928 57.9378 21.1297 58.3065 21.4385L59.5909 19.9055ZM56.5967 18.928C55.5033 18.928 54.5168 19.2195 53.7245 19.8798L55.0049 21.4162C55.3646 21.1165 55.8661 20.928 56.5967 20.928V18.928ZM53.7374 19.8692C52.8894 20.5523 52.5007 21.5153 52.5007 22.616H54.5007C54.5007 22.0207 54.688 21.6717 54.992 21.4268L53.7374 19.8692ZM52.5007 22.616C52.5007 23.4174 52.7272 24.1626 53.2521 24.7625L54.7573 23.4455C54.6102 23.2774 54.5007 23.0306 54.5007 22.616H52.5007ZM53.2675 24.7797C53.7204 25.2737 54.2652 25.6522 54.89 25.9142L55.6634 24.0698C55.2962 23.9158 54.993 23.7023 54.7418 23.4283L53.2675 24.7797ZM54.9256 25.9283C55.4765 26.1349 56.2197 26.3678 57.1424 26.6268L57.6829 24.7012C56.7816 24.4482 56.1009 24.2331 55.6278 24.0557L54.9256 25.9283ZM57.1472 26.6281C58.2252 26.925 59.0584 27.2129 59.6645 27.4871L60.4889 25.6649C59.751 25.3311 58.8082 25.011 57.6782 24.6999L57.1472 26.6281ZM59.6828 27.4951C60.1856 27.7106 60.6281 28.0545 61.0121 28.5537L62.5973 27.3343C62.0213 26.5855 61.3118 26.0174 60.4706 25.6569L59.6828 27.4951ZM61.0198 28.5636C61.3175 28.9407 61.5247 29.5279 61.5247 30.44H63.5247C63.5247 29.2401 63.2519 28.1633 62.5896 27.3244L61.0198 28.5636ZM61.5247 30.44C61.5247 31.0693 61.3608 31.6602 61.0192 32.2295L62.7342 33.2585C63.2566 32.3878 63.5247 31.4427 63.5247 30.44H61.5247ZM61.0192 32.2295C60.6939 32.7717 60.1996 33.2367 59.4896 33.6118L60.4238 35.3802C61.4098 34.8593 62.1955 34.1563 62.7342 33.2585L61.0192 32.2295ZM59.4896 33.6118C58.8118 33.9699 57.9784 34.168 56.9567 34.168V36.168C58.239 36.168 59.4056 35.9181 60.4238 35.3802L59.4896 33.6118ZM79.5626 18.272L80.4982 18.625L81.0088 17.272H79.5626V18.272ZM73.2506 35V36H73.9421L74.1862 35.353L73.2506 35ZM70.7306 35L69.795 35.353L70.0391 36H70.7306V35ZM64.4186 18.272V17.272H62.9725L63.483 18.625L64.4186 18.272ZM66.7466 18.272L67.6862 17.9296L67.4466 17.272H66.7466V18.272ZM72.0026 32.696L71.0631 33.0384L72.0026 35.6168L72.9422 33.0384L72.0026 32.696ZM77.2586 18.272V17.272H76.5587L76.3191 17.9296L77.2586 18.272ZM78.627 17.919L72.315 34.647L74.1862 35.353L80.4982 18.625L78.627 17.919ZM73.2506 34H70.7306V36H73.2506V34ZM71.6662 34.647L65.3542 17.919L63.483 18.625L69.795 35.353L71.6662 34.647ZM64.4186 19.272H66.7466V17.272H64.4186V19.272ZM65.8071 18.6144L71.0631 33.0384L72.9422 32.3536L67.6862 17.9296L65.8071 18.6144ZM72.9422 33.0384L78.1982 18.6144L76.3191 17.9296L71.0631 32.3536L72.9422 33.0384ZM77.2586 19.272H79.5626V17.272H77.2586V19.272ZM88.7974 26.648L87.946 26.1235L87.6231 26.6475L87.9455 27.1718L88.7974 26.648ZM93.9334 35V36H95.7223L94.7852 34.4762L93.9334 35ZM91.4614 35L90.6092 35.5232L90.9019 36H91.4614V35ZM87.4534 28.472L88.3056 27.9488L87.4323 26.5265L86.5901 27.9673L87.4534 28.472ZM83.6374 35V36H84.2111L84.5007 35.5047L83.6374 35ZM81.2134 35L80.3605 34.478L79.4289 36H81.2134V35ZM86.3254 26.648L87.1783 27.17L87.4981 26.6475L87.1779 26.1253L86.3254 26.648ZM81.1894 18.272V17.272H79.4032L80.3369 18.7947L81.1894 18.272ZM83.6374 18.272L84.489 17.7479L84.1962 17.272H83.6374V18.272ZM87.6694 24.824L86.8177 25.3481L87.6903 26.766L88.5321 25.3296L87.6694 24.824ZM91.5094 18.272V17.272H90.9364L90.6466 17.7664L91.5094 18.272ZM93.9574 18.272L94.8088 18.7965L95.7479 17.272H93.9574V18.272ZM87.9455 27.1718L93.0816 35.5238L94.7852 34.4762L89.6492 26.1242L87.9455 27.1718ZM93.9334 34H91.4614V36H93.9334V34ZM92.3136 34.4768L88.3056 27.9488L86.6012 28.9952L90.6092 35.5232L92.3136 34.4768ZM86.5901 27.9673L82.7741 34.4953L84.5007 35.5047L88.3167 28.9767L86.5901 27.9673ZM83.6374 34H81.2134V36H83.6374V34ZM82.0663 35.522L87.1783 27.17L85.4725 26.126L80.3605 34.478L82.0663 35.522ZM87.1779 26.1253L82.0419 17.7493L80.3369 18.7947L85.4729 27.1707L87.1779 26.1253ZM81.1894 19.272H83.6374V17.272H81.1894V19.272ZM82.7857 18.7961L86.8177 25.3481L88.521 24.2999L84.489 17.7479L82.7857 18.7961ZM88.5321 25.3296L92.3721 18.7776L90.6466 17.7664L86.8066 24.3184L88.5321 25.3296ZM91.5094 19.272H93.9574V17.272H91.5094V19.272ZM93.106 17.7475L87.946 26.1235L89.6488 27.1725L94.8088 18.7965L93.106 17.7475ZM103.704 26.648L102.852 26.1235L102.529 26.6475L102.852 27.1718L103.704 26.648ZM108.84 35V36H110.629L109.691 34.4762L108.84 35ZM106.368 35L105.515 35.5232L105.808 36H106.368V35ZM102.36 28.472L103.212 27.9488L102.339 26.5265L101.496 27.9673L102.36 28.472ZM98.5436 35V36H99.1174L99.4069 35.5047L98.5436 35ZM96.1196 35L95.2667 34.478L94.3351 36H96.1196V35ZM101.232 26.648L102.085 27.17L102.404 26.6475L102.084 26.1253L101.232 26.648ZM96.0956 18.272V17.272H94.3094L95.2431 18.7947L96.0956 18.272ZM98.5436 18.272L99.3953 17.7479L99.1024 17.272H98.5436V18.272ZM102.576 24.824L101.724 25.3481L102.597 26.766L103.438 25.3296L102.576 24.824ZM106.416 18.272V17.272H105.843L105.553 17.7664L106.416 18.272ZM108.864 18.272L109.715 18.7965L110.654 17.272H108.864V18.272ZM102.852 27.1718L107.988 35.5238L109.691 34.4762L104.555 26.1242L102.852 27.1718ZM108.84 34H106.368V36H108.84V34ZM107.22 34.4768L103.212 27.9488L101.507 28.9952L105.515 35.5232L107.22 34.4768ZM101.496 27.9673L97.6803 34.4953L99.4069 35.5047L103.223 28.9767L101.496 27.9673ZM98.5436 34H96.1196V36H98.5436V34ZM96.9725 35.522L102.085 27.17L100.379 26.126L95.2667 34.478L96.9725 35.522ZM102.084 26.1253L96.9481 17.7493L95.2431 18.7947L100.379 27.1707L102.084 26.1253ZM96.0956 19.272H98.5436V17.272H96.0956V19.272ZM97.692 18.7961L101.724 25.3481L103.427 24.2999L99.3953 17.7479L97.692 18.7961ZM103.438 25.3296L107.278 18.7776L105.553 17.7664L101.713 24.3184L103.438 25.3296ZM106.416 19.272H108.864V17.272H106.416V19.272ZM108.012 17.7475L102.852 26.1235L104.555 27.1725L109.715 18.7965L108.012 17.7475Z" fill="#443B3B"/>
<defs>
<filter id="filter0_d" x="0" y="0" width="182" height="63" filterUnits="userSpaceOnUse" color-interpolation-filters="sRGB">
<feFlood flood-opacity="0" result="BackgroundImageFix"/>
<feColorMatrix in="SourceAlpha" type="matrix" values="0 0 0 0 0 0 0 0 0 0 0 0 0 0 0 0 0 0 127 0"/>
<feOffset dy="4"/>
<feGaussianBlur stdDeviation="2"/>
<feColorMatrix type="matrix" values="0 0 0 0 0 0 0 0 0 0 0 0 0 0 0 0 0 0 0.25 0"/>
<feBlend mode="normal" in2="BackgroundImageFix" result="effect1_dropShadow"/>
<feBlend mode="normal" in="SourceGraphic" in2="effect1_dropShadow" result="shape"/>
</filter>
</defs>
</svg>
