<svg width="343" height="75" viewBox="0 0 182 63" fill="none" xmlns="http://www.w3.org/2000/svg">
<g filter="url(#filter0_d)">
<rect x="4" width="174" height="55" rx="27.5" fill="#F58A8A"/>
</g>
<path d="M28.668 25.538C29.124 25.61 29.538 25.796 29.91 26.096C30.294 26.396 30.594 26.768 30.81 27.212C31.038 27.656 31.152 28.13 31.152 28.634C31.152 29.27 30.99 29.846 30.666 30.362C30.342 30.866 29.868 31.268 29.244 31.568C28.632 31.856 27.906 32 27.066 32H22.386V19.454H26.886C27.738 19.454 28.464 19.598 29.064 19.886C29.664 20.162 30.114 20.54 30.414 21.02C30.714 21.5 30.864 22.04 30.864 22.64C30.864 23.384 30.66 24.002 30.252 24.494C29.856 24.974 29.328 25.322 28.668 25.538ZM24.024 24.872H26.778C27.546 24.872 28.14 24.692 28.56 24.332C28.98 23.972 29.19 23.474 29.19 22.838C29.19 22.202 28.98 21.704 28.56 21.344C28.14 20.984 27.534 20.804 26.742 20.804H24.024V24.872ZM26.922 30.65C27.738 30.65 28.374 30.458 28.83 30.074C29.286 29.69 29.514 29.156 29.514 28.472C29.514 27.776 29.274 27.23 28.794 26.834C28.314 26.426 27.672 26.222 26.868 26.222H24.024V30.65H26.922ZM37.4031 32.126C36.5751 32.126 35.8311 31.982 35.1711 31.694C34.5231 31.394 34.0131 30.986 33.6411 30.47C33.2691 29.942 33.0771 29.336 33.0651 28.652H34.8111C34.8711 29.24 35.1111 29.738 35.5311 30.146C35.9631 30.542 36.5871 30.74 37.4031 30.74C38.1831 30.74 38.7951 30.548 39.2391 30.164C39.6951 29.768 39.9231 29.264 39.9231 28.652C39.9231 28.172 39.7911 27.782 39.5271 27.482C39.2631 27.182 38.9331 26.954 38.5371 26.798C38.1411 26.642 37.6071 26.474 36.9351 26.294C36.1071 26.078 35.4411 25.862 34.9371 25.646C34.4451 25.43 34.0191 25.094 33.6591 24.638C33.3111 24.17 33.1371 23.546 33.1371 22.766C33.1371 22.082 33.3111 21.476 33.6591 20.948C34.0071 20.42 34.4931 20.012 35.1171 19.724C35.7531 19.436 36.4791 19.292 37.2951 19.292C38.4711 19.292 39.4311 19.586 40.1751 20.174C40.9311 20.762 41.3571 21.542 41.4531 22.514H39.6531C39.5931 22.034 39.3411 21.614 38.8971 21.254C38.4531 20.882 37.8651 20.696 37.1331 20.696C36.4491 20.696 35.8911 20.876 35.4591 21.236C35.0271 21.584 34.8111 22.076 34.8111 22.712C34.8111 23.168 34.9371 23.54 35.1891 23.828C35.4531 24.116 35.7711 24.338 36.1431 24.494C36.5271 24.638 37.0611 24.806 37.7451 24.998C38.5731 25.226 39.2391 25.454 39.7431 25.682C40.2471 25.898 40.6791 26.24 41.0391 26.708C41.3991 27.164 41.5791 27.788 41.5791 28.58C41.5791 29.192 41.4171 29.768 41.0931 30.308C40.7691 30.848 40.2891 31.286 39.6531 31.622C39.0171 31.958 38.2671 32.126 37.4031 32.126ZM54.3575 19.454L49.6235 32H47.7335L42.9995 19.454H44.7455L48.6875 30.272L52.6295 19.454H54.3575ZM66.5216 19.454L61.7876 32H59.8976L55.1636 19.454H56.9096L60.8516 30.272L64.7936 19.454H66.5216ZM76.0396 19.454V20.786H72.6196V32H70.9816V20.786H67.5436V19.454H76.0396ZM84.3379 25.538C84.7939 25.61 85.2079 25.796 85.5799 26.096C85.9639 26.396 86.2639 26.768 86.4799 27.212C86.7079 27.656 86.8219 28.13 86.8219 28.634C86.8219 29.27 86.6599 29.846 86.3359 30.362C86.0119 30.866 85.5379 31.268 84.9139 31.568C84.3019 31.856 83.5759 32 82.7359 32H78.0559V19.454H82.5559C83.4079 19.454 84.1339 19.598 84.7339 19.886C85.3339 20.162 85.7839 20.54 86.0839 21.02C86.3839 21.5 86.5339 22.04 86.5339 22.64C86.5339 23.384 86.3299 24.002 85.9219 24.494C85.5259 24.974 84.9979 25.322 84.3379 25.538ZM79.6939 24.872H82.4479C83.2159 24.872 83.8099 24.692 84.2299 24.332C84.6499 23.972 84.8599 23.474 84.8599 22.838C84.8599 22.202 84.6499 21.704 84.2299 21.344C83.8099 20.984 83.2039 20.804 82.4119 20.804H79.6939V24.872ZM82.5919 30.65C83.4079 30.65 84.0439 30.458 84.4999 30.074C84.9559 29.69 85.1839 29.156 85.1839 28.472C85.1839 27.776 84.9439 27.23 84.4639 26.834C83.9839 26.426 83.3419 26.222 82.5379 26.222H79.6939V30.65H82.5919ZM95.377 25.538C95.833 25.61 96.247 25.796 96.619 26.096C97.003 26.396 97.303 26.768 97.519 27.212C97.747 27.656 97.861 28.13 97.861 28.634C97.861 29.27 97.699 29.846 97.375 30.362C97.051 30.866 96.577 31.268 95.953 31.568C95.341 31.856 94.615 32 93.775 32H89.095V19.454H93.595C94.447 19.454 95.173 19.598 95.773 19.886C96.373 20.162 96.823 20.54 97.123 21.02C97.423 21.5 97.573 22.04 97.573 22.64C97.573 23.384 97.369 24.002 96.961 24.494C96.565 24.974 96.037 25.322 95.377 25.538ZM90.733 24.872H93.487C94.255 24.872 94.849 24.692 95.269 24.332C95.689 23.972 95.899 23.474 95.899 22.838C95.899 22.202 95.689 21.704 95.269 21.344C94.849 20.984 94.243 20.804 93.451 20.804H90.733V24.872ZM93.631 30.65C94.447 30.65 95.083 30.458 95.539 30.074C95.995 29.69 96.223 29.156 96.223 28.472C96.223 27.776 95.983 27.23 95.503 26.834C95.023 26.426 94.381 26.222 93.577 26.222H90.733V30.65H93.631ZM110.502 19.454L105.768 32H103.878L99.144 19.454H100.89L104.832 30.272L108.774 19.454H110.502Z" fill="#443B3B"/>
<path d="M28.668 25.538L28.357 24.5876L28.512 26.5258L28.668 25.538ZM29.91 26.096L29.2822 26.8744L29.2883 26.8793L29.2944 26.884L29.91 26.096ZM30.81 27.212L29.9108 27.6495L29.9155 27.6592L29.9204 27.6688L30.81 27.212ZM30.666 30.362L31.5072 30.9028L31.5129 30.8938L30.666 30.362ZM29.244 31.568L29.6698 32.4729L29.6773 32.4693L29.244 31.568ZM22.386 32H21.386V33H22.386V32ZM22.386 19.454V18.454H21.386V19.454H22.386ZM29.064 19.886L28.6313 20.7875L28.6387 20.7911L28.6461 20.7945L29.064 19.886ZM30.414 21.02L29.566 21.55L29.566 21.55L30.414 21.02ZM30.252 24.494L29.4822 23.8557L29.4806 23.8576L30.252 24.494ZM24.024 24.872H23.024V25.872H24.024V24.872ZM28.56 21.344L27.9092 22.1033L27.9092 22.1033L28.56 21.344ZM24.024 20.804V19.804H23.024V20.804H24.024ZM28.83 30.074L29.4741 30.8389L28.83 30.074ZM28.794 26.834L28.1464 27.5959L28.152 27.6007L28.1576 27.6054L28.794 26.834ZM24.024 26.222V25.222H23.024V26.222H24.024ZM24.024 30.65H23.024V31.65H24.024V30.65ZM28.512 26.5258C28.7889 26.5695 29.0415 26.6802 29.2822 26.8744L30.5378 25.3176C30.0345 24.9118 29.4591 24.6505 28.824 24.5502L28.512 26.5258ZM29.2944 26.884C29.5567 27.089 29.7605 27.3405 29.9108 27.6495L31.7092 26.7745C31.4275 26.1955 31.0313 25.703 30.5256 25.308L29.2944 26.884ZM29.9204 27.6688C30.0751 27.97 30.152 28.2873 30.152 28.634H32.152C32.152 27.9727 32.0009 27.342 31.6996 26.7552L29.9204 27.6688ZM30.152 28.634C30.152 29.0905 30.0386 29.4807 29.8191 29.8302L31.5129 30.8938C31.9414 30.2113 32.152 29.4495 32.152 28.634H30.152ZM29.8248 29.8212C29.6156 30.1467 29.2944 30.4342 28.8107 30.6667L29.6773 32.4693C30.4416 32.1018 31.0684 31.5853 31.5072 30.9028L29.8248 29.8212ZM28.8182 30.6632C28.3676 30.8752 27.7935 31 27.066 31V33C28.0185 33 28.8964 32.8368 29.6698 32.4728L28.8182 30.6632ZM27.066 31H22.386V33H27.066V31ZM23.386 32V19.454H21.386V32H23.386ZM22.386 20.454H26.886V18.454H22.386V20.454ZM26.886 20.454C27.6288 20.454 28.1987 20.5799 28.6313 20.7875L29.4967 18.9845C28.7293 18.6161 27.8472 18.454 26.886 18.454V20.454ZM28.6461 20.7945C29.0991 21.0029 29.3857 21.2615 29.566 21.55L31.262 20.49C30.8423 19.8185 30.2289 19.3211 29.4819 18.9775L28.6461 20.7945ZM29.566 21.55C29.7606 21.8614 29.864 22.2157 29.864 22.64H31.864C31.864 21.8643 31.6674 21.1386 31.262 20.49L29.566 21.55ZM29.864 22.64C29.864 23.1911 29.7177 23.5718 29.4822 23.8557L31.0218 25.1323C31.6024 24.4322 31.864 23.5769 31.864 22.64H29.864ZM29.4806 23.8576C29.2189 24.1749 28.8584 24.4235 28.357 24.5876L28.979 26.4884C29.7976 26.2205 30.4931 25.7731 31.0234 25.1304L29.4806 23.8576ZM24.024 25.872H26.778V23.872H24.024V25.872ZM26.778 25.872C27.6924 25.872 28.55 25.6576 29.2108 25.0913L27.9092 23.5727C27.73 23.7264 27.3996 23.872 26.778 23.872V25.872ZM29.2108 25.0913C29.8869 24.5118 30.19 23.7173 30.19 22.838H28.19C28.19 23.2307 28.0731 23.4322 27.9092 23.5727L29.2108 25.0913ZM30.19 22.838C30.19 21.9587 29.8869 21.1642 29.2108 20.5847L27.9092 22.1033C28.0731 22.2438 28.19 22.4453 28.19 22.838H30.19ZM29.2108 20.5847C28.5451 20.0141 27.6713 19.804 26.742 19.804V21.804C27.3967 21.804 27.7349 21.9539 27.9092 22.1033L29.2108 20.5847ZM26.742 19.804H24.024V21.804H26.742V19.804ZM23.024 20.804V24.872H25.024V20.804H23.024ZM26.922 31.65C27.8869 31.65 28.781 31.4226 29.4741 30.8389L28.1859 29.3091C27.967 29.4934 27.5891 29.65 26.922 29.65V31.65ZM29.4741 30.8389C30.1904 30.2357 30.514 29.4024 30.514 28.472H28.514C28.514 28.9096 28.3816 29.1443 28.1859 29.3091L29.4741 30.8389ZM30.514 28.472C30.514 27.5174 30.1698 26.6726 29.4304 26.0626L28.1576 27.6054C28.3782 27.7874 28.514 28.0346 28.514 28.472H30.514ZM29.4416 26.0721C28.7355 25.4719 27.8421 25.222 26.868 25.222V27.222C27.5019 27.222 27.8925 27.3801 28.1464 27.5959L29.4416 26.0721ZM26.868 25.222H24.024V27.222H26.868V25.222ZM23.024 26.222V30.65H25.024V26.222H23.024ZM24.024 31.65H26.922V29.65H24.024V31.65ZM35.1711 31.694L34.7509 32.6015L34.761 32.6061L34.7711 32.6105L35.1711 31.694ZM33.6411 30.47L32.8235 31.046L32.8299 31.0548L33.6411 30.47ZM33.0651 28.652V27.652H32.0474L32.0652 28.6695L33.0651 28.652ZM34.8111 28.652L35.8059 28.5505L35.7142 27.652H34.8111V28.652ZM35.5311 30.146L34.8343 30.8633L34.8447 30.8734L34.8553 30.8832L35.5311 30.146ZM39.2391 30.164L39.8932 30.9204L39.8947 30.919L39.2391 30.164ZM39.5271 27.482L38.7763 28.1426H38.7764L39.5271 27.482ZM38.5371 26.798L38.1705 27.7284L38.1705 27.7284L38.5371 26.798ZM36.9351 26.294L37.1938 25.328L37.1875 25.3264L36.9351 26.294ZM34.9371 25.646L34.5351 26.5617L34.5431 26.5651L34.9371 25.646ZM33.6591 24.638L32.8566 25.2347L32.8652 25.2463L32.8742 25.2576L33.6591 24.638ZM33.6591 20.948L34.494 21.4983H34.494L33.6591 20.948ZM35.1171 19.724L34.7045 18.813L34.698 18.816L35.1171 19.724ZM40.1751 20.174L39.555 20.9586L39.5611 20.9634L40.1751 20.174ZM41.4531 22.514V23.514H42.5567L42.4482 22.4157L41.4531 22.514ZM39.6531 22.514L38.6608 22.638L38.7703 23.514H39.6531V22.514ZM38.8971 21.254L38.2548 22.0205L38.261 22.0257L38.2673 22.0308L38.8971 21.254ZM35.4591 21.236L36.0864 22.0148L36.0929 22.0095L36.0992 22.0042L35.4591 21.236ZM35.1891 23.828L34.4365 24.4865L34.4441 24.4952L34.4519 24.5037L35.1891 23.828ZM36.1431 24.494L35.7563 25.4162L35.774 25.4236L35.7919 25.4303L36.1431 24.494ZM37.7451 24.998L37.4748 25.9608L37.4796 25.9621L37.7451 24.998ZM39.7431 25.682L39.3309 26.5931L39.34 26.5972L39.3491 26.6011L39.7431 25.682ZM41.0391 26.708L40.2464 27.3178L40.2542 27.3276L41.0391 26.708ZM41.0931 30.308L41.9506 30.8225L41.0931 30.308ZM39.6531 31.622L39.1859 30.7378L39.6531 31.622ZM37.4031 31.126C36.6922 31.126 36.0873 31.0028 35.571 30.7775L34.7711 32.6105C35.5748 32.9612 36.4579 33.126 37.4031 33.126V31.126ZM35.5912 30.7865C35.0796 30.5497 34.7119 30.2454 34.4522 29.8852L32.8299 31.0548C33.3142 31.7266 33.9665 32.2383 34.7509 32.6015L35.5912 30.7865ZM34.4585 29.894C34.2089 29.5397 34.0736 29.1308 34.0649 28.6345L32.0652 28.6695C32.0805 29.5412 32.3293 30.3443 32.8236 31.046L34.4585 29.894ZM33.0651 29.652H34.8111V27.652H33.0651V29.652ZM33.8162 28.7535C33.8999 29.573 34.2439 30.2898 34.8343 30.8633L36.2278 29.4287C35.9782 29.1862 35.8423 28.907 35.8059 28.5505L33.8162 28.7535ZM34.8553 30.8832C35.5334 31.5047 36.4354 31.74 37.4031 31.74V29.74C36.7387 29.74 36.3927 29.5793 36.2068 29.4088L34.8553 30.8832ZM37.4031 31.74C38.3433 31.74 39.215 31.5069 39.8932 30.9204L38.5849 29.4076C38.3751 29.5891 38.0228 29.74 37.4031 29.74V31.74ZM39.8947 30.919C40.5728 30.3302 40.9231 29.5492 40.9231 28.652H38.9231C38.9231 28.9788 38.8173 29.2058 38.5834 29.409L39.8947 30.919ZM40.9231 28.652C40.9231 27.9802 40.7334 27.3391 40.2778 26.8214L38.7764 28.1426C38.8487 28.2249 38.9231 28.3638 38.9231 28.652H40.9231ZM40.2778 26.8214C39.9021 26.3945 39.4374 26.0779 38.9036 25.8676L38.1705 27.7284C38.4287 27.8301 38.624 27.9695 38.7763 28.1426L40.2778 26.8214ZM38.9036 25.8676C38.4574 25.6918 37.8826 25.5125 37.1938 25.3281L36.6763 27.2599C37.3315 27.4355 37.8247 27.5922 38.1705 27.7284L38.9036 25.8676ZM37.1875 25.3264C36.3842 25.1168 35.7711 24.9155 35.331 24.7269L34.5431 26.5651C35.111 26.8085 35.8299 27.0392 36.6826 27.2616L37.1875 25.3264ZM35.3391 24.7304C35.009 24.5855 34.7109 24.3565 34.4439 24.0184L32.8742 25.2576C33.3272 25.8315 33.8811 26.2745 34.5351 26.5616L35.3391 24.7304ZM34.4615 24.0413C34.2789 23.7957 34.1371 23.4029 34.1371 22.766H32.1371C32.1371 23.6891 32.3432 24.5443 32.8566 25.2347L34.4615 24.0413ZM34.1371 22.766C34.1371 22.2609 34.2625 21.8496 34.494 21.4983L32.8241 20.3977C32.3596 21.1024 32.1371 21.9031 32.1371 22.766H34.1371ZM34.494 21.4983C34.7306 21.1394 35.0661 20.8489 35.5361 20.632L34.698 18.816C33.92 19.1751 33.2836 19.7006 32.8241 20.3977L34.494 21.4983ZM35.5296 20.635C36.0159 20.4147 36.5975 20.292 37.2951 20.292V18.292C36.3606 18.292 35.4902 18.4573 34.7046 18.813L35.5296 20.635ZM37.2951 20.292C38.3014 20.292 39.0266 20.5409 39.555 20.9586L40.7951 19.3894C39.8356 18.6311 38.6408 18.292 37.2951 18.292V20.292ZM39.5611 20.9634C40.0959 21.3793 40.3883 21.907 40.4579 22.6123L42.4482 22.4157C42.3259 21.1769 41.7663 20.1447 40.789 19.3846L39.5611 20.9634ZM41.4531 21.514H39.6531V23.514H41.4531V21.514ZM40.6453 22.39C40.5476 21.608 40.1325 20.9683 39.5269 20.4772L38.2673 22.0308C38.5496 22.2597 38.6385 22.46 38.6608 22.638L40.6453 22.39ZM39.5393 20.4875C38.8719 19.9283 38.0364 19.696 37.1331 19.696V21.696C37.6937 21.696 38.0342 21.8357 38.2548 22.0205L39.5393 20.4875ZM37.1331 19.696C36.2677 19.696 35.4672 19.9275 34.8189 20.4678L36.0992 22.0042C36.3149 21.8245 36.6305 21.696 37.1331 21.696V19.696ZM34.8317 20.4572C34.1278 21.0243 33.8111 21.8233 33.8111 22.712H35.8111C35.8111 22.3287 35.9263 22.1437 36.0864 22.0148L34.8317 20.4572ZM33.8111 22.712C33.8111 23.3614 33.9955 23.9826 34.4365 24.4865L35.9416 23.1695C35.8786 23.0974 35.8111 22.9746 35.8111 22.712H33.8111ZM34.4519 24.5037C34.8167 24.9017 35.2555 25.2062 35.7563 25.4162L36.5298 23.5718C36.2866 23.4698 36.0894 23.3303 35.9262 23.1523L34.4519 24.5037ZM35.7919 25.4303C36.2149 25.5889 36.7801 25.7658 37.4748 25.9608L38.0153 24.0352C37.342 23.8462 36.8393 23.6871 36.4942 23.5577L35.7919 25.4303ZM37.4796 25.9621C38.2816 26.183 38.8927 26.3949 39.3309 26.5931L40.1552 24.7709C39.5854 24.5131 38.8646 24.269 38.0105 24.0339L37.4796 25.9621ZM39.3491 26.6011C39.684 26.7446 39.9824 26.9745 40.2464 27.3177L41.8317 26.0983C41.3757 25.5055 40.8101 25.0514 40.137 24.7629L39.3491 26.6011ZM40.2542 27.3276C40.4318 27.5527 40.5791 27.9319 40.5791 28.58H42.5791C42.5791 27.6441 42.3663 26.7753 41.8239 26.0884L40.2542 27.3276ZM40.5791 28.58C40.5791 29.0053 40.4692 29.4042 40.2356 29.7935L41.9506 30.8225C42.365 30.1318 42.5791 29.3787 42.5791 28.58H40.5791ZM40.2356 29.7935C40.0183 30.1557 39.6839 30.4747 39.1859 30.7378L40.1202 32.5062C40.8942 32.0973 41.5199 31.5403 41.9506 30.8225L40.2356 29.7935ZM39.1859 30.7378C38.7202 30.9839 38.1368 31.126 37.4031 31.126V33.126C38.3973 33.126 39.314 32.9321 40.1202 32.5062L39.1859 30.7378ZM54.3575 19.454L55.2931 19.807L55.8037 18.454H54.3575V19.454ZM49.6235 32V33H50.315L50.5591 32.353L49.6235 32ZM47.7335 32L46.7979 32.353L47.042 33H47.7335V32ZM42.9995 19.454V18.454H41.5534L42.0639 19.807L42.9995 19.454ZM44.7455 19.454L45.6851 19.1116L45.4454 18.454H44.7455V19.454ZM48.6875 30.272L47.748 30.6144L48.6875 33.1928L49.6271 30.6144L48.6875 30.272ZM52.6295 19.454V18.454H51.9296L51.69 19.1116L52.6295 19.454ZM53.4219 19.101L48.6879 31.647L50.5591 32.353L55.2931 19.807L53.4219 19.101ZM49.6235 31H47.7335V33H49.6235V31ZM48.6691 31.647L43.9351 19.101L42.0639 19.807L46.7979 32.353L48.6691 31.647ZM42.9995 20.454H44.7455V18.454H42.9995V20.454ZM43.806 19.7964L47.748 30.6144L49.6271 29.9296L45.6851 19.1116L43.806 19.7964ZM49.6271 30.6144L53.5691 19.7964L51.69 19.1116L47.748 29.9296L49.6271 30.6144ZM52.6295 20.454H54.3575V18.454H52.6295V20.454ZM66.5216 19.454L67.4572 19.807L67.9677 18.454H66.5216V19.454ZM61.7876 32V33H62.4791L62.7232 32.353L61.7876 32ZM59.8976 32L58.962 32.353L59.2061 33H59.8976V32ZM55.1636 19.454V18.454H53.7174L54.228 19.807L55.1636 19.454ZM56.9096 19.454L57.8491 19.1116L57.6095 18.454H56.9096V19.454ZM60.8516 30.272L59.912 30.6144L60.8516 33.1928L61.7911 30.6144L60.8516 30.272ZM64.7936 19.454V18.454H64.0937L63.854 19.1116L64.7936 19.454ZM65.586 19.101L60.852 31.647L62.7232 32.353L67.4572 19.807L65.586 19.101ZM61.7876 31H59.8976V33H61.7876V31ZM60.8332 31.647L56.0992 19.101L54.228 19.807L58.962 32.353L60.8332 31.647ZM55.1636 20.454H56.9096V18.454H55.1636V20.454ZM55.97 19.7964L59.912 30.6144L61.7911 29.9296L57.8491 19.1116L55.97 19.7964ZM61.7911 30.6144L65.7331 19.7964L63.854 19.1116L59.912 29.9296L61.7911 30.6144ZM64.7936 20.454H66.5216V18.454H64.7936V20.454ZM76.0396 19.454H77.0396V18.454H76.0396V19.454ZM76.0396 20.786V21.786H77.0396V20.786H76.0396ZM72.6196 20.786V19.786H71.6196V20.786H72.6196ZM72.6196 32V33H73.6196V32H72.6196ZM70.9816 32H69.9816V33H70.9816V32ZM70.9816 20.786H71.9816V19.786H70.9816V20.786ZM67.5436 20.786H66.5436V21.786H67.5436V20.786ZM67.5436 19.454V18.454H66.5436V19.454H67.5436ZM75.0396 19.454V20.786H77.0396V19.454H75.0396ZM76.0396 19.786H72.6196V21.786H76.0396V19.786ZM71.6196 20.786V32H73.6196V20.786H71.6196ZM72.6196 31H70.9816V33H72.6196V31ZM71.9816 32V20.786H69.9816V32H71.9816ZM70.9816 19.786H67.5436V21.786H70.9816V19.786ZM68.5436 20.786V19.454H66.5436V20.786H68.5436ZM67.5436 20.454H76.0396V18.454H67.5436V20.454ZM84.3379 25.538L84.0269 24.5876L84.182 26.5258L84.3379 25.538ZM85.5799 26.096L84.9522 26.8744L84.9582 26.8793L84.9643 26.884L85.5799 26.096ZM86.4799 27.212L85.5807 27.6495L85.5854 27.6592L85.5904 27.6688L86.4799 27.212ZM86.3359 30.362L87.1771 30.9028L87.1828 30.8938L86.3359 30.362ZM84.9139 31.568L85.3397 32.4729L85.3472 32.4693L84.9139 31.568ZM78.0559 32H77.0559V33H78.0559V32ZM78.0559 19.454V18.454H77.0559V19.454H78.0559ZM84.7339 19.886L84.3012 20.7875L84.3086 20.7911L84.316 20.7945L84.7339 19.886ZM86.0839 21.02L85.2359 21.55V21.55L86.0839 21.02ZM85.9219 24.494L85.1522 23.8557L85.1506 23.8576L85.9219 24.494ZM79.6939 24.872H78.6939V25.872H79.6939V24.872ZM84.2299 21.344L83.5791 22.1033V22.1033L84.2299 21.344ZM79.6939 20.804V19.804H78.6939V20.804H79.6939ZM84.4999 30.074L85.1441 30.8389L84.4999 30.074ZM84.4639 26.834L83.8163 27.5959L83.8219 27.6007L83.8275 27.6054L84.4639 26.834ZM79.6939 26.222V25.222H78.6939V26.222H79.6939ZM79.6939 30.65H78.6939V31.65H79.6939V30.65ZM84.182 26.5258C84.4588 26.5695 84.7114 26.6802 84.9522 26.8744L86.2077 25.3176C85.7044 24.9118 85.129 24.6505 84.4939 24.5502L84.182 26.5258ZM84.9643 26.884C85.2267 27.089 85.4304 27.3405 85.5807 27.6495L87.3792 26.7745C87.0975 26.1955 86.7012 25.703 86.1956 25.308L84.9643 26.884ZM85.5904 27.6688C85.745 27.97 85.8219 28.2873 85.8219 28.634H87.8219C87.8219 27.9727 87.6708 27.342 87.3695 26.7552L85.5904 27.6688ZM85.8219 28.634C85.8219 29.0905 85.7085 29.4807 85.489 29.8302L87.1828 30.8938C87.6114 30.2113 87.8219 29.4495 87.8219 28.634H85.8219ZM85.4947 29.8212C85.2855 30.1467 84.9644 30.4342 84.4806 30.6667L85.3472 32.4693C86.1115 32.1018 86.7383 31.5853 87.1771 30.9028L85.4947 29.8212ZM84.4881 30.6632C84.0375 30.8752 83.4634 31 82.7359 31V33C83.6884 33 84.5663 32.8368 85.3397 32.4728L84.4881 30.6632ZM82.7359 31H78.0559V33H82.7359V31ZM79.0559 32V19.454H77.0559V32H79.0559ZM78.0559 20.454H82.5559V18.454H78.0559V20.454ZM82.5559 20.454C83.2987 20.454 83.8686 20.5799 84.3012 20.7875L85.1667 18.9845C84.3993 18.6161 83.5172 18.454 82.5559 18.454V20.454ZM84.316 20.7945C84.769 21.0029 85.0556 21.2615 85.2359 21.55L86.9319 20.49C86.5122 19.8185 85.8988 19.3211 85.1518 18.9775L84.316 20.7945ZM85.2359 21.55C85.4305 21.8614 85.5339 22.2157 85.5339 22.64H87.5339C87.5339 21.8643 87.3373 21.1386 86.9319 20.49L85.2359 21.55ZM85.5339 22.64C85.5339 23.1911 85.3876 23.5718 85.1522 23.8557L86.6917 25.1323C87.2723 24.4322 87.5339 23.5769 87.5339 22.64H85.5339ZM85.1506 23.8576C84.8888 24.1749 84.5283 24.4235 84.0269 24.5876L84.649 26.4884C85.4675 26.2205 86.163 25.7731 86.6933 25.1304L85.1506 23.8576ZM79.6939 25.872H82.4479V23.872H79.6939V25.872ZM82.4479 25.872C83.3623 25.872 84.2199 25.6576 84.8807 25.0913L83.5791 23.5727C83.3999 23.7264 83.0695 23.872 82.4479 23.872V25.872ZM84.8807 25.0913C85.5568 24.5118 85.8599 23.7173 85.8599 22.838H83.8599C83.8599 23.2307 83.743 23.4322 83.5791 23.5727L84.8807 25.0913ZM85.8599 22.838C85.8599 21.9587 85.5568 21.1642 84.8807 20.5847L83.5791 22.1033C83.743 22.2438 83.8599 22.4453 83.8599 22.838H85.8599ZM84.8807 20.5847C84.215 20.0141 83.3412 19.804 82.4119 19.804V21.804C83.0666 21.804 83.4048 21.9539 83.5791 22.1033L84.8807 20.5847ZM82.4119 19.804H79.6939V21.804H82.4119V19.804ZM78.6939 20.804V24.872H80.6939V20.804H78.6939ZM82.5919 31.65C83.5569 31.65 84.451 31.4226 85.1441 30.8389L83.8558 29.3091C83.6369 29.4934 83.259 29.65 82.5919 29.65V31.65ZM85.1441 30.8389C85.8604 30.2357 86.1839 29.4024 86.1839 28.472H84.1839C84.1839 28.9096 84.0515 29.1443 83.8558 29.3091L85.1441 30.8389ZM86.1839 28.472C86.1839 27.5174 85.8397 26.6726 85.1003 26.0626L83.8275 27.6054C84.0481 27.7874 84.1839 28.0346 84.1839 28.472H86.1839ZM85.1116 26.0721C84.4055 25.4719 83.5121 25.222 82.5379 25.222V27.222C83.1718 27.222 83.5624 27.3801 83.8163 27.5959L85.1116 26.0721ZM82.5379 25.222H79.6939V27.222H82.5379V25.222ZM78.6939 26.222V30.65H80.6939V26.222H78.6939ZM79.6939 31.65H82.5919V29.65H79.6939V31.65ZM95.377 25.538L95.0659 24.5876L95.221 26.5258L95.377 25.538ZM96.619 26.096L95.9912 26.8744L95.9972 26.8793L96.0033 26.884L96.619 26.096ZM97.519 27.212L96.6198 27.6495L96.6245 27.6592L96.6294 27.6688L97.519 27.212ZM97.375 30.362L98.2162 30.9028L98.2219 30.8938L97.375 30.362ZM95.953 31.568L96.3788 32.4729L96.3863 32.4693L95.953 31.568ZM89.095 32H88.095V33H89.095V32ZM89.095 19.454V18.454H88.095V19.454H89.095ZM95.773 19.886L95.3403 20.7875L95.3476 20.7911L95.3551 20.7945L95.773 19.886ZM97.123 21.02L96.275 21.55V21.55L97.123 21.02ZM96.961 24.494L96.1912 23.8557L96.1896 23.8576L96.961 24.494ZM90.733 24.872H89.733V25.872H90.733V24.872ZM95.269 21.344L94.6182 22.1033V22.1033L95.269 21.344ZM90.733 20.804V19.804H89.733V20.804H90.733ZM95.539 30.074L96.1831 30.8389L95.539 30.074ZM95.503 26.834L94.8553 27.5959L94.8609 27.6007L94.8666 27.6054L95.503 26.834ZM90.733 26.222V25.222H89.733V26.222H90.733ZM90.733 30.65H89.733V31.65H90.733V30.65ZM95.221 26.5258C95.4979 26.5695 95.7505 26.6802 95.9912 26.8744L97.2467 25.3176C96.7435 24.9118 96.1681 24.6505 95.533 24.5502L95.221 26.5258ZM96.0033 26.884C96.2657 27.089 96.4694 27.3405 96.6198 27.6495L98.4182 26.7745C98.1365 26.1955 97.7402 25.703 97.2346 25.308L96.0033 26.884ZM96.6294 27.6688C96.7841 27.97 96.861 28.2873 96.861 28.634H98.861C98.861 27.9727 98.7099 27.342 98.4086 26.7552L96.6294 27.6688ZM96.861 28.634C96.861 29.0905 96.7475 29.4807 96.5281 29.8302L98.2219 30.8938C98.6504 30.2113 98.861 29.4495 98.861 28.634H96.861ZM96.5338 29.8212C96.3246 30.1467 96.0034 30.4342 95.5197 30.6667L96.3863 32.4693C97.1506 32.1018 97.7774 31.5853 98.2162 30.9028L96.5338 29.8212ZM95.5272 30.6632C95.0766 30.8752 94.5025 31 93.775 31V33C94.7275 33 95.6054 32.8368 96.3788 32.4728L95.5272 30.6632ZM93.775 31H89.095V33H93.775V31ZM90.095 32V19.454H88.095V32H90.095ZM89.095 20.454H93.595V18.454H89.095V20.454ZM93.595 20.454C94.3378 20.454 94.9076 20.5799 95.3403 20.7875L96.2057 18.9845C95.4383 18.6161 94.5562 18.454 93.595 18.454V20.454ZM95.3551 20.7945C95.8081 21.0029 96.0947 21.2615 96.275 21.55L97.971 20.49C97.5513 19.8185 96.9379 19.3211 96.1909 18.9775L95.3551 20.7945ZM96.275 21.55C96.4696 21.8614 96.573 22.2157 96.573 22.64H98.573C98.573 21.8643 98.3764 21.1386 97.971 20.49L96.275 21.55ZM96.573 22.64C96.573 23.1911 96.4266 23.5718 96.1912 23.8557L97.7307 25.1323C98.3113 24.4322 98.573 23.5769 98.573 22.64H96.573ZM96.1896 23.8576C95.9279 24.1749 95.5674 24.4235 95.0659 24.5876L95.688 26.4884C96.5066 26.2205 97.2021 25.7731 97.7324 25.1304L96.1896 23.8576ZM90.733 25.872H93.487V23.872H90.733V25.872ZM93.487 25.872C94.4014 25.872 95.259 25.6576 95.9198 25.0913L94.6182 23.5727C94.439 23.7264 94.1086 23.872 93.487 23.872V25.872ZM95.9198 25.0913C96.5959 24.5118 96.899 23.7173 96.899 22.838H94.899C94.899 23.2307 94.7821 23.4322 94.6182 23.5727L95.9198 25.0913ZM96.899 22.838C96.899 21.9587 96.5959 21.1642 95.9198 20.5847L94.6182 22.1033C94.7821 22.2438 94.899 22.4453 94.899 22.838H96.899ZM95.9198 20.5847C95.2541 20.0141 94.3803 19.804 93.451 19.804V21.804C94.1057 21.804 94.4439 21.9539 94.6182 22.1033L95.9198 20.5847ZM93.451 19.804H90.733V21.804H93.451V19.804ZM89.733 20.804V24.872H91.733V20.804H89.733ZM93.631 31.65C94.5959 31.65 95.49 31.4226 96.1831 30.8389L94.8949 29.3091C94.6759 29.4934 94.2981 29.65 93.631 29.65V31.65ZM96.1831 30.8389C96.8994 30.2357 97.223 29.4024 97.223 28.472H95.223C95.223 28.9096 95.0906 29.1443 94.8949 29.3091L96.1831 30.8389ZM97.223 28.472C97.223 27.5174 96.8788 26.6726 96.1394 26.0626L94.8666 27.6054C95.0872 27.7874 95.223 28.0346 95.223 28.472H97.223ZM96.1506 26.0721C95.4445 25.4719 94.5511 25.222 93.577 25.222V27.222C94.2108 27.222 94.6014 27.3801 94.8553 27.5959L96.1506 26.0721ZM93.577 25.222H90.733V27.222H93.577V25.222ZM89.733 26.222V30.65H91.733V26.222H89.733ZM90.733 31.65H93.631V29.65H90.733V31.65ZM110.502 19.454L111.438 19.807L111.948 18.454H110.502V19.454ZM105.768 32V33H106.46L106.704 32.353L105.768 32ZM103.878 32L102.942 32.353L103.187 33H103.878V32ZM99.1441 19.454V18.454H97.6979L98.2084 19.807L99.1441 19.454ZM100.89 19.454L101.83 19.1116L101.59 18.454H100.89V19.454ZM104.832 30.272L103.892 30.6144L104.832 33.1928L105.772 30.6144L104.832 30.272ZM108.774 19.454V18.454H108.074L107.834 19.1116L108.774 19.454ZM109.566 19.101L104.832 31.647L106.704 32.353L111.438 19.807L109.566 19.101ZM105.768 31H103.878V33H105.768V31ZM104.814 31.647L100.08 19.101L98.2084 19.807L102.942 32.353L104.814 31.647ZM99.1441 20.454H100.89V18.454H99.1441V20.454ZM99.9505 19.7964L103.892 30.6144L105.772 29.9296L101.83 19.1116L99.9505 19.7964ZM105.772 30.6144L109.714 19.7964L107.834 19.1116L103.892 29.9296L105.772 30.6144ZM108.774 20.454H110.502V18.454H108.774V20.454Z" fill="#443B3B"/>
<path d="M156 25.0002C156 24.5879 155.745 24.2334 155.373 24.0474L128.893 10.1967C128.692 10.0688 128.452 10.0001 128.206 10C127.886 10 127.58 10.115 127.353 10.3198C127.127 10.5246 127 10.8024 127 11.0921C127 11.1344 127.009 11.1744 127.014 11.2152H127V39.0311H127.014C127.046 39.2971 127.186 39.543 127.406 39.7218C127.626 39.9005 127.91 39.9996 128.206 40C128.417 39.999 128.624 39.9473 128.806 39.85L128.817 39.8671L155.405 25.9594L155.394 25.9424C155.578 25.8475 155.731 25.7105 155.837 25.5451C155.943 25.3796 156 25.1917 156 25.0002Z" fill="#443B3B"/>
<defs>
<filter id="filter0_d" x="0" y="0" width="182" height="63" filterUnits="userSpaceOnUse" color-interpolation-filters="sRGB">
<feFlood flood-opacity="0" result="BackgroundImageFix"/>
<feColorMatrix in="SourceAlpha" type="matrix" values="0 0 0 0 0 0 0 0 0 0 0 0 0 0 0 0 0 0 127 0"/>
<feOffset dy="4"/>
<feGaussianBlur stdDeviation="2"/>
<feColorMatrix type="matrix" values="0 0 0 0 0 0 0 0 0 0 0 0 0 0 0 0 0 0 0.25 0"/>
<feBlend mode="normal" in2="BackgroundImageFix" result="effect1_dropShadow"/>
<feBlend mode="normal" in="SourceGraphic" in2="effect1_dropShadow" result="shape"/>
</filter>
</defs>
</svg>
