<svg width="343" height="75" viewBox="0 0 343 75" fill="none" xmlns="http://www.w3.org/2000/svg">
<g filter="url(#filter0_d)">
<rect x="4.68262" y="0.60083" width="134.192" height="45.9874" rx="22.9937" fill="#F58A8A"/>
</g>
<path d="M27.0039 22.5002C27.4599 22.5722 27.8739 22.7582 28.2459 23.0582C28.6299 23.3582 28.9299 23.7302 29.1459 24.1742C29.3739 24.6182 29.4879 25.0922 29.4879 25.5962C29.4879 26.2322 29.3259 26.8082 29.0019 27.3242C28.6779 27.8282 28.2039 28.2302 27.5799 28.5302C26.9679 28.8182 26.2419 28.9622 25.4019 28.9622H20.7219V16.4162H25.2219C26.0739 16.4162 26.7999 16.5602 27.3999 16.8482C27.9999 17.1242 28.4499 17.5022 28.7499 17.9822C29.0499 18.4622 29.1999 19.0022 29.1999 19.6022C29.1999 20.3462 28.9959 20.9642 28.5879 21.4562C28.1919 21.9362 27.6639 22.2842 27.0039 22.5002ZM22.3599 21.8342H25.1139C25.8819 21.8342 26.4759 21.6542 26.8959 21.2942C27.3159 20.9342 27.5259 20.4362 27.5259 19.8002C27.5259 19.1642 27.3159 18.6662 26.8959 18.3062C26.4759 17.9462 25.8699 17.7662 25.0779 17.7662H22.3599V21.8342ZM25.2579 27.6122C26.0739 27.6122 26.7099 27.4202 27.1659 27.0362C27.6219 26.6522 27.8499 26.1182 27.8499 25.4342C27.8499 24.7382 27.6099 24.1922 27.1299 23.7962C26.6499 23.3882 26.0079 23.1842 25.2039 23.1842H22.3599V27.6122H25.2579ZM35.739 29.0882C34.911 29.0882 34.167 28.9442 33.507 28.6562C32.859 28.3562 32.349 27.9482 31.977 27.4322C31.605 26.9042 31.413 26.2982 31.401 25.6142H33.147C33.207 26.2022 33.447 26.7002 33.867 27.1082C34.299 27.5042 34.923 27.7022 35.739 27.7022C36.519 27.7022 37.131 27.5102 37.575 27.1262C38.031 26.7302 38.259 26.2262 38.259 25.6142C38.259 25.1342 38.127 24.7442 37.863 24.4442C37.599 24.1442 37.269 23.9162 36.873 23.7602C36.477 23.6042 35.943 23.4362 35.271 23.2562C34.443 23.0402 33.777 22.8242 33.273 22.6082C32.781 22.3922 32.355 22.0562 31.995 21.6002C31.647 21.1322 31.473 20.5082 31.473 19.7282C31.473 19.0442 31.647 18.4382 31.995 17.9102C32.343 17.3822 32.829 16.9742 33.453 16.6862C34.089 16.3982 34.815 16.2542 35.631 16.2542C36.807 16.2542 37.767 16.5482 38.511 17.1362C39.267 17.7242 39.693 18.5042 39.789 19.4762H37.989C37.929 18.9962 37.677 18.5762 37.233 18.2162C36.789 17.8442 36.201 17.6582 35.469 17.6582C34.785 17.6582 34.227 17.8382 33.795 18.1982C33.363 18.5462 33.147 19.0382 33.147 19.6742C33.147 20.1302 33.273 20.5022 33.525 20.7902C33.789 21.0782 34.107 21.3002 34.479 21.4562C34.863 21.6002 35.397 21.7682 36.081 21.9602C36.909 22.1882 37.575 22.4162 38.079 22.6442C38.583 22.8602 39.015 23.2022 39.375 23.6702C39.735 24.1262 39.915 24.7502 39.915 25.5422C39.915 26.1542 39.753 26.7302 39.429 27.2702C39.105 27.8102 38.625 28.2482 37.989 28.5842C37.353 28.9202 36.603 29.0882 35.739 29.0882ZM52.6935 16.4162L47.9595 28.9622H46.0695L41.3355 16.4162H43.0815L47.0235 27.2342L50.9655 16.4162H52.6935ZM64.8575 16.4162L60.1235 28.9622H58.2335L53.4995 16.4162H55.2455L59.1875 27.2342L63.1295 16.4162H64.8575ZM74.3756 16.4162V17.7482H70.9556V28.9622H69.3176V17.7482H65.8796V16.4162H74.3756Z" fill="#443B3B"/>
<path d="M27.0039 22.5002L26.6929 21.5498L26.848 23.488L27.0039 22.5002ZM28.2459 23.0582L27.6182 23.8366L27.6242 23.8415L27.6303 23.8462L28.2459 23.0582ZM29.1459 24.1742L28.2467 24.6117L28.2514 24.6214L28.2564 24.631L29.1459 24.1742ZM29.0019 27.3242L29.8432 27.865L29.8488 27.856L29.0019 27.3242ZM27.5799 28.5302L28.0057 29.435L28.0132 29.4314L27.5799 28.5302ZM20.7219 28.9622H19.7219V29.9622H20.7219V28.9622ZM20.7219 16.4162V15.4162H19.7219V16.4162H20.7219ZM27.3999 16.8482L26.9672 17.7497L26.9746 17.7533L26.982 17.7567L27.3999 16.8482ZM28.7499 17.9822L27.9019 18.5122L27.9019 18.5122L28.7499 17.9822ZM28.5879 21.4562L27.8182 20.8178L27.8166 20.8198L28.5879 21.4562ZM22.3599 21.8342H21.3599V22.8342H22.3599V21.8342ZM26.8959 18.3062L26.2451 19.0654L26.2451 19.0654L26.8959 18.3062ZM22.3599 17.7662V16.7662H21.3599V17.7662H22.3599ZM27.1659 27.0362L27.8101 27.8011L27.8101 27.8011L27.1659 27.0362ZM27.1299 23.7962L26.4823 24.5581L26.4879 24.5629L26.4936 24.5676L27.1299 23.7962ZM22.3599 23.1842V22.1842H21.3599V23.1842H22.3599ZM22.3599 27.6122H21.3599V28.6122H22.3599V27.6122ZM26.848 23.488C27.1249 23.5317 27.3774 23.6424 27.6182 23.8366L28.8737 22.2798C28.3705 21.8739 27.795 21.6127 27.1599 21.5124L26.848 23.488ZM27.6303 23.8462C27.8927 24.0512 28.0964 24.3027 28.2467 24.6117L30.0452 23.7367C29.7635 23.1577 29.3672 22.6652 28.8616 22.2702L27.6303 23.8462ZM28.2564 24.631C28.4111 24.9322 28.4879 25.2494 28.4879 25.5962H30.4879C30.4879 24.9349 30.3368 24.3041 30.0355 23.7174L28.2564 24.631ZM28.4879 25.5962C28.4879 26.0527 28.3745 26.4429 28.155 26.7924L29.8488 27.856C30.2774 27.1735 30.4879 26.4117 30.4879 25.5962H28.4879ZM28.1608 26.7834C27.9515 27.1089 27.6304 27.3964 27.1466 27.6289L28.0132 29.4314C28.7775 29.064 29.4044 28.5474 29.8431 27.8649L28.1608 26.7834ZM27.1541 27.6254C26.7035 27.8374 26.1295 27.9622 25.4019 27.9622V29.9622C26.3544 29.9622 27.2323 29.799 28.0057 29.435L27.1541 27.6254ZM25.4019 27.9622H20.7219V29.9622H25.4019V27.9622ZM21.7219 28.9622V16.4162H19.7219V28.9622H21.7219ZM20.7219 17.4162H25.2219V15.4162H20.7219V17.4162ZM25.2219 17.4162C25.9647 17.4162 26.5346 17.5421 26.9672 17.7497L27.8327 15.9467C27.0653 15.5783 26.1832 15.4162 25.2219 15.4162V17.4162ZM26.982 17.7567C27.435 17.9651 27.7216 18.2237 27.9019 18.5122L29.5979 17.4522C29.1782 16.7807 28.5648 16.2833 27.8178 15.9397L26.982 17.7567ZM27.9019 18.5122C28.0966 18.8236 28.1999 19.1779 28.1999 19.6022H30.1999C30.1999 18.8265 30.0033 18.1008 29.5979 17.4522L27.9019 18.5122ZM28.1999 19.6022C28.1999 20.1533 28.0536 20.534 27.8182 20.8179L29.3577 22.0945C29.9383 21.3944 30.1999 20.5391 30.1999 19.6022H28.1999ZM27.8166 20.8198C27.5548 21.1371 27.1944 21.3857 26.6929 21.5498L27.315 23.4506C28.1335 23.1827 28.8291 22.7353 29.3593 22.0926L27.8166 20.8198ZM22.3599 22.8342H25.1139V20.8342H22.3599V22.8342ZM25.1139 22.8342C26.0284 22.8342 26.8859 22.6198 27.5467 22.0534L26.2451 20.5349C26.0659 20.6885 25.7355 20.8342 25.1139 20.8342V22.8342ZM27.5467 22.0534C28.2228 21.4739 28.5259 20.6795 28.5259 19.8002H26.5259C26.5259 20.1929 26.4091 20.3944 26.2451 20.5349L27.5467 22.0534ZM28.5259 19.8002C28.5259 18.9209 28.2228 18.1264 27.5467 17.5469L26.2451 19.0654C26.4091 19.2059 26.5259 19.4075 26.5259 19.8002H28.5259ZM27.5467 17.5469C26.881 16.9763 26.0072 16.7662 25.0779 16.7662V18.7662C25.7327 18.7662 26.0709 18.9161 26.2451 19.0654L27.5467 17.5469ZM25.0779 16.7662H22.3599V18.7662H25.0779V16.7662ZM21.3599 17.7662V21.8342H23.3599V17.7662H21.3599ZM25.2579 28.6122C26.2229 28.6122 27.117 28.3848 27.8101 27.8011L26.5218 26.2713C26.3029 26.4556 25.925 26.6122 25.2579 26.6122V28.6122ZM27.8101 27.8011C28.5264 27.1979 28.8499 26.3646 28.8499 25.4342H26.8499C26.8499 25.8717 26.7175 26.1065 26.5218 26.2713L27.8101 27.8011ZM28.8499 25.4342C28.8499 24.4796 28.5057 23.6348 27.7663 23.0248L26.4936 24.5676C26.7142 24.7496 26.8499 24.9968 26.8499 25.4342H28.8499ZM27.7776 23.0342C27.0715 22.4341 26.1781 22.1842 25.2039 22.1842V24.1842C25.8378 24.1842 26.2284 24.3423 26.4823 24.5581L27.7776 23.0342ZM25.2039 22.1842H22.3599V24.1842H25.2039V22.1842ZM21.3599 23.1842V27.6122H23.3599V23.1842H21.3599ZM22.3599 28.6122H25.2579V26.6122H22.3599V28.6122ZM33.507 28.6562L33.0869 29.5637L33.0969 29.5683L33.1071 29.5727L33.507 28.6562ZM31.977 27.4322L31.1595 28.0082L31.1658 28.017L31.977 27.4322ZM31.401 25.6142V24.6142H30.3833L30.4012 25.6317L31.401 25.6142ZM33.147 25.6142L34.1418 25.5127L34.0502 24.6142H33.147V25.6142ZM33.867 27.1082L33.1702 27.8255L33.1806 27.8356L33.1913 27.8453L33.867 27.1082ZM37.575 27.1262L38.2292 27.8826L38.2307 27.8812L37.575 27.1262ZM37.863 24.4442L37.1123 25.1048L37.1123 25.1048L37.863 24.4442ZM36.873 23.7602L36.5065 24.6906L36.5065 24.6906L36.873 23.7602ZM35.271 23.2562L35.5297 22.2902L35.5234 22.2886L35.271 23.2562ZM33.273 22.6082L32.871 23.5239L32.8791 23.5273L33.273 22.6082ZM31.995 21.6002L31.1925 22.1969L31.2012 22.2085L31.2101 22.2198L31.995 21.6002ZM31.995 17.9102L32.83 18.4605L32.83 18.4605L31.995 17.9102ZM33.453 16.6862L33.0405 15.7752L33.0339 15.7782L33.453 16.6862ZM38.511 17.1362L37.8909 17.9208L37.8971 17.9255L38.511 17.1362ZM39.789 19.4762V20.4762H40.8926L40.7842 19.3779L39.789 19.4762ZM37.989 19.4762L36.9967 19.6002L37.1062 20.4762H37.989V19.4762ZM37.233 18.2162L36.5908 18.9827L36.5969 18.9879L36.6032 18.9929L37.233 18.2162ZM33.795 18.1982L34.4223 18.9769L34.4288 18.9717L34.4352 18.9664L33.795 18.1982ZM33.525 20.7902L32.7724 21.4487L32.78 21.4574L32.7878 21.4659L33.525 20.7902ZM34.479 21.4562L34.0923 22.3784L34.1099 22.3858L34.1279 22.3925L34.479 21.4562ZM36.081 21.9602L35.8107 22.923L35.8155 22.9243L36.081 21.9602ZM38.079 22.6442L37.6668 23.5553L37.6759 23.5594L37.6851 23.5633L38.079 22.6442ZM39.375 23.6702L38.5823 24.2799L38.5901 24.2898L39.375 23.6702ZM39.429 27.2702L40.2865 27.7847L40.2865 27.7847L39.429 27.2702ZM37.989 28.5842L37.5219 27.7L37.989 28.5842ZM35.739 28.0882C35.0281 28.0882 34.4233 27.965 33.9069 27.7396L33.1071 29.5727C33.9107 29.9234 34.7939 30.0882 35.739 30.0882V28.0882ZM33.9271 27.7487C33.4156 27.5119 33.0479 27.2076 32.7882 26.8474L31.1658 28.017C31.6501 28.6888 32.3024 29.2005 33.0869 29.5637L33.9271 27.7487ZM32.7945 26.8562C32.5448 26.5018 32.4096 26.0929 32.4008 25.5966L30.4012 25.6317C30.4164 26.5034 30.6652 27.3065 31.1595 28.0081L32.7945 26.8562ZM31.401 26.6142H33.147V24.6142H31.401V26.6142ZM32.1522 25.7157C32.2358 26.5352 32.5798 27.252 33.1702 27.8255L34.5638 26.3909C34.3142 26.1484 34.1782 25.8692 34.1418 25.5127L32.1522 25.7157ZM33.1913 27.8453C33.8694 28.4669 34.7714 28.7022 35.739 28.7022V26.7022C35.0746 26.7022 34.7286 26.5415 34.5427 26.371L33.1913 27.8453ZM35.739 28.7022C36.6793 28.7022 37.5509 28.4691 38.2292 27.8826L36.9208 26.3698C36.7111 26.5513 36.3587 26.7022 35.739 26.7022V28.7022ZM38.2307 27.8812C38.9087 27.2924 39.259 26.5114 39.259 25.6142H37.259C37.259 25.941 37.1533 26.168 36.9193 26.3712L38.2307 27.8812ZM39.259 25.6142C39.259 24.9423 39.0693 24.3013 38.6137 23.7836L37.1123 25.1048C37.1847 25.1871 37.259 25.326 37.259 25.6142H39.259ZM38.6137 23.7836C38.2381 23.3567 37.7733 23.0401 37.2395 22.8298L36.5065 24.6906C36.7647 24.7923 36.9599 24.9317 37.1123 25.1048L38.6137 23.7836ZM37.2395 22.8298C36.7933 22.654 36.2185 22.4747 35.5297 22.2902L35.0123 24.2221C35.6675 24.3976 36.1607 24.5544 36.5065 24.6906L37.2395 22.8298ZM35.5234 22.2886C34.7202 22.079 34.1071 21.8777 33.6669 21.689L32.8791 23.5273C33.4469 23.7707 34.1658 24.0014 35.0186 24.2238L35.5234 22.2886ZM33.675 21.6925C33.3449 21.5476 33.0469 21.3187 32.7799 20.9805L31.2101 22.2198C31.6631 22.7937 32.2171 23.2367 32.871 23.5238L33.675 21.6925ZM32.7975 21.0035C32.6149 20.7579 32.473 20.3651 32.473 19.7282H30.473C30.473 20.6513 30.6791 21.5065 31.1925 22.1969L32.7975 21.0035ZM32.473 19.7282C32.473 19.2231 32.5985 18.8118 32.83 18.4605L31.16 17.3599C30.6955 18.0646 30.473 18.8653 30.473 19.7282H32.473ZM32.83 18.4605C33.0665 18.1016 33.4021 17.8111 33.8721 17.5941L33.0339 15.7782C32.2559 16.1373 31.6195 16.6628 31.16 17.3599L32.83 18.4605ZM33.8655 17.5971C34.3518 17.3769 34.9335 17.2542 35.631 17.2542V15.2542C34.6965 15.2542 33.8262 15.4195 33.0405 15.7752L33.8655 17.5971ZM35.631 17.2542C36.6373 17.2542 37.3625 17.5031 37.8909 17.9207L39.1311 16.3516C38.1715 15.5933 36.9767 15.2542 35.631 15.2542V17.2542ZM37.8971 17.9255C38.4318 18.3415 38.7242 18.8692 38.7938 19.5745L40.7842 19.3779C40.6618 18.1391 40.1022 17.1069 39.1249 16.3468L37.8971 17.9255ZM39.789 18.4762H37.989V20.4762H39.789V18.4762ZM38.9813 19.3522C38.8835 18.5702 38.4684 17.9305 37.8628 17.4394L36.6032 18.9929C36.8856 19.2219 36.9745 19.4222 36.9967 19.6002L38.9813 19.3522ZM37.8752 17.4497C37.2079 16.8905 36.3723 16.6582 35.469 16.6582V18.6582C36.0297 18.6582 36.3701 18.7978 36.5908 18.9827L37.8752 17.4497ZM35.469 16.6582C34.6036 16.6582 33.8031 16.8897 33.1548 17.43L34.4352 18.9664C34.6509 18.7867 34.9664 18.6582 35.469 18.6582V16.6582ZM33.1677 17.4194C32.4637 17.9865 32.147 18.7855 32.147 19.6742H34.147C34.147 19.2909 34.2623 19.1059 34.4223 18.9769L33.1677 17.4194ZM32.147 19.6742C32.147 20.3236 32.3315 20.9448 32.7724 21.4487L34.2776 20.1317C34.2145 20.0596 34.147 19.9368 34.147 19.6742H32.147ZM32.7878 21.4659C33.1527 21.8639 33.5915 22.1684 34.0923 22.3784L34.8657 20.534C34.6225 20.432 34.4253 20.2925 34.2622 20.1145L32.7878 21.4659ZM34.1279 22.3925C34.5508 22.5511 35.1161 22.728 35.8107 22.923L36.3513 20.9974C35.6779 20.8084 35.1752 20.6493 34.8301 20.5199L34.1279 22.3925ZM35.8155 22.9243C36.6175 23.1451 37.2287 23.3571 37.6668 23.5553L38.4912 21.7331C37.9213 21.4753 37.2005 21.2312 36.3465 20.9961L35.8155 22.9243ZM37.6851 23.5633C38.0199 23.7068 38.3184 23.9367 38.5824 24.2799L40.1676 23.0605C39.7116 22.4677 39.1461 22.0135 38.4729 21.725L37.6851 23.5633ZM38.5901 24.2898C38.7678 24.5149 38.915 24.8941 38.915 25.5422H40.915C40.915 24.6063 40.7022 23.7375 40.1599 23.0505L38.5901 24.2898ZM38.915 25.5422C38.915 25.9675 38.8051 26.3664 38.5715 26.7557L40.2865 27.7847C40.7009 27.094 40.915 26.3409 40.915 25.5422H38.915ZM38.5715 26.7557C38.3542 27.1179 38.0199 27.4369 37.5219 27.7L38.4561 29.4684C39.2301 29.0595 39.8558 28.5025 40.2865 27.7847L38.5715 26.7557ZM37.5219 27.7C37.0561 27.9461 36.4727 28.0882 35.739 28.0882V30.0882C36.7333 30.0882 37.6499 29.8943 38.4561 29.4684L37.5219 27.7ZM52.6935 16.4162L53.6291 16.7692L54.1396 15.4162H52.6935V16.4162ZM47.9595 28.9622V29.9622H48.6509L48.8951 29.3152L47.9595 28.9622ZM46.0695 28.9622L45.1338 29.3152L45.378 29.9622H46.0695V28.9622ZM41.3355 16.4162V15.4162H39.8893L40.3998 16.7692L41.3355 16.4162ZM43.0815 16.4162L44.021 16.0738L43.7814 15.4162H43.0815V16.4162ZM47.0235 27.2342L46.0839 27.5766L47.0235 30.155L47.963 27.5766L47.0235 27.2342ZM50.9655 16.4162V15.4162H50.2655L50.0259 16.0738L50.9655 16.4162ZM51.7578 16.0632L47.0238 28.6092L48.8951 29.3152L53.6291 16.7692L51.7578 16.0632ZM47.9595 27.9622H46.0695V29.9622H47.9595V27.9622ZM47.0051 28.6092L42.2711 16.0632L40.3998 16.7692L45.1338 29.3152L47.0051 28.6092ZM41.3355 17.4162H43.0815V15.4162H41.3355V17.4162ZM42.1419 16.7586L46.0839 27.5766L47.963 26.8918L44.021 16.0738L42.1419 16.7586ZM47.963 27.5766L51.905 16.7586L50.0259 16.0738L46.0839 26.8918L47.963 27.5766ZM50.9655 17.4162H52.6935V15.4162H50.9655V17.4162ZM64.8575 16.4162L65.7931 16.7692L66.3037 15.4162H64.8575V16.4162ZM60.1235 28.9622V29.9622H60.815L61.0591 29.3152L60.1235 28.9622ZM58.2335 28.9622L57.2979 29.3152L57.542 29.9622H58.2335V28.9622ZM53.4995 16.4162V15.4162H52.0534L52.5639 16.7692L53.4995 16.4162ZM55.2455 16.4162L56.1851 16.0738L55.9454 15.4162H55.2455V16.4162ZM59.1875 27.2342L58.248 27.5766L59.1875 30.155L60.1271 27.5766L59.1875 27.2342ZM63.1295 16.4162V15.4162H62.4296L62.19 16.0738L63.1295 16.4162ZM63.9219 16.0632L59.1879 28.6092L61.0591 29.3152L65.7931 16.7692L63.9219 16.0632ZM60.1235 27.9622H58.2335V29.9622H60.1235V27.9622ZM59.1691 28.6092L54.4351 16.0632L52.5639 16.7692L57.2979 29.3152L59.1691 28.6092ZM53.4995 17.4162H55.2455V15.4162H53.4995V17.4162ZM54.306 16.7586L58.248 27.5766L60.1271 26.8918L56.1851 16.0738L54.306 16.7586ZM60.1271 27.5766L64.0691 16.7586L62.19 16.0738L58.248 26.8918L60.1271 27.5766ZM63.1295 17.4162H64.8575V15.4162H63.1295V17.4162ZM74.3756 16.4162H75.3756V15.4162H74.3756V16.4162ZM74.3756 17.7482V18.7482H75.3756V17.7482H74.3756ZM70.9556 17.7482V16.7482H69.9556V17.7482H70.9556ZM70.9556 28.9622V29.9622H71.9556V28.9622H70.9556ZM69.3176 28.9622H68.3176V29.9622H69.3176V28.9622ZM69.3176 17.7482H70.3176V16.7482H69.3176V17.7482ZM65.8796 17.7482H64.8796V18.7482H65.8796V17.7482ZM65.8796 16.4162V15.4162H64.8796V16.4162H65.8796ZM73.3756 16.4162V17.7482H75.3756V16.4162H73.3756ZM74.3756 16.7482H70.9556V18.7482H74.3756V16.7482ZM69.9556 17.7482V28.9622H71.9556V17.7482H69.9556ZM70.9556 27.9622H69.3176V29.9622H70.9556V27.9622ZM70.3176 28.9622V17.7482H68.3176V28.9622H70.3176ZM69.3176 16.7482H65.8796V18.7482H69.3176V16.7482ZM66.8796 17.7482V16.4162H64.8796V17.7482H66.8796ZM65.8796 17.4162H74.3756V15.4162H65.8796V17.4162Z" fill="#443B3B"/>
<path d="M126.657 23.0002C126.657 22.6978 126.463 22.4378 126.181 22.3014L106.093 12.1442C105.94 12.0504 105.758 12.0001 105.572 12C105.329 12 105.096 12.0844 104.925 12.2345C104.753 12.3847 104.657 12.5884 104.657 12.8009C104.657 12.8319 104.663 12.8612 104.667 12.8912H104.657V33.2895H104.667C104.692 33.4846 104.798 33.6649 104.965 33.796C105.131 33.9271 105.347 33.9997 105.572 34C105.732 33.9993 105.889 33.9613 106.027 33.89L106.035 33.9025L126.205 23.7036L126.197 23.6911C126.337 23.6215 126.452 23.521 126.533 23.3997C126.614 23.2784 126.656 23.1406 126.657 23.0002Z" fill="#443B3B"/>
<defs>
<filter id="filter0_d" x="0.682617" y="0.60083" width="142.192" height="53.9874" filterUnits="userSpaceOnUse" color-interpolation-filters="sRGB">
<feFlood flood-opacity="0" result="BackgroundImageFix"/>
<feColorMatrix in="SourceAlpha" type="matrix" values="0 0 0 0 0 0 0 0 0 0 0 0 0 0 0 0 0 0 127 0"/>
<feOffset dy="4"/>
<feGaussianBlur stdDeviation="2"/>
<feColorMatrix type="matrix" values="0 0 0 0 0 0 0 0 0 0 0 0 0 0 0 0 0 0 0.25 0"/>
<feBlend mode="normal" in2="BackgroundImageFix" result="effect1_dropShadow"/>
<feBlend mode="normal" in="SourceGraphic" in2="effect1_dropShadow" result="shape"/>
</filter>
</defs>
</svg>
