<svg width="182" height="45" viewBox="0 0 210 63" fill="none" xmlns="http://www.w3.org/2000/svg">
<g filter="url(#filter0_d)">
<rect x="4" width="174" height="55" rx="27.5" fill="#9DF5B1"/>
</g>
<path d="M27.816 29.256C28.2213 29.32 28.5893 29.4853 28.92 29.752C29.2613 30.0187 29.528 30.3493 29.72 30.744C29.9227 31.1387 30.024 31.56 30.024 32.008C30.024 32.5733 29.88 33.0853 29.592 33.544C29.304 33.992 28.8827 34.3493 28.328 34.616C27.784 34.872 27.1387 35 26.392 35H22.232V23.848H26.232C26.9893 23.848 27.6347 23.976 28.168 24.232C28.7013 24.4773 29.1013 24.8133 29.368 25.24C29.6347 25.6667 29.768 26.1467 29.768 26.68C29.768 27.3413 29.5867 27.8907 29.224 28.328C28.872 28.7547 28.4027 29.064 27.816 29.256ZM23.688 28.664H26.136C26.8187 28.664 27.3467 28.504 27.72 28.184C28.0933 27.864 28.28 27.4213 28.28 26.856C28.28 26.2907 28.0933 25.848 27.72 25.528C27.3467 25.208 26.808 25.048 26.104 25.048H23.688V28.664ZM26.264 33.8C26.9893 33.8 27.5547 33.6293 27.96 33.288C28.3653 32.9467 28.568 32.472 28.568 31.864C28.568 31.2453 28.3547 30.76 27.928 30.408C27.5013 30.0453 26.9307 29.864 26.216 29.864H23.688V33.8H26.264ZM38.9085 23.848V25.032H35.8685V35H34.4125V25.032H31.3565V23.848H38.9085ZM44.2368 35.112C43.5008 35.112 42.8394 34.984 42.2528 34.728C41.6768 34.4613 41.2234 34.0987 40.8928 33.64C40.5621 33.1707 40.3914 32.632 40.3808 32.024H41.9328C41.9861 32.5467 42.1994 32.9893 42.5728 33.352C42.9568 33.704 43.5114 33.88 44.2368 33.88C44.9301 33.88 45.4741 33.7093 45.8688 33.368C46.2741 33.016 46.4768 32.568 46.4768 32.024C46.4768 31.5973 46.3594 31.2507 46.1248 30.984C45.8901 30.7173 45.5968 30.5147 45.2448 30.376C44.8928 30.2373 44.4181 30.088 43.8208 29.928C43.0848 29.736 42.4928 29.544 42.0448 29.352C41.6074 29.16 41.2288 28.8613 40.9088 28.456C40.5994 28.04 40.4448 27.4853 40.4448 26.792C40.4448 26.184 40.5994 25.6453 40.9088 25.176C41.2181 24.7067 41.6501 24.344 42.2048 24.088C42.7701 23.832 43.4154 23.704 44.1408 23.704C45.1861 23.704 46.0394 23.9653 46.7008 24.488C47.3728 25.0107 47.7514 25.704 47.8368 26.568H46.2368C46.1834 26.1413 45.9594 25.768 45.5648 25.448C45.1701 25.1173 44.6474 24.952 43.9968 24.952C43.3888 24.952 42.8928 25.112 42.5088 25.432C42.1248 25.7413 41.9328 26.1787 41.9328 26.744C41.9328 27.1493 42.0448 27.48 42.2688 27.736C42.5034 27.992 42.7861 28.1893 43.1168 28.328C43.4581 28.456 43.9328 28.6053 44.5408 28.776C45.2768 28.9787 45.8688 29.1813 46.3168 29.384C46.7648 29.576 47.1488 29.88 47.4688 30.296C47.7888 30.7013 47.9488 31.256 47.9488 31.96C47.9488 32.504 47.8048 33.016 47.5168 33.496C47.2288 33.976 46.8021 34.3653 46.2368 34.664C45.6714 34.9627 45.0048 35.112 44.2368 35.112ZM53.6274 35.112C52.8914 35.112 52.23 34.984 51.6434 34.728C51.0674 34.4613 50.614 34.0987 50.2834 33.64C49.9527 33.1707 49.782 32.632 49.7714 32.024H51.3234C51.3767 32.5467 51.59 32.9893 51.9634 33.352C52.3474 33.704 52.902 33.88 53.6274 33.88C54.3207 33.88 54.8647 33.7093 55.2594 33.368C55.6647 33.016 55.8674 32.568 55.8674 32.024C55.8674 31.5973 55.75 31.2507 55.5154 30.984C55.2807 30.7173 54.9874 30.5147 54.6354 30.376C54.2834 30.2373 53.8087 30.088 53.2114 29.928C52.4754 29.736 51.8834 29.544 51.4354 29.352C50.998 29.16 50.6194 28.8613 50.2994 28.456C49.99 28.04 49.8354 27.4853 49.8354 26.792C49.8354 26.184 49.99 25.6453 50.2994 25.176C50.6087 24.7067 51.0407 24.344 51.5954 24.088C52.1607 23.832 52.806 23.704 53.5314 23.704C54.5767 23.704 55.43 23.9653 56.0914 24.488C56.7634 25.0107 57.142 25.704 57.2274 26.568H55.6274C55.574 26.1413 55.35 25.768 54.9554 25.448C54.5607 25.1173 54.038 24.952 53.3874 24.952C52.7794 24.952 52.2834 25.112 51.8994 25.432C51.5154 25.7413 51.3234 26.1787 51.3234 26.744C51.3234 27.1493 51.4354 27.48 51.6594 27.736C51.894 27.992 52.1767 28.1893 52.5074 28.328C52.8487 28.456 53.3234 28.6053 53.9314 28.776C54.6674 28.9787 55.2594 29.1813 55.7074 29.384C56.1554 29.576 56.5394 29.88 56.8594 30.296C57.1794 30.7013 57.3394 31.256 57.3394 31.96C57.3394 32.504 57.1954 33.016 56.9074 33.496C56.6194 33.976 56.1927 34.3653 55.6274 34.664C55.062 34.9627 54.3954 35.112 53.6274 35.112ZM64.042 29.432L67.466 35H65.818L63.146 30.648L60.602 35H58.986L62.394 29.432L58.97 23.848H60.602L63.29 28.216L65.85 23.848H67.482L64.042 29.432ZM73.9795 29.432L77.4035 35H75.7555L73.0835 30.648L70.5395 35H68.9235L72.3315 29.432L68.9075 23.848H70.5395L73.2275 28.216L75.7875 23.848H77.4195L73.9795 29.432ZM86.221 23.848V25.032H83.181V35H81.725V25.032H78.669V23.848H86.221ZM97.2293 23.848L93.0213 35H91.3413L87.1333 23.848H88.6853L92.1893 33.464L95.6933 23.848H97.2293ZM108.042 23.848L103.834 35H102.154L97.9458 23.848H99.4978L103.002 33.464L106.506 23.848H108.042ZM111.094 25.032V28.76H115.158V29.96H111.094V33.8H115.638V35H109.638V23.832H115.638V25.032H111.094Z" fill="#443B3B"/>
<path d="M27.816 29.256L27.505 28.3056L27.66 30.2438L27.816 29.256ZM28.92 29.752L28.2922 30.5304L28.2983 30.5353L28.3044 30.54L28.92 29.752ZM29.72 30.744L28.8208 31.1815L28.8255 31.1912L28.8304 31.2008L29.72 30.744ZM29.592 33.544L30.4332 34.0848L30.4389 34.0758L29.592 33.544ZM28.328 34.616L28.7538 35.5208L28.7613 35.5173L28.328 34.616ZM22.232 35H21.232V36H22.232V35ZM22.232 23.848V22.848H21.232V23.848H22.232ZM28.168 24.232L27.7353 25.1335L27.7427 25.1371L27.7501 25.1405L28.168 24.232ZM29.368 25.24L28.52 25.77L28.52 25.77L29.368 25.24ZM29.224 28.328L28.4542 27.6897L28.4526 27.6916L29.224 28.328ZM23.688 28.664H22.688V29.664H23.688V28.664ZM27.72 25.528L27.0692 26.2873L27.0692 26.2873L27.72 25.528ZM23.688 25.048V24.048H22.688V25.048H23.688ZM27.96 33.288L28.6041 34.0529H28.6041L27.96 33.288ZM27.928 30.408L27.2804 31.1699L27.286 31.1747L27.2916 31.1794L27.928 30.408ZM23.688 29.864V28.864H22.688V29.864H23.688ZM23.688 33.8H22.688V34.8H23.688V33.8ZM27.66 30.2438C27.8863 30.2795 28.0928 30.3696 28.2922 30.5304L29.5478 28.9736C29.0859 28.6011 28.5564 28.3605 27.972 28.2682L27.66 30.2438ZM28.3044 30.54C28.5241 30.7117 28.6945 30.9218 28.8208 31.1815L30.6192 30.3065C30.3615 29.7768 29.9986 29.3257 29.5356 28.964L28.3044 30.54ZM28.8304 31.2008C28.9598 31.4527 29.024 31.7173 29.024 32.008H31.024C31.024 31.4027 30.8855 30.8246 30.6096 30.2872L28.8304 31.2008ZM29.024 32.008C29.024 32.3939 28.9286 32.7201 28.7451 33.0122L30.4389 34.0758C30.8314 33.4506 31.024 32.7528 31.024 32.008H29.024ZM28.7508 33.0032C28.5776 33.2727 28.3091 33.5155 27.8947 33.7147L28.7613 35.5173C29.4562 35.1831 30.0304 34.7113 30.4332 34.0848L28.7508 33.0032ZM27.9022 33.7112C27.5196 33.8912 27.0262 34 26.392 34V36C27.2512 36 28.0484 35.8528 28.7538 35.5208L27.9022 33.7112ZM26.392 34H22.232V36H26.392V34ZM23.232 35V23.848H21.232V35H23.232ZM22.232 24.848H26.232V22.848H22.232V24.848ZM26.232 24.848C26.8801 24.848 27.3693 24.9579 27.7353 25.1335L28.6007 23.3305C27.9 22.9941 27.0986 22.848 26.232 22.848V24.848ZM27.7501 25.1405C28.1364 25.3182 28.373 25.5348 28.52 25.77L30.216 24.71C29.8296 24.0918 29.2662 23.6365 28.5859 23.3235L27.7501 25.1405ZM28.52 25.77C28.6813 26.0281 28.768 26.3223 28.768 26.68H30.768C30.768 25.971 30.588 25.3053 30.216 24.71L28.52 25.77ZM28.768 26.68C28.768 27.1484 28.6443 27.4605 28.4542 27.6897L29.9938 28.9663C30.529 28.3209 30.768 27.5342 30.768 26.68H28.768ZM28.4526 27.6916C28.2349 27.9555 27.9331 28.1655 27.505 28.3056L28.127 30.2064C28.8722 29.9625 29.5091 29.5538 29.9954 28.9644L28.4526 27.6916ZM23.688 29.664H26.136V27.664H23.688V29.664ZM26.136 29.664C26.9651 29.664 27.7567 29.4696 28.3708 28.9433L27.0692 27.4247C26.9367 27.5384 26.6722 27.664 26.136 27.664V29.664ZM28.3708 28.9433C29.0002 28.4038 29.28 27.6646 29.28 26.856H27.28C27.28 27.178 27.1865 27.3242 27.0692 27.4247L28.3708 28.9433ZM29.28 26.856C29.28 26.0474 29.0002 25.3082 28.3708 24.7687L27.0692 26.2873C27.1865 26.3878 27.28 26.534 27.28 26.856H29.28ZM28.3708 24.7687C27.7517 24.2381 26.9453 24.048 26.104 24.048V26.048C26.6707 26.048 26.9416 26.1779 27.0692 26.2873L28.3708 24.7687ZM26.104 24.048H23.688V26.048H26.104V24.048ZM22.688 25.048V28.664H24.688V25.048H22.688ZM26.264 34.8C27.1383 34.8 27.9617 34.5939 28.6041 34.0529L27.3159 32.5231C27.1476 32.6648 26.8404 32.8 26.264 32.8V34.8ZM28.6041 34.0529C29.2698 33.4924 29.568 32.7184 29.568 31.864H27.568C27.568 32.2256 27.4609 32.401 27.3159 32.5231L28.6041 34.0529ZM29.568 31.864C29.568 30.9868 29.2504 30.2026 28.5644 29.6366L27.2916 31.1794C27.4589 31.3174 27.568 31.5039 27.568 31.864H29.568ZM28.5756 29.6461C27.9229 29.0912 27.1008 28.864 26.216 28.864V30.864C26.7605 30.864 27.0798 30.9995 27.2804 31.1699L28.5756 29.6461ZM26.216 28.864H23.688V30.864H26.216V28.864ZM22.688 29.864V33.8H24.688V29.864H22.688ZM23.688 34.8H26.264V32.8H23.688V34.8ZM38.9085 23.848H39.9085V22.848H38.9085V23.848ZM38.9085 25.032V26.032H39.9085V25.032H38.9085ZM35.8685 25.032V24.032H34.8685V25.032H35.8685ZM35.8685 35V36H36.8685V35H35.8685ZM34.4125 35H33.4125V36H34.4125V35ZM34.4125 25.032H35.4125V24.032H34.4125V25.032ZM31.3565 25.032H30.3565V26.032H31.3565V25.032ZM31.3565 23.848V22.848H30.3565V23.848H31.3565ZM37.9085 23.848V25.032H39.9085V23.848H37.9085ZM38.9085 24.032H35.8685V26.032H38.9085V24.032ZM34.8685 25.032V35H36.8685V25.032H34.8685ZM35.8685 34H34.4125V36H35.8685V34ZM35.4125 35V25.032H33.4125V35H35.4125ZM34.4125 24.032H31.3565V26.032H34.4125V24.032ZM32.3565 25.032V23.848H30.3565V25.032H32.3565ZM31.3565 24.848H38.9085V22.848H31.3565V24.848ZM42.2528 34.728L41.8326 35.6355L41.8427 35.6401L41.8528 35.6445L42.2528 34.728ZM40.8927 33.64L40.0752 34.216L40.0816 34.2248L40.8927 33.64ZM40.3808 32.024V31.024H39.3631L39.3809 32.0415L40.3808 32.024ZM41.9328 32.024L42.9276 31.9225L42.8359 31.024H41.9328V32.024ZM42.5728 33.352L41.876 34.0693L41.8864 34.0794L41.897 34.0892L42.5728 33.352ZM45.8687 33.368L46.5229 34.1244L46.5244 34.123L45.8687 33.368ZM46.1248 30.984L45.374 31.6446L46.1248 30.984ZM45.2448 30.376L44.8782 31.3064L44.8782 31.3064L45.2448 30.376ZM43.8208 29.928L44.0795 28.962L44.0732 28.9604L43.8208 29.928ZM42.0448 29.352L41.6427 30.2677L41.6508 30.2711L42.0448 29.352ZM40.9088 28.456L40.1063 29.0527L40.1149 29.0643L40.1239 29.0756L40.9088 28.456ZM40.9088 25.176L41.7437 25.7263V25.7263L40.9088 25.176ZM42.2048 24.088L41.7922 23.177L41.7857 23.18L42.2048 24.088ZM46.7008 24.488L46.0807 25.2726L46.0868 25.2774L46.7008 24.488ZM47.8368 26.568V27.568H48.9404L48.8319 26.4697L47.8368 26.568ZM46.2367 26.568L45.2445 26.692L45.354 27.568H46.2367V26.568ZM45.5648 25.448L44.9225 26.2145L44.9287 26.2197L44.9349 26.2248L45.5648 25.448ZM42.5088 25.432L43.1361 26.2108L43.1426 26.2055L43.1489 26.2002L42.5088 25.432ZM42.2687 27.736L41.5162 28.3945L41.5238 28.4032L41.5316 28.4117L42.2687 27.736ZM43.1168 28.328L42.73 29.2502L42.7477 29.2576L42.7656 29.2643L43.1168 28.328ZM44.5408 28.776L44.2705 29.7388L44.2753 29.7401L44.5408 28.776ZM46.3167 29.384L45.9046 30.2951L45.9137 30.2992L45.9228 30.3031L46.3167 29.384ZM47.4688 30.296L46.6761 30.9058L46.6839 30.9156L47.4688 30.296ZM47.5168 33.496L48.3742 34.0105L47.5168 33.496ZM46.2367 34.664L45.7696 33.7798L46.2367 34.664ZM44.2367 34.112C43.6179 34.112 43.0957 34.0048 42.6527 33.8115L41.8528 35.6445C42.5831 35.9632 43.3836 36.112 44.2367 36.112V34.112ZM42.6729 33.8205C42.2333 33.617 41.9223 33.3581 41.7039 33.0552L40.0816 34.2248C40.5246 34.8393 41.1202 35.3056 41.8326 35.6355L42.6729 33.8205ZM41.7102 33.064C41.5019 32.7683 41.388 32.4268 41.3806 32.0065L39.3809 32.0415C39.3949 32.8372 39.6223 33.573 40.0753 34.216L41.7102 33.064ZM40.3808 33.024H41.9328V31.024H40.3808V33.024ZM40.9379 32.1255C41.0149 32.8797 41.3323 33.5411 41.876 34.0693L43.2695 32.6347C43.0666 32.4376 42.9573 32.2137 42.9276 31.9225L40.9379 32.1255ZM41.897 34.0892C42.5271 34.6667 43.3598 34.88 44.2367 34.88V32.88C43.6631 32.88 43.3864 32.7413 43.2485 32.6148L41.897 34.0892ZM44.2367 34.88C45.0903 34.88 45.894 34.6683 46.5229 34.1244L45.2146 32.6116C45.0542 32.7504 44.7698 32.88 44.2367 32.88V34.88ZM46.5244 34.123C47.1518 33.5782 47.4767 32.8532 47.4767 32.024H45.4767C45.4767 32.2828 45.3964 32.4538 45.2131 32.613L46.5244 34.123ZM47.4767 32.024C47.4767 31.4055 47.3018 30.8078 46.8755 30.3234L45.374 31.6446C45.4171 31.6935 45.4767 31.7892 45.4767 32.024H47.4767ZM46.8755 30.3234C46.5292 29.9299 46.1011 29.6385 45.6113 29.4456L44.8782 31.3064C45.0924 31.3908 45.251 31.5048 45.374 31.6446L46.8755 30.3234ZM45.6113 29.4456C45.2091 29.2872 44.6936 29.1265 44.0795 28.9621L43.562 30.8939C44.1426 31.0495 44.5764 31.1875 44.8782 31.3064L45.6113 29.4456ZM44.0732 28.9604C43.3619 28.7748 42.8228 28.5975 42.4387 28.4329L41.6508 30.2711C42.1627 30.4905 42.8076 30.6972 43.5683 30.8956L44.0732 28.9604ZM42.4467 28.4364C42.1714 28.3155 41.9206 28.1239 41.6936 27.8364L40.1239 29.0756C40.5369 29.5988 41.0435 30.0045 41.6428 30.2676L42.4467 28.4364ZM41.7112 27.8593C41.5673 27.6657 41.4447 27.3423 41.4447 26.792H39.4447C39.4447 27.6284 39.6316 28.4143 40.1063 29.0527L41.7112 27.8593ZM41.4447 26.792C41.4447 26.3629 41.5509 26.0189 41.7437 25.7263L40.0738 24.6257C39.648 25.2718 39.4447 26.0051 39.4447 26.792H41.4447ZM41.7437 25.7263C41.9416 25.4261 42.2232 25.1809 42.6238 24.996L41.7857 23.18C41.077 23.5071 40.4946 23.9873 40.0738 24.6257L41.7437 25.7263ZM42.6173 24.999C43.0329 24.8107 43.5339 24.704 44.1408 24.704V22.704C43.2969 22.704 42.5072 22.8533 41.7922 23.177L42.6173 24.999ZM44.1408 24.704C45.0164 24.704 45.6349 24.9203 46.0807 25.2726L47.3208 23.7034C46.4439 23.0104 45.3558 22.704 44.1408 22.704V24.704ZM46.0868 25.2774C46.5376 25.6279 46.7826 26.069 46.8416 26.6663L48.8319 26.4697C48.7202 25.3389 48.2079 24.3934 47.3147 23.6986L46.0868 25.2774ZM47.8368 25.568H46.2367V27.568H47.8368V25.568ZM47.229 26.444C47.1379 25.7153 46.7508 25.1223 46.1946 24.6712L44.9349 26.2248C45.168 26.4137 45.2289 26.5673 45.2445 26.692L47.229 26.444ZM46.207 24.6815C45.5889 24.1637 44.8187 23.952 43.9967 23.952V25.952C44.4761 25.952 44.7512 26.071 44.9225 26.2145L46.207 24.6815ZM43.9967 23.952C43.2073 23.952 42.4689 24.1635 41.8686 24.6638L43.1489 26.2002C43.3166 26.0605 43.5702 25.952 43.9967 25.952V23.952ZM41.8814 24.6532C41.2255 25.1816 40.9328 25.926 40.9328 26.744H42.9328C42.9328 26.4314 43.024 26.301 43.1361 26.2108L41.8814 24.6532ZM40.9328 26.744C40.9328 27.3428 41.1032 27.9226 41.5162 28.3945L43.0213 27.0775C42.9863 27.0374 42.9328 26.9559 42.9328 26.744H40.9328ZM41.5316 28.4117C41.8671 28.7777 42.2706 29.0575 42.73 29.2502L43.5035 27.4058C43.3016 27.3211 43.1397 27.2063 43.0059 27.0603L41.5316 28.4117ZM42.7656 29.2643C43.1459 29.4069 43.6518 29.5651 44.2705 29.7388L44.811 27.8132C44.2137 27.6455 43.7703 27.5051 43.4679 27.3917L42.7656 29.2643ZM44.2753 29.7401C44.9853 29.9356 45.5224 30.1222 45.9046 30.2951L46.7289 28.4729C46.2151 28.2404 45.5682 28.0217 44.8062 27.8119L44.2753 29.7401ZM45.9228 30.3031C46.2017 30.4226 46.4521 30.6145 46.6761 30.9057L48.2614 29.6863C47.8454 29.1455 47.3278 28.7294 46.7107 28.4649L45.9228 30.3031ZM46.6839 30.9156C46.8215 31.09 46.9487 31.3999 46.9487 31.96H48.9487C48.9487 31.1121 48.756 30.3127 48.2536 29.6764L46.6839 30.9156ZM46.9487 31.96C46.9487 32.3173 46.8568 32.6522 46.6593 32.9815L48.3742 34.0105C48.7527 33.3798 48.9487 32.6907 48.9487 31.96H46.9487ZM46.6593 32.9815C46.4779 33.2837 46.197 33.554 45.7696 33.7798L46.7039 35.5482C47.4072 35.1766 47.9796 34.6683 48.3742 34.0105L46.6593 32.9815ZM45.7696 33.7798C45.3745 33.9885 44.8745 34.112 44.2367 34.112V36.112C45.135 36.112 45.9683 35.9368 46.7039 35.5482L45.7696 33.7798ZM51.6434 34.728L51.2233 35.6355L51.2333 35.6401L51.2434 35.6445L51.6434 34.728ZM50.2834 33.64L49.4658 34.216L49.4722 34.2248L50.2834 33.64ZM49.7714 32.024V31.024H48.7537L48.7715 32.0415L49.7714 32.024ZM51.3234 32.024L52.3182 31.9225L52.2265 31.024H51.3234V32.024ZM51.9634 33.352L51.2666 34.0693L51.277 34.0794L51.2877 34.0892L51.9634 33.352ZM55.2594 33.368L55.9135 34.1244L55.9151 34.123L55.2594 33.368ZM55.5154 30.984L54.7647 31.6446L55.5154 30.984ZM54.6354 30.376L54.2689 31.3064V31.3064L54.6354 30.376ZM53.2114 29.928L53.4701 28.962L53.4638 28.9604L53.2114 29.928ZM51.4354 29.352L51.0334 30.2677L51.0415 30.2711L51.4354 29.352ZM50.2994 28.456L49.4969 29.0527L49.5055 29.0643L49.5145 29.0756L50.2994 28.456ZM50.2994 25.176L51.1343 25.7263V25.7263L50.2994 25.176ZM51.5954 24.088L51.1829 23.177L51.1763 23.18L51.5954 24.088ZM56.0914 24.488L55.4713 25.2726L55.4774 25.2774L56.0914 24.488ZM57.2274 26.568V27.568H58.331L58.2225 26.4697L57.2274 26.568ZM55.6274 26.568L54.6351 26.692L54.7446 27.568H55.6274V26.568ZM54.9554 25.448L54.3132 26.2145L54.3193 26.2197L54.3256 26.2248L54.9554 25.448ZM51.8994 25.432L52.5267 26.2108L52.5332 26.2055L52.5396 26.2002L51.8994 25.432ZM51.6594 27.736L50.9068 28.3945L50.9144 28.4032L50.9222 28.4117L51.6594 27.736ZM52.5074 28.328L52.1206 29.2502L52.1383 29.2576L52.1563 29.2643L52.5074 28.328ZM53.9314 28.776L53.6611 29.7388L53.6659 29.7401L53.9314 28.776ZM55.7074 29.384L55.2952 30.2951L55.3043 30.2992L55.3135 30.3031L55.7074 29.384ZM56.8594 30.296L56.0667 30.9058L56.0745 30.9156L56.8594 30.296ZM56.9074 33.496L57.7649 34.0105L56.9074 33.496ZM55.6274 34.664L55.1603 33.7798L55.6274 34.664ZM53.6274 34.112C53.0085 34.112 52.4863 34.0048 52.0433 33.8115L51.2434 35.6445C51.9738 35.9632 52.7742 36.112 53.6274 36.112V34.112ZM52.0635 33.8205C51.6239 33.617 51.3129 33.3581 51.0946 33.0552L49.4722 34.2248C49.9152 34.8393 50.5108 35.3056 51.2233 35.6355L52.0635 33.8205ZM51.1009 33.064C50.8925 32.7683 50.7786 32.4268 50.7712 32.0065L48.7715 32.0415C48.7855 32.8372 49.0129 33.573 49.4659 34.216L51.1009 33.064ZM49.7714 33.024H51.3234V31.024H49.7714V33.024ZM50.3285 32.1255C50.4055 32.8797 50.7229 33.5411 51.2666 34.0693L52.6602 32.6347C52.4572 32.4376 52.3479 32.2137 52.3182 31.9225L50.3285 32.1255ZM51.2877 34.0892C51.9177 34.6667 52.7504 34.88 53.6274 34.88V32.88C53.0537 32.88 52.777 32.7413 52.6391 32.6148L51.2877 34.0892ZM53.6274 34.88C54.481 34.88 55.2846 34.6683 55.9135 34.1244L54.6052 32.6116C54.4448 32.7504 54.1604 32.88 53.6274 32.88V34.88ZM55.9151 34.123C56.5424 33.5782 56.8674 32.8532 56.8674 32.024H54.8674C54.8674 32.2828 54.787 32.4538 54.6037 32.613L55.9151 34.123ZM56.8674 32.024C56.8674 31.4055 56.6924 30.8078 56.2661 30.3234L54.7647 31.6446C54.8077 31.6935 54.8674 31.7892 54.8674 32.024H56.8674ZM56.2661 30.3234C55.9198 29.9299 55.4917 29.6385 55.0019 29.4456L54.2689 31.3064C54.4831 31.3908 54.6416 31.5048 54.7647 31.6446L56.2661 30.3234ZM55.0019 29.4456C54.5997 29.2872 54.0842 29.1265 53.4701 28.9621L52.9526 30.8939C53.5332 31.0495 53.967 31.1875 54.2689 31.3064L55.0019 29.4456ZM53.4638 28.9604C52.7525 28.7748 52.2134 28.5975 51.8293 28.4329L51.0415 30.2711C51.5533 30.4905 52.1982 30.6972 52.959 30.8956L53.4638 28.9604ZM51.8374 28.4364C51.562 28.3155 51.3112 28.1239 51.0843 27.8364L49.5145 29.0756C49.9275 29.5988 50.4341 30.0045 51.0334 30.2676L51.8374 28.4364ZM51.1018 27.8593C50.9579 27.6657 50.8354 27.3423 50.8354 26.792H48.8354C48.8354 27.6284 49.0222 28.4143 49.4969 29.0527L51.1018 27.8593ZM50.8354 26.792C50.8354 26.3629 50.9415 26.0189 51.1343 25.7263L49.4644 24.6257C49.0386 25.2718 48.8354 26.0051 48.8354 26.792H50.8354ZM51.1343 25.7263C51.3322 25.4261 51.6138 25.1809 52.0144 24.996L51.1763 23.18C50.4676 23.5071 49.8852 23.9873 49.4644 24.6257L51.1343 25.7263ZM52.0079 24.999C52.4236 24.8107 52.9245 24.704 53.5314 24.704V22.704C52.6876 22.704 51.8979 22.8533 51.1829 23.177L52.0079 24.999ZM53.5314 24.704C54.407 24.704 55.0256 24.9203 55.4713 25.2726L56.7114 23.7034C55.8345 23.0104 54.7464 22.704 53.5314 22.704V24.704ZM55.4774 25.2774C55.9282 25.6279 56.1732 26.069 56.2322 26.6663L58.2225 26.4697C58.1109 25.3389 57.5986 24.3934 56.7053 23.6986L55.4774 25.2774ZM57.2274 25.568H55.6274V27.568H57.2274V25.568ZM56.6197 26.444C56.5286 25.7153 56.1415 25.1223 55.5852 24.6712L54.3256 26.2248C54.5586 26.4137 54.6195 26.5673 54.6351 26.692L56.6197 26.444ZM55.5976 24.6815C54.9796 24.1637 54.2094 23.952 53.3874 23.952V25.952C53.8667 25.952 54.1418 26.071 54.3132 26.2145L55.5976 24.6815ZM53.3874 23.952C52.598 23.952 51.8595 24.1635 51.2592 24.6638L52.5396 26.2002C52.7072 26.0605 52.9608 25.952 53.3874 25.952V23.952ZM51.272 24.6532C50.6161 25.1816 50.3234 25.926 50.3234 26.744H52.3234C52.3234 26.4314 52.4146 26.301 52.5267 26.2108L51.272 24.6532ZM50.3234 26.744C50.3234 27.3428 50.4938 27.9226 50.9068 28.3945L52.412 27.0775C52.3769 27.0374 52.3234 26.9559 52.3234 26.744H50.3234ZM50.9222 28.4117C51.2577 28.7777 51.6612 29.0575 52.1206 29.2502L52.8941 27.4058C52.6922 27.3211 52.5304 27.2063 52.3965 27.0603L50.9222 28.4117ZM52.1563 29.2643C52.5365 29.4069 53.0424 29.5651 53.6611 29.7388L54.2016 27.8132C53.6043 27.6455 53.1609 27.5051 52.8585 27.3917L52.1563 29.2643ZM53.6659 29.7401C54.3759 29.9356 54.913 30.1222 55.2952 30.2951L56.1195 28.4729C55.6057 28.2404 54.9589 28.0217 54.1969 27.8119L53.6659 29.7401ZM55.3135 30.3031C55.5923 30.4226 55.8428 30.6145 56.0667 30.9057L57.652 29.6863C57.236 29.1455 56.7185 28.7294 56.1013 28.4649L55.3135 30.3031ZM56.0745 30.9156C56.2121 31.09 56.3394 31.3999 56.3394 31.96H58.3394C58.3394 31.1121 58.1466 30.3127 57.6443 29.6764L56.0745 30.9156ZM56.3394 31.96C56.3394 32.3173 56.2475 32.6522 56.0499 32.9815L57.7649 34.0105C58.1433 33.3798 58.3394 32.6907 58.3394 31.96H56.3394ZM56.0499 32.9815C55.8686 33.2837 55.5876 33.554 55.1603 33.7798L56.0945 35.5482C56.7978 35.1766 57.3702 34.6683 57.7649 34.0105L56.0499 32.9815ZM55.1603 33.7798C54.7651 33.9885 54.2651 34.112 53.6274 34.112V36.112C54.5257 36.112 55.3589 35.9368 56.0945 35.5482L55.1603 33.7798ZM64.042 29.432L63.1906 28.9075L62.8678 29.4315L63.1902 29.9558L64.042 29.432ZM67.466 35V36H69.2549L68.3178 34.4762L67.466 35ZM65.818 35L64.9658 35.5232L65.2585 36H65.818V35ZM63.146 30.648L63.9982 30.1248L63.125 28.7025L62.2827 30.1433L63.146 30.648ZM60.602 35V36H61.1758L61.4653 35.5047L60.602 35ZM58.986 35L58.1331 34.478L57.2015 36H58.986V35ZM62.394 29.432L63.2469 29.954L63.5667 29.4315L63.2465 28.9093L62.394 29.432ZM58.97 23.848V22.848H57.1838L58.1175 24.3707L58.97 23.848ZM60.602 23.848L61.4537 23.3239L61.1608 22.848H60.602V23.848ZM63.29 28.216L62.4383 28.7401L63.3109 30.158L64.1527 28.7216L63.29 28.216ZM65.85 23.848V22.848H65.277L64.9873 23.3424L65.85 23.848ZM67.482 23.848L68.3334 24.3725L69.2726 22.848H67.482V23.848ZM63.1902 29.9558L66.6142 35.5238L68.3178 34.4762L64.8938 28.9082L63.1902 29.9558ZM67.466 34H65.818V36H67.466V34ZM66.6702 34.4768L63.9982 30.1248L62.2938 31.1712L64.9658 35.5232L66.6702 34.4768ZM62.2827 30.1433L59.7387 34.4953L61.4653 35.5047L64.0093 31.1527L62.2827 30.1433ZM60.602 34H58.986V36H60.602V34ZM59.8389 35.522L63.2469 29.954L61.5411 28.91L58.1331 34.478L59.8389 35.522ZM63.2465 28.9093L59.8225 23.3253L58.1175 24.3707L61.5415 29.9547L63.2465 28.9093ZM58.97 24.848H60.602V22.848H58.97V24.848ZM59.7503 24.3721L62.4383 28.7401L64.1417 27.6919L61.4537 23.3239L59.7503 24.3721ZM64.1527 28.7216L66.7127 24.3536L64.9873 23.3424L62.4273 27.7104L64.1527 28.7216ZM65.85 24.848H67.482V22.848H65.85V24.848ZM66.6306 23.3235L63.1906 28.9075L64.8934 29.9565L68.3334 24.3725L66.6306 23.3235ZM73.9795 29.432L73.1281 28.9075L72.8053 29.4315L73.1277 29.9558L73.9795 29.432ZM77.4035 35V36H79.1924L78.2553 34.4762L77.4035 35ZM75.7555 35L74.9033 35.5232L75.196 36H75.7555V35ZM73.0835 30.648L73.9357 30.1248L73.0625 28.7025L72.2202 30.1433L73.0835 30.648ZM70.5395 35V36H71.1133L71.4028 35.5047L70.5395 35ZM68.9235 35L68.0706 34.478L67.139 36H68.9235V35ZM72.3315 29.432L73.1844 29.954L73.5042 29.4315L73.184 28.9093L72.3315 29.432ZM68.9075 23.848V22.848H67.1213L68.055 24.3707L68.9075 23.848ZM70.5395 23.848L71.3912 23.3239L71.0983 22.848H70.5395V23.848ZM73.2275 28.216L72.3758 28.7401L73.2484 30.158L74.0902 28.7216L73.2275 28.216ZM75.7875 23.848V22.848H75.2145L74.9248 23.3424L75.7875 23.848ZM77.4195 23.848L78.2709 24.3725L79.2101 22.848H77.4195V23.848ZM73.1277 29.9558L76.5517 35.5238L78.2553 34.4762L74.8313 28.9082L73.1277 29.9558ZM77.4035 34H75.7555V36H77.4035V34ZM76.6077 34.4768L73.9357 30.1248L72.2313 31.1712L74.9033 35.5232L76.6077 34.4768ZM72.2202 30.1433L69.6762 34.4953L71.4028 35.5047L73.9468 31.1527L72.2202 30.1433ZM70.5395 34H68.9235V36H70.5395V34ZM69.7764 35.522L73.1844 29.954L71.4786 28.91L68.0706 34.478L69.7764 35.522ZM73.184 28.9093L69.76 23.3253L68.055 24.3707L71.479 29.9547L73.184 28.9093ZM68.9075 24.848H70.5395V22.848H68.9075V24.848ZM69.6878 24.3721L72.3758 28.7401L74.0792 27.6919L71.3912 23.3239L69.6878 24.3721ZM74.0902 28.7216L76.6502 24.3536L74.9248 23.3424L72.3648 27.7104L74.0902 28.7216ZM75.7875 24.848H77.4195V22.848H75.7875V24.848ZM76.5681 23.3235L73.1281 28.9075L74.8309 29.9565L78.2709 24.3725L76.5681 23.3235ZM86.221 23.848H87.221V22.848H86.221V23.848ZM86.221 25.032V26.032H87.221V25.032H86.221ZM83.181 25.032V24.032H82.181V25.032H83.181ZM83.181 35V36H84.181V35H83.181ZM81.725 35H80.725V36H81.725V35ZM81.725 25.032H82.725V24.032H81.725V25.032ZM78.669 25.032H77.669V26.032H78.669V25.032ZM78.669 23.848V22.848H77.669V23.848H78.669ZM85.221 23.848V25.032H87.221V23.848H85.221ZM86.221 24.032H83.181V26.032H86.221V24.032ZM82.181 25.032V35H84.181V25.032H82.181ZM83.181 34H81.725V36H83.181V34ZM82.725 35V25.032H80.725V35H82.725ZM81.725 24.032H78.669V26.032H81.725V24.032ZM79.669 25.032V23.848H77.669V25.032H79.669ZM78.669 24.848H86.221V22.848H78.669V24.848ZM97.2292 23.848L98.1649 24.201L98.6754 22.848H97.2292V23.848ZM93.0212 35V36H93.7127L93.9569 35.353L93.0212 35ZM91.3412 35L90.4056 35.353L90.6498 36H91.3412V35ZM87.1332 23.848V22.848H85.6871L86.1976 24.201L87.1332 23.848ZM88.6852 23.848L89.6248 23.5056L89.3852 22.848H88.6852V23.848ZM92.1892 33.464L91.2497 33.8064L92.1892 36.3848L93.1288 33.8064L92.1892 33.464ZM95.6933 23.848V22.848H94.9933L94.7537 23.5056L95.6933 23.848ZM96.2936 23.495L92.0856 34.647L93.9569 35.353L98.1649 24.201L96.2936 23.495ZM93.0212 34H91.3412V36H93.0212V34ZM92.2769 34.647L88.0689 23.495L86.1976 24.201L90.4056 35.353L92.2769 34.647ZM87.1332 24.848H88.6852V22.848H87.1332V24.848ZM87.7457 24.1904L91.2497 33.8064L93.1288 33.1216L89.6248 23.5056L87.7457 24.1904ZM93.1288 33.8064L96.6328 24.1904L94.7537 23.5056L91.2497 33.1216L93.1288 33.8064ZM95.6933 24.848H97.2292V22.848H95.6933V24.848ZM108.042 23.848L108.977 24.201L109.488 22.848H108.042V23.848ZM103.834 35V36H104.525L104.769 35.353L103.834 35ZM102.154 35L101.218 35.353L101.462 36H102.154V35ZM97.9457 23.848V22.848H96.4996L97.0101 24.201L97.9457 23.848ZM99.4977 23.848L100.437 23.5056L100.198 22.848H99.4977V23.848ZM103.002 33.464L102.062 33.8064L103.002 36.3848L103.941 33.8064L103.002 33.464ZM106.506 23.848V22.848H105.806L105.566 23.5056L106.506 23.848ZM107.106 23.495L102.898 34.647L104.769 35.353L108.977 24.201L107.106 23.495ZM103.834 34H102.154V36H103.834V34ZM103.089 34.647L98.8814 23.495L97.0101 24.201L101.218 35.353L103.089 34.647ZM97.9457 24.848H99.4977V22.848H97.9457V24.848ZM98.5582 24.1904L102.062 33.8064L103.941 33.1216L100.437 23.5056L98.5582 24.1904ZM103.941 33.8064L107.445 24.1904L105.566 23.5056L102.062 33.1216L103.941 33.8064ZM106.506 24.848H108.042V22.848H106.506V24.848ZM111.094 25.032V24.032H110.094V25.032H111.094ZM111.094 28.76H110.094V29.76H111.094V28.76ZM115.158 28.76H116.158V27.76H115.158V28.76ZM115.158 29.96V30.96H116.158V29.96H115.158ZM111.094 29.96V28.96H110.094V29.96H111.094ZM111.094 33.8H110.094V34.8H111.094V33.8ZM115.638 33.8H116.638V32.8H115.638V33.8ZM115.638 35V36H116.638V35H115.638ZM109.638 35H108.638V36H109.638V35ZM109.638 23.832V22.832H108.638V23.832H109.638ZM115.638 23.832H116.638V22.832H115.638V23.832ZM115.638 25.032V26.032H116.638V25.032H115.638ZM110.094 25.032V28.76H112.094V25.032H110.094ZM111.094 29.76H115.158V27.76H111.094V29.76ZM114.158 28.76V29.96H116.158V28.76H114.158ZM115.158 28.96H111.094V30.96H115.158V28.96ZM110.094 29.96V33.8H112.094V29.96H110.094ZM111.094 34.8H115.638V32.8H111.094V34.8ZM114.638 33.8V35H116.638V33.8H114.638ZM115.638 34H109.638V36H115.638V34ZM110.638 35V23.832H108.638V35H110.638ZM109.638 24.832H115.638V22.832H109.638V24.832ZM114.638 23.832V25.032H116.638V23.832H114.638ZM115.638 24.032H111.094V26.032H115.638V24.032Z" fill="#443B3B"/>
<path d="M156 30.0002C156 29.5879 155.745 29.2334 155.373 29.0474L128.893 15.1967C128.692 15.0688 128.452 15.0001 128.206 15C127.886 15 127.58 15.115 127.353 15.3198C127.127 15.5246 127 15.8024 127 16.0921C127 16.1344 127.009 16.1744 127.014 16.2152H127V44.0311H127.014C127.046 44.2971 127.186 44.543 127.406 44.7218C127.626 44.9005 127.91 44.9996 128.206 45C128.417 44.999 128.624 44.9473 128.806 44.85L128.817 44.8671L155.405 30.9594L155.394 30.9424C155.578 30.8475 155.731 30.7105 155.837 30.5451C155.943 30.3796 156 30.1917 156 30.0002Z" fill="#443B3B"/>
<defs>
<filter id="filter0_d" x="0" y="0" width="182" height="63" filterUnits="userSpaceOnUse" color-interpolation-filters="sRGB">
<feFlood flood-opacity="0" result="BackgroundImageFix"/>
<feColorMatrix in="SourceAlpha" type="matrix" values="0 0 0 0 0 0 0 0 0 0 0 0 0 0 0 0 0 0 127 0"/>
<feOffset dy="4"/>
<feGaussianBlur stdDeviation="2"/>
<feColorMatrix type="matrix" values="0 0 0 0 0 0 0 0 0 0 0 0 0 0 0 0 0 0 0.25 0"/>
<feBlend mode="normal" in2="BackgroundImageFix" result="effect1_dropShadow"/>
<feBlend mode="normal" in="SourceGraphic" in2="effect1_dropShadow" result="shape"/>
</filter>
</defs>
</svg>
