<svg width="182" height="45" viewBox="0 0 216 63" fill="none" xmlns="http://www.w3.org/2000/svg">
<g filter="url(#filter0_d)">
<rect x="4" width="174" height="55" rx="27.5" fill="#9DF5B1"/>
</g>
<path d="M27.816 26.256C28.2213 26.32 28.5893 26.4853 28.92 26.752C29.2613 27.0187 29.528 27.3493 29.72 27.744C29.9227 28.1387 30.024 28.56 30.024 29.008C30.024 29.5733 29.88 30.0853 29.592 30.544C29.304 30.992 28.8827 31.3493 28.328 31.616C27.784 31.872 27.1387 32 26.392 32H22.232V20.848H26.232C26.9893 20.848 27.6347 20.976 28.168 21.232C28.7013 21.4773 29.1013 21.8133 29.368 22.24C29.6347 22.6667 29.768 23.1467 29.768 23.68C29.768 24.3413 29.5867 24.8907 29.224 25.328C28.872 25.7547 28.4027 26.064 27.816 26.256ZM23.688 25.664H26.136C26.8187 25.664 27.3467 25.504 27.72 25.184C28.0933 24.864 28.28 24.4213 28.28 23.856C28.28 23.2907 28.0933 22.848 27.72 22.528C27.3467 22.208 26.808 22.048 26.104 22.048H23.688V25.664ZM26.264 30.8C26.9893 30.8 27.5547 30.6293 27.96 30.288C28.3653 29.9467 28.568 29.472 28.568 28.864C28.568 28.2453 28.3547 27.76 27.928 27.408C27.5013 27.0453 26.9307 26.864 26.216 26.864H23.688V30.8H26.264ZM38.9085 20.848V22.032H35.8685V32H34.4125V22.032H31.3565V20.848H38.9085ZM44.2368 32.112C43.5008 32.112 42.8394 31.984 42.2528 31.728C41.6768 31.4613 41.2234 31.0987 40.8928 30.64C40.5621 30.1707 40.3914 29.632 40.3808 29.024H41.9328C41.9861 29.5467 42.1994 29.9893 42.5728 30.352C42.9568 30.704 43.5114 30.88 44.2368 30.88C44.9301 30.88 45.4741 30.7093 45.8688 30.368C46.2741 30.016 46.4768 29.568 46.4768 29.024C46.4768 28.5973 46.3594 28.2507 46.1248 27.984C45.8901 27.7173 45.5968 27.5147 45.2448 27.376C44.8928 27.2373 44.4181 27.088 43.8208 26.928C43.0848 26.736 42.4928 26.544 42.0448 26.352C41.6074 26.16 41.2288 25.8613 40.9088 25.456C40.5994 25.04 40.4448 24.4853 40.4448 23.792C40.4448 23.184 40.5994 22.6453 40.9088 22.176C41.2181 21.7067 41.6501 21.344 42.2048 21.088C42.7701 20.832 43.4154 20.704 44.1408 20.704C45.1861 20.704 46.0394 20.9653 46.7008 21.488C47.3728 22.0107 47.7514 22.704 47.8368 23.568H46.2368C46.1834 23.1413 45.9594 22.768 45.5648 22.448C45.1701 22.1173 44.6474 21.952 43.9968 21.952C43.3888 21.952 42.8928 22.112 42.5088 22.432C42.1248 22.7413 41.9328 23.1787 41.9328 23.744C41.9328 24.1493 42.0448 24.48 42.2688 24.736C42.5034 24.992 42.7861 25.1893 43.1168 25.328C43.4581 25.456 43.9328 25.6053 44.5408 25.776C45.2768 25.9787 45.8688 26.1813 46.3168 26.384C46.7648 26.576 47.1488 26.88 47.4688 27.296C47.7888 27.7013 47.9488 28.256 47.9488 28.96C47.9488 29.504 47.8048 30.016 47.5168 30.496C47.2288 30.976 46.8021 31.3653 46.2368 31.664C45.6714 31.9627 45.0048 32.112 44.2368 32.112ZM54.6514 26.432L58.0754 32H56.4274L53.7554 27.648L51.2114 32H49.5954L53.0034 26.432L49.5794 20.848H51.2114L53.8994 25.216L56.4594 20.848H58.0914L54.6514 26.432ZM64.5889 26.432L68.0129 32H66.3649L63.6929 27.648L61.1489 32H59.5329L62.9409 26.432L59.5169 20.848H61.1489L63.8369 25.216L66.3969 20.848H68.0289L64.5889 26.432ZM79.1824 20.848L74.9744 32H73.2944L69.0864 20.848H70.6384L74.1424 30.464L77.6464 20.848H79.1824ZM88.2349 24.112C88.2349 25.04 87.9149 25.8133 87.2749 26.432C86.6455 27.04 85.6802 27.344 84.3789 27.344H82.2349V32H80.7789V20.848H84.3789C85.6375 20.848 86.5922 21.152 87.2429 21.76C87.9042 22.368 88.2349 23.152 88.2349 24.112ZM84.3789 26.144C85.1895 26.144 85.7869 25.968 86.1709 25.616C86.5549 25.264 86.7469 24.7627 86.7469 24.112C86.7469 22.736 85.9575 22.048 84.3789 22.048H82.2349V26.144H84.3789ZM93.5805 32.112C92.8445 32.112 92.1832 31.984 91.5965 31.728C91.0205 31.4613 90.5672 31.0987 90.2365 30.64C89.9058 30.1707 89.7352 29.632 89.7245 29.024H91.2765C91.3298 29.5467 91.5432 29.9893 91.9165 30.352C92.3005 30.704 92.8552 30.88 93.5805 30.88C94.2738 30.88 94.8178 30.7093 95.2125 30.368C95.6178 30.016 95.8205 29.568 95.8205 29.024C95.8205 28.5973 95.7032 28.2507 95.4685 27.984C95.2338 27.7173 94.9405 27.5147 94.5885 27.376C94.2365 27.2373 93.7618 27.088 93.1645 26.928C92.4285 26.736 91.8365 26.544 91.3885 26.352C90.9512 26.16 90.5725 25.8613 90.2525 25.456C89.9432 25.04 89.7885 24.4853 89.7885 23.792C89.7885 23.184 89.9432 22.6453 90.2525 22.176C90.5618 21.7067 90.9938 21.344 91.5485 21.088C92.1138 20.832 92.7592 20.704 93.4845 20.704C94.5298 20.704 95.3832 20.9653 96.0445 21.488C96.7165 22.0107 97.0952 22.704 97.1805 23.568H95.5805C95.5272 23.1413 95.3032 22.768 94.9085 22.448C94.5138 22.1173 93.9912 21.952 93.3405 21.952C92.7325 21.952 92.2365 22.112 91.8525 22.432C91.4685 22.7413 91.2765 23.1787 91.2765 23.744C91.2765 24.1493 91.3885 24.48 91.6125 24.736C91.8472 24.992 92.1298 25.1893 92.4605 25.328C92.8018 25.456 93.2765 25.6053 93.8845 25.776C94.6205 25.9787 95.2125 26.1813 95.6605 26.384C96.1085 26.576 96.4925 26.88 96.8125 27.296C97.1325 27.7013 97.2925 28.256 97.2925 28.96C97.2925 29.504 97.1485 30.016 96.8605 30.496C96.5725 30.976 96.1458 31.3653 95.5805 31.664C95.0152 31.9627 94.3485 32.112 93.5805 32.112ZM100.891 22.032V25.76H104.955V26.96H100.891V30.8H105.435V32H99.4351V20.832H105.435V22.032H100.891Z" fill="#443B3B"/>
<path d="M27.816 26.256L27.505 25.3056L27.66 27.2438L27.816 26.256ZM28.92 26.752L28.2922 27.5304L28.2983 27.5353L28.3044 27.54L28.92 26.752ZM29.72 27.744L28.8208 28.1815L28.8255 28.1912L28.8304 28.2008L29.72 27.744ZM29.592 30.544L30.4332 31.0848L30.4389 31.0758L29.592 30.544ZM28.328 31.616L28.7538 32.5208L28.7613 32.5173L28.328 31.616ZM22.232 32H21.232V33H22.232V32ZM22.232 20.848V19.848H21.232V20.848H22.232ZM28.168 21.232L27.7353 22.1335L27.7427 22.1371L27.7501 22.1405L28.168 21.232ZM29.368 22.24L28.52 22.77L28.52 22.77L29.368 22.24ZM29.224 25.328L28.4542 24.6897L28.4526 24.6916L29.224 25.328ZM23.688 25.664H22.688V26.664H23.688V25.664ZM27.72 22.528L27.0692 23.2873L27.0692 23.2873L27.72 22.528ZM23.688 22.048V21.048H22.688V22.048H23.688ZM27.96 30.288L28.6041 31.0529H28.6041L27.96 30.288ZM27.928 27.408L27.2804 28.1699L27.286 28.1747L27.2916 28.1794L27.928 27.408ZM23.688 26.864V25.864H22.688V26.864H23.688ZM23.688 30.8H22.688V31.8H23.688V30.8ZM27.66 27.2438C27.8863 27.2795 28.0928 27.3696 28.2922 27.5304L29.5478 25.9736C29.0859 25.6011 28.5564 25.3605 27.972 25.2682L27.66 27.2438ZM28.3044 27.54C28.5241 27.7117 28.6945 27.9218 28.8208 28.1815L30.6192 27.3065C30.3615 26.7768 29.9986 26.3257 29.5356 25.964L28.3044 27.54ZM28.8304 28.2008C28.9598 28.4527 29.024 28.7173 29.024 29.008H31.024C31.024 28.4027 30.8855 27.8246 30.6096 27.2872L28.8304 28.2008ZM29.024 29.008C29.024 29.3939 28.9286 29.7201 28.7451 30.0122L30.4389 31.0758C30.8314 30.4506 31.024 29.7528 31.024 29.008H29.024ZM28.7508 30.0032C28.5776 30.2727 28.3091 30.5155 27.8947 30.7147L28.7613 32.5173C29.4562 32.1831 30.0304 31.7113 30.4332 31.0848L28.7508 30.0032ZM27.9022 30.7112C27.5196 30.8912 27.0262 31 26.392 31V33C27.2512 33 28.0484 32.8528 28.7538 32.5208L27.9022 30.7112ZM26.392 31H22.232V33H26.392V31ZM23.232 32V20.848H21.232V32H23.232ZM22.232 21.848H26.232V19.848H22.232V21.848ZM26.232 21.848C26.8801 21.848 27.3693 21.9579 27.7353 22.1335L28.6007 20.3305C27.9 19.9941 27.0986 19.848 26.232 19.848V21.848ZM27.7501 22.1405C28.1364 22.3182 28.373 22.5348 28.52 22.77L30.216 21.71C29.8296 21.0918 29.2662 20.6365 28.5859 20.3235L27.7501 22.1405ZM28.52 22.77C28.6813 23.0281 28.768 23.3223 28.768 23.68H30.768C30.768 22.971 30.588 22.3053 30.216 21.71L28.52 22.77ZM28.768 23.68C28.768 24.1484 28.6443 24.4605 28.4542 24.6897L29.9938 25.9663C30.529 25.3209 30.768 24.5342 30.768 23.68H28.768ZM28.4526 24.6916C28.2349 24.9555 27.9331 25.1655 27.505 25.3056L28.127 27.2064C28.8722 26.9625 29.5091 26.5538 29.9954 25.9644L28.4526 24.6916ZM23.688 26.664H26.136V24.664H23.688V26.664ZM26.136 26.664C26.9651 26.664 27.7567 26.4696 28.3708 25.9433L27.0692 24.4247C26.9367 24.5384 26.6722 24.664 26.136 24.664V26.664ZM28.3708 25.9433C29.0002 25.4038 29.28 24.6646 29.28 23.856H27.28C27.28 24.178 27.1865 24.3242 27.0692 24.4247L28.3708 25.9433ZM29.28 23.856C29.28 23.0474 29.0002 22.3082 28.3708 21.7687L27.0692 23.2873C27.1865 23.3878 27.28 23.534 27.28 23.856H29.28ZM28.3708 21.7687C27.7517 21.2381 26.9453 21.048 26.104 21.048V23.048C26.6707 23.048 26.9416 23.1779 27.0692 23.2873L28.3708 21.7687ZM26.104 21.048H23.688V23.048H26.104V21.048ZM22.688 22.048V25.664H24.688V22.048H22.688ZM26.264 31.8C27.1383 31.8 27.9617 31.5939 28.6041 31.0529L27.3159 29.5231C27.1476 29.6648 26.8404 29.8 26.264 29.8V31.8ZM28.6041 31.0529C29.2698 30.4924 29.568 29.7184 29.568 28.864H27.568C27.568 29.2256 27.4609 29.401 27.3159 29.5231L28.6041 31.0529ZM29.568 28.864C29.568 27.9868 29.2504 27.2026 28.5644 26.6366L27.2916 28.1794C27.4589 28.3174 27.568 28.5039 27.568 28.864H29.568ZM28.5756 26.6461C27.9229 26.0912 27.1008 25.864 26.216 25.864V27.864C26.7605 27.864 27.0798 27.9995 27.2804 28.1699L28.5756 26.6461ZM26.216 25.864H23.688V27.864H26.216V25.864ZM22.688 26.864V30.8H24.688V26.864H22.688ZM23.688 31.8H26.264V29.8H23.688V31.8ZM38.9085 20.848H39.9085V19.848H38.9085V20.848ZM38.9085 22.032V23.032H39.9085V22.032H38.9085ZM35.8685 22.032V21.032H34.8685V22.032H35.8685ZM35.8685 32V33H36.8685V32H35.8685ZM34.4125 32H33.4125V33H34.4125V32ZM34.4125 22.032H35.4125V21.032H34.4125V22.032ZM31.3565 22.032H30.3565V23.032H31.3565V22.032ZM31.3565 20.848V19.848H30.3565V20.848H31.3565ZM37.9085 20.848V22.032H39.9085V20.848H37.9085ZM38.9085 21.032H35.8685V23.032H38.9085V21.032ZM34.8685 22.032V32H36.8685V22.032H34.8685ZM35.8685 31H34.4125V33H35.8685V31ZM35.4125 32V22.032H33.4125V32H35.4125ZM34.4125 21.032H31.3565V23.032H34.4125V21.032ZM32.3565 22.032V20.848H30.3565V22.032H32.3565ZM31.3565 21.848H38.9085V19.848H31.3565V21.848ZM42.2528 31.728L41.8326 32.6355L41.8427 32.6401L41.8528 32.6445L42.2528 31.728ZM40.8927 30.64L40.0752 31.216L40.0816 31.2248L40.8927 30.64ZM40.3808 29.024V28.024H39.3631L39.3809 29.0415L40.3808 29.024ZM41.9328 29.024L42.9276 28.9225L42.8359 28.024H41.9328V29.024ZM42.5728 30.352L41.876 31.0693L41.8864 31.0794L41.897 31.0892L42.5728 30.352ZM45.8687 30.368L46.5229 31.1244L46.5244 31.123L45.8687 30.368ZM46.1248 27.984L45.374 28.6446L46.1248 27.984ZM45.2448 27.376L44.8782 28.3064L44.8782 28.3064L45.2448 27.376ZM43.8208 26.928L44.0795 25.962L44.0732 25.9604L43.8208 26.928ZM42.0448 26.352L41.6427 27.2677L41.6508 27.2711L42.0448 26.352ZM40.9088 25.456L40.1063 26.0527L40.1149 26.0643L40.1239 26.0756L40.9088 25.456ZM40.9088 22.176L41.7437 22.7263V22.7263L40.9088 22.176ZM42.2048 21.088L41.7922 20.177L41.7857 20.18L42.2048 21.088ZM46.7008 21.488L46.0807 22.2726L46.0868 22.2774L46.7008 21.488ZM47.8368 23.568V24.568H48.9404L48.8319 23.4697L47.8368 23.568ZM46.2367 23.568L45.2445 23.692L45.354 24.568H46.2367V23.568ZM45.5648 22.448L44.9225 23.2145L44.9287 23.2197L44.9349 23.2248L45.5648 22.448ZM42.5088 22.432L43.1361 23.2108L43.1426 23.2055L43.1489 23.2002L42.5088 22.432ZM42.2687 24.736L41.5162 25.3945L41.5238 25.4032L41.5316 25.4117L42.2687 24.736ZM43.1168 25.328L42.73 26.2502L42.7477 26.2576L42.7656 26.2643L43.1168 25.328ZM44.5408 25.776L44.2705 26.7388L44.2753 26.7401L44.5408 25.776ZM46.3167 26.384L45.9046 27.2951L45.9137 27.2992L45.9228 27.3031L46.3167 26.384ZM47.4688 27.296L46.6761 27.9058L46.6839 27.9156L47.4688 27.296ZM47.5168 30.496L48.3742 31.0105L47.5168 30.496ZM46.2367 31.664L45.7696 30.7798L46.2367 31.664ZM44.2367 31.112C43.6179 31.112 43.0957 31.0048 42.6527 30.8115L41.8528 32.6445C42.5831 32.9632 43.3836 33.112 44.2367 33.112V31.112ZM42.6729 30.8205C42.2333 30.617 41.9223 30.3581 41.7039 30.0552L40.0816 31.2248C40.5246 31.8393 41.1202 32.3056 41.8326 32.6355L42.6729 30.8205ZM41.7102 30.064C41.5019 29.7683 41.388 29.4268 41.3806 29.0065L39.3809 29.0415C39.3949 29.8372 39.6223 30.573 40.0753 31.216L41.7102 30.064ZM40.3808 30.024H41.9328V28.024H40.3808V30.024ZM40.9379 29.1255C41.0149 29.8797 41.3323 30.5411 41.876 31.0693L43.2695 29.6347C43.0666 29.4376 42.9573 29.2137 42.9276 28.9225L40.9379 29.1255ZM41.897 31.0892C42.5271 31.6667 43.3598 31.88 44.2367 31.88V29.88C43.6631 29.88 43.3864 29.7413 43.2485 29.6148L41.897 31.0892ZM44.2367 31.88C45.0903 31.88 45.894 31.6683 46.5229 31.1244L45.2146 29.6116C45.0542 29.7504 44.7698 29.88 44.2367 29.88V31.88ZM46.5244 31.123C47.1518 30.5782 47.4767 29.8532 47.4767 29.024H45.4767C45.4767 29.2828 45.3964 29.4538 45.2131 29.613L46.5244 31.123ZM47.4767 29.024C47.4767 28.4055 47.3018 27.8078 46.8755 27.3234L45.374 28.6446C45.4171 28.6935 45.4767 28.7892 45.4767 29.024H47.4767ZM46.8755 27.3234C46.5292 26.9299 46.1011 26.6385 45.6113 26.4456L44.8782 28.3064C45.0924 28.3908 45.251 28.5048 45.374 28.6446L46.8755 27.3234ZM45.6113 26.4456C45.2091 26.2872 44.6936 26.1265 44.0795 25.9621L43.562 27.8939C44.1426 28.0495 44.5764 28.1875 44.8782 28.3064L45.6113 26.4456ZM44.0732 25.9604C43.3619 25.7748 42.8228 25.5975 42.4387 25.4329L41.6508 27.2711C42.1627 27.4905 42.8076 27.6972 43.5683 27.8956L44.0732 25.9604ZM42.4467 25.4364C42.1714 25.3155 41.9206 25.1239 41.6936 24.8364L40.1239 26.0756C40.5369 26.5988 41.0435 27.0045 41.6428 27.2676L42.4467 25.4364ZM41.7112 24.8593C41.5673 24.6657 41.4447 24.3423 41.4447 23.792H39.4447C39.4447 24.6284 39.6316 25.4143 40.1063 26.0527L41.7112 24.8593ZM41.4447 23.792C41.4447 23.3629 41.5509 23.0189 41.7437 22.7263L40.0738 21.6257C39.648 22.2718 39.4447 23.0051 39.4447 23.792H41.4447ZM41.7437 22.7263C41.9416 22.4261 42.2232 22.1809 42.6238 21.996L41.7857 20.18C41.077 20.5071 40.4946 20.9873 40.0738 21.6257L41.7437 22.7263ZM42.6173 21.999C43.0329 21.8107 43.5339 21.704 44.1408 21.704V19.704C43.2969 19.704 42.5072 19.8533 41.7922 20.177L42.6173 21.999ZM44.1408 21.704C45.0164 21.704 45.6349 21.9203 46.0807 22.2726L47.3208 20.7034C46.4439 20.0104 45.3558 19.704 44.1408 19.704V21.704ZM46.0868 22.2774C46.5376 22.6279 46.7826 23.069 46.8416 23.6663L48.8319 23.4697C48.7202 22.3389 48.2079 21.3934 47.3147 20.6986L46.0868 22.2774ZM47.8368 22.568H46.2367V24.568H47.8368V22.568ZM47.229 23.444C47.1379 22.7153 46.7508 22.1223 46.1946 21.6712L44.9349 23.2248C45.168 23.4137 45.2289 23.5673 45.2445 23.692L47.229 23.444ZM46.207 21.6815C45.5889 21.1637 44.8187 20.952 43.9967 20.952V22.952C44.4761 22.952 44.7512 23.071 44.9225 23.2145L46.207 21.6815ZM43.9967 20.952C43.2073 20.952 42.4689 21.1635 41.8686 21.6638L43.1489 23.2002C43.3166 23.0605 43.5702 22.952 43.9967 22.952V20.952ZM41.8814 21.6532C41.2255 22.1816 40.9328 22.926 40.9328 23.744H42.9328C42.9328 23.4314 43.024 23.301 43.1361 23.2108L41.8814 21.6532ZM40.9328 23.744C40.9328 24.3428 41.1032 24.9226 41.5162 25.3945L43.0213 24.0775C42.9863 24.0374 42.9328 23.9559 42.9328 23.744H40.9328ZM41.5316 25.4117C41.8671 25.7777 42.2706 26.0575 42.73 26.2502L43.5035 24.4058C43.3016 24.3211 43.1397 24.2063 43.0059 24.0603L41.5316 25.4117ZM42.7656 26.2643C43.1459 26.4069 43.6518 26.5651 44.2705 26.7388L44.811 24.8132C44.2137 24.6455 43.7703 24.5051 43.4679 24.3917L42.7656 26.2643ZM44.2753 26.7401C44.9853 26.9356 45.5224 27.1222 45.9046 27.2951L46.7289 25.4729C46.2151 25.2404 45.5682 25.0217 44.8062 24.8119L44.2753 26.7401ZM45.9228 27.3031C46.2017 27.4226 46.4521 27.6145 46.6761 27.9057L48.2614 26.6863C47.8454 26.1455 47.3278 25.7294 46.7107 25.4649L45.9228 27.3031ZM46.6839 27.9156C46.8215 28.09 46.9487 28.3999 46.9487 28.96H48.9487C48.9487 28.1121 48.756 27.3127 48.2536 26.6764L46.6839 27.9156ZM46.9487 28.96C46.9487 29.3173 46.8568 29.6522 46.6593 29.9815L48.3742 31.0105C48.7527 30.3798 48.9487 29.6907 48.9487 28.96H46.9487ZM46.6593 29.9815C46.4779 30.2837 46.197 30.554 45.7696 30.7798L46.7039 32.5482C47.4072 32.1766 47.9796 31.6683 48.3742 31.0105L46.6593 29.9815ZM45.7696 30.7798C45.3745 30.9885 44.8745 31.112 44.2367 31.112V33.112C45.135 33.112 45.9683 32.9368 46.7039 32.5482L45.7696 30.7798ZM54.6514 26.432L53.8 25.9075L53.4771 26.4315L53.7995 26.9558L54.6514 26.432ZM58.0754 32V33H59.8643L58.9272 31.4762L58.0754 32ZM56.4274 32L55.5752 32.5232L55.8679 33H56.4274V32ZM53.7554 27.648L54.6076 27.1248L53.7343 25.7025L52.8921 27.1433L53.7554 27.648ZM51.2114 32V33H51.7851L52.0747 32.5047L51.2114 32ZM49.5954 32L48.7425 31.478L47.8109 33H49.5954V32ZM53.0034 26.432L53.8563 26.954L54.1761 26.4315L53.8559 25.9093L53.0034 26.432ZM49.5794 20.848V19.848H47.7932L48.7269 21.3707L49.5794 20.848ZM51.2114 20.848L52.063 20.3239L51.7702 19.848H51.2114V20.848ZM53.8994 25.216L53.0477 25.7401L53.9203 27.158L54.7621 25.7216L53.8994 25.216ZM56.4594 20.848V19.848H55.8864L55.5966 20.3424L56.4594 20.848ZM58.0914 20.848L58.9428 21.3725L59.8819 19.848H58.0914V20.848ZM53.7995 26.9558L57.2235 32.5238L58.9272 31.4762L55.5032 25.9082L53.7995 26.9558ZM58.0754 31H56.4274V33H58.0754V31ZM57.2796 31.4768L54.6076 27.1248L52.9032 28.1712L55.5752 32.5232L57.2796 31.4768ZM52.8921 27.1433L50.3481 31.4953L52.0747 32.5047L54.6187 28.1527L52.8921 27.1433ZM51.2114 31H49.5954V33H51.2114V31ZM50.4483 32.522L53.8563 26.954L52.1505 25.91L48.7425 31.478L50.4483 32.522ZM53.8559 25.9093L50.4319 20.3253L48.7269 21.3707L52.1509 26.9547L53.8559 25.9093ZM49.5794 21.848H51.2114V19.848H49.5794V21.848ZM50.3597 21.3721L53.0477 25.7401L54.751 24.6919L52.063 20.3239L50.3597 21.3721ZM54.7621 25.7216L57.3221 21.3536L55.5966 20.3424L53.0366 24.7104L54.7621 25.7216ZM56.4594 21.848H58.0914V19.848H56.4594V21.848ZM57.24 20.3235L53.8 25.9075L55.5028 26.9565L58.9428 21.3725L57.24 20.3235ZM64.5889 26.432L63.7375 25.9075L63.4146 26.4315L63.737 26.9558L64.5889 26.432ZM68.0129 32V33H69.8018L68.8647 31.4762L68.0129 32ZM66.3649 32L65.5127 32.5232L65.8054 33H66.3649V32ZM63.6929 27.648L64.5451 27.1248L63.6718 25.7025L62.8296 27.1433L63.6929 27.648ZM61.1489 32V33H61.7226L62.0122 32.5047L61.1489 32ZM59.5329 32L58.68 31.478L57.7484 33H59.5329V32ZM62.9409 26.432L63.7938 26.954L64.1136 26.4315L63.7934 25.9093L62.9409 26.432ZM59.5169 20.848V19.848H57.7307L58.6644 21.3707L59.5169 20.848ZM61.1489 20.848L62.0005 20.3239L61.7077 19.848H61.1489V20.848ZM63.8369 25.216L62.9852 25.7401L63.8578 27.158L64.6996 25.7216L63.8369 25.216ZM66.3969 20.848V19.848H65.8239L65.5341 20.3424L66.3969 20.848ZM68.0289 20.848L68.8803 21.3725L69.8194 19.848H68.0289V20.848ZM63.737 26.9558L67.161 32.5238L68.8647 31.4762L65.4407 25.9082L63.737 26.9558ZM68.0129 31H66.3649V33H68.0129V31ZM67.2171 31.4768L64.5451 27.1248L62.8407 28.1712L65.5127 32.5232L67.2171 31.4768ZM62.8296 27.1433L60.2856 31.4953L62.0122 32.5047L64.5562 28.1527L62.8296 27.1433ZM61.1489 31H59.5329V33H61.1489V31ZM60.3858 32.522L63.7938 26.954L62.088 25.91L58.68 31.478L60.3858 32.522ZM63.7934 25.9093L60.3694 20.3253L58.6644 21.3707L62.0884 26.9547L63.7934 25.9093ZM59.5169 21.848H61.1489V19.848H59.5169V21.848ZM60.2972 21.3721L62.9852 25.7401L64.6885 24.6919L62.0005 20.3239L60.2972 21.3721ZM64.6996 25.7216L67.2596 21.3536L65.5341 20.3424L62.9741 24.7104L64.6996 25.7216ZM66.3969 21.848H68.0289V19.848H66.3969V21.848ZM67.1775 20.3235L63.7375 25.9075L65.4403 26.9565L68.8803 21.3725L67.1775 20.3235ZM79.1824 20.848L80.118 21.201L80.6285 19.848H79.1824V20.848ZM74.9744 32V33H75.6659L75.91 32.353L74.9744 32ZM73.2944 32L72.3588 32.353L72.6029 33H73.2944V32ZM69.0864 20.848V19.848H67.6402L68.1508 21.201L69.0864 20.848ZM70.6384 20.848L71.5779 20.5056L71.3383 19.848H70.6384V20.848ZM74.1424 30.464L73.2028 30.8064L74.1424 33.3848L75.0819 30.8064L74.1424 30.464ZM77.6464 20.848V19.848H76.9464L76.7068 20.5056L77.6464 20.848ZM78.2468 20.495L74.0388 31.647L75.91 32.353L80.118 21.201L78.2468 20.495ZM74.9744 31H73.2944V33H74.9744V31ZM74.23 31.647L70.022 20.495L68.1508 21.201L72.3588 32.353L74.23 31.647ZM69.0864 21.848H70.6384V19.848H69.0864V21.848ZM69.6988 21.1904L73.2028 30.8064L75.0819 30.1216L71.5779 20.5056L69.6988 21.1904ZM75.0819 30.8064L78.5859 21.1904L76.7068 20.5056L73.2028 30.1216L75.0819 30.8064ZM77.6464 21.848H79.1824V19.848H77.6464V21.848ZM87.2749 26.432L87.9697 27.1512L87.9699 27.151L87.2749 26.432ZM82.2349 27.344V26.344H81.2349V27.344H82.2349ZM82.2349 32V33H83.2349V32H82.2349ZM80.7789 32H79.7789V33H80.7789V32ZM80.7789 20.848V19.848H79.7789V20.848H80.7789ZM87.2429 21.76L86.5601 22.4907L86.5661 22.4962L87.2429 21.76ZM86.1709 25.616L86.8466 26.3532L86.1709 25.616ZM82.2349 22.048V21.048H81.2349V22.048H82.2349ZM82.2349 26.144H81.2349V27.144H82.2349V26.144ZM87.2349 24.112C87.2349 24.7818 87.0158 25.2916 86.5799 25.713L87.9699 27.151C88.8139 26.3351 89.2349 25.2982 89.2349 24.112H87.2349ZM86.5801 25.7128C86.2108 26.0695 85.5455 26.344 84.3789 26.344V28.344C85.8149 28.344 87.0803 28.0105 87.9697 27.1512L86.5801 25.7128ZM84.3789 26.344H82.2349V28.344H84.3789V26.344ZM81.2349 27.344V32H83.2349V27.344H81.2349ZM82.2349 31H80.7789V33H82.2349V31ZM81.7789 32V20.848H79.7789V32H81.7789ZM80.7789 21.848H84.3789V19.848H80.7789V21.848ZM84.3789 21.848C85.489 21.848 86.1592 22.1161 86.5601 22.4907L87.9256 21.0293C87.0252 20.1879 85.7861 19.848 84.3789 19.848V21.848ZM86.5661 22.4962C87.0061 22.9007 87.2349 23.4102 87.2349 24.112H89.2349C89.2349 22.8938 88.8023 21.8353 87.9197 21.0238L86.5661 22.4962ZM84.3789 27.144C85.306 27.144 86.1989 26.9469 86.8466 26.3532L85.4951 24.8788C85.3749 24.9891 85.0731 25.144 84.3789 25.144V27.144ZM86.8466 26.3532C87.4866 25.7665 87.7469 24.9682 87.7469 24.112H85.7469C85.7469 24.5572 85.6232 24.7615 85.4951 24.8788L86.8466 26.3532ZM87.7469 24.112C87.7469 23.2314 87.4879 22.3994 86.8119 21.8102C86.1622 21.2438 85.2912 21.048 84.3789 21.048V23.048C85.0452 23.048 85.3582 23.1962 85.4978 23.3178C85.6112 23.4166 85.7469 23.6166 85.7469 24.112H87.7469ZM84.3789 21.048H82.2349V23.048H84.3789V21.048ZM81.2349 22.048V26.144H83.2349V22.048H81.2349ZM82.2349 27.144H84.3789V25.144H82.2349V27.144ZM91.5965 31.728L91.1764 32.6355L91.1864 32.6401L91.1966 32.6445L91.5965 31.728ZM90.2365 30.64L89.419 31.216L89.4253 31.2248L90.2365 30.64ZM89.7245 29.024V28.024H88.7068L88.7247 29.0415L89.7245 29.024ZM91.2765 29.024L92.2713 28.9225L92.1796 28.024H91.2765V29.024ZM91.9165 30.352L91.2197 31.0693L91.2301 31.0794L91.2408 31.0892L91.9165 30.352ZM95.2125 30.368L95.8667 31.1244L95.8682 31.123L95.2125 30.368ZM95.4685 27.984L94.7178 28.6446L95.4685 27.984ZM94.5885 27.376L94.222 28.3064V28.3064L94.5885 27.376ZM93.1645 26.928L93.4232 25.962L93.4169 25.9604L93.1645 26.928ZM91.3885 26.352L90.9865 27.2677L90.9946 27.2711L91.3885 26.352ZM90.2525 25.456L89.45 26.0527L89.4587 26.0643L89.4676 26.0756L90.2525 25.456ZM90.2525 22.176L91.0875 22.7263V22.7263L90.2525 22.176ZM91.5485 21.088L91.136 20.177L91.1294 20.18L91.5485 21.088ZM96.0445 21.488L95.4244 22.2726L95.4306 22.2774L96.0445 21.488ZM97.1805 23.568V24.568H98.2841L98.1757 23.4697L97.1805 23.568ZM95.5805 23.568L94.5882 23.692L94.6977 24.568H95.5805V23.568ZM94.9085 22.448L94.2663 23.2145L94.2724 23.2197L94.2787 23.2248L94.9085 22.448ZM91.8525 22.432L92.4798 23.2108L92.4863 23.2055L92.4927 23.2002L91.8525 22.432ZM91.6125 24.736L90.8599 25.3945L90.8675 25.4032L90.8753 25.4117L91.6125 24.736ZM92.4605 25.328L92.0738 26.2502L92.0914 26.2576L92.1094 26.2643L92.4605 25.328ZM93.8845 25.776L93.6142 26.7388L93.619 26.7401L93.8845 25.776ZM95.6605 26.384L95.2483 27.2951L95.2574 27.2992L95.2666 27.3031L95.6605 26.384ZM96.8125 27.296L96.0198 27.9058L96.0276 27.9156L96.8125 27.296ZM96.8605 30.496L97.718 31.0105L96.8605 30.496ZM95.5805 31.664L95.1134 30.7798L95.5805 31.664ZM93.5805 31.112C92.9616 31.112 92.4394 31.0048 91.9964 30.8115L91.1966 32.6445C91.9269 32.9632 92.7274 33.112 93.5805 33.112V31.112ZM92.0166 30.8205C91.5771 30.617 91.266 30.3581 91.0477 30.0552L89.4253 31.2248C89.8683 31.8393 90.4639 32.3056 91.1764 32.6355L92.0166 30.8205ZM91.054 30.064C90.8456 29.7683 90.7317 29.4268 90.7243 29.0065L88.7247 29.0415C88.7386 29.8372 88.966 30.573 89.419 31.216L91.054 30.064ZM89.7245 30.024H91.2765V28.024H89.7245V30.024ZM90.2817 29.1255C90.3586 29.8797 90.676 30.5411 91.2197 31.0693L92.6133 29.6347C92.4103 29.4376 92.301 29.2137 92.2713 28.9225L90.2817 29.1255ZM91.2408 31.0892C91.8708 31.6667 92.7035 31.88 93.5805 31.88V29.88C93.0068 29.88 92.7301 29.7413 92.5922 29.6148L91.2408 31.0892ZM93.5805 31.88C94.4341 31.88 95.2378 31.6683 95.8667 31.1244L94.5583 29.6116C94.3979 29.7504 94.1136 29.88 93.5805 29.88V31.88ZM95.8682 31.123C96.4956 30.5782 96.8205 29.8532 96.8205 29.024H94.8205C94.8205 29.2828 94.7401 29.4538 94.5568 29.613L95.8682 31.123ZM96.8205 29.024C96.8205 28.4055 96.6455 27.8078 96.2192 27.3234L94.7178 28.6446C94.7608 28.6935 94.8205 28.7892 94.8205 29.024H96.8205ZM96.2192 27.3234C95.8729 26.9299 95.4448 26.6385 94.955 26.4456L94.222 28.3064C94.4362 28.3908 94.5947 28.5048 94.7178 28.6446L96.2192 27.3234ZM94.955 26.4456C94.5528 26.2872 94.0374 26.1265 93.4232 25.9621L92.9058 27.8939C93.4863 28.0495 93.9202 28.1875 94.222 28.3064L94.955 26.4456ZM93.4169 25.9604C92.7057 25.7748 92.1666 25.5975 91.7824 25.4329L90.9946 27.2711C91.5064 27.4905 92.1513 27.6972 92.9121 27.8956L93.4169 25.9604ZM91.7905 25.4364C91.5151 25.3155 91.2644 25.1239 91.0374 24.8364L89.4676 26.0756C89.8806 26.5988 90.3872 27.0045 90.9865 27.2676L91.7905 25.4364ZM91.055 24.8593C90.911 24.6657 90.7885 24.3423 90.7885 23.792H88.7885C88.7885 24.6284 88.9753 25.4143 89.45 26.0527L91.055 24.8593ZM90.7885 23.792C90.7885 23.3629 90.8946 23.0189 91.0875 22.7263L89.4175 21.6257C88.9917 22.2718 88.7885 23.0051 88.7885 23.792H90.7885ZM91.0875 22.7263C91.2853 22.4261 91.5669 22.1809 91.9676 21.996L91.1294 20.18C90.4208 20.5071 89.8383 20.9873 89.4175 21.6257L91.0875 22.7263ZM91.961 21.999C92.3767 21.8107 92.8776 21.704 93.4845 21.704V19.704C92.6407 19.704 91.851 19.8533 91.136 20.177L91.961 21.999ZM93.4845 21.704C94.3601 21.704 94.9787 21.9203 95.4244 22.2726L96.6646 20.7034C95.7877 20.0104 94.6995 19.704 93.4845 19.704V21.704ZM95.4306 22.2774C95.8813 22.6279 96.1264 23.069 96.1853 23.6663L98.1757 23.4697C98.064 22.3389 97.5517 21.3934 96.6584 20.6986L95.4306 22.2774ZM97.1805 22.568H95.5805V24.568H97.1805V22.568ZM96.5728 23.444C96.4817 22.7153 96.0946 22.1223 95.5383 21.6712L94.2787 23.2248C94.5117 23.4137 94.5726 23.5673 94.5882 23.692L96.5728 23.444ZM95.5507 21.6815C94.9327 21.1637 94.1625 20.952 93.3405 20.952V22.952C93.8198 22.952 94.095 23.071 94.2663 23.2145L95.5507 21.6815ZM93.3405 20.952C92.5511 20.952 91.8126 21.1635 91.2123 21.6638L92.4927 23.2002C92.6604 23.0605 92.9139 22.952 93.3405 22.952V20.952ZM91.2252 21.6532C90.5692 22.1816 90.2765 22.926 90.2765 23.744H92.2765C92.2765 23.4314 92.3678 23.301 92.4798 23.2108L91.2252 21.6532ZM90.2765 23.744C90.2765 24.3428 90.447 24.9226 90.8599 25.3945L92.3651 24.0775C92.33 24.0374 92.2765 23.9559 92.2765 23.744H90.2765ZM90.8753 25.4117C91.2109 25.7777 91.6143 26.0575 92.0738 26.2502L92.8472 24.4058C92.6454 24.3211 92.4835 24.2063 92.3497 24.0603L90.8753 25.4117ZM92.1094 26.2643C92.4896 26.4069 92.9956 26.5651 93.6142 26.7388L94.1548 24.8132C93.5574 24.6455 93.114 24.5051 92.8116 24.3917L92.1094 26.2643ZM93.619 26.7401C94.329 26.9356 94.8662 27.1222 95.2483 27.2951L96.0727 25.4729C95.5588 25.2404 94.912 25.0217 94.15 24.8119L93.619 26.7401ZM95.2666 27.3031C95.5454 27.4226 95.7959 27.6145 96.0199 27.9057L97.6051 26.6863C97.1891 26.1455 96.6716 25.7294 96.0544 25.4649L95.2666 27.3031ZM96.0276 27.9156C96.1653 28.09 96.2925 28.3999 96.2925 28.96H98.2925C98.2925 28.1121 98.0997 27.3127 97.5974 26.6764L96.0276 27.9156ZM96.2925 28.96C96.2925 29.3173 96.2006 29.6522 96.003 29.9815L97.718 31.0105C98.0964 30.3798 98.2925 29.6907 98.2925 28.96H96.2925ZM96.003 29.9815C95.8217 30.2837 95.5407 30.554 95.1134 30.7798L96.0476 32.5482C96.751 32.1766 97.3233 31.6683 97.718 31.0105L96.003 29.9815ZM95.1134 30.7798C94.7183 30.9885 94.2182 31.112 93.5805 31.112V33.112C94.4788 33.112 95.3121 32.9368 96.0476 32.5482L95.1134 30.7798ZM100.891 22.032V21.032H99.8911V22.032H100.891ZM100.891 25.76H99.8911V26.76H100.891V25.76ZM104.955 25.76H105.955V24.76H104.955V25.76ZM104.955 26.96V27.96H105.955V26.96H104.955ZM100.891 26.96V25.96H99.8911V26.96H100.891ZM100.891 30.8H99.8911V31.8H100.891V30.8ZM105.435 30.8H106.435V29.8H105.435V30.8ZM105.435 32V33H106.435V32H105.435ZM99.4351 32H98.4351V33H99.4351V32ZM99.4351 20.832V19.832H98.4351V20.832H99.4351ZM105.435 20.832H106.435V19.832H105.435V20.832ZM105.435 22.032V23.032H106.435V22.032H105.435ZM99.8911 22.032V25.76H101.891V22.032H99.8911ZM100.891 26.76H104.955V24.76H100.891V26.76ZM103.955 25.76V26.96H105.955V25.76H103.955ZM104.955 25.96H100.891V27.96H104.955V25.96ZM99.8911 26.96V30.8H101.891V26.96H99.8911ZM100.891 31.8H105.435V29.8H100.891V31.8ZM104.435 30.8V32H106.435V30.8H104.435ZM105.435 31H99.4351V33H105.435V31ZM100.435 32V20.832H98.4351V32H100.435ZM99.4351 21.832H105.435V19.832H99.4351V21.832ZM104.435 20.832V22.032H106.435V20.832H104.435ZM105.435 21.032H100.891V23.032H105.435V21.032Z" fill="#443B3B"/>
<path d="M156 29.0002C156 28.5879 155.745 28.2334 155.373 28.0474L128.893 14.1967C128.692 14.0688 128.452 14.0001 128.206 14C127.886 14 127.58 14.115 127.353 14.3198C127.127 14.5246 127 14.8024 127 15.0921C127 15.1344 127.009 15.1744 127.014 15.2152H127V43.0311H127.014C127.046 43.2971 127.186 43.543 127.406 43.7218C127.626 43.9005 127.91 43.9996 128.206 44C128.417 43.999 128.624 43.9473 128.806 43.85L128.817 43.8671L155.405 29.9594L155.394 29.9424C155.578 29.8475 155.731 29.7105 155.837 29.5451C155.943 29.3796 156 29.1917 156 29.0002Z" fill="#443B3B"/>
<defs>
<filter id="filter0_d" x="0" y="0" width="182" height="63" filterUnits="userSpaceOnUse" color-interpolation-filters="sRGB">
<feFlood flood-opacity="0" result="BackgroundImageFix"/>
<feColorMatrix in="SourceAlpha" type="matrix" values="0 0 0 0 0 0 0 0 0 0 0 0 0 0 0 0 0 0 127 0"/>
<feOffset dy="4"/>
<feGaussianBlur stdDeviation="2"/>
<feColorMatrix type="matrix" values="0 0 0 0 0 0 0 0 0 0 0 0 0 0 0 0 0 0 0.25 0"/>
<feBlend mode="normal" in2="BackgroundImageFix" result="effect1_dropShadow"/>
<feBlend mode="normal" in="SourceGraphic" in2="effect1_dropShadow" result="shape"/>
</filter>
</defs>
</svg>
