<svg width="164" height="54" viewBox="0 0 164 54" fill="none" xmlns="http://www.w3.org/2000/svg">
<g filter="url(#filter0_d)">
<rect x="7.68286" y="0.0126038" width="134.192" height="45.9874" rx="22.9937" fill="#F58A8A"/>
</g>
<path d="M129.657 24.0002C129.657 23.6978 129.464 23.4378 129.181 23.3014L109.093 13.1442C108.941 13.0504 108.758 13.0001 108.572 13C108.329 13 108.097 13.0844 107.925 13.2345C107.754 13.3847 107.657 13.5884 107.657 13.8009C107.657 13.8319 107.664 13.8612 107.668 13.8912H107.657V34.2895H107.668C107.692 34.4846 107.798 34.6649 107.965 34.796C108.132 34.9271 108.348 34.9997 108.572 35C108.732 34.9993 108.889 34.9613 109.027 34.89L109.035 34.9025L129.206 24.7036L129.198 24.6911C129.337 24.6215 129.453 24.521 129.533 24.3997C129.614 24.2784 129.657 24.1406 129.657 24.0002Z" fill="#443B3B"/>
<path d="M31.6621 24.7691C32.1181 24.8411 32.5321 25.0271 32.9041 25.3271C33.2881 25.6271 33.5881 25.9991 33.8041 26.4431C34.0321 26.8871 34.1461 27.3611 34.1461 27.8651C34.1461 28.5011 33.9841 29.0771 33.6601 29.5931C33.3361 30.0971 32.8621 30.4991 32.2381 30.7991C31.6261 31.0871 30.9001 31.2311 30.0601 31.2311H25.3801V18.6851H29.8801C30.7321 18.6851 31.4581 18.8291 32.0581 19.1171C32.6581 19.3931 33.1081 19.7711 33.4081 20.2511C33.7081 20.7311 33.8581 21.2711 33.8581 21.8711C33.8581 22.6151 33.6541 23.2331 33.2461 23.7251C32.8501 24.2051 32.3221 24.5531 31.6621 24.7691ZM27.0181 24.1031H29.7721C30.5401 24.1031 31.1341 23.9231 31.5541 23.5631C31.9741 23.2031 32.1841 22.7051 32.1841 22.0691C32.1841 21.4331 31.9741 20.9351 31.5541 20.5751C31.1341 20.2151 30.5281 20.0351 29.7361 20.0351H27.0181V24.1031ZM29.9161 29.8811C30.7321 29.8811 31.3681 29.6891 31.8241 29.3051C32.2801 28.9211 32.5081 28.3871 32.5081 27.7031C32.5081 27.0071 32.2681 26.4611 31.7881 26.0651C31.3081 25.6571 30.6661 25.4531 29.8621 25.4531H27.0181V29.8811H29.9161ZM44.1412 18.6851V20.0171H40.7212V31.2311H39.0832V20.0171H35.6452V18.6851H44.1412ZM51.2875 24.9671L55.1395 31.2311H53.2855L50.2795 26.3351L47.4175 31.2311H45.5995L49.4335 24.9671L45.5815 18.6851H47.4175L50.4415 23.5991L53.3215 18.6851H55.1575L51.2875 24.9671ZM65.7252 22.3571C65.7252 23.4011 65.3652 24.2711 64.6452 24.9671C63.9372 25.6511 62.8512 25.9931 61.3872 25.9931H58.9752V31.2311H57.3372V18.6851H61.3872C62.8032 18.6851 63.8772 19.0271 64.6092 19.7111C65.3532 20.3951 65.7252 21.2771 65.7252 22.3571ZM61.3872 24.6431C62.2992 24.6431 62.9712 24.4451 63.4032 24.0491C63.8352 23.6531 64.0512 23.0891 64.0512 22.3571C64.0512 20.8091 63.1632 20.0351 61.3872 20.0351H58.9752V24.6431H61.3872ZM71.739 31.3571C70.911 31.3571 70.167 31.2131 69.507 30.9251C68.859 30.6251 68.349 30.2171 67.977 29.7011C67.605 29.1731 67.413 28.5671 67.401 27.8831H69.147C69.207 28.4711 69.447 28.9691 69.867 29.3771C70.299 29.7731 70.923 29.9711 71.739 29.9711C72.519 29.9711 73.131 29.7791 73.575 29.3951C74.031 28.9991 74.259 28.4951 74.259 27.8831C74.259 27.4031 74.127 27.0131 73.863 26.7131C73.599 26.4131 73.269 26.1851 72.873 26.0291C72.477 25.8731 71.943 25.7051 71.271 25.5251C70.443 25.3091 69.777 25.0931 69.273 24.8771C68.781 24.6611 68.355 24.3251 67.995 23.8691C67.647 23.4011 67.473 22.7771 67.473 21.9971C67.473 21.3131 67.647 20.7071 67.995 20.1791C68.343 19.6511 68.829 19.2431 69.453 18.9551C70.089 18.6671 70.815 18.5231 71.631 18.5231C72.807 18.5231 73.767 18.8171 74.511 19.4051C75.267 19.9931 75.693 20.7731 75.789 21.7451H73.989C73.929 21.2651 73.677 20.8451 73.233 20.4851C72.789 20.1131 72.201 19.9271 71.469 19.9271C70.785 19.9271 70.227 20.1071 69.795 20.4671C69.363 20.8151 69.147 21.3071 69.147 21.9431C69.147 22.3991 69.273 22.7711 69.525 23.0591C69.789 23.3471 70.107 23.5691 70.479 23.7251C70.863 23.8691 71.397 24.0371 72.081 24.2291C72.909 24.4571 73.575 24.6851 74.079 24.9131C74.583 25.1291 75.015 25.4711 75.375 25.9391C75.735 26.3951 75.915 27.0191 75.915 27.8111C75.915 28.4231 75.753 28.9991 75.429 29.5391C75.105 30.0791 74.625 30.5171 73.989 30.8531C73.353 31.1891 72.603 31.3571 71.739 31.3571ZM79.9635 20.0171V24.2111H84.5355V25.5611H79.9635V29.8811H85.0755V31.2311H78.3255V18.6671H85.0755V20.0171H79.9635Z" fill="#443B3B"/>
<path d="M31.6621 24.7691L31.3511 23.8187L31.5062 25.7568L31.6621 24.7691ZM32.9041 25.3271L32.2764 26.1055L32.2824 26.1103L32.2885 26.1151L32.9041 25.3271ZM33.8041 26.4431L32.9049 26.8805L32.9096 26.8903L32.9146 26.8999L33.8041 26.4431ZM33.6601 29.5931L34.5014 30.1339L34.507 30.1248L33.6601 29.5931ZM32.2381 30.7991L32.664 31.7039L32.6714 31.7003L32.2381 30.7991ZM25.3801 31.2311H24.3801V32.2311H25.3801V31.2311ZM25.3801 18.6851V17.6851H24.3801V18.6851H25.3801ZM32.0581 19.1171L31.6254 20.0186L31.6328 20.0221L31.6402 20.0256L32.0581 19.1171ZM33.4081 20.2511L32.5601 20.7811L32.5601 20.7811L33.4081 20.2511ZM33.2461 23.7251L32.4764 23.0867L32.4748 23.0887L33.2461 23.7251ZM27.0181 24.1031H26.0181V25.1031H27.0181V24.1031ZM31.5541 20.5751L30.9033 21.3343L30.9033 21.3343L31.5541 20.5751ZM27.0181 20.0351V19.0351H26.0181V20.0351H27.0181ZM31.8241 29.3051L32.4683 30.07L32.4683 30.07L31.8241 29.3051ZM31.7881 26.0651L31.1405 26.827L31.1461 26.8318L31.1518 26.8365L31.7881 26.0651ZM27.0181 25.4531V24.4531H26.0181V25.4531H27.0181ZM27.0181 29.8811H26.0181V30.8811H27.0181V29.8811ZM31.5062 25.7568C31.7831 25.8006 32.0356 25.9113 32.2764 26.1055L33.5319 24.5487C33.0287 24.1428 32.4532 23.8816 31.8181 23.7813L31.5062 25.7568ZM32.2885 26.1151C32.5509 26.3201 32.7546 26.5716 32.9049 26.8805L34.7034 26.0056C34.4217 25.4266 34.0254 24.9341 33.5198 24.5391L32.2885 26.1151ZM32.9146 26.8999C33.0693 27.2011 33.1461 27.5183 33.1461 27.8651H35.1461C35.1461 27.2038 34.995 26.573 34.6937 25.9863L32.9146 26.8999ZM33.1461 27.8651C33.1461 28.3216 33.0327 28.7118 32.8133 29.0613L34.507 30.1248C34.9356 29.4423 35.1461 28.6805 35.1461 27.8651H33.1461ZM32.819 29.0523C32.6097 29.3778 32.2886 29.6653 31.8048 29.8978L32.6714 31.7003C33.4357 31.3329 34.0626 30.8163 34.5013 30.1338L32.819 29.0523ZM31.8123 29.8943C31.3617 30.1063 30.7877 30.2311 30.0601 30.2311V32.2311C31.0126 32.2311 31.8905 32.0678 32.6639 31.7039L31.8123 29.8943ZM30.0601 30.2311H25.3801V32.2311H30.0601V30.2311ZM26.3801 31.2311V18.6851H24.3801V31.2311H26.3801ZM25.3801 19.6851H29.8801V17.6851H25.3801V19.6851ZM29.8801 19.6851C30.6229 19.6851 31.1928 19.8109 31.6254 20.0186L32.4909 18.2156C31.7235 17.8472 30.8414 17.6851 29.8801 17.6851V19.6851ZM31.6402 20.0256C32.0932 20.2339 32.3798 20.4926 32.5601 20.7811L34.2561 19.7211C33.8364 19.0496 33.2231 18.5522 32.476 18.2086L31.6402 20.0256ZM32.5601 20.7811C32.7548 21.0925 32.8581 21.4467 32.8581 21.8711H34.8581C34.8581 21.0954 34.6615 20.3697 34.2561 19.7211L32.5601 20.7811ZM32.8581 21.8711C32.8581 22.4222 32.7118 22.8029 32.4764 23.0867L34.0159 24.3634C34.5965 23.6633 34.8581 22.808 34.8581 21.8711H32.8581ZM32.4748 23.0887C32.213 23.406 31.8526 23.6546 31.3511 23.8187L31.9732 25.7195C32.7917 25.4516 33.4873 25.0042 34.0175 24.3615L32.4748 23.0887ZM27.0181 25.1031H29.7721V23.1031H27.0181V25.1031ZM29.7721 25.1031C30.6866 25.1031 31.5441 24.8887 32.2049 24.3223L30.9033 22.8038C30.7241 22.9574 30.3937 23.1031 29.7721 23.1031V25.1031ZM32.2049 24.3223C32.881 23.7428 33.1841 22.9484 33.1841 22.0691H31.1841C31.1841 22.4618 31.0673 22.6633 30.9033 22.8038L32.2049 24.3223ZM33.1841 22.0691C33.1841 21.1898 32.881 20.3953 32.2049 19.8158L30.9033 21.3343C31.0673 21.4748 31.1841 21.6764 31.1841 22.0691H33.1841ZM32.2049 19.8158C31.5392 19.2452 30.6654 19.0351 29.7361 19.0351V21.0351C30.3909 21.0351 30.7291 21.1849 30.9033 21.3343L32.2049 19.8158ZM29.7361 19.0351H27.0181V21.0351H29.7361V19.0351ZM26.0181 20.0351V24.1031H28.0181V20.0351H26.0181ZM29.9161 30.8811C30.8811 30.8811 31.7752 30.6536 32.4683 30.07L31.18 28.5402C30.9611 28.7245 30.5832 28.8811 29.9161 28.8811V30.8811ZM32.4683 30.07C33.1846 29.4668 33.5081 28.6335 33.5081 27.7031H31.5081C31.5081 28.1406 31.3757 28.3754 31.18 28.5402L32.4683 30.07ZM33.5081 27.7031C33.5081 26.7485 33.1639 25.9037 32.4245 25.2937L31.1518 26.8365C31.3724 27.0185 31.5081 27.2656 31.5081 27.7031H33.5081ZM32.4358 25.3031C31.7297 24.7029 30.8363 24.4531 29.8621 24.4531V26.4531C30.496 26.4531 30.8866 26.6112 31.1405 26.827L32.4358 25.3031ZM29.8621 24.4531H27.0181V26.4531H29.8621V24.4531ZM26.0181 25.4531V29.8811H28.0181V25.4531H26.0181ZM27.0181 30.8811H29.9161V28.8811H27.0181V30.8811ZM44.1412 18.6851H45.1412V17.6851H44.1412V18.6851ZM44.1412 20.0171V21.0171H45.1412V20.0171H44.1412ZM40.7212 20.0171V19.0171H39.7212V20.0171H40.7212ZM40.7212 31.2311V32.2311H41.7212V31.2311H40.7212ZM39.0832 31.2311H38.0832V32.2311H39.0832V31.2311ZM39.0832 20.0171H40.0832V19.0171H39.0832V20.0171ZM35.6452 20.0171H34.6452V21.0171H35.6452V20.0171ZM35.6452 18.6851V17.6851H34.6452V18.6851H35.6452ZM43.1412 18.6851V20.0171H45.1412V18.6851H43.1412ZM44.1412 19.0171H40.7212V21.0171H44.1412V19.0171ZM39.7212 20.0171V31.2311H41.7212V20.0171H39.7212ZM40.7212 30.2311H39.0832V32.2311H40.7212V30.2311ZM40.0832 31.2311V20.0171H38.0832V31.2311H40.0832ZM39.0832 19.0171H35.6452V21.0171H39.0832V19.0171ZM36.6452 20.0171V18.6851H34.6452V20.0171H36.6452ZM35.6452 19.6851H44.1412V17.6851H35.6452V19.6851ZM51.2875 24.9671L50.4361 24.4426L50.1132 24.9666L50.4357 25.4909L51.2875 24.9671ZM55.1395 31.2311V32.2311H56.9284L55.9913 30.7073L55.1395 31.2311ZM53.2855 31.2311L52.4333 31.7543L52.726 32.2311H53.2855V31.2311ZM50.2795 26.3351L51.1317 25.8119L50.2584 24.3896L49.4162 25.8304L50.2795 26.3351ZM47.4175 31.2311V32.2311H47.9912L48.2808 31.7357L47.4175 31.2311ZM45.5995 31.2311L44.7466 30.709L43.815 32.2311H45.5995V31.2311ZM49.4335 24.9671L50.2864 25.4891L50.6062 24.9666L50.286 24.4443L49.4335 24.9671ZM45.5815 18.6851V17.6851H43.7953L44.729 19.2078L45.5815 18.6851ZM47.4175 18.6851L48.2691 18.161L47.9763 17.6851H47.4175V18.6851ZM50.4415 23.5991L49.5898 24.1232L50.4624 25.5411L51.3042 24.1047L50.4415 23.5991ZM53.3215 18.6851V17.6851H52.7485L52.4587 18.1794L53.3215 18.6851ZM55.1575 18.6851L56.0089 19.2096L56.9481 17.6851H55.1575V18.6851ZM50.4357 25.4909L54.2877 31.7549L55.9913 30.7073L52.1393 24.4433L50.4357 25.4909ZM55.1395 30.2311H53.2855V32.2311H55.1395V30.2311ZM54.1377 30.7079L51.1317 25.8119L49.4273 26.8583L52.4333 31.7543L54.1377 30.7079ZM49.4162 25.8304L46.5542 30.7264L48.2808 31.7357L51.1428 26.8397L49.4162 25.8304ZM47.4175 30.2311H45.5995V32.2311H47.4175V30.2311ZM46.4524 31.7531L50.2864 25.4891L48.5806 24.445L44.7466 30.709L46.4524 31.7531ZM50.286 24.4443L46.434 18.1623L44.729 19.2078L48.581 25.4898L50.286 24.4443ZM45.5815 19.6851H47.4175V17.6851H45.5815V19.6851ZM46.5658 19.2092L49.5898 24.1232L51.2931 23.075L48.2691 18.161L46.5658 19.2092ZM51.3042 24.1047L54.1842 19.1907L52.4587 18.1794L49.5787 23.0934L51.3042 24.1047ZM53.3215 19.6851H55.1575V17.6851H53.3215V19.6851ZM54.3061 18.1606L50.4361 24.4426L52.1389 25.4916L56.0089 19.2096L54.3061 18.1606ZM64.6452 24.9671L65.34 25.6863L65.3402 25.6861L64.6452 24.9671ZM58.9752 25.9931V24.9931H57.9752V25.9931H58.9752ZM58.9752 31.2311V32.2311H59.9752V31.2311H58.9752ZM57.3372 31.2311H56.3372V32.2311H57.3372V31.2311ZM57.3372 18.6851V17.6851H56.3372V18.6851H57.3372ZM64.6092 19.7111L63.9264 20.4418L63.9324 20.4472L64.6092 19.7111ZM63.4032 24.0491L64.0789 24.7862L64.0789 24.7862L63.4032 24.0491ZM58.9752 20.0351V19.0351H57.9752V20.0351H58.9752ZM58.9752 24.6431H57.9752V25.6431H58.9752V24.6431ZM64.7252 22.3571C64.7252 23.1429 64.4661 23.7493 63.9502 24.2481L65.3402 25.6861C66.2642 24.7929 66.7252 23.6592 66.7252 22.3571H64.7252ZM63.9504 24.2479C63.5024 24.6806 62.7165 24.9931 61.3872 24.9931V26.9931C62.9858 26.9931 64.3719 26.6215 65.34 25.6863L63.9504 24.2479ZM61.3872 24.9931H58.9752V26.9931H61.3872V24.9931ZM57.9752 25.9931V31.2311H59.9752V25.9931H57.9752ZM58.9752 30.2311H57.3372V32.2311H58.9752V30.2311ZM58.3372 31.2311V18.6851H56.3372V31.2311H58.3372ZM57.3372 19.6851H61.3872V17.6851H57.3372V19.6851ZM61.3872 19.6851C62.6546 19.6851 63.4442 19.9911 63.9264 20.4417L65.2919 18.9804C64.3101 18.063 62.9518 17.6851 61.3872 17.6851V19.6851ZM63.9324 20.4472C64.455 20.9278 64.7252 21.5353 64.7252 22.3571H66.7252C66.7252 21.0188 66.2513 19.8624 65.286 18.9749L63.9324 20.4472ZM61.3872 25.6431C62.4156 25.6431 63.3832 25.424 64.0789 24.7862L62.7274 23.3119C62.5592 23.4662 62.1827 23.6431 61.3872 23.6431V25.6431ZM64.0789 24.7862C64.7669 24.1556 65.0512 23.2946 65.0512 22.3571H63.0512C63.0512 22.8836 62.9035 23.1506 62.7274 23.3119L64.0789 24.7862ZM65.0512 22.3571C65.0512 21.3905 64.7676 20.494 64.0422 19.8617C63.3432 19.2524 62.3982 19.0351 61.3872 19.0351V21.0351C62.1522 21.0351 62.5392 21.2047 62.7281 21.3694C62.8908 21.5112 63.0512 21.7757 63.0512 22.3571H65.0512ZM61.3872 19.0351H58.9752V21.0351H61.3872V19.0351ZM57.9752 20.0351V24.6431H59.9752V20.0351H57.9752ZM58.9752 25.6431H61.3872V23.6431H58.9752V25.6431ZM69.507 30.9251L69.0869 31.8325L69.0969 31.8372L69.1071 31.8416L69.507 30.9251ZM67.977 29.7011L67.1595 30.2771L67.1658 30.2859L67.977 29.7011ZM67.401 27.8831V26.8831H66.3833L66.4012 27.9006L67.401 27.8831ZM69.147 27.8831L70.1418 27.7816L70.0502 26.8831H69.147V27.8831ZM69.867 29.3771L69.1702 30.0944L69.1806 30.1044L69.1913 30.1142L69.867 29.3771ZM73.575 29.3951L74.2292 30.1514L74.2307 30.1501L73.575 29.3951ZM73.863 26.7131L73.1123 27.3737L73.1123 27.3737L73.863 26.7131ZM72.873 26.0291L72.5065 26.9595L72.5065 26.9595L72.873 26.0291ZM71.271 25.5251L71.5297 24.5591L71.5234 24.5575L71.271 25.5251ZM69.273 24.8771L68.871 25.7928L68.8791 25.7962L69.273 24.8771ZM67.995 23.8691L67.1925 24.4658L67.2012 24.4774L67.2101 24.4887L67.995 23.8691ZM67.995 20.1791L68.83 20.7294L68.83 20.7294L67.995 20.1791ZM69.453 18.9551L69.0405 18.0441L69.0339 18.0471L69.453 18.9551ZM74.511 19.4051L73.8909 20.1897L73.8971 20.1944L74.511 19.4051ZM75.789 21.7451V22.7451H76.8926L76.7842 21.6468L75.789 21.7451ZM73.989 21.7451L72.9967 21.8691L73.1062 22.7451H73.989V21.7451ZM73.233 20.4851L72.5908 21.2516L72.5969 21.2568L72.6032 21.2618L73.233 20.4851ZM69.795 20.4671L70.4223 21.2458L70.4288 21.2406L70.4352 21.2353L69.795 20.4671ZM69.525 23.0591L68.7724 23.7176L68.78 23.7263L68.7878 23.7348L69.525 23.0591ZM70.479 23.7251L70.0923 24.6473L70.1099 24.6547L70.1279 24.6614L70.479 23.7251ZM72.081 24.2291L71.8107 25.1919L71.8155 25.1932L72.081 24.2291ZM74.079 24.9131L73.6668 25.8242L73.6759 25.8283L73.6851 25.8322L74.079 24.9131ZM75.375 25.9391L74.5823 26.5488L74.5901 26.5587L75.375 25.9391ZM75.429 29.5391L76.2865 30.0536L76.2865 30.0536L75.429 29.5391ZM73.989 30.8531L73.5219 29.9689L73.989 30.8531ZM71.739 30.3571C71.0281 30.3571 70.4233 30.2338 69.9069 30.0085L69.1071 31.8416C69.9107 32.1923 70.7939 32.3571 71.739 32.3571V30.3571ZM69.9271 30.0176C69.4156 29.7808 69.0479 29.4765 68.7882 29.1163L67.1658 30.2859C67.6501 30.9577 68.3024 31.4694 69.0869 31.8325L69.9271 30.0176ZM68.7945 29.1251C68.5448 28.7707 68.4096 28.3618 68.4008 27.8655L66.4012 27.9006C66.4164 28.7723 66.6652 29.5754 67.1595 30.277L68.7945 29.1251ZM67.401 28.8831H69.147V26.8831H67.401V28.8831ZM68.1522 27.9846C68.2358 28.8041 68.5798 29.5208 69.1702 30.0944L70.5638 28.6598C70.3142 28.4173 70.1782 28.1381 70.1418 27.7816L68.1522 27.9846ZM69.1913 30.1142C69.8694 30.7358 70.7714 30.9711 71.739 30.9711V28.9711C71.0746 28.9711 70.7286 28.8104 70.5427 28.6399L69.1913 30.1142ZM71.739 30.9711C72.6793 30.9711 73.5509 30.738 74.2292 30.1514L72.9208 28.6387C72.7111 28.8201 72.3587 28.9711 71.739 28.9711V30.9711ZM74.2307 30.1501C74.9087 29.5613 75.259 28.7803 75.259 27.8831H73.259C73.259 28.2099 73.1533 28.4369 72.9193 28.64L74.2307 30.1501ZM75.259 27.8831C75.259 27.2112 75.0693 26.5702 74.6137 26.0525L73.1123 27.3737C73.1847 27.456 73.259 27.5949 73.259 27.8831H75.259ZM74.6137 26.0525C74.2381 25.6256 73.7733 25.309 73.2395 25.0987L72.5065 26.9595C72.7647 27.0612 72.9599 27.2006 73.1123 27.3737L74.6137 26.0525ZM73.2395 25.0987C72.7933 24.9229 72.2185 24.7436 71.5297 24.5591L71.0123 26.491C71.6675 26.6665 72.1607 26.8233 72.5065 26.9595L73.2395 25.0987ZM71.5234 24.5575C70.7202 24.3479 70.1071 24.1466 69.6669 23.9579L68.8791 25.7962C69.4469 26.0396 70.1658 26.2702 71.0186 26.4927L71.5234 24.5575ZM69.675 23.9614C69.3449 23.8165 69.0469 23.5876 68.7799 23.2494L67.2101 24.4887C67.6631 25.0625 68.2171 25.5056 68.871 25.7927L69.675 23.9614ZM68.7975 23.2724C68.6149 23.0268 68.473 22.634 68.473 21.9971H66.473C66.473 22.9202 66.6791 23.7754 67.1925 24.4658L68.7975 23.2724ZM68.473 21.9971C68.473 21.492 68.5985 21.0806 68.83 20.7294L67.16 19.6288C66.6955 20.3335 66.473 21.1341 66.473 21.9971H68.473ZM68.83 20.7294C69.0665 20.3705 69.4021 20.08 69.8721 19.863L69.0339 18.0471C68.2559 18.4062 67.6195 18.9317 67.16 19.6288L68.83 20.7294ZM69.8655 19.866C70.3518 19.6458 70.9335 19.5231 71.631 19.5231V17.5231C70.6965 17.5231 69.8262 17.6884 69.0405 18.0441L69.8655 19.866ZM71.631 19.5231C72.6373 19.5231 73.3625 19.772 73.8909 20.1896L75.1311 18.6205C74.1715 17.8622 72.9767 17.5231 71.631 17.5231V19.5231ZM73.8971 20.1944C74.4318 20.6103 74.7242 21.1381 74.7938 21.8434L76.7842 21.6468C76.6618 20.408 76.1022 19.3758 75.1249 18.6157L73.8971 20.1944ZM75.789 20.7451H73.989V22.7451H75.789V20.7451ZM74.9813 21.621C74.8835 20.8391 74.4684 20.1994 73.8628 19.7083L72.6032 21.2618C72.8856 21.4908 72.9745 21.6911 72.9967 21.8691L74.9813 21.621ZM73.8752 19.7186C73.2079 19.1594 72.3723 18.9271 71.469 18.9271V20.9271C72.0297 20.9271 72.3701 21.0667 72.5908 21.2516L73.8752 19.7186ZM71.469 18.9271C70.6036 18.9271 69.8031 19.1586 69.1548 19.6989L70.4352 21.2353C70.6509 21.0556 70.9664 20.9271 71.469 20.9271V18.9271ZM69.1677 19.6883C68.4637 20.2554 68.147 21.0544 68.147 21.9431H70.147C70.147 21.5598 70.2623 21.3748 70.4223 21.2458L69.1677 19.6883ZM68.147 21.9431C68.147 22.5925 68.3315 23.2136 68.7724 23.7176L70.2776 22.4006C70.2145 22.3285 70.147 22.2057 70.147 21.9431H68.147ZM68.7878 23.7348C69.1527 24.1328 69.5915 24.4373 70.0923 24.6473L70.8657 22.8029C70.6225 22.7009 70.4253 22.5613 70.2622 22.3834L68.7878 23.7348ZM70.1279 24.6614C70.5508 24.82 71.1161 24.9969 71.8107 25.1919L72.3513 23.2663C71.6779 23.0773 71.1752 22.9182 70.8301 22.7887L70.1279 24.6614ZM71.8155 25.1932C72.6175 25.414 73.2287 25.626 73.6668 25.8242L74.4912 24.002C73.9213 23.7442 73.2005 23.5001 72.3465 23.265L71.8155 25.1932ZM73.6851 25.8322C74.0199 25.9757 74.3184 26.2056 74.5824 26.5488L76.1676 25.3294C75.7116 24.7366 75.1461 24.2824 74.4729 23.9939L73.6851 25.8322ZM74.5901 26.5587C74.7678 26.7837 74.915 27.163 74.915 27.8111H76.915C76.915 26.8752 76.7022 26.0064 76.1599 25.3194L74.5901 26.5587ZM74.915 27.8111C74.915 28.2364 74.8051 28.6353 74.5715 29.0246L76.2865 30.0536C76.7009 29.3629 76.915 28.6098 76.915 27.8111H74.915ZM74.5715 29.0246C74.3542 29.3868 74.0199 29.7058 73.5219 29.9689L74.4561 31.7373C75.2301 31.3284 75.8558 30.7714 76.2865 30.0536L74.5715 29.0246ZM73.5219 29.9689C73.0561 30.215 72.4727 30.3571 71.739 30.3571V32.3571C72.7333 32.3571 73.6499 32.1632 74.4561 31.7373L73.5219 29.9689ZM79.9635 20.0171V19.0171H78.9635V20.0171H79.9635ZM79.9635 24.2111H78.9635V25.2111H79.9635V24.2111ZM84.5355 24.2111H85.5355V23.2111H84.5355V24.2111ZM84.5355 25.5611V26.5611H85.5355V25.5611H84.5355ZM79.9635 25.5611V24.5611H78.9635V25.5611H79.9635ZM79.9635 29.8811H78.9635V30.8811H79.9635V29.8811ZM85.0755 29.8811H86.0755V28.8811H85.0755V29.8811ZM85.0755 31.2311V32.2311H86.0755V31.2311H85.0755ZM78.3255 31.2311H77.3255V32.2311H78.3255V31.2311ZM78.3255 18.6671V17.6671H77.3255V18.6671H78.3255ZM85.0755 18.6671H86.0755V17.6671H85.0755V18.6671ZM85.0755 20.0171V21.0171H86.0755V20.0171H85.0755ZM78.9635 20.0171V24.2111H80.9635V20.0171H78.9635ZM79.9635 25.2111H84.5355V23.2111H79.9635V25.2111ZM83.5355 24.2111V25.5611H85.5355V24.2111H83.5355ZM84.5355 24.5611H79.9635V26.5611H84.5355V24.5611ZM78.9635 25.5611V29.8811H80.9635V25.5611H78.9635ZM79.9635 30.8811H85.0755V28.8811H79.9635V30.8811ZM84.0755 29.8811V31.2311H86.0755V29.8811H84.0755ZM85.0755 30.2311H78.3255V32.2311H85.0755V30.2311ZM79.3255 31.2311V18.6671H77.3255V31.2311H79.3255ZM78.3255 19.6671H85.0755V17.6671H78.3255V19.6671ZM84.0755 18.6671V20.0171H86.0755V18.6671H84.0755ZM85.0755 19.0171H79.9635V21.0171H85.0755V19.0171Z" fill="#443B3B"/>
<defs>
<filter id="filter0_d" x="3.68286" y="0.0126038" width="142.192" height="53.9874" filterUnits="userSpaceOnUse" color-interpolation-filters="sRGB">
<feFlood flood-opacity="0" result="BackgroundImageFix"/>
<feColorMatrix in="SourceAlpha" type="matrix" values="0 0 0 0 0 0 0 0 0 0 0 0 0 0 0 0 0 0 127 0"/>
<feOffset dy="4"/>
<feGaussianBlur stdDeviation="2"/>
<feColorMatrix type="matrix" values="0 0 0 0 0 0 0 0 0 0 0 0 0 0 0 0 0 0 0.25 0"/>
<feBlend mode="normal" in2="BackgroundImageFix" result="effect1_dropShadow"/>
<feBlend mode="normal" in="SourceGraphic" in2="effect1_dropShadow" result="shape"/>
</filter>
</defs>
</svg>
