<svg width="182" height="45" viewBox="0 0 268 63" fill="none" xmlns="http://www.w3.org/2000/svg">
<g filter="url(#filter0_d)">
<rect x="10" width="174" height="55" rx="27.5" fill="#9DF5B1"/>
</g>
<path d="M162 29.0002C162 28.5879 161.745 28.2334 161.373 28.0474L134.893 14.1967C134.692 14.0688 134.452 14.0001 134.206 14C133.886 14 133.58 14.115 133.353 14.3198C133.127 14.5246 133 14.8024 133 15.0921C133 15.1344 133.009 15.1744 133.014 15.2152H133V43.0311H133.014C133.046 43.2972 133.186 43.543 133.406 43.7218C133.626 43.9005 133.91 43.9996 134.206 44C134.417 43.999 134.624 43.9473 134.806 43.85L134.817 43.8671L161.405 29.9594L161.394 29.9424C161.578 29.8475 161.731 29.7105 161.837 29.5451C161.943 29.3796 162 29.1917 162 29.0002Z" fill="#443B3B"/>
<path d="M35.8178 26.384C36.4258 26.48 36.9778 26.728 37.4738 27.128C37.9858 27.528 38.3858 28.024 38.6738 28.616C38.9778 29.208 39.1298 29.84 39.1298 30.512C39.1298 31.36 38.9138 32.128 38.4818 32.816C38.0498 33.488 37.4178 34.024 36.5858 34.424C35.7698 34.808 34.8018 35 33.6818 35H27.4418V18.272H33.4418C34.5778 18.272 35.5458 18.464 36.3458 18.848C37.1458 19.216 37.7458 19.72 38.1458 20.36C38.5458 21 38.7458 21.72 38.7458 22.52C38.7458 23.512 38.4738 24.336 37.9297 24.992C37.4018 25.632 36.6978 26.096 35.8178 26.384ZM29.6258 25.496H33.2978C34.3218 25.496 35.1138 25.256 35.6738 24.776C36.2338 24.296 36.5138 23.632 36.5138 22.784C36.5138 21.936 36.2338 21.272 35.6738 20.792C35.1138 20.312 34.3058 20.072 33.2498 20.072H29.6258V25.496ZM33.4898 33.2C34.5778 33.2 35.4258 32.944 36.0338 32.432C36.6418 31.92 36.9458 31.208 36.9458 30.296C36.9458 29.368 36.6258 28.64 35.9858 28.112C35.3458 27.568 34.4898 27.296 33.4178 27.296H29.6258V33.2H33.4898ZM52.4565 18.272V20.048H47.8965V35H45.7125V20.048H41.1285V18.272H52.4565ZM61.9849 26.648L67.1209 35H64.6489L60.6409 28.472L56.8249 35H54.4009L59.5129 26.648L54.3769 18.272H56.8249L60.8569 24.824L64.6969 18.272H67.1449L61.9849 26.648ZM75.3551 35.168C74.2511 35.168 73.2591 34.976 72.3791 34.592C71.5151 34.192 70.8351 33.648 70.3391 32.96C69.8431 32.256 69.5871 31.448 69.5711 30.536H71.8991C71.9791 31.32 72.2991 31.984 72.8591 32.528C73.4351 33.056 74.2671 33.32 75.3551 33.32C76.3951 33.32 77.2111 33.064 77.8031 32.552C78.4111 32.024 78.7151 31.352 78.7151 30.536C78.7151 29.896 78.5391 29.376 78.1871 28.976C77.8351 28.576 77.3951 28.272 76.8671 28.064C76.3391 27.856 75.6271 27.632 74.7311 27.392C73.6271 27.104 72.7391 26.816 72.0671 26.528C71.4111 26.24 70.8431 25.792 70.3631 25.184C69.8991 24.56 69.6671 23.728 69.6671 22.688C69.6671 21.776 69.8991 20.968 70.3631 20.264C70.8271 19.56 71.4751 19.016 72.3071 18.632C73.1551 18.248 74.1231 18.056 75.2111 18.056C76.7791 18.056 78.0591 18.448 79.0511 19.232C80.0591 20.016 80.6271 21.056 80.7551 22.352H78.3551C78.2751 21.712 77.9391 21.152 77.3471 20.672C76.7551 20.176 75.9711 19.928 74.9951 19.928C74.0831 19.928 73.3391 20.168 72.7631 20.648C72.1871 21.112 71.8991 21.768 71.8991 22.616C71.8991 23.224 72.0671 23.72 72.4031 24.104C72.7551 24.488 73.1791 24.784 73.6751 24.992C74.1871 25.184 74.8991 25.408 75.8111 25.664C76.9151 25.968 77.8031 26.272 78.4751 26.576C79.1471 26.864 79.7231 27.32 80.2031 27.944C80.6831 28.552 80.9231 29.384 80.9231 30.44C80.9231 31.256 80.7071 32.024 80.2751 32.744C79.8431 33.464 79.2031 34.048 78.3551 34.496C77.5071 34.944 76.5071 35.168 75.3551 35.168ZM86.3211 20.048V25.64H92.4171V27.44H86.3211V33.2H93.1371V35H84.1371V18.248H93.1371V20.048H86.3211Z" fill="#443B3B"/>
<path d="M35.8178 26.384L35.5067 25.4336L35.6618 27.3718L35.8178 26.384ZM37.4738 27.128L36.846 27.9064L36.852 27.9113L36.8581 27.916L37.4738 27.128ZM38.6738 28.616L37.7745 29.0535L37.7792 29.0632L37.7842 29.0728L38.6738 28.616ZM38.4818 32.816L39.323 33.3568L39.3286 33.3478L38.4818 32.816ZM36.5858 34.424L37.0116 35.3288L37.019 35.3253L36.5858 34.424ZM27.4418 35H26.4418V36H27.4418V35ZM27.4418 18.272V17.272H26.4418V18.272H27.4418ZM36.3458 18.848L35.913 19.7495L35.9204 19.7531L35.9278 19.7565L36.3458 18.848ZM38.1458 20.36L37.2978 20.89L37.2978 20.89L38.1458 20.36ZM37.9297 24.992L37.16 24.3537L37.1584 24.3556L37.9297 24.992ZM29.6258 25.496H28.6258V26.496H29.6258V25.496ZM35.6738 20.792L35.023 21.5513L35.023 21.5513L35.6738 20.792ZM29.6258 20.072V19.072H28.6258V20.072H29.6258ZM36.0338 32.432L36.6779 33.1969L36.6779 33.1969L36.0338 32.432ZM35.9858 28.112L35.3381 28.8739L35.3437 28.8787L35.3494 28.8834L35.9858 28.112ZM29.6258 27.296V26.296H28.6258V27.296H29.6258ZM29.6258 33.2H28.6258V34.2H29.6258V33.2ZM35.6618 27.3718C36.0907 27.4395 36.4812 27.6122 36.846 27.9064L38.1015 26.3496C37.4743 25.8438 36.7608 25.5205 35.9737 25.3962L35.6618 27.3718ZM36.8581 27.916C37.2485 28.221 37.5522 28.5965 37.7745 29.0535L39.573 28.1785C39.2193 27.4515 38.723 26.835 38.0894 26.34L36.8581 27.916ZM37.7842 29.0728C38.0149 29.522 38.1298 29.9973 38.1298 30.512H40.1298C40.1298 29.6827 39.9406 28.894 39.5633 28.1592L37.7842 29.0728ZM38.1298 30.512C38.1298 31.1805 37.9623 31.7627 37.6349 32.2842L39.3286 33.3478C39.8652 32.4933 40.1298 31.5395 40.1298 30.512H38.1298ZM37.6406 32.2752C37.3233 32.7687 36.8442 33.1902 36.1525 33.5227L37.019 35.3253C37.9913 34.8578 38.7762 34.2073 39.3229 33.3568L37.6406 32.2752ZM36.16 33.5192C35.5054 33.8272 34.6893 34 33.6818 34V36C34.9142 36 36.0342 35.7888 37.0115 35.3288L36.16 33.5192ZM33.6818 34H27.4418V36H33.6818V34ZM28.4418 35V18.272H26.4418V35H28.4418ZM27.4418 19.272H33.4418V17.272H27.4418V19.272ZM33.4418 19.272C34.4685 19.272 35.2804 19.4459 35.913 19.7495L36.7785 17.9465C35.8111 17.4821 34.687 17.272 33.4418 17.272V19.272ZM35.9278 19.7565C36.5808 20.0569 37.0174 20.4415 37.2978 20.89L38.9937 19.83C38.4741 18.9985 37.7107 18.3751 36.7637 17.9395L35.9278 19.7565ZM37.2978 20.89C37.5924 21.3614 37.7458 21.8957 37.7458 22.52H39.7458C39.7458 21.5443 39.4991 20.6386 38.9937 19.83L37.2978 20.89ZM37.7458 22.52C37.7458 23.3191 37.5314 23.9058 37.16 24.3537L38.6995 25.6303C39.4161 24.7662 39.7458 23.7049 39.7458 22.52H37.7458ZM37.1584 24.3556C36.7646 24.8329 36.2282 25.1975 35.5067 25.4336L36.1288 27.3344C37.1673 26.9945 38.0389 26.4311 38.7011 25.6284L37.1584 24.3556ZM29.6258 26.496H33.2978V24.496H29.6258V26.496ZM33.2978 26.496C34.4682 26.496 35.5238 26.2216 36.3245 25.5353L35.023 24.0167C34.7037 24.2904 34.1753 24.496 33.2978 24.496V26.496ZM36.3245 25.5353C37.1406 24.8358 37.5138 23.8753 37.5138 22.784H35.5138C35.5138 23.3887 35.3269 23.7562 35.023 24.0167L36.3245 25.5353ZM37.5138 22.784C37.5138 21.6927 37.1406 20.7322 36.3245 20.0327L35.023 21.5513C35.3269 21.8118 35.5138 22.1793 35.5138 22.784H37.5138ZM36.3245 20.0327C35.5188 19.3421 34.443 19.072 33.2498 19.072V21.072C34.1685 21.072 34.7087 21.2819 35.023 21.5513L36.3245 20.0327ZM33.2498 19.072H29.6258V21.072H33.2498V19.072ZM28.6258 20.072V25.496H30.6258V20.072H28.6258ZM33.4898 34.2C34.7267 34.2 35.8328 33.9086 36.6779 33.1969L35.3896 31.6671C35.0187 31.9794 34.4288 32.2 33.4898 32.2V34.2ZM36.6779 33.1969C37.5462 32.4657 37.9458 31.4544 37.9458 30.296H35.9458C35.9458 30.9616 35.7373 31.3743 35.3896 31.6671L36.6779 33.1969ZM37.9458 30.296C37.9458 29.1094 37.5215 28.0826 36.6221 27.3406L35.3494 28.8834C35.73 29.1974 35.9458 29.6266 35.9458 30.296H37.9458ZM36.6334 27.3501C35.7673 26.6139 34.6599 26.296 33.4178 26.296V28.296C34.3196 28.296 34.9242 28.5221 35.3381 28.8739L36.6334 27.3501ZM33.4178 26.296H29.6258V28.296H33.4178V26.296ZM28.6258 27.296V33.2H30.6258V27.296H28.6258ZM29.6258 34.2H33.4898V32.2H29.6258V34.2ZM52.4565 18.272H53.4565V17.272H52.4565V18.272ZM52.4565 20.048V21.048H53.4565V20.048H52.4565ZM47.8965 20.048V19.048H46.8965V20.048H47.8965ZM47.8965 35V36H48.8965V35H47.8965ZM45.7125 35H44.7125V36H45.7125V35ZM45.7125 20.048H46.7125V19.048H45.7125V20.048ZM41.1285 20.048H40.1285V21.048H41.1285V20.048ZM41.1285 18.272V17.272H40.1285V18.272H41.1285ZM51.4565 18.272V20.048H53.4565V18.272H51.4565ZM52.4565 19.048H47.8965V21.048H52.4565V19.048ZM46.8965 20.048V35H48.8965V20.048H46.8965ZM47.8965 34H45.7125V36H47.8965V34ZM46.7125 35V20.048H44.7125V35H46.7125ZM45.7125 19.048H41.1285V21.048H45.7125V19.048ZM42.1285 20.048V18.272H40.1285V20.048H42.1285ZM41.1285 19.272H52.4565V17.272H41.1285V19.272ZM61.9849 26.648L61.1335 26.1235L60.8106 26.6475L61.133 27.1718L61.9849 26.648ZM67.1209 35V36H68.9098L67.9727 34.4762L67.1209 35ZM64.6489 35L63.7967 35.5232L64.0894 36H64.6489V35ZM60.6409 28.472L61.4931 27.9488L60.6198 26.5265L59.7776 27.9673L60.6409 28.472ZM56.8249 35V36H57.3986L57.6882 35.5047L56.8249 35ZM54.4009 35L53.548 34.478L52.6164 36H54.4009V35ZM59.5129 26.648L60.3658 27.17L60.6856 26.6475L60.3654 26.1253L59.5129 26.648ZM54.3769 18.272V17.272H52.5907L53.5244 18.7947L54.3769 18.272ZM56.8249 18.272L57.6765 17.7479L57.3837 17.272H56.8249V18.272ZM60.8569 24.824L60.0052 25.3481L60.8778 26.766L61.7196 25.3296L60.8569 24.824ZM64.6969 18.272V17.272H64.1239L63.8341 17.7664L64.6969 18.272ZM67.1449 18.272L67.9963 18.7965L68.9354 17.272H67.1449V18.272ZM61.133 27.1718L66.269 35.5238L67.9727 34.4762L62.8367 26.1242L61.133 27.1718ZM67.1209 34H64.6489V36H67.1209V34ZM65.5011 34.4768L61.4931 27.9488L59.7887 28.9952L63.7967 35.5232L65.5011 34.4768ZM59.7776 27.9673L55.9616 34.4953L57.6882 35.5047L61.5042 28.9767L59.7776 27.9673ZM56.8249 34H54.4009V36H56.8249V34ZM55.2538 35.522L60.3658 27.17L58.66 26.126L53.548 34.478L55.2538 35.522ZM60.3654 26.1253L55.2294 17.7493L53.5244 18.7947L58.6604 27.1707L60.3654 26.1253ZM54.3769 19.272H56.8249V17.272H54.3769V19.272ZM55.9732 18.7961L60.0052 25.3481L61.7085 24.2999L57.6765 17.7479L55.9732 18.7961ZM61.7196 25.3296L65.5596 18.7776L63.8341 17.7664L59.9941 24.3184L61.7196 25.3296ZM64.6969 19.272H67.1449V17.272H64.6969V19.272ZM66.2935 17.7475L61.1335 26.1235L62.8363 27.1725L67.9963 18.7965L66.2935 17.7475ZM72.3791 34.592L71.959 35.4995L71.969 35.5041L71.9792 35.5085L72.3791 34.592ZM70.3391 32.96L69.5216 33.536L69.5279 33.5448L70.3391 32.96ZM69.5711 30.536V29.536H68.5534L68.5713 30.5535L69.5711 30.536ZM71.8991 30.536L72.894 30.4345L72.8023 29.536H71.8991V30.536ZM72.8591 32.528L72.1623 33.2453L72.1727 33.2554L72.1834 33.2652L72.8591 32.528ZM77.8031 32.552L78.4573 33.3084L78.4588 33.307L77.8031 32.552ZM78.1871 28.976L77.4364 29.6366L77.4364 29.6366L78.1871 28.976ZM76.8671 28.064L76.5006 28.9944L76.5006 28.9944L76.8671 28.064ZM74.7311 27.392L74.9899 26.426L74.9835 26.4244L74.7311 27.392ZM72.0671 26.528L71.6651 27.4437L71.6732 27.4471L72.0671 26.528ZM70.3631 25.184L69.5607 25.7807L69.5693 25.7923L69.5782 25.8036L70.3631 25.184ZM70.3631 20.264L71.1981 20.8143L71.1981 20.8143L70.3631 20.264ZM72.3071 18.632L71.8946 17.721L71.8881 17.724L72.3071 18.632ZM79.0511 19.232L78.4311 20.0166L78.4372 20.0214L79.0511 19.232ZM80.7551 22.352V23.352H81.8588L81.7503 22.2537L80.7551 22.352ZM78.3551 22.352L77.3628 22.476L77.4723 23.352H78.3551V22.352ZM77.3471 20.672L76.7049 21.4385L76.7111 21.4437L76.7173 21.4488L77.3471 20.672ZM72.7631 20.648L73.3905 21.4268L73.3969 21.4215L73.4033 21.4162L72.7631 20.648ZM72.4031 24.104L71.6505 24.7625L71.6582 24.7712L71.666 24.7797L72.4031 24.104ZM73.6751 24.992L73.2884 25.9142L73.3061 25.9216L73.324 25.9283L73.6751 24.992ZM75.8111 25.664L75.5409 26.6268L75.5456 26.6281L75.8111 25.664ZM78.4751 26.576L78.063 27.4871L78.072 27.4912L78.0812 27.4951L78.4751 26.576ZM80.2031 27.944L79.4104 28.5538L79.4182 28.5636L80.2031 27.944ZM80.2751 32.744L81.1326 33.2585L81.1326 33.2585L80.2751 32.744ZM78.3551 34.496L77.888 33.6118L78.3551 34.496ZM75.3551 34.168C74.3683 34.168 73.5154 33.9968 72.7791 33.6755L71.9792 35.5085C73.0029 35.9552 74.134 36.168 75.3551 36.168V34.168ZM72.7992 33.6845C72.0717 33.3477 71.534 32.9074 71.1503 32.3752L69.5279 33.5448C70.1363 34.3886 70.9586 35.0363 71.959 35.4995L72.7992 33.6845ZM71.1566 32.384C70.7829 31.8537 70.5837 31.2428 70.571 30.5185L68.5713 30.5535C68.5906 31.6532 68.9033 32.6583 69.5216 33.536L71.1566 32.384ZM69.5711 31.536H71.8991V29.536H69.5711V31.536ZM70.9043 30.6375C71.0079 31.653 71.432 32.5358 72.1623 33.2453L73.5559 31.8107C73.1663 31.4322 72.9503 30.987 72.894 30.4345L70.9043 30.6375ZM72.1834 33.2652C73.0055 34.0187 74.1155 34.32 75.3551 34.32V32.32C74.4188 32.32 73.8648 32.0933 73.5348 31.7908L72.1834 33.2652ZM75.3551 34.32C76.5554 34.32 77.6311 34.0229 78.4573 33.3084L77.149 31.7956C76.7912 32.1051 76.2349 32.32 75.3551 32.32V34.32ZM78.4588 33.307C79.2889 32.5862 79.7151 31.6372 79.7151 30.536H77.7151C77.7151 31.0668 77.5334 31.4618 77.1474 31.797L78.4588 33.307ZM79.7151 30.536C79.7151 29.7042 79.4815 28.9331 78.9378 28.3154L77.4364 29.6366C77.5968 29.8189 77.7151 30.0878 77.7151 30.536H79.7151ZM78.9378 28.3154C78.4742 27.7885 77.8994 27.3959 77.2336 27.1336L76.5006 28.9944C76.8908 29.1481 77.196 29.3635 77.4364 29.6366L78.9378 28.3154ZM77.2337 27.1336C76.6555 26.9058 75.9026 26.6705 74.9899 26.4261L74.4724 28.3579C75.3516 28.5935 76.0228 28.8062 76.5006 28.9944L77.2337 27.1336ZM74.9835 26.4244C73.9043 26.1428 73.0692 25.8695 72.461 25.6089L71.6732 27.4471C72.4091 27.7625 73.35 28.0652 74.4787 28.3596L74.9835 26.4244ZM72.4691 25.6124C71.9751 25.3955 71.535 25.0545 71.148 24.5644L69.5782 25.8036C70.1513 26.5295 70.8472 27.0845 71.6651 27.4436L72.4691 25.6124ZM71.1656 24.5873C70.867 24.1857 70.6671 23.5849 70.6671 22.688H68.6671C68.6671 23.8711 68.9313 24.9343 69.5607 25.7807L71.1656 24.5873ZM70.6671 22.688C70.6671 21.9549 70.8506 21.3416 71.1981 20.8143L69.5282 19.7137C68.9477 20.5944 68.6671 21.5971 68.6671 22.688H70.6671ZM71.1981 20.8143C71.5506 20.2794 72.0482 19.8529 72.7262 19.54L71.8881 17.724C70.9021 18.1791 70.1036 18.8406 69.5282 19.7137L71.1981 20.8143ZM72.7196 19.543C73.418 19.2267 74.2416 19.056 75.2111 19.056V17.056C74.0047 17.056 72.8923 17.2693 71.8946 17.721L72.7196 19.543ZM75.2111 19.056C76.6094 19.056 77.6546 19.4029 78.4311 20.0166L79.6712 18.4474C78.4636 17.4931 76.9488 17.056 75.2111 17.056V19.056ZM78.4372 20.0214C79.2239 20.6333 79.6583 21.421 79.76 22.4503L81.7503 22.2537C81.5959 20.6909 80.8943 19.3987 79.6651 18.4426L78.4372 20.0214ZM80.7551 21.352H78.3551V23.352H80.7551V21.352ZM79.3474 22.228C79.2297 21.286 78.7305 20.5063 77.9769 19.8952L76.7173 21.4488C77.1477 21.7977 77.3206 22.138 77.3628 22.476L79.3474 22.228ZM77.9893 19.9055C77.174 19.2223 76.1424 18.928 74.9951 18.928V20.928C75.7998 20.928 76.3363 21.1297 76.7049 21.4385L77.9893 19.9055ZM74.9951 18.928C73.9017 18.928 72.9153 19.2195 72.1229 19.8798L73.4033 21.4162C73.763 21.1165 74.2645 20.928 74.9951 20.928V18.928ZM72.1358 19.8692C71.2879 20.5523 70.8991 21.5153 70.8991 22.616H72.8991C72.8991 22.0207 73.0864 21.6717 73.3905 21.4268L72.1358 19.8692ZM70.8991 22.616C70.8991 23.4174 71.1256 24.1626 71.6505 24.7625L73.1557 23.4455C73.0087 23.2774 72.8991 23.0306 72.8991 22.616H70.8991ZM71.666 24.7797C72.1188 25.2737 72.6636 25.6522 73.2884 25.9142L74.0619 24.0698C73.6946 23.9158 73.3914 23.7023 73.1403 23.4283L71.666 24.7797ZM73.324 25.9283C73.8749 26.1349 74.6182 26.3678 75.5409 26.6268L76.0814 24.7012C75.1801 24.4482 74.4993 24.2331 74.0262 24.0557L73.324 25.9283ZM75.5456 26.6281C76.6236 26.925 77.4568 27.2129 78.063 27.4871L78.8873 25.6649C78.1495 25.3311 77.2066 25.011 76.0766 24.6999L75.5456 26.6281ZM78.0812 27.4951C78.584 27.7106 79.0265 28.0545 79.4105 28.5537L80.9957 27.3343C80.4197 26.5855 79.7102 26.0174 78.869 25.6569L78.0812 27.4951ZM79.4182 28.5636C79.7159 28.9407 79.9231 29.5279 79.9231 30.44H81.9231C81.9231 29.2401 81.6504 28.1633 80.988 27.3244L79.4182 28.5636ZM79.9231 30.44C79.9231 31.0693 79.7592 31.6602 79.4176 32.2295L81.1326 33.2585C81.655 32.3878 81.9231 31.4427 81.9231 30.44H79.9231ZM79.4176 32.2295C79.0923 32.7717 78.598 33.2367 77.888 33.6118L78.8222 35.3802C79.8083 34.8593 80.5939 34.1563 81.1326 33.2585L79.4176 32.2295ZM77.888 33.6118C77.2102 33.9699 76.3769 34.168 75.3551 34.168V36.168C76.6374 36.168 77.804 35.9181 78.8222 35.3802L77.888 33.6118ZM86.3211 20.048V19.048H85.3211V20.048H86.3211ZM86.3211 25.64H85.3211V26.64H86.3211V25.64ZM92.4171 25.64H93.4171V24.64H92.4171V25.64ZM92.4171 27.44V28.44H93.4171V27.44H92.4171ZM86.3211 27.44V26.44H85.3211V27.44H86.3211ZM86.3211 33.2H85.3211V34.2H86.3211V33.2ZM93.1371 33.2H94.1371V32.2H93.1371V33.2ZM93.1371 35V36H94.1371V35H93.1371ZM84.1371 35H83.1371V36H84.1371V35ZM84.1371 18.248V17.248H83.1371V18.248H84.1371ZM93.1371 18.248H94.1371V17.248H93.1371V18.248ZM93.1371 20.048V21.048H94.1371V20.048H93.1371ZM85.3211 20.048V25.64H87.3211V20.048H85.3211ZM86.3211 26.64H92.4171V24.64H86.3211V26.64ZM91.4171 25.64V27.44H93.4171V25.64H91.4171ZM92.4171 26.44H86.3211V28.44H92.4171V26.44ZM85.3211 27.44V33.2H87.3211V27.44H85.3211ZM86.3211 34.2H93.1371V32.2H86.3211V34.2ZM92.1371 33.2V35H94.1371V33.2H92.1371ZM93.1371 34H84.1371V36H93.1371V34ZM85.1371 35V18.248H83.1371V35H85.1371ZM84.1371 19.248H93.1371V17.248H84.1371V19.248ZM92.1371 18.248V20.048H94.1371V18.248H92.1371ZM93.1371 19.048H86.3211V21.048H93.1371V19.048Z" fill="#443B3B"/>
<defs>
<filter id="filter0_d" x="6" y="0" width="182" height="63" filterUnits="userSpaceOnUse" color-interpolation-filters="sRGB">
<feFlood flood-opacity="0" result="BackgroundImageFix"/>
<feColorMatrix in="SourceAlpha" type="matrix" values="0 0 0 0 0 0 0 0 0 0 0 0 0 0 0 0 0 0 127 0"/>
<feOffset dy="4"/>
<feGaussianBlur stdDeviation="2"/>
<feColorMatrix type="matrix" values="0 0 0 0 0 0 0 0 0 0 0 0 0 0 0 0 0 0 0.25 0"/>
<feBlend mode="normal" in2="BackgroundImageFix" result="effect1_dropShadow"/>
<feBlend mode="normal" in="SourceGraphic" in2="effect1_dropShadow" result="shape"/>
</filter>
</defs>
</svg>
