<svg width="205" height="115" viewBox="0 0 205 115" fill="none" xmlns="http://www.w3.org/2000/svg">
<g filter="url(#filter0_d)">
<g filter="url(#filter1_d)">
<rect x="4" width="197" height="107" rx="19" fill="#FDFCFC"/>
</g>
<path d="M67.6593 20.08C68.554 20.2707 69.2726 20.718 69.8153 21.422C70.358 22.1113 70.6293 22.9033 70.6293 23.798C70.6293 25.0887 70.1746 26.1153 69.2653 26.878C68.3706 27.626 67.1166 28 65.5033 28H58.3093V12.556H65.2613C66.8306 12.556 68.0553 12.9153 68.9353 13.634C69.83 14.3527 70.2773 15.328 70.2773 16.56C70.2773 17.4693 70.0353 18.2247 69.5513 18.826C69.082 19.4273 68.4513 19.8453 67.6593 20.08ZM62.0713 18.804H64.5353C65.1513 18.804 65.6206 18.672 65.9433 18.408C66.2806 18.1293 66.4493 17.726 66.4493 17.198C66.4493 16.67 66.2806 16.2667 65.9433 15.988C65.6206 15.7093 65.1513 15.57 64.5353 15.57H62.0713V18.804ZM64.8433 24.964C65.474 24.964 65.958 24.8247 66.2953 24.546C66.6473 24.2527 66.8233 23.8347 66.8233 23.292C66.8233 22.7493 66.64 22.324 66.2733 22.016C65.9213 21.708 65.43 21.554 64.7993 21.554H62.0713V24.964H64.8433ZM84.3833 21.664C84.3833 22.016 84.3613 22.3827 84.3173 22.764H75.8033C75.8619 23.5267 76.1039 24.1133 76.5293 24.524C76.9693 24.92 77.5046 25.118 78.1353 25.118C79.0739 25.118 79.7266 24.722 80.0933 23.93H84.0973C83.8919 24.7367 83.5179 25.4627 82.9753 26.108C82.4473 26.7533 81.7799 27.2593 80.9733 27.626C80.1666 27.9927 79.2646 28.176 78.2673 28.176C77.0646 28.176 75.9939 27.9193 75.0553 27.406C74.1166 26.8927 73.3833 26.1593 72.8553 25.206C72.3273 24.2527 72.0633 23.138 72.0633 21.862C72.0633 20.586 72.3199 19.4713 72.8333 18.518C73.3613 17.5647 74.0946 16.8313 75.0333 16.318C75.9719 15.8047 77.0499 15.548 78.2673 15.548C79.4553 15.548 80.5113 15.7973 81.4353 16.296C82.3593 16.7947 83.0779 17.506 83.5913 18.43C84.1193 19.354 84.3833 20.432 84.3833 21.664ZM80.5333 20.674C80.5333 20.0287 80.3133 19.5153 79.8733 19.134C79.4333 18.7527 78.8833 18.562 78.2233 18.562C77.5926 18.562 77.0573 18.7453 76.6173 19.112C76.1919 19.4787 75.9279 19.9993 75.8253 20.674H80.5333ZM88.2599 14.448C87.5999 14.448 87.0572 14.2573 86.6319 13.876C86.2212 13.48 86.0159 12.996 86.0159 12.424C86.0159 11.8373 86.2212 11.3533 86.6319 10.972C87.0572 10.576 87.5999 10.378 88.2599 10.378C88.9052 10.378 89.4332 10.576 89.8439 10.972C90.2692 11.3533 90.4819 11.8373 90.4819 12.424C90.4819 12.996 90.2692 13.48 89.8439 13.876C89.4332 14.2573 88.9052 14.448 88.2599 14.448ZM90.1299 15.724V28H86.3679V15.724H90.1299ZM97.8502 28.176C96.7795 28.176 95.8262 27.9927 94.9902 27.626C94.1542 27.2593 93.4942 26.7607 93.0102 26.13C92.5262 25.4847 92.2549 24.766 92.1962 23.974H95.9142C95.9582 24.3993 96.1562 24.744 96.5082 25.008C96.8602 25.272 97.2929 25.404 97.8062 25.404C98.2755 25.404 98.6349 25.316 98.8842 25.14C99.1482 24.9493 99.2802 24.7073 99.2802 24.414C99.2802 24.062 99.0969 23.8053 98.7302 23.644C98.3635 23.468 97.7695 23.2773 96.9482 23.072C96.0682 22.8667 95.3349 22.654 94.7482 22.434C94.1615 22.1993 93.6555 21.84 93.2302 21.356C92.8049 20.8573 92.5922 20.19 92.5922 19.354C92.5922 18.65 92.7829 18.012 93.1642 17.44C93.5602 16.8533 94.1322 16.3913 94.8802 16.054C95.6429 15.7167 96.5449 15.548 97.5862 15.548C99.1262 15.548 100.336 15.9293 101.216 16.692C102.111 17.4547 102.624 18.4667 102.756 19.728H99.2802C99.2215 19.3027 99.0309 18.9653 98.7082 18.716C98.4002 18.4667 97.9895 18.342 97.4762 18.342C97.0362 18.342 96.6989 18.43 96.4642 18.606C96.2295 18.7673 96.1122 18.9947 96.1122 19.288C96.1122 19.64 96.2955 19.904 96.6622 20.08C97.0435 20.256 97.6302 20.432 98.4222 20.608C99.3315 20.8427 100.072 21.0773 100.644 21.312C101.216 21.532 101.715 21.8987 102.14 22.412C102.58 22.9107 102.808 23.5853 102.822 24.436C102.822 25.1547 102.617 25.8 102.206 26.372C101.81 26.9293 101.231 27.3693 100.468 27.692C99.7202 28.0147 98.8475 28.176 97.8502 28.176ZM108.886 17.462C109.252 16.89 109.758 16.428 110.404 16.076C111.049 15.724 111.804 15.548 112.67 15.548C113.682 15.548 114.598 15.8047 115.42 16.318C116.241 16.8313 116.886 17.5647 117.356 18.518C117.84 19.4713 118.082 20.5787 118.082 21.84C118.082 23.1013 117.84 24.216 117.356 25.184C116.886 26.1373 116.241 26.878 115.42 27.406C114.598 27.9193 113.682 28.176 112.67 28.176C111.819 28.176 111.064 28 110.404 27.648C109.758 27.296 109.252 26.8413 108.886 26.284V33.852H105.124V15.724H108.886V17.462ZM114.254 21.84C114.254 20.9013 113.99 20.168 113.462 19.64C112.948 19.0973 112.31 18.826 111.548 18.826C110.8 18.826 110.162 19.0973 109.634 19.64C109.12 20.1827 108.864 20.9233 108.864 21.862C108.864 22.8007 109.12 23.5413 109.634 24.084C110.162 24.6267 110.8 24.898 111.548 24.898C112.296 24.898 112.934 24.6267 113.462 24.084C113.99 23.5267 114.254 22.7787 114.254 21.84ZM121.947 14.448C121.287 14.448 120.745 14.2573 120.319 13.876C119.909 13.48 119.703 12.996 119.703 12.424C119.703 11.8373 119.909 11.3533 120.319 10.972C120.745 10.576 121.287 10.378 121.947 10.378C122.593 10.378 123.121 10.576 123.531 10.972C123.957 11.3533 124.169 11.8373 124.169 12.424C124.169 12.996 123.957 13.48 123.531 13.876C123.121 14.2573 122.593 14.448 121.947 14.448ZM123.817 15.724V28H120.055V15.724H123.817ZM138.116 21.664C138.116 22.016 138.094 22.3827 138.05 22.764H129.536C129.594 23.5267 129.836 24.1133 130.262 24.524C130.702 24.92 131.237 25.118 131.868 25.118C132.806 25.118 133.459 24.722 133.826 23.93H137.83C137.624 24.7367 137.25 25.4627 136.708 26.108C136.18 26.7533 135.512 27.2593 134.706 27.626C133.899 27.9927 132.997 28.176 132 28.176C130.797 28.176 129.726 27.9193 128.788 27.406C127.849 26.8927 127.116 26.1593 126.588 25.206C126.06 24.2527 125.796 23.138 125.796 21.862C125.796 20.586 126.052 19.4713 126.566 18.518C127.094 17.5647 127.827 16.8313 128.766 16.318C129.704 15.8047 130.782 15.548 132 15.548C133.188 15.548 134.244 15.7973 135.168 16.296C136.092 16.7947 136.81 17.506 137.324 18.43C137.852 19.354 138.116 20.432 138.116 21.664ZM134.266 20.674C134.266 20.0287 134.046 19.5153 133.606 19.134C133.166 18.7527 132.616 18.562 131.956 18.562C131.325 18.562 130.79 18.7453 130.35 19.112C129.924 19.4787 129.66 19.9993 129.558 20.674H134.266ZM143.862 11.72V28H140.1V11.72H143.862ZM148.349 28.176C147.689 28.176 147.146 27.9853 146.721 27.604C146.31 27.208 146.105 26.724 146.105 26.152C146.105 25.5653 146.31 25.074 146.721 24.678C147.146 24.282 147.689 24.084 148.349 24.084C148.994 24.084 149.522 24.282 149.933 24.678C150.358 25.074 150.571 25.5653 150.571 26.152C150.571 26.724 150.358 27.208 149.933 27.604C149.522 27.9853 148.994 28.176 148.349 28.176ZM148.349 19.222C147.689 19.222 147.146 19.0313 146.721 18.65C146.31 18.254 146.105 17.77 146.105 17.198C146.105 16.6113 146.31 16.12 146.721 15.724C147.146 15.328 147.689 15.13 148.349 15.13C148.994 15.13 149.522 15.328 149.933 15.724C150.358 16.12 150.571 16.6113 150.571 17.198C150.571 17.77 150.358 18.254 149.933 18.65C149.522 19.0313 148.994 19.222 148.349 19.222ZM41.9087 54.664C41.9087 55.016 41.8867 55.3827 41.8427 55.764H33.3287C33.3873 56.5267 33.6293 57.1133 34.0547 57.524C34.4947 57.92 35.03 58.118 35.6607 58.118C36.5993 58.118 37.252 57.722 37.6187 56.93H41.6227C41.4173 57.7367 41.0433 58.4627 40.5007 59.108C39.9727 59.7533 39.3053 60.2593 38.4987 60.626C37.692 60.9927 36.79 61.176 35.7927 61.176C34.59 61.176 33.5193 60.9193 32.5807 60.406C31.642 59.8927 30.9087 59.1593 30.3807 58.206C29.8527 57.2527 29.5887 56.138 29.5887 54.862C29.5887 53.586 29.8453 52.4713 30.3587 51.518C30.8867 50.5647 31.62 49.8313 32.5587 49.318C33.4973 48.8047 34.5753 48.548 35.7927 48.548C36.9807 48.548 38.0367 48.7973 38.9607 49.296C39.8847 49.7947 40.6033 50.506 41.1167 51.43C41.6447 52.354 41.9087 53.432 41.9087 54.664ZM38.0587 53.674C38.0587 53.0287 37.8387 52.5153 37.3987 52.134C36.9587 51.7527 36.4087 51.562 35.7487 51.562C35.118 51.562 34.5827 51.7453 34.1427 52.112C33.7173 52.4787 33.4533 52.9993 33.3507 53.674H38.0587ZM45.7853 47.448C45.1253 47.448 44.5826 47.2573 44.1573 46.876C43.7466 46.48 43.5413 45.996 43.5413 45.424C43.5413 44.8373 43.7466 44.3533 44.1573 43.972C44.5826 43.576 45.1253 43.378 45.7853 43.378C46.4306 43.378 46.9586 43.576 47.3693 43.972C47.7946 44.3533 48.0073 44.8373 48.0073 45.424C48.0073 45.996 47.7946 46.48 47.3693 46.876C46.9586 47.2573 46.4306 47.448 45.7853 47.448ZM47.6553 48.724V61H43.8933V48.724H47.6553ZM57.8616 48.592C59.2989 48.592 60.4429 49.0613 61.2936 50C62.1589 50.924 62.5916 52.2 62.5916 53.828V61H58.8516V54.334C58.8516 53.5127 58.6389 52.8747 58.2136 52.42C57.7882 51.9653 57.2162 51.738 56.4976 51.738C55.7789 51.738 55.2069 51.9653 54.7816 52.42C54.3562 52.8747 54.1436 53.5127 54.1436 54.334V61H50.3816V48.724H54.1436V50.352C54.5249 49.8093 55.0382 49.384 55.6836 49.076C56.3289 48.7533 57.0549 48.592 57.8616 48.592ZM73.6299 50.77C74.0699 50.0953 74.6199 49.5673 75.2799 49.186C75.9399 48.79 76.6732 48.592 77.4799 48.592V52.574H76.4459C75.5072 52.574 74.8032 52.7793 74.3339 53.19C73.8646 53.586 73.6299 54.29 73.6299 55.302V61H69.8679V48.724H73.6299V50.77ZM81.1701 47.448C80.5101 47.448 79.9674 47.2573 79.5421 46.876C79.1314 46.48 78.9261 45.996 78.9261 45.424C78.9261 44.8373 79.1314 44.3533 79.5421 43.972C79.9674 43.576 80.5101 43.378 81.1701 43.378C81.8154 43.378 82.3434 43.576 82.7541 43.972C83.1794 44.3533 83.3921 44.8373 83.3921 45.424C83.3921 45.996 83.1794 46.48 82.7541 46.876C82.3434 47.2573 81.8154 47.448 81.1701 47.448ZM83.0401 48.724V61H79.2781V48.724H83.0401ZM85.0183 54.862C85.0183 53.586 85.275 52.4713 85.7883 51.518C86.3163 50.5647 87.0423 49.8313 87.9663 49.318C88.905 48.8047 89.9757 48.548 91.1783 48.548C92.7183 48.548 94.0017 48.9513 95.0283 49.758C96.0697 50.5647 96.7517 51.7013 97.0743 53.168H93.0703C92.733 52.2293 92.0803 51.76 91.1123 51.76C90.423 51.76 89.873 52.0313 89.4623 52.574C89.0517 53.102 88.8463 53.8647 88.8463 54.862C88.8463 55.8593 89.0517 56.6293 89.4623 57.172C89.873 57.7 90.423 57.964 91.1123 57.964C92.0803 57.964 92.733 57.4947 93.0703 56.556H97.0743C96.7517 57.9933 96.0697 59.1227 95.0283 59.944C93.987 60.7653 92.7037 61.176 91.1783 61.176C89.9757 61.176 88.905 60.9193 87.9663 60.406C87.0423 59.8927 86.3163 59.1593 85.7883 58.206C85.275 57.2527 85.0183 56.138 85.0183 54.862ZM106.633 48.592C108.041 48.592 109.17 49.0613 110.021 50C110.871 50.924 111.297 52.2 111.297 53.828V61H107.557V54.334C107.557 53.5127 107.344 52.8747 106.919 52.42C106.493 51.9653 105.921 51.738 105.203 51.738C104.484 51.738 103.912 51.9653 103.487 52.42C103.061 52.8747 102.849 53.5127 102.849 54.334V61H99.0867V44.72H102.849V50.374C103.23 49.8313 103.751 49.3987 104.411 49.076C105.071 48.7533 105.811 48.592 106.633 48.592ZM120.753 57.81V61H118.839C117.475 61 116.412 60.67 115.649 60.01C114.886 59.3353 114.505 58.2427 114.505 56.732V51.848H113.009V48.724H114.505V45.732H118.267V48.724H120.731V51.848H118.267V56.776C118.267 57.1427 118.355 57.4067 118.531 57.568C118.707 57.7293 119 57.81 119.411 57.81H120.753ZM124.74 47.448C124.08 47.448 123.538 47.2573 123.112 46.876C122.702 46.48 122.496 45.996 122.496 45.424C122.496 44.8373 122.702 44.3533 123.112 43.972C123.538 43.576 124.08 43.378 124.74 43.378C125.386 43.378 125.914 43.576 126.324 43.972C126.75 44.3533 126.962 44.8373 126.962 45.424C126.962 45.996 126.75 46.48 126.324 46.876C125.914 47.2573 125.386 47.448 124.74 47.448ZM126.61 48.724V61H122.848V48.724H126.61ZM134.001 48.548C134.866 48.548 135.621 48.724 136.267 49.076C136.927 49.428 137.433 49.89 137.785 50.462V48.724H141.547V60.978C141.547 62.1073 141.319 63.1267 140.865 64.036C140.425 64.96 139.743 65.6933 138.819 66.236C137.909 66.7787 136.773 67.05 135.409 67.05C133.59 67.05 132.116 66.6173 130.987 65.752C129.857 64.9013 129.212 63.7427 129.051 62.276H132.769C132.886 62.7453 133.165 63.112 133.605 63.376C134.045 63.6547 134.587 63.794 135.233 63.794C136.01 63.794 136.626 63.5667 137.081 63.112C137.55 62.672 137.785 61.9607 137.785 60.978V59.24C137.418 59.812 136.912 60.2813 136.267 60.648C135.621 61 134.866 61.176 134.001 61.176C132.989 61.176 132.072 60.9193 131.251 60.406C130.429 59.878 129.777 59.1373 129.293 58.184C128.823 57.216 128.589 56.1013 128.589 54.84C128.589 53.5787 128.823 52.4713 129.293 51.518C129.777 50.5647 130.429 49.8313 131.251 49.318C132.072 48.8047 132.989 48.548 134.001 48.548ZM137.785 54.862C137.785 53.9233 137.521 53.1827 136.993 52.64C136.479 52.0973 135.849 51.826 135.101 51.826C134.353 51.826 133.715 52.0973 133.187 52.64C132.673 53.168 132.417 53.9013 132.417 54.84C132.417 55.7787 132.673 56.5267 133.187 57.084C133.715 57.6267 134.353 57.898 135.101 57.898C135.849 57.898 136.479 57.6267 136.993 57.084C137.521 56.5413 137.785 55.8007 137.785 54.862ZM155.84 54.664C155.84 55.016 155.818 55.3827 155.774 55.764H147.26C147.319 56.5267 147.561 57.1133 147.986 57.524C148.426 57.92 148.962 58.118 149.592 58.118C150.531 58.118 151.184 57.722 151.55 56.93H155.554C155.349 57.7367 154.975 58.4627 154.432 59.108C153.904 59.7533 153.237 60.2593 152.43 60.626C151.624 60.9927 150.722 61.176 149.724 61.176C148.522 61.176 147.451 60.9193 146.512 60.406C145.574 59.8927 144.84 59.1593 144.312 58.206C143.784 57.2527 143.52 56.138 143.52 54.862C143.52 53.586 143.777 52.4713 144.29 51.518C144.818 50.5647 145.552 49.8313 146.49 49.318C147.429 48.8047 148.507 48.548 149.724 48.548C150.912 48.548 151.968 48.7973 152.892 49.296C153.816 49.7947 154.535 50.506 155.048 51.43C155.576 52.354 155.84 53.432 155.84 54.664ZM151.99 53.674C151.99 53.0287 151.77 52.5153 151.33 52.134C150.89 51.7527 150.34 51.562 149.68 51.562C149.05 51.562 148.514 51.7453 148.074 52.112C147.649 52.4787 147.385 52.9993 147.282 53.674H151.99ZM162.819 61.176C161.748 61.176 160.795 60.9927 159.959 60.626C159.123 60.2593 158.463 59.7607 157.979 59.13C157.495 58.4847 157.224 57.766 157.165 56.974H160.883C160.927 57.3993 161.125 57.744 161.477 58.008C161.829 58.272 162.262 58.404 162.775 58.404C163.244 58.404 163.604 58.316 163.853 58.14C164.117 57.9493 164.249 57.7073 164.249 57.414C164.249 57.062 164.066 56.8053 163.699 56.644C163.332 56.468 162.738 56.2773 161.917 56.072C161.037 55.8667 160.304 55.654 159.717 55.434C159.13 55.1993 158.624 54.84 158.199 54.356C157.774 53.8573 157.561 53.19 157.561 52.354C157.561 51.65 157.752 51.012 158.133 50.44C158.529 49.8533 159.101 49.3913 159.849 49.054C160.612 48.7167 161.514 48.548 162.555 48.548C164.095 48.548 165.305 48.9293 166.185 49.692C167.08 50.4547 167.593 51.4667 167.725 52.728H164.249C164.19 52.3027 164 51.9653 163.677 51.716C163.369 51.4667 162.958 51.342 162.445 51.342C162.005 51.342 161.668 51.43 161.433 51.606C161.198 51.7673 161.081 51.9947 161.081 52.288C161.081 52.64 161.264 52.904 161.631 53.08C162.012 53.256 162.599 53.432 163.391 53.608C164.3 53.8427 165.041 54.0773 165.613 54.312C166.185 54.532 166.684 54.8987 167.109 55.412C167.549 55.9107 167.776 56.5853 167.791 57.436C167.791 58.1547 167.586 58.8 167.175 59.372C166.779 59.9293 166.2 60.3693 165.437 60.692C164.689 61.0147 163.816 61.176 162.819 61.176ZM38.2127 94L35.0007 88.17H34.0987V94H30.3367V78.556H36.6507C37.868 78.556 38.902 78.7687 39.7527 79.194C40.618 79.6193 41.2633 80.206 41.6887 80.954C42.114 81.6873 42.3267 82.5087 42.3267 83.418C42.3267 84.4447 42.0333 85.3613 41.4467 86.168C40.8747 86.9747 40.024 87.5467 38.8947 87.884L42.4587 94H38.2127ZM34.0987 85.508H36.4307C37.12 85.508 37.6333 85.3393 37.9707 85.002C38.3227 84.6647 38.4987 84.188 38.4987 83.572C38.4987 82.9853 38.3227 82.5233 37.9707 82.186C37.6333 81.8487 37.12 81.68 36.4307 81.68H34.0987V85.508ZM56.2602 87.664C56.2602 88.016 56.2382 88.3827 56.1942 88.764H47.6802C47.7389 89.5267 47.9809 90.1133 48.4062 90.524C48.8462 90.92 49.3816 91.118 50.0122 91.118C50.9509 91.118 51.6036 90.722 51.9702 89.93H55.9742C55.7689 90.7367 55.3949 91.4627 54.8522 92.108C54.3242 92.7533 53.6569 93.2593 52.8502 93.626C52.0436 93.9927 51.1416 94.176 50.1442 94.176C48.9416 94.176 47.8709 93.9193 46.9322 93.406C45.9936 92.8927 45.2602 92.1593 44.7322 91.206C44.2042 90.2527 43.9402 89.138 43.9402 87.862C43.9402 86.586 44.1969 85.4713 44.7102 84.518C45.2382 83.5647 45.9716 82.8313 46.9102 82.318C47.8489 81.8047 48.9269 81.548 50.1442 81.548C51.3322 81.548 52.3882 81.7973 53.3122 82.296C54.2362 82.7947 54.9549 83.506 55.4682 84.43C55.9962 85.354 56.2602 86.432 56.2602 87.664ZM52.4102 86.674C52.4102 86.0287 52.1902 85.5153 51.7502 85.134C51.3102 84.7527 50.7602 84.562 50.1002 84.562C49.4696 84.562 48.9342 84.7453 48.4942 85.112C48.0689 85.4787 47.8049 85.9993 47.7022 86.674H52.4102ZM62.0069 83.462C62.3589 82.89 62.8649 82.428 63.5249 82.076C64.1849 81.724 64.9402 81.548 65.7909 81.548C66.8029 81.548 67.7195 81.8047 68.5409 82.318C69.3622 82.8313 70.0075 83.5647 70.4769 84.518C70.9609 85.4713 71.2029 86.5787 71.2029 87.84C71.2029 89.1013 70.9609 90.216 70.4769 91.184C70.0075 92.1373 69.3622 92.878 68.5409 93.406C67.7195 93.9193 66.8029 94.176 65.7909 94.176C64.9255 94.176 64.1702 94.0073 63.5249 93.67C62.8795 93.318 62.3735 92.856 62.0069 92.284V94H58.2449V77.72H62.0069V83.462ZM67.3749 87.84C67.3749 86.9013 67.1109 86.168 66.5829 85.64C66.0695 85.0973 65.4315 84.826 64.6689 84.826C63.9209 84.826 63.2829 85.0973 62.7549 85.64C62.2415 86.1827 61.9849 86.9233 61.9849 87.862C61.9849 88.8007 62.2415 89.5413 62.7549 90.084C63.2829 90.6267 63.9209 90.898 64.6689 90.898C65.4169 90.898 66.0549 90.6267 66.5829 90.084C67.1109 89.5267 67.3749 88.7787 67.3749 87.84ZM84.7485 87.664C84.7485 88.016 84.7265 88.3827 84.6825 88.764H76.1685C76.2272 89.5267 76.4692 90.1133 76.8945 90.524C77.3345 90.92 77.8698 91.118 78.5005 91.118C79.4392 91.118 80.0918 90.722 80.4585 89.93H84.4625C84.2572 90.7367 83.8832 91.4627 83.3405 92.108C82.8125 92.7533 82.1452 93.2593 81.3385 93.626C80.5318 93.9927 79.6298 94.176 78.6325 94.176C77.4298 94.176 76.3592 93.9193 75.4205 93.406C74.4818 92.8927 73.7485 92.1593 73.2205 91.206C72.6925 90.2527 72.4285 89.138 72.4285 87.862C72.4285 86.586 72.6852 85.4713 73.1985 84.518C73.7265 83.5647 74.4598 82.8313 75.3985 82.318C76.3372 81.8047 77.4152 81.548 78.6325 81.548C79.8205 81.548 80.8765 81.7973 81.8005 82.296C82.7245 82.7947 83.4432 83.506 83.9565 84.43C84.4845 85.354 84.7485 86.432 84.7485 87.664ZM80.8985 86.674C80.8985 86.0287 80.6785 85.5153 80.2385 85.134C79.7985 84.7527 79.2485 84.562 78.5885 84.562C77.9578 84.562 77.4225 84.7453 76.9825 85.112C76.5572 85.4787 76.2932 85.9993 76.1905 86.674H80.8985ZM90.4951 83.77C90.9351 83.0953 91.4851 82.5673 92.1451 82.186C92.8051 81.79 93.5385 81.592 94.3451 81.592V85.574H93.3111C92.3725 85.574 91.6685 85.7793 91.1991 86.19C90.7298 86.586 90.4951 87.29 90.4951 88.302V94H86.7331V81.724H90.4951V83.77ZM105.603 84.716V87.84H95.9233V84.716H105.603ZM130.157 78.556L126.131 94H121.577L119.113 83.836L116.561 94H112.007L108.091 78.556H112.117L114.339 89.798L117.089 78.556H121.225L123.865 89.798L126.109 78.556H130.157ZM137.632 94.176C136.429 94.176 135.344 93.9193 134.376 93.406C133.422 92.8927 132.667 92.1593 132.11 91.206C131.567 90.2527 131.296 89.138 131.296 87.862C131.296 86.6007 131.574 85.4933 132.132 84.54C132.689 83.572 133.452 82.8313 134.42 82.318C135.388 81.8047 136.473 81.548 137.676 81.548C138.878 81.548 139.964 81.8047 140.932 82.318C141.9 82.8313 142.662 83.572 143.22 84.54C143.777 85.4933 144.056 86.6007 144.056 87.862C144.056 89.1233 143.77 90.238 143.198 91.206C142.64 92.1593 141.87 92.8927 140.888 93.406C139.92 93.9193 138.834 94.176 137.632 94.176ZM137.632 90.92C138.35 90.92 138.959 90.656 139.458 90.128C139.971 89.6 140.228 88.8447 140.228 87.862C140.228 86.8793 139.978 86.124 139.48 85.596C138.996 85.068 138.394 84.804 137.676 84.804C136.942 84.804 136.334 85.068 135.85 85.596C135.366 86.1093 135.124 86.8647 135.124 87.862C135.124 88.8447 135.358 89.6 135.828 90.128C136.312 90.656 136.913 90.92 137.632 90.92ZM149.814 83.77C150.254 83.0953 150.804 82.5673 151.464 82.186C152.124 81.79 152.857 81.592 153.664 81.592V85.574H152.63C151.691 85.574 150.987 85.7793 150.518 86.19C150.048 86.586 149.814 87.29 149.814 88.302V94H146.052V81.724H149.814V83.77ZM162.304 90.81V94H160.39C159.026 94 157.962 93.67 157.2 93.01C156.437 92.3353 156.056 91.2427 156.056 89.732V84.848H154.56V81.724H156.056V78.732H159.818V81.724H162.282V84.848H159.818V89.776C159.818 90.1427 159.906 90.4067 160.082 90.568C160.258 90.7293 160.551 90.81 160.962 90.81H162.304Z" fill="#0C5200"/>
</g>
<defs>
<filter id="filter0_d" x="0" y="0" width="205" height="115" filterUnits="userSpaceOnUse" color-interpolation-filters="sRGB">
<feFlood flood-opacity="0" result="BackgroundImageFix"/>
<feColorMatrix in="SourceAlpha" type="matrix" values="0 0 0 0 0 0 0 0 0 0 0 0 0 0 0 0 0 0 127 0"/>
<feOffset dy="4"/>
<feGaussianBlur stdDeviation="2"/>
<feColorMatrix type="matrix" values="0 0 0 0 0 0 0 0 0 0 0 0 0 0 0 0 0 0 0.25 0"/>
<feBlend mode="normal" in2="BackgroundImageFix" result="effect1_dropShadow"/>
<feBlend mode="normal" in="SourceGraphic" in2="effect1_dropShadow" result="shape"/>
</filter>
<filter id="filter1_d" x="0" y="0" width="205" height="115" filterUnits="userSpaceOnUse" color-interpolation-filters="sRGB">
<feFlood flood-opacity="0" result="BackgroundImageFix"/>
<feColorMatrix in="SourceAlpha" type="matrix" values="0 0 0 0 0 0 0 0 0 0 0 0 0 0 0 0 0 0 127 0"/>
<feOffset dy="4"/>
<feGaussianBlur stdDeviation="2"/>
<feColorMatrix type="matrix" values="0 0 0 0 0 0 0 0 0 0 0 0 0 0 0 0 0 0 0.25 0"/>
<feBlend mode="normal" in2="BackgroundImageFix" result="effect1_dropShadow"/>
<feBlend mode="normal" in="SourceGraphic" in2="effect1_dropShadow" result="shape"/>
</filter>
</defs>
</svg>
