<svg width="211" height="115" viewBox="0 0 211 115" fill="none" xmlns="http://www.w3.org/2000/svg">
<g filter="url(#filter0_d)">
<rect x="10" width="197" height="107" rx="19" fill="#FDFCFC"/>
</g>
<path d="M75.2316 19.08C76.1262 19.2707 76.8449 19.718 77.3876 20.422C77.9302 21.1113 78.2016 21.9033 78.2016 22.798C78.2016 24.0887 77.7469 25.1153 76.8376 25.878C75.9429 26.626 74.6889 27 73.0756 27H65.8816V11.556H72.8336C74.4029 11.556 75.6276 11.9153 76.5076 12.634C77.4022 13.3527 77.8496 14.328 77.8496 15.56C77.8496 16.4693 77.6076 17.2247 77.1236 17.826C76.6542 18.4273 76.0236 18.8453 75.2316 19.08ZM69.6436 17.804H72.1076C72.7236 17.804 73.1929 17.672 73.5156 17.408C73.8529 17.1293 74.0216 16.726 74.0216 16.198C74.0216 15.67 73.8529 15.2667 73.5156 14.988C73.1929 14.7093 72.7236 14.57 72.1076 14.57H69.6436V17.804ZM72.4156 23.964C73.0462 23.964 73.5302 23.8247 73.8676 23.546C74.2196 23.2527 74.3956 22.8347 74.3956 22.292C74.3956 21.7493 74.2122 21.324 73.8456 21.016C73.4936 20.708 73.0022 20.554 72.3716 20.554H69.6436V23.964H72.4156ZM91.9555 20.664C91.9555 21.016 91.9335 21.3827 91.8895 21.764H83.3755C83.4342 22.5267 83.6762 23.1133 84.1015 23.524C84.5415 23.92 85.0769 24.118 85.7075 24.118C86.6462 24.118 87.2989 23.722 87.6655 22.93H91.6695C91.4642 23.7367 91.0902 24.4627 90.5475 25.108C90.0195 25.7533 89.3522 26.2593 88.5455 26.626C87.7389 26.9927 86.8369 27.176 85.8395 27.176C84.6369 27.176 83.5662 26.9193 82.6275 26.406C81.6889 25.8927 80.9555 25.1593 80.4275 24.206C79.8995 23.2527 79.6355 22.138 79.6355 20.862C79.6355 19.586 79.8922 18.4713 80.4055 17.518C80.9335 16.5647 81.6669 15.8313 82.6055 15.318C83.5442 14.8047 84.6222 14.548 85.8395 14.548C87.0275 14.548 88.0835 14.7973 89.0075 15.296C89.9315 15.7947 90.6502 16.506 91.1635 17.43C91.6915 18.354 91.9555 19.432 91.9555 20.664ZM88.1055 19.674C88.1055 19.0287 87.8855 18.5153 87.4455 18.134C87.0055 17.7527 86.4555 17.562 85.7955 17.562C85.1649 17.562 84.6295 17.7453 84.1895 18.112C83.7642 18.4787 83.5002 18.9993 83.3975 19.674H88.1055ZM95.8322 13.448C95.1722 13.448 94.6295 13.2573 94.2042 12.876C93.7935 12.48 93.5882 11.996 93.5882 11.424C93.5882 10.8373 93.7935 10.3533 94.2042 9.972C94.6295 9.576 95.1722 9.378 95.8322 9.378C96.4775 9.378 97.0055 9.576 97.4162 9.972C97.8415 10.3533 98.0542 10.8373 98.0542 11.424C98.0542 11.996 97.8415 12.48 97.4162 12.876C97.0055 13.2573 96.4775 13.448 95.8322 13.448ZM97.7022 14.724V27H93.9402V14.724H97.7022ZM105.422 27.176C104.352 27.176 103.398 26.9927 102.562 26.626C101.726 26.2593 101.066 25.7607 100.582 25.13C100.098 24.4847 99.8271 23.766 99.7685 22.974H103.486C103.53 23.3993 103.728 23.744 104.08 24.008C104.432 24.272 104.865 24.404 105.378 24.404C105.848 24.404 106.207 24.316 106.456 24.14C106.72 23.9493 106.852 23.7073 106.852 23.414C106.852 23.062 106.669 22.8053 106.302 22.644C105.936 22.468 105.342 22.2773 104.52 22.072C103.64 21.8667 102.907 21.654 102.32 21.434C101.734 21.1993 101.228 20.84 100.802 20.356C100.377 19.8573 100.164 19.19 100.164 18.354C100.164 17.65 100.355 17.012 100.736 16.44C101.132 15.8533 101.704 15.3913 102.452 15.054C103.215 14.7167 104.117 14.548 105.158 14.548C106.698 14.548 107.908 14.9293 108.788 15.692C109.683 16.4547 110.196 17.4667 110.328 18.728H106.852C106.794 18.3027 106.603 17.9653 106.28 17.716C105.972 17.4667 105.562 17.342 105.048 17.342C104.608 17.342 104.271 17.43 104.036 17.606C103.802 17.7673 103.684 17.9947 103.684 18.288C103.684 18.64 103.868 18.904 104.234 19.08C104.616 19.256 105.202 19.432 105.994 19.608C106.904 19.8427 107.644 20.0773 108.216 20.312C108.788 20.532 109.287 20.8987 109.712 21.412C110.152 21.9107 110.38 22.5853 110.394 23.436C110.394 24.1547 110.189 24.8 109.778 25.372C109.382 25.9293 108.803 26.3693 108.04 26.692C107.292 27.0147 106.42 27.176 105.422 27.176ZM116.458 16.462C116.825 15.89 117.331 15.428 117.976 15.076C118.621 14.724 119.377 14.548 120.242 14.548C121.254 14.548 122.171 14.8047 122.992 15.318C123.813 15.8313 124.459 16.5647 124.928 17.518C125.412 18.4713 125.654 19.5787 125.654 20.84C125.654 22.1013 125.412 23.216 124.928 24.184C124.459 25.1373 123.813 25.878 122.992 26.406C122.171 26.9193 121.254 27.176 120.242 27.176C119.391 27.176 118.636 27 117.976 26.648C117.331 26.296 116.825 25.8413 116.458 25.284V32.852H112.696V14.724H116.458V16.462ZM121.826 20.84C121.826 19.9013 121.562 19.168 121.034 18.64C120.521 18.0973 119.883 17.826 119.12 17.826C118.372 17.826 117.734 18.0973 117.206 18.64C116.693 19.1827 116.436 19.9233 116.436 20.862C116.436 21.8007 116.693 22.5413 117.206 23.084C117.734 23.6267 118.372 23.898 119.12 23.898C119.868 23.898 120.506 23.6267 121.034 23.084C121.562 22.5267 121.826 21.7787 121.826 20.84ZM129.52 13.448C128.86 13.448 128.317 13.2573 127.892 12.876C127.481 12.48 127.276 11.996 127.276 11.424C127.276 10.8373 127.481 10.3533 127.892 9.972C128.317 9.576 128.86 9.378 129.52 9.378C130.165 9.378 130.693 9.576 131.104 9.972C131.529 10.3533 131.742 10.8373 131.742 11.424C131.742 11.996 131.529 12.48 131.104 12.876C130.693 13.2573 130.165 13.448 129.52 13.448ZM131.39 14.724V27H127.628V14.724H131.39ZM145.688 20.664C145.688 21.016 145.666 21.3827 145.622 21.764H137.108C137.167 22.5267 137.409 23.1133 137.834 23.524C138.274 23.92 138.809 24.118 139.44 24.118C140.379 24.118 141.031 23.722 141.398 22.93H145.402C145.197 23.7367 144.823 24.4627 144.28 25.108C143.752 25.7533 143.085 26.2593 142.278 26.626C141.471 26.9927 140.569 27.176 139.572 27.176C138.369 27.176 137.299 26.9193 136.36 26.406C135.421 25.8927 134.688 25.1593 134.16 24.206C133.632 23.2527 133.368 22.138 133.368 20.862C133.368 19.586 133.625 18.4713 134.138 17.518C134.666 16.5647 135.399 15.8313 136.338 15.318C137.277 14.8047 138.355 14.548 139.572 14.548C140.76 14.548 141.816 14.7973 142.74 15.296C143.664 15.7947 144.383 16.506 144.896 17.43C145.424 18.354 145.688 19.432 145.688 20.664ZM141.838 19.674C141.838 19.0287 141.618 18.5153 141.178 18.134C140.738 17.7527 140.188 17.562 139.528 17.562C138.897 17.562 138.362 17.7453 137.922 18.112C137.497 18.4787 137.233 18.9993 137.13 19.674H141.838ZM151.435 10.72V27H147.673V10.72H151.435ZM155.921 27.176C155.261 27.176 154.718 26.9853 154.293 26.604C153.882 26.208 153.677 25.724 153.677 25.152C153.677 24.5653 153.882 24.074 154.293 23.678C154.718 23.282 155.261 23.084 155.921 23.084C156.566 23.084 157.094 23.282 157.505 23.678C157.93 24.074 158.143 24.5653 158.143 25.152C158.143 25.724 157.93 26.208 157.505 26.604C157.094 26.9853 156.566 27.176 155.921 27.176ZM155.921 18.222C155.261 18.222 154.718 18.0313 154.293 17.65C153.882 17.254 153.677 16.77 153.677 16.198C153.677 15.6113 153.882 15.12 154.293 14.724C154.718 14.328 155.261 14.13 155.921 14.13C156.566 14.13 157.094 14.328 157.505 14.724C157.93 15.12 158.143 15.6113 158.143 16.198C158.143 16.77 157.93 17.254 157.505 17.65C157.094 18.0313 156.566 18.222 155.921 18.222ZM50.2329 53.664C50.2329 54.016 50.2109 54.3827 50.1669 54.764H41.6529C41.7115 55.5267 41.9535 56.1133 42.3789 56.524C42.8189 56.92 43.3542 57.118 43.9849 57.118C44.9235 57.118 45.5762 56.722 45.9429 55.93H49.9469C49.7415 56.7367 49.3675 57.4627 48.8249 58.108C48.2969 58.7533 47.6295 59.2593 46.8229 59.626C46.0162 59.9927 45.1142 60.176 44.1169 60.176C42.9142 60.176 41.8435 59.9193 40.9049 59.406C39.9662 58.8927 39.2329 58.1593 38.7049 57.206C38.1769 56.2527 37.9129 55.138 37.9129 53.862C37.9129 52.586 38.1695 51.4713 38.6829 50.518C39.2109 49.5647 39.9442 48.8313 40.8829 48.318C41.8215 47.8047 42.8995 47.548 44.1169 47.548C45.3049 47.548 46.3609 47.7973 47.2849 48.296C48.2089 48.7947 48.9275 49.506 49.4409 50.43C49.9689 51.354 50.2329 52.432 50.2329 53.664ZM46.3829 52.674C46.3829 52.0287 46.1629 51.5153 45.7229 51.134C45.2829 50.7527 44.7329 50.562 44.0729 50.562C43.4422 50.562 42.9069 50.7453 42.4669 51.112C42.0415 51.4787 41.7775 51.9993 41.6749 52.674H46.3829ZM54.1095 46.448C53.4495 46.448 52.9068 46.2573 52.4815 45.876C52.0708 45.48 51.8655 44.996 51.8655 44.424C51.8655 43.8373 52.0708 43.3533 52.4815 42.972C52.9068 42.576 53.4495 42.378 54.1095 42.378C54.7548 42.378 55.2828 42.576 55.6935 42.972C56.1188 43.3533 56.3315 43.8373 56.3315 44.424C56.3315 44.996 56.1188 45.48 55.6935 45.876C55.2828 46.2573 54.7548 46.448 54.1095 46.448ZM55.9795 47.724V60H52.2175V47.724H55.9795ZM66.1858 47.592C67.6231 47.592 68.7671 48.0613 69.6178 49C70.4831 49.924 70.9158 51.2 70.9158 52.828V60H67.1758V53.334C67.1758 52.5127 66.9631 51.8747 66.5378 51.42C66.1125 50.9653 65.5405 50.738 64.8218 50.738C64.1031 50.738 63.5311 50.9653 63.1058 51.42C62.6805 51.8747 62.4678 52.5127 62.4678 53.334V60H58.7058V47.724H62.4678V49.352C62.8491 48.8093 63.3625 48.384 64.0078 48.076C64.6531 47.7533 65.3791 47.592 66.1858 47.592ZM84.3521 50.848H82.3281V60H78.5661V50.848H77.2021V47.724H78.5661V47.372C78.5661 45.8613 78.9988 44.7173 79.8641 43.94C80.7295 43.148 81.9981 42.752 83.6701 42.752C83.9488 42.752 84.1541 42.7593 84.2861 42.774V45.964C83.5675 45.92 83.0615 46.0227 82.7681 46.272C82.4748 46.5213 82.3281 46.9687 82.3281 47.614V47.724H84.3521V50.848ZM85.3719 53.84C85.3719 52.5787 85.6065 51.4713 86.0759 50.518C86.5599 49.5647 87.2125 48.8313 88.0339 48.318C88.8552 47.8047 89.7719 47.548 90.7839 47.548C91.6492 47.548 92.4045 47.724 93.0499 48.076C93.7099 48.428 94.2159 48.89 94.5679 49.462V47.724H98.3299V60H94.5679V58.262C94.2012 58.834 93.6879 59.296 93.0279 59.648C92.3825 60 91.6272 60.176 90.7619 60.176C89.7645 60.176 88.8552 59.9193 88.0339 59.406C87.2125 58.878 86.5599 58.1373 86.0759 57.184C85.6065 56.216 85.3719 55.1013 85.3719 53.84ZM94.5679 53.862C94.5679 52.9233 94.3039 52.1827 93.7759 51.64C93.2625 51.0973 92.6319 50.826 91.8839 50.826C91.1359 50.826 90.4979 51.0973 89.9699 51.64C89.4565 52.168 89.1999 52.9013 89.1999 53.84C89.1999 54.7787 89.4565 55.5267 89.9699 56.084C90.4979 56.6267 91.1359 56.898 91.8839 56.898C92.6319 56.898 93.2625 56.6267 93.7759 56.084C94.3039 55.5413 94.5679 54.8007 94.5679 53.862ZM104.814 43.72V60H101.052V43.72H104.814ZM112.534 60.176C111.463 60.176 110.51 59.9927 109.674 59.626C108.838 59.2593 108.178 58.7607 107.694 58.13C107.21 57.4847 106.938 56.766 106.88 55.974H110.598C110.642 56.3993 110.84 56.744 111.192 57.008C111.544 57.272 111.976 57.404 112.49 57.404C112.959 57.404 113.318 57.316 113.568 57.14C113.832 56.9493 113.964 56.7073 113.964 56.414C113.964 56.062 113.78 55.8053 113.414 55.644C113.047 55.468 112.453 55.2773 111.632 55.072C110.752 54.8667 110.018 54.654 109.432 54.434C108.845 54.1993 108.339 53.84 107.914 53.356C107.488 52.8573 107.276 52.19 107.276 51.354C107.276 50.65 107.466 50.012 107.848 49.44C108.244 48.8533 108.816 48.3913 109.564 48.054C110.326 47.7167 111.228 47.548 112.27 47.548C113.81 47.548 115.02 47.9293 115.9 48.692C116.794 49.4547 117.308 50.4667 117.44 51.728H113.964C113.905 51.3027 113.714 50.9653 113.392 50.716C113.084 50.4667 112.673 50.342 112.16 50.342C111.72 50.342 111.382 50.43 111.148 50.606C110.913 50.7673 110.796 50.9947 110.796 51.288C110.796 51.64 110.979 51.904 111.346 52.08C111.727 52.256 112.314 52.432 113.106 52.608C114.015 52.8427 114.756 53.0773 115.328 53.312C115.9 53.532 116.398 53.8987 116.824 54.412C117.264 54.9107 117.491 55.5853 117.506 56.436C117.506 57.1547 117.3 57.8 116.89 58.372C116.494 58.9293 115.914 59.3693 115.152 59.692C114.404 60.0147 113.531 60.176 112.534 60.176ZM119.059 53.862C119.059 52.586 119.316 51.4713 119.829 50.518C120.357 49.5647 121.083 48.8313 122.007 48.318C122.946 47.8047 124.017 47.548 125.219 47.548C126.759 47.548 128.043 47.9513 129.069 48.758C130.111 49.5647 130.793 50.7013 131.115 52.168H127.111C126.774 51.2293 126.121 50.76 125.153 50.76C124.464 50.76 123.914 51.0313 123.503 51.574C123.093 52.102 122.887 52.8647 122.887 53.862C122.887 54.8593 123.093 55.6293 123.503 56.172C123.914 56.7 124.464 56.964 125.153 56.964C126.121 56.964 126.774 56.4947 127.111 55.556H131.115C130.793 56.9933 130.111 58.1227 129.069 58.944C128.028 59.7653 126.745 60.176 125.219 60.176C124.017 60.176 122.946 59.9193 122.007 59.406C121.083 58.8927 120.357 58.1593 119.829 57.206C119.316 56.2527 119.059 55.138 119.059 53.862ZM140.674 47.592C142.082 47.592 143.211 48.0613 144.062 49C144.912 49.924 145.338 51.2 145.338 52.828V60H141.598V53.334C141.598 52.5127 141.385 51.8747 140.96 51.42C140.534 50.9653 139.962 50.738 139.244 50.738C138.525 50.738 137.953 50.9653 137.528 51.42C137.102 51.8747 136.89 52.5127 136.89 53.334V60H133.128V43.72H136.89V49.374C137.271 48.8313 137.792 48.3987 138.452 48.076C139.112 47.7533 139.852 47.592 140.674 47.592ZM159.524 53.664C159.524 54.016 159.502 54.3827 159.458 54.764H150.944C151.003 55.5267 151.245 56.1133 151.67 56.524C152.11 56.92 152.645 57.118 153.276 57.118C154.215 57.118 154.867 56.722 155.234 55.93H159.238C159.033 56.7367 158.659 57.4627 158.116 58.108C157.588 58.7533 156.921 59.2593 156.114 59.626C155.307 59.9927 154.405 60.176 153.408 60.176C152.205 60.176 151.135 59.9193 150.196 59.406C149.257 58.8927 148.524 58.1593 147.996 57.206C147.468 56.2527 147.204 55.138 147.204 53.862C147.204 52.586 147.461 51.4713 147.974 50.518C148.502 49.5647 149.235 48.8313 150.174 48.318C151.113 47.8047 152.191 47.548 153.408 47.548C154.596 47.548 155.652 47.7973 156.576 48.296C157.5 48.7947 158.219 49.506 158.732 50.43C159.26 51.354 159.524 52.432 159.524 53.664ZM155.674 52.674C155.674 52.0287 155.454 51.5153 155.014 51.134C154.574 50.7527 154.024 50.562 153.364 50.562C152.733 50.562 152.198 50.7453 151.758 51.112C151.333 51.4787 151.069 51.9993 150.966 52.674H155.674ZM166.503 60.176C165.432 60.176 164.479 59.9927 163.643 59.626C162.807 59.2593 162.147 58.7607 161.663 58.13C161.179 57.4847 160.907 56.766 160.849 55.974H164.567C164.611 56.3993 164.809 56.744 165.161 57.008C165.513 57.272 165.945 57.404 166.459 57.404C166.928 57.404 167.287 57.316 167.537 57.14C167.801 56.9493 167.933 56.7073 167.933 56.414C167.933 56.062 167.749 55.8053 167.383 55.644C167.016 55.468 166.422 55.2773 165.601 55.072C164.721 54.8667 163.987 54.654 163.401 54.434C162.814 54.1993 162.308 53.84 161.883 53.356C161.457 52.8573 161.245 52.19 161.245 51.354C161.245 50.65 161.435 50.012 161.817 49.44C162.213 48.8533 162.785 48.3913 163.533 48.054C164.295 47.7167 165.197 47.548 166.239 47.548C167.779 47.548 168.989 47.9293 169.869 48.692C170.763 49.4547 171.277 50.4667 171.409 51.728H167.933C167.874 51.3027 167.683 50.9653 167.361 50.716C167.053 50.4667 166.642 50.342 166.129 50.342C165.689 50.342 165.351 50.43 165.117 50.606C164.882 50.7673 164.765 50.9947 164.765 51.288C164.765 51.64 164.948 51.904 165.315 52.08C165.696 52.256 166.283 52.432 167.075 52.608C167.984 52.8427 168.725 53.0773 169.297 53.312C169.869 53.532 170.367 53.8987 170.793 54.412C171.233 54.9107 171.46 55.5853 171.475 56.436C171.475 57.1547 171.269 57.8 170.859 58.372C170.463 58.9293 169.883 59.3693 169.121 59.692C168.373 60.0147 167.5 60.176 166.503 60.176ZM46.5369 93L43.3249 87.17H42.4229V93H38.6609V77.556H44.9749C46.1922 77.556 47.2262 77.7687 48.0769 78.194C48.9422 78.6193 49.5875 79.206 50.0129 79.954C50.4382 80.6873 50.6509 81.5087 50.6509 82.418C50.6509 83.4447 50.3575 84.3613 49.7709 85.168C49.1989 85.9747 48.3482 86.5467 47.2189 86.884L50.7829 93H46.5369ZM42.4229 84.508H44.7549C45.4442 84.508 45.9575 84.3393 46.2949 84.002C46.6469 83.6647 46.8229 83.188 46.8229 82.572C46.8229 81.9853 46.6469 81.5233 46.2949 81.186C45.9575 80.8487 45.4442 80.68 44.7549 80.68H42.4229V84.508ZM64.5844 86.664C64.5844 87.016 64.5624 87.3827 64.5184 87.764H56.0044C56.0631 88.5267 56.3051 89.1133 56.7304 89.524C57.1704 89.92 57.7058 90.118 58.3364 90.118C59.2751 90.118 59.9278 89.722 60.2944 88.93H64.2984C64.0931 89.7367 63.7191 90.4627 63.1764 91.108C62.6484 91.7533 61.9811 92.2593 61.1744 92.626C60.3678 92.9927 59.4658 93.176 58.4684 93.176C57.2658 93.176 56.1951 92.9193 55.2564 92.406C54.3178 91.8927 53.5844 91.1593 53.0564 90.206C52.5284 89.2527 52.2644 88.138 52.2644 86.862C52.2644 85.586 52.5211 84.4713 53.0344 83.518C53.5624 82.5647 54.2958 81.8313 55.2344 81.318C56.1731 80.8047 57.2511 80.548 58.4684 80.548C59.6564 80.548 60.7124 80.7973 61.6364 81.296C62.5604 81.7947 63.2791 82.506 63.7924 83.43C64.3204 84.354 64.5844 85.432 64.5844 86.664ZM60.7344 85.674C60.7344 85.0287 60.5144 84.5153 60.0744 84.134C59.6344 83.7527 59.0844 83.562 58.4244 83.562C57.7938 83.562 57.2584 83.7453 56.8184 84.112C56.3931 84.4787 56.1291 84.9993 56.0264 85.674H60.7344ZM70.3311 82.462C70.6831 81.89 71.1891 81.428 71.8491 81.076C72.5091 80.724 73.2644 80.548 74.1151 80.548C75.1271 80.548 76.0437 80.8047 76.8651 81.318C77.6864 81.8313 78.3317 82.5647 78.8011 83.518C79.2851 84.4713 79.5271 85.5787 79.5271 86.84C79.5271 88.1013 79.2851 89.216 78.8011 90.184C78.3317 91.1373 77.6864 91.878 76.8651 92.406C76.0437 92.9193 75.1271 93.176 74.1151 93.176C73.2497 93.176 72.4944 93.0073 71.8491 92.67C71.2037 92.318 70.6977 91.856 70.3311 91.284V93H66.5691V76.72H70.3311V82.462ZM75.6991 86.84C75.6991 85.9013 75.4351 85.168 74.9071 84.64C74.3937 84.0973 73.7557 83.826 72.9931 83.826C72.2451 83.826 71.6071 84.0973 71.0791 84.64C70.5657 85.1827 70.3091 85.9233 70.3091 86.862C70.3091 87.8007 70.5657 88.5413 71.0791 89.084C71.6071 89.6267 72.2451 89.898 72.9931 89.898C73.7411 89.898 74.3791 89.6267 74.9071 89.084C75.4351 88.5267 75.6991 87.7787 75.6991 86.84ZM93.0727 86.664C93.0727 87.016 93.0507 87.3827 93.0067 87.764H84.4927C84.5514 88.5267 84.7934 89.1133 85.2187 89.524C85.6587 89.92 86.1941 90.118 86.8247 90.118C87.7634 90.118 88.4161 89.722 88.7827 88.93H92.7867C92.5814 89.7367 92.2074 90.4627 91.6647 91.108C91.1367 91.7533 90.4694 92.2593 89.6627 92.626C88.8561 92.9927 87.9541 93.176 86.9567 93.176C85.7541 93.176 84.6834 92.9193 83.7447 92.406C82.8061 91.8927 82.0727 91.1593 81.5447 90.206C81.0167 89.2527 80.7527 88.138 80.7527 86.862C80.7527 85.586 81.0094 84.4713 81.5227 83.518C82.0507 82.5647 82.7841 81.8313 83.7227 81.318C84.6614 80.8047 85.7394 80.548 86.9567 80.548C88.1447 80.548 89.2007 80.7973 90.1247 81.296C91.0487 81.7947 91.7674 82.506 92.2807 83.43C92.8087 84.354 93.0727 85.432 93.0727 86.664ZM89.2227 85.674C89.2227 85.0287 89.0027 84.5153 88.5627 84.134C88.1227 83.7527 87.5727 83.562 86.9127 83.562C86.2821 83.562 85.7467 83.7453 85.3067 84.112C84.8814 84.4787 84.6174 84.9993 84.5147 85.674H89.2227ZM98.8194 82.77C99.2594 82.0953 99.8094 81.5673 100.469 81.186C101.129 80.79 101.863 80.592 102.669 80.592V84.574H101.635C100.697 84.574 99.9927 84.7793 99.5234 85.19C99.054 85.586 98.8194 86.29 98.8194 87.302V93H95.0574V80.724H98.8194V82.77ZM113.928 83.716V86.84H104.248V83.716H113.928ZM138.481 77.556L134.455 93H129.901L127.437 82.836L124.885 93H120.331L116.415 77.556H120.441L122.663 88.798L125.413 77.556H129.549L132.189 88.798L134.433 77.556H138.481ZM145.956 93.176C144.753 93.176 143.668 92.9193 142.7 92.406C141.747 91.8927 140.991 91.1593 140.434 90.206C139.891 89.2527 139.62 88.138 139.62 86.862C139.62 85.6007 139.899 84.4933 140.456 83.54C141.013 82.572 141.776 81.8313 142.744 81.318C143.712 80.8047 144.797 80.548 146 80.548C147.203 80.548 148.288 80.8047 149.256 81.318C150.224 81.8313 150.987 82.572 151.544 83.54C152.101 84.4933 152.38 85.6007 152.38 86.862C152.38 88.1233 152.094 89.238 151.522 90.206C150.965 91.1593 150.195 91.8927 149.212 92.406C148.244 92.9193 147.159 93.176 145.956 93.176ZM145.956 89.92C146.675 89.92 147.283 89.656 147.782 89.128C148.295 88.6 148.552 87.8447 148.552 86.862C148.552 85.8793 148.303 85.124 147.804 84.596C147.32 84.068 146.719 83.804 146 83.804C145.267 83.804 144.658 84.068 144.174 84.596C143.69 85.1093 143.448 85.8647 143.448 86.862C143.448 87.8447 143.683 88.6 144.152 89.128C144.636 89.656 145.237 89.92 145.956 89.92ZM158.138 82.77C158.578 82.0953 159.128 81.5673 159.788 81.186C160.448 80.79 161.181 80.592 161.988 80.592V84.574H160.954C160.015 84.574 159.311 84.7793 158.842 85.19C158.372 85.586 158.138 86.29 158.138 87.302V93H154.376V80.724H158.138V82.77ZM170.628 89.81V93H168.714C167.35 93 166.287 92.67 165.524 92.01C164.761 91.3353 164.38 90.2427 164.38 88.732V83.848H162.884V80.724H164.38V77.732H168.142V80.724H170.606V83.848H168.142V88.776C168.142 89.1427 168.23 89.4067 168.406 89.568C168.582 89.7293 168.875 89.81 169.286 89.81H170.628Z" fill="#A90C0C"/>
<defs>
<filter id="filter0_d" x="6" y="0" width="205" height="115" filterUnits="userSpaceOnUse" color-interpolation-filters="sRGB">
<feFlood flood-opacity="0" result="BackgroundImageFix"/>
<feColorMatrix in="SourceAlpha" type="matrix" values="0 0 0 0 0 0 0 0 0 0 0 0 0 0 0 0 0 0 127 0"/>
<feOffset dy="4"/>
<feGaussianBlur stdDeviation="2"/>
<feColorMatrix type="matrix" values="0 0 0 0 0 0 0 0 0 0 0 0 0 0 0 0 0 0 0.25 0"/>
<feBlend mode="normal" in2="BackgroundImageFix" result="effect1_dropShadow"/>
<feBlend mode="normal" in="SourceGraphic" in2="effect1_dropShadow" result="shape"/>
</filter>
</defs>
</svg>
