<svg width="428" height="413" viewBox="0 0 428 413" fill="none" xmlns="http://www.w3.org/2000/svg">
<g filter="url(#filter0_d)">
<rect x="6" y="2" width="416" height="401" fill="#C4C4C4" stroke="#443B3B" stroke-width="4"/>
<line x1="274.5" x2="274.5" y2="405" stroke="#443B3B"/>
<line x1="4" y1="404.5" x2="424" y2="404.5" stroke="black"/>
<line x1="4" y1="374.5" x2="424" y2="374.5" stroke="black"/>
<line x1="4" y1="314.5" x2="424" y2="314.5" stroke="black"/>
<line x1="4" y1="344.5" x2="424" y2="344.5" stroke="black"/>
<line x1="4" y1="284.5" x2="424" y2="284.5" stroke="black"/>
<line x1="4" y1="256.5" x2="424" y2="256.5" stroke="black"/>
<line x1="4" y1="224.5" x2="424" y2="224.5" stroke="black"/>
<line x1="4" y1="194.5" x2="424" y2="194.5" stroke="black"/>
<line x1="4" y1="134.5" x2="424" y2="134.5" stroke="black"/>
<line x1="4" y1="104.5" x2="424" y2="104.5" stroke="black"/>
<line x1="4" y1="164.5" x2="424" y2="164.5" stroke="black"/>
<line x1="4" y1="44.5" x2="424" y2="44.5" stroke="#443B3B"/>
<line x1="4" y1="74.5" x2="424" y2="74.5" stroke="black"/>
<path d="M53.7071 60.7071C54.0976 60.3166 54.0976 59.6834 53.7071 59.2929L47.3431 52.9289C46.9526 52.5384 46.3195 52.5384 45.9289 52.9289C45.5384 53.3195 45.5384 53.9526 45.9289 54.3431L51.5858 60L45.9289 65.6569C45.5384 66.0474 45.5384 66.6805 45.9289 67.0711C46.3195 67.4616 46.9526 67.4616 47.3431 67.0711L53.7071 60.7071ZM23 61H53V59H23V61Z" fill="black"/>
<path d="M218.868 14.34H209.508L217.488 22.41V24.54L209.478 32.76H218.868V34.89H207.198V31.71L214.998 23.55L207.198 15.36V12.21H218.868V14.34Z" fill="black"/>
<path d="M218.868 14.34V15.34H219.868V14.34H218.868ZM209.508 14.34V13.34H207.113L208.797 15.0431L209.508 14.34ZM217.488 22.41H218.488V21.9991L218.199 21.7069L217.488 22.41ZM217.488 24.54L218.204 25.2379L218.488 24.9467V24.54H217.488ZM209.478 32.76L208.762 32.0621L207.107 33.76H209.478V32.76ZM218.868 32.76H219.868V31.76H218.868V32.76ZM218.868 34.89V35.89H219.868V34.89H218.868ZM207.198 34.89H206.198V35.89H207.198V34.89ZM207.198 31.71L206.475 31.019L206.198 31.3089V31.71H207.198ZM214.998 23.55L215.721 24.241L216.38 23.5513L215.722 22.8603L214.998 23.55ZM207.198 15.36H206.198V15.76L206.474 16.0497L207.198 15.36ZM207.198 12.21V11.21H206.198V12.21H207.198ZM218.868 12.21H219.868V11.21H218.868V12.21ZM218.868 13.34H209.508V15.34H218.868V13.34ZM208.797 15.0431L216.777 23.1131L218.199 21.7069L210.219 13.6369L208.797 15.0431ZM216.488 22.41V24.54H218.488V22.41H216.488ZM216.772 23.8421L208.762 32.0621L210.194 33.4579L218.204 25.2379L216.772 23.8421ZM209.478 33.76H218.868V31.76H209.478V33.76ZM217.868 32.76V34.89H219.868V32.76H217.868ZM218.868 33.89H207.198V35.89H218.868V33.89ZM208.198 34.89V31.71H206.198V34.89H208.198ZM207.921 32.401L215.721 24.241L214.275 22.859L206.475 31.019L207.921 32.401ZM215.722 22.8603L207.922 14.6703L206.474 16.0497L214.274 24.2397L215.722 22.8603ZM208.198 15.36V12.21H206.198V15.36H208.198ZM207.198 13.21H218.868V11.21H207.198V13.21ZM217.868 12.21V14.34H219.868V12.21H217.868Z" fill="black"/>
<path d="M91.7497 380.656L85.6337 395H83.6097L89.8137 380.854H81.3217V379.138H91.7497V380.656ZM207.741 381.294V386.42H213.329V388.07H207.741V393.35H213.989V395H205.739V379.644H213.989V381.294H207.741ZM348.627 386.728C347.806 386.405 347.175 385.936 346.735 385.32C346.295 384.704 346.075 383.956 346.075 383.076C346.075 382.284 346.273 381.573 346.669 380.942C347.065 380.297 347.652 379.791 348.429 379.424C349.221 379.043 350.175 378.852 351.289 378.852C352.404 378.852 353.35 379.043 354.127 379.424C354.919 379.791 355.513 380.297 355.909 380.942C356.32 381.573 356.525 382.284 356.525 383.076C356.525 383.927 356.298 384.675 355.843 385.32C355.389 385.951 354.765 386.42 353.973 386.728C354.883 387.007 355.601 387.498 356.129 388.202C356.672 388.891 356.943 389.727 356.943 390.71C356.943 391.663 356.709 392.499 356.239 393.218C355.77 393.922 355.103 394.472 354.237 394.868C353.387 395.249 352.404 395.44 351.289 395.44C350.175 395.44 349.192 395.249 348.341 394.868C347.505 394.472 346.853 393.922 346.383 393.218C345.914 392.499 345.679 391.663 345.679 390.71C345.679 389.727 345.943 388.884 346.471 388.18C346.999 387.476 347.718 386.992 348.627 386.728ZM354.589 383.318C354.589 382.423 354.296 381.734 353.709 381.25C353.123 380.766 352.316 380.524 351.289 380.524C350.277 380.524 349.478 380.766 348.891 381.25C348.305 381.734 348.011 382.431 348.011 383.34C348.011 384.161 348.312 384.821 348.913 385.32C349.529 385.819 350.321 386.068 351.289 386.068C352.272 386.068 353.064 385.819 353.665 385.32C354.281 384.807 354.589 384.139 354.589 383.318ZM351.289 387.608C350.204 387.608 349.317 387.865 348.627 388.378C347.938 388.877 347.593 389.632 347.593 390.644C347.593 391.583 347.923 392.338 348.583 392.91C349.258 393.482 350.16 393.768 351.289 393.768C352.419 393.768 353.313 393.482 353.973 392.91C354.633 392.338 354.963 391.583 354.963 390.644C354.963 389.661 354.626 388.913 353.951 388.4C353.277 387.872 352.389 387.608 351.289 387.608ZM366.752 380.26L367.544 381.69L364.486 382.966L367.566 384.22L366.73 385.694L364.068 383.758L364.42 387.08H362.77L363.1 383.758L360.438 385.716L359.58 384.22L362.638 382.944L359.58 381.712L360.394 380.238L363.122 382.196L362.77 378.852H364.442L364.068 382.196L366.752 380.26Z" fill="black"/>
<path d="M90.8257 354.878C90.503 353.25 89.4984 352.436 87.8117 352.436C86.5064 352.436 85.531 352.942 84.8857 353.954C84.2404 354.951 83.925 356.601 83.9397 358.904C84.277 358.141 84.8344 357.547 85.6117 357.122C86.4037 356.682 87.2837 356.462 88.2517 356.462C89.7624 356.462 90.965 356.931 91.8597 357.87C92.769 358.809 93.2237 360.107 93.2237 361.764C93.2237 362.761 93.0257 363.656 92.6297 364.448C92.2484 365.24 91.6617 365.871 90.8697 366.34C90.0924 366.809 89.1464 367.044 88.0317 367.044C86.521 367.044 85.3404 366.707 84.4897 366.032C83.639 365.357 83.045 364.426 82.7077 363.238C82.3704 362.05 82.2017 360.583 82.2017 358.838C82.2017 353.455 84.079 350.764 87.8337 350.764C89.271 350.764 90.4004 351.153 91.2217 351.93C92.043 352.707 92.527 353.69 92.6737 354.878H90.8257ZM87.8337 358.156C87.203 358.156 86.609 358.288 86.0517 358.552C85.4944 358.801 85.0397 359.19 84.6877 359.718C84.3504 360.231 84.1817 360.862 84.1817 361.61C84.1817 362.725 84.5044 363.634 85.1497 364.338C85.795 365.027 86.719 365.372 87.9217 365.372C88.9484 365.372 89.7624 365.057 90.3637 364.426C90.9797 363.781 91.2877 362.915 91.2877 361.83C91.2877 360.686 90.9944 359.791 90.4077 359.146C89.821 358.486 88.963 358.156 87.8337 358.156ZM212.556 367.154C211.544 367.154 210.635 366.978 209.828 366.626C209.036 366.259 208.413 365.761 207.958 365.13C207.503 364.485 207.269 363.744 207.254 362.908H209.388C209.461 363.627 209.755 364.235 210.268 364.734C210.796 365.218 211.559 365.46 212.556 365.46C213.509 365.46 214.257 365.225 214.8 364.756C215.357 364.272 215.636 363.656 215.636 362.908C215.636 362.321 215.475 361.845 215.152 361.478C214.829 361.111 214.426 360.833 213.942 360.642C213.458 360.451 212.805 360.246 211.984 360.026C210.972 359.762 210.158 359.498 209.542 359.234C208.941 358.97 208.42 358.559 207.98 358.002C207.555 357.43 207.342 356.667 207.342 355.714C207.342 354.878 207.555 354.137 207.98 353.492C208.405 352.847 208.999 352.348 209.762 351.996C210.539 351.644 211.427 351.468 212.424 351.468C213.861 351.468 215.035 351.827 215.944 352.546C216.868 353.265 217.389 354.218 217.506 355.406H215.306C215.233 354.819 214.925 354.306 214.382 353.866C213.839 353.411 213.121 353.184 212.226 353.184C211.39 353.184 210.708 353.404 210.18 353.844C209.652 354.269 209.388 354.871 209.388 355.648C209.388 356.205 209.542 356.66 209.85 357.012C210.173 357.364 210.561 357.635 211.016 357.826C211.485 358.002 212.138 358.207 212.974 358.442C213.986 358.721 214.8 358.999 215.416 359.278C216.032 359.542 216.56 359.96 217 360.532C217.44 361.089 217.66 361.852 217.66 362.82C217.66 363.568 217.462 364.272 217.066 364.932C216.67 365.592 216.083 366.127 215.306 366.538C214.529 366.949 213.612 367.154 212.556 367.154ZM359.101 352.656L352.985 367H350.961L357.165 352.854H348.673V351.138H359.101V352.656Z" fill="black"/>
<path d="M92.1017 294.832H84.3797V299.848C84.717 299.379 85.2157 298.997 85.8757 298.704C86.5357 298.396 87.247 298.242 88.0097 298.242C89.227 298.242 90.217 298.499 90.9797 299.012C91.7424 299.511 92.285 300.163 92.6077 300.97C92.945 301.762 93.1137 302.605 93.1137 303.5C93.1137 304.556 92.9157 305.502 92.5197 306.338C92.1237 307.174 91.515 307.834 90.6937 308.318C89.887 308.802 88.8824 309.044 87.6797 309.044C86.1397 309.044 84.893 308.648 83.9397 307.856C82.9864 307.064 82.407 306.008 82.2017 304.688H84.1597C84.3504 305.524 84.7537 306.177 85.3697 306.646C85.9857 307.115 86.763 307.35 87.7017 307.35C88.8604 307.35 89.733 307.005 90.3197 306.316C90.9064 305.612 91.1997 304.688 91.1997 303.544C91.1997 302.4 90.9064 301.52 90.3197 300.904C89.733 300.273 88.8677 299.958 87.7237 299.958C86.9464 299.958 86.2644 300.149 85.6777 300.53C85.1057 300.897 84.6877 301.403 84.4237 302.048H82.5317V293.072H92.1017V294.832ZM220.216 293.666L214.43 309H212.12L206.334 293.666H208.468L213.286 306.888L218.104 293.666H220.216ZM360.906 294.656L354.79 309H352.766L358.97 294.854H350.478V293.138H360.906V294.656Z" fill="black"/>
<path d="M92.1017 262.832H84.3797V267.848C84.717 267.379 85.2157 266.997 85.8757 266.704C86.5357 266.396 87.247 266.242 88.0097 266.242C89.227 266.242 90.217 266.499 90.9797 267.012C91.7424 267.511 92.285 268.163 92.6077 268.97C92.945 269.762 93.1137 270.605 93.1137 271.5C93.1137 272.556 92.9157 273.502 92.5197 274.338C92.1237 275.174 91.515 275.834 90.6937 276.318C89.887 276.802 88.8824 277.044 87.6797 277.044C86.1397 277.044 84.893 276.648 83.9397 275.856C82.9864 275.064 82.407 274.008 82.2017 272.688H84.1597C84.3504 273.524 84.7537 274.177 85.3697 274.646C85.9857 275.115 86.763 275.35 87.7017 275.35C88.8604 275.35 89.733 275.005 90.3197 274.316C90.9064 273.612 91.1997 272.688 91.1997 271.544C91.1997 270.4 90.9064 269.52 90.3197 268.904C89.733 268.273 88.8677 267.958 87.7237 267.958C86.9464 267.958 86.2644 268.149 85.6777 268.53C85.1057 268.897 84.6877 269.403 84.4237 270.048H82.5317V261.072H92.1017V262.832ZM217.796 266.154C217.796 267.43 217.356 268.493 216.476 269.344C215.61 270.18 214.283 270.598 212.494 270.598H209.546V277H207.544V261.666H212.494C214.224 261.666 215.537 262.084 216.432 262.92C217.341 263.756 217.796 264.834 217.796 266.154ZM212.494 268.948C213.608 268.948 214.43 268.706 214.958 268.222C215.486 267.738 215.75 267.049 215.75 266.154C215.75 264.262 214.664 263.316 212.494 263.316H209.546V268.948H212.494ZM357.855 264.878C357.532 263.25 356.528 262.436 354.841 262.436C353.536 262.436 352.56 262.942 351.915 263.954C351.27 264.951 350.954 266.601 350.969 268.904C351.306 268.141 351.864 267.547 352.641 267.122C353.433 266.682 354.313 266.462 355.281 266.462C356.792 266.462 357.994 266.931 358.889 267.87C359.798 268.809 360.253 270.107 360.253 271.764C360.253 272.761 360.055 273.656 359.659 274.448C359.278 275.24 358.691 275.871 357.899 276.34C357.122 276.809 356.176 277.044 355.061 277.044C353.55 277.044 352.37 276.707 351.519 276.032C350.668 275.357 350.074 274.426 349.737 273.238C349.4 272.05 349.231 270.583 349.231 268.838C349.231 263.455 351.108 260.764 354.863 260.764C356.3 260.764 357.43 261.153 358.251 261.93C359.072 262.707 359.556 263.69 359.703 264.878H357.855ZM354.863 268.156C354.232 268.156 353.638 268.288 353.081 268.552C352.524 268.801 352.069 269.19 351.717 269.718C351.38 270.231 351.211 270.862 351.211 271.61C351.211 272.725 351.534 273.634 352.179 274.338C352.824 275.027 353.748 275.372 354.951 275.372C355.978 275.372 356.792 275.057 357.393 274.426C358.009 273.781 358.317 272.915 358.317 271.83C358.317 270.686 358.024 269.791 357.437 269.146C356.85 268.486 355.992 268.156 354.863 268.156Z" fill="black"/>
<path d="M90.8257 324.878C90.503 323.25 89.4984 322.436 87.8117 322.436C86.5064 322.436 85.531 322.942 84.8857 323.954C84.2404 324.951 83.925 326.601 83.9397 328.904C84.277 328.141 84.8344 327.547 85.6117 327.122C86.4037 326.682 87.2837 326.462 88.2517 326.462C89.7624 326.462 90.965 326.931 91.8597 327.87C92.769 328.809 93.2237 330.107 93.2237 331.764C93.2237 332.761 93.0257 333.656 92.6297 334.448C92.2484 335.24 91.6617 335.871 90.8697 336.34C90.0924 336.809 89.1464 337.044 88.0317 337.044C86.521 337.044 85.3404 336.707 84.4897 336.032C83.639 335.357 83.045 334.426 82.7077 333.238C82.3704 332.05 82.2017 330.583 82.2017 328.838C82.2017 323.455 84.079 320.764 87.8337 320.764C89.271 320.764 90.4004 321.153 91.2217 321.93C92.043 322.707 92.527 323.69 92.6737 324.878H90.8257ZM87.8337 328.156C87.203 328.156 86.609 328.288 86.0517 328.552C85.4944 328.801 85.0397 329.19 84.6877 329.718C84.3504 330.231 84.1817 330.862 84.1817 331.61C84.1817 332.725 84.5044 333.634 85.1497 334.338C85.795 335.027 86.719 335.372 87.9217 335.372C88.9484 335.372 89.7624 335.057 90.3637 334.426C90.9797 333.781 91.2877 332.915 91.2877 331.83C91.2877 330.686 90.9944 329.791 90.4077 329.146C89.821 328.486 88.963 328.156 87.8337 328.156ZM213.964 329.344L218.672 337H216.406L212.732 331.016L209.234 337H207.012L211.698 329.344L206.99 321.666H209.234L212.93 327.672L216.45 321.666H218.694L213.964 329.344ZM349.579 333.458V331.94L357.301 321.248H359.699V331.72H361.899V333.458H359.699V337H357.719V333.458H349.579ZM357.807 323.338L351.889 331.72H357.807V323.338Z" fill="black"/>
<path d="M81.4757 243.458V241.94L89.1977 231.248H91.5957V241.72H93.7957V243.458H91.5957V247H89.6157V243.458H81.4757ZM89.7037 233.338L83.7857 241.72H89.7037V233.338ZM220.237 231.666L214.451 247H212.141L206.355 231.666H208.489L213.307 244.888L218.125 231.666H220.237ZM361.279 232.832H353.557V237.848C353.895 237.379 354.393 236.997 355.053 236.704C355.713 236.396 356.425 236.242 357.187 236.242C358.405 236.242 359.395 236.499 360.157 237.012C360.92 237.511 361.463 238.163 361.785 238.97C362.123 239.762 362.291 240.605 362.291 241.5C362.291 242.556 362.093 243.502 361.697 244.338C361.301 245.174 360.693 245.834 359.871 246.318C359.065 246.802 358.06 247.044 356.857 247.044C355.317 247.044 354.071 246.648 353.117 245.856C352.164 245.064 351.585 244.008 351.379 242.688H353.337C353.528 243.524 353.931 244.177 354.547 244.646C355.163 245.115 355.941 245.35 356.879 245.35C358.038 245.35 358.911 245.005 359.497 244.316C360.084 243.612 360.377 242.688 360.377 241.544C360.377 240.4 360.084 239.52 359.497 238.904C358.911 238.273 358.045 237.958 356.901 237.958C356.124 237.958 355.442 238.149 354.855 238.53C354.283 238.897 353.865 239.403 353.601 240.048H351.709V231.072H361.279V232.832Z" fill="black"/>
<path d="M81.4757 213.458V211.94L89.1977 201.248H91.5957V211.72H93.7957V213.458H91.5957V217H89.6157V213.458H81.4757ZM89.7037 203.338L83.7857 211.72H89.7037V203.338ZM217.003 201.666V203.294H212.823V217H210.821V203.294H206.619V201.666H217.003ZM347.689 213.458V211.94L355.411 201.248H357.809V211.72H360.009V213.458H357.809V217H355.829V213.458H347.689ZM355.917 203.338L349.999 211.72H355.917V203.338Z" fill="black"/>
<path d="M81.9157 175.098C82.0184 173.749 82.539 172.693 83.4777 171.93C84.4164 171.167 85.6337 170.786 87.1297 170.786C88.127 170.786 88.985 170.969 89.7037 171.336C90.437 171.688 90.987 172.172 91.3537 172.788C91.735 173.404 91.9257 174.101 91.9257 174.878C91.9257 175.787 91.6617 176.572 91.1337 177.232C90.6204 177.892 89.9457 178.317 89.1097 178.508V178.618C90.063 178.853 90.8184 179.315 91.3757 180.004C91.933 180.693 92.2117 181.595 92.2117 182.71C92.2117 183.546 92.021 184.301 91.6397 184.976C91.2584 185.636 90.6864 186.157 89.9237 186.538C89.161 186.919 88.2444 187.11 87.1737 187.11C85.619 187.11 84.343 186.707 83.3457 185.9C82.3484 185.079 81.791 183.92 81.6737 182.424H83.6097C83.7124 183.304 84.0717 184.023 84.6877 184.58C85.3037 185.137 86.125 185.416 87.1517 185.416C88.1784 185.416 88.9557 185.152 89.4837 184.624C90.0264 184.081 90.2977 183.385 90.2977 182.534C90.2977 181.434 89.931 180.642 89.1977 180.158C88.4644 179.674 87.357 179.432 85.8757 179.432H85.3697V177.76H85.8977C87.247 177.745 88.2664 177.525 88.9557 177.1C89.645 176.66 89.9897 175.985 89.9897 175.076C89.9897 174.299 89.733 173.675 89.2197 173.206C88.721 172.737 88.0024 172.502 87.0637 172.502C86.1544 172.502 85.421 172.737 84.8637 173.206C84.3064 173.675 83.9764 174.306 83.8737 175.098H81.9157ZM212.954 179.344L217.662 187H215.396L211.722 181.016L208.224 187H206.002L210.688 179.344L205.98 171.666H208.224L211.92 177.672L215.44 171.666H217.684L212.954 179.344ZM357.919 174.878C357.597 173.25 356.592 172.436 354.905 172.436C353.6 172.436 352.625 172.942 351.979 173.954C351.334 174.951 351.019 176.601 351.033 178.904C351.371 178.141 351.928 177.547 352.705 177.122C353.497 176.682 354.377 176.462 355.345 176.462C356.856 176.462 358.059 176.931 358.953 177.87C359.863 178.809 360.317 180.107 360.317 181.764C360.317 182.761 360.119 183.656 359.723 184.448C359.342 185.24 358.755 185.871 357.963 186.34C357.186 186.809 356.24 187.044 355.125 187.044C353.615 187.044 352.434 186.707 351.583 186.032C350.733 185.357 350.139 184.426 349.801 183.238C349.464 182.05 349.295 180.583 349.295 178.838C349.295 173.455 351.173 170.764 354.927 170.764C356.365 170.764 357.494 171.153 358.315 171.93C359.137 172.707 359.621 173.69 359.767 174.878H357.919ZM354.927 178.156C354.297 178.156 353.703 178.288 353.145 178.552C352.588 178.801 352.133 179.19 351.781 179.718C351.444 180.231 351.275 180.862 351.275 181.61C351.275 182.725 351.598 183.634 352.243 184.338C352.889 185.027 353.813 185.372 355.015 185.372C356.042 185.372 356.856 185.057 357.457 184.426C358.073 183.781 358.381 182.915 358.381 181.83C358.381 180.686 358.088 179.791 357.501 179.146C356.915 178.486 356.057 178.156 354.927 178.156Z" fill="black"/>
<path d="M81.9157 145.098C82.0184 143.749 82.539 142.693 83.4777 141.93C84.4164 141.167 85.6337 140.786 87.1297 140.786C88.127 140.786 88.985 140.969 89.7037 141.336C90.437 141.688 90.987 142.172 91.3537 142.788C91.735 143.404 91.9257 144.101 91.9257 144.878C91.9257 145.787 91.6617 146.572 91.1337 147.232C90.6204 147.892 89.9457 148.317 89.1097 148.508V148.618C90.063 148.853 90.8184 149.315 91.3757 150.004C91.933 150.693 92.2117 151.595 92.2117 152.71C92.2117 153.546 92.021 154.301 91.6397 154.976C91.2584 155.636 90.6864 156.157 89.9237 156.538C89.161 156.919 88.2444 157.11 87.1737 157.11C85.619 157.11 84.343 156.707 83.3457 155.9C82.3484 155.079 81.791 153.92 81.6737 152.424H83.6097C83.7124 153.304 84.0717 154.023 84.6877 154.58C85.3037 155.137 86.125 155.416 87.1517 155.416C88.1784 155.416 88.9557 155.152 89.4837 154.624C90.0264 154.081 90.2977 153.385 90.2977 152.534C90.2977 151.434 89.931 150.642 89.1977 150.158C88.4644 149.674 87.357 149.432 85.8757 149.432H85.3697V147.76H85.8977C87.247 147.745 88.2664 147.525 88.9557 147.1C89.645 146.66 89.9897 145.985 89.9897 145.076C89.9897 144.299 89.733 143.675 89.2197 143.206C88.721 142.737 88.0024 142.502 87.0637 142.502C86.1544 142.502 85.421 142.737 84.8637 143.206C84.3064 143.675 83.9764 144.306 83.8737 145.098H81.9157ZM211.546 157.154C210.534 157.154 209.625 156.978 208.818 156.626C208.026 156.259 207.403 155.761 206.948 155.13C206.494 154.485 206.259 153.744 206.244 152.908H208.378C208.452 153.627 208.745 154.235 209.258 154.734C209.786 155.218 210.549 155.46 211.546 155.46C212.5 155.46 213.248 155.225 213.79 154.756C214.348 154.272 214.626 153.656 214.626 152.908C214.626 152.321 214.465 151.845 214.142 151.478C213.82 151.111 213.416 150.833 212.932 150.642C212.448 150.451 211.796 150.246 210.974 150.026C209.962 149.762 209.148 149.498 208.532 149.234C207.931 148.97 207.41 148.559 206.97 148.002C206.545 147.43 206.332 146.667 206.332 145.714C206.332 144.878 206.545 144.137 206.97 143.492C207.396 142.847 207.99 142.348 208.752 141.996C209.53 141.644 210.417 141.468 211.414 141.468C212.852 141.468 214.025 141.827 214.934 142.546C215.858 143.265 216.379 144.218 216.496 145.406H214.296C214.223 144.819 213.915 144.306 213.372 143.866C212.83 143.411 212.111 143.184 211.216 143.184C210.38 143.184 209.698 143.404 209.17 143.844C208.642 144.269 208.378 144.871 208.378 145.648C208.378 146.205 208.532 146.66 208.84 147.012C209.163 147.364 209.552 147.635 210.006 147.826C210.476 148.002 211.128 148.207 211.964 148.442C212.976 148.721 213.79 148.999 214.406 149.278C215.022 149.542 215.55 149.96 215.99 150.532C216.43 151.089 216.65 151.852 216.65 152.82C216.65 153.568 216.452 154.272 216.056 154.932C215.66 155.592 215.074 156.127 214.296 156.538C213.519 156.949 212.602 157.154 211.546 157.154ZM348.258 145.098C348.36 143.749 348.881 142.693 349.82 141.93C350.758 141.167 351.976 140.786 353.472 140.786C354.469 140.786 355.327 140.969 356.046 141.336C356.779 141.688 357.329 142.172 357.696 142.788C358.077 143.404 358.268 144.101 358.268 144.878C358.268 145.787 358.004 146.572 357.476 147.232C356.962 147.892 356.288 148.317 355.452 148.508V148.618C356.405 148.853 357.16 149.315 357.718 150.004C358.275 150.693 358.553 151.595 358.553 152.71C358.553 153.546 358.363 154.301 357.982 154.976C357.6 155.636 357.028 156.157 356.266 156.538C355.503 156.919 354.586 157.11 353.516 157.11C351.961 157.11 350.685 156.707 349.688 155.9C348.69 155.079 348.133 153.92 348.016 152.424H349.952C350.054 153.304 350.414 154.023 351.03 154.58C351.646 155.137 352.467 155.416 353.494 155.416C354.52 155.416 355.298 155.152 355.826 154.624C356.368 154.081 356.64 153.385 356.64 152.534C356.64 151.434 356.273 150.642 355.54 150.158C354.806 149.674 353.699 149.432 352.218 149.432H351.712V147.76H352.24C353.589 147.745 354.608 147.525 355.298 147.1C355.987 146.66 356.332 145.985 356.332 145.076C356.332 144.299 356.075 143.675 355.562 143.206C355.063 142.737 354.344 142.502 353.405 142.502C352.496 142.502 351.763 142.737 351.206 143.206C350.648 143.675 350.318 144.306 350.216 145.098H348.258Z" fill="black"/>
<path d="M81.7177 127.394C83.5804 125.898 85.0397 124.673 86.0957 123.72C87.1517 122.752 88.039 121.747 88.7577 120.706C89.491 119.65 89.8577 118.616 89.8577 117.604C89.8577 116.651 89.623 115.903 89.1537 115.36C88.699 114.803 87.9584 114.524 86.9317 114.524C85.9344 114.524 85.157 114.839 84.5997 115.47C84.057 116.086 83.7637 116.915 83.7197 117.956H81.7837C81.8424 116.313 82.341 115.045 83.2797 114.15C84.2184 113.255 85.4284 112.808 86.9097 112.808C88.4204 112.808 89.6157 113.226 90.4957 114.062C91.3904 114.898 91.8377 116.049 91.8377 117.516C91.8377 118.733 91.471 119.921 90.7377 121.08C90.019 122.224 89.1977 123.236 88.2737 124.116C87.3497 124.981 86.169 125.993 84.7317 127.152H92.2997V128.824H81.7177V127.394ZM216.635 118.154C216.635 119.43 216.195 120.493 215.315 121.344C214.45 122.18 213.123 122.598 211.333 122.598H208.385V129H206.383V113.666H211.333C213.064 113.666 214.377 114.084 215.271 114.92C216.181 115.756 216.635 116.834 216.635 118.154ZM211.333 120.948C212.448 120.948 213.269 120.706 213.797 120.222C214.325 119.738 214.589 119.049 214.589 118.154C214.589 116.262 213.504 115.316 211.333 115.316H208.385V120.948H211.333ZM347.345 125.458V123.94L355.067 113.248H357.465V123.72H359.665V125.458H357.465V129H355.485V125.458H347.345ZM355.573 115.338L349.655 123.72H355.573V115.338Z" fill="black"/>
<path d="M81.7177 95.394C83.5804 93.898 85.0397 92.6733 86.0957 91.72C87.1517 90.752 88.039 89.7473 88.7577 88.706C89.491 87.65 89.8577 86.616 89.8577 85.604C89.8577 84.6507 89.623 83.9027 89.1537 83.36C88.699 82.8027 87.9584 82.524 86.9317 82.524C85.9344 82.524 85.157 82.8393 84.5997 83.47C84.057 84.086 83.7637 84.9147 83.7197 85.956H81.7837C81.8424 84.3133 82.341 83.0447 83.2797 82.15C84.2184 81.2553 85.4284 80.808 86.9097 80.808C88.4204 80.808 89.6157 81.226 90.4957 82.062C91.3904 82.898 91.8377 84.0493 91.8377 85.516C91.8377 86.7333 91.471 87.9213 90.7377 89.08C90.019 90.224 89.1977 91.236 88.2737 92.116C87.3497 92.9813 86.169 93.9933 84.7317 95.152H92.2997V96.824H81.7177V95.394ZM215.821 81.666V83.294H211.641V97H209.639V83.294H205.437V81.666H215.821ZM346.947 85.098C347.05 83.7487 347.57 82.6927 348.509 81.93C349.448 81.1673 350.665 80.786 352.161 80.786C353.158 80.786 354.016 80.9693 354.735 81.336C355.468 81.688 356.018 82.172 356.385 82.788C356.766 83.404 356.957 84.1007 356.957 84.878C356.957 85.7873 356.693 86.572 356.165 87.232C355.652 87.892 354.977 88.3173 354.141 88.508V88.618C355.094 88.8527 355.85 89.3147 356.407 90.004C356.964 90.6933 357.243 91.5953 357.243 92.71C357.243 93.546 357.052 94.3013 356.671 94.976C356.29 95.636 355.718 96.1567 354.955 96.538C354.192 96.9193 353.276 97.11 352.205 97.11C350.65 97.11 349.374 96.7067 348.377 95.9C347.38 95.0787 346.822 93.92 346.705 92.424H348.641C348.744 93.304 349.103 94.0227 349.719 94.58C350.335 95.1373 351.156 95.416 352.183 95.416C353.21 95.416 353.987 95.152 354.515 94.624C355.058 94.0813 355.329 93.3847 355.329 92.534C355.329 91.434 354.962 90.642 354.229 90.158C353.496 89.674 352.388 89.432 350.907 89.432H350.401V87.76H350.929C352.278 87.7453 353.298 87.5253 353.987 87.1C354.676 86.66 355.021 85.9853 355.021 85.076C355.021 84.2987 354.764 83.6753 354.251 83.206C353.752 82.7367 353.034 82.502 352.095 82.502C351.186 82.502 350.452 82.7367 349.895 83.206C349.338 83.6753 349.008 84.306 348.905 85.098H346.947Z" fill="black"/>
<path d="M81.4317 52.92V51.094H85.5677V67H83.5437V52.92H81.4317ZM214.319 59.102C214.877 59.19 215.383 59.4173 215.837 59.784C216.307 60.1507 216.673 60.6053 216.937 61.148C217.216 61.6907 217.355 62.27 217.355 62.886C217.355 63.6633 217.157 64.3673 216.761 64.998C216.365 65.614 215.786 66.1053 215.023 66.472C214.275 66.824 213.388 67 212.361 67H206.641V51.666H212.141C213.183 51.666 214.07 51.842 214.803 52.194C215.537 52.5313 216.087 52.9933 216.453 53.58C216.82 54.1667 217.003 54.8267 217.003 55.56C217.003 56.4693 216.754 57.2247 216.255 57.826C215.771 58.4127 215.126 58.838 214.319 59.102ZM208.643 58.288H212.009C212.948 58.288 213.674 58.068 214.187 57.628C214.701 57.188 214.957 56.5793 214.957 55.802C214.957 55.0247 214.701 54.416 214.187 53.976C213.674 53.536 212.933 53.316 211.965 53.316H208.643V58.288ZM212.185 65.35C213.183 65.35 213.96 65.1153 214.517 64.646C215.075 64.1767 215.353 63.524 215.353 62.688C215.353 61.8373 215.06 61.17 214.473 60.686C213.887 60.1873 213.102 59.938 212.119 59.938H208.643V65.35H212.185ZM348.597 65.394C350.459 63.898 351.919 62.6733 352.975 61.72C354.031 60.752 354.918 59.7473 355.637 58.706C356.37 57.65 356.737 56.616 356.737 55.604C356.737 54.6507 356.502 53.9027 356.033 53.36C355.578 52.8027 354.837 52.524 353.811 52.524C352.813 52.524 352.036 52.8393 351.479 53.47C350.936 54.086 350.643 54.9147 350.599 55.956H348.663C348.721 54.3133 349.22 53.0447 350.159 52.15C351.097 51.2553 352.307 50.808 353.789 50.808C355.299 50.808 356.495 51.226 357.375 52.062C358.269 52.898 358.717 54.0493 358.717 55.516C358.717 56.7333 358.35 57.9213 357.617 59.08C356.898 60.224 356.077 61.236 355.153 62.116C354.229 62.9813 353.048 63.9933 351.611 65.152H359.179V66.824H348.597V65.394Z" fill="black"/>
<path d="M86.8105 36.96L82.6405 32.79C81.6205 33.07 80.5805 33.21 79.5205 33.21C77.5805 33.21 75.8105 32.76 74.2105 31.86C72.6105 30.94 71.3405 29.67 70.4005 28.05C69.4805 26.41 69.0205 24.57 69.0205 22.53C69.0205 20.49 69.4805 18.66 70.4005 17.04C71.3405 15.4 72.6105 14.13 74.2105 13.23C75.8105 12.31 77.5805 11.85 79.5205 11.85C81.4805 11.85 83.2605 12.31 84.8605 13.23C86.4605 14.13 87.7205 15.39 88.6405 17.01C89.5605 18.63 90.0205 20.47 90.0205 22.53C90.0205 24.53 89.5805 26.33 88.7005 27.93C87.8205 29.53 86.6105 30.79 85.0705 31.71L90.3505 36.96H86.8105ZM71.8105 22.53C71.8105 24.19 72.1405 25.65 72.8005 26.91C73.4805 28.17 74.4005 29.14 75.5605 29.82C76.7405 30.5 78.0605 30.84 79.5205 30.84C80.9805 30.84 82.2905 30.5 83.4505 29.82C84.6305 29.14 85.5505 28.17 86.2105 26.91C86.8905 25.65 87.2305 24.19 87.2305 22.53C87.2305 20.85 86.8905 19.39 86.2105 18.15C85.5505 16.89 84.6405 15.92 83.4805 15.24C82.3205 14.56 81.0005 14.22 79.5205 14.22C78.0405 14.22 76.7205 14.56 75.5605 15.24C74.4005 15.92 73.4805 16.89 72.8005 18.15C72.1405 19.39 71.8105 20.85 71.8105 22.53Z" fill="black"/>
<path d="M86.8105 36.96L86.1034 37.6671L86.3963 37.96H86.8105V36.96ZM82.6405 32.79L83.3476 32.0829L82.9364 31.6718L82.3758 31.8257L82.6405 32.79ZM74.2105 31.86L73.712 32.7269L73.7202 32.7316L74.2105 31.86ZM70.4005 28.05L69.5283 28.5393L69.5319 28.5456L69.5355 28.5519L70.4005 28.05ZM70.4005 17.04L69.5329 16.5427L69.5309 16.5462L70.4005 17.04ZM74.2105 13.23L74.7008 14.1016L74.7089 14.0969L74.2105 13.23ZM84.8605 13.23L84.362 14.0969L84.3702 14.1016L84.8605 13.23ZM88.6405 17.01L89.51 16.5162V16.5162L88.6405 17.01ZM88.7005 27.93L89.5767 28.4119L88.7005 27.93ZM85.0705 31.71L84.5576 30.8515L83.4527 31.5116L84.3654 32.4191L85.0705 31.71ZM90.3505 36.96V37.96H92.7744L91.0556 36.2509L90.3505 36.96ZM72.8005 26.91L71.9146 27.374L71.9204 27.3849L72.8005 26.91ZM75.5605 29.82L75.0547 30.6827L75.0612 30.6864L75.5605 29.82ZM83.4505 29.82L82.9512 28.9535L82.9448 28.9573L83.4505 29.82ZM86.2105 26.91L85.3304 26.435L85.3246 26.446L86.2105 26.91ZM86.2105 18.15L85.3246 18.614L85.3291 18.6225L85.3337 18.6308L86.2105 18.15ZM83.4805 15.24L82.9748 16.1027L83.4805 15.24ZM75.5605 15.24L76.0662 16.1027L75.5605 15.24ZM72.8005 18.15L71.9204 17.6751L71.9177 17.6801L72.8005 18.15ZM87.5176 36.2529L83.3476 32.0829L81.9334 33.4971L86.1034 37.6671L87.5176 36.2529ZM82.3758 31.8257C81.4422 32.0819 80.4912 32.21 79.5205 32.21V34.21C80.6697 34.21 81.7988 34.0581 82.9052 33.7543L82.3758 31.8257ZM79.5205 32.21C77.7421 32.21 76.1425 31.7994 74.7007 30.9884L73.7202 32.7316C75.4785 33.7206 77.4188 34.21 79.5205 34.21V32.21ZM74.7089 30.9931C73.2633 30.1619 72.1187 29.0188 71.2654 27.5481L69.5355 28.5519C70.5622 30.3212 71.9576 31.7181 73.712 32.7269L74.7089 30.9931ZM71.2726 27.5607C70.4435 26.0827 70.0205 24.4136 70.0205 22.53H68.0205C68.0205 24.7264 68.5175 26.7373 69.5283 28.5393L71.2726 27.5607ZM70.0205 22.53C70.0205 20.6462 70.4435 18.9892 71.27 17.5338L69.5309 16.5462C68.5174 18.3308 68.0205 20.3338 68.0205 22.53H70.0205ZM71.2681 17.5373C72.1211 16.0489 73.2628 14.9104 74.7007 14.1016L73.7202 12.3584C71.9581 13.3496 70.5598 14.7511 69.5329 16.5427L71.2681 17.5373ZM74.7089 14.0969C76.1494 13.2686 77.7461 12.85 79.5205 12.85V10.85C77.4148 10.85 75.4715 11.3514 73.712 12.3631L74.7089 14.0969ZM79.5205 12.85C81.3168 12.85 82.9231 13.2695 84.362 14.0969L85.3589 12.3631C83.5978 11.3505 81.6442 10.85 79.5205 10.85V12.85ZM84.3702 14.1016C85.8093 14.9111 86.9393 16.0394 87.7709 17.5038L89.51 16.5162C88.5017 14.7406 87.1116 13.3489 85.3507 12.3584L84.3702 14.1016ZM87.7709 17.5038C88.5966 18.9578 89.0205 20.6244 89.0205 22.53H91.0205C91.0205 20.3156 90.5243 18.3022 89.51 16.5162L87.7709 17.5038ZM89.0205 22.53C89.0205 24.3779 88.6155 26.0095 87.8243 27.4481L89.5767 28.4119C90.5455 26.6505 91.0205 24.6821 91.0205 22.53H89.0205ZM87.8243 27.4481C87.0282 28.8955 85.9424 30.0243 84.5576 30.8515L85.5833 32.5685C87.2786 31.5557 88.6127 30.1645 89.5767 28.4119L87.8243 27.4481ZM84.3654 32.4191L89.6454 37.6691L91.0556 36.2509L85.7756 31.0009L84.3654 32.4191ZM90.3505 35.96H86.8105V37.96H90.3505V35.96ZM70.8105 22.53C70.8105 24.3246 71.168 25.9487 71.9146 27.374L73.6863 26.446C73.1129 25.3513 72.8105 24.0554 72.8105 22.53H70.8105ZM71.9204 27.3849C72.6815 28.7951 73.7265 29.9041 75.0548 30.6827L76.0662 28.9573C75.0744 28.3759 74.2794 27.5449 73.6805 26.4351L71.9204 27.3849ZM75.0612 30.6864C76.4039 31.4602 77.8983 31.84 79.5205 31.84V29.84C78.2227 29.84 77.077 29.5398 76.0598 28.9536L75.0612 30.6864ZM79.5205 31.84C81.1425 31.84 82.6298 31.4602 83.9562 30.6827L82.9448 28.9573C81.9512 29.5398 80.8184 29.84 79.5205 29.84V31.84ZM83.9498 30.6864C85.3017 29.9074 86.3524 28.7943 87.0963 27.374L85.3246 26.446C84.7486 27.5457 83.9592 28.3726 82.9512 28.9536L83.9498 30.6864ZM87.0905 27.3849C87.861 25.9573 88.2305 24.3292 88.2305 22.53H86.2305C86.2305 24.0508 85.92 25.3427 85.3304 26.4351L87.0905 27.3849ZM88.2305 22.53C88.2305 20.7135 87.862 19.082 87.0873 17.6692L85.3337 18.6308C85.9189 19.698 86.2305 20.9865 86.2305 22.53H88.2305ZM87.0963 17.686C86.3547 16.2702 85.3172 15.1576 83.9862 14.3773L82.9748 16.1027C83.9637 16.6824 84.7463 17.5098 85.3246 18.614L87.0963 17.686ZM83.9862 14.3773C82.6577 13.5985 81.1598 13.22 79.5205 13.22V15.22C80.8411 15.22 81.9833 15.5215 82.9748 16.1027L83.9862 14.3773ZM79.5205 13.22C77.8811 13.22 76.3833 13.5985 75.0547 14.3773L76.0662 16.1027C77.0577 15.5215 78.1998 15.22 79.5205 15.22V13.22ZM75.0548 14.3773C73.7265 15.1559 72.6815 16.2649 71.9204 17.6751L73.6805 18.6249C74.2794 17.5151 75.0744 16.6841 76.0662 16.1027L75.0548 14.3773ZM71.9177 17.6801C71.167 19.0906 70.8105 20.7181 70.8105 22.53H72.8105C72.8105 20.9819 73.1139 19.6894 73.6832 18.6198L71.9177 17.6801Z" fill="black"/>
<path d="M355.676 36.96L351.506 32.79C350.486 33.07 349.446 33.21 348.386 33.21C346.446 33.21 344.676 32.76 343.076 31.86C341.476 30.94 340.206 29.67 339.266 28.05C338.346 26.41 337.886 24.57 337.886 22.53C337.886 20.49 338.346 18.66 339.266 17.04C340.206 15.4 341.476 14.13 343.076 13.23C344.676 12.31 346.446 11.85 348.386 11.85C350.346 11.85 352.126 12.31 353.726 13.23C355.326 14.13 356.586 15.39 357.506 17.01C358.426 18.63 358.886 20.47 358.886 22.53C358.886 24.53 358.446 26.33 357.566 27.93C356.686 29.53 355.476 30.79 353.936 31.71L359.216 36.96H355.676ZM340.676 22.53C340.676 24.19 341.006 25.65 341.666 26.91C342.346 28.17 343.266 29.14 344.426 29.82C345.606 30.5 346.926 30.84 348.386 30.84C349.846 30.84 351.156 30.5 352.316 29.82C353.496 29.14 354.416 28.17 355.076 26.91C355.756 25.65 356.096 24.19 356.096 22.53C356.096 20.85 355.756 19.39 355.076 18.15C354.416 16.89 353.506 15.92 352.346 15.24C351.186 14.56 349.866 14.22 348.386 14.22C346.906 14.22 345.586 14.56 344.426 15.24C343.266 15.92 342.346 16.89 341.666 18.15C341.006 19.39 340.676 20.85 340.676 22.53Z" fill="black"/>
<path d="M355.676 36.96L354.969 37.6671L355.261 37.96H355.676V36.96ZM351.506 32.79L352.213 32.0829L351.802 31.6718L351.241 31.8257L351.506 32.79ZM343.076 31.86L342.577 32.7269L342.585 32.7316L343.076 31.86ZM339.266 28.05L338.394 28.5393L338.397 28.5456L338.401 28.5519L339.266 28.05ZM339.266 17.04L338.398 16.5427L338.396 16.5462L339.266 17.04ZM343.076 13.23L343.566 14.1016L343.574 14.0969L343.076 13.23ZM353.726 13.23L353.227 14.0969L353.235 14.1016L353.726 13.23ZM357.506 17.01L358.375 16.5162V16.5162L357.506 17.01ZM357.566 27.93L358.442 28.4119L357.566 27.93ZM353.936 31.71L353.423 30.8515L352.318 31.5116L353.231 32.4191L353.936 31.71ZM359.216 36.96V37.96H361.64L359.921 36.2509L359.216 36.96ZM341.666 26.91L340.78 27.374L340.786 27.3849L341.666 26.91ZM344.426 29.82L343.92 30.6827L343.926 30.6864L344.426 29.82ZM352.316 29.82L351.816 28.9535L351.81 28.9573L352.316 29.82ZM355.076 26.91L354.196 26.435L354.19 26.446L355.076 26.91ZM355.076 18.15L354.19 18.614L354.194 18.6225L354.199 18.6308L355.076 18.15ZM352.346 15.24L351.84 16.1027L352.346 15.24ZM344.426 15.24L344.931 16.1027L344.426 15.24ZM341.666 18.15L340.786 17.6751L340.783 17.6801L341.666 18.15ZM356.383 36.2529L352.213 32.0829L350.799 33.4971L354.969 37.6671L356.383 36.2529ZM351.241 31.8257C350.307 32.0819 349.356 32.21 348.386 32.21V34.21C349.535 34.21 350.664 34.0581 351.77 33.7543L351.241 31.8257ZM348.386 32.21C346.607 32.21 345.008 31.7994 343.566 30.9884L342.585 32.7316C344.344 33.7206 346.284 34.21 348.386 34.21V32.21ZM343.574 30.9931C342.129 30.1619 340.984 29.0188 340.131 27.5481L338.401 28.5519C339.427 30.3212 340.823 31.7181 342.577 32.7269L343.574 30.9931ZM340.138 27.5607C339.309 26.0827 338.886 24.4136 338.886 22.53H336.886C336.886 24.7264 337.383 26.7373 338.394 28.5393L340.138 27.5607ZM338.886 22.53C338.886 20.6462 339.309 18.9892 340.135 17.5338L338.396 16.5462C337.383 18.3308 336.886 20.3338 336.886 22.53H338.886ZM340.133 17.5373C340.986 16.0489 342.128 14.9104 343.566 14.1016L342.585 12.3584C340.823 13.3496 339.425 14.7511 338.398 16.5427L340.133 17.5373ZM343.574 14.0969C345.015 13.2686 346.611 12.85 348.386 12.85V10.85C346.28 10.85 344.337 11.3514 342.577 12.3631L343.574 14.0969ZM348.386 12.85C350.182 12.85 351.788 13.2695 353.227 14.0969L354.224 12.3631C352.463 11.3505 350.509 10.85 348.386 10.85V12.85ZM353.235 14.1016C354.675 14.9111 355.804 16.0394 356.636 17.5038L358.375 16.5162C357.367 14.7406 355.977 13.3489 354.216 12.3584L353.235 14.1016ZM356.636 17.5038C357.462 18.9578 357.886 20.6244 357.886 22.53H359.886C359.886 20.3156 359.39 18.3022 358.375 16.5162L356.636 17.5038ZM357.886 22.53C357.886 24.3779 357.481 26.0095 356.689 27.4481L358.442 28.4119C359.411 26.6505 359.886 24.6821 359.886 22.53H357.886ZM356.689 27.4481C355.893 28.8955 354.808 30.0243 353.423 30.8515L354.449 32.5685C356.144 31.5557 357.478 30.1645 358.442 28.4119L356.689 27.4481ZM353.231 32.4191L358.511 37.6691L359.921 36.2509L354.641 31.0009L353.231 32.4191ZM359.216 35.96H355.676V37.96H359.216V35.96ZM339.676 22.53C339.676 24.3246 340.033 25.9487 340.78 27.374L342.552 26.446C341.978 25.3513 341.676 24.0554 341.676 22.53H339.676ZM340.786 27.3849C341.547 28.7951 342.592 29.9041 343.92 30.6827L344.931 28.9573C343.94 28.3759 343.145 27.5449 342.546 26.4351L340.786 27.3849ZM343.926 30.6864C345.269 31.4602 346.763 31.84 348.386 31.84V29.84C347.088 29.84 345.942 29.5398 344.925 28.9536L343.926 30.6864ZM348.386 31.84C350.008 31.84 351.495 31.4602 352.821 30.6827L351.81 28.9573C350.816 29.5398 349.684 29.84 348.386 29.84V31.84ZM352.815 30.6864C354.167 29.9074 355.218 28.7943 355.962 27.374L354.19 26.446C353.614 27.5457 352.824 28.3726 351.816 28.9536L352.815 30.6864ZM355.956 27.3849C356.726 25.9573 357.096 24.3292 357.096 22.53H355.096C355.096 24.0508 354.785 25.3427 354.196 26.4351L355.956 27.3849ZM357.096 22.53C357.096 20.7135 356.727 19.082 355.953 17.6692L354.199 18.6308C354.784 19.698 355.096 20.9865 355.096 22.53H357.096ZM355.962 17.686C355.22 16.2702 354.182 15.1576 352.851 14.3773L351.84 16.1027C352.829 16.6824 353.611 17.5098 354.19 18.614L355.962 17.686ZM352.851 14.3773C351.523 13.5985 350.025 13.22 348.386 13.22V15.22C349.706 15.22 350.848 15.5215 351.84 16.1027L352.851 14.3773ZM348.386 13.22C346.746 13.22 345.248 13.5985 343.92 14.3773L344.931 16.1027C345.923 15.5215 347.065 15.22 348.386 15.22V13.22ZM343.92 14.3773C342.592 15.1559 341.547 16.2649 340.786 17.6751L342.546 18.6249C343.145 17.5151 343.94 16.6841 344.931 16.1027L343.92 14.3773ZM340.783 17.6801C340.032 19.0906 339.676 20.7181 339.676 22.53H341.676C341.676 20.9819 341.979 19.6894 342.548 18.6198L340.783 17.6801Z" fill="black"/>
</g>
<defs>
<filter id="filter0_d" x="0" y="0" width="428" height="413" filterUnits="userSpaceOnUse" color-interpolation-filters="sRGB">
<feFlood flood-opacity="0" result="BackgroundImageFix"/>
<feColorMatrix in="SourceAlpha" type="matrix" values="0 0 0 0 0 0 0 0 0 0 0 0 0 0 0 0 0 0 127 0"/>
<feOffset dy="4"/>
<feGaussianBlur stdDeviation="2"/>
<feColorMatrix type="matrix" values="0 0 0 0 0 0 0 0 0 0 0 0 0 0 0 0 0 0 0.25 0"/>
<feBlend mode="normal" in2="BackgroundImageFix" result="effect1_dropShadow"/>
<feBlend mode="normal" in="SourceGraphic" in2="effect1_dropShadow" result="shape"/>
</filter>
</defs>
</svg>
