<svg width="12" height="10" viewBox="0 0 12 10" fill="none" xmlns="http://www.w3.org/2000/svg">
<path d="M0 0.5C0 0.223858 0.223858 0 0.5 0H11.5C11.7761 0 12 0.223858 12 0.5V0.5C12 0.776142 11.7761 1 11.5 1H0.5C0.223858 1 0 0.776142 0 0.5V0.5Z" fill="#E2DDDD"/>
<path d="M0 2.5C0 2.22386 0.223858 2 0.5 2H11.5C11.7761 2 12 2.22386 12 2.5V2.5C12 2.77614 11.7761 3 11.5 3H0.5C0.223858 3 0 2.77614 0 2.5V2.5Z" fill="#E2DDDD"/>
<path d="M0 4.5C0 4.22386 0.223858 4 0.5 4H11.5C11.7761 4 12 4.22386 12 4.5V4.5C12 4.77614 11.7761 5 11.5 5H0.5C0.223858 5 0 4.77614 0 4.5V4.5Z" fill="#E2DDDD"/>
</svg>
